G75*
%MOIN*%
%OFA0B0*%
%FSLAX25Y25*%
%IPPOS*%
%LPD*%
%AMOC8*
5,1,8,0,0,1.08239X$1,22.5*
%
%ADD10R,0.01181X0.02165*%
%ADD11R,0.03386X0.01969*%
%ADD12OC8,0.06000*%
%ADD13C,0.03762*%
%ADD14C,0.01000*%
D10*
X0019182Y0015646D03*
X0021151Y0015646D03*
X0021151Y0021354D03*
X0019182Y0021354D03*
X0034182Y0021354D03*
X0036151Y0021354D03*
X0036151Y0015646D03*
X0034182Y0015646D03*
X0049182Y0015646D03*
X0051151Y0015646D03*
X0051151Y0021354D03*
X0049182Y0021354D03*
X0064182Y0021354D03*
X0066151Y0021354D03*
X0066151Y0015646D03*
X0064182Y0015646D03*
D11*
X0065167Y0018500D03*
X0050167Y0018500D03*
X0035167Y0018500D03*
X0020167Y0018500D03*
D12*
X0025167Y0043500D03*
X0035167Y0043500D03*
X0045167Y0043500D03*
X0055167Y0043500D03*
X0065167Y0043500D03*
X0075167Y0043500D03*
X0085167Y0043500D03*
X0095167Y0043500D03*
X0105167Y0043500D03*
X0115167Y0043500D03*
X0125167Y0043500D03*
X0125167Y0053500D03*
X0115167Y0053500D03*
X0105167Y0053500D03*
X0095167Y0053500D03*
X0085167Y0053500D03*
X0075167Y0053500D03*
X0065167Y0053500D03*
X0055167Y0053500D03*
X0045167Y0053500D03*
X0035167Y0053500D03*
X0025167Y0053500D03*
X0015167Y0053500D03*
X0015167Y0043500D03*
D13*
X0022667Y0011000D03*
X0035167Y0011000D03*
X0050167Y0011000D03*
X0065167Y0011000D03*
X0115167Y0018500D03*
X0115167Y0023500D03*
D14*
X0020167Y0006000D02*
X0015167Y0011000D01*
X0015167Y0018500D01*
X0018021Y0021354D01*
X0019182Y0021354D01*
X0019182Y0039484D01*
X0015167Y0043500D01*
X0021151Y0039484D02*
X0025167Y0043500D01*
X0021151Y0039484D02*
X0021151Y0021354D01*
X0020167Y0018500D02*
X0020105Y0018498D01*
X0020044Y0018492D01*
X0019983Y0018483D01*
X0019922Y0018469D01*
X0019863Y0018452D01*
X0019805Y0018431D01*
X0019748Y0018406D01*
X0019693Y0018378D01*
X0019640Y0018347D01*
X0019589Y0018312D01*
X0019540Y0018274D01*
X0019493Y0018233D01*
X0019450Y0018190D01*
X0019409Y0018143D01*
X0019371Y0018094D01*
X0019336Y0018043D01*
X0019305Y0017990D01*
X0019277Y0017935D01*
X0019252Y0017878D01*
X0019231Y0017820D01*
X0019214Y0017761D01*
X0019200Y0017700D01*
X0019191Y0017639D01*
X0019185Y0017578D01*
X0019183Y0017516D01*
X0019182Y0017516D02*
X0019182Y0015646D01*
X0019182Y0014484D01*
X0019167Y0014484D01*
X0019167Y0012000D01*
X0020167Y0011000D01*
X0022667Y0011000D01*
X0021151Y0015646D02*
X0024812Y0015646D01*
X0027667Y0018500D01*
X0027667Y0036000D01*
X0035167Y0043500D01*
X0036151Y0034484D02*
X0045167Y0043500D01*
X0055167Y0043500D02*
X0042667Y0031000D01*
X0042667Y0018500D01*
X0039812Y0015646D01*
X0036151Y0015646D01*
X0034182Y0015646D02*
X0034182Y0017516D01*
X0034183Y0017516D02*
X0034185Y0017578D01*
X0034191Y0017639D01*
X0034200Y0017700D01*
X0034214Y0017761D01*
X0034231Y0017820D01*
X0034252Y0017878D01*
X0034277Y0017935D01*
X0034305Y0017990D01*
X0034336Y0018043D01*
X0034371Y0018094D01*
X0034409Y0018143D01*
X0034450Y0018190D01*
X0034493Y0018233D01*
X0034540Y0018274D01*
X0034589Y0018312D01*
X0034640Y0018347D01*
X0034693Y0018378D01*
X0034748Y0018406D01*
X0034805Y0018431D01*
X0034863Y0018452D01*
X0034922Y0018469D01*
X0034983Y0018483D01*
X0035044Y0018492D01*
X0035105Y0018498D01*
X0035167Y0018500D01*
X0033828Y0021000D02*
X0034182Y0021354D01*
X0033828Y0021000D02*
X0032667Y0021000D01*
X0030167Y0018500D01*
X0030167Y0013500D01*
X0022667Y0006000D01*
X0020167Y0006000D01*
X0022667Y0006000D02*
X0037667Y0006000D01*
X0045167Y0013500D01*
X0045167Y0018500D01*
X0048021Y0021354D01*
X0049182Y0021354D01*
X0051151Y0021354D02*
X0051151Y0029484D01*
X0065167Y0043500D01*
X0075167Y0043500D02*
X0057667Y0026000D01*
X0057667Y0018500D01*
X0054812Y0015646D01*
X0051151Y0015646D01*
X0049182Y0015646D02*
X0049182Y0017516D01*
X0049183Y0017516D02*
X0049185Y0017578D01*
X0049191Y0017639D01*
X0049200Y0017700D01*
X0049214Y0017761D01*
X0049231Y0017820D01*
X0049252Y0017878D01*
X0049277Y0017935D01*
X0049305Y0017990D01*
X0049336Y0018043D01*
X0049371Y0018094D01*
X0049409Y0018143D01*
X0049450Y0018190D01*
X0049493Y0018233D01*
X0049540Y0018274D01*
X0049589Y0018312D01*
X0049640Y0018347D01*
X0049693Y0018378D01*
X0049748Y0018406D01*
X0049805Y0018431D01*
X0049863Y0018452D01*
X0049922Y0018469D01*
X0049983Y0018483D01*
X0050044Y0018492D01*
X0050105Y0018498D01*
X0050167Y0018500D01*
X0049182Y0015646D02*
X0049182Y0011984D01*
X0049183Y0011984D02*
X0049185Y0011922D01*
X0049191Y0011861D01*
X0049200Y0011800D01*
X0049214Y0011739D01*
X0049231Y0011680D01*
X0049252Y0011622D01*
X0049277Y0011565D01*
X0049305Y0011510D01*
X0049336Y0011457D01*
X0049371Y0011406D01*
X0049409Y0011357D01*
X0049450Y0011310D01*
X0049493Y0011267D01*
X0049540Y0011226D01*
X0049589Y0011188D01*
X0049640Y0011153D01*
X0049693Y0011122D01*
X0049748Y0011094D01*
X0049805Y0011069D01*
X0049863Y0011048D01*
X0049922Y0011031D01*
X0049983Y0011017D01*
X0050044Y0011008D01*
X0050105Y0011002D01*
X0050167Y0011000D01*
X0052667Y0006000D02*
X0037667Y0006000D01*
X0035167Y0011000D02*
X0035105Y0011002D01*
X0035044Y0011008D01*
X0034983Y0011017D01*
X0034922Y0011031D01*
X0034863Y0011048D01*
X0034805Y0011069D01*
X0034748Y0011094D01*
X0034693Y0011122D01*
X0034640Y0011153D01*
X0034589Y0011188D01*
X0034540Y0011226D01*
X0034493Y0011267D01*
X0034450Y0011310D01*
X0034409Y0011357D01*
X0034371Y0011406D01*
X0034336Y0011457D01*
X0034305Y0011510D01*
X0034277Y0011565D01*
X0034252Y0011622D01*
X0034231Y0011680D01*
X0034214Y0011739D01*
X0034200Y0011800D01*
X0034191Y0011861D01*
X0034185Y0011922D01*
X0034183Y0011984D01*
X0034182Y0011984D02*
X0034182Y0015646D01*
X0036151Y0021354D02*
X0036151Y0034484D01*
X0060167Y0018500D02*
X0060167Y0013500D01*
X0052667Y0006000D01*
X0064182Y0011984D02*
X0064182Y0015646D01*
X0064182Y0017516D01*
X0064183Y0017516D02*
X0064185Y0017578D01*
X0064191Y0017639D01*
X0064200Y0017700D01*
X0064214Y0017761D01*
X0064231Y0017820D01*
X0064252Y0017878D01*
X0064277Y0017935D01*
X0064305Y0017990D01*
X0064336Y0018043D01*
X0064371Y0018094D01*
X0064409Y0018143D01*
X0064450Y0018190D01*
X0064493Y0018233D01*
X0064540Y0018274D01*
X0064589Y0018312D01*
X0064640Y0018347D01*
X0064693Y0018378D01*
X0064748Y0018406D01*
X0064805Y0018431D01*
X0064863Y0018452D01*
X0064922Y0018469D01*
X0064983Y0018483D01*
X0065044Y0018492D01*
X0065105Y0018498D01*
X0065167Y0018500D01*
X0066151Y0015646D02*
X0067312Y0015646D01*
X0095167Y0043500D01*
X0085167Y0043500D02*
X0066151Y0024484D01*
X0066151Y0021354D01*
X0064182Y0021354D02*
X0063021Y0021354D01*
X0060167Y0018500D01*
X0064183Y0011984D02*
X0064185Y0011922D01*
X0064191Y0011861D01*
X0064200Y0011800D01*
X0064214Y0011739D01*
X0064231Y0011680D01*
X0064252Y0011622D01*
X0064277Y0011565D01*
X0064305Y0011510D01*
X0064336Y0011457D01*
X0064371Y0011406D01*
X0064409Y0011357D01*
X0064450Y0011310D01*
X0064493Y0011267D01*
X0064540Y0011226D01*
X0064589Y0011188D01*
X0064640Y0011153D01*
X0064693Y0011122D01*
X0064748Y0011094D01*
X0064805Y0011069D01*
X0064863Y0011048D01*
X0064922Y0011031D01*
X0064983Y0011017D01*
X0065044Y0011008D01*
X0065105Y0011002D01*
X0065167Y0011000D01*
X0110167Y0038500D02*
X0110167Y0048500D01*
X0105167Y0053500D01*
X0115167Y0053500D02*
X0120167Y0048500D01*
X0120167Y0021000D01*
X0117667Y0018500D01*
X0115167Y0018500D01*
X0115167Y0023500D02*
X0115167Y0033500D01*
X0110167Y0038500D01*
M02*
