G75*
%MOIN*%
%OFA0B0*%
%FSLAX25Y25*%
%IPPOS*%
%LPD*%
%AMOC8*
5,1,8,0,0,1.08239X$1,22.5*
%
%ADD10R,0.01681X0.02665*%
%ADD11R,0.03886X0.02469*%
%ADD12OC8,0.06500*%
%ADD13C,0.04262*%
D10*
X0019182Y0015646D03*
X0021151Y0015646D03*
X0021151Y0021354D03*
X0019182Y0021354D03*
X0034182Y0021354D03*
X0036151Y0021354D03*
X0036151Y0015646D03*
X0034182Y0015646D03*
X0049182Y0015646D03*
X0051151Y0015646D03*
X0051151Y0021354D03*
X0049182Y0021354D03*
X0064182Y0021354D03*
X0066151Y0021354D03*
X0066151Y0015646D03*
X0064182Y0015646D03*
D11*
X0065167Y0018500D03*
X0050167Y0018500D03*
X0035167Y0018500D03*
X0020167Y0018500D03*
D12*
X0025167Y0043500D03*
X0035167Y0043500D03*
X0045167Y0043500D03*
X0055167Y0043500D03*
X0065167Y0043500D03*
X0075167Y0043500D03*
X0085167Y0043500D03*
X0095167Y0043500D03*
X0105167Y0043500D03*
X0115167Y0043500D03*
X0125167Y0043500D03*
X0125167Y0053500D03*
X0115167Y0053500D03*
X0105167Y0053500D03*
X0095167Y0053500D03*
X0085167Y0053500D03*
X0075167Y0053500D03*
X0065167Y0053500D03*
X0055167Y0053500D03*
X0045167Y0053500D03*
X0035167Y0053500D03*
X0025167Y0053500D03*
X0015167Y0053500D03*
X0015167Y0043500D03*
D13*
X0022667Y0011000D03*
X0035167Y0011000D03*
X0050167Y0011000D03*
X0065167Y0011000D03*
X0115167Y0018500D03*
X0115167Y0023500D03*
M02*
