G75*
%MOIN*%
%OFA0B0*%
%FSLAX25Y25*%
%IPPOS*%
%LPD*%
%AMOC8*
5,1,8,0,0,1.08239X$1,22.5*
%
%ADD10C,0.00000*%
%ADD11C,0.00200*%
%ADD12C,0.00500*%
%ADD13C,0.00400*%
D10*
X0005167Y0001000D02*
X0005167Y0062201D01*
X0135088Y0062201D01*
X0135088Y0001000D01*
X0005167Y0001000D01*
D11*
X0013865Y0024100D02*
X0015333Y0024100D01*
X0016067Y0024834D01*
X0015333Y0025568D01*
X0013865Y0025568D01*
X0013865Y0026310D02*
X0013865Y0027044D01*
X0013865Y0026677D02*
X0016067Y0026677D01*
X0016067Y0026310D02*
X0016067Y0027044D01*
X0016067Y0027783D02*
X0013865Y0027783D01*
X0016067Y0029251D01*
X0013865Y0029251D01*
X0014599Y0029993D02*
X0013865Y0030727D01*
X0016067Y0030727D01*
X0016067Y0029993D02*
X0016067Y0031461D01*
X0016067Y0032203D02*
X0013865Y0033671D01*
X0014232Y0034413D02*
X0013865Y0034780D01*
X0013865Y0035514D01*
X0014232Y0035881D01*
X0014599Y0035881D01*
X0014966Y0035514D01*
X0015333Y0035881D01*
X0015700Y0035881D01*
X0016067Y0035514D01*
X0016067Y0034780D01*
X0015700Y0034413D01*
X0014966Y0035147D02*
X0014966Y0035514D01*
X0014966Y0036623D02*
X0014966Y0037357D01*
X0016067Y0036623D02*
X0016067Y0038091D01*
X0016067Y0036623D02*
X0013865Y0036623D01*
X0013865Y0038091D01*
X0023865Y0036617D02*
X0023865Y0035149D01*
X0026067Y0035149D01*
X0026067Y0036617D01*
X0024966Y0035883D02*
X0024966Y0035149D01*
X0024599Y0034407D02*
X0024232Y0034407D01*
X0023865Y0034040D01*
X0023865Y0033306D01*
X0024232Y0032940D01*
X0023865Y0032198D02*
X0026067Y0030730D01*
X0026067Y0029988D02*
X0026067Y0028520D01*
X0026067Y0029254D02*
X0023865Y0029254D01*
X0024599Y0028520D01*
X0023865Y0027778D02*
X0026067Y0027778D01*
X0023865Y0026310D01*
X0026067Y0026310D01*
X0026067Y0025568D02*
X0026067Y0024100D01*
X0023865Y0024100D01*
X0023865Y0025568D01*
X0024966Y0024834D02*
X0024966Y0024100D01*
X0033865Y0024467D02*
X0034232Y0024100D01*
X0035700Y0024100D01*
X0036067Y0024467D01*
X0036067Y0025201D01*
X0035700Y0025568D01*
X0034232Y0025568D01*
X0033865Y0025201D01*
X0033865Y0024467D01*
X0033865Y0026310D02*
X0035700Y0026310D01*
X0036067Y0026677D01*
X0036067Y0027411D01*
X0035700Y0027778D01*
X0033865Y0027778D01*
X0033865Y0028520D02*
X0033865Y0029988D01*
X0033865Y0029254D02*
X0036067Y0029254D01*
X0036067Y0030730D02*
X0036067Y0032198D01*
X0036067Y0031464D02*
X0033865Y0031464D01*
X0034599Y0030730D01*
X0036067Y0032940D02*
X0033865Y0034407D01*
X0034232Y0035149D02*
X0033865Y0035516D01*
X0033865Y0036250D01*
X0034232Y0036617D01*
X0034599Y0036617D01*
X0036067Y0035149D01*
X0036067Y0036617D01*
X0036067Y0038093D02*
X0034966Y0038093D01*
X0034232Y0038827D01*
X0033865Y0038827D01*
X0034966Y0038093D02*
X0034232Y0037359D01*
X0033865Y0037359D01*
X0026067Y0034407D02*
X0026067Y0032940D01*
X0024599Y0034407D01*
X0043865Y0034040D02*
X0043865Y0033306D01*
X0044232Y0032940D01*
X0043865Y0032198D02*
X0046067Y0030730D01*
X0046067Y0029988D02*
X0046067Y0028520D01*
X0044599Y0029988D01*
X0044232Y0029988D01*
X0043865Y0029621D01*
X0043865Y0028887D01*
X0044232Y0028520D01*
X0043865Y0027778D02*
X0046067Y0027778D01*
X0043865Y0026310D01*
X0046067Y0026310D01*
X0046067Y0025568D02*
X0046067Y0024100D01*
X0043865Y0024100D01*
X0043865Y0025568D01*
X0044966Y0024834D02*
X0044966Y0024100D01*
X0054865Y0024467D02*
X0055232Y0024100D01*
X0056700Y0024100D01*
X0057067Y0024467D01*
X0057067Y0025201D01*
X0056700Y0025568D01*
X0055232Y0025568D01*
X0054865Y0025201D01*
X0054865Y0024467D01*
X0054865Y0026310D02*
X0056700Y0026310D01*
X0057067Y0026677D01*
X0057067Y0027411D01*
X0056700Y0027778D01*
X0054865Y0027778D01*
X0054865Y0028520D02*
X0054865Y0029988D01*
X0054865Y0029254D02*
X0057067Y0029254D01*
X0057067Y0030730D02*
X0055599Y0032198D01*
X0055232Y0032198D01*
X0054865Y0031831D01*
X0054865Y0031097D01*
X0055232Y0030730D01*
X0057067Y0030730D02*
X0057067Y0032198D01*
X0057067Y0032940D02*
X0054865Y0034407D01*
X0055599Y0035149D02*
X0054865Y0035883D01*
X0057067Y0035883D01*
X0057067Y0035149D02*
X0057067Y0036617D01*
X0057067Y0037359D02*
X0057067Y0038827D01*
X0056700Y0037359D02*
X0055232Y0038827D01*
X0054865Y0038827D01*
X0054865Y0037359D01*
X0056700Y0037359D02*
X0057067Y0037359D01*
X0064865Y0036617D02*
X0065232Y0036617D01*
X0065966Y0035883D01*
X0067067Y0035883D01*
X0065966Y0035883D02*
X0065232Y0035149D01*
X0064865Y0035149D01*
X0064865Y0033673D02*
X0067067Y0033673D01*
X0067067Y0032940D02*
X0067067Y0034407D01*
X0065599Y0032940D02*
X0064865Y0033673D01*
X0064865Y0032198D02*
X0067067Y0030730D01*
X0066700Y0029988D02*
X0066333Y0029988D01*
X0065966Y0029621D01*
X0065966Y0029254D01*
X0065966Y0029621D02*
X0065599Y0029988D01*
X0065232Y0029988D01*
X0064865Y0029621D01*
X0064865Y0028887D01*
X0065232Y0028520D01*
X0064865Y0027778D02*
X0067067Y0027778D01*
X0064865Y0026310D01*
X0067067Y0026310D01*
X0067067Y0025568D02*
X0067067Y0024100D01*
X0064865Y0024100D01*
X0064865Y0025568D01*
X0065966Y0024834D02*
X0065966Y0024100D01*
X0066700Y0028520D02*
X0067067Y0028887D01*
X0067067Y0029621D01*
X0066700Y0029988D01*
X0073865Y0030407D02*
X0076067Y0028940D01*
X0075700Y0028198D02*
X0076067Y0027831D01*
X0076067Y0027097D01*
X0075700Y0026730D01*
X0074966Y0027464D02*
X0074966Y0027831D01*
X0075333Y0028198D01*
X0075700Y0028198D01*
X0074966Y0027831D02*
X0074599Y0028198D01*
X0074232Y0028198D01*
X0073865Y0027831D01*
X0073865Y0027097D01*
X0074232Y0026730D01*
X0073865Y0025988D02*
X0073865Y0024520D01*
X0073865Y0025254D02*
X0076067Y0025254D01*
X0075700Y0023778D02*
X0073865Y0023778D01*
X0075700Y0023778D02*
X0076067Y0023411D01*
X0076067Y0022677D01*
X0075700Y0022310D01*
X0073865Y0022310D01*
X0074232Y0021568D02*
X0073865Y0021201D01*
X0073865Y0020467D01*
X0074232Y0020100D01*
X0075700Y0020100D01*
X0076067Y0020467D01*
X0076067Y0021201D01*
X0075700Y0021568D01*
X0074232Y0021568D01*
X0081865Y0024100D02*
X0084067Y0024100D01*
X0084067Y0025568D01*
X0084067Y0026310D02*
X0081865Y0026310D01*
X0084067Y0027778D01*
X0081865Y0027778D01*
X0082966Y0028520D02*
X0082966Y0029988D01*
X0084067Y0029621D02*
X0081865Y0029621D01*
X0082966Y0028520D01*
X0084067Y0030730D02*
X0081865Y0032198D01*
X0081865Y0034407D02*
X0084067Y0032940D01*
X0084067Y0035149D02*
X0084067Y0036617D01*
X0084067Y0035883D02*
X0081865Y0035883D01*
X0082599Y0035149D01*
X0082966Y0037359D02*
X0082966Y0038093D01*
X0081865Y0037359D02*
X0084067Y0037359D01*
X0084067Y0038827D01*
X0081865Y0038827D02*
X0081865Y0037359D01*
X0076067Y0037042D02*
X0074599Y0038510D01*
X0074232Y0038510D01*
X0073865Y0038143D01*
X0073865Y0037409D01*
X0074232Y0037042D01*
X0073865Y0036300D02*
X0076067Y0036300D01*
X0073865Y0034833D01*
X0076067Y0034833D01*
X0076067Y0034093D02*
X0076067Y0033359D01*
X0076067Y0033726D02*
X0073865Y0033726D01*
X0073865Y0033359D02*
X0073865Y0034093D01*
X0073865Y0032617D02*
X0075333Y0032617D01*
X0076067Y0031883D01*
X0075333Y0031149D01*
X0073865Y0031149D01*
X0076067Y0037042D02*
X0076067Y0038510D01*
X0088865Y0038827D02*
X0088865Y0037359D01*
X0091067Y0037359D01*
X0091067Y0038827D01*
X0089966Y0038093D02*
X0089966Y0037359D01*
X0089966Y0036617D02*
X0089966Y0035149D01*
X0088865Y0036250D01*
X0091067Y0036250D01*
X0088865Y0034407D02*
X0091067Y0032940D01*
X0091067Y0031831D02*
X0088865Y0031831D01*
X0089966Y0030730D01*
X0089966Y0032198D01*
X0088865Y0029988D02*
X0088865Y0028520D01*
X0088865Y0029254D02*
X0091067Y0029254D01*
X0090700Y0027778D02*
X0088865Y0027778D01*
X0090700Y0027778D02*
X0091067Y0027411D01*
X0091067Y0026677D01*
X0090700Y0026310D01*
X0088865Y0026310D01*
X0089232Y0025568D02*
X0088865Y0025201D01*
X0088865Y0024467D01*
X0089232Y0024100D01*
X0090700Y0024100D01*
X0091067Y0024467D01*
X0091067Y0025201D01*
X0090700Y0025568D01*
X0089232Y0025568D01*
X0082966Y0024834D02*
X0082966Y0024100D01*
X0081865Y0024100D02*
X0081865Y0025568D01*
X0092634Y0011669D02*
X0092634Y0011302D01*
X0092634Y0010568D02*
X0092267Y0010568D01*
X0092634Y0010568D02*
X0092634Y0009100D01*
X0092267Y0009100D02*
X0093001Y0009100D01*
X0093740Y0009100D02*
X0093740Y0010568D01*
X0094107Y0010568D01*
X0094474Y0010201D01*
X0094841Y0010568D01*
X0095208Y0010201D01*
X0095208Y0009100D01*
X0094474Y0009100D02*
X0094474Y0010201D01*
X0095950Y0010568D02*
X0096317Y0010568D01*
X0096317Y0009100D01*
X0095950Y0009100D02*
X0096684Y0009100D01*
X0097423Y0009100D02*
X0098891Y0010568D01*
X0097423Y0010568D02*
X0098891Y0009100D01*
X0100526Y0007302D02*
X0100526Y0005100D01*
X0101994Y0005100D01*
X0102736Y0005467D02*
X0102736Y0006201D01*
X0103103Y0006568D01*
X0103837Y0006568D01*
X0104204Y0006201D01*
X0104204Y0005834D01*
X0102736Y0005834D01*
X0102736Y0005467D02*
X0103103Y0005100D01*
X0103837Y0005100D01*
X0104946Y0005467D02*
X0104946Y0006201D01*
X0105313Y0006568D01*
X0106047Y0006568D01*
X0106414Y0006201D01*
X0106414Y0005467D01*
X0106047Y0005100D01*
X0105313Y0005100D01*
X0104946Y0005467D01*
X0107156Y0005100D02*
X0107156Y0006568D01*
X0108257Y0006568D01*
X0108623Y0006201D01*
X0108623Y0005100D01*
X0109365Y0005467D02*
X0109732Y0005834D01*
X0110833Y0005834D01*
X0110833Y0006201D02*
X0110833Y0005100D01*
X0109732Y0005100D01*
X0109365Y0005467D01*
X0109732Y0006568D02*
X0110466Y0006568D01*
X0110833Y0006201D01*
X0111575Y0006568D02*
X0111575Y0005100D01*
X0111575Y0005834D02*
X0112309Y0006568D01*
X0112676Y0006568D01*
X0113417Y0006201D02*
X0113417Y0005467D01*
X0113784Y0005100D01*
X0114885Y0005100D01*
X0114885Y0007302D01*
X0114885Y0006568D02*
X0113784Y0006568D01*
X0113417Y0006201D01*
X0114734Y0009100D02*
X0115835Y0009100D01*
X0116202Y0009467D01*
X0116202Y0009834D01*
X0115835Y0010201D01*
X0114734Y0010201D01*
X0115835Y0010201D02*
X0116202Y0010568D01*
X0116202Y0010935D01*
X0115835Y0011302D01*
X0114734Y0011302D01*
X0114734Y0009100D01*
X0116944Y0009100D02*
X0116944Y0010568D01*
X0116944Y0009834D02*
X0117678Y0010568D01*
X0118045Y0010568D01*
X0118785Y0010201D02*
X0118785Y0009467D01*
X0119152Y0009100D01*
X0119886Y0009100D01*
X0120253Y0009834D02*
X0118785Y0009834D01*
X0118785Y0010201D02*
X0119152Y0010568D01*
X0119886Y0010568D01*
X0120253Y0010201D01*
X0120253Y0009834D01*
X0120995Y0009467D02*
X0121362Y0009834D01*
X0122463Y0009834D01*
X0122463Y0010201D02*
X0122463Y0009100D01*
X0121362Y0009100D01*
X0120995Y0009467D01*
X0121362Y0010568D02*
X0122096Y0010568D01*
X0122463Y0010201D01*
X0123205Y0009834D02*
X0124306Y0010568D01*
X0125047Y0010201D02*
X0125047Y0009467D01*
X0125414Y0009100D01*
X0126147Y0009100D01*
X0126514Y0009467D01*
X0126514Y0010201D01*
X0126147Y0010568D01*
X0125414Y0010568D01*
X0125047Y0010201D01*
X0124306Y0009100D02*
X0123205Y0009834D01*
X0123205Y0009100D02*
X0123205Y0011302D01*
X0127256Y0010568D02*
X0127256Y0009467D01*
X0127623Y0009100D01*
X0128724Y0009100D01*
X0128724Y0010568D01*
X0129466Y0010568D02*
X0130200Y0010568D01*
X0129833Y0010935D02*
X0129833Y0009467D01*
X0130200Y0009100D01*
X0129986Y0007302D02*
X0128518Y0007302D01*
X0129986Y0007302D02*
X0129986Y0006935D01*
X0128518Y0005467D01*
X0128518Y0005100D01*
X0127776Y0005100D02*
X0126308Y0005100D01*
X0127042Y0005100D02*
X0127042Y0007302D01*
X0126308Y0006568D01*
X0123357Y0006568D02*
X0122990Y0006568D01*
X0122256Y0005834D01*
X0122256Y0005100D02*
X0122256Y0006568D01*
X0121514Y0006201D02*
X0121514Y0005467D01*
X0121147Y0005100D01*
X0120047Y0005100D01*
X0120047Y0004366D02*
X0120047Y0006568D01*
X0121147Y0006568D01*
X0121514Y0006201D01*
X0119305Y0006201D02*
X0117837Y0006201D01*
X0117837Y0006568D02*
X0118571Y0007302D01*
X0119305Y0006568D01*
X0119305Y0005100D01*
X0117837Y0005100D02*
X0117837Y0006568D01*
X0111783Y0010568D02*
X0111416Y0010568D01*
X0110682Y0009834D01*
X0110682Y0009100D02*
X0110682Y0010568D01*
X0109940Y0010201D02*
X0109940Y0009834D01*
X0108472Y0009834D01*
X0108472Y0009467D02*
X0108472Y0010201D01*
X0108839Y0010568D01*
X0109573Y0010568D01*
X0109940Y0010201D01*
X0109573Y0009100D02*
X0108839Y0009100D01*
X0108472Y0009467D01*
X0107730Y0009467D02*
X0107730Y0010568D01*
X0107730Y0009467D02*
X0107363Y0009100D01*
X0106997Y0009467D01*
X0106630Y0009100D01*
X0106263Y0009467D01*
X0106263Y0010568D01*
X0105521Y0010201D02*
X0105521Y0009467D01*
X0105154Y0009100D01*
X0104420Y0009100D01*
X0104053Y0009467D01*
X0104053Y0010201D01*
X0104420Y0010568D01*
X0105154Y0010568D01*
X0105521Y0010201D01*
X0103311Y0010201D02*
X0102944Y0009834D01*
X0101843Y0009834D01*
X0101843Y0009100D02*
X0101843Y0011302D01*
X0102944Y0011302D01*
X0103311Y0010935D01*
X0103311Y0010201D01*
X0097574Y0006201D02*
X0097574Y0005834D01*
X0096106Y0005834D01*
X0096106Y0005467D02*
X0096106Y0006201D01*
X0096473Y0006568D01*
X0097207Y0006568D01*
X0097574Y0006201D01*
X0097207Y0005100D02*
X0096473Y0005100D01*
X0096106Y0005467D01*
X0095364Y0005100D02*
X0095364Y0006201D01*
X0094997Y0006568D01*
X0093896Y0006568D01*
X0093896Y0005100D01*
X0093154Y0005100D02*
X0092053Y0005100D01*
X0091686Y0005467D01*
X0092053Y0005834D01*
X0093154Y0005834D01*
X0093154Y0006201D02*
X0093154Y0005100D01*
X0093154Y0006201D02*
X0092787Y0006568D01*
X0092053Y0006568D01*
X0090944Y0006201D02*
X0090944Y0005100D01*
X0090944Y0006201D02*
X0090577Y0006568D01*
X0089844Y0006568D01*
X0089477Y0006201D01*
X0088735Y0005834D02*
X0088735Y0005467D01*
X0088368Y0005100D01*
X0087634Y0005100D01*
X0087267Y0005467D01*
X0087634Y0006201D02*
X0088368Y0006201D01*
X0088735Y0005834D01*
X0089477Y0005100D02*
X0089477Y0007302D01*
X0088735Y0006935D02*
X0088368Y0007302D01*
X0087634Y0007302D01*
X0087267Y0006935D01*
X0087267Y0006568D01*
X0087634Y0006201D01*
X0096317Y0011302D02*
X0096317Y0011669D01*
X0113865Y0028467D02*
X0113865Y0029201D01*
X0114232Y0029568D01*
X0114599Y0029568D01*
X0114966Y0029201D01*
X0115333Y0029568D01*
X0115700Y0029568D01*
X0116067Y0029201D01*
X0116067Y0028467D01*
X0115700Y0028100D01*
X0114966Y0028834D02*
X0114966Y0029201D01*
X0114232Y0028100D02*
X0113865Y0028467D01*
X0113865Y0030310D02*
X0113865Y0031778D01*
X0114232Y0031778D01*
X0115700Y0030310D01*
X0116067Y0030310D01*
X0116067Y0031778D01*
X0116067Y0032520D02*
X0113865Y0033988D01*
X0114966Y0034730D02*
X0114966Y0036198D01*
X0114232Y0036940D02*
X0114966Y0037673D01*
X0116067Y0037673D01*
X0114966Y0037673D02*
X0114232Y0038407D01*
X0113865Y0038407D01*
X0113865Y0036940D02*
X0114232Y0036940D01*
X0113865Y0035831D02*
X0114966Y0034730D01*
X0116067Y0035831D02*
X0113865Y0035831D01*
X0118865Y0035831D02*
X0119966Y0034730D01*
X0119966Y0036198D01*
X0120700Y0036940D02*
X0121067Y0036940D01*
X0121067Y0038407D01*
X0120700Y0036940D02*
X0119232Y0038407D01*
X0118865Y0038407D01*
X0118865Y0036940D01*
X0118865Y0035831D02*
X0121067Y0035831D01*
X0118865Y0033988D02*
X0121067Y0032520D01*
X0119966Y0031044D02*
X0119232Y0031778D01*
X0118865Y0031778D01*
X0119966Y0031044D02*
X0121067Y0031044D01*
X0119966Y0031044D02*
X0119232Y0030310D01*
X0118865Y0030310D01*
X0119232Y0029568D02*
X0119599Y0029568D01*
X0119966Y0029201D01*
X0120333Y0029568D01*
X0120700Y0029568D01*
X0121067Y0029201D01*
X0121067Y0028467D01*
X0120700Y0028100D01*
X0119966Y0028834D02*
X0119966Y0029201D01*
X0119232Y0029568D02*
X0118865Y0029201D01*
X0118865Y0028467D01*
X0119232Y0028100D01*
X0123865Y0032467D02*
X0124232Y0032100D01*
X0125700Y0032100D01*
X0126067Y0032467D01*
X0126067Y0033201D01*
X0125700Y0033568D01*
X0124966Y0033568D01*
X0124966Y0032834D01*
X0124232Y0033568D02*
X0123865Y0033201D01*
X0123865Y0032467D01*
X0123865Y0034310D02*
X0126067Y0035778D01*
X0123865Y0035778D01*
X0123865Y0036520D02*
X0123865Y0037621D01*
X0124232Y0037988D01*
X0125700Y0037988D01*
X0126067Y0037621D01*
X0126067Y0036520D01*
X0123865Y0036520D01*
X0123865Y0034310D02*
X0126067Y0034310D01*
X0046067Y0034407D02*
X0046067Y0032940D01*
X0044599Y0034407D01*
X0044232Y0034407D01*
X0043865Y0034040D01*
X0043865Y0035149D02*
X0043865Y0036617D01*
X0044232Y0036617D01*
X0045700Y0035149D01*
X0046067Y0035149D01*
X0046067Y0036617D01*
D12*
X0092057Y0033343D02*
X0092059Y0033405D01*
X0092065Y0033468D01*
X0092075Y0033529D01*
X0092089Y0033590D01*
X0092106Y0033650D01*
X0092127Y0033709D01*
X0092153Y0033766D01*
X0092181Y0033821D01*
X0092213Y0033875D01*
X0092249Y0033926D01*
X0092287Y0033976D01*
X0092329Y0034022D01*
X0092373Y0034066D01*
X0092421Y0034107D01*
X0092470Y0034145D01*
X0092522Y0034179D01*
X0092576Y0034210D01*
X0092632Y0034238D01*
X0092690Y0034262D01*
X0092749Y0034283D01*
X0092809Y0034299D01*
X0092870Y0034312D01*
X0092932Y0034321D01*
X0092994Y0034326D01*
X0093057Y0034327D01*
X0093119Y0034324D01*
X0093181Y0034317D01*
X0093243Y0034306D01*
X0093303Y0034291D01*
X0093363Y0034273D01*
X0093421Y0034251D01*
X0093478Y0034225D01*
X0093533Y0034195D01*
X0093586Y0034162D01*
X0093637Y0034126D01*
X0093685Y0034087D01*
X0093731Y0034044D01*
X0093774Y0033999D01*
X0093814Y0033951D01*
X0093851Y0033901D01*
X0093885Y0033848D01*
X0093916Y0033794D01*
X0093942Y0033738D01*
X0093966Y0033680D01*
X0093985Y0033620D01*
X0094001Y0033560D01*
X0094013Y0033498D01*
X0094021Y0033437D01*
X0094025Y0033374D01*
X0094025Y0033312D01*
X0094021Y0033249D01*
X0094013Y0033188D01*
X0094001Y0033126D01*
X0093985Y0033066D01*
X0093966Y0033006D01*
X0093942Y0032948D01*
X0093916Y0032892D01*
X0093885Y0032838D01*
X0093851Y0032785D01*
X0093814Y0032735D01*
X0093774Y0032687D01*
X0093731Y0032642D01*
X0093685Y0032599D01*
X0093637Y0032560D01*
X0093586Y0032524D01*
X0093533Y0032491D01*
X0093478Y0032461D01*
X0093421Y0032435D01*
X0093363Y0032413D01*
X0093303Y0032395D01*
X0093243Y0032380D01*
X0093181Y0032369D01*
X0093119Y0032362D01*
X0093057Y0032359D01*
X0092994Y0032360D01*
X0092932Y0032365D01*
X0092870Y0032374D01*
X0092809Y0032387D01*
X0092749Y0032403D01*
X0092690Y0032424D01*
X0092632Y0032448D01*
X0092576Y0032476D01*
X0092522Y0032507D01*
X0092470Y0032541D01*
X0092421Y0032579D01*
X0092373Y0032620D01*
X0092329Y0032664D01*
X0092287Y0032710D01*
X0092249Y0032760D01*
X0092213Y0032811D01*
X0092181Y0032865D01*
X0092153Y0032920D01*
X0092127Y0032977D01*
X0092106Y0033036D01*
X0092089Y0033096D01*
X0092075Y0033157D01*
X0092065Y0033218D01*
X0092059Y0033281D01*
X0092057Y0033343D01*
X0093277Y0031374D02*
X0097214Y0031374D01*
X0093277Y0031374D02*
X0093277Y0029406D01*
X0103119Y0031374D02*
X0107056Y0031374D01*
X0107056Y0029406D01*
X0107056Y0017594D02*
X0107056Y0015626D01*
X0103119Y0015626D01*
X0097214Y0015626D02*
X0093277Y0015626D01*
X0093277Y0017594D01*
D13*
X0109223Y0025065D02*
X0111391Y0025065D01*
X0111825Y0025499D01*
X0111825Y0026366D01*
X0111391Y0026800D01*
X0109223Y0026800D01*
X0109223Y0027827D02*
X0110524Y0027827D01*
X0110090Y0028695D01*
X0110090Y0029129D01*
X0110524Y0029562D01*
X0111391Y0029562D01*
X0111825Y0029129D01*
X0111825Y0028261D01*
X0111391Y0027827D01*
X0109223Y0027827D02*
X0109223Y0029562D01*
M02*
