%
M48
M72
T01C0.02362
T02C0.04000
%
T01
X22667Y11000
X35167Y11000
X50167Y11000
X65167Y11000
X115167Y18500
X115167Y23500
T02
X115167Y43500
X125167Y43500
X125167Y53500
X115167Y53500
X105167Y53500
X95167Y53500
X85167Y53500
X75167Y53500
X65167Y53500
X55167Y53500
X45167Y53500
X35167Y53500
X25167Y53500
X15167Y53500
X15167Y43500
X25167Y43500
X35167Y43500
X45167Y43500
X55167Y43500
X65167Y43500
X75167Y43500
X85167Y43500
X95167Y43500
X105167Y43500
M30
