%
M48
M72
T01C0.01300
T02C0.02362
T03C0.03543
T04C0.03900
T05C0.04000
T06C0.07200
T07C0.09350
T08C0.11811
%
T01
X75199Y190554
X114570Y210239
X129136Y221656
X114570Y233861
X110633Y247640
X122050Y263388
X127562Y271262
X136223Y274018
X140160Y281892
X142916Y284648
X167719Y291735
X186420Y301577
X190357Y306499
X196262Y293703
X188388Y287798
X191341Y279924
X187404Y275987
X183467Y272050
X197247Y262207
X207089Y266144
X209058Y252365
X204136Y248428
X197247Y238585
X189373Y234648
X179530Y254333
X210042Y225790
X226774Y225790
X233664Y222837
X238585Y214963
X245475Y213979
X256577Y220633
X248428Y250396
X261223Y255318
X261223Y259255
X261223Y263192
X267129Y279924
X263192Y282877
X268113Y293703
X272050Y293703
X279924Y289766
X279924Y297640
X283861Y297640
X285829Y300593
X287798Y303546
X290751Y306499
X290751Y310436
X289766Y314373
X285829Y327168
X293703Y333073
X295672Y339963
X303546Y333073
X300593Y330121
X309451Y333073
X321262Y317325
X325199Y317325
X329136Y317325
X333073Y317325
X337010Y317325
X340948Y317325
X350790Y327168
X350790Y331105
X356696Y311420
X360633Y311420
X364570Y311420
X368507Y311420
X372444Y291735
X368507Y283861
X364570Y291735
X360633Y283861
X364570Y277955
X368507Y275003
X370475Y267129
X352759Y262207
X350790Y256302
X350790Y250396
X344885Y236617
X344885Y232680
X338979Y232680
X338979Y236617
X321853Y234058
X322247Y245475
X327168Y250396
X325199Y256302
X337010Y260239
X338979Y263192
X337010Y266144
X338979Y269097
X337010Y272050
X350790Y284845
X332089Y299609
X321262Y287798
X314176Y277955
X302562Y276971
X297640Y280908
X291735Y282877
X291735Y277955
X288782Y269097
X284845Y269097
X282286Y263388
X288782Y260239
X297640Y268113
X312404Y254333
X308467Y247444
X310436Y244491
X300593Y243507
X290751Y242522
X281892Y239570
X281892Y246459
X291735Y228743
X311420Y232680
X315357Y212995
X298861Y206932
X295672Y183073
X274018Y171656
X268113Y169688
X287798Y154924
X287798Y149018
X287798Y144097
X287798Y136223
X285829Y128349
X287798Y121459
X331105Y179530
X325003Y182483
X342916Y169688
X344885Y179530
X360633Y163782
X365554Y167719
X365554Y172640
X372444Y161814
X375396Y157877
X381696Y156499
X379333Y147837
X382286Y144097
X382877Y131892
X369491Y150987
X360829Y157286
X357680Y143113
X359885Y136223
X356696Y132286
X388782Y166341
X386420Y178940
X376577Y178940
X376381Y212995
X367522Y214963
X355711Y212995
X354727Y217916
X351774Y221853
X344885Y210042
X337995Y217916
X333073Y218900
X377562Y234058
X386223Y246459
X399018Y256105
X407286Y265554
X406105Y225790
X387207Y215554
X273034Y320278
X269097Y320278
X265160Y320278
X259255Y320278
X259255Y316341
X259255Y330121
X262207Y333073
X274018Y327168
X303546Y354727
X309451Y351774
X326184Y361617
X315357Y380318
X325199Y396066
X355514Y364176
X355908Y360633
X355711Y356696
X366538Y360633
X366538Y396066
X285829Y423625
X274018Y425593
X283861Y403940
X275987Y396066
X272050Y396066
X269085Y393125
X266144Y396066
X260042Y393113
X252759Y407089
X253349Y410829
X244491Y427562
X224806Y401971
X194294Y355711
X196262Y335042
X186420Y331105
X190357Y321262
X181696Y318507
X205121Y311420
X216932Y307483
X220869Y307483
X224806Y307483
X228743Y307483
X224806Y317325
X232680Y321262
X228743Y325199
X232680Y333073
X232680Y337010
X223428Y347050
X226774Y350790
X229924Y353940
X233073Y350790
X236617Y352759
X242522Y346853
X244491Y321262
X236617Y287798
X229727Y277955
X232680Y275003
X235633Y272050
X226774Y280908
X220869Y287798
X211026Y297640
X207089Y297640
X206105Y293703
X207089Y333073
X174609Y364570
X166735Y368507
X130318Y322247
X142129Y311420
X120475Y290554
X98822Y279924
X98822Y274018
X129136Y256302
X179530Y190554
X189373Y176381
X181499Y153152
X214176Y155908
X218900Y163782
X229924Y183467
X217719Y206696
T02
X218900Y222562
X216932Y240554
X224294Y267877
X242522Y289766
X228743Y299609
X187404Y252365
X191341Y242522
X187404Y226774
X185436Y220869
X185436Y207089
X203152Y179924
X207089Y153940
X228743Y122444
X229727Y116538
X236617Y116538
X244491Y116538
X252365Y116538
X260239Y116538
X268113Y116538
X275987Y116538
X283861Y116538
X291735Y116538
X299609Y116538
X313388Y116538
X324215Y116538
X331105Y116538
X338979Y116538
X346853Y116538
X368507Y116538
X386223Y123625
X401971Y116538
X388664Y155396
X323231Y168703
X322247Y135239
X287798Y163782
X266144Y140160
X256302Y183467
X222837Y116538
X94885Y242522
X112601Y293703
X94885Y299609
X125396Y314373
X125396Y327168
X114570Y344885
X92916Y343900
X78152Y344885
X76184Y362601
X135239Y387207
X135239Y402955
X222837Y449215
X228743Y449215
X234648Y449215
X240554Y449215
X246459Y449215
X254333Y449215
X274018Y449215
X281892Y449215
X289766Y449215
X297640Y449215
X305514Y449215
X322837Y426774
X331105Y417719
X338585Y416932
X370475Y403940
X372050Y398034
X386223Y394097
X398034Y394097
X398034Y413782
X390160Y418507
X382286Y419688
X374412Y423625
X401971Y425593
X398034Y476774
X342129Y462601
X312404Y293703
X311420Y287798
X289766Y289766
X394097Y250396
X138192Y299609
T03
X368231Y410963
X368231Y438963
X368388Y446121
X368388Y474121
T04
X247507Y178703
X239507Y178703
X243507Y158703
X243507Y143270
X247507Y123270
X239507Y123270
T05
X251892Y191499
X261892Y191499
X271892Y191499
X271892Y201530
X261892Y201530
X251892Y201530
X281892Y201530
X291892Y201530
X301892Y201530
X311892Y201530
X311892Y191499
X301892Y191499
X291892Y191499
X281892Y191499
X321892Y191499
X321892Y201530
X341892Y201530
X351892Y201530
X351892Y191499
X341892Y191499
X361892Y191499
X371892Y191499
X381892Y191499
X391892Y191499
X391892Y201530
X381892Y201530
X371892Y201530
X361892Y201530
X392444Y281302
X392444Y291302
X392444Y301302
X402444Y301302
X402444Y291302
X402444Y281302
X391924Y371499
X391892Y381499
X381892Y381499
X371892Y381499
X361892Y381499
X361924Y371499
X371924Y371499
X381924Y371499
X351924Y371499
X351892Y381499
X341892Y381499
X331892Y381499
X321892Y381499
X321924Y371499
X331924Y371499
X341924Y371499
X305948Y371499
X305892Y381499
X295892Y381499
X285892Y381499
X285948Y371499
X295948Y371499
X275948Y371499
X275892Y381499
X265892Y381499
X255892Y381499
X245892Y381499
X245948Y371499
X255948Y371499
X265948Y371499
X235948Y371499
X235892Y381499
X225892Y381499
X215892Y381499
X215948Y371499
X225948Y371499
X159333Y356420
X149333Y356420
X149333Y346420
X149333Y336420
X149333Y326420
X149333Y316420
X149333Y306420
X149333Y296420
X149333Y286420
X149333Y276420
X149333Y266420
X159333Y266420
X159333Y276420
X159333Y286420
X159333Y296420
X159333Y306420
X159333Y316420
X159333Y326420
X159333Y336420
X159333Y346420
X159294Y246066
X149294Y246066
X149294Y236066
X159294Y236066
X159294Y226066
X149294Y226066
X149294Y216066
X159294Y216066
X159294Y206066
X149294Y206066
T06
X106735Y163278
X116735Y189845
X96735Y189845
X96656Y377877
X116656Y377877
X106656Y404444
T07
X233507Y171203
X233507Y158703
X233507Y143270
X233507Y130770
X253507Y130770
X253507Y143270
X253507Y158703
X253507Y171203
T08
X200199Y163782
X394097Y98822
X394097Y327168
X200199Y402955
M30
