G75*
%MOIN*%
%OFA0B0*%
%FSLAX25Y25*%
%IPPOS*%
%LPD*%
%AMOC8*
5,1,8,0,0,1.08239X$1,22.5*
%
%ADD10C,0.12311*%
%ADD11C,0.00666*%
%ADD12C,0.05815*%
%ADD13C,0.07900*%
%ADD14C,0.08100*%
%ADD15C,0.00716*%
%ADD16C,0.00720*%
%ADD17C,0.00746*%
%ADD18C,0.00905*%
%ADD19C,0.00837*%
%ADD20C,0.00679*%
%ADD21C,0.11300*%
%ADD22C,0.04400*%
%ADD23C,0.09850*%
%ADD24C,0.05000*%
%ADD25C,0.04437*%
%ADD26C,0.00857*%
%ADD27C,0.00741*%
%ADD28C,0.00925*%
%ADD29C,0.00687*%
%ADD30C,0.04262*%
D10*
X0200199Y0163782D03*
X0394097Y0098822D03*
X0394097Y0327168D03*
X0200199Y0402955D03*
D11*
X0255175Y0415401D02*
X0255175Y0419565D01*
X0255175Y0415401D02*
X0251405Y0415401D01*
X0251405Y0419565D01*
X0255175Y0419565D01*
X0255175Y0416066D02*
X0251405Y0416066D01*
X0251405Y0416731D02*
X0255175Y0416731D01*
X0255175Y0417396D02*
X0251405Y0417396D01*
X0251405Y0418061D02*
X0255175Y0418061D01*
X0255175Y0418726D02*
X0251405Y0418726D01*
X0251405Y0419391D02*
X0255175Y0419391D01*
X0255175Y0422094D02*
X0255175Y0426258D01*
X0255175Y0422094D02*
X0251405Y0422094D01*
X0251405Y0426258D01*
X0255175Y0426258D01*
X0255175Y0422759D02*
X0251405Y0422759D01*
X0251405Y0423424D02*
X0255175Y0423424D01*
X0255175Y0424089D02*
X0251405Y0424089D01*
X0251405Y0424754D02*
X0255175Y0424754D01*
X0255175Y0425419D02*
X0251405Y0425419D01*
X0251405Y0426084D02*
X0255175Y0426084D01*
X0278039Y0440273D02*
X0282203Y0440273D01*
X0282203Y0436503D01*
X0278039Y0436503D01*
X0278039Y0440273D01*
X0278039Y0437168D02*
X0282203Y0437168D01*
X0282203Y0437833D02*
X0278039Y0437833D01*
X0278039Y0438498D02*
X0282203Y0438498D01*
X0282203Y0439163D02*
X0278039Y0439163D01*
X0278039Y0439828D02*
X0282203Y0439828D01*
X0284732Y0440273D02*
X0288896Y0440273D01*
X0288896Y0436503D01*
X0284732Y0436503D01*
X0284732Y0440273D01*
X0284732Y0437168D02*
X0288896Y0437168D01*
X0288896Y0437833D02*
X0284732Y0437833D01*
X0284732Y0438498D02*
X0288896Y0438498D01*
X0288896Y0439163D02*
X0284732Y0439163D01*
X0284732Y0439828D02*
X0288896Y0439828D01*
X0301661Y0430234D02*
X0301661Y0426070D01*
X0301661Y0430234D02*
X0305431Y0430234D01*
X0305431Y0426070D01*
X0301661Y0426070D01*
X0301661Y0426735D02*
X0305431Y0426735D01*
X0305431Y0427400D02*
X0301661Y0427400D01*
X0301661Y0428065D02*
X0305431Y0428065D01*
X0305431Y0428730D02*
X0301661Y0428730D01*
X0301661Y0429395D02*
X0305431Y0429395D01*
X0305431Y0430060D02*
X0301661Y0430060D01*
X0301661Y0423541D02*
X0301661Y0419377D01*
X0301661Y0423541D02*
X0305431Y0423541D01*
X0305431Y0419377D01*
X0301661Y0419377D01*
X0301661Y0420042D02*
X0305431Y0420042D01*
X0305431Y0420707D02*
X0301661Y0420707D01*
X0301661Y0421372D02*
X0305431Y0421372D01*
X0305431Y0422037D02*
X0301661Y0422037D01*
X0301661Y0422702D02*
X0305431Y0422702D01*
X0305431Y0423367D02*
X0301661Y0423367D01*
X0366622Y0424102D02*
X0366622Y0428266D01*
X0370392Y0428266D01*
X0370392Y0424102D01*
X0366622Y0424102D01*
X0366622Y0424767D02*
X0370392Y0424767D01*
X0370392Y0425432D02*
X0366622Y0425432D01*
X0366622Y0426097D02*
X0370392Y0426097D01*
X0370392Y0426762D02*
X0366622Y0426762D01*
X0366622Y0427427D02*
X0370392Y0427427D01*
X0370392Y0428092D02*
X0366622Y0428092D01*
X0366622Y0430795D02*
X0366622Y0434959D01*
X0370392Y0434959D01*
X0370392Y0430795D01*
X0366622Y0430795D01*
X0366622Y0431460D02*
X0370392Y0431460D01*
X0370392Y0432125D02*
X0366622Y0432125D01*
X0366622Y0432790D02*
X0370392Y0432790D01*
X0370392Y0433455D02*
X0366622Y0433455D01*
X0366622Y0434120D02*
X0370392Y0434120D01*
X0370392Y0434785D02*
X0366622Y0434785D01*
X0384732Y0421740D02*
X0388896Y0421740D01*
X0384732Y0421740D02*
X0384732Y0425510D01*
X0388896Y0425510D01*
X0388896Y0421740D01*
X0388896Y0422405D02*
X0384732Y0422405D01*
X0384732Y0423070D02*
X0388896Y0423070D01*
X0388896Y0423735D02*
X0384732Y0423735D01*
X0384732Y0424400D02*
X0388896Y0424400D01*
X0388896Y0425065D02*
X0384732Y0425065D01*
X0391425Y0421740D02*
X0395589Y0421740D01*
X0391425Y0421740D02*
X0391425Y0425510D01*
X0395589Y0425510D01*
X0395589Y0421740D01*
X0395589Y0422405D02*
X0391425Y0422405D01*
X0391425Y0423070D02*
X0395589Y0423070D01*
X0395589Y0423735D02*
X0391425Y0423735D01*
X0391425Y0424400D02*
X0395589Y0424400D01*
X0395589Y0425065D02*
X0391425Y0425065D01*
X0396543Y0421573D02*
X0400707Y0421573D01*
X0400707Y0417803D01*
X0396543Y0417803D01*
X0396543Y0421573D01*
X0396543Y0418468D02*
X0400707Y0418468D01*
X0400707Y0419133D02*
X0396543Y0419133D01*
X0396543Y0419798D02*
X0400707Y0419798D01*
X0400707Y0420463D02*
X0396543Y0420463D01*
X0396543Y0421128D02*
X0400707Y0421128D01*
X0403236Y0421573D02*
X0407400Y0421573D01*
X0407400Y0417803D01*
X0403236Y0417803D01*
X0403236Y0421573D01*
X0403236Y0418468D02*
X0407400Y0418468D01*
X0407400Y0419133D02*
X0403236Y0419133D01*
X0403236Y0419798D02*
X0407400Y0419798D01*
X0407400Y0420463D02*
X0403236Y0420463D01*
X0403236Y0421128D02*
X0407400Y0421128D01*
X0391652Y0465047D02*
X0387488Y0465047D01*
X0387488Y0468817D01*
X0391652Y0468817D01*
X0391652Y0465047D01*
X0391652Y0465712D02*
X0387488Y0465712D01*
X0387488Y0466377D02*
X0391652Y0466377D01*
X0391652Y0467042D02*
X0387488Y0467042D01*
X0387488Y0467707D02*
X0391652Y0467707D01*
X0391652Y0468372D02*
X0387488Y0468372D01*
X0384959Y0465047D02*
X0380795Y0465047D01*
X0380795Y0468817D01*
X0384959Y0468817D01*
X0384959Y0465047D01*
X0384959Y0465712D02*
X0380795Y0465712D01*
X0380795Y0466377D02*
X0384959Y0466377D01*
X0384959Y0467042D02*
X0380795Y0467042D01*
X0380795Y0467707D02*
X0384959Y0467707D01*
X0384959Y0468372D02*
X0380795Y0468372D01*
X0380795Y0472921D02*
X0384959Y0472921D01*
X0380795Y0472921D02*
X0380795Y0476691D01*
X0384959Y0476691D01*
X0384959Y0472921D01*
X0384959Y0473586D02*
X0380795Y0473586D01*
X0380795Y0474251D02*
X0384959Y0474251D01*
X0384959Y0474916D02*
X0380795Y0474916D01*
X0380795Y0475581D02*
X0384959Y0475581D01*
X0384959Y0476246D02*
X0380795Y0476246D01*
X0387488Y0472921D02*
X0391652Y0472921D01*
X0387488Y0472921D02*
X0387488Y0476691D01*
X0391652Y0476691D01*
X0391652Y0472921D01*
X0391652Y0473586D02*
X0387488Y0473586D01*
X0387488Y0474251D02*
X0391652Y0474251D01*
X0391652Y0474916D02*
X0387488Y0474916D01*
X0387488Y0475581D02*
X0391652Y0475581D01*
X0391652Y0476246D02*
X0387488Y0476246D01*
X0270982Y0338502D02*
X0270982Y0334338D01*
X0267212Y0334338D01*
X0267212Y0338502D01*
X0270982Y0338502D01*
X0270982Y0335003D02*
X0267212Y0335003D01*
X0267212Y0335668D02*
X0270982Y0335668D01*
X0270982Y0336333D02*
X0267212Y0336333D01*
X0267212Y0336998D02*
X0270982Y0336998D01*
X0270982Y0337663D02*
X0267212Y0337663D01*
X0267212Y0338328D02*
X0270982Y0338328D01*
X0270982Y0331809D02*
X0270982Y0327645D01*
X0267212Y0327645D01*
X0267212Y0331809D01*
X0270982Y0331809D01*
X0270982Y0328310D02*
X0267212Y0328310D01*
X0267212Y0328975D02*
X0270982Y0328975D01*
X0270982Y0329640D02*
X0267212Y0329640D01*
X0267212Y0330305D02*
X0270982Y0330305D01*
X0270982Y0330970D02*
X0267212Y0330970D01*
X0267212Y0331635D02*
X0270982Y0331635D01*
X0282545Y0311982D02*
X0279601Y0309038D01*
X0282545Y0311982D02*
X0285211Y0309316D01*
X0282267Y0306372D01*
X0279601Y0309038D01*
X0281602Y0307037D02*
X0282932Y0307037D01*
X0283597Y0307702D02*
X0280937Y0307702D01*
X0280272Y0308367D02*
X0284262Y0308367D01*
X0284927Y0309032D02*
X0279607Y0309032D01*
X0280260Y0309697D02*
X0284830Y0309697D01*
X0284165Y0310362D02*
X0280925Y0310362D01*
X0281590Y0311027D02*
X0283500Y0311027D01*
X0282835Y0311692D02*
X0282255Y0311692D01*
X0277812Y0307250D02*
X0274868Y0304306D01*
X0277812Y0307250D02*
X0280478Y0304584D01*
X0277534Y0301640D01*
X0274868Y0304306D01*
X0276869Y0302305D02*
X0278199Y0302305D01*
X0278864Y0302970D02*
X0276204Y0302970D01*
X0275539Y0303635D02*
X0279529Y0303635D01*
X0280194Y0304300D02*
X0274874Y0304300D01*
X0275527Y0304965D02*
X0280097Y0304965D01*
X0279432Y0305630D02*
X0276192Y0305630D01*
X0276857Y0306295D02*
X0278767Y0306295D01*
X0278102Y0306960D02*
X0277522Y0306960D01*
X0300319Y0297915D02*
X0303263Y0300859D01*
X0305929Y0298193D01*
X0302985Y0295249D01*
X0300319Y0297915D01*
X0302320Y0295914D02*
X0303650Y0295914D01*
X0304315Y0296579D02*
X0301655Y0296579D01*
X0300990Y0297244D02*
X0304980Y0297244D01*
X0305645Y0297909D02*
X0300325Y0297909D01*
X0300978Y0298574D02*
X0305548Y0298574D01*
X0304883Y0299239D02*
X0301643Y0299239D01*
X0302308Y0299904D02*
X0304218Y0299904D01*
X0303553Y0300569D02*
X0302973Y0300569D01*
X0305052Y0302648D02*
X0307996Y0305592D01*
X0310662Y0302926D01*
X0307718Y0299982D01*
X0305052Y0302648D01*
X0307053Y0300647D02*
X0308383Y0300647D01*
X0309048Y0301312D02*
X0306388Y0301312D01*
X0305723Y0301977D02*
X0309713Y0301977D01*
X0310378Y0302642D02*
X0305058Y0302642D01*
X0305711Y0303307D02*
X0310281Y0303307D01*
X0309616Y0303972D02*
X0306376Y0303972D01*
X0307041Y0304637D02*
X0308951Y0304637D01*
X0308286Y0305302D02*
X0307706Y0305302D01*
X0326661Y0243590D02*
X0330825Y0243590D01*
X0326661Y0243590D02*
X0326661Y0247360D01*
X0330825Y0247360D01*
X0330825Y0243590D01*
X0330825Y0244255D02*
X0326661Y0244255D01*
X0326661Y0244920D02*
X0330825Y0244920D01*
X0330825Y0245585D02*
X0326661Y0245585D01*
X0326661Y0246250D02*
X0330825Y0246250D01*
X0330825Y0246915D02*
X0326661Y0246915D01*
X0333354Y0243590D02*
X0337518Y0243590D01*
X0333354Y0243590D02*
X0333354Y0247360D01*
X0337518Y0247360D01*
X0337518Y0243590D01*
X0337518Y0244255D02*
X0333354Y0244255D01*
X0333354Y0244920D02*
X0337518Y0244920D01*
X0337518Y0245585D02*
X0333354Y0245585D01*
X0333354Y0246250D02*
X0337518Y0246250D01*
X0337518Y0246915D02*
X0333354Y0246915D01*
X0365047Y0178462D02*
X0369211Y0178462D01*
X0369211Y0174692D01*
X0365047Y0174692D01*
X0365047Y0178462D01*
X0365047Y0175357D02*
X0369211Y0175357D01*
X0369211Y0176022D02*
X0365047Y0176022D01*
X0365047Y0176687D02*
X0369211Y0176687D01*
X0369211Y0177352D02*
X0365047Y0177352D01*
X0365047Y0178017D02*
X0369211Y0178017D01*
X0371740Y0178462D02*
X0375904Y0178462D01*
X0375904Y0174692D01*
X0371740Y0174692D01*
X0371740Y0178462D01*
X0371740Y0175357D02*
X0375904Y0175357D01*
X0375904Y0176022D02*
X0371740Y0176022D01*
X0371740Y0176687D02*
X0375904Y0176687D01*
X0375904Y0177352D02*
X0371740Y0177352D01*
X0371740Y0178017D02*
X0375904Y0178017D01*
X0376888Y0168620D02*
X0372724Y0168620D01*
X0376888Y0168620D02*
X0376888Y0164850D01*
X0372724Y0164850D01*
X0372724Y0168620D01*
X0372724Y0165515D02*
X0376888Y0165515D01*
X0376888Y0166180D02*
X0372724Y0166180D01*
X0372724Y0166845D02*
X0376888Y0166845D01*
X0376888Y0167510D02*
X0372724Y0167510D01*
X0372724Y0168175D02*
X0376888Y0168175D01*
X0370195Y0168620D02*
X0366031Y0168620D01*
X0370195Y0168620D02*
X0370195Y0164850D01*
X0366031Y0164850D01*
X0366031Y0168620D01*
X0366031Y0165515D02*
X0370195Y0165515D01*
X0370195Y0166180D02*
X0366031Y0166180D01*
X0366031Y0166845D02*
X0370195Y0166845D01*
X0370195Y0167510D02*
X0366031Y0167510D01*
X0366031Y0168175D02*
X0370195Y0168175D01*
X0369574Y0159368D02*
X0369574Y0155204D01*
X0369574Y0159368D02*
X0373344Y0159368D01*
X0373344Y0155204D01*
X0369574Y0155204D01*
X0369574Y0155869D02*
X0373344Y0155869D01*
X0373344Y0156534D02*
X0369574Y0156534D01*
X0369574Y0157199D02*
X0373344Y0157199D01*
X0373344Y0157864D02*
X0369574Y0157864D01*
X0369574Y0158529D02*
X0373344Y0158529D01*
X0373344Y0159194D02*
X0369574Y0159194D01*
X0369574Y0152675D02*
X0369574Y0148511D01*
X0369574Y0152675D02*
X0373344Y0152675D01*
X0373344Y0148511D01*
X0369574Y0148511D01*
X0369574Y0149176D02*
X0373344Y0149176D01*
X0373344Y0149841D02*
X0369574Y0149841D01*
X0369574Y0150506D02*
X0373344Y0150506D01*
X0373344Y0151171D02*
X0369574Y0151171D01*
X0369574Y0151836D02*
X0373344Y0151836D01*
X0373344Y0152501D02*
X0369574Y0152501D01*
X0364486Y0136730D02*
X0364486Y0132566D01*
X0360716Y0132566D01*
X0360716Y0136730D01*
X0364486Y0136730D01*
X0364486Y0133231D02*
X0360716Y0133231D01*
X0360716Y0133896D02*
X0364486Y0133896D01*
X0364486Y0134561D02*
X0360716Y0134561D01*
X0360716Y0135226D02*
X0364486Y0135226D01*
X0364486Y0135891D02*
X0360716Y0135891D01*
X0360716Y0136556D02*
X0364486Y0136556D01*
X0364486Y0130037D02*
X0364486Y0125873D01*
X0360716Y0125873D01*
X0360716Y0130037D01*
X0364486Y0130037D01*
X0364486Y0126538D02*
X0360716Y0126538D01*
X0360716Y0127203D02*
X0364486Y0127203D01*
X0364486Y0127868D02*
X0360716Y0127868D01*
X0360716Y0128533D02*
X0364486Y0128533D01*
X0364486Y0129198D02*
X0360716Y0129198D01*
X0360716Y0129863D02*
X0364486Y0129863D01*
X0209220Y0230401D02*
X0209220Y0234565D01*
X0212990Y0234565D01*
X0212990Y0230401D01*
X0209220Y0230401D01*
X0209220Y0231066D02*
X0212990Y0231066D01*
X0212990Y0231731D02*
X0209220Y0231731D01*
X0209220Y0232396D02*
X0212990Y0232396D01*
X0212990Y0233061D02*
X0209220Y0233061D01*
X0209220Y0233726D02*
X0212990Y0233726D01*
X0212990Y0234391D02*
X0209220Y0234391D01*
X0209220Y0237094D02*
X0209220Y0241258D01*
X0212990Y0241258D01*
X0212990Y0237094D01*
X0209220Y0237094D01*
X0209220Y0237759D02*
X0212990Y0237759D01*
X0212990Y0238424D02*
X0209220Y0238424D01*
X0209220Y0239089D02*
X0212990Y0239089D01*
X0212990Y0239754D02*
X0209220Y0239754D01*
X0209220Y0240419D02*
X0212990Y0240419D01*
X0212990Y0241084D02*
X0209220Y0241084D01*
X0205037Y0241258D02*
X0205037Y0237094D01*
X0201267Y0237094D01*
X0201267Y0241258D01*
X0205037Y0241258D01*
X0205037Y0237759D02*
X0201267Y0237759D01*
X0201267Y0238424D02*
X0205037Y0238424D01*
X0205037Y0239089D02*
X0201267Y0239089D01*
X0201267Y0239754D02*
X0205037Y0239754D01*
X0205037Y0240419D02*
X0201267Y0240419D01*
X0201267Y0241084D02*
X0205037Y0241084D01*
X0205037Y0234565D02*
X0205037Y0230401D01*
X0201267Y0230401D01*
X0201267Y0234565D01*
X0205037Y0234565D01*
X0205037Y0231066D02*
X0201267Y0231066D01*
X0201267Y0231731D02*
X0205037Y0231731D01*
X0205037Y0232396D02*
X0201267Y0232396D01*
X0201267Y0233061D02*
X0205037Y0233061D01*
X0205037Y0233726D02*
X0201267Y0233726D01*
X0201267Y0234391D02*
X0205037Y0234391D01*
X0131021Y0234338D02*
X0131021Y0238502D01*
X0131021Y0234338D02*
X0127251Y0234338D01*
X0127251Y0238502D01*
X0131021Y0238502D01*
X0131021Y0235003D02*
X0127251Y0235003D01*
X0127251Y0235668D02*
X0131021Y0235668D01*
X0131021Y0236333D02*
X0127251Y0236333D01*
X0127251Y0236998D02*
X0131021Y0236998D01*
X0131021Y0237663D02*
X0127251Y0237663D01*
X0127251Y0238328D02*
X0131021Y0238328D01*
X0131021Y0241031D02*
X0131021Y0245195D01*
X0131021Y0241031D02*
X0127251Y0241031D01*
X0127251Y0245195D01*
X0131021Y0245195D01*
X0131021Y0241696D02*
X0127251Y0241696D01*
X0127251Y0242361D02*
X0131021Y0242361D01*
X0131021Y0243026D02*
X0127251Y0243026D01*
X0127251Y0243691D02*
X0131021Y0243691D01*
X0131021Y0244356D02*
X0127251Y0244356D01*
X0127251Y0245021D02*
X0131021Y0245021D01*
X0103856Y0268817D02*
X0099692Y0268817D01*
X0103856Y0268817D02*
X0103856Y0265047D01*
X0099692Y0265047D01*
X0099692Y0268817D01*
X0099692Y0265712D02*
X0103856Y0265712D01*
X0103856Y0266377D02*
X0099692Y0266377D01*
X0099692Y0267042D02*
X0103856Y0267042D01*
X0103856Y0267707D02*
X0099692Y0267707D01*
X0099692Y0268372D02*
X0103856Y0268372D01*
X0097163Y0268817D02*
X0092999Y0268817D01*
X0097163Y0268817D02*
X0097163Y0265047D01*
X0092999Y0265047D01*
X0092999Y0268817D01*
X0092999Y0265712D02*
X0097163Y0265712D01*
X0097163Y0266377D02*
X0092999Y0266377D01*
X0092999Y0267042D02*
X0097163Y0267042D01*
X0097163Y0267707D02*
X0092999Y0267707D01*
X0092999Y0268372D02*
X0097163Y0268372D01*
X0097163Y0288502D02*
X0092999Y0288502D01*
X0097163Y0288502D02*
X0097163Y0284732D01*
X0092999Y0284732D01*
X0092999Y0288502D01*
X0092999Y0285397D02*
X0097163Y0285397D01*
X0097163Y0286062D02*
X0092999Y0286062D01*
X0092999Y0286727D02*
X0097163Y0286727D01*
X0097163Y0287392D02*
X0092999Y0287392D01*
X0092999Y0288057D02*
X0097163Y0288057D01*
X0099692Y0288502D02*
X0103856Y0288502D01*
X0103856Y0284732D01*
X0099692Y0284732D01*
X0099692Y0288502D01*
X0099692Y0285397D02*
X0103856Y0285397D01*
X0103856Y0286062D02*
X0099692Y0286062D01*
X0099692Y0286727D02*
X0103856Y0286727D01*
X0103856Y0287392D02*
X0099692Y0287392D01*
X0099692Y0288057D02*
X0103856Y0288057D01*
D12*
X0368231Y0410963D03*
X0368231Y0438963D03*
X0368388Y0446121D03*
X0368388Y0474121D03*
D13*
X0371924Y0371499D03*
X0381924Y0371499D03*
X0391924Y0371499D03*
X0361924Y0371499D03*
X0351924Y0371499D03*
X0341924Y0371499D03*
X0331924Y0371499D03*
X0321924Y0371499D03*
X0305948Y0371499D03*
X0295948Y0371499D03*
X0285948Y0371499D03*
X0275948Y0371499D03*
X0265948Y0371499D03*
X0255948Y0371499D03*
X0245948Y0371499D03*
X0235948Y0371499D03*
X0225948Y0371499D03*
X0215948Y0371499D03*
X0159333Y0356420D03*
X0149333Y0356420D03*
X0149333Y0346420D03*
X0149333Y0336420D03*
X0149333Y0326420D03*
X0149333Y0316420D03*
X0149333Y0306420D03*
X0159333Y0306420D03*
X0159333Y0316420D03*
X0159333Y0326420D03*
X0159333Y0336420D03*
X0159333Y0346420D03*
X0159333Y0296420D03*
X0149333Y0296420D03*
X0149333Y0286420D03*
X0149333Y0276420D03*
X0149333Y0266420D03*
X0159333Y0266420D03*
X0159333Y0276420D03*
X0159333Y0286420D03*
X0159373Y0246066D03*
X0149373Y0246066D03*
X0149373Y0235987D03*
X0149294Y0226066D03*
X0159294Y0226066D03*
X0159373Y0235987D03*
X0159373Y0215829D03*
X0159373Y0206144D03*
X0149373Y0206144D03*
X0149373Y0215829D03*
X0251892Y0201530D03*
X0261892Y0201530D03*
X0271892Y0201530D03*
X0281892Y0201530D03*
X0291892Y0201530D03*
X0301892Y0201530D03*
X0311892Y0201530D03*
X0321892Y0201530D03*
X0341892Y0201530D03*
X0351892Y0201530D03*
X0361892Y0201530D03*
X0371892Y0201530D03*
X0381892Y0201530D03*
X0391892Y0201530D03*
D14*
X0391892Y0191499D03*
X0381892Y0191499D03*
X0371892Y0191499D03*
X0361892Y0191499D03*
X0351892Y0191499D03*
X0341892Y0191499D03*
X0321892Y0191499D03*
X0311892Y0191499D03*
X0301892Y0191499D03*
X0291892Y0191499D03*
X0281892Y0191499D03*
X0271892Y0191499D03*
X0261892Y0191499D03*
X0251892Y0191499D03*
X0392444Y0281302D03*
X0402444Y0281302D03*
X0402444Y0291302D03*
X0402444Y0301302D03*
X0392444Y0301302D03*
X0392444Y0291302D03*
X0391892Y0381499D03*
X0381892Y0381499D03*
X0371892Y0381499D03*
X0361892Y0381499D03*
X0351892Y0381499D03*
X0341892Y0381499D03*
X0331892Y0381499D03*
X0321892Y0381499D03*
X0305892Y0381499D03*
X0295892Y0381499D03*
X0285892Y0381499D03*
X0275892Y0381499D03*
X0265892Y0381499D03*
X0255892Y0381499D03*
X0245892Y0381499D03*
X0235892Y0381499D03*
X0225892Y0381499D03*
X0215892Y0381499D03*
D15*
X0376213Y0427454D02*
X0378359Y0427454D01*
X0376213Y0427454D02*
X0376213Y0435898D01*
X0378359Y0435898D01*
X0378359Y0427454D01*
X0378359Y0428169D02*
X0376213Y0428169D01*
X0376213Y0428884D02*
X0378359Y0428884D01*
X0378359Y0429599D02*
X0376213Y0429599D01*
X0376213Y0430314D02*
X0378359Y0430314D01*
X0378359Y0431029D02*
X0376213Y0431029D01*
X0376213Y0431744D02*
X0378359Y0431744D01*
X0378359Y0432459D02*
X0376213Y0432459D01*
X0376213Y0433174D02*
X0378359Y0433174D01*
X0378359Y0433889D02*
X0376213Y0433889D01*
X0376213Y0434604D02*
X0378359Y0434604D01*
X0378359Y0435319D02*
X0376213Y0435319D01*
X0381213Y0427454D02*
X0383359Y0427454D01*
X0381213Y0427454D02*
X0381213Y0435898D01*
X0383359Y0435898D01*
X0383359Y0427454D01*
X0383359Y0428169D02*
X0381213Y0428169D01*
X0381213Y0428884D02*
X0383359Y0428884D01*
X0383359Y0429599D02*
X0381213Y0429599D01*
X0381213Y0430314D02*
X0383359Y0430314D01*
X0383359Y0431029D02*
X0381213Y0431029D01*
X0381213Y0431744D02*
X0383359Y0431744D01*
X0383359Y0432459D02*
X0381213Y0432459D01*
X0381213Y0433174D02*
X0383359Y0433174D01*
X0383359Y0433889D02*
X0381213Y0433889D01*
X0381213Y0434604D02*
X0383359Y0434604D01*
X0383359Y0435319D02*
X0381213Y0435319D01*
X0386213Y0427454D02*
X0388359Y0427454D01*
X0386213Y0427454D02*
X0386213Y0435898D01*
X0388359Y0435898D01*
X0388359Y0427454D01*
X0388359Y0428169D02*
X0386213Y0428169D01*
X0386213Y0428884D02*
X0388359Y0428884D01*
X0388359Y0429599D02*
X0386213Y0429599D01*
X0386213Y0430314D02*
X0388359Y0430314D01*
X0388359Y0431029D02*
X0386213Y0431029D01*
X0386213Y0431744D02*
X0388359Y0431744D01*
X0388359Y0432459D02*
X0386213Y0432459D01*
X0386213Y0433174D02*
X0388359Y0433174D01*
X0388359Y0433889D02*
X0386213Y0433889D01*
X0386213Y0434604D02*
X0388359Y0434604D01*
X0388359Y0435319D02*
X0386213Y0435319D01*
X0391213Y0427454D02*
X0393359Y0427454D01*
X0391213Y0427454D02*
X0391213Y0435898D01*
X0393359Y0435898D01*
X0393359Y0427454D01*
X0393359Y0428169D02*
X0391213Y0428169D01*
X0391213Y0428884D02*
X0393359Y0428884D01*
X0393359Y0429599D02*
X0391213Y0429599D01*
X0391213Y0430314D02*
X0393359Y0430314D01*
X0393359Y0431029D02*
X0391213Y0431029D01*
X0391213Y0431744D02*
X0393359Y0431744D01*
X0393359Y0432459D02*
X0391213Y0432459D01*
X0391213Y0433174D02*
X0393359Y0433174D01*
X0393359Y0433889D02*
X0391213Y0433889D01*
X0391213Y0434604D02*
X0393359Y0434604D01*
X0393359Y0435319D02*
X0391213Y0435319D01*
X0391213Y0447926D02*
X0393359Y0447926D01*
X0391213Y0447926D02*
X0391213Y0456370D01*
X0393359Y0456370D01*
X0393359Y0447926D01*
X0393359Y0448641D02*
X0391213Y0448641D01*
X0391213Y0449356D02*
X0393359Y0449356D01*
X0393359Y0450071D02*
X0391213Y0450071D01*
X0391213Y0450786D02*
X0393359Y0450786D01*
X0393359Y0451501D02*
X0391213Y0451501D01*
X0391213Y0452216D02*
X0393359Y0452216D01*
X0393359Y0452931D02*
X0391213Y0452931D01*
X0391213Y0453646D02*
X0393359Y0453646D01*
X0393359Y0454361D02*
X0391213Y0454361D01*
X0391213Y0455076D02*
X0393359Y0455076D01*
X0393359Y0455791D02*
X0391213Y0455791D01*
X0388359Y0447926D02*
X0386213Y0447926D01*
X0386213Y0456370D01*
X0388359Y0456370D01*
X0388359Y0447926D01*
X0388359Y0448641D02*
X0386213Y0448641D01*
X0386213Y0449356D02*
X0388359Y0449356D01*
X0388359Y0450071D02*
X0386213Y0450071D01*
X0386213Y0450786D02*
X0388359Y0450786D01*
X0388359Y0451501D02*
X0386213Y0451501D01*
X0386213Y0452216D02*
X0388359Y0452216D01*
X0388359Y0452931D02*
X0386213Y0452931D01*
X0386213Y0453646D02*
X0388359Y0453646D01*
X0388359Y0454361D02*
X0386213Y0454361D01*
X0386213Y0455076D02*
X0388359Y0455076D01*
X0388359Y0455791D02*
X0386213Y0455791D01*
X0383359Y0447926D02*
X0381213Y0447926D01*
X0381213Y0456370D01*
X0383359Y0456370D01*
X0383359Y0447926D01*
X0383359Y0448641D02*
X0381213Y0448641D01*
X0381213Y0449356D02*
X0383359Y0449356D01*
X0383359Y0450071D02*
X0381213Y0450071D01*
X0381213Y0450786D02*
X0383359Y0450786D01*
X0383359Y0451501D02*
X0381213Y0451501D01*
X0381213Y0452216D02*
X0383359Y0452216D01*
X0383359Y0452931D02*
X0381213Y0452931D01*
X0381213Y0453646D02*
X0383359Y0453646D01*
X0383359Y0454361D02*
X0381213Y0454361D01*
X0381213Y0455076D02*
X0383359Y0455076D01*
X0383359Y0455791D02*
X0381213Y0455791D01*
X0378359Y0447926D02*
X0376213Y0447926D01*
X0376213Y0456370D01*
X0378359Y0456370D01*
X0378359Y0447926D01*
X0378359Y0448641D02*
X0376213Y0448641D01*
X0376213Y0449356D02*
X0378359Y0449356D01*
X0378359Y0450071D02*
X0376213Y0450071D01*
X0376213Y0450786D02*
X0378359Y0450786D01*
X0378359Y0451501D02*
X0376213Y0451501D01*
X0376213Y0452216D02*
X0378359Y0452216D01*
X0378359Y0452931D02*
X0376213Y0452931D01*
X0376213Y0453646D02*
X0378359Y0453646D01*
X0378359Y0454361D02*
X0376213Y0454361D01*
X0376213Y0455076D02*
X0378359Y0455076D01*
X0378359Y0455791D02*
X0376213Y0455791D01*
D16*
X0174088Y0249282D02*
X0171808Y0249282D01*
X0174088Y0249282D02*
X0174088Y0244502D01*
X0171808Y0244502D01*
X0171808Y0249282D01*
X0171808Y0245221D02*
X0174088Y0245221D01*
X0174088Y0245940D02*
X0171808Y0245940D01*
X0171808Y0246659D02*
X0174088Y0246659D01*
X0174088Y0247378D02*
X0171808Y0247378D01*
X0171808Y0248097D02*
X0174088Y0248097D01*
X0174088Y0248816D02*
X0171808Y0248816D01*
X0170088Y0249282D02*
X0167808Y0249282D01*
X0170088Y0249282D02*
X0170088Y0244502D01*
X0167808Y0244502D01*
X0167808Y0249282D01*
X0167808Y0245221D02*
X0170088Y0245221D01*
X0170088Y0245940D02*
X0167808Y0245940D01*
X0167808Y0246659D02*
X0170088Y0246659D01*
X0170088Y0247378D02*
X0167808Y0247378D01*
X0167808Y0248097D02*
X0170088Y0248097D01*
X0170088Y0248816D02*
X0167808Y0248816D01*
X0167926Y0237629D02*
X0170206Y0237629D01*
X0170206Y0232849D01*
X0167926Y0232849D01*
X0167926Y0237629D01*
X0167926Y0233568D02*
X0170206Y0233568D01*
X0170206Y0234287D02*
X0167926Y0234287D01*
X0167926Y0235006D02*
X0170206Y0235006D01*
X0170206Y0235725D02*
X0167926Y0235725D01*
X0167926Y0236444D02*
X0170206Y0236444D01*
X0170206Y0237163D02*
X0167926Y0237163D01*
X0171926Y0237629D02*
X0174206Y0237629D01*
X0174206Y0232849D01*
X0171926Y0232849D01*
X0171926Y0237629D01*
X0171926Y0233568D02*
X0174206Y0233568D01*
X0174206Y0234287D02*
X0171926Y0234287D01*
X0171926Y0235006D02*
X0174206Y0235006D01*
X0174206Y0235725D02*
X0171926Y0235725D01*
X0171926Y0236444D02*
X0174206Y0236444D01*
X0174206Y0237163D02*
X0171926Y0237163D01*
X0172083Y0227904D02*
X0174363Y0227904D01*
X0174363Y0223124D01*
X0172083Y0223124D01*
X0172083Y0227904D01*
X0172083Y0223843D02*
X0174363Y0223843D01*
X0174363Y0224562D02*
X0172083Y0224562D01*
X0172083Y0225281D02*
X0174363Y0225281D01*
X0174363Y0226000D02*
X0172083Y0226000D01*
X0172083Y0226719D02*
X0174363Y0226719D01*
X0174363Y0227438D02*
X0172083Y0227438D01*
X0170363Y0227904D02*
X0168083Y0227904D01*
X0170363Y0227904D02*
X0170363Y0223124D01*
X0168083Y0223124D01*
X0168083Y0227904D01*
X0168083Y0223843D02*
X0170363Y0223843D01*
X0170363Y0224562D02*
X0168083Y0224562D01*
X0168083Y0225281D02*
X0170363Y0225281D01*
X0170363Y0226000D02*
X0168083Y0226000D01*
X0168083Y0226719D02*
X0170363Y0226719D01*
X0170363Y0227438D02*
X0168083Y0227438D01*
X0168122Y0213597D02*
X0170402Y0213597D01*
X0168122Y0213597D02*
X0168122Y0218377D01*
X0170402Y0218377D01*
X0170402Y0213597D01*
X0170402Y0214316D02*
X0168122Y0214316D01*
X0168122Y0215035D02*
X0170402Y0215035D01*
X0170402Y0215754D02*
X0168122Y0215754D01*
X0168122Y0216473D02*
X0170402Y0216473D01*
X0170402Y0217192D02*
X0168122Y0217192D01*
X0168122Y0217911D02*
X0170402Y0217911D01*
X0172122Y0213597D02*
X0174402Y0213597D01*
X0172122Y0213597D02*
X0172122Y0218377D01*
X0174402Y0218377D01*
X0174402Y0213597D01*
X0174402Y0214316D02*
X0172122Y0214316D01*
X0172122Y0215035D02*
X0174402Y0215035D01*
X0174402Y0215754D02*
X0172122Y0215754D01*
X0172122Y0216473D02*
X0174402Y0216473D01*
X0174402Y0217192D02*
X0172122Y0217192D01*
X0172122Y0217911D02*
X0174402Y0217911D01*
X0174442Y0208534D02*
X0172162Y0208534D01*
X0174442Y0208534D02*
X0174442Y0203754D01*
X0172162Y0203754D01*
X0172162Y0208534D01*
X0172162Y0204473D02*
X0174442Y0204473D01*
X0174442Y0205192D02*
X0172162Y0205192D01*
X0172162Y0205911D02*
X0174442Y0205911D01*
X0174442Y0206630D02*
X0172162Y0206630D01*
X0172162Y0207349D02*
X0174442Y0207349D01*
X0174442Y0208068D02*
X0172162Y0208068D01*
X0170442Y0208534D02*
X0168162Y0208534D01*
X0170442Y0208534D02*
X0170442Y0203754D01*
X0168162Y0203754D01*
X0168162Y0208534D01*
X0168162Y0204473D02*
X0170442Y0204473D01*
X0170442Y0205192D02*
X0168162Y0205192D01*
X0168162Y0205911D02*
X0170442Y0205911D01*
X0170442Y0206630D02*
X0168162Y0206630D01*
X0168162Y0207349D02*
X0170442Y0207349D01*
X0170442Y0208068D02*
X0168162Y0208068D01*
D17*
X0387429Y0396582D02*
X0389347Y0396582D01*
X0387429Y0396582D02*
X0387429Y0401060D01*
X0389347Y0401060D01*
X0389347Y0396582D01*
X0389347Y0397327D02*
X0387429Y0397327D01*
X0387429Y0398072D02*
X0389347Y0398072D01*
X0389347Y0398817D02*
X0387429Y0398817D01*
X0387429Y0399562D02*
X0389347Y0399562D01*
X0389347Y0400307D02*
X0387429Y0400307D01*
X0387429Y0401052D02*
X0389347Y0401052D01*
X0394910Y0396582D02*
X0396828Y0396582D01*
X0394910Y0396582D02*
X0394910Y0401060D01*
X0396828Y0401060D01*
X0396828Y0396582D01*
X0396828Y0397327D02*
X0394910Y0397327D01*
X0394910Y0398072D02*
X0396828Y0398072D01*
X0396828Y0398817D02*
X0394910Y0398817D01*
X0394910Y0399562D02*
X0396828Y0399562D01*
X0396828Y0400307D02*
X0394910Y0400307D01*
X0394910Y0401052D02*
X0396828Y0401052D01*
X0396828Y0406819D02*
X0394910Y0406819D01*
X0394910Y0411297D01*
X0396828Y0411297D01*
X0396828Y0406819D01*
X0396828Y0407564D02*
X0394910Y0407564D01*
X0394910Y0408309D02*
X0396828Y0408309D01*
X0396828Y0409054D02*
X0394910Y0409054D01*
X0394910Y0409799D02*
X0396828Y0409799D01*
X0396828Y0410544D02*
X0394910Y0410544D01*
X0394910Y0411289D02*
X0396828Y0411289D01*
X0393088Y0406819D02*
X0391170Y0406819D01*
X0391170Y0411297D01*
X0393088Y0411297D01*
X0393088Y0406819D01*
X0393088Y0407564D02*
X0391170Y0407564D01*
X0391170Y0408309D02*
X0393088Y0408309D01*
X0393088Y0409054D02*
X0391170Y0409054D01*
X0391170Y0409799D02*
X0393088Y0409799D01*
X0393088Y0410544D02*
X0391170Y0410544D01*
X0391170Y0411289D02*
X0393088Y0411289D01*
X0389347Y0406819D02*
X0387429Y0406819D01*
X0387429Y0411297D01*
X0389347Y0411297D01*
X0389347Y0406819D01*
X0389347Y0407564D02*
X0387429Y0407564D01*
X0387429Y0408309D02*
X0389347Y0408309D01*
X0389347Y0409054D02*
X0387429Y0409054D01*
X0387429Y0409799D02*
X0389347Y0409799D01*
X0389347Y0410544D02*
X0387429Y0410544D01*
X0387429Y0411289D02*
X0389347Y0411289D01*
D18*
X0123040Y0282182D02*
X0123040Y0281602D01*
X0123040Y0282182D02*
X0124604Y0282182D01*
X0124604Y0281602D01*
X0123040Y0281602D01*
X0123040Y0280214D02*
X0123040Y0279634D01*
X0123040Y0280214D02*
X0124604Y0280214D01*
X0124604Y0279634D01*
X0123040Y0279634D01*
X0123040Y0278245D02*
X0123040Y0277665D01*
X0123040Y0278245D02*
X0124604Y0278245D01*
X0124604Y0277665D01*
X0123040Y0277665D01*
X0123040Y0276277D02*
X0123040Y0275697D01*
X0123040Y0276277D02*
X0124604Y0276277D01*
X0124604Y0275697D01*
X0123040Y0275697D01*
X0123040Y0274308D02*
X0123040Y0273728D01*
X0123040Y0274308D02*
X0124604Y0274308D01*
X0124604Y0273728D01*
X0123040Y0273728D01*
X0120765Y0271454D02*
X0120185Y0271454D01*
X0120765Y0271454D02*
X0120765Y0269890D01*
X0120185Y0269890D01*
X0120185Y0271454D01*
X0120185Y0270794D02*
X0120765Y0270794D01*
X0118797Y0271454D02*
X0118217Y0271454D01*
X0118797Y0271454D02*
X0118797Y0269890D01*
X0118217Y0269890D01*
X0118217Y0271454D01*
X0118217Y0270794D02*
X0118797Y0270794D01*
X0116828Y0271454D02*
X0116248Y0271454D01*
X0116828Y0271454D02*
X0116828Y0269890D01*
X0116248Y0269890D01*
X0116248Y0271454D01*
X0116248Y0270794D02*
X0116828Y0270794D01*
X0114860Y0271454D02*
X0114280Y0271454D01*
X0114860Y0271454D02*
X0114860Y0269890D01*
X0114280Y0269890D01*
X0114280Y0271454D01*
X0114280Y0270794D02*
X0114860Y0270794D01*
X0112891Y0271454D02*
X0112311Y0271454D01*
X0112891Y0271454D02*
X0112891Y0269890D01*
X0112311Y0269890D01*
X0112311Y0271454D01*
X0112311Y0270794D02*
X0112891Y0270794D01*
X0110037Y0273728D02*
X0110037Y0274308D01*
X0110037Y0273728D02*
X0108473Y0273728D01*
X0108473Y0274308D01*
X0110037Y0274308D01*
X0110037Y0275697D02*
X0110037Y0276277D01*
X0110037Y0275697D02*
X0108473Y0275697D01*
X0108473Y0276277D01*
X0110037Y0276277D01*
X0110037Y0277665D02*
X0110037Y0278245D01*
X0110037Y0277665D02*
X0108473Y0277665D01*
X0108473Y0278245D01*
X0110037Y0278245D01*
X0110037Y0279634D02*
X0110037Y0280214D01*
X0110037Y0279634D02*
X0108473Y0279634D01*
X0108473Y0280214D01*
X0110037Y0280214D01*
X0110037Y0281602D02*
X0110037Y0282182D01*
X0110037Y0281602D02*
X0108473Y0281602D01*
X0108473Y0282182D01*
X0110037Y0282182D01*
X0112311Y0284457D02*
X0112891Y0284457D01*
X0112311Y0284457D02*
X0112311Y0286021D01*
X0112891Y0286021D01*
X0112891Y0284457D01*
X0112891Y0285361D02*
X0112311Y0285361D01*
X0114280Y0284457D02*
X0114860Y0284457D01*
X0114280Y0284457D02*
X0114280Y0286021D01*
X0114860Y0286021D01*
X0114860Y0284457D01*
X0114860Y0285361D02*
X0114280Y0285361D01*
X0116248Y0284457D02*
X0116828Y0284457D01*
X0116248Y0284457D02*
X0116248Y0286021D01*
X0116828Y0286021D01*
X0116828Y0284457D01*
X0116828Y0285361D02*
X0116248Y0285361D01*
X0118217Y0284457D02*
X0118797Y0284457D01*
X0118217Y0284457D02*
X0118217Y0286021D01*
X0118797Y0286021D01*
X0118797Y0284457D01*
X0118797Y0285361D02*
X0118217Y0285361D01*
X0120185Y0284457D02*
X0120765Y0284457D01*
X0120185Y0284457D02*
X0120185Y0286021D01*
X0120765Y0286021D01*
X0120765Y0284457D01*
X0120765Y0285361D02*
X0120185Y0285361D01*
D19*
X0112769Y0281724D02*
X0112769Y0274186D01*
X0112769Y0281724D02*
X0120307Y0281724D01*
X0120307Y0274186D01*
X0112769Y0274186D01*
X0112769Y0275022D02*
X0120307Y0275022D01*
X0120307Y0275858D02*
X0112769Y0275858D01*
X0112769Y0276694D02*
X0120307Y0276694D01*
X0120307Y0277530D02*
X0112769Y0277530D01*
X0112769Y0278366D02*
X0120307Y0278366D01*
X0120307Y0279202D02*
X0112769Y0279202D01*
X0112769Y0280038D02*
X0120307Y0280038D01*
X0120307Y0280874D02*
X0112769Y0280874D01*
X0112769Y0281710D02*
X0120307Y0281710D01*
D20*
X0277257Y0418596D02*
X0282985Y0418596D01*
X0277257Y0418596D02*
X0277257Y0423142D01*
X0282985Y0423142D01*
X0282985Y0418596D01*
X0282985Y0419274D02*
X0277257Y0419274D01*
X0277257Y0419952D02*
X0282985Y0419952D01*
X0282985Y0420630D02*
X0277257Y0420630D01*
X0277257Y0421308D02*
X0282985Y0421308D01*
X0282985Y0421986D02*
X0277257Y0421986D01*
X0277257Y0422664D02*
X0282985Y0422664D01*
X0282985Y0427257D02*
X0277257Y0427257D01*
X0277257Y0431803D01*
X0282985Y0431803D01*
X0282985Y0427257D01*
X0282985Y0427935D02*
X0277257Y0427935D01*
X0277257Y0428613D02*
X0282985Y0428613D01*
X0282985Y0429291D02*
X0277257Y0429291D01*
X0277257Y0429969D02*
X0282985Y0429969D01*
X0282985Y0430647D02*
X0277257Y0430647D01*
X0277257Y0431325D02*
X0282985Y0431325D01*
X0292217Y0427257D02*
X0297945Y0427257D01*
X0292217Y0427257D02*
X0292217Y0431803D01*
X0297945Y0431803D01*
X0297945Y0427257D01*
X0297945Y0427935D02*
X0292217Y0427935D01*
X0292217Y0428613D02*
X0297945Y0428613D01*
X0297945Y0429291D02*
X0292217Y0429291D01*
X0292217Y0429969D02*
X0297945Y0429969D01*
X0297945Y0430647D02*
X0292217Y0430647D01*
X0292217Y0431325D02*
X0297945Y0431325D01*
X0297945Y0418596D02*
X0292217Y0418596D01*
X0292217Y0423142D01*
X0297945Y0423142D01*
X0297945Y0418596D01*
X0297945Y0419274D02*
X0292217Y0419274D01*
X0292217Y0419952D02*
X0297945Y0419952D01*
X0297945Y0420630D02*
X0292217Y0420630D01*
X0292217Y0421308D02*
X0297945Y0421308D01*
X0297945Y0421986D02*
X0292217Y0421986D01*
X0292217Y0422664D02*
X0297945Y0422664D01*
D21*
X0116656Y0377877D03*
X0096656Y0377877D03*
X0106656Y0404444D03*
X0096735Y0189845D03*
X0116735Y0189845D03*
X0106735Y0163278D03*
D22*
X0239507Y0178703D03*
X0247507Y0178703D03*
X0243507Y0158703D03*
X0243507Y0143270D03*
X0247507Y0123270D03*
X0239507Y0123270D03*
D23*
X0233507Y0130770D03*
X0233507Y0143270D03*
X0233507Y0158703D03*
X0233507Y0171203D03*
X0253507Y0171203D03*
X0253507Y0158703D03*
X0253507Y0143270D03*
X0253507Y0130770D03*
D24*
X0072837Y0153940D02*
X0072839Y0154071D01*
X0072845Y0154203D01*
X0072855Y0154334D01*
X0072869Y0154465D01*
X0072887Y0154595D01*
X0072909Y0154724D01*
X0072934Y0154853D01*
X0072964Y0154981D01*
X0072998Y0155108D01*
X0073035Y0155235D01*
X0073076Y0155359D01*
X0073121Y0155483D01*
X0073170Y0155605D01*
X0073222Y0155726D01*
X0073278Y0155844D01*
X0073338Y0155962D01*
X0073401Y0156077D01*
X0073468Y0156190D01*
X0073538Y0156302D01*
X0073611Y0156411D01*
X0073687Y0156517D01*
X0073767Y0156622D01*
X0073850Y0156724D01*
X0073936Y0156823D01*
X0074025Y0156920D01*
X0074117Y0157014D01*
X0074212Y0157105D01*
X0074309Y0157194D01*
X0074409Y0157279D01*
X0074512Y0157361D01*
X0074617Y0157440D01*
X0074724Y0157516D01*
X0074834Y0157588D01*
X0074946Y0157657D01*
X0075060Y0157723D01*
X0075175Y0157785D01*
X0075293Y0157844D01*
X0075412Y0157899D01*
X0075533Y0157951D01*
X0075656Y0157998D01*
X0075780Y0158042D01*
X0075905Y0158083D01*
X0076031Y0158119D01*
X0076159Y0158152D01*
X0076287Y0158180D01*
X0076416Y0158205D01*
X0076546Y0158226D01*
X0076676Y0158243D01*
X0076807Y0158256D01*
X0076938Y0158265D01*
X0077069Y0158270D01*
X0077201Y0158271D01*
X0077332Y0158268D01*
X0077464Y0158261D01*
X0077595Y0158250D01*
X0077725Y0158235D01*
X0077855Y0158216D01*
X0077985Y0158193D01*
X0078113Y0158167D01*
X0078241Y0158136D01*
X0078368Y0158101D01*
X0078494Y0158063D01*
X0078618Y0158021D01*
X0078742Y0157975D01*
X0078863Y0157925D01*
X0078983Y0157872D01*
X0079102Y0157815D01*
X0079219Y0157755D01*
X0079333Y0157691D01*
X0079446Y0157623D01*
X0079557Y0157552D01*
X0079666Y0157478D01*
X0079772Y0157401D01*
X0079876Y0157320D01*
X0079977Y0157237D01*
X0080076Y0157150D01*
X0080172Y0157060D01*
X0080265Y0156967D01*
X0080356Y0156872D01*
X0080443Y0156774D01*
X0080528Y0156673D01*
X0080609Y0156570D01*
X0080687Y0156464D01*
X0080762Y0156356D01*
X0080834Y0156246D01*
X0080902Y0156134D01*
X0080967Y0156020D01*
X0081028Y0155903D01*
X0081086Y0155785D01*
X0081140Y0155665D01*
X0081191Y0155544D01*
X0081238Y0155421D01*
X0081281Y0155297D01*
X0081320Y0155172D01*
X0081356Y0155045D01*
X0081387Y0154917D01*
X0081415Y0154789D01*
X0081439Y0154660D01*
X0081459Y0154530D01*
X0081475Y0154399D01*
X0081487Y0154268D01*
X0081495Y0154137D01*
X0081499Y0154006D01*
X0081499Y0153874D01*
X0081495Y0153743D01*
X0081487Y0153612D01*
X0081475Y0153481D01*
X0081459Y0153350D01*
X0081439Y0153220D01*
X0081415Y0153091D01*
X0081387Y0152963D01*
X0081356Y0152835D01*
X0081320Y0152708D01*
X0081281Y0152583D01*
X0081238Y0152459D01*
X0081191Y0152336D01*
X0081140Y0152215D01*
X0081086Y0152095D01*
X0081028Y0151977D01*
X0080967Y0151860D01*
X0080902Y0151746D01*
X0080834Y0151634D01*
X0080762Y0151524D01*
X0080687Y0151416D01*
X0080609Y0151310D01*
X0080528Y0151207D01*
X0080443Y0151106D01*
X0080356Y0151008D01*
X0080265Y0150913D01*
X0080172Y0150820D01*
X0080076Y0150730D01*
X0079977Y0150643D01*
X0079876Y0150560D01*
X0079772Y0150479D01*
X0079666Y0150402D01*
X0079557Y0150328D01*
X0079446Y0150257D01*
X0079334Y0150189D01*
X0079219Y0150125D01*
X0079102Y0150065D01*
X0078983Y0150008D01*
X0078863Y0149955D01*
X0078742Y0149905D01*
X0078618Y0149859D01*
X0078494Y0149817D01*
X0078368Y0149779D01*
X0078241Y0149744D01*
X0078113Y0149713D01*
X0077985Y0149687D01*
X0077855Y0149664D01*
X0077725Y0149645D01*
X0077595Y0149630D01*
X0077464Y0149619D01*
X0077332Y0149612D01*
X0077201Y0149609D01*
X0077069Y0149610D01*
X0076938Y0149615D01*
X0076807Y0149624D01*
X0076676Y0149637D01*
X0076546Y0149654D01*
X0076416Y0149675D01*
X0076287Y0149700D01*
X0076159Y0149728D01*
X0076031Y0149761D01*
X0075905Y0149797D01*
X0075780Y0149838D01*
X0075656Y0149882D01*
X0075533Y0149929D01*
X0075412Y0149981D01*
X0075293Y0150036D01*
X0075175Y0150095D01*
X0075060Y0150157D01*
X0074946Y0150223D01*
X0074834Y0150292D01*
X0074724Y0150364D01*
X0074617Y0150440D01*
X0074512Y0150519D01*
X0074409Y0150601D01*
X0074309Y0150686D01*
X0074212Y0150775D01*
X0074117Y0150866D01*
X0074025Y0150960D01*
X0073936Y0151057D01*
X0073850Y0151156D01*
X0073767Y0151258D01*
X0073687Y0151363D01*
X0073611Y0151469D01*
X0073538Y0151578D01*
X0073468Y0151690D01*
X0073401Y0151803D01*
X0073338Y0151918D01*
X0073278Y0152036D01*
X0073222Y0152154D01*
X0073170Y0152275D01*
X0073121Y0152397D01*
X0073076Y0152521D01*
X0073035Y0152645D01*
X0072998Y0152772D01*
X0072964Y0152899D01*
X0072934Y0153027D01*
X0072909Y0153156D01*
X0072887Y0153285D01*
X0072869Y0153415D01*
X0072855Y0153546D01*
X0072845Y0153677D01*
X0072839Y0153809D01*
X0072837Y0153940D01*
X0399609Y0476774D02*
X0399611Y0476905D01*
X0399617Y0477037D01*
X0399627Y0477168D01*
X0399641Y0477299D01*
X0399659Y0477429D01*
X0399681Y0477558D01*
X0399706Y0477687D01*
X0399736Y0477815D01*
X0399770Y0477942D01*
X0399807Y0478069D01*
X0399848Y0478193D01*
X0399893Y0478317D01*
X0399942Y0478439D01*
X0399994Y0478560D01*
X0400050Y0478678D01*
X0400110Y0478796D01*
X0400173Y0478911D01*
X0400240Y0479024D01*
X0400310Y0479136D01*
X0400383Y0479245D01*
X0400459Y0479351D01*
X0400539Y0479456D01*
X0400622Y0479558D01*
X0400708Y0479657D01*
X0400797Y0479754D01*
X0400889Y0479848D01*
X0400984Y0479939D01*
X0401081Y0480028D01*
X0401181Y0480113D01*
X0401284Y0480195D01*
X0401389Y0480274D01*
X0401496Y0480350D01*
X0401606Y0480422D01*
X0401718Y0480491D01*
X0401832Y0480557D01*
X0401947Y0480619D01*
X0402065Y0480678D01*
X0402184Y0480733D01*
X0402305Y0480785D01*
X0402428Y0480832D01*
X0402552Y0480876D01*
X0402677Y0480917D01*
X0402803Y0480953D01*
X0402931Y0480986D01*
X0403059Y0481014D01*
X0403188Y0481039D01*
X0403318Y0481060D01*
X0403448Y0481077D01*
X0403579Y0481090D01*
X0403710Y0481099D01*
X0403841Y0481104D01*
X0403973Y0481105D01*
X0404104Y0481102D01*
X0404236Y0481095D01*
X0404367Y0481084D01*
X0404497Y0481069D01*
X0404627Y0481050D01*
X0404757Y0481027D01*
X0404885Y0481001D01*
X0405013Y0480970D01*
X0405140Y0480935D01*
X0405266Y0480897D01*
X0405390Y0480855D01*
X0405514Y0480809D01*
X0405635Y0480759D01*
X0405755Y0480706D01*
X0405874Y0480649D01*
X0405991Y0480589D01*
X0406105Y0480525D01*
X0406218Y0480457D01*
X0406329Y0480386D01*
X0406438Y0480312D01*
X0406544Y0480235D01*
X0406648Y0480154D01*
X0406749Y0480071D01*
X0406848Y0479984D01*
X0406944Y0479894D01*
X0407037Y0479801D01*
X0407128Y0479706D01*
X0407215Y0479608D01*
X0407300Y0479507D01*
X0407381Y0479404D01*
X0407459Y0479298D01*
X0407534Y0479190D01*
X0407606Y0479080D01*
X0407674Y0478968D01*
X0407739Y0478854D01*
X0407800Y0478737D01*
X0407858Y0478619D01*
X0407912Y0478499D01*
X0407963Y0478378D01*
X0408010Y0478255D01*
X0408053Y0478131D01*
X0408092Y0478006D01*
X0408128Y0477879D01*
X0408159Y0477751D01*
X0408187Y0477623D01*
X0408211Y0477494D01*
X0408231Y0477364D01*
X0408247Y0477233D01*
X0408259Y0477102D01*
X0408267Y0476971D01*
X0408271Y0476840D01*
X0408271Y0476708D01*
X0408267Y0476577D01*
X0408259Y0476446D01*
X0408247Y0476315D01*
X0408231Y0476184D01*
X0408211Y0476054D01*
X0408187Y0475925D01*
X0408159Y0475797D01*
X0408128Y0475669D01*
X0408092Y0475542D01*
X0408053Y0475417D01*
X0408010Y0475293D01*
X0407963Y0475170D01*
X0407912Y0475049D01*
X0407858Y0474929D01*
X0407800Y0474811D01*
X0407739Y0474694D01*
X0407674Y0474580D01*
X0407606Y0474468D01*
X0407534Y0474358D01*
X0407459Y0474250D01*
X0407381Y0474144D01*
X0407300Y0474041D01*
X0407215Y0473940D01*
X0407128Y0473842D01*
X0407037Y0473747D01*
X0406944Y0473654D01*
X0406848Y0473564D01*
X0406749Y0473477D01*
X0406648Y0473394D01*
X0406544Y0473313D01*
X0406438Y0473236D01*
X0406329Y0473162D01*
X0406218Y0473091D01*
X0406106Y0473023D01*
X0405991Y0472959D01*
X0405874Y0472899D01*
X0405755Y0472842D01*
X0405635Y0472789D01*
X0405514Y0472739D01*
X0405390Y0472693D01*
X0405266Y0472651D01*
X0405140Y0472613D01*
X0405013Y0472578D01*
X0404885Y0472547D01*
X0404757Y0472521D01*
X0404627Y0472498D01*
X0404497Y0472479D01*
X0404367Y0472464D01*
X0404236Y0472453D01*
X0404104Y0472446D01*
X0403973Y0472443D01*
X0403841Y0472444D01*
X0403710Y0472449D01*
X0403579Y0472458D01*
X0403448Y0472471D01*
X0403318Y0472488D01*
X0403188Y0472509D01*
X0403059Y0472534D01*
X0402931Y0472562D01*
X0402803Y0472595D01*
X0402677Y0472631D01*
X0402552Y0472672D01*
X0402428Y0472716D01*
X0402305Y0472763D01*
X0402184Y0472815D01*
X0402065Y0472870D01*
X0401947Y0472929D01*
X0401832Y0472991D01*
X0401718Y0473057D01*
X0401606Y0473126D01*
X0401496Y0473198D01*
X0401389Y0473274D01*
X0401284Y0473353D01*
X0401181Y0473435D01*
X0401081Y0473520D01*
X0400984Y0473609D01*
X0400889Y0473700D01*
X0400797Y0473794D01*
X0400708Y0473891D01*
X0400622Y0473990D01*
X0400539Y0474092D01*
X0400459Y0474197D01*
X0400383Y0474303D01*
X0400310Y0474412D01*
X0400240Y0474524D01*
X0400173Y0474637D01*
X0400110Y0474752D01*
X0400050Y0474870D01*
X0399994Y0474988D01*
X0399942Y0475109D01*
X0399893Y0475231D01*
X0399848Y0475355D01*
X0399807Y0475479D01*
X0399770Y0475606D01*
X0399736Y0475733D01*
X0399706Y0475861D01*
X0399681Y0475990D01*
X0399659Y0476119D01*
X0399641Y0476249D01*
X0399627Y0476380D01*
X0399617Y0476511D01*
X0399611Y0476643D01*
X0399609Y0476774D01*
D25*
X0077168Y0153940D03*
X0403940Y0476774D03*
D26*
X0140375Y0247622D02*
X0139551Y0247622D01*
X0139551Y0249430D01*
X0140375Y0249430D01*
X0140375Y0247622D01*
X0140375Y0248478D02*
X0139551Y0248478D01*
X0139551Y0249334D02*
X0140375Y0249334D01*
X0138407Y0247622D02*
X0137583Y0247622D01*
X0137583Y0249430D01*
X0138407Y0249430D01*
X0138407Y0247622D01*
X0138407Y0248478D02*
X0137583Y0248478D01*
X0137583Y0249334D02*
X0138407Y0249334D01*
X0138407Y0241914D02*
X0137583Y0241914D01*
X0137583Y0243722D01*
X0138407Y0243722D01*
X0138407Y0241914D01*
X0138407Y0242770D02*
X0137583Y0242770D01*
X0137583Y0243626D02*
X0138407Y0243626D01*
X0139551Y0241914D02*
X0140375Y0241914D01*
X0139551Y0241914D02*
X0139551Y0243722D01*
X0140375Y0243722D01*
X0140375Y0241914D01*
X0140375Y0242770D02*
X0139551Y0242770D01*
X0139551Y0243626D02*
X0140375Y0243626D01*
X0140375Y0235024D02*
X0139551Y0235024D01*
X0139551Y0236832D01*
X0140375Y0236832D01*
X0140375Y0235024D01*
X0140375Y0235880D02*
X0139551Y0235880D01*
X0139551Y0236736D02*
X0140375Y0236736D01*
X0138407Y0235024D02*
X0137583Y0235024D01*
X0137583Y0236832D01*
X0138407Y0236832D01*
X0138407Y0235024D01*
X0138407Y0235880D02*
X0137583Y0235880D01*
X0137583Y0236736D02*
X0138407Y0236736D01*
X0138407Y0229315D02*
X0137583Y0229315D01*
X0137583Y0231123D01*
X0138407Y0231123D01*
X0138407Y0229315D01*
X0138407Y0230171D02*
X0137583Y0230171D01*
X0137583Y0231027D02*
X0138407Y0231027D01*
X0139551Y0229315D02*
X0140375Y0229315D01*
X0139551Y0229315D02*
X0139551Y0231123D01*
X0140375Y0231123D01*
X0140375Y0229315D01*
X0140375Y0230171D02*
X0139551Y0230171D01*
X0139551Y0231027D02*
X0140375Y0231027D01*
X0140375Y0220851D02*
X0139551Y0220851D01*
X0139551Y0222659D01*
X0140375Y0222659D01*
X0140375Y0220851D01*
X0140375Y0221707D02*
X0139551Y0221707D01*
X0139551Y0222563D02*
X0140375Y0222563D01*
X0138407Y0220851D02*
X0137583Y0220851D01*
X0137583Y0222659D01*
X0138407Y0222659D01*
X0138407Y0220851D01*
X0138407Y0221707D02*
X0137583Y0221707D01*
X0137583Y0222563D02*
X0138407Y0222563D01*
X0138407Y0215142D02*
X0137583Y0215142D01*
X0137583Y0216950D01*
X0138407Y0216950D01*
X0138407Y0215142D01*
X0138407Y0215998D02*
X0137583Y0215998D01*
X0137583Y0216854D02*
X0138407Y0216854D01*
X0139551Y0215142D02*
X0140375Y0215142D01*
X0139551Y0215142D02*
X0139551Y0216950D01*
X0140375Y0216950D01*
X0140375Y0215142D01*
X0140375Y0215998D02*
X0139551Y0215998D01*
X0139551Y0216854D02*
X0140375Y0216854D01*
X0140375Y0207465D02*
X0139551Y0207465D01*
X0139551Y0209273D01*
X0140375Y0209273D01*
X0140375Y0207465D01*
X0140375Y0208321D02*
X0139551Y0208321D01*
X0139551Y0209177D02*
X0140375Y0209177D01*
X0138407Y0207465D02*
X0137583Y0207465D01*
X0137583Y0209273D01*
X0138407Y0209273D01*
X0138407Y0207465D01*
X0138407Y0208321D02*
X0137583Y0208321D01*
X0137583Y0209177D02*
X0138407Y0209177D01*
X0138407Y0201756D02*
X0137583Y0201756D01*
X0137583Y0203564D01*
X0138407Y0203564D01*
X0138407Y0201756D01*
X0138407Y0202612D02*
X0137583Y0202612D01*
X0137583Y0203468D02*
X0138407Y0203468D01*
X0139551Y0201756D02*
X0140375Y0201756D01*
X0139551Y0201756D02*
X0139551Y0203564D01*
X0140375Y0203564D01*
X0140375Y0201756D01*
X0140375Y0202612D02*
X0139551Y0202612D01*
X0139551Y0203468D02*
X0140375Y0203468D01*
D27*
X0137406Y0204650D02*
X0137406Y0206378D01*
X0140552Y0206378D01*
X0140552Y0204650D01*
X0137406Y0204650D01*
X0137406Y0205390D02*
X0140552Y0205390D01*
X0140552Y0206130D02*
X0137406Y0206130D01*
X0137406Y0218036D02*
X0137406Y0219764D01*
X0140552Y0219764D01*
X0140552Y0218036D01*
X0137406Y0218036D01*
X0137406Y0218776D02*
X0140552Y0218776D01*
X0140552Y0219516D02*
X0137406Y0219516D01*
X0137406Y0232209D02*
X0137406Y0233937D01*
X0140552Y0233937D01*
X0140552Y0232209D01*
X0137406Y0232209D01*
X0137406Y0232949D02*
X0140552Y0232949D01*
X0140552Y0233689D02*
X0137406Y0233689D01*
X0137406Y0244808D02*
X0137406Y0246536D01*
X0140552Y0246536D01*
X0140552Y0244808D01*
X0137406Y0244808D01*
X0137406Y0245548D02*
X0140552Y0245548D01*
X0140552Y0246288D02*
X0137406Y0246288D01*
D28*
X0300806Y0401050D02*
X0303924Y0401050D01*
X0303924Y0400530D01*
X0300806Y0400530D01*
X0300806Y0401050D01*
X0300806Y0403019D02*
X0303924Y0403019D01*
X0303924Y0402499D01*
X0300806Y0402499D01*
X0300806Y0403019D01*
X0300806Y0404987D02*
X0303924Y0404987D01*
X0303924Y0404467D01*
X0300806Y0404467D01*
X0300806Y0404987D01*
X0300806Y0406956D02*
X0303924Y0406956D01*
X0303924Y0406436D01*
X0300806Y0406436D01*
X0300806Y0406956D01*
X0300806Y0408924D02*
X0303924Y0408924D01*
X0303924Y0408404D01*
X0300806Y0408404D01*
X0300806Y0408924D01*
X0306239Y0409270D02*
X0306239Y0412388D01*
X0306759Y0412388D01*
X0306759Y0409270D01*
X0306239Y0409270D01*
X0306239Y0410194D02*
X0306759Y0410194D01*
X0306759Y0411118D02*
X0306239Y0411118D01*
X0306239Y0412042D02*
X0306759Y0412042D01*
X0308207Y0412388D02*
X0308207Y0409270D01*
X0308207Y0412388D02*
X0308727Y0412388D01*
X0308727Y0409270D01*
X0308207Y0409270D01*
X0308207Y0410194D02*
X0308727Y0410194D01*
X0308727Y0411118D02*
X0308207Y0411118D01*
X0308207Y0412042D02*
X0308727Y0412042D01*
X0311042Y0408404D02*
X0314160Y0408404D01*
X0311042Y0408404D02*
X0311042Y0408924D01*
X0314160Y0408924D01*
X0314160Y0408404D01*
X0314160Y0406436D02*
X0311042Y0406436D01*
X0311042Y0406956D01*
X0314160Y0406956D01*
X0314160Y0406436D01*
X0314160Y0404467D02*
X0311042Y0404467D01*
X0311042Y0404987D01*
X0314160Y0404987D01*
X0314160Y0404467D01*
X0314160Y0402499D02*
X0311042Y0402499D01*
X0311042Y0403019D01*
X0314160Y0403019D01*
X0314160Y0402499D01*
X0314160Y0400530D02*
X0311042Y0400530D01*
X0311042Y0401050D01*
X0314160Y0401050D01*
X0314160Y0400530D01*
X0308727Y0400184D02*
X0308727Y0397066D01*
X0308207Y0397066D01*
X0308207Y0400184D01*
X0308727Y0400184D01*
X0308727Y0397990D02*
X0308207Y0397990D01*
X0308207Y0398914D02*
X0308727Y0398914D01*
X0308727Y0399838D02*
X0308207Y0399838D01*
X0306759Y0400184D02*
X0306759Y0397066D01*
X0306239Y0397066D01*
X0306239Y0400184D01*
X0306759Y0400184D01*
X0306759Y0397990D02*
X0306239Y0397990D01*
X0306239Y0398914D02*
X0306759Y0398914D01*
X0306759Y0399838D02*
X0306239Y0399838D01*
D29*
X0305805Y0402064D02*
X0309161Y0402064D01*
X0305805Y0402064D02*
X0305805Y0407390D01*
X0309161Y0407390D01*
X0309161Y0402064D01*
X0309161Y0402750D02*
X0305805Y0402750D01*
X0305805Y0403436D02*
X0309161Y0403436D01*
X0309161Y0404122D02*
X0305805Y0404122D01*
X0305805Y0404808D02*
X0309161Y0404808D01*
X0309161Y0405494D02*
X0305805Y0405494D01*
X0305805Y0406180D02*
X0309161Y0406180D01*
X0309161Y0406866D02*
X0305805Y0406866D01*
D30*
X0322837Y0426774D03*
X0331105Y0417719D03*
X0338585Y0416932D03*
X0370475Y0403940D03*
X0372050Y0398034D03*
X0386223Y0394097D03*
X0398034Y0394097D03*
X0398034Y0413782D03*
X0390160Y0418507D03*
X0382286Y0419688D03*
X0374412Y0423625D03*
X0401971Y0425593D03*
X0405121Y0432680D03*
X0398034Y0468900D03*
X0379530Y0479727D03*
X0305514Y0449215D03*
X0297640Y0449215D03*
X0289766Y0449215D03*
X0281892Y0449215D03*
X0274018Y0449215D03*
X0254333Y0449215D03*
X0246459Y0449215D03*
X0240554Y0449215D03*
X0234648Y0449215D03*
X0228743Y0449215D03*
X0222837Y0449215D03*
X0205514Y0378743D03*
X0135239Y0387207D03*
X0135239Y0402955D03*
X0114570Y0344097D03*
X0125396Y0327168D03*
X0112601Y0294885D03*
X0094885Y0299609D03*
X0091932Y0343310D03*
X0078152Y0344885D03*
X0076184Y0362601D03*
X0177562Y0251184D03*
X0134255Y0224806D03*
X0094885Y0242522D03*
X0184747Y0159156D03*
X0203152Y0179924D03*
X0197247Y0187798D03*
X0220475Y0199609D03*
X0256302Y0183467D03*
X0287798Y0163782D03*
X0266144Y0140160D03*
X0268113Y0116538D03*
X0260239Y0116538D03*
X0252365Y0116538D03*
X0244491Y0116538D03*
X0236617Y0116538D03*
X0229727Y0116538D03*
X0228743Y0122444D03*
X0222837Y0116538D03*
X0275987Y0116538D03*
X0283861Y0116538D03*
X0291735Y0116538D03*
X0299609Y0116538D03*
X0313388Y0116538D03*
X0324215Y0116538D03*
X0331105Y0116538D03*
X0338979Y0116538D03*
X0346853Y0116538D03*
X0368507Y0116538D03*
X0401971Y0116538D03*
X0389176Y0174609D03*
X0356696Y0178940D03*
X0323231Y0168703D03*
X0322247Y0135239D03*
X0224294Y0267877D03*
X0242522Y0289766D03*
X0228743Y0299609D03*
M02*
