G75*
%MOIN*%
%OFA0B0*%
%FSLAX25Y25*%
%IPPOS*%
%LPD*%
%AMOC8*
5,1,8,0,0,1.08239X$1,22.5*
%
%ADD10C,0.00600*%
%ADD11C,0.00400*%
%ADD12C,0.01600*%
%ADD13C,0.00300*%
%ADD14C,0.00000*%
%ADD15C,0.00500*%
%ADD16C,0.00800*%
%ADD17C,0.01000*%
%ADD18C,0.01181*%
%ADD19C,0.00394*%
D10*
X0069294Y0146066D02*
X0201557Y0146066D01*
X0201557Y0146065D02*
X0201928Y0146061D01*
X0202300Y0146047D01*
X0202671Y0146025D01*
X0203041Y0145993D01*
X0203410Y0145953D01*
X0203778Y0145904D01*
X0204145Y0145846D01*
X0204511Y0145779D01*
X0204874Y0145703D01*
X0205236Y0145618D01*
X0205596Y0145525D01*
X0205953Y0145423D01*
X0206308Y0145313D01*
X0206660Y0145193D01*
X0207009Y0145066D01*
X0207354Y0144930D01*
X0207697Y0144786D01*
X0208036Y0144633D01*
X0208371Y0144473D01*
X0208702Y0144304D01*
X0209029Y0144127D01*
X0209351Y0143943D01*
X0209669Y0143751D01*
X0209982Y0143551D01*
X0210290Y0143344D01*
X0210594Y0143129D01*
X0210892Y0142907D01*
X0211184Y0142678D01*
X0211471Y0142442D01*
X0211752Y0142199D01*
X0212027Y0141949D01*
X0212296Y0141693D01*
X0212559Y0141430D01*
X0212815Y0141161D01*
X0213065Y0140886D01*
X0213308Y0140605D01*
X0213544Y0140318D01*
X0213773Y0140026D01*
X0213995Y0139728D01*
X0214210Y0139424D01*
X0214417Y0139116D01*
X0214617Y0138803D01*
X0214809Y0138485D01*
X0214993Y0138163D01*
X0215170Y0137836D01*
X0215339Y0137505D01*
X0215499Y0137170D01*
X0215652Y0136831D01*
X0215796Y0136488D01*
X0215932Y0136143D01*
X0216059Y0135794D01*
X0216179Y0135442D01*
X0216289Y0135087D01*
X0216391Y0134730D01*
X0216484Y0134370D01*
X0216569Y0134008D01*
X0216645Y0133645D01*
X0216712Y0133279D01*
X0216770Y0132912D01*
X0216819Y0132544D01*
X0216859Y0132175D01*
X0216891Y0131805D01*
X0216913Y0131434D01*
X0216927Y0131062D01*
X0216931Y0130691D01*
X0216932Y0130691D02*
X0216932Y0081105D01*
X0411814Y0081105D01*
X0411814Y0484648D01*
X0216932Y0484648D01*
X0216932Y0437031D01*
X0216931Y0437031D02*
X0216927Y0436660D01*
X0216913Y0436288D01*
X0216891Y0435917D01*
X0216859Y0435547D01*
X0216819Y0435178D01*
X0216770Y0434810D01*
X0216712Y0434443D01*
X0216645Y0434077D01*
X0216569Y0433714D01*
X0216484Y0433352D01*
X0216391Y0432992D01*
X0216289Y0432635D01*
X0216179Y0432280D01*
X0216059Y0431928D01*
X0215932Y0431579D01*
X0215796Y0431234D01*
X0215652Y0430891D01*
X0215499Y0430552D01*
X0215339Y0430217D01*
X0215170Y0429886D01*
X0214993Y0429559D01*
X0214809Y0429237D01*
X0214617Y0428919D01*
X0214417Y0428606D01*
X0214210Y0428298D01*
X0213995Y0427994D01*
X0213773Y0427696D01*
X0213544Y0427404D01*
X0213308Y0427117D01*
X0213065Y0426836D01*
X0212815Y0426561D01*
X0212559Y0426292D01*
X0212296Y0426029D01*
X0212027Y0425773D01*
X0211752Y0425523D01*
X0211471Y0425280D01*
X0211184Y0425044D01*
X0210892Y0424815D01*
X0210594Y0424593D01*
X0210290Y0424378D01*
X0209982Y0424171D01*
X0209669Y0423971D01*
X0209351Y0423779D01*
X0209029Y0423595D01*
X0208702Y0423418D01*
X0208371Y0423249D01*
X0208036Y0423089D01*
X0207697Y0422936D01*
X0207354Y0422792D01*
X0207009Y0422656D01*
X0206660Y0422529D01*
X0206308Y0422409D01*
X0205953Y0422299D01*
X0205596Y0422197D01*
X0205236Y0422104D01*
X0204874Y0422019D01*
X0204511Y0421943D01*
X0204145Y0421876D01*
X0203778Y0421818D01*
X0203410Y0421769D01*
X0203041Y0421729D01*
X0202671Y0421697D01*
X0202300Y0421675D01*
X0201928Y0421661D01*
X0201557Y0421657D01*
X0201557Y0421656D02*
X0069294Y0421656D01*
X0069294Y0146066D01*
X0373532Y0459058D02*
X0373534Y0459117D01*
X0373540Y0459175D01*
X0373550Y0459233D01*
X0373563Y0459290D01*
X0373581Y0459347D01*
X0373602Y0459402D01*
X0373627Y0459455D01*
X0373655Y0459506D01*
X0373686Y0459556D01*
X0373721Y0459603D01*
X0373759Y0459648D01*
X0373800Y0459691D01*
X0373844Y0459730D01*
X0373890Y0459766D01*
X0373938Y0459800D01*
X0373989Y0459830D01*
X0374042Y0459856D01*
X0374096Y0459879D01*
X0374151Y0459898D01*
X0374208Y0459914D01*
X0374266Y0459926D01*
X0374324Y0459934D01*
X0374383Y0459938D01*
X0374441Y0459938D01*
X0374500Y0459934D01*
X0374558Y0459926D01*
X0374616Y0459914D01*
X0374673Y0459898D01*
X0374728Y0459879D01*
X0374782Y0459856D01*
X0374835Y0459830D01*
X0374886Y0459800D01*
X0374934Y0459766D01*
X0374980Y0459730D01*
X0375024Y0459691D01*
X0375065Y0459648D01*
X0375103Y0459603D01*
X0375138Y0459556D01*
X0375169Y0459506D01*
X0375197Y0459455D01*
X0375222Y0459402D01*
X0375243Y0459347D01*
X0375261Y0459290D01*
X0375274Y0459233D01*
X0375284Y0459175D01*
X0375290Y0459117D01*
X0375292Y0459058D01*
X0375290Y0458999D01*
X0375284Y0458941D01*
X0375274Y0458883D01*
X0375261Y0458826D01*
X0375243Y0458769D01*
X0375222Y0458714D01*
X0375197Y0458661D01*
X0375169Y0458610D01*
X0375138Y0458560D01*
X0375103Y0458513D01*
X0375065Y0458468D01*
X0375024Y0458425D01*
X0374980Y0458386D01*
X0374934Y0458350D01*
X0374886Y0458316D01*
X0374835Y0458286D01*
X0374782Y0458260D01*
X0374728Y0458237D01*
X0374673Y0458218D01*
X0374616Y0458202D01*
X0374558Y0458190D01*
X0374500Y0458182D01*
X0374441Y0458178D01*
X0374383Y0458178D01*
X0374324Y0458182D01*
X0374266Y0458190D01*
X0374208Y0458202D01*
X0374151Y0458218D01*
X0374096Y0458237D01*
X0374042Y0458260D01*
X0373989Y0458286D01*
X0373938Y0458316D01*
X0373890Y0458350D01*
X0373844Y0458386D01*
X0373800Y0458425D01*
X0373759Y0458468D01*
X0373721Y0458513D01*
X0373686Y0458560D01*
X0373655Y0458610D01*
X0373627Y0458661D01*
X0373602Y0458714D01*
X0373581Y0458769D01*
X0373563Y0458826D01*
X0373550Y0458883D01*
X0373540Y0458941D01*
X0373534Y0458999D01*
X0373532Y0459058D01*
D11*
X0380764Y0397491D02*
X0380163Y0396890D01*
X0380163Y0395689D01*
X0380764Y0395089D01*
X0380163Y0393807D02*
X0383766Y0391405D01*
X0383766Y0390124D02*
X0383766Y0387722D01*
X0383766Y0388923D02*
X0380163Y0388923D01*
X0380163Y0391405D02*
X0383766Y0393807D01*
X0383166Y0395089D02*
X0383766Y0395689D01*
X0383766Y0396890D01*
X0383166Y0397491D01*
X0382565Y0397491D01*
X0381965Y0396890D01*
X0381364Y0397491D01*
X0380764Y0397491D01*
X0381965Y0396890D02*
X0381965Y0396290D01*
X0390163Y0396890D02*
X0390163Y0395689D01*
X0390764Y0395089D01*
X0390163Y0393807D02*
X0393766Y0391405D01*
X0393166Y0390124D02*
X0391965Y0390124D01*
X0391364Y0389524D01*
X0391364Y0387722D01*
X0390163Y0387722D02*
X0393766Y0387722D01*
X0393766Y0389524D01*
X0393166Y0390124D01*
X0391364Y0388923D02*
X0390163Y0390124D01*
X0390163Y0391405D02*
X0393766Y0393807D01*
X0393166Y0395089D02*
X0393766Y0395689D01*
X0393766Y0396890D01*
X0393166Y0397491D01*
X0392565Y0397491D01*
X0391965Y0396890D01*
X0391364Y0397491D01*
X0390764Y0397491D01*
X0390163Y0396890D01*
X0391965Y0396890D02*
X0391965Y0396290D01*
X0373766Y0393207D02*
X0373766Y0392006D01*
X0373166Y0391405D01*
X0373166Y0390124D02*
X0373766Y0389524D01*
X0373766Y0387722D01*
X0370163Y0387722D01*
X0370163Y0389524D01*
X0370764Y0390124D01*
X0373166Y0390124D01*
X0373766Y0393207D02*
X0373166Y0393807D01*
X0372565Y0393807D01*
X0370163Y0391405D01*
X0370163Y0393807D01*
X0363766Y0393207D02*
X0363166Y0393807D01*
X0362565Y0393807D01*
X0361965Y0393207D01*
X0361364Y0393807D01*
X0360764Y0393807D01*
X0360163Y0393207D01*
X0360163Y0392006D01*
X0360764Y0391405D01*
X0360764Y0390124D02*
X0363166Y0390124D01*
X0363766Y0389524D01*
X0363766Y0387722D01*
X0360163Y0387722D01*
X0360163Y0389524D01*
X0360764Y0390124D01*
X0363166Y0391405D02*
X0363766Y0392006D01*
X0363766Y0393207D01*
X0361965Y0393207D02*
X0361965Y0392606D01*
X0353766Y0393207D02*
X0351965Y0391405D01*
X0351965Y0393807D01*
X0353766Y0393207D02*
X0350163Y0393207D01*
X0350764Y0390124D02*
X0353166Y0390124D01*
X0353766Y0389524D01*
X0353766Y0387722D01*
X0350163Y0387722D01*
X0350163Y0389524D01*
X0350764Y0390124D01*
X0343766Y0389524D02*
X0343766Y0387722D01*
X0340163Y0387722D01*
X0340163Y0389524D01*
X0340764Y0390124D01*
X0343166Y0390124D01*
X0343766Y0389524D01*
X0343766Y0391405D02*
X0341965Y0391405D01*
X0342565Y0392606D01*
X0342565Y0393207D01*
X0341965Y0393807D01*
X0340764Y0393807D01*
X0340163Y0393207D01*
X0340163Y0392006D01*
X0340764Y0391405D01*
X0343766Y0391405D02*
X0343766Y0393807D01*
X0333766Y0393807D02*
X0333166Y0392606D01*
X0331965Y0391405D01*
X0331965Y0393207D01*
X0331364Y0393807D01*
X0330764Y0393807D01*
X0330163Y0393207D01*
X0330163Y0392006D01*
X0330764Y0391405D01*
X0331965Y0391405D01*
X0333166Y0390124D02*
X0333766Y0389524D01*
X0333766Y0387722D01*
X0330163Y0387722D01*
X0330163Y0389524D01*
X0330764Y0390124D01*
X0333166Y0390124D01*
X0323766Y0389524D02*
X0323766Y0387722D01*
X0320163Y0387722D01*
X0320163Y0389524D01*
X0320764Y0390124D01*
X0323166Y0390124D01*
X0323766Y0389524D01*
X0323766Y0391405D02*
X0323766Y0393807D01*
X0323166Y0393807D01*
X0320764Y0391405D01*
X0320163Y0391405D01*
X0307703Y0390904D02*
X0307703Y0392105D01*
X0307103Y0392705D01*
X0306502Y0392705D01*
X0305902Y0392105D01*
X0305902Y0390904D01*
X0306502Y0390303D01*
X0307103Y0390303D01*
X0307703Y0390904D01*
X0305902Y0390904D02*
X0305301Y0390303D01*
X0304701Y0390303D01*
X0304100Y0390904D01*
X0304100Y0392105D01*
X0304701Y0392705D01*
X0305301Y0392705D01*
X0305902Y0392105D01*
X0307103Y0389022D02*
X0307703Y0388421D01*
X0307703Y0386620D01*
X0304100Y0386620D01*
X0304100Y0388421D01*
X0304701Y0389022D01*
X0307103Y0389022D01*
X0286916Y0389209D02*
X0286916Y0387407D01*
X0283313Y0387407D01*
X0284514Y0387407D02*
X0284514Y0389209D01*
X0285114Y0389809D01*
X0286315Y0389809D01*
X0286916Y0389209D01*
X0286916Y0391090D02*
X0286916Y0393493D01*
X0286916Y0392292D02*
X0283313Y0392292D01*
X0283313Y0389809D02*
X0284514Y0388608D01*
X0277703Y0388608D02*
X0274100Y0388608D01*
X0274100Y0391090D02*
X0277703Y0393493D01*
X0277103Y0394774D02*
X0277703Y0395374D01*
X0277703Y0396575D01*
X0277103Y0397176D01*
X0274701Y0394774D01*
X0274100Y0395374D01*
X0274100Y0396575D01*
X0274701Y0397176D01*
X0277103Y0397176D01*
X0277103Y0394774D02*
X0274701Y0394774D01*
X0274100Y0393493D02*
X0277703Y0391090D01*
X0277703Y0389809D02*
X0277703Y0387407D01*
X0283913Y0394774D02*
X0283313Y0395374D01*
X0283313Y0396575D01*
X0283913Y0397176D01*
X0284514Y0397176D01*
X0285114Y0396575D01*
X0285114Y0395374D01*
X0285715Y0394774D01*
X0286315Y0394774D01*
X0286916Y0395374D01*
X0286916Y0396575D01*
X0286315Y0397176D01*
X0286315Y0398457D02*
X0286916Y0399057D01*
X0286916Y0400258D01*
X0286315Y0400859D01*
X0283913Y0398457D01*
X0283313Y0399057D01*
X0283313Y0400258D01*
X0283913Y0400859D01*
X0286315Y0400859D01*
X0286315Y0398457D02*
X0283913Y0398457D01*
X0284676Y0414573D02*
X0286410Y0414573D01*
X0285543Y0414573D02*
X0285543Y0417175D01*
X0286410Y0416308D01*
X0287438Y0417175D02*
X0289173Y0414573D01*
X0287438Y0414573D02*
X0289173Y0417175D01*
X0305732Y0417135D02*
X0307467Y0415400D01*
X0307467Y0414966D01*
X0308494Y0414966D02*
X0310229Y0414966D01*
X0309362Y0414966D02*
X0309362Y0417569D01*
X0310229Y0416701D01*
X0311257Y0417569D02*
X0311257Y0415400D01*
X0311690Y0414966D01*
X0312558Y0414966D01*
X0312992Y0415400D01*
X0312992Y0417569D01*
X0311033Y0421462D02*
X0309298Y0421462D01*
X0308864Y0421896D01*
X0308864Y0422764D01*
X0309298Y0423197D01*
X0308864Y0424225D02*
X0308864Y0425960D01*
X0308864Y0425092D02*
X0311466Y0425092D01*
X0310599Y0424225D01*
X0311033Y0423197D02*
X0311466Y0422764D01*
X0311466Y0421896D01*
X0311033Y0421462D01*
X0307467Y0417569D02*
X0305732Y0417569D01*
X0305732Y0417135D01*
X0308864Y0426987D02*
X0310599Y0428722D01*
X0311033Y0428722D01*
X0311466Y0428288D01*
X0311466Y0427421D01*
X0311033Y0426987D01*
X0308864Y0426987D02*
X0308864Y0428722D01*
X0275285Y0436384D02*
X0274851Y0435951D01*
X0273117Y0435951D01*
X0272683Y0436384D01*
X0272683Y0437252D01*
X0273117Y0437685D01*
X0273117Y0438713D02*
X0272683Y0439147D01*
X0272683Y0440014D01*
X0273117Y0440448D01*
X0273550Y0440448D01*
X0273984Y0440014D01*
X0273984Y0438713D01*
X0273117Y0438713D01*
X0273984Y0438713D02*
X0274851Y0439580D01*
X0275285Y0440448D01*
X0274851Y0437685D02*
X0275285Y0437252D01*
X0275285Y0436384D01*
X0247364Y0421693D02*
X0244762Y0421693D01*
X0244762Y0420826D02*
X0244762Y0422561D01*
X0246496Y0420826D02*
X0247364Y0421693D01*
X0246930Y0419799D02*
X0247364Y0419365D01*
X0247364Y0418497D01*
X0246930Y0418064D01*
X0245195Y0418064D01*
X0244762Y0418497D01*
X0244762Y0419365D01*
X0245195Y0419799D01*
X0238648Y0400859D02*
X0238648Y0398457D01*
X0235045Y0398457D01*
X0238648Y0398457D01*
X0238648Y0400859D01*
X0236847Y0399658D02*
X0236847Y0398457D01*
X0236847Y0399658D01*
X0238648Y0397176D02*
X0238648Y0394774D01*
X0235045Y0394774D01*
X0235045Y0397176D01*
X0235045Y0394774D01*
X0238648Y0394774D01*
X0238648Y0397176D01*
X0236847Y0395975D02*
X0236847Y0394774D01*
X0236847Y0395975D01*
X0236847Y0393493D02*
X0236246Y0392892D01*
X0236246Y0391090D01*
X0236246Y0392892D01*
X0236847Y0393493D01*
X0238048Y0393493D01*
X0238648Y0392892D01*
X0238648Y0391090D01*
X0235045Y0391090D01*
X0238648Y0391090D01*
X0238648Y0392892D01*
X0238048Y0393493D01*
X0236847Y0393493D01*
X0236246Y0392292D02*
X0235045Y0393493D01*
X0236246Y0392292D01*
X0236847Y0389809D02*
X0236847Y0387407D01*
X0236847Y0389809D01*
X0237447Y0389809D02*
X0235045Y0389809D01*
X0237447Y0389809D01*
X0238648Y0388608D01*
X0237447Y0387407D01*
X0235045Y0387407D01*
X0237447Y0387407D01*
X0238648Y0388608D01*
X0237447Y0389809D01*
X0245809Y0389209D02*
X0245809Y0388008D01*
X0246409Y0387407D01*
X0248811Y0387407D01*
X0249412Y0388008D01*
X0249412Y0389209D01*
X0248811Y0389809D01*
X0247610Y0389809D02*
X0247610Y0388608D01*
X0247610Y0389809D02*
X0246409Y0389809D01*
X0245809Y0389209D01*
X0245809Y0391090D02*
X0249412Y0391090D01*
X0245809Y0393493D01*
X0249412Y0393493D01*
X0249412Y0394774D02*
X0245809Y0394774D01*
X0245809Y0396575D01*
X0246409Y0397176D01*
X0248811Y0397176D01*
X0249412Y0396575D01*
X0249412Y0394774D01*
X0254415Y0394774D02*
X0258018Y0394774D01*
X0256217Y0395374D02*
X0254415Y0397176D01*
X0255016Y0398457D02*
X0257418Y0400859D01*
X0255016Y0400859D01*
X0254415Y0400258D01*
X0254415Y0399057D01*
X0255016Y0398457D01*
X0257418Y0398457D01*
X0258018Y0399057D01*
X0258018Y0400258D01*
X0257418Y0400859D01*
X0258018Y0397176D02*
X0255616Y0394774D01*
X0254415Y0393493D02*
X0254415Y0391090D01*
X0258018Y0391090D01*
X0257418Y0389809D02*
X0258018Y0389209D01*
X0258018Y0388008D01*
X0257418Y0387407D01*
X0255016Y0387407D01*
X0254415Y0388008D01*
X0254415Y0389209D01*
X0255016Y0389809D01*
X0264100Y0389809D02*
X0265301Y0388608D01*
X0265301Y0389209D02*
X0265301Y0387407D01*
X0264100Y0387407D02*
X0267703Y0387407D01*
X0267703Y0389209D01*
X0267103Y0389809D01*
X0265902Y0389809D01*
X0265301Y0389209D01*
X0264100Y0391090D02*
X0267703Y0393493D01*
X0267103Y0394774D02*
X0267703Y0395374D01*
X0267703Y0396575D01*
X0267103Y0397176D01*
X0264701Y0394774D01*
X0264100Y0395374D01*
X0264100Y0396575D01*
X0264701Y0397176D01*
X0267103Y0397176D01*
X0267103Y0394774D02*
X0264701Y0394774D01*
X0264100Y0393493D02*
X0267703Y0391090D01*
X0266607Y0365299D02*
X0264205Y0362897D01*
X0263604Y0363498D01*
X0263604Y0364699D01*
X0264205Y0365299D01*
X0266607Y0365299D01*
X0267207Y0364699D01*
X0267207Y0363498D01*
X0266607Y0362897D01*
X0264205Y0362897D01*
X0263604Y0361616D02*
X0267207Y0359214D01*
X0267207Y0357933D02*
X0267207Y0355531D01*
X0267207Y0356732D02*
X0263604Y0356732D01*
X0263604Y0359214D02*
X0267207Y0361616D01*
X0273604Y0361616D02*
X0273604Y0359214D01*
X0277207Y0359214D01*
X0276607Y0357933D02*
X0277207Y0357333D01*
X0277207Y0356132D01*
X0276607Y0355531D01*
X0274205Y0355531D01*
X0273604Y0356132D01*
X0273604Y0357333D01*
X0274205Y0357933D01*
X0274205Y0354250D02*
X0273604Y0353650D01*
X0273604Y0352448D01*
X0274205Y0351848D01*
X0275406Y0352448D02*
X0275406Y0353650D01*
X0274805Y0354250D01*
X0274205Y0354250D01*
X0275406Y0352448D02*
X0276006Y0351848D01*
X0276607Y0351848D01*
X0277207Y0352448D01*
X0277207Y0353650D01*
X0276607Y0354250D01*
X0283604Y0353650D02*
X0283604Y0352448D01*
X0284205Y0351848D01*
X0285406Y0352448D02*
X0285406Y0353650D01*
X0284805Y0354250D01*
X0284205Y0354250D01*
X0283604Y0353650D01*
X0283604Y0355531D02*
X0283604Y0357333D01*
X0284205Y0357933D01*
X0286607Y0357933D01*
X0287207Y0357333D01*
X0287207Y0355531D01*
X0283604Y0355531D01*
X0286607Y0354250D02*
X0287207Y0353650D01*
X0287207Y0352448D01*
X0286607Y0351848D01*
X0286006Y0351848D01*
X0285406Y0352448D01*
X0285406Y0359214D02*
X0285406Y0361616D01*
X0286006Y0361616D02*
X0283604Y0361616D01*
X0283604Y0362897D02*
X0286006Y0365299D01*
X0286607Y0365299D01*
X0287207Y0364699D01*
X0287207Y0363498D01*
X0286607Y0362897D01*
X0286006Y0361616D02*
X0287207Y0360415D01*
X0286006Y0359214D01*
X0283604Y0359214D01*
X0283604Y0362897D02*
X0283604Y0365299D01*
X0277207Y0364699D02*
X0277207Y0363498D01*
X0276607Y0362897D01*
X0277207Y0364699D02*
X0276607Y0365299D01*
X0276006Y0365299D01*
X0273604Y0362897D01*
X0273604Y0365299D01*
X0257207Y0364699D02*
X0257207Y0363498D01*
X0256607Y0362897D01*
X0254205Y0362897D01*
X0256607Y0365299D01*
X0254205Y0365299D01*
X0253604Y0364699D01*
X0253604Y0363498D01*
X0254205Y0362897D01*
X0253604Y0361616D02*
X0257207Y0359214D01*
X0256607Y0357933D02*
X0255406Y0357933D01*
X0254805Y0357333D01*
X0254805Y0355531D01*
X0253604Y0355531D02*
X0257207Y0355531D01*
X0257207Y0357333D01*
X0256607Y0357933D01*
X0254805Y0356732D02*
X0253604Y0357933D01*
X0253604Y0359214D02*
X0257207Y0361616D01*
X0257207Y0364699D02*
X0256607Y0365299D01*
X0247207Y0364699D02*
X0247207Y0362897D01*
X0243604Y0362897D01*
X0243604Y0364699D01*
X0244205Y0365299D01*
X0246607Y0365299D01*
X0247207Y0364699D01*
X0247207Y0361616D02*
X0243604Y0361616D01*
X0247207Y0359214D01*
X0243604Y0359214D01*
X0244205Y0357933D02*
X0245406Y0357933D01*
X0245406Y0356732D01*
X0246607Y0355531D02*
X0244205Y0355531D01*
X0243604Y0356132D01*
X0243604Y0357333D01*
X0244205Y0357933D01*
X0246607Y0357933D02*
X0247207Y0357333D01*
X0247207Y0356132D01*
X0246607Y0355531D01*
X0237207Y0355531D02*
X0237207Y0357333D01*
X0236607Y0357933D01*
X0235406Y0357933D01*
X0234805Y0357333D01*
X0234805Y0355531D01*
X0233604Y0355531D02*
X0237207Y0355531D01*
X0236006Y0354250D02*
X0233604Y0354250D01*
X0235406Y0354250D02*
X0235406Y0351848D01*
X0236006Y0351848D02*
X0237207Y0353049D01*
X0236006Y0354250D01*
X0236006Y0351848D02*
X0233604Y0351848D01*
X0234805Y0356732D02*
X0233604Y0357933D01*
X0233604Y0359214D02*
X0233604Y0361616D01*
X0233604Y0362897D02*
X0237207Y0362897D01*
X0237207Y0365299D01*
X0235406Y0364098D02*
X0235406Y0362897D01*
X0237207Y0361616D02*
X0237207Y0359214D01*
X0233604Y0359214D01*
X0235406Y0359214D02*
X0235406Y0360415D01*
X0227207Y0360415D02*
X0226006Y0359214D01*
X0223604Y0359214D01*
X0224205Y0357933D02*
X0223604Y0357333D01*
X0223604Y0355531D01*
X0227207Y0355531D01*
X0227207Y0357333D01*
X0226607Y0357933D01*
X0224205Y0357933D01*
X0225406Y0359214D02*
X0225406Y0361616D01*
X0226006Y0361616D02*
X0223604Y0361616D01*
X0223604Y0362897D02*
X0223604Y0365299D01*
X0223604Y0364098D02*
X0227207Y0364098D01*
X0226006Y0362897D01*
X0226006Y0361616D02*
X0227207Y0360415D01*
X0226607Y0354250D02*
X0227207Y0353650D01*
X0227207Y0352448D01*
X0226607Y0351848D01*
X0226006Y0351848D01*
X0225406Y0352448D01*
X0225406Y0353650D01*
X0224805Y0354250D01*
X0224205Y0354250D01*
X0223604Y0353650D01*
X0223604Y0352448D01*
X0224205Y0351848D01*
X0217207Y0352448D02*
X0216607Y0351848D01*
X0216006Y0351848D01*
X0215406Y0352448D01*
X0215406Y0353650D01*
X0214805Y0354250D01*
X0214205Y0354250D01*
X0213604Y0353650D01*
X0213604Y0352448D01*
X0214205Y0351848D01*
X0217207Y0352448D02*
X0217207Y0353650D01*
X0216607Y0354250D01*
X0216607Y0355531D02*
X0214205Y0355531D01*
X0213604Y0356132D01*
X0213604Y0357333D01*
X0214205Y0357933D01*
X0213604Y0359214D02*
X0213604Y0361616D01*
X0213604Y0362897D02*
X0213604Y0365299D01*
X0213604Y0364098D02*
X0217207Y0364098D01*
X0216006Y0362897D01*
X0217207Y0359214D02*
X0213604Y0359214D01*
X0216607Y0357933D02*
X0217207Y0357333D01*
X0217207Y0356132D01*
X0216607Y0355531D01*
X0216709Y0387407D02*
X0216109Y0387407D01*
X0215508Y0388008D01*
X0215508Y0389209D01*
X0214908Y0389809D01*
X0214307Y0389809D01*
X0213707Y0389209D01*
X0213707Y0388008D01*
X0214307Y0387407D01*
X0216709Y0387407D02*
X0217310Y0388008D01*
X0217310Y0389209D01*
X0216709Y0389809D01*
X0216709Y0391090D02*
X0214307Y0391090D01*
X0213707Y0391691D01*
X0213707Y0392892D01*
X0214307Y0393493D01*
X0213707Y0394774D02*
X0213707Y0397176D01*
X0213707Y0398457D02*
X0213707Y0400859D01*
X0213707Y0399658D02*
X0217310Y0399658D01*
X0216109Y0398457D01*
X0217310Y0394774D02*
X0213707Y0394774D01*
X0216709Y0393493D02*
X0217310Y0392892D01*
X0217310Y0391691D01*
X0216709Y0391090D01*
X0224376Y0391090D02*
X0224376Y0392892D01*
X0224976Y0393493D01*
X0227378Y0393493D01*
X0227979Y0392892D01*
X0227979Y0391090D01*
X0224376Y0391090D01*
X0224976Y0389809D02*
X0224376Y0389209D01*
X0224376Y0388008D01*
X0224976Y0387407D01*
X0226177Y0388008D02*
X0226177Y0389209D01*
X0225577Y0389809D01*
X0224976Y0389809D01*
X0226177Y0388008D02*
X0226778Y0387407D01*
X0227378Y0387407D01*
X0227979Y0388008D01*
X0227979Y0389209D01*
X0227378Y0389809D01*
X0226778Y0394774D02*
X0227979Y0395975D01*
X0226778Y0397176D01*
X0224376Y0397176D01*
X0224376Y0398457D02*
X0224376Y0400859D01*
X0224376Y0399658D02*
X0227979Y0399658D01*
X0226778Y0398457D01*
X0226177Y0397176D02*
X0226177Y0394774D01*
X0226778Y0394774D02*
X0224376Y0394774D01*
X0274802Y0337758D02*
X0274368Y0337324D01*
X0274368Y0336457D01*
X0274802Y0336023D01*
X0275669Y0336023D02*
X0276103Y0336890D01*
X0276103Y0337324D01*
X0275669Y0337758D01*
X0274802Y0337758D01*
X0275669Y0336023D02*
X0276970Y0336023D01*
X0276970Y0337758D01*
X0276536Y0334995D02*
X0276970Y0334562D01*
X0276970Y0333694D01*
X0276536Y0333261D01*
X0276536Y0332233D02*
X0275669Y0332233D01*
X0275235Y0331799D01*
X0275235Y0330498D01*
X0274368Y0330498D02*
X0276970Y0330498D01*
X0276970Y0331799D01*
X0276536Y0332233D01*
X0275235Y0331366D02*
X0274368Y0332233D01*
X0274368Y0333261D02*
X0276103Y0334995D01*
X0276536Y0334995D01*
X0274368Y0334995D02*
X0274368Y0333261D01*
X0293604Y0352448D02*
X0293604Y0353650D01*
X0294205Y0354250D01*
X0293604Y0355531D02*
X0293604Y0357933D01*
X0293604Y0359214D02*
X0297207Y0359214D01*
X0295406Y0359815D02*
X0293604Y0361616D01*
X0293604Y0362897D02*
X0296006Y0365299D01*
X0296607Y0365299D01*
X0297207Y0364699D01*
X0297207Y0363498D01*
X0296607Y0362897D01*
X0297207Y0361616D02*
X0294805Y0359214D01*
X0293604Y0355531D02*
X0297207Y0355531D01*
X0296607Y0354250D02*
X0297207Y0353650D01*
X0297207Y0352448D01*
X0296607Y0351848D01*
X0294205Y0351848D01*
X0293604Y0352448D01*
X0293604Y0362897D02*
X0293604Y0365299D01*
X0303604Y0364699D02*
X0303604Y0363498D01*
X0304205Y0362897D01*
X0303604Y0361616D02*
X0307207Y0359214D01*
X0307207Y0357933D02*
X0307207Y0355531D01*
X0307207Y0356732D02*
X0303604Y0356732D01*
X0303604Y0359214D02*
X0307207Y0361616D01*
X0306607Y0362897D02*
X0307207Y0363498D01*
X0307207Y0364699D01*
X0306607Y0365299D01*
X0306006Y0365299D01*
X0305406Y0364699D01*
X0304805Y0365299D01*
X0304205Y0365299D01*
X0303604Y0364699D01*
X0305406Y0364699D02*
X0305406Y0364098D01*
X0319510Y0363498D02*
X0320110Y0362897D01*
X0319510Y0363498D02*
X0319510Y0364699D01*
X0320110Y0365299D01*
X0320711Y0365299D01*
X0321311Y0364699D01*
X0321311Y0364098D01*
X0321311Y0364699D02*
X0321912Y0365299D01*
X0322512Y0365299D01*
X0323113Y0364699D01*
X0323113Y0363498D01*
X0322512Y0362897D01*
X0323113Y0361616D02*
X0319510Y0359214D01*
X0319510Y0357933D02*
X0320711Y0356732D01*
X0320711Y0357333D02*
X0320711Y0355531D01*
X0319510Y0355531D02*
X0323113Y0355531D01*
X0323113Y0357333D01*
X0322512Y0357933D01*
X0321311Y0357933D01*
X0320711Y0357333D01*
X0323113Y0359214D02*
X0319510Y0361616D01*
X0329667Y0361616D02*
X0333270Y0361616D01*
X0333270Y0362897D02*
X0333270Y0364699D01*
X0332670Y0365299D01*
X0330268Y0365299D01*
X0329667Y0364699D01*
X0329667Y0362897D01*
X0333270Y0362897D01*
X0333270Y0359214D02*
X0329667Y0359214D01*
X0330268Y0357933D02*
X0331469Y0357933D01*
X0331469Y0356732D01*
X0332670Y0355531D02*
X0330268Y0355531D01*
X0329667Y0356132D01*
X0329667Y0357333D01*
X0330268Y0357933D01*
X0332670Y0357933D02*
X0333270Y0357333D01*
X0333270Y0356132D01*
X0332670Y0355531D01*
X0333270Y0359214D02*
X0329667Y0361616D01*
X0339510Y0361616D02*
X0343113Y0361616D01*
X0343113Y0362897D02*
X0343113Y0365299D01*
X0343113Y0364098D02*
X0339510Y0364098D01*
X0339510Y0361616D02*
X0343113Y0359214D01*
X0339510Y0359214D01*
X0339510Y0357960D02*
X0339510Y0356759D01*
X0339510Y0357359D02*
X0343113Y0357359D01*
X0343113Y0356759D02*
X0343113Y0357960D01*
X0338909Y0355478D02*
X0338909Y0353076D01*
X0341311Y0350594D02*
X0341311Y0349393D01*
X0341311Y0348111D02*
X0340711Y0347511D01*
X0340711Y0345709D01*
X0339510Y0345709D02*
X0343113Y0345709D01*
X0343113Y0347511D01*
X0342512Y0348111D01*
X0341311Y0348111D01*
X0340711Y0346910D02*
X0339510Y0348111D01*
X0339510Y0349393D02*
X0343113Y0349393D01*
X0343113Y0351795D01*
X0348909Y0351848D02*
X0348909Y0354250D01*
X0350110Y0355531D02*
X0349510Y0356132D01*
X0349510Y0357333D01*
X0350110Y0357933D01*
X0352512Y0357933D01*
X0353113Y0357333D01*
X0353113Y0356132D01*
X0352512Y0355531D01*
X0350110Y0355531D01*
X0350110Y0359214D02*
X0349510Y0359815D01*
X0349510Y0361016D01*
X0350110Y0361616D01*
X0353113Y0361616D01*
X0353113Y0362897D02*
X0353113Y0365299D01*
X0353113Y0364098D02*
X0349510Y0364098D01*
X0350110Y0359214D02*
X0353113Y0359214D01*
X0352512Y0350567D02*
X0353113Y0349966D01*
X0353113Y0348765D01*
X0352512Y0348165D01*
X0350110Y0348165D01*
X0349510Y0348765D01*
X0349510Y0349966D01*
X0350110Y0350567D01*
X0351311Y0350567D01*
X0351311Y0349366D01*
X0349510Y0346884D02*
X0353113Y0346884D01*
X0353113Y0344482D02*
X0349510Y0346884D01*
X0349510Y0344482D02*
X0353113Y0344482D01*
X0352512Y0343201D02*
X0351311Y0343201D01*
X0350711Y0342600D01*
X0350711Y0340799D01*
X0350711Y0342000D02*
X0349510Y0343201D01*
X0349510Y0340799D02*
X0353113Y0340799D01*
X0353113Y0342600D01*
X0352512Y0343201D01*
X0353113Y0339517D02*
X0353113Y0337115D01*
X0353113Y0338316D02*
X0349510Y0338316D01*
X0343113Y0342026D02*
X0339510Y0344428D01*
X0343113Y0344428D01*
X0343113Y0342026D02*
X0339510Y0342026D01*
X0359510Y0342000D02*
X0363113Y0342000D01*
X0363113Y0340799D02*
X0363113Y0343201D01*
X0363113Y0344482D02*
X0363113Y0346283D01*
X0362512Y0346884D01*
X0361311Y0346884D01*
X0360711Y0346283D01*
X0360711Y0344482D01*
X0360711Y0345683D02*
X0359510Y0346884D01*
X0359510Y0348165D02*
X0363113Y0348165D01*
X0359510Y0350567D01*
X0363113Y0350567D01*
X0362512Y0351848D02*
X0363113Y0352448D01*
X0363113Y0353650D01*
X0362512Y0354250D01*
X0361311Y0354250D02*
X0361311Y0353049D01*
X0361311Y0354250D02*
X0360110Y0354250D01*
X0359510Y0353650D01*
X0359510Y0352448D01*
X0360110Y0351848D01*
X0362512Y0351848D01*
X0358909Y0355531D02*
X0358909Y0357933D01*
X0359510Y0359214D02*
X0359510Y0361616D01*
X0359510Y0362897D02*
X0363113Y0362897D01*
X0359510Y0365299D01*
X0363113Y0365299D01*
X0363113Y0361616D02*
X0363113Y0359214D01*
X0359510Y0359214D01*
X0361311Y0359214D02*
X0361311Y0360415D01*
X0368909Y0357933D02*
X0368909Y0355531D01*
X0370110Y0354250D02*
X0369510Y0353650D01*
X0369510Y0352448D01*
X0370110Y0351848D01*
X0370110Y0350567D02*
X0369510Y0349966D01*
X0369510Y0348765D01*
X0370110Y0348165D01*
X0369510Y0346884D02*
X0369510Y0344482D01*
X0371912Y0346884D01*
X0372512Y0346884D01*
X0373113Y0346283D01*
X0373113Y0345082D01*
X0372512Y0344482D01*
X0373113Y0343201D02*
X0373113Y0340799D01*
X0369510Y0340799D01*
X0369510Y0339517D02*
X0370711Y0338316D01*
X0370711Y0338917D02*
X0370711Y0337115D01*
X0369510Y0337115D02*
X0373113Y0337115D01*
X0373113Y0338917D01*
X0372512Y0339517D01*
X0371311Y0339517D01*
X0370711Y0338917D01*
X0371311Y0340799D02*
X0371311Y0342000D01*
X0373910Y0336915D02*
X0373910Y0366381D01*
X0373113Y0365299D02*
X0369510Y0365299D01*
X0373113Y0362897D01*
X0369510Y0362897D01*
X0369510Y0361616D02*
X0369510Y0359214D01*
X0373113Y0359214D01*
X0373113Y0361616D01*
X0371311Y0360415D02*
X0371311Y0359214D01*
X0370711Y0354250D02*
X0370110Y0354250D01*
X0370711Y0354250D02*
X0371311Y0353650D01*
X0371311Y0353049D01*
X0371311Y0353650D02*
X0371912Y0354250D01*
X0372512Y0354250D01*
X0373113Y0353650D01*
X0373113Y0352448D01*
X0372512Y0351848D01*
X0372512Y0350567D02*
X0371912Y0350567D01*
X0371311Y0349966D01*
X0370711Y0350567D01*
X0370110Y0350567D01*
X0371311Y0349966D02*
X0371311Y0349366D01*
X0372512Y0350567D02*
X0373113Y0349966D01*
X0373113Y0348765D01*
X0372512Y0348165D01*
X0379510Y0348165D02*
X0383113Y0348165D01*
X0383113Y0349966D01*
X0382512Y0350567D01*
X0381311Y0350567D01*
X0380711Y0349966D01*
X0380711Y0348165D01*
X0380711Y0349366D02*
X0379510Y0350567D01*
X0379510Y0351848D02*
X0383113Y0351848D01*
X0383113Y0354250D01*
X0381311Y0353049D02*
X0381311Y0351848D01*
X0378909Y0355531D02*
X0378909Y0357933D01*
X0379510Y0359214D02*
X0379510Y0361616D01*
X0379510Y0362897D02*
X0383113Y0362897D01*
X0379510Y0365299D01*
X0383113Y0365299D01*
X0383910Y0366381D02*
X0383910Y0344282D01*
X0383113Y0344482D02*
X0379510Y0346884D01*
X0383113Y0346884D01*
X0383113Y0344482D02*
X0379510Y0344482D01*
X0389510Y0344482D02*
X0393113Y0344482D01*
X0389510Y0346884D01*
X0393113Y0346884D01*
X0392512Y0348165D02*
X0391912Y0348165D01*
X0391311Y0348765D01*
X0391311Y0349966D01*
X0390711Y0350567D01*
X0390110Y0350567D01*
X0389510Y0349966D01*
X0389510Y0348765D01*
X0390110Y0348165D01*
X0392512Y0348165D02*
X0393113Y0348765D01*
X0393113Y0349966D01*
X0392512Y0350567D01*
X0393113Y0351848D02*
X0389510Y0351848D01*
X0389510Y0354250D01*
X0388909Y0355531D02*
X0388909Y0357933D01*
X0389510Y0359214D02*
X0389510Y0361616D01*
X0389510Y0362897D02*
X0393113Y0362897D01*
X0389510Y0365299D01*
X0393113Y0365299D01*
X0393910Y0366381D02*
X0393910Y0336915D01*
X0393113Y0337716D02*
X0392512Y0337115D01*
X0391912Y0337115D01*
X0391311Y0337716D01*
X0391311Y0338917D01*
X0390711Y0339517D01*
X0390110Y0339517D01*
X0389510Y0338917D01*
X0389510Y0337716D01*
X0390110Y0337115D01*
X0393113Y0337716D02*
X0393113Y0338917D01*
X0392512Y0339517D01*
X0393113Y0340799D02*
X0389510Y0340799D01*
X0389510Y0343201D01*
X0391311Y0342000D02*
X0391311Y0340799D01*
X0393113Y0340799D02*
X0393113Y0343201D01*
X0393113Y0351848D02*
X0393113Y0354250D01*
X0391311Y0353049D02*
X0391311Y0351848D01*
X0391311Y0359214D02*
X0391311Y0360415D01*
X0389510Y0359214D02*
X0393113Y0359214D01*
X0393113Y0361616D01*
X0383113Y0361616D02*
X0383113Y0359214D01*
X0379510Y0359214D01*
X0381311Y0359214D02*
X0381311Y0360415D01*
X0363113Y0344482D02*
X0359510Y0344482D01*
X0275572Y0298670D02*
X0275572Y0298057D01*
X0274345Y0296830D01*
X0273732Y0296830D01*
X0273119Y0297444D01*
X0273119Y0298057D01*
X0272085Y0298477D02*
X0270859Y0299704D01*
X0271472Y0299090D02*
X0273312Y0300930D01*
X0273312Y0299704D01*
X0274345Y0299284D02*
X0274959Y0299284D01*
X0275572Y0298670D01*
X0271972Y0302270D02*
X0271052Y0301350D01*
X0270745Y0302270D01*
X0270439Y0302577D01*
X0269825Y0302577D01*
X0269212Y0301964D01*
X0269212Y0301350D01*
X0269825Y0300737D01*
X0270439Y0300737D01*
X0271972Y0302270D02*
X0270745Y0303497D01*
X0328607Y0239616D02*
X0328173Y0239182D01*
X0328173Y0238748D01*
X0328607Y0238315D01*
X0329474Y0238315D01*
X0329908Y0238748D01*
X0329908Y0239182D01*
X0329474Y0239616D01*
X0328607Y0239616D01*
X0328607Y0238315D02*
X0328173Y0237881D01*
X0328173Y0237447D01*
X0328607Y0237014D01*
X0329474Y0237014D01*
X0329908Y0237447D01*
X0329908Y0237881D01*
X0329474Y0238315D01*
X0330935Y0238748D02*
X0331369Y0238315D01*
X0330935Y0237881D01*
X0330935Y0237447D01*
X0331369Y0237014D01*
X0332236Y0237014D01*
X0332670Y0237447D01*
X0333698Y0237014D02*
X0334565Y0237881D01*
X0334131Y0237881D02*
X0335433Y0237881D01*
X0335433Y0237014D02*
X0335433Y0239616D01*
X0334131Y0239616D01*
X0333698Y0239182D01*
X0333698Y0238315D01*
X0334131Y0237881D01*
X0332670Y0239182D02*
X0332236Y0239616D01*
X0331369Y0239616D01*
X0330935Y0239182D01*
X0330935Y0238748D01*
X0331369Y0238315D02*
X0331803Y0238315D01*
X0323963Y0233045D02*
X0320360Y0233045D01*
X0320360Y0231844D02*
X0320360Y0234246D01*
X0322762Y0231844D02*
X0323963Y0233045D01*
X0323963Y0230562D02*
X0323963Y0228160D01*
X0323963Y0229361D02*
X0320360Y0229361D01*
X0320360Y0226879D02*
X0323963Y0226879D01*
X0323963Y0224477D02*
X0320360Y0226879D01*
X0320360Y0224477D02*
X0323963Y0224477D01*
X0323963Y0223223D02*
X0323963Y0222022D01*
X0323963Y0222622D02*
X0320360Y0222622D01*
X0320360Y0222022D02*
X0320360Y0223223D01*
X0319760Y0220741D02*
X0319760Y0218339D01*
X0320961Y0217058D02*
X0320360Y0216457D01*
X0320360Y0215256D01*
X0320961Y0214656D01*
X0323363Y0214656D01*
X0323963Y0215256D01*
X0323963Y0216457D01*
X0323363Y0217058D01*
X0323363Y0213374D02*
X0323963Y0212774D01*
X0323963Y0211573D01*
X0323363Y0210972D01*
X0320961Y0210972D01*
X0320360Y0211573D01*
X0320360Y0212774D01*
X0320961Y0213374D01*
X0320360Y0209691D02*
X0322762Y0209691D01*
X0323963Y0208490D01*
X0322762Y0207289D01*
X0320360Y0207289D01*
X0322162Y0207289D02*
X0322162Y0209691D01*
X0314121Y0209691D02*
X0314121Y0207289D01*
X0314121Y0208490D02*
X0310518Y0208490D01*
X0310518Y0210972D02*
X0314121Y0213374D01*
X0313520Y0214656D02*
X0314121Y0215256D01*
X0314121Y0216457D01*
X0313520Y0217058D01*
X0312920Y0217058D01*
X0310518Y0214656D01*
X0310518Y0217058D01*
X0310518Y0213374D02*
X0314121Y0210972D01*
X0304278Y0210972D02*
X0300675Y0213374D01*
X0300675Y0214656D02*
X0303077Y0217058D01*
X0303678Y0217058D01*
X0304278Y0216457D01*
X0304278Y0215256D01*
X0303678Y0214656D01*
X0304278Y0213374D02*
X0300675Y0210972D01*
X0300675Y0209691D02*
X0301876Y0208490D01*
X0301876Y0209091D02*
X0301876Y0207289D01*
X0300675Y0207289D02*
X0304278Y0207289D01*
X0304278Y0209091D01*
X0303678Y0209691D01*
X0302477Y0209691D01*
X0301876Y0209091D01*
X0300675Y0214656D02*
X0300675Y0217058D01*
X0293451Y0216457D02*
X0293451Y0215256D01*
X0292851Y0214656D01*
X0292250Y0214656D01*
X0291650Y0215256D01*
X0291650Y0216457D01*
X0291049Y0217058D01*
X0290449Y0217058D01*
X0289848Y0216457D01*
X0289848Y0215256D01*
X0290449Y0214656D01*
X0289848Y0212173D02*
X0293451Y0212173D01*
X0293451Y0210972D02*
X0293451Y0213374D01*
X0293451Y0216457D02*
X0292851Y0217058D01*
X0292851Y0218339D02*
X0293451Y0218939D01*
X0293451Y0220140D01*
X0292851Y0220741D01*
X0292250Y0220741D01*
X0289848Y0218339D01*
X0289848Y0220741D01*
X0283609Y0220140D02*
X0283609Y0218939D01*
X0283008Y0218339D01*
X0283008Y0217058D02*
X0283609Y0216457D01*
X0283609Y0215256D01*
X0283008Y0214656D01*
X0282408Y0214656D01*
X0281807Y0215256D01*
X0281807Y0216457D01*
X0281207Y0217058D01*
X0280606Y0217058D01*
X0280006Y0216457D01*
X0280006Y0215256D01*
X0280606Y0214656D01*
X0280006Y0212173D02*
X0283609Y0212173D01*
X0283609Y0210972D02*
X0283609Y0213374D01*
X0283008Y0209691D02*
X0281807Y0209691D01*
X0281207Y0209091D01*
X0281207Y0207289D01*
X0280006Y0207289D02*
X0283609Y0207289D01*
X0283609Y0209091D01*
X0283008Y0209691D01*
X0281207Y0208490D02*
X0280006Y0209691D01*
X0273309Y0210552D02*
X0273309Y0211601D01*
X0273309Y0211076D02*
X0270163Y0211076D01*
X0270163Y0210552D02*
X0270163Y0211601D01*
X0270688Y0212727D02*
X0270163Y0213251D01*
X0270163Y0214300D01*
X0270688Y0214824D01*
X0271736Y0214824D01*
X0271736Y0213776D01*
X0272785Y0214824D02*
X0273309Y0214300D01*
X0273309Y0213251D01*
X0272785Y0212727D01*
X0270688Y0212727D01*
X0270163Y0215990D02*
X0273309Y0215990D01*
X0271736Y0215990D02*
X0271736Y0218087D01*
X0273309Y0218087D02*
X0270163Y0218087D01*
X0270163Y0220301D02*
X0273309Y0220301D01*
X0273309Y0219252D02*
X0273309Y0221350D01*
X0269639Y0222515D02*
X0269639Y0224612D01*
X0270163Y0225777D02*
X0270163Y0226826D01*
X0270163Y0226302D02*
X0273309Y0226302D01*
X0273309Y0226826D02*
X0273309Y0225777D01*
X0273309Y0227953D02*
X0270163Y0230050D01*
X0273309Y0230050D01*
X0273309Y0231215D02*
X0273309Y0233312D01*
X0273309Y0232264D02*
X0270163Y0232264D01*
X0270163Y0227953D02*
X0273309Y0227953D01*
X0280006Y0220741D02*
X0280006Y0218339D01*
X0282408Y0220741D01*
X0283008Y0220741D01*
X0283609Y0220140D01*
X0290449Y0209691D02*
X0289848Y0209091D01*
X0289848Y0207890D01*
X0290449Y0207289D01*
X0292851Y0207289D01*
X0293451Y0207890D01*
X0293451Y0209091D01*
X0292851Y0209691D01*
X0273309Y0207289D02*
X0270163Y0207289D01*
X0270163Y0209387D01*
X0263924Y0209091D02*
X0263924Y0207890D01*
X0263323Y0207289D01*
X0260921Y0207289D01*
X0260321Y0207890D01*
X0260321Y0209091D01*
X0260921Y0209691D01*
X0262122Y0209691D01*
X0262122Y0208490D01*
X0263323Y0209691D02*
X0263924Y0209091D01*
X0263924Y0210972D02*
X0260321Y0213374D01*
X0263924Y0213374D01*
X0263924Y0214656D02*
X0263924Y0216457D01*
X0263323Y0217058D01*
X0260921Y0217058D01*
X0260321Y0216457D01*
X0260321Y0214656D01*
X0263924Y0214656D01*
X0263924Y0210972D02*
X0260321Y0210972D01*
X0254081Y0210972D02*
X0250478Y0213374D01*
X0254081Y0213374D01*
X0254081Y0214656D02*
X0250478Y0214656D01*
X0250478Y0216457D01*
X0251079Y0217058D01*
X0253481Y0217058D01*
X0254081Y0216457D01*
X0254081Y0214656D01*
X0254081Y0210972D02*
X0250478Y0210972D01*
X0251079Y0209691D02*
X0250478Y0209091D01*
X0250478Y0207890D01*
X0251079Y0207289D01*
X0253481Y0207289D01*
X0254081Y0207890D01*
X0254081Y0209091D01*
X0253481Y0209691D01*
X0252280Y0209691D02*
X0252280Y0208490D01*
X0252280Y0209691D02*
X0251079Y0209691D01*
X0250268Y0185339D02*
X0249667Y0184738D01*
X0249667Y0183537D01*
X0250268Y0182937D01*
X0252670Y0182937D01*
X0253270Y0183537D01*
X0253270Y0184738D01*
X0252670Y0185339D01*
X0253270Y0181656D02*
X0249667Y0181656D01*
X0253270Y0179254D01*
X0249667Y0179254D01*
X0259510Y0179254D02*
X0259510Y0181656D01*
X0259510Y0182937D02*
X0263113Y0182937D01*
X0263113Y0185339D01*
X0261311Y0184138D02*
X0261311Y0182937D01*
X0263113Y0181656D02*
X0263113Y0179254D01*
X0259510Y0179254D01*
X0259510Y0177973D02*
X0260711Y0176772D01*
X0260711Y0177372D02*
X0260711Y0175570D01*
X0259510Y0175570D02*
X0263113Y0175570D01*
X0263113Y0177372D01*
X0262512Y0177973D01*
X0261311Y0177973D01*
X0260711Y0177372D01*
X0261311Y0179254D02*
X0261311Y0180455D01*
X0260110Y0174289D02*
X0259510Y0173689D01*
X0259510Y0172488D01*
X0260110Y0171887D01*
X0262512Y0171887D01*
X0263113Y0172488D01*
X0263113Y0173689D01*
X0262512Y0174289D01*
X0260110Y0174289D01*
X0259510Y0170633D02*
X0259510Y0169432D01*
X0259510Y0170032D02*
X0263113Y0170032D01*
X0263113Y0169432D02*
X0263113Y0170633D01*
X0270336Y0175571D02*
X0273940Y0175571D01*
X0273940Y0177372D01*
X0273339Y0177973D01*
X0272138Y0177973D01*
X0271538Y0177372D01*
X0271538Y0175571D01*
X0271538Y0176772D02*
X0270336Y0177973D01*
X0270937Y0179254D02*
X0270336Y0179854D01*
X0270336Y0181055D01*
X0270937Y0181656D01*
X0271538Y0181656D01*
X0272138Y0181055D01*
X0272138Y0179854D01*
X0272739Y0179254D01*
X0273339Y0179254D01*
X0273940Y0179854D01*
X0273940Y0181055D01*
X0273339Y0181656D01*
X0273940Y0182937D02*
X0273940Y0185339D01*
X0273940Y0184138D02*
X0270336Y0184138D01*
X0274736Y0186420D02*
X0274736Y0175371D01*
X0279195Y0176171D02*
X0279795Y0175571D01*
X0279195Y0176171D02*
X0279195Y0177372D01*
X0279795Y0177973D01*
X0280396Y0177973D01*
X0280996Y0177372D01*
X0280996Y0176772D01*
X0280996Y0177372D02*
X0281597Y0177973D01*
X0282197Y0177973D01*
X0282798Y0177372D01*
X0282798Y0176171D01*
X0282197Y0175571D01*
X0282798Y0179254D02*
X0280396Y0179254D01*
X0279195Y0180455D01*
X0280396Y0181656D01*
X0282798Y0181656D01*
X0282197Y0182937D02*
X0282798Y0183537D01*
X0282798Y0184738D01*
X0282197Y0185339D01*
X0281597Y0185339D01*
X0280996Y0184738D01*
X0280396Y0185339D01*
X0279795Y0185339D01*
X0279195Y0184738D01*
X0279195Y0183537D01*
X0279795Y0182937D01*
X0280996Y0184138D02*
X0280996Y0184738D01*
X0290022Y0184138D02*
X0291223Y0185339D01*
X0293625Y0185339D01*
X0293625Y0182937D02*
X0291223Y0182937D01*
X0290022Y0184138D01*
X0290622Y0181656D02*
X0290022Y0181055D01*
X0290022Y0179854D01*
X0290622Y0179254D01*
X0291823Y0179254D02*
X0292424Y0180455D01*
X0292424Y0181055D01*
X0291823Y0181656D01*
X0290622Y0181656D01*
X0291823Y0179254D02*
X0293625Y0179254D01*
X0293625Y0181656D01*
X0299864Y0181656D02*
X0303467Y0181656D01*
X0303467Y0182937D02*
X0303467Y0184738D01*
X0302867Y0185339D01*
X0300465Y0185339D01*
X0299864Y0184738D01*
X0299864Y0182937D01*
X0303467Y0182937D01*
X0303467Y0179254D02*
X0299864Y0179254D01*
X0300465Y0177973D02*
X0299864Y0177372D01*
X0299864Y0176171D01*
X0300465Y0175571D01*
X0302867Y0175571D01*
X0303467Y0176171D01*
X0303467Y0177372D01*
X0302867Y0177973D01*
X0301666Y0177973D02*
X0301666Y0176772D01*
X0301666Y0177973D02*
X0300465Y0177973D01*
X0303467Y0179254D02*
X0299864Y0181656D01*
X0309707Y0181656D02*
X0313310Y0179254D01*
X0309707Y0179254D01*
X0310307Y0177973D02*
X0311508Y0177973D01*
X0311508Y0176772D01*
X0310307Y0177973D02*
X0309707Y0177372D01*
X0309707Y0176171D01*
X0310307Y0175571D01*
X0312709Y0175571D01*
X0313310Y0176171D01*
X0313310Y0177372D01*
X0312709Y0177973D01*
X0313310Y0181656D02*
X0309707Y0181656D01*
X0309707Y0182937D02*
X0309707Y0184738D01*
X0310307Y0185339D01*
X0312709Y0185339D01*
X0313310Y0184738D01*
X0313310Y0182937D01*
X0309707Y0182937D01*
X0319549Y0182937D02*
X0323152Y0182937D01*
X0319549Y0185339D01*
X0323152Y0185339D01*
X0323152Y0181682D02*
X0323152Y0180481D01*
X0323152Y0181082D02*
X0319549Y0181082D01*
X0319549Y0181682D02*
X0319549Y0180481D01*
X0320750Y0179200D02*
X0323152Y0179200D01*
X0323152Y0176798D02*
X0320750Y0176798D01*
X0319549Y0177999D01*
X0320750Y0179200D01*
X0339234Y0179254D02*
X0341636Y0179254D01*
X0342837Y0180455D01*
X0341636Y0181656D01*
X0339234Y0181656D01*
X0339835Y0182937D02*
X0342237Y0185339D01*
X0339835Y0185339D01*
X0339234Y0184738D01*
X0339234Y0183537D01*
X0339835Y0182937D01*
X0342237Y0182937D01*
X0342837Y0183537D01*
X0342837Y0184738D01*
X0342237Y0185339D01*
X0341036Y0181656D02*
X0341036Y0179254D01*
X0349234Y0179254D02*
X0351636Y0179254D01*
X0352837Y0180455D01*
X0351636Y0181656D01*
X0349234Y0181656D01*
X0349234Y0182937D02*
X0349234Y0185339D01*
X0349234Y0184138D02*
X0352837Y0184138D01*
X0351636Y0182937D01*
X0351036Y0181656D02*
X0351036Y0179254D01*
X0359234Y0179254D02*
X0361636Y0179254D01*
X0362837Y0180455D01*
X0361636Y0181656D01*
X0359234Y0181656D01*
X0359234Y0182937D02*
X0361636Y0185339D01*
X0362237Y0185339D01*
X0362837Y0184738D01*
X0362837Y0183537D01*
X0362237Y0182937D01*
X0361036Y0181656D02*
X0361036Y0179254D01*
X0361102Y0175947D02*
X0361102Y0174646D01*
X0361536Y0174212D01*
X0361970Y0174212D01*
X0362403Y0174646D01*
X0362403Y0175513D01*
X0361970Y0175947D01*
X0360235Y0175947D01*
X0359801Y0175513D01*
X0359801Y0174646D01*
X0360235Y0174212D01*
X0359801Y0173184D02*
X0359801Y0171450D01*
X0361536Y0173184D01*
X0361970Y0173184D01*
X0362403Y0172751D01*
X0362403Y0171883D01*
X0361970Y0171450D01*
X0361970Y0170422D02*
X0362403Y0169988D01*
X0362403Y0169121D01*
X0361970Y0168687D01*
X0360235Y0168687D01*
X0359801Y0169121D01*
X0359801Y0169988D01*
X0360235Y0170422D01*
X0359234Y0182937D02*
X0359234Y0185339D01*
X0367816Y0184835D02*
X0367816Y0184235D01*
X0368417Y0183634D01*
X0367816Y0183034D01*
X0367816Y0182433D01*
X0368417Y0181833D01*
X0369618Y0181833D01*
X0370218Y0182433D01*
X0371499Y0181833D02*
X0371499Y0184235D01*
X0372700Y0185436D01*
X0373901Y0184235D01*
X0373901Y0181833D01*
X0373901Y0183634D02*
X0371499Y0183634D01*
X0370218Y0184835D02*
X0369618Y0185436D01*
X0368417Y0185436D01*
X0367816Y0184835D01*
X0368417Y0183634D02*
X0369017Y0183634D01*
X0379234Y0184738D02*
X0382837Y0184738D01*
X0381036Y0182937D01*
X0381036Y0185339D01*
X0381036Y0181656D02*
X0381036Y0179254D01*
X0381636Y0179254D02*
X0382837Y0180455D01*
X0381636Y0181656D01*
X0379234Y0181656D01*
X0379234Y0179254D02*
X0381636Y0179254D01*
X0389234Y0179254D02*
X0391636Y0179254D01*
X0392837Y0180455D01*
X0391636Y0181656D01*
X0389234Y0181656D01*
X0389835Y0182937D02*
X0389234Y0183537D01*
X0389234Y0184738D01*
X0389835Y0185339D01*
X0391036Y0185339D01*
X0391636Y0184738D01*
X0391636Y0184138D01*
X0391036Y0182937D01*
X0392837Y0182937D01*
X0392837Y0185339D01*
X0391036Y0181656D02*
X0391036Y0179254D01*
X0382372Y0170454D02*
X0382372Y0168719D01*
X0381938Y0167692D02*
X0381504Y0167692D01*
X0381071Y0167258D01*
X0380637Y0167692D01*
X0380203Y0167692D01*
X0379770Y0167258D01*
X0379770Y0166391D01*
X0380203Y0165957D01*
X0379770Y0164930D02*
X0380637Y0164062D01*
X0380637Y0164496D02*
X0380637Y0163195D01*
X0379770Y0163195D02*
X0382372Y0163195D01*
X0382372Y0164496D01*
X0381938Y0164930D01*
X0381071Y0164930D01*
X0380637Y0164496D01*
X0381938Y0165957D02*
X0382372Y0166391D01*
X0382372Y0167258D01*
X0381938Y0167692D01*
X0381071Y0167258D02*
X0381071Y0166824D01*
X0380203Y0168719D02*
X0381938Y0170454D01*
X0382372Y0170454D01*
X0380203Y0168719D02*
X0379770Y0168719D01*
X0356702Y0136399D02*
X0356268Y0136399D01*
X0355834Y0135965D01*
X0355401Y0136399D01*
X0354967Y0136399D01*
X0354533Y0135965D01*
X0354533Y0135098D01*
X0354967Y0134664D01*
X0355834Y0135532D02*
X0355834Y0135965D01*
X0356702Y0136399D02*
X0357136Y0135965D01*
X0357136Y0135098D01*
X0356702Y0134664D01*
X0355834Y0133637D02*
X0355834Y0131902D01*
X0357136Y0133203D01*
X0354533Y0133203D01*
X0354967Y0130874D02*
X0354533Y0130441D01*
X0354533Y0129573D01*
X0354967Y0129140D01*
X0356702Y0129140D01*
X0357136Y0129573D01*
X0357136Y0130441D01*
X0356702Y0130874D01*
X0353806Y0206935D02*
X0350203Y0206935D01*
X0351404Y0206935D02*
X0351404Y0208736D01*
X0352004Y0209337D01*
X0353205Y0209337D01*
X0353806Y0208736D01*
X0353806Y0206935D01*
X0351404Y0208136D02*
X0350203Y0209337D01*
X0350203Y0210618D02*
X0353806Y0210618D01*
X0353806Y0213020D01*
X0353205Y0214301D02*
X0353806Y0214902D01*
X0353806Y0216103D01*
X0353205Y0216703D01*
X0352605Y0216703D01*
X0350203Y0214301D01*
X0350203Y0216703D01*
X0350803Y0217984D02*
X0350203Y0218585D01*
X0350203Y0219786D01*
X0350803Y0220386D01*
X0351404Y0220386D01*
X0352004Y0219786D01*
X0352004Y0219185D01*
X0352004Y0219786D02*
X0352605Y0220386D01*
X0353205Y0220386D01*
X0353806Y0219786D01*
X0353806Y0218585D01*
X0353205Y0217984D01*
X0353205Y0221667D02*
X0353806Y0222268D01*
X0353806Y0223469D01*
X0353205Y0224070D01*
X0352605Y0224070D01*
X0352004Y0223469D01*
X0351404Y0224070D01*
X0350803Y0224070D01*
X0350203Y0223469D01*
X0350203Y0222268D01*
X0350803Y0221667D01*
X0352004Y0222869D02*
X0352004Y0223469D01*
X0349602Y0225351D02*
X0349602Y0227753D01*
X0350203Y0229034D02*
X0350203Y0230235D01*
X0350203Y0229634D02*
X0353806Y0229634D01*
X0353806Y0229034D02*
X0353806Y0230235D01*
X0353806Y0231489D02*
X0353806Y0233291D01*
X0353205Y0233891D01*
X0352004Y0233891D01*
X0351404Y0233291D01*
X0351404Y0231489D01*
X0351404Y0232690D02*
X0350203Y0233891D01*
X0350803Y0235172D02*
X0350203Y0235773D01*
X0350203Y0236974D01*
X0350803Y0237574D01*
X0353205Y0237574D01*
X0353806Y0236974D01*
X0353806Y0235773D01*
X0353205Y0235172D01*
X0350803Y0235172D01*
X0351404Y0236373D02*
X0350203Y0237574D01*
X0350203Y0231489D02*
X0353806Y0231489D01*
X0360803Y0220386D02*
X0360203Y0219786D01*
X0360203Y0218585D01*
X0360803Y0217984D01*
X0360803Y0216703D02*
X0360203Y0216103D01*
X0360203Y0214902D01*
X0360803Y0214301D01*
X0362004Y0214902D02*
X0362004Y0216103D01*
X0361404Y0216703D01*
X0360803Y0216703D01*
X0362004Y0214902D02*
X0362605Y0214301D01*
X0363205Y0214301D01*
X0363806Y0214902D01*
X0363806Y0216103D01*
X0363205Y0216703D01*
X0363205Y0217984D02*
X0363806Y0218585D01*
X0363806Y0219786D01*
X0363205Y0220386D01*
X0362605Y0220386D01*
X0362004Y0219786D01*
X0361404Y0220386D01*
X0360803Y0220386D01*
X0362004Y0219786D02*
X0362004Y0219185D01*
X0363806Y0213020D02*
X0363806Y0210618D01*
X0363806Y0211819D02*
X0360203Y0211819D01*
X0360203Y0209337D02*
X0361404Y0208136D01*
X0361404Y0208736D02*
X0361404Y0206935D01*
X0360203Y0206935D02*
X0363806Y0206935D01*
X0363806Y0208736D01*
X0363205Y0209337D01*
X0362004Y0209337D01*
X0361404Y0208736D01*
X0370203Y0209337D02*
X0373806Y0209337D01*
X0373806Y0210618D02*
X0373806Y0212420D01*
X0373205Y0213020D01*
X0372004Y0213020D01*
X0371404Y0212420D01*
X0371404Y0210618D01*
X0371404Y0211819D02*
X0370203Y0213020D01*
X0370203Y0214301D02*
X0373806Y0214301D01*
X0373806Y0216703D01*
X0372004Y0215502D02*
X0372004Y0214301D01*
X0370203Y0210618D02*
X0373806Y0210618D01*
X0373806Y0206935D02*
X0370203Y0206935D01*
X0370203Y0209337D02*
X0373806Y0206935D01*
X0380203Y0206935D02*
X0383806Y0206935D01*
X0383806Y0208736D01*
X0383205Y0209337D01*
X0382004Y0209337D01*
X0381404Y0208736D01*
X0381404Y0206935D01*
X0381404Y0208136D02*
X0380203Y0209337D01*
X0380203Y0210618D02*
X0383806Y0210618D01*
X0383806Y0213020D01*
X0383205Y0214301D02*
X0383806Y0214902D01*
X0383806Y0216103D01*
X0383205Y0216703D01*
X0382605Y0216703D01*
X0380203Y0214301D01*
X0380203Y0216703D01*
X0380803Y0217984D02*
X0380203Y0218585D01*
X0380203Y0219786D01*
X0380803Y0220386D01*
X0381404Y0220386D01*
X0382004Y0219786D01*
X0382004Y0219185D01*
X0382004Y0219786D02*
X0382605Y0220386D01*
X0383205Y0220386D01*
X0383806Y0219786D01*
X0383806Y0218585D01*
X0383205Y0217984D01*
X0383205Y0221667D02*
X0383806Y0222268D01*
X0383806Y0223469D01*
X0383205Y0224070D01*
X0382605Y0224070D01*
X0382004Y0223469D01*
X0381404Y0224070D01*
X0380803Y0224070D01*
X0380203Y0223469D01*
X0380203Y0222268D01*
X0380803Y0221667D01*
X0382004Y0222869D02*
X0382004Y0223469D01*
X0379602Y0225351D02*
X0379602Y0227753D01*
X0380203Y0229034D02*
X0383806Y0229034D01*
X0383806Y0230835D01*
X0383205Y0231436D01*
X0382004Y0231436D01*
X0381404Y0230835D01*
X0381404Y0229034D01*
X0381404Y0230235D02*
X0380203Y0231436D01*
X0380803Y0232717D02*
X0380203Y0233317D01*
X0380203Y0234518D01*
X0380803Y0235119D01*
X0381404Y0235119D01*
X0382004Y0234518D01*
X0382004Y0233317D01*
X0382605Y0232717D01*
X0383205Y0232717D01*
X0383806Y0233317D01*
X0383806Y0234518D01*
X0383205Y0235119D01*
X0383806Y0236400D02*
X0383806Y0238802D01*
X0383806Y0237601D02*
X0380203Y0237601D01*
X0384603Y0239883D02*
X0384603Y0206735D01*
X0382004Y0210618D02*
X0382004Y0211819D01*
X0390203Y0210618D02*
X0393806Y0210618D01*
X0393806Y0213020D01*
X0393205Y0214301D02*
X0393806Y0214902D01*
X0393806Y0216103D01*
X0393205Y0216703D01*
X0392605Y0216703D01*
X0390203Y0214301D01*
X0390203Y0216703D01*
X0390803Y0217984D02*
X0390203Y0218585D01*
X0390203Y0219786D01*
X0390803Y0220386D01*
X0391404Y0220386D01*
X0392004Y0219786D01*
X0392004Y0219185D01*
X0392004Y0219786D02*
X0392605Y0220386D01*
X0393205Y0220386D01*
X0393806Y0219786D01*
X0393806Y0218585D01*
X0393205Y0217984D01*
X0393205Y0221667D02*
X0393806Y0222268D01*
X0393806Y0223469D01*
X0393205Y0224070D01*
X0392605Y0224070D01*
X0392004Y0223469D01*
X0391404Y0224070D01*
X0390803Y0224070D01*
X0390203Y0223469D01*
X0390203Y0222268D01*
X0390803Y0221667D01*
X0392004Y0222869D02*
X0392004Y0223469D01*
X0389602Y0225351D02*
X0389602Y0227753D01*
X0390803Y0229034D02*
X0390203Y0229634D01*
X0390203Y0230835D01*
X0390803Y0231436D01*
X0391404Y0231436D01*
X0392004Y0230835D01*
X0392004Y0229634D01*
X0392605Y0229034D01*
X0393205Y0229034D01*
X0393806Y0229634D01*
X0393806Y0230835D01*
X0393205Y0231436D01*
X0393806Y0232717D02*
X0390203Y0232717D01*
X0390203Y0235119D01*
X0390203Y0236400D02*
X0393806Y0236400D01*
X0393806Y0238202D01*
X0393205Y0238802D01*
X0392004Y0238802D01*
X0391404Y0238202D01*
X0391404Y0236400D01*
X0373806Y0236974D02*
X0373205Y0237574D01*
X0370803Y0237574D01*
X0370203Y0236974D01*
X0370203Y0235773D01*
X0370803Y0235172D01*
X0373205Y0235172D01*
X0373806Y0235773D01*
X0373806Y0236974D01*
X0373806Y0233918D02*
X0373806Y0232717D01*
X0373806Y0233317D02*
X0370203Y0233317D01*
X0370203Y0232717D02*
X0370203Y0233918D01*
X0370803Y0231436D02*
X0373205Y0231436D01*
X0373806Y0230835D01*
X0373806Y0229034D01*
X0370203Y0229034D01*
X0370203Y0230835D01*
X0370803Y0231436D01*
X0370203Y0227753D02*
X0373806Y0227753D01*
X0373806Y0225351D02*
X0370203Y0225351D01*
X0371404Y0226552D01*
X0370203Y0227753D01*
X0370803Y0224070D02*
X0370203Y0223469D01*
X0370203Y0222268D01*
X0370803Y0221667D01*
X0372004Y0222268D02*
X0372004Y0223469D01*
X0371404Y0224070D01*
X0370803Y0224070D01*
X0372004Y0222268D02*
X0372605Y0221667D01*
X0373205Y0221667D01*
X0373806Y0222268D01*
X0373806Y0223469D01*
X0373205Y0224070D01*
X0369602Y0220386D02*
X0369602Y0217984D01*
X0352004Y0211819D02*
X0352004Y0210618D01*
X0344632Y0211573D02*
X0344032Y0210972D01*
X0341630Y0210972D01*
X0341029Y0211573D01*
X0341029Y0212774D01*
X0341630Y0213374D01*
X0341630Y0214656D02*
X0341029Y0215256D01*
X0341029Y0216457D01*
X0341630Y0217058D01*
X0340429Y0218339D02*
X0340429Y0220741D01*
X0341029Y0222022D02*
X0341029Y0223223D01*
X0341029Y0222622D02*
X0344632Y0222622D01*
X0344632Y0222022D02*
X0344632Y0223223D01*
X0344632Y0224477D02*
X0341029Y0226879D01*
X0344632Y0226879D01*
X0344632Y0228160D02*
X0344632Y0230562D01*
X0344632Y0229361D02*
X0341029Y0229361D01*
X0341029Y0231844D02*
X0343431Y0234246D01*
X0344032Y0234246D01*
X0344632Y0233645D01*
X0344632Y0232444D01*
X0344032Y0231844D01*
X0341029Y0231844D02*
X0341029Y0234246D01*
X0341029Y0224477D02*
X0344632Y0224477D01*
X0344032Y0217058D02*
X0344632Y0216457D01*
X0344632Y0215256D01*
X0344032Y0214656D01*
X0341630Y0214656D01*
X0344032Y0213374D02*
X0344632Y0212774D01*
X0344632Y0211573D01*
X0343431Y0209691D02*
X0341029Y0209691D01*
X0342831Y0209691D02*
X0342831Y0207289D01*
X0343431Y0207289D02*
X0344632Y0208490D01*
X0343431Y0209691D01*
X0343431Y0207289D02*
X0341029Y0207289D01*
X0390203Y0206935D02*
X0393806Y0206935D01*
X0393806Y0208736D01*
X0393205Y0209337D01*
X0392004Y0209337D01*
X0391404Y0208736D01*
X0391404Y0206935D01*
X0391404Y0208136D02*
X0390203Y0209337D01*
X0392004Y0210618D02*
X0392004Y0211819D01*
X0187207Y0197045D02*
X0187207Y0195843D01*
X0186607Y0195243D01*
X0184205Y0195243D01*
X0183604Y0195843D01*
X0183604Y0197045D01*
X0184205Y0197645D01*
X0184205Y0198926D02*
X0183604Y0199527D01*
X0183604Y0201328D01*
X0186006Y0201328D01*
X0186006Y0202609D02*
X0186006Y0203810D01*
X0186607Y0203210D02*
X0184205Y0203210D01*
X0183604Y0203810D01*
X0184205Y0198926D02*
X0186006Y0198926D01*
X0186607Y0197645D02*
X0187207Y0197045D01*
X0186006Y0208748D02*
X0186006Y0209949D01*
X0186607Y0209348D02*
X0184205Y0209348D01*
X0183604Y0209949D01*
X0184205Y0211203D02*
X0183604Y0211804D01*
X0183604Y0213005D01*
X0184205Y0213605D01*
X0185406Y0213605D01*
X0186006Y0213005D01*
X0186006Y0211804D01*
X0185406Y0211203D01*
X0184205Y0211203D01*
X0183604Y0218570D02*
X0186006Y0218570D01*
X0186006Y0219170D01*
X0185406Y0219771D01*
X0186006Y0220371D01*
X0185406Y0220972D01*
X0183604Y0220972D01*
X0183604Y0219771D02*
X0185406Y0219771D01*
X0185406Y0222253D02*
X0186006Y0222853D01*
X0186006Y0224054D01*
X0185406Y0224655D01*
X0184805Y0224655D01*
X0184805Y0222253D01*
X0184205Y0222253D02*
X0185406Y0222253D01*
X0184205Y0222253D02*
X0183604Y0222853D01*
X0183604Y0224054D01*
X0184205Y0225936D02*
X0184805Y0226536D01*
X0184805Y0228338D01*
X0185406Y0228338D02*
X0183604Y0228338D01*
X0183604Y0226536D01*
X0184205Y0225936D01*
X0186006Y0226536D02*
X0186006Y0227737D01*
X0185406Y0228338D01*
X0185406Y0229619D02*
X0186006Y0230219D01*
X0186006Y0232021D01*
X0186006Y0233302D02*
X0184205Y0233302D01*
X0183604Y0233903D01*
X0183604Y0235704D01*
X0186006Y0235704D01*
X0186006Y0236985D02*
X0183604Y0236985D01*
X0184805Y0236985D02*
X0186006Y0238186D01*
X0186006Y0238787D01*
X0185406Y0240055D02*
X0186006Y0240655D01*
X0186006Y0241856D01*
X0185406Y0242457D01*
X0184805Y0242457D01*
X0184805Y0240055D01*
X0184205Y0240055D02*
X0185406Y0240055D01*
X0184205Y0240055D02*
X0183604Y0240655D01*
X0183604Y0241856D01*
X0183604Y0247421D02*
X0187207Y0247421D01*
X0187207Y0249222D01*
X0186607Y0249823D01*
X0185406Y0249823D01*
X0184805Y0249222D01*
X0184805Y0247421D01*
X0183604Y0251104D02*
X0184805Y0252305D01*
X0183604Y0253506D01*
X0187207Y0253506D01*
X0187207Y0254787D02*
X0187207Y0256589D01*
X0186607Y0257189D01*
X0185406Y0257189D01*
X0184805Y0256589D01*
X0184805Y0254787D01*
X0183604Y0254787D02*
X0187207Y0254787D01*
X0184805Y0255988D02*
X0183604Y0257189D01*
X0183604Y0251104D02*
X0187207Y0251104D01*
X0184205Y0232021D02*
X0184805Y0231421D01*
X0184805Y0230219D01*
X0185406Y0229619D01*
X0183604Y0229619D02*
X0183604Y0231421D01*
X0184205Y0232021D01*
X0135157Y0229923D02*
X0135157Y0227754D01*
X0134723Y0227321D01*
X0133856Y0227321D01*
X0133422Y0227754D01*
X0133422Y0229923D01*
X0132394Y0229056D02*
X0131527Y0229923D01*
X0131527Y0227321D01*
X0132394Y0227321D02*
X0130659Y0227321D01*
X0129632Y0227754D02*
X0129632Y0228622D01*
X0128331Y0228622D01*
X0127897Y0228188D01*
X0127897Y0227754D01*
X0128331Y0227321D01*
X0129198Y0227321D01*
X0129632Y0227754D01*
X0129632Y0228622D02*
X0128765Y0229489D01*
X0127897Y0229923D01*
X0132479Y0222108D02*
X0132045Y0221674D01*
X0132045Y0220807D01*
X0132479Y0220373D01*
X0132045Y0219346D02*
X0132045Y0217611D01*
X0132045Y0218478D02*
X0134647Y0218478D01*
X0133780Y0217611D01*
X0134647Y0216583D02*
X0132479Y0216583D01*
X0132045Y0216150D01*
X0132045Y0215282D01*
X0132479Y0214849D01*
X0134647Y0214849D01*
X0134214Y0220373D02*
X0134647Y0220807D01*
X0134647Y0221674D01*
X0134214Y0222108D01*
X0133780Y0222108D01*
X0133346Y0221674D01*
X0132913Y0222108D01*
X0132479Y0222108D01*
X0133346Y0221674D02*
X0133346Y0221241D01*
X0132165Y0207935D02*
X0132165Y0206200D01*
X0133466Y0207501D01*
X0130864Y0207501D01*
X0130864Y0205173D02*
X0130864Y0203438D01*
X0130864Y0204305D02*
X0133466Y0204305D01*
X0132599Y0203438D01*
X0133466Y0202410D02*
X0131298Y0202410D01*
X0130864Y0201976D01*
X0130864Y0201109D01*
X0131298Y0200675D01*
X0133466Y0200675D01*
X0133856Y0248187D02*
X0133422Y0248621D01*
X0133422Y0250789D01*
X0132394Y0249922D02*
X0131527Y0250789D01*
X0131527Y0248187D01*
X0132394Y0248187D02*
X0130659Y0248187D01*
X0129632Y0248621D02*
X0129198Y0248187D01*
X0128331Y0248187D01*
X0127897Y0248621D01*
X0127897Y0249488D01*
X0128331Y0249922D01*
X0128765Y0249922D01*
X0129632Y0249488D01*
X0129632Y0250789D01*
X0127897Y0250789D01*
X0133856Y0248187D02*
X0134723Y0248187D01*
X0135157Y0248621D01*
X0135157Y0250789D01*
X0118123Y0264999D02*
X0117689Y0264565D01*
X0116822Y0264565D01*
X0116388Y0264999D01*
X0116388Y0267167D01*
X0115360Y0267167D02*
X0113625Y0267167D01*
X0113625Y0266733D01*
X0115360Y0264999D01*
X0115360Y0264565D01*
X0118123Y0264999D02*
X0118123Y0267167D01*
X0101633Y0262206D02*
X0100332Y0262206D01*
X0099898Y0261773D01*
X0099898Y0260905D01*
X0100332Y0260472D01*
X0101633Y0260472D01*
X0100766Y0260472D02*
X0099898Y0259604D01*
X0098871Y0259604D02*
X0097136Y0261339D01*
X0097136Y0261773D01*
X0097570Y0262206D01*
X0098437Y0262206D01*
X0098871Y0261773D01*
X0098871Y0259604D02*
X0097136Y0259604D01*
X0096108Y0260038D02*
X0095675Y0259604D01*
X0094807Y0259604D01*
X0094373Y0260038D01*
X0094373Y0260472D01*
X0094807Y0260905D01*
X0095241Y0260905D01*
X0094807Y0260905D02*
X0094373Y0261339D01*
X0094373Y0261773D01*
X0094807Y0262206D01*
X0095675Y0262206D01*
X0096108Y0261773D01*
X0101633Y0262206D02*
X0101633Y0259604D01*
X0081302Y0262137D02*
X0081302Y0263939D01*
X0080701Y0264539D01*
X0078299Y0264539D01*
X0077699Y0263939D01*
X0077699Y0262137D01*
X0081302Y0262137D01*
X0081302Y0265820D02*
X0077699Y0265820D01*
X0077699Y0267622D01*
X0078299Y0268222D01*
X0078900Y0268222D01*
X0079500Y0267622D01*
X0079500Y0265820D01*
X0081302Y0265820D02*
X0081302Y0267622D01*
X0080701Y0268222D01*
X0080101Y0268222D01*
X0079500Y0267622D01*
X0078299Y0269503D02*
X0077699Y0270104D01*
X0077699Y0271305D01*
X0078299Y0271905D01*
X0079500Y0271905D01*
X0079500Y0270704D01*
X0080701Y0269503D02*
X0078299Y0269503D01*
X0080701Y0269503D02*
X0081302Y0270104D01*
X0081302Y0271305D01*
X0080701Y0271905D01*
X0077098Y0273187D02*
X0077098Y0275589D01*
X0078299Y0276870D02*
X0077699Y0277470D01*
X0077699Y0278671D01*
X0078299Y0279272D01*
X0081302Y0279272D01*
X0080701Y0280553D02*
X0080101Y0280553D01*
X0079500Y0281153D01*
X0079500Y0282354D01*
X0078900Y0282955D01*
X0078299Y0282955D01*
X0077699Y0282354D01*
X0077699Y0281153D01*
X0078299Y0280553D01*
X0080701Y0280553D02*
X0081302Y0281153D01*
X0081302Y0282354D01*
X0080701Y0282955D01*
X0081302Y0284236D02*
X0081302Y0286038D01*
X0080701Y0286638D01*
X0080101Y0286638D01*
X0079500Y0286038D01*
X0079500Y0284236D01*
X0077699Y0284236D02*
X0077699Y0286038D01*
X0078299Y0286638D01*
X0078900Y0286638D01*
X0079500Y0286038D01*
X0077699Y0284236D02*
X0081302Y0284236D01*
X0081302Y0276870D02*
X0078299Y0276870D01*
X0095318Y0291927D02*
X0097053Y0291927D01*
X0095318Y0293662D01*
X0095318Y0294096D01*
X0095752Y0294529D01*
X0096619Y0294529D01*
X0097053Y0294096D01*
X0098081Y0294096D02*
X0098514Y0294529D01*
X0099382Y0294529D01*
X0099816Y0294096D01*
X0100843Y0294096D02*
X0100843Y0293228D01*
X0101277Y0292794D01*
X0102578Y0292794D01*
X0102578Y0291927D02*
X0102578Y0294529D01*
X0101277Y0294529D01*
X0100843Y0294096D01*
X0101710Y0292794D02*
X0100843Y0291927D01*
X0099816Y0291927D02*
X0098081Y0293662D01*
X0098081Y0294096D01*
X0098081Y0291927D02*
X0099816Y0291927D01*
X0080961Y0239966D02*
X0080361Y0239966D01*
X0079760Y0239365D01*
X0079760Y0237564D01*
X0079160Y0236282D02*
X0078559Y0236282D01*
X0077959Y0235682D01*
X0077959Y0234481D01*
X0078559Y0233880D01*
X0078559Y0232599D02*
X0081562Y0232599D01*
X0080961Y0233880D02*
X0080361Y0233880D01*
X0079760Y0234481D01*
X0079760Y0235682D01*
X0079160Y0236282D01*
X0077959Y0237564D02*
X0077959Y0239365D01*
X0078559Y0239966D01*
X0079160Y0239966D01*
X0079760Y0239365D01*
X0080961Y0239966D02*
X0081562Y0239365D01*
X0081562Y0237564D01*
X0077959Y0237564D01*
X0080961Y0236282D02*
X0081562Y0235682D01*
X0081562Y0234481D01*
X0080961Y0233880D01*
X0078559Y0232599D02*
X0077959Y0231999D01*
X0077959Y0230798D01*
X0078559Y0230197D01*
X0081562Y0230197D01*
X0077358Y0228916D02*
X0077358Y0226514D01*
X0077959Y0224032D02*
X0081562Y0224032D01*
X0081562Y0222831D02*
X0081562Y0225233D01*
X0081562Y0221550D02*
X0081562Y0219148D01*
X0077959Y0219148D01*
X0077959Y0221550D01*
X0079760Y0220349D02*
X0079760Y0219148D01*
X0079760Y0217867D02*
X0079760Y0216666D01*
X0079760Y0217867D02*
X0078559Y0217867D01*
X0077959Y0217266D01*
X0077959Y0216065D01*
X0078559Y0215465D01*
X0080961Y0215465D01*
X0081562Y0216065D01*
X0081562Y0217266D01*
X0080961Y0217867D01*
X0080961Y0214184D02*
X0079760Y0214184D01*
X0079160Y0213583D01*
X0079160Y0211782D01*
X0079160Y0212983D02*
X0077959Y0214184D01*
X0077959Y0211782D02*
X0081562Y0211782D01*
X0081562Y0213583D01*
X0080961Y0214184D01*
X0080361Y0210500D02*
X0077959Y0210500D01*
X0079760Y0210500D02*
X0079760Y0208098D01*
X0080361Y0208098D02*
X0081562Y0209299D01*
X0080361Y0210500D01*
X0080361Y0208098D02*
X0077959Y0208098D01*
X0077959Y0205616D02*
X0081562Y0205616D01*
X0081562Y0204415D02*
X0081562Y0206817D01*
D12*
X0100790Y0174806D02*
X0112601Y0174806D01*
X0107089Y0385829D02*
X0107089Y0397640D01*
X0101577Y0392129D02*
X0113388Y0392129D01*
D13*
X0121981Y0244841D02*
X0121531Y0244391D01*
X0121531Y0243490D01*
X0121981Y0243040D01*
X0123782Y0244841D01*
X0121981Y0244841D01*
X0121981Y0243040D02*
X0123782Y0243040D01*
X0124233Y0243490D01*
X0124233Y0244391D01*
X0123782Y0244841D01*
X0123782Y0242079D02*
X0123332Y0242079D01*
X0122882Y0241628D01*
X0122431Y0242079D01*
X0121981Y0242079D01*
X0121531Y0241628D01*
X0121531Y0240728D01*
X0121981Y0240277D01*
X0121981Y0239316D02*
X0121531Y0238866D01*
X0121531Y0237965D01*
X0121981Y0237515D01*
X0123782Y0237515D01*
X0124233Y0237965D01*
X0124233Y0238866D01*
X0123782Y0239316D01*
X0123782Y0240277D02*
X0124233Y0240728D01*
X0124233Y0241628D01*
X0123782Y0242079D01*
X0122882Y0241628D02*
X0122882Y0241178D01*
X0194672Y0235001D02*
X0197375Y0235001D01*
X0196023Y0233650D01*
X0196023Y0235452D01*
X0196023Y0232689D02*
X0195573Y0232239D01*
X0195573Y0230888D01*
X0195573Y0231789D02*
X0194672Y0232689D01*
X0196023Y0232689D02*
X0196924Y0232689D01*
X0197375Y0232239D01*
X0197375Y0230888D01*
X0194672Y0230888D01*
X0216326Y0230494D02*
X0219028Y0230494D01*
X0219028Y0231845D01*
X0218578Y0232296D01*
X0217677Y0232296D01*
X0217227Y0231845D01*
X0217227Y0230494D01*
X0217227Y0231395D02*
X0216326Y0232296D01*
X0216776Y0233256D02*
X0216326Y0233707D01*
X0216326Y0234608D01*
X0216776Y0235058D01*
X0217227Y0235058D01*
X0217677Y0234608D01*
X0217677Y0233256D01*
X0216776Y0233256D01*
X0217677Y0233256D02*
X0218578Y0234157D01*
X0219028Y0235058D01*
X0297639Y0303103D02*
X0300186Y0303103D01*
X0300186Y0302467D01*
X0299550Y0301830D01*
X0298913Y0301830D01*
X0297639Y0303103D01*
X0297639Y0303740D01*
X0298276Y0304377D01*
X0298913Y0304377D01*
X0300186Y0303103D01*
X0300866Y0303783D02*
X0301503Y0303783D01*
X0302140Y0304420D01*
X0302140Y0305057D01*
X0301503Y0305694D02*
X0300547Y0305375D01*
X0300229Y0305057D01*
X0300229Y0304420D01*
X0300866Y0303783D01*
X0301503Y0305694D02*
X0300547Y0306649D01*
X0299273Y0305375D01*
X0301545Y0307010D02*
X0301545Y0307647D01*
X0302182Y0308284D01*
X0302819Y0308284D01*
X0304093Y0307010D01*
X0304093Y0306373D01*
X0303456Y0305736D01*
X0302819Y0305736D01*
X0399877Y0400957D02*
X0399877Y0401858D01*
X0400327Y0402308D01*
X0402579Y0402308D01*
X0401679Y0403269D02*
X0402579Y0404170D01*
X0399877Y0404170D01*
X0399877Y0403269D02*
X0399877Y0405071D01*
X0399877Y0406032D02*
X0401679Y0407833D01*
X0402129Y0407833D01*
X0402579Y0407383D01*
X0402579Y0406482D01*
X0402129Y0406032D01*
X0399877Y0406032D02*
X0399877Y0407833D01*
X0402969Y0411601D02*
X0402969Y0412052D01*
X0401168Y0413853D01*
X0401168Y0414304D01*
X0402969Y0414304D01*
X0404381Y0414304D02*
X0405732Y0412953D01*
X0403930Y0412953D01*
X0404381Y0414304D02*
X0404381Y0411601D01*
X0406692Y0412052D02*
X0407143Y0411601D01*
X0408044Y0411601D01*
X0408494Y0412052D01*
X0408494Y0413853D01*
X0408044Y0414304D01*
X0407143Y0414304D01*
X0406692Y0413853D01*
X0398389Y0427082D02*
X0396587Y0427082D01*
X0396137Y0427532D01*
X0396137Y0428433D01*
X0396587Y0428883D01*
X0397488Y0429844D02*
X0397488Y0431646D01*
X0397038Y0432606D02*
X0397488Y0433057D01*
X0397488Y0433958D01*
X0397038Y0434408D01*
X0396587Y0434408D01*
X0396137Y0433958D01*
X0396137Y0433057D01*
X0396587Y0432606D01*
X0397038Y0432606D01*
X0397488Y0433057D02*
X0397938Y0432606D01*
X0398389Y0432606D01*
X0398839Y0433057D01*
X0398839Y0433958D01*
X0398389Y0434408D01*
X0397938Y0434408D01*
X0397488Y0433958D01*
X0396137Y0431195D02*
X0398839Y0431195D01*
X0397488Y0429844D01*
X0398389Y0428883D02*
X0398839Y0428433D01*
X0398839Y0427532D01*
X0398389Y0427082D01*
X0397572Y0437515D02*
X0397121Y0437965D01*
X0397121Y0438866D01*
X0397572Y0439316D01*
X0399823Y0439316D01*
X0398472Y0440277D02*
X0399823Y0441628D01*
X0397121Y0441628D01*
X0398472Y0442079D02*
X0398472Y0440277D01*
X0397572Y0437515D02*
X0399823Y0437515D01*
X0376932Y0462712D02*
X0375131Y0462712D01*
X0374680Y0463162D01*
X0374680Y0464063D01*
X0375131Y0464513D01*
X0376031Y0465474D02*
X0376031Y0467276D01*
X0376031Y0468236D02*
X0376031Y0469588D01*
X0375581Y0470038D01*
X0375131Y0470038D01*
X0374680Y0469588D01*
X0374680Y0468687D01*
X0375131Y0468236D01*
X0376031Y0468236D01*
X0376932Y0469137D01*
X0377382Y0470038D01*
X0376538Y0472160D02*
X0374737Y0472160D01*
X0374286Y0472611D01*
X0374286Y0473512D01*
X0374737Y0473962D01*
X0375638Y0474923D02*
X0375638Y0476724D01*
X0375638Y0477685D02*
X0376088Y0478586D01*
X0376088Y0479036D01*
X0375638Y0479487D01*
X0374737Y0479487D01*
X0374286Y0479036D01*
X0374286Y0478136D01*
X0374737Y0477685D01*
X0375638Y0477685D02*
X0376989Y0477685D01*
X0376989Y0479487D01*
X0376989Y0476274D02*
X0375638Y0474923D01*
X0376538Y0473962D02*
X0376989Y0473512D01*
X0376989Y0472611D01*
X0376538Y0472160D01*
X0376989Y0476274D02*
X0374286Y0476274D01*
X0374680Y0466825D02*
X0377382Y0466825D01*
X0376031Y0465474D01*
X0376932Y0464513D02*
X0377382Y0464063D01*
X0377382Y0463162D01*
X0376932Y0462712D01*
X0362729Y0433089D02*
X0362279Y0433089D01*
X0360477Y0431288D01*
X0360027Y0431288D01*
X0360477Y0430327D02*
X0360027Y0429877D01*
X0360027Y0428976D01*
X0360477Y0428526D01*
X0362279Y0428526D01*
X0362729Y0428976D01*
X0362729Y0429877D01*
X0362279Y0430327D01*
X0362729Y0431288D02*
X0362729Y0433089D01*
X0399877Y0400957D02*
X0400327Y0400507D01*
X0402579Y0400507D01*
X0078908Y0164472D02*
X0076973Y0164472D01*
X0077940Y0163021D02*
X0078908Y0163021D01*
X0078908Y0161570D02*
X0078908Y0164472D01*
X0075961Y0163021D02*
X0074026Y0163021D01*
X0074510Y0161570D02*
X0074510Y0164472D01*
X0075961Y0163021D01*
D14*
X0194293Y0163782D02*
X0194295Y0163935D01*
X0194301Y0164089D01*
X0194311Y0164242D01*
X0194325Y0164394D01*
X0194343Y0164547D01*
X0194365Y0164698D01*
X0194390Y0164849D01*
X0194420Y0165000D01*
X0194454Y0165150D01*
X0194491Y0165298D01*
X0194532Y0165446D01*
X0194577Y0165592D01*
X0194626Y0165738D01*
X0194679Y0165882D01*
X0194735Y0166024D01*
X0194795Y0166165D01*
X0194859Y0166305D01*
X0194926Y0166443D01*
X0194997Y0166579D01*
X0195072Y0166713D01*
X0195149Y0166845D01*
X0195231Y0166975D01*
X0195315Y0167103D01*
X0195403Y0167229D01*
X0195494Y0167352D01*
X0195588Y0167473D01*
X0195686Y0167591D01*
X0195786Y0167707D01*
X0195890Y0167820D01*
X0195996Y0167931D01*
X0196105Y0168039D01*
X0196217Y0168144D01*
X0196331Y0168245D01*
X0196449Y0168344D01*
X0196568Y0168440D01*
X0196690Y0168533D01*
X0196815Y0168622D01*
X0196942Y0168709D01*
X0197071Y0168791D01*
X0197202Y0168871D01*
X0197335Y0168947D01*
X0197470Y0169020D01*
X0197607Y0169089D01*
X0197746Y0169154D01*
X0197886Y0169216D01*
X0198028Y0169274D01*
X0198171Y0169329D01*
X0198316Y0169380D01*
X0198462Y0169427D01*
X0198609Y0169470D01*
X0198757Y0169509D01*
X0198906Y0169545D01*
X0199056Y0169576D01*
X0199207Y0169604D01*
X0199358Y0169628D01*
X0199511Y0169648D01*
X0199663Y0169664D01*
X0199816Y0169676D01*
X0199969Y0169684D01*
X0200122Y0169688D01*
X0200276Y0169688D01*
X0200429Y0169684D01*
X0200582Y0169676D01*
X0200735Y0169664D01*
X0200887Y0169648D01*
X0201040Y0169628D01*
X0201191Y0169604D01*
X0201342Y0169576D01*
X0201492Y0169545D01*
X0201641Y0169509D01*
X0201789Y0169470D01*
X0201936Y0169427D01*
X0202082Y0169380D01*
X0202227Y0169329D01*
X0202370Y0169274D01*
X0202512Y0169216D01*
X0202652Y0169154D01*
X0202791Y0169089D01*
X0202928Y0169020D01*
X0203063Y0168947D01*
X0203196Y0168871D01*
X0203327Y0168791D01*
X0203456Y0168709D01*
X0203583Y0168622D01*
X0203708Y0168533D01*
X0203830Y0168440D01*
X0203949Y0168344D01*
X0204067Y0168245D01*
X0204181Y0168144D01*
X0204293Y0168039D01*
X0204402Y0167931D01*
X0204508Y0167820D01*
X0204612Y0167707D01*
X0204712Y0167591D01*
X0204810Y0167473D01*
X0204904Y0167352D01*
X0204995Y0167229D01*
X0205083Y0167103D01*
X0205167Y0166975D01*
X0205249Y0166845D01*
X0205326Y0166713D01*
X0205401Y0166579D01*
X0205472Y0166443D01*
X0205539Y0166305D01*
X0205603Y0166165D01*
X0205663Y0166024D01*
X0205719Y0165882D01*
X0205772Y0165738D01*
X0205821Y0165592D01*
X0205866Y0165446D01*
X0205907Y0165298D01*
X0205944Y0165150D01*
X0205978Y0165000D01*
X0206008Y0164849D01*
X0206033Y0164698D01*
X0206055Y0164547D01*
X0206073Y0164394D01*
X0206087Y0164242D01*
X0206097Y0164089D01*
X0206103Y0163935D01*
X0206105Y0163782D01*
X0206103Y0163629D01*
X0206097Y0163475D01*
X0206087Y0163322D01*
X0206073Y0163170D01*
X0206055Y0163017D01*
X0206033Y0162866D01*
X0206008Y0162715D01*
X0205978Y0162564D01*
X0205944Y0162414D01*
X0205907Y0162266D01*
X0205866Y0162118D01*
X0205821Y0161972D01*
X0205772Y0161826D01*
X0205719Y0161682D01*
X0205663Y0161540D01*
X0205603Y0161399D01*
X0205539Y0161259D01*
X0205472Y0161121D01*
X0205401Y0160985D01*
X0205326Y0160851D01*
X0205249Y0160719D01*
X0205167Y0160589D01*
X0205083Y0160461D01*
X0204995Y0160335D01*
X0204904Y0160212D01*
X0204810Y0160091D01*
X0204712Y0159973D01*
X0204612Y0159857D01*
X0204508Y0159744D01*
X0204402Y0159633D01*
X0204293Y0159525D01*
X0204181Y0159420D01*
X0204067Y0159319D01*
X0203949Y0159220D01*
X0203830Y0159124D01*
X0203708Y0159031D01*
X0203583Y0158942D01*
X0203456Y0158855D01*
X0203327Y0158773D01*
X0203196Y0158693D01*
X0203063Y0158617D01*
X0202928Y0158544D01*
X0202791Y0158475D01*
X0202652Y0158410D01*
X0202512Y0158348D01*
X0202370Y0158290D01*
X0202227Y0158235D01*
X0202082Y0158184D01*
X0201936Y0158137D01*
X0201789Y0158094D01*
X0201641Y0158055D01*
X0201492Y0158019D01*
X0201342Y0157988D01*
X0201191Y0157960D01*
X0201040Y0157936D01*
X0200887Y0157916D01*
X0200735Y0157900D01*
X0200582Y0157888D01*
X0200429Y0157880D01*
X0200276Y0157876D01*
X0200122Y0157876D01*
X0199969Y0157880D01*
X0199816Y0157888D01*
X0199663Y0157900D01*
X0199511Y0157916D01*
X0199358Y0157936D01*
X0199207Y0157960D01*
X0199056Y0157988D01*
X0198906Y0158019D01*
X0198757Y0158055D01*
X0198609Y0158094D01*
X0198462Y0158137D01*
X0198316Y0158184D01*
X0198171Y0158235D01*
X0198028Y0158290D01*
X0197886Y0158348D01*
X0197746Y0158410D01*
X0197607Y0158475D01*
X0197470Y0158544D01*
X0197335Y0158617D01*
X0197202Y0158693D01*
X0197071Y0158773D01*
X0196942Y0158855D01*
X0196815Y0158942D01*
X0196690Y0159031D01*
X0196568Y0159124D01*
X0196449Y0159220D01*
X0196331Y0159319D01*
X0196217Y0159420D01*
X0196105Y0159525D01*
X0195996Y0159633D01*
X0195890Y0159744D01*
X0195786Y0159857D01*
X0195686Y0159973D01*
X0195588Y0160091D01*
X0195494Y0160212D01*
X0195403Y0160335D01*
X0195315Y0160461D01*
X0195231Y0160589D01*
X0195149Y0160719D01*
X0195072Y0160851D01*
X0194997Y0160985D01*
X0194926Y0161121D01*
X0194859Y0161259D01*
X0194795Y0161399D01*
X0194735Y0161540D01*
X0194679Y0161682D01*
X0194626Y0161826D01*
X0194577Y0161972D01*
X0194532Y0162118D01*
X0194491Y0162266D01*
X0194454Y0162414D01*
X0194420Y0162564D01*
X0194390Y0162715D01*
X0194365Y0162866D01*
X0194343Y0163017D01*
X0194325Y0163170D01*
X0194311Y0163322D01*
X0194301Y0163475D01*
X0194295Y0163629D01*
X0194293Y0163782D01*
X0228832Y0158703D02*
X0228834Y0158840D01*
X0228840Y0158976D01*
X0228850Y0159112D01*
X0228864Y0159248D01*
X0228882Y0159384D01*
X0228904Y0159519D01*
X0228929Y0159653D01*
X0228959Y0159786D01*
X0228993Y0159918D01*
X0229030Y0160050D01*
X0229071Y0160180D01*
X0229117Y0160309D01*
X0229165Y0160437D01*
X0229218Y0160563D01*
X0229274Y0160687D01*
X0229334Y0160810D01*
X0229397Y0160931D01*
X0229464Y0161050D01*
X0229534Y0161167D01*
X0229608Y0161283D01*
X0229685Y0161395D01*
X0229765Y0161506D01*
X0229849Y0161614D01*
X0229936Y0161720D01*
X0230025Y0161823D01*
X0230118Y0161923D01*
X0230213Y0162021D01*
X0230312Y0162116D01*
X0230413Y0162208D01*
X0230517Y0162296D01*
X0230623Y0162382D01*
X0230732Y0162465D01*
X0230843Y0162544D01*
X0230956Y0162621D01*
X0231072Y0162694D01*
X0231189Y0162763D01*
X0231309Y0162829D01*
X0231430Y0162891D01*
X0231554Y0162950D01*
X0231679Y0163006D01*
X0231805Y0163057D01*
X0231933Y0163105D01*
X0232062Y0163149D01*
X0232193Y0163190D01*
X0232325Y0163226D01*
X0232457Y0163259D01*
X0232591Y0163287D01*
X0232725Y0163312D01*
X0232860Y0163333D01*
X0232996Y0163350D01*
X0233132Y0163363D01*
X0233268Y0163372D01*
X0233405Y0163377D01*
X0233541Y0163378D01*
X0233678Y0163375D01*
X0233814Y0163368D01*
X0233950Y0163357D01*
X0234086Y0163342D01*
X0234221Y0163323D01*
X0234356Y0163300D01*
X0234490Y0163273D01*
X0234623Y0163243D01*
X0234755Y0163208D01*
X0234887Y0163170D01*
X0235016Y0163128D01*
X0235145Y0163082D01*
X0235272Y0163032D01*
X0235398Y0162978D01*
X0235522Y0162921D01*
X0235645Y0162861D01*
X0235765Y0162796D01*
X0235884Y0162729D01*
X0236000Y0162658D01*
X0236115Y0162583D01*
X0236227Y0162505D01*
X0236337Y0162424D01*
X0236445Y0162340D01*
X0236550Y0162252D01*
X0236652Y0162162D01*
X0236752Y0162069D01*
X0236849Y0161972D01*
X0236943Y0161873D01*
X0237034Y0161772D01*
X0237122Y0161667D01*
X0237207Y0161560D01*
X0237289Y0161451D01*
X0237368Y0161339D01*
X0237443Y0161225D01*
X0237515Y0161109D01*
X0237584Y0160991D01*
X0237649Y0160871D01*
X0237711Y0160749D01*
X0237769Y0160625D01*
X0237823Y0160500D01*
X0237874Y0160373D01*
X0237920Y0160245D01*
X0237964Y0160115D01*
X0238003Y0159984D01*
X0238039Y0159852D01*
X0238070Y0159719D01*
X0238098Y0159586D01*
X0238122Y0159451D01*
X0238142Y0159316D01*
X0238158Y0159180D01*
X0238170Y0159044D01*
X0238178Y0158908D01*
X0238182Y0158771D01*
X0238182Y0158635D01*
X0238178Y0158498D01*
X0238170Y0158362D01*
X0238158Y0158226D01*
X0238142Y0158090D01*
X0238122Y0157955D01*
X0238098Y0157820D01*
X0238070Y0157687D01*
X0238039Y0157554D01*
X0238003Y0157422D01*
X0237964Y0157291D01*
X0237920Y0157161D01*
X0237874Y0157033D01*
X0237823Y0156906D01*
X0237769Y0156781D01*
X0237711Y0156657D01*
X0237649Y0156535D01*
X0237584Y0156415D01*
X0237515Y0156297D01*
X0237443Y0156181D01*
X0237368Y0156067D01*
X0237289Y0155955D01*
X0237207Y0155846D01*
X0237122Y0155739D01*
X0237034Y0155634D01*
X0236943Y0155533D01*
X0236849Y0155434D01*
X0236752Y0155337D01*
X0236652Y0155244D01*
X0236550Y0155154D01*
X0236445Y0155066D01*
X0236337Y0154982D01*
X0236227Y0154901D01*
X0236115Y0154823D01*
X0236000Y0154748D01*
X0235884Y0154677D01*
X0235765Y0154610D01*
X0235645Y0154545D01*
X0235522Y0154485D01*
X0235398Y0154428D01*
X0235272Y0154374D01*
X0235145Y0154324D01*
X0235016Y0154278D01*
X0234887Y0154236D01*
X0234755Y0154198D01*
X0234623Y0154163D01*
X0234490Y0154133D01*
X0234356Y0154106D01*
X0234221Y0154083D01*
X0234086Y0154064D01*
X0233950Y0154049D01*
X0233814Y0154038D01*
X0233678Y0154031D01*
X0233541Y0154028D01*
X0233405Y0154029D01*
X0233268Y0154034D01*
X0233132Y0154043D01*
X0232996Y0154056D01*
X0232860Y0154073D01*
X0232725Y0154094D01*
X0232591Y0154119D01*
X0232457Y0154147D01*
X0232325Y0154180D01*
X0232193Y0154216D01*
X0232062Y0154257D01*
X0231933Y0154301D01*
X0231805Y0154349D01*
X0231679Y0154400D01*
X0231554Y0154456D01*
X0231430Y0154515D01*
X0231309Y0154577D01*
X0231189Y0154643D01*
X0231072Y0154712D01*
X0230956Y0154785D01*
X0230843Y0154862D01*
X0230732Y0154941D01*
X0230623Y0155024D01*
X0230517Y0155110D01*
X0230413Y0155198D01*
X0230312Y0155290D01*
X0230213Y0155385D01*
X0230118Y0155483D01*
X0230025Y0155583D01*
X0229936Y0155686D01*
X0229849Y0155792D01*
X0229765Y0155900D01*
X0229685Y0156011D01*
X0229608Y0156123D01*
X0229534Y0156239D01*
X0229464Y0156356D01*
X0229397Y0156475D01*
X0229334Y0156596D01*
X0229274Y0156719D01*
X0229218Y0156843D01*
X0229165Y0156969D01*
X0229117Y0157097D01*
X0229071Y0157226D01*
X0229030Y0157356D01*
X0228993Y0157488D01*
X0228959Y0157620D01*
X0228929Y0157753D01*
X0228904Y0157887D01*
X0228882Y0158022D01*
X0228864Y0158158D01*
X0228850Y0158294D01*
X0228840Y0158430D01*
X0228834Y0158566D01*
X0228832Y0158703D01*
X0228832Y0171203D02*
X0228834Y0171340D01*
X0228840Y0171476D01*
X0228850Y0171612D01*
X0228864Y0171748D01*
X0228882Y0171884D01*
X0228904Y0172019D01*
X0228929Y0172153D01*
X0228959Y0172286D01*
X0228993Y0172418D01*
X0229030Y0172550D01*
X0229071Y0172680D01*
X0229117Y0172809D01*
X0229165Y0172937D01*
X0229218Y0173063D01*
X0229274Y0173187D01*
X0229334Y0173310D01*
X0229397Y0173431D01*
X0229464Y0173550D01*
X0229534Y0173667D01*
X0229608Y0173783D01*
X0229685Y0173895D01*
X0229765Y0174006D01*
X0229849Y0174114D01*
X0229936Y0174220D01*
X0230025Y0174323D01*
X0230118Y0174423D01*
X0230213Y0174521D01*
X0230312Y0174616D01*
X0230413Y0174708D01*
X0230517Y0174796D01*
X0230623Y0174882D01*
X0230732Y0174965D01*
X0230843Y0175044D01*
X0230956Y0175121D01*
X0231072Y0175194D01*
X0231189Y0175263D01*
X0231309Y0175329D01*
X0231430Y0175391D01*
X0231554Y0175450D01*
X0231679Y0175506D01*
X0231805Y0175557D01*
X0231933Y0175605D01*
X0232062Y0175649D01*
X0232193Y0175690D01*
X0232325Y0175726D01*
X0232457Y0175759D01*
X0232591Y0175787D01*
X0232725Y0175812D01*
X0232860Y0175833D01*
X0232996Y0175850D01*
X0233132Y0175863D01*
X0233268Y0175872D01*
X0233405Y0175877D01*
X0233541Y0175878D01*
X0233678Y0175875D01*
X0233814Y0175868D01*
X0233950Y0175857D01*
X0234086Y0175842D01*
X0234221Y0175823D01*
X0234356Y0175800D01*
X0234490Y0175773D01*
X0234623Y0175743D01*
X0234755Y0175708D01*
X0234887Y0175670D01*
X0235016Y0175628D01*
X0235145Y0175582D01*
X0235272Y0175532D01*
X0235398Y0175478D01*
X0235522Y0175421D01*
X0235645Y0175361D01*
X0235765Y0175296D01*
X0235884Y0175229D01*
X0236000Y0175158D01*
X0236115Y0175083D01*
X0236227Y0175005D01*
X0236337Y0174924D01*
X0236445Y0174840D01*
X0236550Y0174752D01*
X0236652Y0174662D01*
X0236752Y0174569D01*
X0236849Y0174472D01*
X0236943Y0174373D01*
X0237034Y0174272D01*
X0237122Y0174167D01*
X0237207Y0174060D01*
X0237289Y0173951D01*
X0237368Y0173839D01*
X0237443Y0173725D01*
X0237515Y0173609D01*
X0237584Y0173491D01*
X0237649Y0173371D01*
X0237711Y0173249D01*
X0237769Y0173125D01*
X0237823Y0173000D01*
X0237874Y0172873D01*
X0237920Y0172745D01*
X0237964Y0172615D01*
X0238003Y0172484D01*
X0238039Y0172352D01*
X0238070Y0172219D01*
X0238098Y0172086D01*
X0238122Y0171951D01*
X0238142Y0171816D01*
X0238158Y0171680D01*
X0238170Y0171544D01*
X0238178Y0171408D01*
X0238182Y0171271D01*
X0238182Y0171135D01*
X0238178Y0170998D01*
X0238170Y0170862D01*
X0238158Y0170726D01*
X0238142Y0170590D01*
X0238122Y0170455D01*
X0238098Y0170320D01*
X0238070Y0170187D01*
X0238039Y0170054D01*
X0238003Y0169922D01*
X0237964Y0169791D01*
X0237920Y0169661D01*
X0237874Y0169533D01*
X0237823Y0169406D01*
X0237769Y0169281D01*
X0237711Y0169157D01*
X0237649Y0169035D01*
X0237584Y0168915D01*
X0237515Y0168797D01*
X0237443Y0168681D01*
X0237368Y0168567D01*
X0237289Y0168455D01*
X0237207Y0168346D01*
X0237122Y0168239D01*
X0237034Y0168134D01*
X0236943Y0168033D01*
X0236849Y0167934D01*
X0236752Y0167837D01*
X0236652Y0167744D01*
X0236550Y0167654D01*
X0236445Y0167566D01*
X0236337Y0167482D01*
X0236227Y0167401D01*
X0236115Y0167323D01*
X0236000Y0167248D01*
X0235884Y0167177D01*
X0235765Y0167110D01*
X0235645Y0167045D01*
X0235522Y0166985D01*
X0235398Y0166928D01*
X0235272Y0166874D01*
X0235145Y0166824D01*
X0235016Y0166778D01*
X0234887Y0166736D01*
X0234755Y0166698D01*
X0234623Y0166663D01*
X0234490Y0166633D01*
X0234356Y0166606D01*
X0234221Y0166583D01*
X0234086Y0166564D01*
X0233950Y0166549D01*
X0233814Y0166538D01*
X0233678Y0166531D01*
X0233541Y0166528D01*
X0233405Y0166529D01*
X0233268Y0166534D01*
X0233132Y0166543D01*
X0232996Y0166556D01*
X0232860Y0166573D01*
X0232725Y0166594D01*
X0232591Y0166619D01*
X0232457Y0166647D01*
X0232325Y0166680D01*
X0232193Y0166716D01*
X0232062Y0166757D01*
X0231933Y0166801D01*
X0231805Y0166849D01*
X0231679Y0166900D01*
X0231554Y0166956D01*
X0231430Y0167015D01*
X0231309Y0167077D01*
X0231189Y0167143D01*
X0231072Y0167212D01*
X0230956Y0167285D01*
X0230843Y0167362D01*
X0230732Y0167441D01*
X0230623Y0167524D01*
X0230517Y0167610D01*
X0230413Y0167698D01*
X0230312Y0167790D01*
X0230213Y0167885D01*
X0230118Y0167983D01*
X0230025Y0168083D01*
X0229936Y0168186D01*
X0229849Y0168292D01*
X0229765Y0168400D01*
X0229685Y0168511D01*
X0229608Y0168623D01*
X0229534Y0168739D01*
X0229464Y0168856D01*
X0229397Y0168975D01*
X0229334Y0169096D01*
X0229274Y0169219D01*
X0229218Y0169343D01*
X0229165Y0169469D01*
X0229117Y0169597D01*
X0229071Y0169726D01*
X0229030Y0169856D01*
X0228993Y0169988D01*
X0228959Y0170120D01*
X0228929Y0170253D01*
X0228904Y0170387D01*
X0228882Y0170522D01*
X0228864Y0170658D01*
X0228850Y0170794D01*
X0228840Y0170930D01*
X0228834Y0171066D01*
X0228832Y0171203D01*
X0237557Y0178703D02*
X0237559Y0178791D01*
X0237565Y0178879D01*
X0237575Y0178967D01*
X0237589Y0179054D01*
X0237607Y0179140D01*
X0237628Y0179225D01*
X0237654Y0179310D01*
X0237683Y0179393D01*
X0237716Y0179475D01*
X0237753Y0179555D01*
X0237793Y0179633D01*
X0237837Y0179710D01*
X0237884Y0179784D01*
X0237935Y0179856D01*
X0237988Y0179926D01*
X0238045Y0179994D01*
X0238105Y0180058D01*
X0238168Y0180120D01*
X0238233Y0180179D01*
X0238301Y0180235D01*
X0238372Y0180288D01*
X0238444Y0180338D01*
X0238519Y0180384D01*
X0238596Y0180427D01*
X0238675Y0180467D01*
X0238756Y0180502D01*
X0238838Y0180535D01*
X0238921Y0180563D01*
X0239006Y0180588D01*
X0239092Y0180608D01*
X0239178Y0180625D01*
X0239265Y0180638D01*
X0239353Y0180647D01*
X0239441Y0180652D01*
X0239529Y0180653D01*
X0239617Y0180650D01*
X0239705Y0180643D01*
X0239792Y0180632D01*
X0239879Y0180617D01*
X0239965Y0180598D01*
X0240051Y0180576D01*
X0240135Y0180549D01*
X0240217Y0180519D01*
X0240299Y0180485D01*
X0240379Y0180447D01*
X0240456Y0180406D01*
X0240532Y0180362D01*
X0240606Y0180314D01*
X0240678Y0180262D01*
X0240747Y0180208D01*
X0240814Y0180150D01*
X0240878Y0180090D01*
X0240939Y0180026D01*
X0240998Y0179960D01*
X0241053Y0179892D01*
X0241105Y0179820D01*
X0241154Y0179747D01*
X0241199Y0179672D01*
X0241241Y0179594D01*
X0241280Y0179515D01*
X0241315Y0179434D01*
X0241346Y0179351D01*
X0241373Y0179268D01*
X0241397Y0179183D01*
X0241417Y0179097D01*
X0241433Y0179010D01*
X0241445Y0178923D01*
X0241453Y0178835D01*
X0241457Y0178747D01*
X0241457Y0178659D01*
X0241453Y0178571D01*
X0241445Y0178483D01*
X0241433Y0178396D01*
X0241417Y0178309D01*
X0241397Y0178223D01*
X0241373Y0178138D01*
X0241346Y0178055D01*
X0241315Y0177972D01*
X0241280Y0177891D01*
X0241241Y0177812D01*
X0241199Y0177734D01*
X0241154Y0177659D01*
X0241105Y0177586D01*
X0241053Y0177514D01*
X0240998Y0177446D01*
X0240939Y0177380D01*
X0240878Y0177316D01*
X0240814Y0177256D01*
X0240747Y0177198D01*
X0240678Y0177144D01*
X0240606Y0177092D01*
X0240532Y0177044D01*
X0240456Y0177000D01*
X0240379Y0176959D01*
X0240299Y0176921D01*
X0240217Y0176887D01*
X0240135Y0176857D01*
X0240051Y0176830D01*
X0239965Y0176808D01*
X0239879Y0176789D01*
X0239792Y0176774D01*
X0239705Y0176763D01*
X0239617Y0176756D01*
X0239529Y0176753D01*
X0239441Y0176754D01*
X0239353Y0176759D01*
X0239265Y0176768D01*
X0239178Y0176781D01*
X0239092Y0176798D01*
X0239006Y0176818D01*
X0238921Y0176843D01*
X0238838Y0176871D01*
X0238756Y0176904D01*
X0238675Y0176939D01*
X0238596Y0176979D01*
X0238519Y0177022D01*
X0238444Y0177068D01*
X0238372Y0177118D01*
X0238301Y0177171D01*
X0238233Y0177227D01*
X0238168Y0177286D01*
X0238105Y0177348D01*
X0238045Y0177412D01*
X0237988Y0177480D01*
X0237935Y0177550D01*
X0237884Y0177622D01*
X0237837Y0177696D01*
X0237793Y0177773D01*
X0237753Y0177851D01*
X0237716Y0177931D01*
X0237683Y0178013D01*
X0237654Y0178096D01*
X0237628Y0178181D01*
X0237607Y0178266D01*
X0237589Y0178352D01*
X0237575Y0178439D01*
X0237565Y0178527D01*
X0237559Y0178615D01*
X0237557Y0178703D01*
X0245557Y0178703D02*
X0245559Y0178791D01*
X0245565Y0178879D01*
X0245575Y0178967D01*
X0245589Y0179054D01*
X0245607Y0179140D01*
X0245628Y0179225D01*
X0245654Y0179310D01*
X0245683Y0179393D01*
X0245716Y0179475D01*
X0245753Y0179555D01*
X0245793Y0179633D01*
X0245837Y0179710D01*
X0245884Y0179784D01*
X0245935Y0179856D01*
X0245988Y0179926D01*
X0246045Y0179994D01*
X0246105Y0180058D01*
X0246168Y0180120D01*
X0246233Y0180179D01*
X0246301Y0180235D01*
X0246372Y0180288D01*
X0246444Y0180338D01*
X0246519Y0180384D01*
X0246596Y0180427D01*
X0246675Y0180467D01*
X0246756Y0180502D01*
X0246838Y0180535D01*
X0246921Y0180563D01*
X0247006Y0180588D01*
X0247092Y0180608D01*
X0247178Y0180625D01*
X0247265Y0180638D01*
X0247353Y0180647D01*
X0247441Y0180652D01*
X0247529Y0180653D01*
X0247617Y0180650D01*
X0247705Y0180643D01*
X0247792Y0180632D01*
X0247879Y0180617D01*
X0247965Y0180598D01*
X0248051Y0180576D01*
X0248135Y0180549D01*
X0248217Y0180519D01*
X0248299Y0180485D01*
X0248379Y0180447D01*
X0248456Y0180406D01*
X0248532Y0180362D01*
X0248606Y0180314D01*
X0248678Y0180262D01*
X0248747Y0180208D01*
X0248814Y0180150D01*
X0248878Y0180090D01*
X0248939Y0180026D01*
X0248998Y0179960D01*
X0249053Y0179892D01*
X0249105Y0179820D01*
X0249154Y0179747D01*
X0249199Y0179672D01*
X0249241Y0179594D01*
X0249280Y0179515D01*
X0249315Y0179434D01*
X0249346Y0179351D01*
X0249373Y0179268D01*
X0249397Y0179183D01*
X0249417Y0179097D01*
X0249433Y0179010D01*
X0249445Y0178923D01*
X0249453Y0178835D01*
X0249457Y0178747D01*
X0249457Y0178659D01*
X0249453Y0178571D01*
X0249445Y0178483D01*
X0249433Y0178396D01*
X0249417Y0178309D01*
X0249397Y0178223D01*
X0249373Y0178138D01*
X0249346Y0178055D01*
X0249315Y0177972D01*
X0249280Y0177891D01*
X0249241Y0177812D01*
X0249199Y0177734D01*
X0249154Y0177659D01*
X0249105Y0177586D01*
X0249053Y0177514D01*
X0248998Y0177446D01*
X0248939Y0177380D01*
X0248878Y0177316D01*
X0248814Y0177256D01*
X0248747Y0177198D01*
X0248678Y0177144D01*
X0248606Y0177092D01*
X0248532Y0177044D01*
X0248456Y0177000D01*
X0248379Y0176959D01*
X0248299Y0176921D01*
X0248217Y0176887D01*
X0248135Y0176857D01*
X0248051Y0176830D01*
X0247965Y0176808D01*
X0247879Y0176789D01*
X0247792Y0176774D01*
X0247705Y0176763D01*
X0247617Y0176756D01*
X0247529Y0176753D01*
X0247441Y0176754D01*
X0247353Y0176759D01*
X0247265Y0176768D01*
X0247178Y0176781D01*
X0247092Y0176798D01*
X0247006Y0176818D01*
X0246921Y0176843D01*
X0246838Y0176871D01*
X0246756Y0176904D01*
X0246675Y0176939D01*
X0246596Y0176979D01*
X0246519Y0177022D01*
X0246444Y0177068D01*
X0246372Y0177118D01*
X0246301Y0177171D01*
X0246233Y0177227D01*
X0246168Y0177286D01*
X0246105Y0177348D01*
X0246045Y0177412D01*
X0245988Y0177480D01*
X0245935Y0177550D01*
X0245884Y0177622D01*
X0245837Y0177696D01*
X0245793Y0177773D01*
X0245753Y0177851D01*
X0245716Y0177931D01*
X0245683Y0178013D01*
X0245654Y0178096D01*
X0245628Y0178181D01*
X0245607Y0178266D01*
X0245589Y0178352D01*
X0245575Y0178439D01*
X0245565Y0178527D01*
X0245559Y0178615D01*
X0245557Y0178703D01*
X0248832Y0171203D02*
X0248834Y0171340D01*
X0248840Y0171476D01*
X0248850Y0171612D01*
X0248864Y0171748D01*
X0248882Y0171884D01*
X0248904Y0172019D01*
X0248929Y0172153D01*
X0248959Y0172286D01*
X0248993Y0172418D01*
X0249030Y0172550D01*
X0249071Y0172680D01*
X0249117Y0172809D01*
X0249165Y0172937D01*
X0249218Y0173063D01*
X0249274Y0173187D01*
X0249334Y0173310D01*
X0249397Y0173431D01*
X0249464Y0173550D01*
X0249534Y0173667D01*
X0249608Y0173783D01*
X0249685Y0173895D01*
X0249765Y0174006D01*
X0249849Y0174114D01*
X0249936Y0174220D01*
X0250025Y0174323D01*
X0250118Y0174423D01*
X0250213Y0174521D01*
X0250312Y0174616D01*
X0250413Y0174708D01*
X0250517Y0174796D01*
X0250623Y0174882D01*
X0250732Y0174965D01*
X0250843Y0175044D01*
X0250956Y0175121D01*
X0251072Y0175194D01*
X0251189Y0175263D01*
X0251309Y0175329D01*
X0251430Y0175391D01*
X0251554Y0175450D01*
X0251679Y0175506D01*
X0251805Y0175557D01*
X0251933Y0175605D01*
X0252062Y0175649D01*
X0252193Y0175690D01*
X0252325Y0175726D01*
X0252457Y0175759D01*
X0252591Y0175787D01*
X0252725Y0175812D01*
X0252860Y0175833D01*
X0252996Y0175850D01*
X0253132Y0175863D01*
X0253268Y0175872D01*
X0253405Y0175877D01*
X0253541Y0175878D01*
X0253678Y0175875D01*
X0253814Y0175868D01*
X0253950Y0175857D01*
X0254086Y0175842D01*
X0254221Y0175823D01*
X0254356Y0175800D01*
X0254490Y0175773D01*
X0254623Y0175743D01*
X0254755Y0175708D01*
X0254887Y0175670D01*
X0255016Y0175628D01*
X0255145Y0175582D01*
X0255272Y0175532D01*
X0255398Y0175478D01*
X0255522Y0175421D01*
X0255645Y0175361D01*
X0255765Y0175296D01*
X0255884Y0175229D01*
X0256000Y0175158D01*
X0256115Y0175083D01*
X0256227Y0175005D01*
X0256337Y0174924D01*
X0256445Y0174840D01*
X0256550Y0174752D01*
X0256652Y0174662D01*
X0256752Y0174569D01*
X0256849Y0174472D01*
X0256943Y0174373D01*
X0257034Y0174272D01*
X0257122Y0174167D01*
X0257207Y0174060D01*
X0257289Y0173951D01*
X0257368Y0173839D01*
X0257443Y0173725D01*
X0257515Y0173609D01*
X0257584Y0173491D01*
X0257649Y0173371D01*
X0257711Y0173249D01*
X0257769Y0173125D01*
X0257823Y0173000D01*
X0257874Y0172873D01*
X0257920Y0172745D01*
X0257964Y0172615D01*
X0258003Y0172484D01*
X0258039Y0172352D01*
X0258070Y0172219D01*
X0258098Y0172086D01*
X0258122Y0171951D01*
X0258142Y0171816D01*
X0258158Y0171680D01*
X0258170Y0171544D01*
X0258178Y0171408D01*
X0258182Y0171271D01*
X0258182Y0171135D01*
X0258178Y0170998D01*
X0258170Y0170862D01*
X0258158Y0170726D01*
X0258142Y0170590D01*
X0258122Y0170455D01*
X0258098Y0170320D01*
X0258070Y0170187D01*
X0258039Y0170054D01*
X0258003Y0169922D01*
X0257964Y0169791D01*
X0257920Y0169661D01*
X0257874Y0169533D01*
X0257823Y0169406D01*
X0257769Y0169281D01*
X0257711Y0169157D01*
X0257649Y0169035D01*
X0257584Y0168915D01*
X0257515Y0168797D01*
X0257443Y0168681D01*
X0257368Y0168567D01*
X0257289Y0168455D01*
X0257207Y0168346D01*
X0257122Y0168239D01*
X0257034Y0168134D01*
X0256943Y0168033D01*
X0256849Y0167934D01*
X0256752Y0167837D01*
X0256652Y0167744D01*
X0256550Y0167654D01*
X0256445Y0167566D01*
X0256337Y0167482D01*
X0256227Y0167401D01*
X0256115Y0167323D01*
X0256000Y0167248D01*
X0255884Y0167177D01*
X0255765Y0167110D01*
X0255645Y0167045D01*
X0255522Y0166985D01*
X0255398Y0166928D01*
X0255272Y0166874D01*
X0255145Y0166824D01*
X0255016Y0166778D01*
X0254887Y0166736D01*
X0254755Y0166698D01*
X0254623Y0166663D01*
X0254490Y0166633D01*
X0254356Y0166606D01*
X0254221Y0166583D01*
X0254086Y0166564D01*
X0253950Y0166549D01*
X0253814Y0166538D01*
X0253678Y0166531D01*
X0253541Y0166528D01*
X0253405Y0166529D01*
X0253268Y0166534D01*
X0253132Y0166543D01*
X0252996Y0166556D01*
X0252860Y0166573D01*
X0252725Y0166594D01*
X0252591Y0166619D01*
X0252457Y0166647D01*
X0252325Y0166680D01*
X0252193Y0166716D01*
X0252062Y0166757D01*
X0251933Y0166801D01*
X0251805Y0166849D01*
X0251679Y0166900D01*
X0251554Y0166956D01*
X0251430Y0167015D01*
X0251309Y0167077D01*
X0251189Y0167143D01*
X0251072Y0167212D01*
X0250956Y0167285D01*
X0250843Y0167362D01*
X0250732Y0167441D01*
X0250623Y0167524D01*
X0250517Y0167610D01*
X0250413Y0167698D01*
X0250312Y0167790D01*
X0250213Y0167885D01*
X0250118Y0167983D01*
X0250025Y0168083D01*
X0249936Y0168186D01*
X0249849Y0168292D01*
X0249765Y0168400D01*
X0249685Y0168511D01*
X0249608Y0168623D01*
X0249534Y0168739D01*
X0249464Y0168856D01*
X0249397Y0168975D01*
X0249334Y0169096D01*
X0249274Y0169219D01*
X0249218Y0169343D01*
X0249165Y0169469D01*
X0249117Y0169597D01*
X0249071Y0169726D01*
X0249030Y0169856D01*
X0248993Y0169988D01*
X0248959Y0170120D01*
X0248929Y0170253D01*
X0248904Y0170387D01*
X0248882Y0170522D01*
X0248864Y0170658D01*
X0248850Y0170794D01*
X0248840Y0170930D01*
X0248834Y0171066D01*
X0248832Y0171203D01*
X0248832Y0158703D02*
X0248834Y0158840D01*
X0248840Y0158976D01*
X0248850Y0159112D01*
X0248864Y0159248D01*
X0248882Y0159384D01*
X0248904Y0159519D01*
X0248929Y0159653D01*
X0248959Y0159786D01*
X0248993Y0159918D01*
X0249030Y0160050D01*
X0249071Y0160180D01*
X0249117Y0160309D01*
X0249165Y0160437D01*
X0249218Y0160563D01*
X0249274Y0160687D01*
X0249334Y0160810D01*
X0249397Y0160931D01*
X0249464Y0161050D01*
X0249534Y0161167D01*
X0249608Y0161283D01*
X0249685Y0161395D01*
X0249765Y0161506D01*
X0249849Y0161614D01*
X0249936Y0161720D01*
X0250025Y0161823D01*
X0250118Y0161923D01*
X0250213Y0162021D01*
X0250312Y0162116D01*
X0250413Y0162208D01*
X0250517Y0162296D01*
X0250623Y0162382D01*
X0250732Y0162465D01*
X0250843Y0162544D01*
X0250956Y0162621D01*
X0251072Y0162694D01*
X0251189Y0162763D01*
X0251309Y0162829D01*
X0251430Y0162891D01*
X0251554Y0162950D01*
X0251679Y0163006D01*
X0251805Y0163057D01*
X0251933Y0163105D01*
X0252062Y0163149D01*
X0252193Y0163190D01*
X0252325Y0163226D01*
X0252457Y0163259D01*
X0252591Y0163287D01*
X0252725Y0163312D01*
X0252860Y0163333D01*
X0252996Y0163350D01*
X0253132Y0163363D01*
X0253268Y0163372D01*
X0253405Y0163377D01*
X0253541Y0163378D01*
X0253678Y0163375D01*
X0253814Y0163368D01*
X0253950Y0163357D01*
X0254086Y0163342D01*
X0254221Y0163323D01*
X0254356Y0163300D01*
X0254490Y0163273D01*
X0254623Y0163243D01*
X0254755Y0163208D01*
X0254887Y0163170D01*
X0255016Y0163128D01*
X0255145Y0163082D01*
X0255272Y0163032D01*
X0255398Y0162978D01*
X0255522Y0162921D01*
X0255645Y0162861D01*
X0255765Y0162796D01*
X0255884Y0162729D01*
X0256000Y0162658D01*
X0256115Y0162583D01*
X0256227Y0162505D01*
X0256337Y0162424D01*
X0256445Y0162340D01*
X0256550Y0162252D01*
X0256652Y0162162D01*
X0256752Y0162069D01*
X0256849Y0161972D01*
X0256943Y0161873D01*
X0257034Y0161772D01*
X0257122Y0161667D01*
X0257207Y0161560D01*
X0257289Y0161451D01*
X0257368Y0161339D01*
X0257443Y0161225D01*
X0257515Y0161109D01*
X0257584Y0160991D01*
X0257649Y0160871D01*
X0257711Y0160749D01*
X0257769Y0160625D01*
X0257823Y0160500D01*
X0257874Y0160373D01*
X0257920Y0160245D01*
X0257964Y0160115D01*
X0258003Y0159984D01*
X0258039Y0159852D01*
X0258070Y0159719D01*
X0258098Y0159586D01*
X0258122Y0159451D01*
X0258142Y0159316D01*
X0258158Y0159180D01*
X0258170Y0159044D01*
X0258178Y0158908D01*
X0258182Y0158771D01*
X0258182Y0158635D01*
X0258178Y0158498D01*
X0258170Y0158362D01*
X0258158Y0158226D01*
X0258142Y0158090D01*
X0258122Y0157955D01*
X0258098Y0157820D01*
X0258070Y0157687D01*
X0258039Y0157554D01*
X0258003Y0157422D01*
X0257964Y0157291D01*
X0257920Y0157161D01*
X0257874Y0157033D01*
X0257823Y0156906D01*
X0257769Y0156781D01*
X0257711Y0156657D01*
X0257649Y0156535D01*
X0257584Y0156415D01*
X0257515Y0156297D01*
X0257443Y0156181D01*
X0257368Y0156067D01*
X0257289Y0155955D01*
X0257207Y0155846D01*
X0257122Y0155739D01*
X0257034Y0155634D01*
X0256943Y0155533D01*
X0256849Y0155434D01*
X0256752Y0155337D01*
X0256652Y0155244D01*
X0256550Y0155154D01*
X0256445Y0155066D01*
X0256337Y0154982D01*
X0256227Y0154901D01*
X0256115Y0154823D01*
X0256000Y0154748D01*
X0255884Y0154677D01*
X0255765Y0154610D01*
X0255645Y0154545D01*
X0255522Y0154485D01*
X0255398Y0154428D01*
X0255272Y0154374D01*
X0255145Y0154324D01*
X0255016Y0154278D01*
X0254887Y0154236D01*
X0254755Y0154198D01*
X0254623Y0154163D01*
X0254490Y0154133D01*
X0254356Y0154106D01*
X0254221Y0154083D01*
X0254086Y0154064D01*
X0253950Y0154049D01*
X0253814Y0154038D01*
X0253678Y0154031D01*
X0253541Y0154028D01*
X0253405Y0154029D01*
X0253268Y0154034D01*
X0253132Y0154043D01*
X0252996Y0154056D01*
X0252860Y0154073D01*
X0252725Y0154094D01*
X0252591Y0154119D01*
X0252457Y0154147D01*
X0252325Y0154180D01*
X0252193Y0154216D01*
X0252062Y0154257D01*
X0251933Y0154301D01*
X0251805Y0154349D01*
X0251679Y0154400D01*
X0251554Y0154456D01*
X0251430Y0154515D01*
X0251309Y0154577D01*
X0251189Y0154643D01*
X0251072Y0154712D01*
X0250956Y0154785D01*
X0250843Y0154862D01*
X0250732Y0154941D01*
X0250623Y0155024D01*
X0250517Y0155110D01*
X0250413Y0155198D01*
X0250312Y0155290D01*
X0250213Y0155385D01*
X0250118Y0155483D01*
X0250025Y0155583D01*
X0249936Y0155686D01*
X0249849Y0155792D01*
X0249765Y0155900D01*
X0249685Y0156011D01*
X0249608Y0156123D01*
X0249534Y0156239D01*
X0249464Y0156356D01*
X0249397Y0156475D01*
X0249334Y0156596D01*
X0249274Y0156719D01*
X0249218Y0156843D01*
X0249165Y0156969D01*
X0249117Y0157097D01*
X0249071Y0157226D01*
X0249030Y0157356D01*
X0248993Y0157488D01*
X0248959Y0157620D01*
X0248929Y0157753D01*
X0248904Y0157887D01*
X0248882Y0158022D01*
X0248864Y0158158D01*
X0248850Y0158294D01*
X0248840Y0158430D01*
X0248834Y0158566D01*
X0248832Y0158703D01*
X0241557Y0158703D02*
X0241559Y0158791D01*
X0241565Y0158879D01*
X0241575Y0158967D01*
X0241589Y0159054D01*
X0241607Y0159140D01*
X0241628Y0159225D01*
X0241654Y0159310D01*
X0241683Y0159393D01*
X0241716Y0159475D01*
X0241753Y0159555D01*
X0241793Y0159633D01*
X0241837Y0159710D01*
X0241884Y0159784D01*
X0241935Y0159856D01*
X0241988Y0159926D01*
X0242045Y0159994D01*
X0242105Y0160058D01*
X0242168Y0160120D01*
X0242233Y0160179D01*
X0242301Y0160235D01*
X0242372Y0160288D01*
X0242444Y0160338D01*
X0242519Y0160384D01*
X0242596Y0160427D01*
X0242675Y0160467D01*
X0242756Y0160502D01*
X0242838Y0160535D01*
X0242921Y0160563D01*
X0243006Y0160588D01*
X0243092Y0160608D01*
X0243178Y0160625D01*
X0243265Y0160638D01*
X0243353Y0160647D01*
X0243441Y0160652D01*
X0243529Y0160653D01*
X0243617Y0160650D01*
X0243705Y0160643D01*
X0243792Y0160632D01*
X0243879Y0160617D01*
X0243965Y0160598D01*
X0244051Y0160576D01*
X0244135Y0160549D01*
X0244217Y0160519D01*
X0244299Y0160485D01*
X0244379Y0160447D01*
X0244456Y0160406D01*
X0244532Y0160362D01*
X0244606Y0160314D01*
X0244678Y0160262D01*
X0244747Y0160208D01*
X0244814Y0160150D01*
X0244878Y0160090D01*
X0244939Y0160026D01*
X0244998Y0159960D01*
X0245053Y0159892D01*
X0245105Y0159820D01*
X0245154Y0159747D01*
X0245199Y0159672D01*
X0245241Y0159594D01*
X0245280Y0159515D01*
X0245315Y0159434D01*
X0245346Y0159351D01*
X0245373Y0159268D01*
X0245397Y0159183D01*
X0245417Y0159097D01*
X0245433Y0159010D01*
X0245445Y0158923D01*
X0245453Y0158835D01*
X0245457Y0158747D01*
X0245457Y0158659D01*
X0245453Y0158571D01*
X0245445Y0158483D01*
X0245433Y0158396D01*
X0245417Y0158309D01*
X0245397Y0158223D01*
X0245373Y0158138D01*
X0245346Y0158055D01*
X0245315Y0157972D01*
X0245280Y0157891D01*
X0245241Y0157812D01*
X0245199Y0157734D01*
X0245154Y0157659D01*
X0245105Y0157586D01*
X0245053Y0157514D01*
X0244998Y0157446D01*
X0244939Y0157380D01*
X0244878Y0157316D01*
X0244814Y0157256D01*
X0244747Y0157198D01*
X0244678Y0157144D01*
X0244606Y0157092D01*
X0244532Y0157044D01*
X0244456Y0157000D01*
X0244379Y0156959D01*
X0244299Y0156921D01*
X0244217Y0156887D01*
X0244135Y0156857D01*
X0244051Y0156830D01*
X0243965Y0156808D01*
X0243879Y0156789D01*
X0243792Y0156774D01*
X0243705Y0156763D01*
X0243617Y0156756D01*
X0243529Y0156753D01*
X0243441Y0156754D01*
X0243353Y0156759D01*
X0243265Y0156768D01*
X0243178Y0156781D01*
X0243092Y0156798D01*
X0243006Y0156818D01*
X0242921Y0156843D01*
X0242838Y0156871D01*
X0242756Y0156904D01*
X0242675Y0156939D01*
X0242596Y0156979D01*
X0242519Y0157022D01*
X0242444Y0157068D01*
X0242372Y0157118D01*
X0242301Y0157171D01*
X0242233Y0157227D01*
X0242168Y0157286D01*
X0242105Y0157348D01*
X0242045Y0157412D01*
X0241988Y0157480D01*
X0241935Y0157550D01*
X0241884Y0157622D01*
X0241837Y0157696D01*
X0241793Y0157773D01*
X0241753Y0157851D01*
X0241716Y0157931D01*
X0241683Y0158013D01*
X0241654Y0158096D01*
X0241628Y0158181D01*
X0241607Y0158266D01*
X0241589Y0158352D01*
X0241575Y0158439D01*
X0241565Y0158527D01*
X0241559Y0158615D01*
X0241557Y0158703D01*
X0241557Y0143270D02*
X0241559Y0143358D01*
X0241565Y0143446D01*
X0241575Y0143534D01*
X0241589Y0143621D01*
X0241607Y0143707D01*
X0241628Y0143792D01*
X0241654Y0143877D01*
X0241683Y0143960D01*
X0241716Y0144042D01*
X0241753Y0144122D01*
X0241793Y0144200D01*
X0241837Y0144277D01*
X0241884Y0144351D01*
X0241935Y0144423D01*
X0241988Y0144493D01*
X0242045Y0144561D01*
X0242105Y0144625D01*
X0242168Y0144687D01*
X0242233Y0144746D01*
X0242301Y0144802D01*
X0242372Y0144855D01*
X0242444Y0144905D01*
X0242519Y0144951D01*
X0242596Y0144994D01*
X0242675Y0145034D01*
X0242756Y0145069D01*
X0242838Y0145102D01*
X0242921Y0145130D01*
X0243006Y0145155D01*
X0243092Y0145175D01*
X0243178Y0145192D01*
X0243265Y0145205D01*
X0243353Y0145214D01*
X0243441Y0145219D01*
X0243529Y0145220D01*
X0243617Y0145217D01*
X0243705Y0145210D01*
X0243792Y0145199D01*
X0243879Y0145184D01*
X0243965Y0145165D01*
X0244051Y0145143D01*
X0244135Y0145116D01*
X0244217Y0145086D01*
X0244299Y0145052D01*
X0244379Y0145014D01*
X0244456Y0144973D01*
X0244532Y0144929D01*
X0244606Y0144881D01*
X0244678Y0144829D01*
X0244747Y0144775D01*
X0244814Y0144717D01*
X0244878Y0144657D01*
X0244939Y0144593D01*
X0244998Y0144527D01*
X0245053Y0144459D01*
X0245105Y0144387D01*
X0245154Y0144314D01*
X0245199Y0144239D01*
X0245241Y0144161D01*
X0245280Y0144082D01*
X0245315Y0144001D01*
X0245346Y0143918D01*
X0245373Y0143835D01*
X0245397Y0143750D01*
X0245417Y0143664D01*
X0245433Y0143577D01*
X0245445Y0143490D01*
X0245453Y0143402D01*
X0245457Y0143314D01*
X0245457Y0143226D01*
X0245453Y0143138D01*
X0245445Y0143050D01*
X0245433Y0142963D01*
X0245417Y0142876D01*
X0245397Y0142790D01*
X0245373Y0142705D01*
X0245346Y0142622D01*
X0245315Y0142539D01*
X0245280Y0142458D01*
X0245241Y0142379D01*
X0245199Y0142301D01*
X0245154Y0142226D01*
X0245105Y0142153D01*
X0245053Y0142081D01*
X0244998Y0142013D01*
X0244939Y0141947D01*
X0244878Y0141883D01*
X0244814Y0141823D01*
X0244747Y0141765D01*
X0244678Y0141711D01*
X0244606Y0141659D01*
X0244532Y0141611D01*
X0244456Y0141567D01*
X0244379Y0141526D01*
X0244299Y0141488D01*
X0244217Y0141454D01*
X0244135Y0141424D01*
X0244051Y0141397D01*
X0243965Y0141375D01*
X0243879Y0141356D01*
X0243792Y0141341D01*
X0243705Y0141330D01*
X0243617Y0141323D01*
X0243529Y0141320D01*
X0243441Y0141321D01*
X0243353Y0141326D01*
X0243265Y0141335D01*
X0243178Y0141348D01*
X0243092Y0141365D01*
X0243006Y0141385D01*
X0242921Y0141410D01*
X0242838Y0141438D01*
X0242756Y0141471D01*
X0242675Y0141506D01*
X0242596Y0141546D01*
X0242519Y0141589D01*
X0242444Y0141635D01*
X0242372Y0141685D01*
X0242301Y0141738D01*
X0242233Y0141794D01*
X0242168Y0141853D01*
X0242105Y0141915D01*
X0242045Y0141979D01*
X0241988Y0142047D01*
X0241935Y0142117D01*
X0241884Y0142189D01*
X0241837Y0142263D01*
X0241793Y0142340D01*
X0241753Y0142418D01*
X0241716Y0142498D01*
X0241683Y0142580D01*
X0241654Y0142663D01*
X0241628Y0142748D01*
X0241607Y0142833D01*
X0241589Y0142919D01*
X0241575Y0143006D01*
X0241565Y0143094D01*
X0241559Y0143182D01*
X0241557Y0143270D01*
X0228832Y0143270D02*
X0228834Y0143407D01*
X0228840Y0143543D01*
X0228850Y0143679D01*
X0228864Y0143815D01*
X0228882Y0143951D01*
X0228904Y0144086D01*
X0228929Y0144220D01*
X0228959Y0144353D01*
X0228993Y0144485D01*
X0229030Y0144617D01*
X0229071Y0144747D01*
X0229117Y0144876D01*
X0229165Y0145004D01*
X0229218Y0145130D01*
X0229274Y0145254D01*
X0229334Y0145377D01*
X0229397Y0145498D01*
X0229464Y0145617D01*
X0229534Y0145734D01*
X0229608Y0145850D01*
X0229685Y0145962D01*
X0229765Y0146073D01*
X0229849Y0146181D01*
X0229936Y0146287D01*
X0230025Y0146390D01*
X0230118Y0146490D01*
X0230213Y0146588D01*
X0230312Y0146683D01*
X0230413Y0146775D01*
X0230517Y0146863D01*
X0230623Y0146949D01*
X0230732Y0147032D01*
X0230843Y0147111D01*
X0230956Y0147188D01*
X0231072Y0147261D01*
X0231189Y0147330D01*
X0231309Y0147396D01*
X0231430Y0147458D01*
X0231554Y0147517D01*
X0231679Y0147573D01*
X0231805Y0147624D01*
X0231933Y0147672D01*
X0232062Y0147716D01*
X0232193Y0147757D01*
X0232325Y0147793D01*
X0232457Y0147826D01*
X0232591Y0147854D01*
X0232725Y0147879D01*
X0232860Y0147900D01*
X0232996Y0147917D01*
X0233132Y0147930D01*
X0233268Y0147939D01*
X0233405Y0147944D01*
X0233541Y0147945D01*
X0233678Y0147942D01*
X0233814Y0147935D01*
X0233950Y0147924D01*
X0234086Y0147909D01*
X0234221Y0147890D01*
X0234356Y0147867D01*
X0234490Y0147840D01*
X0234623Y0147810D01*
X0234755Y0147775D01*
X0234887Y0147737D01*
X0235016Y0147695D01*
X0235145Y0147649D01*
X0235272Y0147599D01*
X0235398Y0147545D01*
X0235522Y0147488D01*
X0235645Y0147428D01*
X0235765Y0147363D01*
X0235884Y0147296D01*
X0236000Y0147225D01*
X0236115Y0147150D01*
X0236227Y0147072D01*
X0236337Y0146991D01*
X0236445Y0146907D01*
X0236550Y0146819D01*
X0236652Y0146729D01*
X0236752Y0146636D01*
X0236849Y0146539D01*
X0236943Y0146440D01*
X0237034Y0146339D01*
X0237122Y0146234D01*
X0237207Y0146127D01*
X0237289Y0146018D01*
X0237368Y0145906D01*
X0237443Y0145792D01*
X0237515Y0145676D01*
X0237584Y0145558D01*
X0237649Y0145438D01*
X0237711Y0145316D01*
X0237769Y0145192D01*
X0237823Y0145067D01*
X0237874Y0144940D01*
X0237920Y0144812D01*
X0237964Y0144682D01*
X0238003Y0144551D01*
X0238039Y0144419D01*
X0238070Y0144286D01*
X0238098Y0144153D01*
X0238122Y0144018D01*
X0238142Y0143883D01*
X0238158Y0143747D01*
X0238170Y0143611D01*
X0238178Y0143475D01*
X0238182Y0143338D01*
X0238182Y0143202D01*
X0238178Y0143065D01*
X0238170Y0142929D01*
X0238158Y0142793D01*
X0238142Y0142657D01*
X0238122Y0142522D01*
X0238098Y0142387D01*
X0238070Y0142254D01*
X0238039Y0142121D01*
X0238003Y0141989D01*
X0237964Y0141858D01*
X0237920Y0141728D01*
X0237874Y0141600D01*
X0237823Y0141473D01*
X0237769Y0141348D01*
X0237711Y0141224D01*
X0237649Y0141102D01*
X0237584Y0140982D01*
X0237515Y0140864D01*
X0237443Y0140748D01*
X0237368Y0140634D01*
X0237289Y0140522D01*
X0237207Y0140413D01*
X0237122Y0140306D01*
X0237034Y0140201D01*
X0236943Y0140100D01*
X0236849Y0140001D01*
X0236752Y0139904D01*
X0236652Y0139811D01*
X0236550Y0139721D01*
X0236445Y0139633D01*
X0236337Y0139549D01*
X0236227Y0139468D01*
X0236115Y0139390D01*
X0236000Y0139315D01*
X0235884Y0139244D01*
X0235765Y0139177D01*
X0235645Y0139112D01*
X0235522Y0139052D01*
X0235398Y0138995D01*
X0235272Y0138941D01*
X0235145Y0138891D01*
X0235016Y0138845D01*
X0234887Y0138803D01*
X0234755Y0138765D01*
X0234623Y0138730D01*
X0234490Y0138700D01*
X0234356Y0138673D01*
X0234221Y0138650D01*
X0234086Y0138631D01*
X0233950Y0138616D01*
X0233814Y0138605D01*
X0233678Y0138598D01*
X0233541Y0138595D01*
X0233405Y0138596D01*
X0233268Y0138601D01*
X0233132Y0138610D01*
X0232996Y0138623D01*
X0232860Y0138640D01*
X0232725Y0138661D01*
X0232591Y0138686D01*
X0232457Y0138714D01*
X0232325Y0138747D01*
X0232193Y0138783D01*
X0232062Y0138824D01*
X0231933Y0138868D01*
X0231805Y0138916D01*
X0231679Y0138967D01*
X0231554Y0139023D01*
X0231430Y0139082D01*
X0231309Y0139144D01*
X0231189Y0139210D01*
X0231072Y0139279D01*
X0230956Y0139352D01*
X0230843Y0139429D01*
X0230732Y0139508D01*
X0230623Y0139591D01*
X0230517Y0139677D01*
X0230413Y0139765D01*
X0230312Y0139857D01*
X0230213Y0139952D01*
X0230118Y0140050D01*
X0230025Y0140150D01*
X0229936Y0140253D01*
X0229849Y0140359D01*
X0229765Y0140467D01*
X0229685Y0140578D01*
X0229608Y0140690D01*
X0229534Y0140806D01*
X0229464Y0140923D01*
X0229397Y0141042D01*
X0229334Y0141163D01*
X0229274Y0141286D01*
X0229218Y0141410D01*
X0229165Y0141536D01*
X0229117Y0141664D01*
X0229071Y0141793D01*
X0229030Y0141923D01*
X0228993Y0142055D01*
X0228959Y0142187D01*
X0228929Y0142320D01*
X0228904Y0142454D01*
X0228882Y0142589D01*
X0228864Y0142725D01*
X0228850Y0142861D01*
X0228840Y0142997D01*
X0228834Y0143133D01*
X0228832Y0143270D01*
X0228832Y0130770D02*
X0228834Y0130907D01*
X0228840Y0131043D01*
X0228850Y0131179D01*
X0228864Y0131315D01*
X0228882Y0131451D01*
X0228904Y0131586D01*
X0228929Y0131720D01*
X0228959Y0131853D01*
X0228993Y0131985D01*
X0229030Y0132117D01*
X0229071Y0132247D01*
X0229117Y0132376D01*
X0229165Y0132504D01*
X0229218Y0132630D01*
X0229274Y0132754D01*
X0229334Y0132877D01*
X0229397Y0132998D01*
X0229464Y0133117D01*
X0229534Y0133234D01*
X0229608Y0133350D01*
X0229685Y0133462D01*
X0229765Y0133573D01*
X0229849Y0133681D01*
X0229936Y0133787D01*
X0230025Y0133890D01*
X0230118Y0133990D01*
X0230213Y0134088D01*
X0230312Y0134183D01*
X0230413Y0134275D01*
X0230517Y0134363D01*
X0230623Y0134449D01*
X0230732Y0134532D01*
X0230843Y0134611D01*
X0230956Y0134688D01*
X0231072Y0134761D01*
X0231189Y0134830D01*
X0231309Y0134896D01*
X0231430Y0134958D01*
X0231554Y0135017D01*
X0231679Y0135073D01*
X0231805Y0135124D01*
X0231933Y0135172D01*
X0232062Y0135216D01*
X0232193Y0135257D01*
X0232325Y0135293D01*
X0232457Y0135326D01*
X0232591Y0135354D01*
X0232725Y0135379D01*
X0232860Y0135400D01*
X0232996Y0135417D01*
X0233132Y0135430D01*
X0233268Y0135439D01*
X0233405Y0135444D01*
X0233541Y0135445D01*
X0233678Y0135442D01*
X0233814Y0135435D01*
X0233950Y0135424D01*
X0234086Y0135409D01*
X0234221Y0135390D01*
X0234356Y0135367D01*
X0234490Y0135340D01*
X0234623Y0135310D01*
X0234755Y0135275D01*
X0234887Y0135237D01*
X0235016Y0135195D01*
X0235145Y0135149D01*
X0235272Y0135099D01*
X0235398Y0135045D01*
X0235522Y0134988D01*
X0235645Y0134928D01*
X0235765Y0134863D01*
X0235884Y0134796D01*
X0236000Y0134725D01*
X0236115Y0134650D01*
X0236227Y0134572D01*
X0236337Y0134491D01*
X0236445Y0134407D01*
X0236550Y0134319D01*
X0236652Y0134229D01*
X0236752Y0134136D01*
X0236849Y0134039D01*
X0236943Y0133940D01*
X0237034Y0133839D01*
X0237122Y0133734D01*
X0237207Y0133627D01*
X0237289Y0133518D01*
X0237368Y0133406D01*
X0237443Y0133292D01*
X0237515Y0133176D01*
X0237584Y0133058D01*
X0237649Y0132938D01*
X0237711Y0132816D01*
X0237769Y0132692D01*
X0237823Y0132567D01*
X0237874Y0132440D01*
X0237920Y0132312D01*
X0237964Y0132182D01*
X0238003Y0132051D01*
X0238039Y0131919D01*
X0238070Y0131786D01*
X0238098Y0131653D01*
X0238122Y0131518D01*
X0238142Y0131383D01*
X0238158Y0131247D01*
X0238170Y0131111D01*
X0238178Y0130975D01*
X0238182Y0130838D01*
X0238182Y0130702D01*
X0238178Y0130565D01*
X0238170Y0130429D01*
X0238158Y0130293D01*
X0238142Y0130157D01*
X0238122Y0130022D01*
X0238098Y0129887D01*
X0238070Y0129754D01*
X0238039Y0129621D01*
X0238003Y0129489D01*
X0237964Y0129358D01*
X0237920Y0129228D01*
X0237874Y0129100D01*
X0237823Y0128973D01*
X0237769Y0128848D01*
X0237711Y0128724D01*
X0237649Y0128602D01*
X0237584Y0128482D01*
X0237515Y0128364D01*
X0237443Y0128248D01*
X0237368Y0128134D01*
X0237289Y0128022D01*
X0237207Y0127913D01*
X0237122Y0127806D01*
X0237034Y0127701D01*
X0236943Y0127600D01*
X0236849Y0127501D01*
X0236752Y0127404D01*
X0236652Y0127311D01*
X0236550Y0127221D01*
X0236445Y0127133D01*
X0236337Y0127049D01*
X0236227Y0126968D01*
X0236115Y0126890D01*
X0236000Y0126815D01*
X0235884Y0126744D01*
X0235765Y0126677D01*
X0235645Y0126612D01*
X0235522Y0126552D01*
X0235398Y0126495D01*
X0235272Y0126441D01*
X0235145Y0126391D01*
X0235016Y0126345D01*
X0234887Y0126303D01*
X0234755Y0126265D01*
X0234623Y0126230D01*
X0234490Y0126200D01*
X0234356Y0126173D01*
X0234221Y0126150D01*
X0234086Y0126131D01*
X0233950Y0126116D01*
X0233814Y0126105D01*
X0233678Y0126098D01*
X0233541Y0126095D01*
X0233405Y0126096D01*
X0233268Y0126101D01*
X0233132Y0126110D01*
X0232996Y0126123D01*
X0232860Y0126140D01*
X0232725Y0126161D01*
X0232591Y0126186D01*
X0232457Y0126214D01*
X0232325Y0126247D01*
X0232193Y0126283D01*
X0232062Y0126324D01*
X0231933Y0126368D01*
X0231805Y0126416D01*
X0231679Y0126467D01*
X0231554Y0126523D01*
X0231430Y0126582D01*
X0231309Y0126644D01*
X0231189Y0126710D01*
X0231072Y0126779D01*
X0230956Y0126852D01*
X0230843Y0126929D01*
X0230732Y0127008D01*
X0230623Y0127091D01*
X0230517Y0127177D01*
X0230413Y0127265D01*
X0230312Y0127357D01*
X0230213Y0127452D01*
X0230118Y0127550D01*
X0230025Y0127650D01*
X0229936Y0127753D01*
X0229849Y0127859D01*
X0229765Y0127967D01*
X0229685Y0128078D01*
X0229608Y0128190D01*
X0229534Y0128306D01*
X0229464Y0128423D01*
X0229397Y0128542D01*
X0229334Y0128663D01*
X0229274Y0128786D01*
X0229218Y0128910D01*
X0229165Y0129036D01*
X0229117Y0129164D01*
X0229071Y0129293D01*
X0229030Y0129423D01*
X0228993Y0129555D01*
X0228959Y0129687D01*
X0228929Y0129820D01*
X0228904Y0129954D01*
X0228882Y0130089D01*
X0228864Y0130225D01*
X0228850Y0130361D01*
X0228840Y0130497D01*
X0228834Y0130633D01*
X0228832Y0130770D01*
X0237557Y0123270D02*
X0237559Y0123358D01*
X0237565Y0123446D01*
X0237575Y0123534D01*
X0237589Y0123621D01*
X0237607Y0123707D01*
X0237628Y0123792D01*
X0237654Y0123877D01*
X0237683Y0123960D01*
X0237716Y0124042D01*
X0237753Y0124122D01*
X0237793Y0124200D01*
X0237837Y0124277D01*
X0237884Y0124351D01*
X0237935Y0124423D01*
X0237988Y0124493D01*
X0238045Y0124561D01*
X0238105Y0124625D01*
X0238168Y0124687D01*
X0238233Y0124746D01*
X0238301Y0124802D01*
X0238372Y0124855D01*
X0238444Y0124905D01*
X0238519Y0124951D01*
X0238596Y0124994D01*
X0238675Y0125034D01*
X0238756Y0125069D01*
X0238838Y0125102D01*
X0238921Y0125130D01*
X0239006Y0125155D01*
X0239092Y0125175D01*
X0239178Y0125192D01*
X0239265Y0125205D01*
X0239353Y0125214D01*
X0239441Y0125219D01*
X0239529Y0125220D01*
X0239617Y0125217D01*
X0239705Y0125210D01*
X0239792Y0125199D01*
X0239879Y0125184D01*
X0239965Y0125165D01*
X0240051Y0125143D01*
X0240135Y0125116D01*
X0240217Y0125086D01*
X0240299Y0125052D01*
X0240379Y0125014D01*
X0240456Y0124973D01*
X0240532Y0124929D01*
X0240606Y0124881D01*
X0240678Y0124829D01*
X0240747Y0124775D01*
X0240814Y0124717D01*
X0240878Y0124657D01*
X0240939Y0124593D01*
X0240998Y0124527D01*
X0241053Y0124459D01*
X0241105Y0124387D01*
X0241154Y0124314D01*
X0241199Y0124239D01*
X0241241Y0124161D01*
X0241280Y0124082D01*
X0241315Y0124001D01*
X0241346Y0123918D01*
X0241373Y0123835D01*
X0241397Y0123750D01*
X0241417Y0123664D01*
X0241433Y0123577D01*
X0241445Y0123490D01*
X0241453Y0123402D01*
X0241457Y0123314D01*
X0241457Y0123226D01*
X0241453Y0123138D01*
X0241445Y0123050D01*
X0241433Y0122963D01*
X0241417Y0122876D01*
X0241397Y0122790D01*
X0241373Y0122705D01*
X0241346Y0122622D01*
X0241315Y0122539D01*
X0241280Y0122458D01*
X0241241Y0122379D01*
X0241199Y0122301D01*
X0241154Y0122226D01*
X0241105Y0122153D01*
X0241053Y0122081D01*
X0240998Y0122013D01*
X0240939Y0121947D01*
X0240878Y0121883D01*
X0240814Y0121823D01*
X0240747Y0121765D01*
X0240678Y0121711D01*
X0240606Y0121659D01*
X0240532Y0121611D01*
X0240456Y0121567D01*
X0240379Y0121526D01*
X0240299Y0121488D01*
X0240217Y0121454D01*
X0240135Y0121424D01*
X0240051Y0121397D01*
X0239965Y0121375D01*
X0239879Y0121356D01*
X0239792Y0121341D01*
X0239705Y0121330D01*
X0239617Y0121323D01*
X0239529Y0121320D01*
X0239441Y0121321D01*
X0239353Y0121326D01*
X0239265Y0121335D01*
X0239178Y0121348D01*
X0239092Y0121365D01*
X0239006Y0121385D01*
X0238921Y0121410D01*
X0238838Y0121438D01*
X0238756Y0121471D01*
X0238675Y0121506D01*
X0238596Y0121546D01*
X0238519Y0121589D01*
X0238444Y0121635D01*
X0238372Y0121685D01*
X0238301Y0121738D01*
X0238233Y0121794D01*
X0238168Y0121853D01*
X0238105Y0121915D01*
X0238045Y0121979D01*
X0237988Y0122047D01*
X0237935Y0122117D01*
X0237884Y0122189D01*
X0237837Y0122263D01*
X0237793Y0122340D01*
X0237753Y0122418D01*
X0237716Y0122498D01*
X0237683Y0122580D01*
X0237654Y0122663D01*
X0237628Y0122748D01*
X0237607Y0122833D01*
X0237589Y0122919D01*
X0237575Y0123006D01*
X0237565Y0123094D01*
X0237559Y0123182D01*
X0237557Y0123270D01*
X0245557Y0123270D02*
X0245559Y0123358D01*
X0245565Y0123446D01*
X0245575Y0123534D01*
X0245589Y0123621D01*
X0245607Y0123707D01*
X0245628Y0123792D01*
X0245654Y0123877D01*
X0245683Y0123960D01*
X0245716Y0124042D01*
X0245753Y0124122D01*
X0245793Y0124200D01*
X0245837Y0124277D01*
X0245884Y0124351D01*
X0245935Y0124423D01*
X0245988Y0124493D01*
X0246045Y0124561D01*
X0246105Y0124625D01*
X0246168Y0124687D01*
X0246233Y0124746D01*
X0246301Y0124802D01*
X0246372Y0124855D01*
X0246444Y0124905D01*
X0246519Y0124951D01*
X0246596Y0124994D01*
X0246675Y0125034D01*
X0246756Y0125069D01*
X0246838Y0125102D01*
X0246921Y0125130D01*
X0247006Y0125155D01*
X0247092Y0125175D01*
X0247178Y0125192D01*
X0247265Y0125205D01*
X0247353Y0125214D01*
X0247441Y0125219D01*
X0247529Y0125220D01*
X0247617Y0125217D01*
X0247705Y0125210D01*
X0247792Y0125199D01*
X0247879Y0125184D01*
X0247965Y0125165D01*
X0248051Y0125143D01*
X0248135Y0125116D01*
X0248217Y0125086D01*
X0248299Y0125052D01*
X0248379Y0125014D01*
X0248456Y0124973D01*
X0248532Y0124929D01*
X0248606Y0124881D01*
X0248678Y0124829D01*
X0248747Y0124775D01*
X0248814Y0124717D01*
X0248878Y0124657D01*
X0248939Y0124593D01*
X0248998Y0124527D01*
X0249053Y0124459D01*
X0249105Y0124387D01*
X0249154Y0124314D01*
X0249199Y0124239D01*
X0249241Y0124161D01*
X0249280Y0124082D01*
X0249315Y0124001D01*
X0249346Y0123918D01*
X0249373Y0123835D01*
X0249397Y0123750D01*
X0249417Y0123664D01*
X0249433Y0123577D01*
X0249445Y0123490D01*
X0249453Y0123402D01*
X0249457Y0123314D01*
X0249457Y0123226D01*
X0249453Y0123138D01*
X0249445Y0123050D01*
X0249433Y0122963D01*
X0249417Y0122876D01*
X0249397Y0122790D01*
X0249373Y0122705D01*
X0249346Y0122622D01*
X0249315Y0122539D01*
X0249280Y0122458D01*
X0249241Y0122379D01*
X0249199Y0122301D01*
X0249154Y0122226D01*
X0249105Y0122153D01*
X0249053Y0122081D01*
X0248998Y0122013D01*
X0248939Y0121947D01*
X0248878Y0121883D01*
X0248814Y0121823D01*
X0248747Y0121765D01*
X0248678Y0121711D01*
X0248606Y0121659D01*
X0248532Y0121611D01*
X0248456Y0121567D01*
X0248379Y0121526D01*
X0248299Y0121488D01*
X0248217Y0121454D01*
X0248135Y0121424D01*
X0248051Y0121397D01*
X0247965Y0121375D01*
X0247879Y0121356D01*
X0247792Y0121341D01*
X0247705Y0121330D01*
X0247617Y0121323D01*
X0247529Y0121320D01*
X0247441Y0121321D01*
X0247353Y0121326D01*
X0247265Y0121335D01*
X0247178Y0121348D01*
X0247092Y0121365D01*
X0247006Y0121385D01*
X0246921Y0121410D01*
X0246838Y0121438D01*
X0246756Y0121471D01*
X0246675Y0121506D01*
X0246596Y0121546D01*
X0246519Y0121589D01*
X0246444Y0121635D01*
X0246372Y0121685D01*
X0246301Y0121738D01*
X0246233Y0121794D01*
X0246168Y0121853D01*
X0246105Y0121915D01*
X0246045Y0121979D01*
X0245988Y0122047D01*
X0245935Y0122117D01*
X0245884Y0122189D01*
X0245837Y0122263D01*
X0245793Y0122340D01*
X0245753Y0122418D01*
X0245716Y0122498D01*
X0245683Y0122580D01*
X0245654Y0122663D01*
X0245628Y0122748D01*
X0245607Y0122833D01*
X0245589Y0122919D01*
X0245575Y0123006D01*
X0245565Y0123094D01*
X0245559Y0123182D01*
X0245557Y0123270D01*
X0248832Y0130770D02*
X0248834Y0130907D01*
X0248840Y0131043D01*
X0248850Y0131179D01*
X0248864Y0131315D01*
X0248882Y0131451D01*
X0248904Y0131586D01*
X0248929Y0131720D01*
X0248959Y0131853D01*
X0248993Y0131985D01*
X0249030Y0132117D01*
X0249071Y0132247D01*
X0249117Y0132376D01*
X0249165Y0132504D01*
X0249218Y0132630D01*
X0249274Y0132754D01*
X0249334Y0132877D01*
X0249397Y0132998D01*
X0249464Y0133117D01*
X0249534Y0133234D01*
X0249608Y0133350D01*
X0249685Y0133462D01*
X0249765Y0133573D01*
X0249849Y0133681D01*
X0249936Y0133787D01*
X0250025Y0133890D01*
X0250118Y0133990D01*
X0250213Y0134088D01*
X0250312Y0134183D01*
X0250413Y0134275D01*
X0250517Y0134363D01*
X0250623Y0134449D01*
X0250732Y0134532D01*
X0250843Y0134611D01*
X0250956Y0134688D01*
X0251072Y0134761D01*
X0251189Y0134830D01*
X0251309Y0134896D01*
X0251430Y0134958D01*
X0251554Y0135017D01*
X0251679Y0135073D01*
X0251805Y0135124D01*
X0251933Y0135172D01*
X0252062Y0135216D01*
X0252193Y0135257D01*
X0252325Y0135293D01*
X0252457Y0135326D01*
X0252591Y0135354D01*
X0252725Y0135379D01*
X0252860Y0135400D01*
X0252996Y0135417D01*
X0253132Y0135430D01*
X0253268Y0135439D01*
X0253405Y0135444D01*
X0253541Y0135445D01*
X0253678Y0135442D01*
X0253814Y0135435D01*
X0253950Y0135424D01*
X0254086Y0135409D01*
X0254221Y0135390D01*
X0254356Y0135367D01*
X0254490Y0135340D01*
X0254623Y0135310D01*
X0254755Y0135275D01*
X0254887Y0135237D01*
X0255016Y0135195D01*
X0255145Y0135149D01*
X0255272Y0135099D01*
X0255398Y0135045D01*
X0255522Y0134988D01*
X0255645Y0134928D01*
X0255765Y0134863D01*
X0255884Y0134796D01*
X0256000Y0134725D01*
X0256115Y0134650D01*
X0256227Y0134572D01*
X0256337Y0134491D01*
X0256445Y0134407D01*
X0256550Y0134319D01*
X0256652Y0134229D01*
X0256752Y0134136D01*
X0256849Y0134039D01*
X0256943Y0133940D01*
X0257034Y0133839D01*
X0257122Y0133734D01*
X0257207Y0133627D01*
X0257289Y0133518D01*
X0257368Y0133406D01*
X0257443Y0133292D01*
X0257515Y0133176D01*
X0257584Y0133058D01*
X0257649Y0132938D01*
X0257711Y0132816D01*
X0257769Y0132692D01*
X0257823Y0132567D01*
X0257874Y0132440D01*
X0257920Y0132312D01*
X0257964Y0132182D01*
X0258003Y0132051D01*
X0258039Y0131919D01*
X0258070Y0131786D01*
X0258098Y0131653D01*
X0258122Y0131518D01*
X0258142Y0131383D01*
X0258158Y0131247D01*
X0258170Y0131111D01*
X0258178Y0130975D01*
X0258182Y0130838D01*
X0258182Y0130702D01*
X0258178Y0130565D01*
X0258170Y0130429D01*
X0258158Y0130293D01*
X0258142Y0130157D01*
X0258122Y0130022D01*
X0258098Y0129887D01*
X0258070Y0129754D01*
X0258039Y0129621D01*
X0258003Y0129489D01*
X0257964Y0129358D01*
X0257920Y0129228D01*
X0257874Y0129100D01*
X0257823Y0128973D01*
X0257769Y0128848D01*
X0257711Y0128724D01*
X0257649Y0128602D01*
X0257584Y0128482D01*
X0257515Y0128364D01*
X0257443Y0128248D01*
X0257368Y0128134D01*
X0257289Y0128022D01*
X0257207Y0127913D01*
X0257122Y0127806D01*
X0257034Y0127701D01*
X0256943Y0127600D01*
X0256849Y0127501D01*
X0256752Y0127404D01*
X0256652Y0127311D01*
X0256550Y0127221D01*
X0256445Y0127133D01*
X0256337Y0127049D01*
X0256227Y0126968D01*
X0256115Y0126890D01*
X0256000Y0126815D01*
X0255884Y0126744D01*
X0255765Y0126677D01*
X0255645Y0126612D01*
X0255522Y0126552D01*
X0255398Y0126495D01*
X0255272Y0126441D01*
X0255145Y0126391D01*
X0255016Y0126345D01*
X0254887Y0126303D01*
X0254755Y0126265D01*
X0254623Y0126230D01*
X0254490Y0126200D01*
X0254356Y0126173D01*
X0254221Y0126150D01*
X0254086Y0126131D01*
X0253950Y0126116D01*
X0253814Y0126105D01*
X0253678Y0126098D01*
X0253541Y0126095D01*
X0253405Y0126096D01*
X0253268Y0126101D01*
X0253132Y0126110D01*
X0252996Y0126123D01*
X0252860Y0126140D01*
X0252725Y0126161D01*
X0252591Y0126186D01*
X0252457Y0126214D01*
X0252325Y0126247D01*
X0252193Y0126283D01*
X0252062Y0126324D01*
X0251933Y0126368D01*
X0251805Y0126416D01*
X0251679Y0126467D01*
X0251554Y0126523D01*
X0251430Y0126582D01*
X0251309Y0126644D01*
X0251189Y0126710D01*
X0251072Y0126779D01*
X0250956Y0126852D01*
X0250843Y0126929D01*
X0250732Y0127008D01*
X0250623Y0127091D01*
X0250517Y0127177D01*
X0250413Y0127265D01*
X0250312Y0127357D01*
X0250213Y0127452D01*
X0250118Y0127550D01*
X0250025Y0127650D01*
X0249936Y0127753D01*
X0249849Y0127859D01*
X0249765Y0127967D01*
X0249685Y0128078D01*
X0249608Y0128190D01*
X0249534Y0128306D01*
X0249464Y0128423D01*
X0249397Y0128542D01*
X0249334Y0128663D01*
X0249274Y0128786D01*
X0249218Y0128910D01*
X0249165Y0129036D01*
X0249117Y0129164D01*
X0249071Y0129293D01*
X0249030Y0129423D01*
X0248993Y0129555D01*
X0248959Y0129687D01*
X0248929Y0129820D01*
X0248904Y0129954D01*
X0248882Y0130089D01*
X0248864Y0130225D01*
X0248850Y0130361D01*
X0248840Y0130497D01*
X0248834Y0130633D01*
X0248832Y0130770D01*
X0248832Y0143270D02*
X0248834Y0143407D01*
X0248840Y0143543D01*
X0248850Y0143679D01*
X0248864Y0143815D01*
X0248882Y0143951D01*
X0248904Y0144086D01*
X0248929Y0144220D01*
X0248959Y0144353D01*
X0248993Y0144485D01*
X0249030Y0144617D01*
X0249071Y0144747D01*
X0249117Y0144876D01*
X0249165Y0145004D01*
X0249218Y0145130D01*
X0249274Y0145254D01*
X0249334Y0145377D01*
X0249397Y0145498D01*
X0249464Y0145617D01*
X0249534Y0145734D01*
X0249608Y0145850D01*
X0249685Y0145962D01*
X0249765Y0146073D01*
X0249849Y0146181D01*
X0249936Y0146287D01*
X0250025Y0146390D01*
X0250118Y0146490D01*
X0250213Y0146588D01*
X0250312Y0146683D01*
X0250413Y0146775D01*
X0250517Y0146863D01*
X0250623Y0146949D01*
X0250732Y0147032D01*
X0250843Y0147111D01*
X0250956Y0147188D01*
X0251072Y0147261D01*
X0251189Y0147330D01*
X0251309Y0147396D01*
X0251430Y0147458D01*
X0251554Y0147517D01*
X0251679Y0147573D01*
X0251805Y0147624D01*
X0251933Y0147672D01*
X0252062Y0147716D01*
X0252193Y0147757D01*
X0252325Y0147793D01*
X0252457Y0147826D01*
X0252591Y0147854D01*
X0252725Y0147879D01*
X0252860Y0147900D01*
X0252996Y0147917D01*
X0253132Y0147930D01*
X0253268Y0147939D01*
X0253405Y0147944D01*
X0253541Y0147945D01*
X0253678Y0147942D01*
X0253814Y0147935D01*
X0253950Y0147924D01*
X0254086Y0147909D01*
X0254221Y0147890D01*
X0254356Y0147867D01*
X0254490Y0147840D01*
X0254623Y0147810D01*
X0254755Y0147775D01*
X0254887Y0147737D01*
X0255016Y0147695D01*
X0255145Y0147649D01*
X0255272Y0147599D01*
X0255398Y0147545D01*
X0255522Y0147488D01*
X0255645Y0147428D01*
X0255765Y0147363D01*
X0255884Y0147296D01*
X0256000Y0147225D01*
X0256115Y0147150D01*
X0256227Y0147072D01*
X0256337Y0146991D01*
X0256445Y0146907D01*
X0256550Y0146819D01*
X0256652Y0146729D01*
X0256752Y0146636D01*
X0256849Y0146539D01*
X0256943Y0146440D01*
X0257034Y0146339D01*
X0257122Y0146234D01*
X0257207Y0146127D01*
X0257289Y0146018D01*
X0257368Y0145906D01*
X0257443Y0145792D01*
X0257515Y0145676D01*
X0257584Y0145558D01*
X0257649Y0145438D01*
X0257711Y0145316D01*
X0257769Y0145192D01*
X0257823Y0145067D01*
X0257874Y0144940D01*
X0257920Y0144812D01*
X0257964Y0144682D01*
X0258003Y0144551D01*
X0258039Y0144419D01*
X0258070Y0144286D01*
X0258098Y0144153D01*
X0258122Y0144018D01*
X0258142Y0143883D01*
X0258158Y0143747D01*
X0258170Y0143611D01*
X0258178Y0143475D01*
X0258182Y0143338D01*
X0258182Y0143202D01*
X0258178Y0143065D01*
X0258170Y0142929D01*
X0258158Y0142793D01*
X0258142Y0142657D01*
X0258122Y0142522D01*
X0258098Y0142387D01*
X0258070Y0142254D01*
X0258039Y0142121D01*
X0258003Y0141989D01*
X0257964Y0141858D01*
X0257920Y0141728D01*
X0257874Y0141600D01*
X0257823Y0141473D01*
X0257769Y0141348D01*
X0257711Y0141224D01*
X0257649Y0141102D01*
X0257584Y0140982D01*
X0257515Y0140864D01*
X0257443Y0140748D01*
X0257368Y0140634D01*
X0257289Y0140522D01*
X0257207Y0140413D01*
X0257122Y0140306D01*
X0257034Y0140201D01*
X0256943Y0140100D01*
X0256849Y0140001D01*
X0256752Y0139904D01*
X0256652Y0139811D01*
X0256550Y0139721D01*
X0256445Y0139633D01*
X0256337Y0139549D01*
X0256227Y0139468D01*
X0256115Y0139390D01*
X0256000Y0139315D01*
X0255884Y0139244D01*
X0255765Y0139177D01*
X0255645Y0139112D01*
X0255522Y0139052D01*
X0255398Y0138995D01*
X0255272Y0138941D01*
X0255145Y0138891D01*
X0255016Y0138845D01*
X0254887Y0138803D01*
X0254755Y0138765D01*
X0254623Y0138730D01*
X0254490Y0138700D01*
X0254356Y0138673D01*
X0254221Y0138650D01*
X0254086Y0138631D01*
X0253950Y0138616D01*
X0253814Y0138605D01*
X0253678Y0138598D01*
X0253541Y0138595D01*
X0253405Y0138596D01*
X0253268Y0138601D01*
X0253132Y0138610D01*
X0252996Y0138623D01*
X0252860Y0138640D01*
X0252725Y0138661D01*
X0252591Y0138686D01*
X0252457Y0138714D01*
X0252325Y0138747D01*
X0252193Y0138783D01*
X0252062Y0138824D01*
X0251933Y0138868D01*
X0251805Y0138916D01*
X0251679Y0138967D01*
X0251554Y0139023D01*
X0251430Y0139082D01*
X0251309Y0139144D01*
X0251189Y0139210D01*
X0251072Y0139279D01*
X0250956Y0139352D01*
X0250843Y0139429D01*
X0250732Y0139508D01*
X0250623Y0139591D01*
X0250517Y0139677D01*
X0250413Y0139765D01*
X0250312Y0139857D01*
X0250213Y0139952D01*
X0250118Y0140050D01*
X0250025Y0140150D01*
X0249936Y0140253D01*
X0249849Y0140359D01*
X0249765Y0140467D01*
X0249685Y0140578D01*
X0249608Y0140690D01*
X0249534Y0140806D01*
X0249464Y0140923D01*
X0249397Y0141042D01*
X0249334Y0141163D01*
X0249274Y0141286D01*
X0249218Y0141410D01*
X0249165Y0141536D01*
X0249117Y0141664D01*
X0249071Y0141793D01*
X0249030Y0141923D01*
X0248993Y0142055D01*
X0248959Y0142187D01*
X0248929Y0142320D01*
X0248904Y0142454D01*
X0248882Y0142589D01*
X0248864Y0142725D01*
X0248850Y0142861D01*
X0248840Y0142997D01*
X0248834Y0143133D01*
X0248832Y0143270D01*
X0388191Y0098822D02*
X0388193Y0098975D01*
X0388199Y0099129D01*
X0388209Y0099282D01*
X0388223Y0099434D01*
X0388241Y0099587D01*
X0388263Y0099738D01*
X0388288Y0099889D01*
X0388318Y0100040D01*
X0388352Y0100190D01*
X0388389Y0100338D01*
X0388430Y0100486D01*
X0388475Y0100632D01*
X0388524Y0100778D01*
X0388577Y0100922D01*
X0388633Y0101064D01*
X0388693Y0101205D01*
X0388757Y0101345D01*
X0388824Y0101483D01*
X0388895Y0101619D01*
X0388970Y0101753D01*
X0389047Y0101885D01*
X0389129Y0102015D01*
X0389213Y0102143D01*
X0389301Y0102269D01*
X0389392Y0102392D01*
X0389486Y0102513D01*
X0389584Y0102631D01*
X0389684Y0102747D01*
X0389788Y0102860D01*
X0389894Y0102971D01*
X0390003Y0103079D01*
X0390115Y0103184D01*
X0390229Y0103285D01*
X0390347Y0103384D01*
X0390466Y0103480D01*
X0390588Y0103573D01*
X0390713Y0103662D01*
X0390840Y0103749D01*
X0390969Y0103831D01*
X0391100Y0103911D01*
X0391233Y0103987D01*
X0391368Y0104060D01*
X0391505Y0104129D01*
X0391644Y0104194D01*
X0391784Y0104256D01*
X0391926Y0104314D01*
X0392069Y0104369D01*
X0392214Y0104420D01*
X0392360Y0104467D01*
X0392507Y0104510D01*
X0392655Y0104549D01*
X0392804Y0104585D01*
X0392954Y0104616D01*
X0393105Y0104644D01*
X0393256Y0104668D01*
X0393409Y0104688D01*
X0393561Y0104704D01*
X0393714Y0104716D01*
X0393867Y0104724D01*
X0394020Y0104728D01*
X0394174Y0104728D01*
X0394327Y0104724D01*
X0394480Y0104716D01*
X0394633Y0104704D01*
X0394785Y0104688D01*
X0394938Y0104668D01*
X0395089Y0104644D01*
X0395240Y0104616D01*
X0395390Y0104585D01*
X0395539Y0104549D01*
X0395687Y0104510D01*
X0395834Y0104467D01*
X0395980Y0104420D01*
X0396125Y0104369D01*
X0396268Y0104314D01*
X0396410Y0104256D01*
X0396550Y0104194D01*
X0396689Y0104129D01*
X0396826Y0104060D01*
X0396961Y0103987D01*
X0397094Y0103911D01*
X0397225Y0103831D01*
X0397354Y0103749D01*
X0397481Y0103662D01*
X0397606Y0103573D01*
X0397728Y0103480D01*
X0397847Y0103384D01*
X0397965Y0103285D01*
X0398079Y0103184D01*
X0398191Y0103079D01*
X0398300Y0102971D01*
X0398406Y0102860D01*
X0398510Y0102747D01*
X0398610Y0102631D01*
X0398708Y0102513D01*
X0398802Y0102392D01*
X0398893Y0102269D01*
X0398981Y0102143D01*
X0399065Y0102015D01*
X0399147Y0101885D01*
X0399224Y0101753D01*
X0399299Y0101619D01*
X0399370Y0101483D01*
X0399437Y0101345D01*
X0399501Y0101205D01*
X0399561Y0101064D01*
X0399617Y0100922D01*
X0399670Y0100778D01*
X0399719Y0100632D01*
X0399764Y0100486D01*
X0399805Y0100338D01*
X0399842Y0100190D01*
X0399876Y0100040D01*
X0399906Y0099889D01*
X0399931Y0099738D01*
X0399953Y0099587D01*
X0399971Y0099434D01*
X0399985Y0099282D01*
X0399995Y0099129D01*
X0400001Y0098975D01*
X0400003Y0098822D01*
X0400001Y0098669D01*
X0399995Y0098515D01*
X0399985Y0098362D01*
X0399971Y0098210D01*
X0399953Y0098057D01*
X0399931Y0097906D01*
X0399906Y0097755D01*
X0399876Y0097604D01*
X0399842Y0097454D01*
X0399805Y0097306D01*
X0399764Y0097158D01*
X0399719Y0097012D01*
X0399670Y0096866D01*
X0399617Y0096722D01*
X0399561Y0096580D01*
X0399501Y0096439D01*
X0399437Y0096299D01*
X0399370Y0096161D01*
X0399299Y0096025D01*
X0399224Y0095891D01*
X0399147Y0095759D01*
X0399065Y0095629D01*
X0398981Y0095501D01*
X0398893Y0095375D01*
X0398802Y0095252D01*
X0398708Y0095131D01*
X0398610Y0095013D01*
X0398510Y0094897D01*
X0398406Y0094784D01*
X0398300Y0094673D01*
X0398191Y0094565D01*
X0398079Y0094460D01*
X0397965Y0094359D01*
X0397847Y0094260D01*
X0397728Y0094164D01*
X0397606Y0094071D01*
X0397481Y0093982D01*
X0397354Y0093895D01*
X0397225Y0093813D01*
X0397094Y0093733D01*
X0396961Y0093657D01*
X0396826Y0093584D01*
X0396689Y0093515D01*
X0396550Y0093450D01*
X0396410Y0093388D01*
X0396268Y0093330D01*
X0396125Y0093275D01*
X0395980Y0093224D01*
X0395834Y0093177D01*
X0395687Y0093134D01*
X0395539Y0093095D01*
X0395390Y0093059D01*
X0395240Y0093028D01*
X0395089Y0093000D01*
X0394938Y0092976D01*
X0394785Y0092956D01*
X0394633Y0092940D01*
X0394480Y0092928D01*
X0394327Y0092920D01*
X0394174Y0092916D01*
X0394020Y0092916D01*
X0393867Y0092920D01*
X0393714Y0092928D01*
X0393561Y0092940D01*
X0393409Y0092956D01*
X0393256Y0092976D01*
X0393105Y0093000D01*
X0392954Y0093028D01*
X0392804Y0093059D01*
X0392655Y0093095D01*
X0392507Y0093134D01*
X0392360Y0093177D01*
X0392214Y0093224D01*
X0392069Y0093275D01*
X0391926Y0093330D01*
X0391784Y0093388D01*
X0391644Y0093450D01*
X0391505Y0093515D01*
X0391368Y0093584D01*
X0391233Y0093657D01*
X0391100Y0093733D01*
X0390969Y0093813D01*
X0390840Y0093895D01*
X0390713Y0093982D01*
X0390588Y0094071D01*
X0390466Y0094164D01*
X0390347Y0094260D01*
X0390229Y0094359D01*
X0390115Y0094460D01*
X0390003Y0094565D01*
X0389894Y0094673D01*
X0389788Y0094784D01*
X0389684Y0094897D01*
X0389584Y0095013D01*
X0389486Y0095131D01*
X0389392Y0095252D01*
X0389301Y0095375D01*
X0389213Y0095501D01*
X0389129Y0095629D01*
X0389047Y0095759D01*
X0388970Y0095891D01*
X0388895Y0096025D01*
X0388824Y0096161D01*
X0388757Y0096299D01*
X0388693Y0096439D01*
X0388633Y0096580D01*
X0388577Y0096722D01*
X0388524Y0096866D01*
X0388475Y0097012D01*
X0388430Y0097158D01*
X0388389Y0097306D01*
X0388352Y0097454D01*
X0388318Y0097604D01*
X0388288Y0097755D01*
X0388263Y0097906D01*
X0388241Y0098057D01*
X0388223Y0098210D01*
X0388209Y0098362D01*
X0388199Y0098515D01*
X0388193Y0098669D01*
X0388191Y0098822D01*
X0388191Y0327168D02*
X0388193Y0327321D01*
X0388199Y0327475D01*
X0388209Y0327628D01*
X0388223Y0327780D01*
X0388241Y0327933D01*
X0388263Y0328084D01*
X0388288Y0328235D01*
X0388318Y0328386D01*
X0388352Y0328536D01*
X0388389Y0328684D01*
X0388430Y0328832D01*
X0388475Y0328978D01*
X0388524Y0329124D01*
X0388577Y0329268D01*
X0388633Y0329410D01*
X0388693Y0329551D01*
X0388757Y0329691D01*
X0388824Y0329829D01*
X0388895Y0329965D01*
X0388970Y0330099D01*
X0389047Y0330231D01*
X0389129Y0330361D01*
X0389213Y0330489D01*
X0389301Y0330615D01*
X0389392Y0330738D01*
X0389486Y0330859D01*
X0389584Y0330977D01*
X0389684Y0331093D01*
X0389788Y0331206D01*
X0389894Y0331317D01*
X0390003Y0331425D01*
X0390115Y0331530D01*
X0390229Y0331631D01*
X0390347Y0331730D01*
X0390466Y0331826D01*
X0390588Y0331919D01*
X0390713Y0332008D01*
X0390840Y0332095D01*
X0390969Y0332177D01*
X0391100Y0332257D01*
X0391233Y0332333D01*
X0391368Y0332406D01*
X0391505Y0332475D01*
X0391644Y0332540D01*
X0391784Y0332602D01*
X0391926Y0332660D01*
X0392069Y0332715D01*
X0392214Y0332766D01*
X0392360Y0332813D01*
X0392507Y0332856D01*
X0392655Y0332895D01*
X0392804Y0332931D01*
X0392954Y0332962D01*
X0393105Y0332990D01*
X0393256Y0333014D01*
X0393409Y0333034D01*
X0393561Y0333050D01*
X0393714Y0333062D01*
X0393867Y0333070D01*
X0394020Y0333074D01*
X0394174Y0333074D01*
X0394327Y0333070D01*
X0394480Y0333062D01*
X0394633Y0333050D01*
X0394785Y0333034D01*
X0394938Y0333014D01*
X0395089Y0332990D01*
X0395240Y0332962D01*
X0395390Y0332931D01*
X0395539Y0332895D01*
X0395687Y0332856D01*
X0395834Y0332813D01*
X0395980Y0332766D01*
X0396125Y0332715D01*
X0396268Y0332660D01*
X0396410Y0332602D01*
X0396550Y0332540D01*
X0396689Y0332475D01*
X0396826Y0332406D01*
X0396961Y0332333D01*
X0397094Y0332257D01*
X0397225Y0332177D01*
X0397354Y0332095D01*
X0397481Y0332008D01*
X0397606Y0331919D01*
X0397728Y0331826D01*
X0397847Y0331730D01*
X0397965Y0331631D01*
X0398079Y0331530D01*
X0398191Y0331425D01*
X0398300Y0331317D01*
X0398406Y0331206D01*
X0398510Y0331093D01*
X0398610Y0330977D01*
X0398708Y0330859D01*
X0398802Y0330738D01*
X0398893Y0330615D01*
X0398981Y0330489D01*
X0399065Y0330361D01*
X0399147Y0330231D01*
X0399224Y0330099D01*
X0399299Y0329965D01*
X0399370Y0329829D01*
X0399437Y0329691D01*
X0399501Y0329551D01*
X0399561Y0329410D01*
X0399617Y0329268D01*
X0399670Y0329124D01*
X0399719Y0328978D01*
X0399764Y0328832D01*
X0399805Y0328684D01*
X0399842Y0328536D01*
X0399876Y0328386D01*
X0399906Y0328235D01*
X0399931Y0328084D01*
X0399953Y0327933D01*
X0399971Y0327780D01*
X0399985Y0327628D01*
X0399995Y0327475D01*
X0400001Y0327321D01*
X0400003Y0327168D01*
X0400001Y0327015D01*
X0399995Y0326861D01*
X0399985Y0326708D01*
X0399971Y0326556D01*
X0399953Y0326403D01*
X0399931Y0326252D01*
X0399906Y0326101D01*
X0399876Y0325950D01*
X0399842Y0325800D01*
X0399805Y0325652D01*
X0399764Y0325504D01*
X0399719Y0325358D01*
X0399670Y0325212D01*
X0399617Y0325068D01*
X0399561Y0324926D01*
X0399501Y0324785D01*
X0399437Y0324645D01*
X0399370Y0324507D01*
X0399299Y0324371D01*
X0399224Y0324237D01*
X0399147Y0324105D01*
X0399065Y0323975D01*
X0398981Y0323847D01*
X0398893Y0323721D01*
X0398802Y0323598D01*
X0398708Y0323477D01*
X0398610Y0323359D01*
X0398510Y0323243D01*
X0398406Y0323130D01*
X0398300Y0323019D01*
X0398191Y0322911D01*
X0398079Y0322806D01*
X0397965Y0322705D01*
X0397847Y0322606D01*
X0397728Y0322510D01*
X0397606Y0322417D01*
X0397481Y0322328D01*
X0397354Y0322241D01*
X0397225Y0322159D01*
X0397094Y0322079D01*
X0396961Y0322003D01*
X0396826Y0321930D01*
X0396689Y0321861D01*
X0396550Y0321796D01*
X0396410Y0321734D01*
X0396268Y0321676D01*
X0396125Y0321621D01*
X0395980Y0321570D01*
X0395834Y0321523D01*
X0395687Y0321480D01*
X0395539Y0321441D01*
X0395390Y0321405D01*
X0395240Y0321374D01*
X0395089Y0321346D01*
X0394938Y0321322D01*
X0394785Y0321302D01*
X0394633Y0321286D01*
X0394480Y0321274D01*
X0394327Y0321266D01*
X0394174Y0321262D01*
X0394020Y0321262D01*
X0393867Y0321266D01*
X0393714Y0321274D01*
X0393561Y0321286D01*
X0393409Y0321302D01*
X0393256Y0321322D01*
X0393105Y0321346D01*
X0392954Y0321374D01*
X0392804Y0321405D01*
X0392655Y0321441D01*
X0392507Y0321480D01*
X0392360Y0321523D01*
X0392214Y0321570D01*
X0392069Y0321621D01*
X0391926Y0321676D01*
X0391784Y0321734D01*
X0391644Y0321796D01*
X0391505Y0321861D01*
X0391368Y0321930D01*
X0391233Y0322003D01*
X0391100Y0322079D01*
X0390969Y0322159D01*
X0390840Y0322241D01*
X0390713Y0322328D01*
X0390588Y0322417D01*
X0390466Y0322510D01*
X0390347Y0322606D01*
X0390229Y0322705D01*
X0390115Y0322806D01*
X0390003Y0322911D01*
X0389894Y0323019D01*
X0389788Y0323130D01*
X0389684Y0323243D01*
X0389584Y0323359D01*
X0389486Y0323477D01*
X0389392Y0323598D01*
X0389301Y0323721D01*
X0389213Y0323847D01*
X0389129Y0323975D01*
X0389047Y0324105D01*
X0388970Y0324237D01*
X0388895Y0324371D01*
X0388824Y0324507D01*
X0388757Y0324645D01*
X0388693Y0324785D01*
X0388633Y0324926D01*
X0388577Y0325068D01*
X0388524Y0325212D01*
X0388475Y0325358D01*
X0388430Y0325504D01*
X0388389Y0325652D01*
X0388352Y0325800D01*
X0388318Y0325950D01*
X0388288Y0326101D01*
X0388263Y0326252D01*
X0388241Y0326403D01*
X0388223Y0326556D01*
X0388209Y0326708D01*
X0388199Y0326861D01*
X0388193Y0327015D01*
X0388191Y0327168D01*
X0194293Y0402955D02*
X0194295Y0403108D01*
X0194301Y0403262D01*
X0194311Y0403415D01*
X0194325Y0403567D01*
X0194343Y0403720D01*
X0194365Y0403871D01*
X0194390Y0404022D01*
X0194420Y0404173D01*
X0194454Y0404323D01*
X0194491Y0404471D01*
X0194532Y0404619D01*
X0194577Y0404765D01*
X0194626Y0404911D01*
X0194679Y0405055D01*
X0194735Y0405197D01*
X0194795Y0405338D01*
X0194859Y0405478D01*
X0194926Y0405616D01*
X0194997Y0405752D01*
X0195072Y0405886D01*
X0195149Y0406018D01*
X0195231Y0406148D01*
X0195315Y0406276D01*
X0195403Y0406402D01*
X0195494Y0406525D01*
X0195588Y0406646D01*
X0195686Y0406764D01*
X0195786Y0406880D01*
X0195890Y0406993D01*
X0195996Y0407104D01*
X0196105Y0407212D01*
X0196217Y0407317D01*
X0196331Y0407418D01*
X0196449Y0407517D01*
X0196568Y0407613D01*
X0196690Y0407706D01*
X0196815Y0407795D01*
X0196942Y0407882D01*
X0197071Y0407964D01*
X0197202Y0408044D01*
X0197335Y0408120D01*
X0197470Y0408193D01*
X0197607Y0408262D01*
X0197746Y0408327D01*
X0197886Y0408389D01*
X0198028Y0408447D01*
X0198171Y0408502D01*
X0198316Y0408553D01*
X0198462Y0408600D01*
X0198609Y0408643D01*
X0198757Y0408682D01*
X0198906Y0408718D01*
X0199056Y0408749D01*
X0199207Y0408777D01*
X0199358Y0408801D01*
X0199511Y0408821D01*
X0199663Y0408837D01*
X0199816Y0408849D01*
X0199969Y0408857D01*
X0200122Y0408861D01*
X0200276Y0408861D01*
X0200429Y0408857D01*
X0200582Y0408849D01*
X0200735Y0408837D01*
X0200887Y0408821D01*
X0201040Y0408801D01*
X0201191Y0408777D01*
X0201342Y0408749D01*
X0201492Y0408718D01*
X0201641Y0408682D01*
X0201789Y0408643D01*
X0201936Y0408600D01*
X0202082Y0408553D01*
X0202227Y0408502D01*
X0202370Y0408447D01*
X0202512Y0408389D01*
X0202652Y0408327D01*
X0202791Y0408262D01*
X0202928Y0408193D01*
X0203063Y0408120D01*
X0203196Y0408044D01*
X0203327Y0407964D01*
X0203456Y0407882D01*
X0203583Y0407795D01*
X0203708Y0407706D01*
X0203830Y0407613D01*
X0203949Y0407517D01*
X0204067Y0407418D01*
X0204181Y0407317D01*
X0204293Y0407212D01*
X0204402Y0407104D01*
X0204508Y0406993D01*
X0204612Y0406880D01*
X0204712Y0406764D01*
X0204810Y0406646D01*
X0204904Y0406525D01*
X0204995Y0406402D01*
X0205083Y0406276D01*
X0205167Y0406148D01*
X0205249Y0406018D01*
X0205326Y0405886D01*
X0205401Y0405752D01*
X0205472Y0405616D01*
X0205539Y0405478D01*
X0205603Y0405338D01*
X0205663Y0405197D01*
X0205719Y0405055D01*
X0205772Y0404911D01*
X0205821Y0404765D01*
X0205866Y0404619D01*
X0205907Y0404471D01*
X0205944Y0404323D01*
X0205978Y0404173D01*
X0206008Y0404022D01*
X0206033Y0403871D01*
X0206055Y0403720D01*
X0206073Y0403567D01*
X0206087Y0403415D01*
X0206097Y0403262D01*
X0206103Y0403108D01*
X0206105Y0402955D01*
X0206103Y0402802D01*
X0206097Y0402648D01*
X0206087Y0402495D01*
X0206073Y0402343D01*
X0206055Y0402190D01*
X0206033Y0402039D01*
X0206008Y0401888D01*
X0205978Y0401737D01*
X0205944Y0401587D01*
X0205907Y0401439D01*
X0205866Y0401291D01*
X0205821Y0401145D01*
X0205772Y0400999D01*
X0205719Y0400855D01*
X0205663Y0400713D01*
X0205603Y0400572D01*
X0205539Y0400432D01*
X0205472Y0400294D01*
X0205401Y0400158D01*
X0205326Y0400024D01*
X0205249Y0399892D01*
X0205167Y0399762D01*
X0205083Y0399634D01*
X0204995Y0399508D01*
X0204904Y0399385D01*
X0204810Y0399264D01*
X0204712Y0399146D01*
X0204612Y0399030D01*
X0204508Y0398917D01*
X0204402Y0398806D01*
X0204293Y0398698D01*
X0204181Y0398593D01*
X0204067Y0398492D01*
X0203949Y0398393D01*
X0203830Y0398297D01*
X0203708Y0398204D01*
X0203583Y0398115D01*
X0203456Y0398028D01*
X0203327Y0397946D01*
X0203196Y0397866D01*
X0203063Y0397790D01*
X0202928Y0397717D01*
X0202791Y0397648D01*
X0202652Y0397583D01*
X0202512Y0397521D01*
X0202370Y0397463D01*
X0202227Y0397408D01*
X0202082Y0397357D01*
X0201936Y0397310D01*
X0201789Y0397267D01*
X0201641Y0397228D01*
X0201492Y0397192D01*
X0201342Y0397161D01*
X0201191Y0397133D01*
X0201040Y0397109D01*
X0200887Y0397089D01*
X0200735Y0397073D01*
X0200582Y0397061D01*
X0200429Y0397053D01*
X0200276Y0397049D01*
X0200122Y0397049D01*
X0199969Y0397053D01*
X0199816Y0397061D01*
X0199663Y0397073D01*
X0199511Y0397089D01*
X0199358Y0397109D01*
X0199207Y0397133D01*
X0199056Y0397161D01*
X0198906Y0397192D01*
X0198757Y0397228D01*
X0198609Y0397267D01*
X0198462Y0397310D01*
X0198316Y0397357D01*
X0198171Y0397408D01*
X0198028Y0397463D01*
X0197886Y0397521D01*
X0197746Y0397583D01*
X0197607Y0397648D01*
X0197470Y0397717D01*
X0197335Y0397790D01*
X0197202Y0397866D01*
X0197071Y0397946D01*
X0196942Y0398028D01*
X0196815Y0398115D01*
X0196690Y0398204D01*
X0196568Y0398297D01*
X0196449Y0398393D01*
X0196331Y0398492D01*
X0196217Y0398593D01*
X0196105Y0398698D01*
X0195996Y0398806D01*
X0195890Y0398917D01*
X0195786Y0399030D01*
X0195686Y0399146D01*
X0195588Y0399264D01*
X0195494Y0399385D01*
X0195403Y0399508D01*
X0195315Y0399634D01*
X0195231Y0399762D01*
X0195149Y0399892D01*
X0195072Y0400024D01*
X0194997Y0400158D01*
X0194926Y0400294D01*
X0194859Y0400432D01*
X0194795Y0400572D01*
X0194735Y0400713D01*
X0194679Y0400855D01*
X0194626Y0400999D01*
X0194577Y0401145D01*
X0194532Y0401291D01*
X0194491Y0401439D01*
X0194454Y0401587D01*
X0194420Y0401737D01*
X0194390Y0401888D01*
X0194365Y0402039D01*
X0194343Y0402190D01*
X0194325Y0402343D01*
X0194311Y0402495D01*
X0194301Y0402648D01*
X0194295Y0402802D01*
X0194293Y0402955D01*
D15*
X0178303Y0358323D02*
X0178886Y0357739D01*
X0178886Y0357155D01*
X0178303Y0356571D01*
X0177135Y0356571D01*
X0176551Y0355987D01*
X0176551Y0355403D01*
X0177135Y0354820D01*
X0178303Y0354820D01*
X0178886Y0355403D01*
X0178303Y0358323D02*
X0177135Y0358323D01*
X0176551Y0357739D01*
X0175203Y0358323D02*
X0173452Y0358323D01*
X0172868Y0357739D01*
X0172868Y0355403D01*
X0173452Y0354820D01*
X0175203Y0354820D01*
X0175203Y0358323D01*
X0171520Y0357155D02*
X0171520Y0354820D01*
X0171520Y0356571D02*
X0169185Y0356571D01*
X0169185Y0357155D02*
X0169185Y0354820D01*
X0167837Y0354820D02*
X0165502Y0354820D01*
X0166669Y0354820D02*
X0166669Y0358323D01*
X0167837Y0357155D01*
X0169185Y0357155D02*
X0170353Y0358323D01*
X0171520Y0357155D01*
X0171520Y0348323D02*
X0171520Y0344820D01*
X0169185Y0344820D01*
X0167837Y0344820D02*
X0165502Y0344820D01*
X0166669Y0344820D02*
X0166669Y0348323D01*
X0167837Y0347155D01*
X0172868Y0347739D02*
X0173452Y0348323D01*
X0174620Y0348323D01*
X0175203Y0347739D01*
X0175203Y0345403D01*
X0174620Y0344820D01*
X0173452Y0344820D01*
X0172868Y0345403D01*
X0176551Y0345403D02*
X0177135Y0344820D01*
X0178303Y0344820D01*
X0178886Y0345403D01*
X0178303Y0346571D02*
X0177135Y0346571D01*
X0176551Y0345987D01*
X0176551Y0345403D01*
X0178303Y0346571D02*
X0178886Y0347155D01*
X0178886Y0347739D01*
X0178303Y0348323D01*
X0177135Y0348323D01*
X0176551Y0347739D01*
X0176702Y0338323D02*
X0176702Y0334820D01*
X0177286Y0334820D02*
X0176118Y0334820D01*
X0174830Y0334820D02*
X0174830Y0338323D01*
X0172495Y0334820D01*
X0172495Y0338323D01*
X0171147Y0338323D02*
X0168812Y0338323D01*
X0169980Y0338323D02*
X0169980Y0334820D01*
X0167464Y0334820D02*
X0165129Y0334820D01*
X0166296Y0334820D02*
X0166296Y0338323D01*
X0167464Y0337155D01*
X0176118Y0338323D02*
X0177286Y0338323D01*
X0178634Y0338323D02*
X0180969Y0338323D01*
X0179801Y0338323D02*
X0179801Y0334820D01*
X0182317Y0334820D02*
X0184652Y0338323D01*
X0186000Y0338323D02*
X0188335Y0338323D01*
X0188335Y0334820D01*
X0186000Y0334820D01*
X0184652Y0334820D02*
X0182317Y0338323D01*
X0187168Y0336571D02*
X0188335Y0336571D01*
X0188806Y0328323D02*
X0189974Y0328323D01*
X0190558Y0327739D01*
X0190558Y0327155D01*
X0189974Y0326571D01*
X0188806Y0326571D01*
X0188222Y0325987D01*
X0188222Y0325403D01*
X0188806Y0324820D01*
X0189974Y0324820D01*
X0190558Y0325403D01*
X0191905Y0325403D02*
X0191905Y0328323D01*
X0194241Y0328323D02*
X0194241Y0325403D01*
X0193657Y0324820D01*
X0192489Y0324820D01*
X0191905Y0325403D01*
X0188806Y0328323D02*
X0188222Y0327739D01*
X0186875Y0328323D02*
X0186875Y0324820D01*
X0184539Y0324820D01*
X0183191Y0324820D02*
X0183191Y0328323D01*
X0181440Y0328323D01*
X0180856Y0327739D01*
X0180856Y0326571D01*
X0181440Y0325987D01*
X0183191Y0325987D01*
X0182024Y0325987D02*
X0180856Y0324820D01*
X0179508Y0324236D02*
X0177173Y0324236D01*
X0175825Y0324820D02*
X0173490Y0324820D01*
X0172142Y0324820D02*
X0169807Y0324820D01*
X0168459Y0324820D02*
X0166707Y0324820D01*
X0166123Y0325403D01*
X0166123Y0327739D01*
X0166707Y0328323D01*
X0168459Y0328323D01*
X0168459Y0324820D01*
X0170974Y0326571D02*
X0172142Y0326571D01*
X0172142Y0324820D02*
X0172142Y0328323D01*
X0169807Y0328323D01*
X0175825Y0328323D02*
X0175825Y0324820D01*
X0175825Y0318323D02*
X0174074Y0318323D01*
X0173490Y0317739D01*
X0173490Y0317155D01*
X0174074Y0316571D01*
X0175825Y0316571D01*
X0174074Y0316571D02*
X0173490Y0315987D01*
X0173490Y0315403D01*
X0174074Y0314820D01*
X0175825Y0314820D01*
X0175825Y0318323D01*
X0172142Y0318323D02*
X0169807Y0318323D01*
X0170974Y0318323D02*
X0170974Y0314820D01*
X0168459Y0314820D02*
X0168459Y0318323D01*
X0166123Y0314820D01*
X0166123Y0318323D01*
X0167935Y0308323D02*
X0167351Y0307739D01*
X0167351Y0305403D01*
X0167935Y0304820D01*
X0169103Y0304820D01*
X0169687Y0305403D01*
X0169687Y0307739D01*
X0169103Y0308323D01*
X0167935Y0308323D01*
X0170974Y0308323D02*
X0172142Y0308323D01*
X0171558Y0308323D02*
X0171558Y0304820D01*
X0172142Y0304820D02*
X0170974Y0304820D01*
X0173490Y0306571D02*
X0174074Y0305987D01*
X0175825Y0305987D01*
X0175825Y0304820D02*
X0175825Y0308323D01*
X0174074Y0308323D01*
X0173490Y0307739D01*
X0173490Y0306571D01*
X0177173Y0306571D02*
X0177173Y0305403D01*
X0177757Y0304820D01*
X0178924Y0304820D01*
X0179508Y0305403D01*
X0179508Y0307739D01*
X0178924Y0308323D01*
X0177757Y0308323D01*
X0177173Y0307739D01*
X0177173Y0306571D02*
X0178341Y0306571D01*
X0180856Y0304236D02*
X0183191Y0304236D01*
X0185707Y0306571D02*
X0186875Y0306571D01*
X0188222Y0306571D02*
X0188806Y0305987D01*
X0190558Y0305987D01*
X0190558Y0304820D02*
X0190558Y0308323D01*
X0188806Y0308323D01*
X0188222Y0307739D01*
X0188222Y0306571D01*
X0189390Y0305987D02*
X0188222Y0304820D01*
X0186875Y0304820D02*
X0186875Y0308323D01*
X0184539Y0308323D01*
X0184539Y0314820D02*
X0186875Y0314820D01*
X0186875Y0318323D01*
X0184539Y0318323D01*
X0183191Y0318323D02*
X0183191Y0314820D01*
X0183191Y0315987D02*
X0181440Y0315987D01*
X0180856Y0316571D01*
X0180856Y0317739D01*
X0181440Y0318323D01*
X0183191Y0318323D01*
X0182024Y0315987D02*
X0180856Y0314820D01*
X0179508Y0314236D02*
X0177173Y0314236D01*
X0185707Y0316571D02*
X0186875Y0316571D01*
X0188222Y0315987D02*
X0188222Y0315403D01*
X0188806Y0314820D01*
X0189974Y0314820D01*
X0190558Y0315403D01*
X0189974Y0316571D02*
X0188806Y0316571D01*
X0188222Y0315987D01*
X0188222Y0317739D02*
X0188806Y0318323D01*
X0189974Y0318323D01*
X0190558Y0317739D01*
X0190558Y0317155D01*
X0189974Y0316571D01*
X0191905Y0315403D02*
X0191905Y0318323D01*
X0194241Y0318323D02*
X0194241Y0315403D01*
X0193657Y0314820D01*
X0192489Y0314820D01*
X0191905Y0315403D01*
X0191905Y0308323D02*
X0191905Y0304820D01*
X0194241Y0308323D01*
X0194241Y0304820D01*
X0176524Y0297739D02*
X0176524Y0295403D01*
X0175940Y0294820D01*
X0174773Y0294820D01*
X0174189Y0295403D01*
X0174189Y0296571D01*
X0175357Y0296571D01*
X0176524Y0297739D02*
X0175940Y0298323D01*
X0174773Y0298323D01*
X0174189Y0297739D01*
X0172841Y0298323D02*
X0170506Y0294820D01*
X0170506Y0298323D01*
X0169158Y0298323D02*
X0169158Y0294820D01*
X0167406Y0294820D01*
X0166823Y0295403D01*
X0166823Y0297739D01*
X0167406Y0298323D01*
X0169158Y0298323D01*
X0172841Y0298323D02*
X0172841Y0294820D01*
X0172841Y0288323D02*
X0170506Y0284820D01*
X0170506Y0288323D01*
X0169158Y0288323D02*
X0169158Y0284820D01*
X0167406Y0284820D01*
X0166823Y0285403D01*
X0166823Y0287739D01*
X0167406Y0288323D01*
X0169158Y0288323D01*
X0172841Y0288323D02*
X0172841Y0284820D01*
X0174189Y0285403D02*
X0174189Y0286571D01*
X0175357Y0286571D01*
X0176524Y0285403D02*
X0175940Y0284820D01*
X0174773Y0284820D01*
X0174189Y0285403D01*
X0176524Y0285403D02*
X0176524Y0287739D01*
X0175940Y0288323D01*
X0174773Y0288323D01*
X0174189Y0287739D01*
X0174189Y0278323D02*
X0176524Y0278323D01*
X0176524Y0274820D01*
X0176524Y0276571D02*
X0175357Y0276571D01*
X0172841Y0278323D02*
X0170506Y0278323D01*
X0171673Y0278323D02*
X0171673Y0274820D01*
X0169158Y0274820D02*
X0166823Y0274820D01*
X0167990Y0274820D02*
X0167990Y0278323D01*
X0169158Y0277155D01*
X0168574Y0268323D02*
X0167406Y0268323D01*
X0166823Y0267739D01*
X0166823Y0267155D01*
X0167406Y0266571D01*
X0166823Y0265987D01*
X0166823Y0265403D01*
X0167406Y0264820D01*
X0168574Y0264820D01*
X0169158Y0265403D01*
X0167990Y0266571D02*
X0167406Y0266571D01*
X0169158Y0267739D02*
X0168574Y0268323D01*
X0170506Y0268323D02*
X0172841Y0268323D01*
X0171673Y0268323D02*
X0171673Y0264820D01*
X0175357Y0266571D02*
X0176524Y0266571D01*
X0176524Y0264820D02*
X0176524Y0268323D01*
X0174189Y0268323D01*
X0177001Y0247470D02*
X0178168Y0246302D01*
X0178168Y0246886D02*
X0178168Y0245135D01*
X0177001Y0245135D02*
X0180504Y0245135D01*
X0180504Y0246886D01*
X0179920Y0247470D01*
X0178752Y0247470D01*
X0178168Y0246886D01*
X0180110Y0236840D02*
X0180110Y0234505D01*
X0180110Y0235672D02*
X0176607Y0235672D01*
X0176607Y0226997D02*
X0180110Y0226997D01*
X0178942Y0225830D01*
X0180110Y0224662D01*
X0176607Y0224662D01*
X0177191Y0217155D02*
X0176607Y0216571D01*
X0176607Y0215403D01*
X0177191Y0214820D01*
X0178358Y0215403D02*
X0178358Y0216571D01*
X0177775Y0217155D01*
X0177191Y0217155D01*
X0178358Y0215403D02*
X0178942Y0214820D01*
X0179526Y0214820D01*
X0180110Y0215403D01*
X0180110Y0216571D01*
X0179526Y0217155D01*
X0180110Y0207312D02*
X0176607Y0207312D01*
X0180110Y0204977D01*
X0176607Y0204977D01*
X0199215Y0228940D02*
X0199215Y0242719D01*
X0207089Y0242719D01*
X0207089Y0228940D01*
X0199215Y0228940D01*
X0207168Y0228940D02*
X0207168Y0242719D01*
X0215042Y0242719D01*
X0215042Y0228940D01*
X0207168Y0228940D01*
X0141406Y0264820D02*
X0141406Y0268323D01*
X0139071Y0268323D01*
X0137723Y0268323D02*
X0135388Y0268323D01*
X0136555Y0268323D02*
X0136555Y0264820D01*
X0134040Y0264820D02*
X0131705Y0267155D01*
X0131705Y0267739D01*
X0132288Y0268323D01*
X0133456Y0268323D01*
X0134040Y0267739D01*
X0134040Y0264820D02*
X0131705Y0264820D01*
X0140239Y0266571D02*
X0141406Y0266571D01*
X0141012Y0275213D02*
X0141012Y0278716D01*
X0138677Y0278716D01*
X0137329Y0278716D02*
X0134994Y0278716D01*
X0136162Y0278716D02*
X0136162Y0275213D01*
X0133646Y0275797D02*
X0131311Y0278132D01*
X0131311Y0275797D01*
X0131895Y0275213D01*
X0133062Y0275213D01*
X0133646Y0275797D01*
X0133646Y0278132D01*
X0133062Y0278716D01*
X0131895Y0278716D01*
X0131311Y0278132D01*
X0131311Y0284032D02*
X0132479Y0285200D01*
X0131895Y0285200D02*
X0133646Y0285200D01*
X0133646Y0284032D02*
X0133646Y0287535D01*
X0131895Y0287535D01*
X0131311Y0286951D01*
X0131311Y0285784D01*
X0131895Y0285200D01*
X0130213Y0288532D02*
X0141262Y0288532D01*
X0141012Y0287535D02*
X0139261Y0287535D01*
X0138677Y0286951D01*
X0138677Y0284616D01*
X0139261Y0284032D01*
X0141012Y0284032D01*
X0141012Y0287535D01*
X0137329Y0287535D02*
X0134994Y0287535D01*
X0136162Y0287535D02*
X0136162Y0284032D01*
X0139845Y0276965D02*
X0141012Y0276965D01*
X0140429Y0294820D02*
X0141012Y0295403D01*
X0140429Y0294820D02*
X0139261Y0294820D01*
X0138677Y0295403D01*
X0138677Y0295987D01*
X0139261Y0296571D01*
X0140429Y0296571D01*
X0141012Y0297155D01*
X0141012Y0297739D01*
X0140429Y0298323D01*
X0139261Y0298323D01*
X0138677Y0297739D01*
X0137329Y0297739D02*
X0137329Y0295403D01*
X0136745Y0294820D01*
X0135578Y0294820D01*
X0134994Y0295403D01*
X0133646Y0294820D02*
X0133646Y0298323D01*
X0134994Y0297739D02*
X0135578Y0298323D01*
X0136745Y0298323D01*
X0137329Y0297739D01*
X0133646Y0295987D02*
X0131311Y0298323D01*
X0133062Y0296571D02*
X0131311Y0294820D01*
X0131895Y0304820D02*
X0133062Y0304820D01*
X0133646Y0305403D01*
X0133062Y0306571D02*
X0131895Y0306571D01*
X0131311Y0305987D01*
X0131311Y0305403D01*
X0131895Y0304820D01*
X0129963Y0304820D02*
X0128795Y0304820D01*
X0129379Y0304820D02*
X0129379Y0308323D01*
X0129963Y0308323D02*
X0128795Y0308323D01*
X0131311Y0307739D02*
X0131895Y0308323D01*
X0133062Y0308323D01*
X0133646Y0307739D01*
X0133646Y0307155D01*
X0133062Y0306571D01*
X0134994Y0305403D02*
X0134994Y0307739D01*
X0135578Y0308323D01*
X0136745Y0308323D01*
X0137329Y0307739D01*
X0137329Y0305403D01*
X0136745Y0304820D01*
X0135578Y0304820D01*
X0134994Y0305403D01*
X0138677Y0304820D02*
X0138677Y0308323D01*
X0139845Y0307155D01*
X0141012Y0308323D01*
X0141012Y0304820D01*
X0141800Y0315213D02*
X0141800Y0318716D01*
X0140632Y0317549D01*
X0139465Y0318716D01*
X0139465Y0315213D01*
X0138117Y0315213D02*
X0136949Y0315213D01*
X0137533Y0315213D02*
X0137533Y0318716D01*
X0138117Y0318716D02*
X0136949Y0318716D01*
X0135661Y0318132D02*
X0135661Y0317549D01*
X0135077Y0316965D01*
X0133910Y0316965D01*
X0133326Y0316381D01*
X0133326Y0315797D01*
X0133910Y0315213D01*
X0135077Y0315213D01*
X0135661Y0315797D01*
X0135661Y0318132D02*
X0135077Y0318716D01*
X0133910Y0318716D01*
X0133326Y0318132D01*
X0131978Y0318132D02*
X0131978Y0315797D01*
X0131394Y0315213D01*
X0130227Y0315213D01*
X0129643Y0315797D01*
X0129643Y0318132D01*
X0130227Y0318716D01*
X0131394Y0318716D01*
X0131978Y0318132D01*
X0132682Y0324820D02*
X0133850Y0324820D01*
X0134434Y0325403D01*
X0132098Y0327739D01*
X0132098Y0325403D01*
X0132682Y0324820D01*
X0134434Y0325403D02*
X0134434Y0327739D01*
X0133850Y0328323D01*
X0132682Y0328323D01*
X0132098Y0327739D01*
X0131000Y0329320D02*
X0142050Y0329320D01*
X0141216Y0328323D02*
X0141800Y0327739D01*
X0141800Y0325403D01*
X0141216Y0324820D01*
X0140048Y0324820D01*
X0139465Y0325403D01*
X0138117Y0325403D02*
X0137533Y0324820D01*
X0136365Y0324820D01*
X0135781Y0325403D01*
X0135781Y0325987D01*
X0136365Y0326571D01*
X0137533Y0326571D01*
X0138117Y0327155D01*
X0138117Y0327739D01*
X0137533Y0328323D01*
X0136365Y0328323D01*
X0135781Y0327739D01*
X0139465Y0327739D02*
X0140048Y0328323D01*
X0141216Y0328323D01*
X0141216Y0334820D02*
X0140048Y0334820D01*
X0139465Y0335403D01*
X0138117Y0335403D02*
X0137533Y0334820D01*
X0136365Y0334820D01*
X0135781Y0335403D01*
X0135781Y0335987D01*
X0136365Y0336571D01*
X0137533Y0336571D01*
X0138117Y0337155D01*
X0138117Y0337739D01*
X0137533Y0338323D01*
X0136365Y0338323D01*
X0135781Y0337739D01*
X0134434Y0337155D02*
X0133266Y0338323D01*
X0133266Y0334820D01*
X0134434Y0334820D02*
X0132098Y0334820D01*
X0131000Y0339320D02*
X0142050Y0339320D01*
X0141216Y0338323D02*
X0141800Y0337739D01*
X0141800Y0335403D01*
X0141216Y0334820D01*
X0139465Y0337739D02*
X0140048Y0338323D01*
X0141216Y0338323D01*
X0141216Y0344820D02*
X0140048Y0344820D01*
X0139465Y0345403D01*
X0138117Y0345403D02*
X0137533Y0344820D01*
X0136365Y0344820D01*
X0135781Y0345403D01*
X0135781Y0345987D01*
X0136365Y0346571D01*
X0137533Y0346571D01*
X0138117Y0347155D01*
X0138117Y0347739D01*
X0137533Y0348323D01*
X0136365Y0348323D01*
X0135781Y0347739D01*
X0134434Y0347739D02*
X0133850Y0348323D01*
X0132682Y0348323D01*
X0132098Y0347739D01*
X0132098Y0347155D01*
X0132682Y0346571D01*
X0132098Y0345987D01*
X0132098Y0345403D01*
X0132682Y0344820D01*
X0133850Y0344820D01*
X0134434Y0345403D01*
X0133266Y0346571D02*
X0132682Y0346571D01*
X0131000Y0349320D02*
X0142050Y0349320D01*
X0141216Y0348323D02*
X0141800Y0347739D01*
X0141800Y0345403D01*
X0141216Y0344820D01*
X0139465Y0347739D02*
X0140048Y0348323D01*
X0141216Y0348323D01*
X0141216Y0354820D02*
X0140048Y0354820D01*
X0139465Y0355403D01*
X0138117Y0355403D02*
X0137533Y0354820D01*
X0136365Y0354820D01*
X0135781Y0355403D01*
X0135781Y0355987D01*
X0136365Y0356571D01*
X0137533Y0356571D01*
X0138117Y0357155D01*
X0138117Y0357739D01*
X0137533Y0358323D01*
X0136365Y0358323D01*
X0135781Y0357739D01*
X0134434Y0357739D02*
X0133850Y0358323D01*
X0132682Y0358323D01*
X0132098Y0357739D01*
X0132098Y0357155D01*
X0134434Y0354820D01*
X0132098Y0354820D01*
X0131000Y0359320D02*
X0142050Y0359320D01*
X0141216Y0358323D02*
X0141800Y0357739D01*
X0141800Y0355403D01*
X0141216Y0354820D01*
X0139465Y0357739D02*
X0140048Y0358323D01*
X0141216Y0358323D01*
X0184539Y0328323D02*
X0186875Y0328323D01*
X0186875Y0326571D02*
X0185707Y0326571D01*
X0133073Y0246656D02*
X0125199Y0246656D01*
X0125199Y0232877D01*
X0133073Y0232877D01*
X0133073Y0246656D01*
X0105318Y0262995D02*
X0091538Y0262995D01*
X0091538Y0270869D01*
X0105318Y0270869D01*
X0105318Y0262995D01*
X0105318Y0282680D02*
X0091538Y0282680D01*
X0091538Y0290554D01*
X0105318Y0290554D01*
X0105318Y0282680D01*
X0249353Y0413940D02*
X0249353Y0427719D01*
X0257227Y0427719D01*
X0257227Y0413940D01*
X0249353Y0413940D01*
X0276577Y0434451D02*
X0290357Y0434451D01*
X0290357Y0442325D01*
X0276577Y0442325D01*
X0276577Y0434451D01*
X0299609Y0431696D02*
X0299609Y0417916D01*
X0307483Y0417916D01*
X0307483Y0431696D01*
X0299609Y0431696D01*
X0300593Y0412601D02*
X0304530Y0412601D01*
X0300593Y0412601D02*
X0300593Y0410633D01*
X0310436Y0412601D02*
X0314373Y0412601D01*
X0314373Y0410633D01*
X0314373Y0398822D02*
X0314373Y0396853D01*
X0310436Y0396853D01*
X0304530Y0396853D02*
X0300593Y0396853D01*
X0300593Y0398822D01*
X0299373Y0394885D02*
X0299375Y0394947D01*
X0299381Y0395010D01*
X0299391Y0395071D01*
X0299405Y0395132D01*
X0299422Y0395192D01*
X0299443Y0395251D01*
X0299469Y0395308D01*
X0299497Y0395363D01*
X0299529Y0395417D01*
X0299565Y0395468D01*
X0299603Y0395518D01*
X0299645Y0395564D01*
X0299689Y0395608D01*
X0299737Y0395649D01*
X0299786Y0395687D01*
X0299838Y0395721D01*
X0299892Y0395752D01*
X0299948Y0395780D01*
X0300006Y0395804D01*
X0300065Y0395825D01*
X0300125Y0395841D01*
X0300186Y0395854D01*
X0300248Y0395863D01*
X0300310Y0395868D01*
X0300373Y0395869D01*
X0300435Y0395866D01*
X0300497Y0395859D01*
X0300559Y0395848D01*
X0300619Y0395833D01*
X0300679Y0395815D01*
X0300737Y0395793D01*
X0300794Y0395767D01*
X0300849Y0395737D01*
X0300902Y0395704D01*
X0300953Y0395668D01*
X0301001Y0395629D01*
X0301047Y0395586D01*
X0301090Y0395541D01*
X0301130Y0395493D01*
X0301167Y0395443D01*
X0301201Y0395390D01*
X0301232Y0395336D01*
X0301258Y0395280D01*
X0301282Y0395222D01*
X0301301Y0395162D01*
X0301317Y0395102D01*
X0301329Y0395040D01*
X0301337Y0394979D01*
X0301341Y0394916D01*
X0301341Y0394854D01*
X0301337Y0394791D01*
X0301329Y0394730D01*
X0301317Y0394668D01*
X0301301Y0394608D01*
X0301282Y0394548D01*
X0301258Y0394490D01*
X0301232Y0394434D01*
X0301201Y0394380D01*
X0301167Y0394327D01*
X0301130Y0394277D01*
X0301090Y0394229D01*
X0301047Y0394184D01*
X0301001Y0394141D01*
X0300953Y0394102D01*
X0300902Y0394066D01*
X0300849Y0394033D01*
X0300794Y0394003D01*
X0300737Y0393977D01*
X0300679Y0393955D01*
X0300619Y0393937D01*
X0300559Y0393922D01*
X0300497Y0393911D01*
X0300435Y0393904D01*
X0300373Y0393901D01*
X0300310Y0393902D01*
X0300248Y0393907D01*
X0300186Y0393916D01*
X0300125Y0393929D01*
X0300065Y0393945D01*
X0300006Y0393966D01*
X0299948Y0393990D01*
X0299892Y0394018D01*
X0299838Y0394049D01*
X0299786Y0394083D01*
X0299737Y0394121D01*
X0299689Y0394162D01*
X0299645Y0394206D01*
X0299603Y0394252D01*
X0299565Y0394302D01*
X0299529Y0394353D01*
X0299497Y0394407D01*
X0299469Y0394462D01*
X0299443Y0394519D01*
X0299422Y0394578D01*
X0299405Y0394638D01*
X0299391Y0394699D01*
X0299381Y0394760D01*
X0299375Y0394823D01*
X0299373Y0394885D01*
X0273034Y0339963D02*
X0265160Y0339963D01*
X0265160Y0326184D01*
X0273034Y0326184D01*
X0273034Y0339963D01*
X0282127Y0314467D02*
X0272384Y0304723D01*
X0277951Y0299155D01*
X0287695Y0308899D01*
X0282127Y0314467D01*
X0297835Y0298332D02*
X0303403Y0292765D01*
X0313146Y0302508D01*
X0307578Y0308076D01*
X0297835Y0298332D01*
X0325199Y0249412D02*
X0338979Y0249412D01*
X0338979Y0241538D01*
X0325199Y0241538D01*
X0325199Y0249412D01*
X0363585Y0180514D02*
X0363585Y0172640D01*
X0377365Y0172640D01*
X0377365Y0180514D01*
X0363585Y0180514D01*
X0364570Y0170672D02*
X0378349Y0170672D01*
X0378349Y0162798D01*
X0364570Y0162798D01*
X0364570Y0170672D01*
X0367522Y0160829D02*
X0367522Y0147050D01*
X0375396Y0147050D01*
X0375396Y0160829D01*
X0367522Y0160829D01*
X0366538Y0138192D02*
X0358664Y0138192D01*
X0358664Y0124412D01*
X0366538Y0124412D01*
X0366538Y0138192D01*
X0364570Y0422640D02*
X0372444Y0422640D01*
X0372444Y0436420D01*
X0364570Y0436420D01*
X0364570Y0422640D01*
X0379333Y0462995D02*
X0393113Y0462995D01*
X0393113Y0470869D01*
X0379333Y0470869D01*
X0379333Y0462995D01*
X0379333Y0470869D02*
X0393113Y0470869D01*
X0393113Y0478743D01*
X0379333Y0478743D01*
X0379333Y0470869D01*
D16*
X0387129Y0405630D02*
X0387129Y0402249D01*
X0391072Y0401149D02*
X0393185Y0401149D01*
X0397129Y0402249D02*
X0397129Y0405630D01*
X0297444Y0424018D02*
X0297444Y0426381D01*
X0291341Y0431499D02*
X0283861Y0431499D01*
X0277759Y0426381D02*
X0277759Y0424018D01*
X0283861Y0418900D02*
X0291341Y0418900D01*
X0174198Y0250892D02*
X0167698Y0250892D01*
X0167638Y0250890D01*
X0167577Y0250885D01*
X0167518Y0250876D01*
X0167459Y0250863D01*
X0167400Y0250847D01*
X0167343Y0250827D01*
X0167288Y0250804D01*
X0167233Y0250777D01*
X0167181Y0250748D01*
X0167130Y0250715D01*
X0167081Y0250679D01*
X0167035Y0250641D01*
X0166991Y0250599D01*
X0166949Y0250555D01*
X0166911Y0250509D01*
X0166875Y0250460D01*
X0166842Y0250409D01*
X0166813Y0250357D01*
X0166786Y0250302D01*
X0166763Y0250247D01*
X0166743Y0250190D01*
X0166727Y0250131D01*
X0166714Y0250072D01*
X0166705Y0250013D01*
X0166700Y0249952D01*
X0166698Y0249892D01*
X0166698Y0243892D02*
X0166700Y0243832D01*
X0166705Y0243771D01*
X0166714Y0243712D01*
X0166727Y0243653D01*
X0166743Y0243594D01*
X0166763Y0243537D01*
X0166786Y0243482D01*
X0166813Y0243427D01*
X0166842Y0243375D01*
X0166875Y0243324D01*
X0166911Y0243275D01*
X0166949Y0243229D01*
X0166991Y0243185D01*
X0167035Y0243143D01*
X0167081Y0243105D01*
X0167130Y0243069D01*
X0167181Y0243036D01*
X0167233Y0243007D01*
X0167288Y0242980D01*
X0167343Y0242957D01*
X0167400Y0242937D01*
X0167459Y0242921D01*
X0167518Y0242908D01*
X0167577Y0242899D01*
X0167638Y0242894D01*
X0167698Y0242892D01*
X0174198Y0242892D01*
X0174258Y0242894D01*
X0174319Y0242899D01*
X0174378Y0242908D01*
X0174437Y0242921D01*
X0174496Y0242937D01*
X0174553Y0242957D01*
X0174608Y0242980D01*
X0174663Y0243007D01*
X0174715Y0243036D01*
X0174766Y0243069D01*
X0174815Y0243105D01*
X0174861Y0243143D01*
X0174905Y0243185D01*
X0174947Y0243229D01*
X0174985Y0243275D01*
X0175021Y0243324D01*
X0175054Y0243375D01*
X0175083Y0243427D01*
X0175110Y0243482D01*
X0175133Y0243537D01*
X0175153Y0243594D01*
X0175169Y0243653D01*
X0175182Y0243712D01*
X0175191Y0243771D01*
X0175196Y0243832D01*
X0175198Y0243892D01*
X0174316Y0239239D02*
X0167816Y0239239D01*
X0167756Y0239237D01*
X0167695Y0239232D01*
X0167636Y0239223D01*
X0167577Y0239210D01*
X0167518Y0239194D01*
X0167461Y0239174D01*
X0167406Y0239151D01*
X0167351Y0239124D01*
X0167299Y0239095D01*
X0167248Y0239062D01*
X0167199Y0239026D01*
X0167153Y0238988D01*
X0167109Y0238946D01*
X0167067Y0238902D01*
X0167029Y0238856D01*
X0166993Y0238807D01*
X0166960Y0238756D01*
X0166931Y0238704D01*
X0166904Y0238649D01*
X0166881Y0238594D01*
X0166861Y0238537D01*
X0166845Y0238478D01*
X0166832Y0238419D01*
X0166823Y0238360D01*
X0166818Y0238299D01*
X0166816Y0238239D01*
X0166816Y0232239D02*
X0166818Y0232179D01*
X0166823Y0232118D01*
X0166832Y0232059D01*
X0166845Y0232000D01*
X0166861Y0231941D01*
X0166881Y0231884D01*
X0166904Y0231829D01*
X0166931Y0231774D01*
X0166960Y0231722D01*
X0166993Y0231671D01*
X0167029Y0231622D01*
X0167067Y0231576D01*
X0167109Y0231532D01*
X0167153Y0231490D01*
X0167199Y0231452D01*
X0167248Y0231416D01*
X0167299Y0231383D01*
X0167351Y0231354D01*
X0167406Y0231327D01*
X0167461Y0231304D01*
X0167518Y0231284D01*
X0167577Y0231268D01*
X0167636Y0231255D01*
X0167695Y0231246D01*
X0167756Y0231241D01*
X0167816Y0231239D01*
X0174316Y0231239D01*
X0174376Y0231241D01*
X0174437Y0231246D01*
X0174496Y0231255D01*
X0174555Y0231268D01*
X0174614Y0231284D01*
X0174671Y0231304D01*
X0174726Y0231327D01*
X0174781Y0231354D01*
X0174833Y0231383D01*
X0174884Y0231416D01*
X0174933Y0231452D01*
X0174979Y0231490D01*
X0175023Y0231532D01*
X0175065Y0231576D01*
X0175103Y0231622D01*
X0175139Y0231671D01*
X0175172Y0231722D01*
X0175201Y0231774D01*
X0175228Y0231829D01*
X0175251Y0231884D01*
X0175271Y0231941D01*
X0175287Y0232000D01*
X0175300Y0232059D01*
X0175309Y0232118D01*
X0175314Y0232179D01*
X0175316Y0232239D01*
X0174473Y0229514D02*
X0167973Y0229514D01*
X0167913Y0229512D01*
X0167852Y0229507D01*
X0167793Y0229498D01*
X0167734Y0229485D01*
X0167675Y0229469D01*
X0167618Y0229449D01*
X0167563Y0229426D01*
X0167508Y0229399D01*
X0167456Y0229370D01*
X0167405Y0229337D01*
X0167356Y0229301D01*
X0167310Y0229263D01*
X0167266Y0229221D01*
X0167224Y0229177D01*
X0167186Y0229131D01*
X0167150Y0229082D01*
X0167117Y0229031D01*
X0167088Y0228979D01*
X0167061Y0228924D01*
X0167038Y0228869D01*
X0167018Y0228812D01*
X0167002Y0228753D01*
X0166989Y0228694D01*
X0166980Y0228635D01*
X0166975Y0228574D01*
X0166973Y0228514D01*
X0166973Y0222514D02*
X0166975Y0222454D01*
X0166980Y0222393D01*
X0166989Y0222334D01*
X0167002Y0222275D01*
X0167018Y0222216D01*
X0167038Y0222159D01*
X0167061Y0222104D01*
X0167088Y0222049D01*
X0167117Y0221997D01*
X0167150Y0221946D01*
X0167186Y0221897D01*
X0167224Y0221851D01*
X0167266Y0221807D01*
X0167310Y0221765D01*
X0167356Y0221727D01*
X0167405Y0221691D01*
X0167456Y0221658D01*
X0167508Y0221629D01*
X0167563Y0221602D01*
X0167618Y0221579D01*
X0167675Y0221559D01*
X0167734Y0221543D01*
X0167793Y0221530D01*
X0167852Y0221521D01*
X0167913Y0221516D01*
X0167973Y0221514D01*
X0174473Y0221514D01*
X0174533Y0221516D01*
X0174594Y0221521D01*
X0174653Y0221530D01*
X0174712Y0221543D01*
X0174771Y0221559D01*
X0174828Y0221579D01*
X0174883Y0221602D01*
X0174938Y0221629D01*
X0174990Y0221658D01*
X0175041Y0221691D01*
X0175090Y0221727D01*
X0175136Y0221765D01*
X0175180Y0221807D01*
X0175222Y0221851D01*
X0175260Y0221897D01*
X0175296Y0221946D01*
X0175329Y0221997D01*
X0175358Y0222049D01*
X0175385Y0222104D01*
X0175408Y0222159D01*
X0175428Y0222216D01*
X0175444Y0222275D01*
X0175457Y0222334D01*
X0175466Y0222393D01*
X0175471Y0222454D01*
X0175473Y0222514D01*
X0174512Y0219987D02*
X0168012Y0219987D01*
X0167952Y0219985D01*
X0167891Y0219980D01*
X0167832Y0219971D01*
X0167773Y0219958D01*
X0167714Y0219942D01*
X0167657Y0219922D01*
X0167602Y0219899D01*
X0167547Y0219872D01*
X0167495Y0219843D01*
X0167444Y0219810D01*
X0167395Y0219774D01*
X0167349Y0219736D01*
X0167305Y0219694D01*
X0167263Y0219650D01*
X0167225Y0219604D01*
X0167189Y0219555D01*
X0167156Y0219504D01*
X0167127Y0219452D01*
X0167100Y0219397D01*
X0167077Y0219342D01*
X0167057Y0219285D01*
X0167041Y0219226D01*
X0167028Y0219167D01*
X0167019Y0219108D01*
X0167014Y0219047D01*
X0167012Y0218987D01*
X0174512Y0219987D02*
X0174572Y0219985D01*
X0174633Y0219980D01*
X0174692Y0219971D01*
X0174751Y0219958D01*
X0174810Y0219942D01*
X0174867Y0219922D01*
X0174922Y0219899D01*
X0174977Y0219872D01*
X0175029Y0219843D01*
X0175080Y0219810D01*
X0175129Y0219774D01*
X0175175Y0219736D01*
X0175219Y0219694D01*
X0175261Y0219650D01*
X0175299Y0219604D01*
X0175335Y0219555D01*
X0175368Y0219504D01*
X0175397Y0219452D01*
X0175424Y0219397D01*
X0175447Y0219342D01*
X0175467Y0219285D01*
X0175483Y0219226D01*
X0175496Y0219167D01*
X0175505Y0219108D01*
X0175510Y0219047D01*
X0175512Y0218987D01*
X0175473Y0228514D02*
X0175471Y0228574D01*
X0175466Y0228635D01*
X0175457Y0228694D01*
X0175444Y0228753D01*
X0175428Y0228812D01*
X0175408Y0228869D01*
X0175385Y0228924D01*
X0175358Y0228979D01*
X0175329Y0229031D01*
X0175296Y0229082D01*
X0175260Y0229131D01*
X0175222Y0229177D01*
X0175180Y0229221D01*
X0175136Y0229263D01*
X0175090Y0229301D01*
X0175041Y0229337D01*
X0174990Y0229370D01*
X0174938Y0229399D01*
X0174883Y0229426D01*
X0174828Y0229449D01*
X0174771Y0229469D01*
X0174712Y0229485D01*
X0174653Y0229498D01*
X0174594Y0229507D01*
X0174533Y0229512D01*
X0174473Y0229514D01*
X0175316Y0238239D02*
X0175314Y0238299D01*
X0175309Y0238360D01*
X0175300Y0238419D01*
X0175287Y0238478D01*
X0175271Y0238537D01*
X0175251Y0238594D01*
X0175228Y0238649D01*
X0175201Y0238704D01*
X0175172Y0238756D01*
X0175139Y0238807D01*
X0175103Y0238856D01*
X0175065Y0238902D01*
X0175023Y0238946D01*
X0174979Y0238988D01*
X0174933Y0239026D01*
X0174884Y0239062D01*
X0174833Y0239095D01*
X0174781Y0239124D01*
X0174726Y0239151D01*
X0174671Y0239174D01*
X0174614Y0239194D01*
X0174555Y0239210D01*
X0174496Y0239223D01*
X0174437Y0239232D01*
X0174376Y0239237D01*
X0174316Y0239239D01*
X0175198Y0249892D02*
X0175196Y0249952D01*
X0175191Y0250013D01*
X0175182Y0250072D01*
X0175169Y0250131D01*
X0175153Y0250190D01*
X0175133Y0250247D01*
X0175110Y0250302D01*
X0175083Y0250357D01*
X0175054Y0250409D01*
X0175021Y0250460D01*
X0174985Y0250509D01*
X0174947Y0250555D01*
X0174905Y0250599D01*
X0174861Y0250641D01*
X0174815Y0250679D01*
X0174766Y0250715D01*
X0174715Y0250748D01*
X0174663Y0250777D01*
X0174608Y0250804D01*
X0174553Y0250827D01*
X0174496Y0250847D01*
X0174437Y0250863D01*
X0174378Y0250876D01*
X0174319Y0250885D01*
X0174258Y0250890D01*
X0174198Y0250892D01*
X0175512Y0212987D02*
X0175510Y0212927D01*
X0175505Y0212866D01*
X0175496Y0212807D01*
X0175483Y0212748D01*
X0175467Y0212689D01*
X0175447Y0212632D01*
X0175424Y0212577D01*
X0175397Y0212522D01*
X0175368Y0212470D01*
X0175335Y0212419D01*
X0175299Y0212370D01*
X0175261Y0212324D01*
X0175219Y0212280D01*
X0175175Y0212238D01*
X0175129Y0212200D01*
X0175080Y0212164D01*
X0175029Y0212131D01*
X0174977Y0212102D01*
X0174922Y0212075D01*
X0174867Y0212052D01*
X0174810Y0212032D01*
X0174751Y0212016D01*
X0174692Y0212003D01*
X0174633Y0211994D01*
X0174572Y0211989D01*
X0174512Y0211987D01*
X0168012Y0211987D01*
X0167952Y0211989D01*
X0167891Y0211994D01*
X0167832Y0212003D01*
X0167773Y0212016D01*
X0167714Y0212032D01*
X0167657Y0212052D01*
X0167602Y0212075D01*
X0167547Y0212102D01*
X0167495Y0212131D01*
X0167444Y0212164D01*
X0167395Y0212200D01*
X0167349Y0212238D01*
X0167305Y0212280D01*
X0167263Y0212324D01*
X0167225Y0212370D01*
X0167189Y0212419D01*
X0167156Y0212470D01*
X0167127Y0212522D01*
X0167100Y0212577D01*
X0167077Y0212632D01*
X0167057Y0212689D01*
X0167041Y0212748D01*
X0167028Y0212807D01*
X0167019Y0212866D01*
X0167014Y0212927D01*
X0167012Y0212987D01*
X0168052Y0210144D02*
X0174552Y0210144D01*
X0174612Y0210142D01*
X0174673Y0210137D01*
X0174732Y0210128D01*
X0174791Y0210115D01*
X0174850Y0210099D01*
X0174907Y0210079D01*
X0174962Y0210056D01*
X0175017Y0210029D01*
X0175069Y0210000D01*
X0175120Y0209967D01*
X0175169Y0209931D01*
X0175215Y0209893D01*
X0175259Y0209851D01*
X0175301Y0209807D01*
X0175339Y0209761D01*
X0175375Y0209712D01*
X0175408Y0209661D01*
X0175437Y0209609D01*
X0175464Y0209554D01*
X0175487Y0209499D01*
X0175507Y0209442D01*
X0175523Y0209383D01*
X0175536Y0209324D01*
X0175545Y0209265D01*
X0175550Y0209204D01*
X0175552Y0209144D01*
X0175552Y0203144D02*
X0175550Y0203084D01*
X0175545Y0203023D01*
X0175536Y0202964D01*
X0175523Y0202905D01*
X0175507Y0202846D01*
X0175487Y0202789D01*
X0175464Y0202734D01*
X0175437Y0202679D01*
X0175408Y0202627D01*
X0175375Y0202576D01*
X0175339Y0202527D01*
X0175301Y0202481D01*
X0175259Y0202437D01*
X0175215Y0202395D01*
X0175169Y0202357D01*
X0175120Y0202321D01*
X0175069Y0202288D01*
X0175017Y0202259D01*
X0174962Y0202232D01*
X0174907Y0202209D01*
X0174850Y0202189D01*
X0174791Y0202173D01*
X0174732Y0202160D01*
X0174673Y0202151D01*
X0174612Y0202146D01*
X0174552Y0202144D01*
X0168052Y0202144D01*
X0167992Y0202146D01*
X0167931Y0202151D01*
X0167872Y0202160D01*
X0167813Y0202173D01*
X0167754Y0202189D01*
X0167697Y0202209D01*
X0167642Y0202232D01*
X0167587Y0202259D01*
X0167535Y0202288D01*
X0167484Y0202321D01*
X0167435Y0202357D01*
X0167389Y0202395D01*
X0167345Y0202437D01*
X0167303Y0202481D01*
X0167265Y0202527D01*
X0167229Y0202576D01*
X0167196Y0202627D01*
X0167167Y0202679D01*
X0167140Y0202734D01*
X0167117Y0202789D01*
X0167097Y0202846D01*
X0167081Y0202905D01*
X0167068Y0202964D01*
X0167059Y0203023D01*
X0167054Y0203084D01*
X0167052Y0203144D01*
X0167052Y0209144D02*
X0167054Y0209204D01*
X0167059Y0209265D01*
X0167068Y0209324D01*
X0167081Y0209383D01*
X0167097Y0209442D01*
X0167117Y0209499D01*
X0167140Y0209554D01*
X0167167Y0209609D01*
X0167196Y0209661D01*
X0167229Y0209712D01*
X0167265Y0209761D01*
X0167303Y0209807D01*
X0167345Y0209851D01*
X0167389Y0209893D01*
X0167435Y0209931D01*
X0167484Y0209967D01*
X0167535Y0210000D01*
X0167587Y0210029D01*
X0167642Y0210056D01*
X0167697Y0210079D01*
X0167754Y0210099D01*
X0167813Y0210115D01*
X0167872Y0210128D01*
X0167931Y0210137D01*
X0167992Y0210142D01*
X0168052Y0210144D01*
D17*
X0385829Y0407940D03*
D18*
X0124412Y0285829D02*
X0122444Y0285829D01*
X0124412Y0285829D02*
X0124412Y0283861D01*
X0124412Y0272050D02*
X0122444Y0270081D01*
X0122156Y0267898D02*
X0122158Y0267937D01*
X0122164Y0267976D01*
X0122174Y0268014D01*
X0122187Y0268051D01*
X0122204Y0268086D01*
X0122224Y0268120D01*
X0122248Y0268151D01*
X0122275Y0268180D01*
X0122304Y0268206D01*
X0122336Y0268229D01*
X0122370Y0268249D01*
X0122406Y0268265D01*
X0122443Y0268277D01*
X0122482Y0268286D01*
X0122521Y0268291D01*
X0122560Y0268292D01*
X0122599Y0268289D01*
X0122638Y0268282D01*
X0122675Y0268271D01*
X0122712Y0268257D01*
X0122747Y0268239D01*
X0122780Y0268218D01*
X0122811Y0268193D01*
X0122839Y0268166D01*
X0122864Y0268136D01*
X0122886Y0268103D01*
X0122905Y0268069D01*
X0122920Y0268033D01*
X0122932Y0267995D01*
X0122940Y0267957D01*
X0122944Y0267918D01*
X0122944Y0267878D01*
X0122940Y0267839D01*
X0122932Y0267801D01*
X0122920Y0267763D01*
X0122905Y0267727D01*
X0122886Y0267693D01*
X0122864Y0267660D01*
X0122839Y0267630D01*
X0122811Y0267603D01*
X0122780Y0267578D01*
X0122747Y0267557D01*
X0122712Y0267539D01*
X0122675Y0267525D01*
X0122638Y0267514D01*
X0122599Y0267507D01*
X0122560Y0267504D01*
X0122521Y0267505D01*
X0122482Y0267510D01*
X0122443Y0267519D01*
X0122406Y0267531D01*
X0122370Y0267547D01*
X0122336Y0267567D01*
X0122304Y0267590D01*
X0122275Y0267616D01*
X0122248Y0267645D01*
X0122224Y0267676D01*
X0122204Y0267710D01*
X0122187Y0267745D01*
X0122174Y0267782D01*
X0122164Y0267820D01*
X0122158Y0267859D01*
X0122156Y0267898D01*
X0110633Y0270081D02*
X0108664Y0270081D01*
X0108664Y0272050D01*
X0108664Y0283861D02*
X0108664Y0285829D01*
X0110633Y0285829D01*
D19*
X0136518Y0247542D02*
X0136518Y0243605D01*
X0141440Y0243605D02*
X0141440Y0247542D01*
X0142168Y0242070D02*
X0142170Y0242114D01*
X0142176Y0242158D01*
X0142186Y0242201D01*
X0142199Y0242243D01*
X0142217Y0242283D01*
X0142238Y0242322D01*
X0142262Y0242359D01*
X0142289Y0242394D01*
X0142320Y0242426D01*
X0142353Y0242455D01*
X0142389Y0242481D01*
X0142427Y0242503D01*
X0142467Y0242522D01*
X0142508Y0242538D01*
X0142551Y0242550D01*
X0142594Y0242558D01*
X0142638Y0242562D01*
X0142682Y0242562D01*
X0142726Y0242558D01*
X0142769Y0242550D01*
X0142812Y0242538D01*
X0142853Y0242522D01*
X0142893Y0242503D01*
X0142931Y0242481D01*
X0142967Y0242455D01*
X0143000Y0242426D01*
X0143031Y0242394D01*
X0143058Y0242359D01*
X0143082Y0242322D01*
X0143103Y0242283D01*
X0143121Y0242243D01*
X0143134Y0242201D01*
X0143144Y0242158D01*
X0143150Y0242114D01*
X0143152Y0242070D01*
X0143150Y0242026D01*
X0143144Y0241982D01*
X0143134Y0241939D01*
X0143121Y0241897D01*
X0143103Y0241857D01*
X0143082Y0241818D01*
X0143058Y0241781D01*
X0143031Y0241746D01*
X0143000Y0241714D01*
X0142967Y0241685D01*
X0142931Y0241659D01*
X0142893Y0241637D01*
X0142853Y0241618D01*
X0142812Y0241602D01*
X0142769Y0241590D01*
X0142726Y0241582D01*
X0142682Y0241578D01*
X0142638Y0241578D01*
X0142594Y0241582D01*
X0142551Y0241590D01*
X0142508Y0241602D01*
X0142467Y0241618D01*
X0142427Y0241637D01*
X0142389Y0241659D01*
X0142353Y0241685D01*
X0142320Y0241714D01*
X0142289Y0241746D01*
X0142262Y0241781D01*
X0142238Y0241818D01*
X0142217Y0241857D01*
X0142199Y0241897D01*
X0142186Y0241939D01*
X0142176Y0241982D01*
X0142170Y0242026D01*
X0142168Y0242070D01*
X0141440Y0234944D02*
X0141440Y0231007D01*
X0142168Y0229471D02*
X0142170Y0229515D01*
X0142176Y0229559D01*
X0142186Y0229602D01*
X0142199Y0229644D01*
X0142217Y0229684D01*
X0142238Y0229723D01*
X0142262Y0229760D01*
X0142289Y0229795D01*
X0142320Y0229827D01*
X0142353Y0229856D01*
X0142389Y0229882D01*
X0142427Y0229904D01*
X0142467Y0229923D01*
X0142508Y0229939D01*
X0142551Y0229951D01*
X0142594Y0229959D01*
X0142638Y0229963D01*
X0142682Y0229963D01*
X0142726Y0229959D01*
X0142769Y0229951D01*
X0142812Y0229939D01*
X0142853Y0229923D01*
X0142893Y0229904D01*
X0142931Y0229882D01*
X0142967Y0229856D01*
X0143000Y0229827D01*
X0143031Y0229795D01*
X0143058Y0229760D01*
X0143082Y0229723D01*
X0143103Y0229684D01*
X0143121Y0229644D01*
X0143134Y0229602D01*
X0143144Y0229559D01*
X0143150Y0229515D01*
X0143152Y0229471D01*
X0143150Y0229427D01*
X0143144Y0229383D01*
X0143134Y0229340D01*
X0143121Y0229298D01*
X0143103Y0229258D01*
X0143082Y0229219D01*
X0143058Y0229182D01*
X0143031Y0229147D01*
X0143000Y0229115D01*
X0142967Y0229086D01*
X0142931Y0229060D01*
X0142893Y0229038D01*
X0142853Y0229019D01*
X0142812Y0229003D01*
X0142769Y0228991D01*
X0142726Y0228983D01*
X0142682Y0228979D01*
X0142638Y0228979D01*
X0142594Y0228983D01*
X0142551Y0228991D01*
X0142508Y0229003D01*
X0142467Y0229019D01*
X0142427Y0229038D01*
X0142389Y0229060D01*
X0142353Y0229086D01*
X0142320Y0229115D01*
X0142289Y0229147D01*
X0142262Y0229182D01*
X0142238Y0229219D01*
X0142217Y0229258D01*
X0142199Y0229298D01*
X0142186Y0229340D01*
X0142176Y0229383D01*
X0142170Y0229427D01*
X0142168Y0229471D01*
X0136518Y0231007D02*
X0136518Y0234944D01*
X0136518Y0220770D02*
X0136518Y0216833D01*
X0141440Y0216833D02*
X0141440Y0220770D01*
X0142168Y0215298D02*
X0142170Y0215342D01*
X0142176Y0215386D01*
X0142186Y0215429D01*
X0142199Y0215471D01*
X0142217Y0215511D01*
X0142238Y0215550D01*
X0142262Y0215587D01*
X0142289Y0215622D01*
X0142320Y0215654D01*
X0142353Y0215683D01*
X0142389Y0215709D01*
X0142427Y0215731D01*
X0142467Y0215750D01*
X0142508Y0215766D01*
X0142551Y0215778D01*
X0142594Y0215786D01*
X0142638Y0215790D01*
X0142682Y0215790D01*
X0142726Y0215786D01*
X0142769Y0215778D01*
X0142812Y0215766D01*
X0142853Y0215750D01*
X0142893Y0215731D01*
X0142931Y0215709D01*
X0142967Y0215683D01*
X0143000Y0215654D01*
X0143031Y0215622D01*
X0143058Y0215587D01*
X0143082Y0215550D01*
X0143103Y0215511D01*
X0143121Y0215471D01*
X0143134Y0215429D01*
X0143144Y0215386D01*
X0143150Y0215342D01*
X0143152Y0215298D01*
X0143150Y0215254D01*
X0143144Y0215210D01*
X0143134Y0215167D01*
X0143121Y0215125D01*
X0143103Y0215085D01*
X0143082Y0215046D01*
X0143058Y0215009D01*
X0143031Y0214974D01*
X0143000Y0214942D01*
X0142967Y0214913D01*
X0142931Y0214887D01*
X0142893Y0214865D01*
X0142853Y0214846D01*
X0142812Y0214830D01*
X0142769Y0214818D01*
X0142726Y0214810D01*
X0142682Y0214806D01*
X0142638Y0214806D01*
X0142594Y0214810D01*
X0142551Y0214818D01*
X0142508Y0214830D01*
X0142467Y0214846D01*
X0142427Y0214865D01*
X0142389Y0214887D01*
X0142353Y0214913D01*
X0142320Y0214942D01*
X0142289Y0214974D01*
X0142262Y0215009D01*
X0142238Y0215046D01*
X0142217Y0215085D01*
X0142199Y0215125D01*
X0142186Y0215167D01*
X0142176Y0215210D01*
X0142170Y0215254D01*
X0142168Y0215298D01*
X0141440Y0207385D02*
X0141440Y0203448D01*
X0142168Y0201912D02*
X0142170Y0201956D01*
X0142176Y0202000D01*
X0142186Y0202043D01*
X0142199Y0202085D01*
X0142217Y0202125D01*
X0142238Y0202164D01*
X0142262Y0202201D01*
X0142289Y0202236D01*
X0142320Y0202268D01*
X0142353Y0202297D01*
X0142389Y0202323D01*
X0142427Y0202345D01*
X0142467Y0202364D01*
X0142508Y0202380D01*
X0142551Y0202392D01*
X0142594Y0202400D01*
X0142638Y0202404D01*
X0142682Y0202404D01*
X0142726Y0202400D01*
X0142769Y0202392D01*
X0142812Y0202380D01*
X0142853Y0202364D01*
X0142893Y0202345D01*
X0142931Y0202323D01*
X0142967Y0202297D01*
X0143000Y0202268D01*
X0143031Y0202236D01*
X0143058Y0202201D01*
X0143082Y0202164D01*
X0143103Y0202125D01*
X0143121Y0202085D01*
X0143134Y0202043D01*
X0143144Y0202000D01*
X0143150Y0201956D01*
X0143152Y0201912D01*
X0143150Y0201868D01*
X0143144Y0201824D01*
X0143134Y0201781D01*
X0143121Y0201739D01*
X0143103Y0201699D01*
X0143082Y0201660D01*
X0143058Y0201623D01*
X0143031Y0201588D01*
X0143000Y0201556D01*
X0142967Y0201527D01*
X0142931Y0201501D01*
X0142893Y0201479D01*
X0142853Y0201460D01*
X0142812Y0201444D01*
X0142769Y0201432D01*
X0142726Y0201424D01*
X0142682Y0201420D01*
X0142638Y0201420D01*
X0142594Y0201424D01*
X0142551Y0201432D01*
X0142508Y0201444D01*
X0142467Y0201460D01*
X0142427Y0201479D01*
X0142389Y0201501D01*
X0142353Y0201527D01*
X0142320Y0201556D01*
X0142289Y0201588D01*
X0142262Y0201623D01*
X0142238Y0201660D01*
X0142217Y0201699D01*
X0142199Y0201739D01*
X0142186Y0201781D01*
X0142176Y0201824D01*
X0142170Y0201868D01*
X0142168Y0201912D01*
X0136518Y0203448D02*
X0136518Y0207385D01*
M02*
