G75*
%MOIN*%
%OFA0B0*%
%FSLAX25Y25*%
%IPPOS*%
%LPD*%
%AMOC8*
5,1,8,0,0,1.08239X$1,22.5*
%
%ADD10R,0.00945X0.03543*%
%ADD11R,0.03543X0.00945*%
%ADD12R,0.03543X0.05512*%
%ADD13C,0.00600*%
%ADD14C,0.02700*%
D10*
X0019701Y0010646D03*
X0021669Y0010646D03*
X0021669Y0022850D03*
X0019701Y0022850D03*
D11*
X0015567Y0020685D03*
X0015567Y0018717D03*
X0015567Y0016748D03*
X0015567Y0014780D03*
X0015567Y0012811D03*
X0025803Y0012811D03*
X0025803Y0014780D03*
X0025803Y0016748D03*
X0025803Y0018717D03*
X0025803Y0020685D03*
D12*
X0020685Y0016748D03*
D13*
X0006831Y0011200D02*
X0005631Y0012400D01*
X0005631Y0022000D01*
X0012831Y0029200D01*
X0021231Y0029200D01*
X0024831Y0025600D01*
X0021669Y0024562D02*
X0021669Y0022850D01*
X0021669Y0024562D02*
X0018231Y0028000D01*
X0013431Y0028000D01*
X0008031Y0022600D01*
X0008031Y0017200D01*
X0009231Y0019994D02*
X0011099Y0018126D01*
X0012220Y0018126D01*
X0013205Y0018717D01*
X0015567Y0018717D01*
X0015567Y0016748D02*
X0011180Y0016748D01*
X0008031Y0013600D01*
X0006831Y0011200D02*
X0012831Y0011200D01*
X0014443Y0012811D01*
X0015567Y0012811D01*
X0015567Y0014780D02*
X0015231Y0014800D01*
X0012831Y0014800D01*
X0011631Y0013600D01*
X0016431Y0007600D02*
X0018831Y0007600D01*
X0021831Y0004600D01*
X0029031Y0004600D01*
X0039231Y0014800D01*
X0039231Y0017800D01*
X0033831Y0023200D01*
X0028431Y0023200D01*
X0026031Y0020800D01*
X0025803Y0020685D01*
X0025803Y0018717D02*
X0027548Y0018717D01*
X0029631Y0020800D01*
X0032631Y0020200D02*
X0029180Y0016748D01*
X0025803Y0016748D01*
X0026031Y0014800D02*
X0025803Y0014780D01*
X0026031Y0014800D02*
X0027831Y0014800D01*
X0028431Y0015400D01*
X0029631Y0015400D01*
X0032031Y0017800D01*
X0033831Y0017800D01*
X0032631Y0020200D02*
X0035031Y0020200D01*
X0036831Y0018400D01*
X0036831Y0016000D01*
X0029631Y0013000D02*
X0029443Y0012811D01*
X0025803Y0012811D01*
X0026631Y0010600D02*
X0027831Y0009400D01*
X0026631Y0010600D02*
X0021831Y0010600D01*
X0021669Y0010646D01*
X0019701Y0010646D02*
X0019701Y0008531D01*
X0021231Y0007000D01*
X0025431Y0007000D01*
X0019701Y0010843D02*
X0019701Y0015764D01*
X0020685Y0016748D01*
X0015567Y0020685D02*
X0015231Y0020800D01*
X0011631Y0020800D01*
X0009231Y0019994D02*
X0009231Y0022000D01*
X0012831Y0025600D01*
X0017031Y0025600D01*
X0019431Y0023200D02*
X0014031Y0023200D01*
X0019431Y0023200D02*
X0019701Y0022850D01*
D14*
X0017031Y0025600D03*
X0014031Y0023200D03*
X0011631Y0020800D03*
X0008031Y0017200D03*
X0008031Y0013600D03*
X0011631Y0013600D03*
X0016431Y0007600D03*
X0025431Y0007000D03*
X0027831Y0009400D03*
X0029631Y0013000D03*
X0033831Y0017800D03*
X0036831Y0016000D03*
X0029631Y0020800D03*
X0024831Y0025600D03*
M02*
