G75*
%MOIN*%
%OFA0B0*%
%FSLAX25Y25*%
%IPPOS*%
%LPD*%
%AMOC8*
5,1,8,0,0,1.08239X$1,22.5*
%
%ADD10C,0.00000*%
%ADD11C,0.00500*%
%ADD12C,0.00400*%
D10*
X0001000Y0001000D02*
X0001000Y0032496D01*
X0041354Y0032496D01*
X0041354Y0001000D01*
X0001000Y0001000D01*
D11*
X0012811Y0009858D02*
X0014780Y0009858D01*
X0012811Y0009858D02*
X0012811Y0013795D01*
X0012811Y0019701D02*
X0012811Y0023638D01*
X0014780Y0023638D01*
X0009859Y0023874D02*
X0009861Y0023936D01*
X0009867Y0023999D01*
X0009877Y0024060D01*
X0009891Y0024121D01*
X0009908Y0024181D01*
X0009929Y0024240D01*
X0009955Y0024297D01*
X0009983Y0024352D01*
X0010015Y0024406D01*
X0010051Y0024457D01*
X0010089Y0024507D01*
X0010131Y0024553D01*
X0010175Y0024597D01*
X0010223Y0024638D01*
X0010272Y0024676D01*
X0010324Y0024710D01*
X0010378Y0024741D01*
X0010434Y0024769D01*
X0010492Y0024793D01*
X0010551Y0024814D01*
X0010611Y0024830D01*
X0010672Y0024843D01*
X0010734Y0024852D01*
X0010796Y0024857D01*
X0010859Y0024858D01*
X0010921Y0024855D01*
X0010983Y0024848D01*
X0011045Y0024837D01*
X0011105Y0024822D01*
X0011165Y0024804D01*
X0011223Y0024782D01*
X0011280Y0024756D01*
X0011335Y0024726D01*
X0011388Y0024693D01*
X0011439Y0024657D01*
X0011487Y0024618D01*
X0011533Y0024575D01*
X0011576Y0024530D01*
X0011616Y0024482D01*
X0011653Y0024432D01*
X0011687Y0024379D01*
X0011718Y0024325D01*
X0011744Y0024269D01*
X0011768Y0024211D01*
X0011787Y0024151D01*
X0011803Y0024091D01*
X0011815Y0024029D01*
X0011823Y0023968D01*
X0011827Y0023905D01*
X0011827Y0023843D01*
X0011823Y0023780D01*
X0011815Y0023719D01*
X0011803Y0023657D01*
X0011787Y0023597D01*
X0011768Y0023537D01*
X0011744Y0023479D01*
X0011718Y0023423D01*
X0011687Y0023369D01*
X0011653Y0023316D01*
X0011616Y0023266D01*
X0011576Y0023218D01*
X0011533Y0023173D01*
X0011487Y0023130D01*
X0011439Y0023091D01*
X0011388Y0023055D01*
X0011335Y0023022D01*
X0011280Y0022992D01*
X0011223Y0022966D01*
X0011165Y0022944D01*
X0011105Y0022926D01*
X0011045Y0022911D01*
X0010983Y0022900D01*
X0010921Y0022893D01*
X0010859Y0022890D01*
X0010796Y0022891D01*
X0010734Y0022896D01*
X0010672Y0022905D01*
X0010611Y0022918D01*
X0010551Y0022934D01*
X0010492Y0022955D01*
X0010434Y0022979D01*
X0010378Y0023007D01*
X0010324Y0023038D01*
X0010272Y0023072D01*
X0010223Y0023110D01*
X0010175Y0023151D01*
X0010131Y0023195D01*
X0010089Y0023241D01*
X0010051Y0023291D01*
X0010015Y0023342D01*
X0009983Y0023396D01*
X0009955Y0023451D01*
X0009929Y0023508D01*
X0009908Y0023567D01*
X0009891Y0023627D01*
X0009877Y0023688D01*
X0009867Y0023749D01*
X0009861Y0023812D01*
X0009859Y0023874D01*
X0026591Y0023638D02*
X0028559Y0023638D01*
X0028559Y0019701D01*
X0028559Y0013795D02*
X0028559Y0009858D01*
X0026591Y0009858D01*
D12*
X0019120Y0007692D02*
X0019120Y0005523D01*
X0018686Y0005090D01*
X0017819Y0005090D01*
X0017385Y0005523D01*
X0017385Y0007692D01*
X0016358Y0006825D02*
X0015490Y0007692D01*
X0015490Y0005090D01*
X0014623Y0005090D02*
X0016358Y0005090D01*
M02*
