%
M48
M72
T01C0.01300
T02C0.02362
T03C0.03543
T04C0.03900
T05C0.04000
T06C0.09350
T07C0.12598
%
T01
X110566Y190332
X118834Y198245
X112535Y204111
X129858Y217930
X156829Y247025
X156511Y255096
X153558Y279229
X148362Y286434
X161157Y289781
X161157Y293718
X161157Y297655
X170015Y309662
X167062Y314387
X163125Y317340
X172771Y323442
X171984Y328166
X175921Y328166
X179858Y332103
X183795Y332103
X185763Y335056
X187732Y338009
X190684Y340962
X190684Y344899
X191866Y352970
X193637Y365568
X200527Y364584
X209385Y367536
X218003Y376308
X220842Y351788
X230055Y341946
X233992Y339977
X249228Y345529
X256236Y367497
X261747Y373403
X275921Y375371
X284626Y369466
X291669Y361592
X284188Y342733
X282220Y334072
X270015Y314348
X274346Y304544
X282220Y289977
X270409Y281119
X251511Y284820
X241669Y276985
X238913Y273048
X245606Y261631
X245901Y256277
X252299Y253324
X263828Y248529
X285741Y248617
X298066Y242497
X298165Y257891
X295803Y276395
X251708Y297655
X248362Y312379
X236944Y306513
X238913Y303560
X236944Y300607
X238913Y297655
X236944Y294702
X225133Y290765
X208992Y284820
X200527Y277970
X190684Y276985
X181826Y274033
X184188Y266946
X181826Y280922
X189897Y288796
X188716Y294702
X182614Y296277
X178677Y300804
X183401Y304741
X188716Y301198
X191669Y312418
X187732Y317340
X199149Y316316
X208401Y315371
X211354Y323245
X216275Y329151
X198558Y328166
X179858Y354741
X175921Y351788
X172968Y354741
X181432Y361592
X177495Y373403
X169031Y384269
X149936Y395056
X140094Y387970
X134188Y381277
X132220Y387182
X120409Y385214
X120409Y391119
X112535Y393088
X104228Y413729
X131039Y432851
X140881Y431277
X152692Y443324
X153283Y447064
X155842Y464387
X173952Y460056
X182220Y444308
X180251Y439584
X173952Y434072
X170015Y430529
X168047Y434072
X185763Y454151
X189700Y440371
X189307Y434426
X197574Y442340
X199543Y446277
X203480Y447851
X209080Y459924
X215291Y446277
X217259Y436434
X222771Y438363
X224740Y428521
X215291Y418718
X211354Y428560
X236944Y421828
X258603Y456308
X302228Y469929
X305448Y398993
X302299Y388757
X286944Y387182
X211354Y267143
X201511Y258836
X193637Y253363
X187141Y246867
X198795Y241395
X195606Y217536
X212710Y206648
X212929Y202143
X225439Y215152
X240028Y213529
X240028Y206529
X248554Y213140
X260173Y208048
X263519Y202182
X257028Y198129
X267456Y185253
X278283Y188403
X282220Y185450
X286551Y190962
X289700Y184426
X287732Y178521
X297574Y188363
X303480Y190332
X309385Y186395
X306629Y199387
X302803Y210866
X290291Y199623
X275330Y197261
X253414Y180376
X259014Y167776
X272417Y164190
X276314Y161828
X287732Y152930
X294818Y165922
X297574Y160804
X307417Y170647
X242456Y162773
X187732Y155922
X185763Y162812
X187732Y170686
X187732Y178560
X187732Y183481
X187732Y189387
X173952Y206119
X168047Y204151
X163716Y198206
X133401Y269505
X108204Y291946
X119818Y306513
X124740Y309466
X130261Y312418
X125146Y316316
X141201Y322371
X144425Y341159
X144425Y347851
X132220Y359623
X128283Y355686
X124346Y359623
X120409Y355686
X159188Y354741
X159188Y350804
X199543Y296473
X89307Y210844
X196787Y468718
X193244Y470686
T02
X189700Y483678
X181826Y483678
X173952Y483678
X154267Y483678
X146393Y483678
X140488Y483678
X134582Y483678
X128677Y483678
X122771Y483678
X197574Y483678
X205448Y483678
X222771Y461237
X231039Y452182
X238519Y451395
X236551Y428521
X270409Y438403
X271984Y432497
X286157Y428560
X297968Y428560
X297968Y448245
X290094Y452970
X282220Y454151
X274346Y458088
X282228Y494929
X300055Y486143
X308228Y465929
X301905Y460056
X283470Y321897
X308817Y300262
X289110Y209072
X301905Y151001
X245387Y152401
X238913Y152401
X231039Y152401
X224149Y152401
X213322Y152401
X199543Y152401
X191669Y152401
X183795Y152401
X175921Y152401
X168047Y152401
X160173Y152401
X152299Y152401
X144425Y152401
X136551Y152401
X129661Y152401
X121371Y152401
X121393Y175568
X156236Y217930
X132220Y229702
X130409Y253324
X108598Y276946
X88850Y283851
X83007Y295450
X106629Y312379
X124228Y302340
X106629Y347812
X86944Y349781
X81039Y375371
X187732Y198245
X166078Y174623
X222181Y169702
X242828Y191129
X223165Y203166
T03
X268165Y445426
X268165Y473426
X268322Y480584
X268322Y508584
T04
X147440Y213166
X139440Y213166
X143440Y193166
X143440Y177733
X139440Y157733
X147440Y157733
T05
X152062Y225962
X151826Y235993
X161826Y235993
X162062Y225962
X172062Y225962
X171826Y235993
X181826Y235993
X191826Y235993
X192062Y225962
X182062Y225962
X202062Y225962
X201826Y235993
X211826Y235993
X212062Y225962
X222062Y225962
X221826Y235993
X241826Y235993
X242062Y225962
X252062Y225962
X251826Y235993
X261826Y235993
X271826Y235993
X272062Y225962
X282062Y225962
X281826Y235993
X291826Y235993
X292062Y225962
X262062Y225962
X261858Y405962
X271858Y405962
X272062Y415962
X282062Y415962
X281858Y405962
X291858Y405962
X292062Y415962
X262062Y415962
X252062Y415962
X251858Y405962
X241858Y405962
X242062Y415962
X232062Y415962
X231858Y405962
X221858Y405962
X222062Y415962
X206062Y415962
X196062Y415962
X195881Y405962
X205881Y405962
X185881Y405962
X186062Y415962
X176062Y415962
X175881Y405962
X165881Y405962
X166062Y415962
X156062Y415962
X155881Y405962
X145881Y405962
X146062Y415962
X136062Y415962
X135881Y405962
X125881Y405962
X126062Y415962
X116062Y415962
X115881Y405962
X96826Y266355
X96826Y256277
X96747Y246355
X96826Y236119
X96826Y226434
X86826Y226434
X86826Y236119
X86747Y246355
X86826Y256277
X86826Y266355
T06
X133440Y205666
X133440Y193166
X133440Y177733
X133440Y165233
X153440Y165233
X153440Y177733
X153440Y193166
X153440Y205666
T07
X91728Y129429
X291728Y129429
X291728Y504429
X91728Y504429
M30
