G75*
%MOIN*%
%OFA0B0*%
%FSLAX25Y25*%
%IPPOS*%
%LPD*%
%AMOC8*
5,1,8,0,0,1.08239X$1,22.5*
%
%ADD10C,0.05315*%
%ADD11C,0.06000*%
%ADD12C,0.02700*%
%ADD13C,0.03762*%
%ADD14C,0.00800*%
%ADD15C,0.01600*%
D10*
X0268165Y0445426D03*
X0268165Y0473426D03*
X0268322Y0480584D03*
X0268322Y0508584D03*
D11*
X0272062Y0415962D03*
X0282062Y0415962D03*
X0281858Y0405962D03*
X0291858Y0405962D03*
X0292062Y0415962D03*
X0271858Y0405962D03*
X0261858Y0405962D03*
X0262062Y0415962D03*
X0252062Y0415962D03*
X0251858Y0405962D03*
X0241858Y0405962D03*
X0242062Y0415962D03*
X0232062Y0415962D03*
X0231858Y0405962D03*
X0221858Y0405962D03*
X0222062Y0415962D03*
X0206062Y0415962D03*
X0196062Y0415962D03*
X0195881Y0405962D03*
X0205881Y0405962D03*
X0185881Y0405962D03*
X0186062Y0415962D03*
X0176062Y0415962D03*
X0175881Y0405962D03*
X0165881Y0405962D03*
X0166062Y0415962D03*
X0156062Y0415962D03*
X0155881Y0405962D03*
X0145881Y0405962D03*
X0146062Y0415962D03*
X0136062Y0415962D03*
X0135881Y0405962D03*
X0125881Y0405962D03*
X0126062Y0415962D03*
X0116062Y0415962D03*
X0115881Y0405962D03*
X0096826Y0266355D03*
X0096826Y0256277D03*
X0096747Y0246355D03*
X0096826Y0236119D03*
X0096826Y0226434D03*
X0086826Y0226434D03*
X0086826Y0236119D03*
X0086747Y0246355D03*
X0086826Y0256277D03*
X0086826Y0266355D03*
X0151826Y0235993D03*
X0152062Y0225962D03*
X0162062Y0225962D03*
X0161826Y0235993D03*
X0171826Y0235993D03*
X0172062Y0225962D03*
X0182062Y0225962D03*
X0192062Y0225962D03*
X0191826Y0235993D03*
X0181826Y0235993D03*
X0201826Y0235993D03*
X0202062Y0225962D03*
X0212062Y0225962D03*
X0211826Y0235993D03*
X0221826Y0235993D03*
X0222062Y0225962D03*
X0242062Y0225962D03*
X0241826Y0235993D03*
X0251826Y0235993D03*
X0252062Y0225962D03*
X0262062Y0225962D03*
X0261826Y0235993D03*
X0271826Y0235993D03*
X0272062Y0225962D03*
X0282062Y0225962D03*
X0281826Y0235993D03*
X0291826Y0235993D03*
X0292062Y0225962D03*
D12*
X0298066Y0242497D03*
X0298165Y0257891D03*
X0285741Y0248617D03*
X0263828Y0248529D03*
X0252299Y0253324D03*
X0245901Y0256277D03*
X0245606Y0261631D03*
X0238913Y0273048D03*
X0241669Y0276985D03*
X0251511Y0284820D03*
X0251708Y0297655D03*
X0248362Y0312379D03*
X0236944Y0306513D03*
X0238913Y0303560D03*
X0236944Y0300607D03*
X0238913Y0297655D03*
X0236944Y0294702D03*
X0225133Y0290765D03*
X0208992Y0284820D03*
X0200527Y0277970D03*
X0190684Y0276985D03*
X0181826Y0274033D03*
X0184188Y0266946D03*
X0181826Y0280922D03*
X0189897Y0288796D03*
X0188716Y0294702D03*
X0182614Y0296277D03*
X0178677Y0300804D03*
X0183401Y0304741D03*
X0188716Y0301198D03*
X0191669Y0312418D03*
X0187732Y0317340D03*
X0199149Y0316316D03*
X0208401Y0315371D03*
X0211354Y0323245D03*
X0216275Y0329151D03*
X0230055Y0341946D03*
X0233992Y0339977D03*
X0249228Y0345529D03*
X0256236Y0367497D03*
X0261747Y0373403D03*
X0275921Y0375371D03*
X0284626Y0369466D03*
X0291669Y0361592D03*
X0284188Y0342733D03*
X0282220Y0334072D03*
X0270015Y0314348D03*
X0274346Y0304544D03*
X0282220Y0289977D03*
X0270409Y0281119D03*
X0295803Y0276395D03*
X0302803Y0210866D03*
X0306629Y0199387D03*
X0303480Y0190332D03*
X0297574Y0188363D03*
X0290291Y0199623D03*
X0286551Y0190962D03*
X0289700Y0184426D03*
X0287732Y0178521D03*
X0282220Y0185450D03*
X0278283Y0188403D03*
X0275330Y0197261D03*
X0263519Y0202182D03*
X0260173Y0208048D03*
X0257028Y0198129D03*
X0267456Y0185253D03*
X0259014Y0167776D03*
X0253414Y0180376D03*
X0242456Y0162773D03*
X0240028Y0206529D03*
X0240028Y0213529D03*
X0248554Y0213140D03*
X0225439Y0215152D03*
X0212710Y0206648D03*
X0212929Y0202143D03*
X0195606Y0217536D03*
X0198795Y0241395D03*
X0193637Y0253363D03*
X0187141Y0246867D03*
X0201511Y0258836D03*
X0211354Y0267143D03*
X0199543Y0296473D03*
X0198558Y0328166D03*
X0190684Y0340962D03*
X0190684Y0344899D03*
X0187732Y0338009D03*
X0185763Y0335056D03*
X0183795Y0332103D03*
X0179858Y0332103D03*
X0175921Y0328166D03*
X0171984Y0328166D03*
X0172771Y0323442D03*
X0167062Y0314387D03*
X0170015Y0309662D03*
X0163125Y0317340D03*
X0161157Y0297655D03*
X0161157Y0293718D03*
X0161157Y0289781D03*
X0153558Y0279229D03*
X0148362Y0286434D03*
X0133401Y0269505D03*
X0156511Y0255096D03*
X0156829Y0247025D03*
X0129858Y0217930D03*
X0112535Y0204111D03*
X0118834Y0198245D03*
X0110566Y0190332D03*
X0089307Y0210844D03*
X0108204Y0291946D03*
X0119818Y0306513D03*
X0124740Y0309466D03*
X0130261Y0312418D03*
X0125146Y0316316D03*
X0141201Y0322371D03*
X0144425Y0341159D03*
X0144425Y0347851D03*
X0132220Y0359623D03*
X0128283Y0355686D03*
X0124346Y0359623D03*
X0120409Y0355686D03*
X0134188Y0381277D03*
X0132220Y0387182D03*
X0140094Y0387970D03*
X0149936Y0395056D03*
X0169031Y0384269D03*
X0177495Y0373403D03*
X0181432Y0361592D03*
X0179858Y0354741D03*
X0175921Y0351788D03*
X0172968Y0354741D03*
X0159188Y0354741D03*
X0159188Y0350804D03*
X0191866Y0352970D03*
X0193637Y0365568D03*
X0200527Y0364584D03*
X0209385Y0367536D03*
X0218003Y0376308D03*
X0220842Y0351788D03*
X0215291Y0418718D03*
X0211354Y0428560D03*
X0217259Y0436434D03*
X0222771Y0438363D03*
X0224740Y0428521D03*
X0236944Y0421828D03*
X0215291Y0446277D03*
X0209080Y0459924D03*
X0203480Y0447851D03*
X0199543Y0446277D03*
X0197574Y0442340D03*
X0189700Y0440371D03*
X0189307Y0434426D03*
X0182220Y0444308D03*
X0180251Y0439584D03*
X0173952Y0434072D03*
X0170015Y0430529D03*
X0168047Y0434072D03*
X0152692Y0443324D03*
X0153283Y0447064D03*
X0155842Y0464387D03*
X0173952Y0460056D03*
X0185763Y0454151D03*
X0193244Y0470686D03*
X0196787Y0468718D03*
X0140881Y0431277D03*
X0131039Y0432851D03*
X0104228Y0413729D03*
X0112535Y0393088D03*
X0120409Y0391119D03*
X0120409Y0385214D03*
X0173952Y0206119D03*
X0168047Y0204151D03*
X0163716Y0198206D03*
X0187732Y0189387D03*
X0187732Y0183481D03*
X0187732Y0178560D03*
X0187732Y0170686D03*
X0185763Y0162812D03*
X0187732Y0155922D03*
X0272417Y0164190D03*
X0276314Y0161828D03*
X0287732Y0152930D03*
X0294818Y0165922D03*
X0297574Y0160804D03*
X0307417Y0170647D03*
X0309385Y0186395D03*
X0286944Y0387182D03*
X0302299Y0388757D03*
X0305448Y0398993D03*
X0258603Y0456308D03*
X0302228Y0469929D03*
D13*
X0308228Y0465929D03*
X0301905Y0460056D03*
X0297968Y0448245D03*
X0290094Y0452970D03*
X0282220Y0454151D03*
X0274346Y0458088D03*
X0270409Y0438403D03*
X0271984Y0432497D03*
X0286157Y0428560D03*
X0297968Y0428560D03*
X0300055Y0486143D03*
X0282228Y0494929D03*
X0238519Y0451395D03*
X0231039Y0452182D03*
X0222771Y0461237D03*
X0205448Y0483678D03*
X0197574Y0483678D03*
X0189700Y0483678D03*
X0181826Y0483678D03*
X0173952Y0483678D03*
X0154267Y0483678D03*
X0146393Y0483678D03*
X0140488Y0483678D03*
X0134582Y0483678D03*
X0128677Y0483678D03*
X0122771Y0483678D03*
X0081039Y0375371D03*
X0086944Y0349781D03*
X0106629Y0347812D03*
X0106629Y0312379D03*
X0124228Y0302340D03*
X0108598Y0276946D03*
X0088850Y0283851D03*
X0083007Y0295450D03*
X0130409Y0253324D03*
X0132220Y0229702D03*
X0156236Y0217930D03*
X0187732Y0198245D03*
X0166078Y0174623D03*
X0168047Y0152401D03*
X0175921Y0152401D03*
X0183795Y0152401D03*
X0191669Y0152401D03*
X0199543Y0152401D03*
X0213322Y0152401D03*
X0224149Y0152401D03*
X0231039Y0152401D03*
X0238913Y0152401D03*
X0245387Y0152401D03*
X0222181Y0169702D03*
X0242828Y0191129D03*
X0223165Y0203166D03*
X0160173Y0152401D03*
X0152299Y0152401D03*
X0144425Y0152401D03*
X0136551Y0152401D03*
X0129661Y0152401D03*
X0121371Y0152401D03*
X0121393Y0175568D03*
X0283470Y0321897D03*
X0308817Y0300262D03*
X0289110Y0209072D03*
X0301905Y0151001D03*
X0236551Y0428521D03*
D14*
X0219228Y0428348D02*
X0214104Y0428348D01*
X0214104Y0428013D02*
X0214104Y0429107D01*
X0213685Y0430118D01*
X0212911Y0430891D01*
X0211901Y0431310D01*
X0211149Y0431310D01*
X0205280Y0437180D01*
X0205280Y0445762D01*
X0205811Y0446294D01*
X0206230Y0447304D01*
X0206230Y0448398D01*
X0205811Y0449409D01*
X0205037Y0450183D01*
X0204027Y0450601D01*
X0202933Y0450601D01*
X0201922Y0450183D01*
X0201148Y0449409D01*
X0200858Y0448708D01*
X0200090Y0449027D01*
X0198996Y0449027D01*
X0197985Y0448608D01*
X0197211Y0447834D01*
X0196793Y0446824D01*
X0196793Y0445730D01*
X0197211Y0444719D01*
X0197985Y0443945D01*
X0198996Y0443527D01*
X0200090Y0443527D01*
X0201100Y0443945D01*
X0201680Y0444525D01*
X0201680Y0435689D01*
X0202734Y0434634D01*
X0208604Y0428765D01*
X0208604Y0428013D01*
X0209022Y0427002D01*
X0209241Y0426784D01*
X0107687Y0426784D01*
X0106431Y0425529D01*
X0074858Y0425529D01*
X0074858Y0485529D01*
X0119986Y0485529D01*
X0119490Y0484331D01*
X0119490Y0483026D01*
X0119989Y0481820D01*
X0120912Y0480897D01*
X0122118Y0480397D01*
X0123424Y0480397D01*
X0124630Y0480897D01*
X0125553Y0481820D01*
X0125724Y0482233D01*
X0125895Y0481820D01*
X0126818Y0480897D01*
X0128024Y0480397D01*
X0129329Y0480397D01*
X0130535Y0480897D01*
X0131458Y0481820D01*
X0131629Y0482233D01*
X0131801Y0481820D01*
X0132723Y0480897D01*
X0133929Y0480397D01*
X0135235Y0480397D01*
X0136441Y0480897D01*
X0137364Y0481820D01*
X0137535Y0482233D01*
X0137706Y0481820D01*
X0138629Y0480897D01*
X0139835Y0480397D01*
X0141140Y0480397D01*
X0142346Y0480897D01*
X0143269Y0481820D01*
X0143440Y0482233D01*
X0143612Y0481820D01*
X0144535Y0480897D01*
X0145740Y0480397D01*
X0147046Y0480397D01*
X0148252Y0480897D01*
X0149175Y0481820D01*
X0149674Y0483026D01*
X0149674Y0484331D01*
X0149178Y0485529D01*
X0151482Y0485529D01*
X0150986Y0484331D01*
X0150986Y0483026D01*
X0151486Y0481820D01*
X0152409Y0480897D01*
X0153614Y0480397D01*
X0154920Y0480397D01*
X0156126Y0480897D01*
X0157049Y0481820D01*
X0157548Y0483026D01*
X0157548Y0484331D01*
X0157052Y0485529D01*
X0171167Y0485529D01*
X0170671Y0484331D01*
X0170671Y0483026D01*
X0171171Y0481820D01*
X0172094Y0480897D01*
X0173300Y0480397D01*
X0174605Y0480397D01*
X0175811Y0480897D01*
X0176734Y0481820D01*
X0177233Y0483026D01*
X0177233Y0484331D01*
X0176737Y0485529D01*
X0179041Y0485529D01*
X0178545Y0484331D01*
X0178545Y0483026D01*
X0179045Y0481820D01*
X0179968Y0480897D01*
X0181174Y0480397D01*
X0182479Y0480397D01*
X0183685Y0480897D01*
X0184608Y0481820D01*
X0185107Y0483026D01*
X0185107Y0484331D01*
X0184611Y0485529D01*
X0186915Y0485529D01*
X0186419Y0484331D01*
X0186419Y0483026D01*
X0186919Y0481820D01*
X0187842Y0480897D01*
X0189048Y0480397D01*
X0190353Y0480397D01*
X0191559Y0480897D01*
X0192482Y0481820D01*
X0192981Y0483026D01*
X0192981Y0484331D01*
X0192485Y0485529D01*
X0194789Y0485529D01*
X0194293Y0484331D01*
X0194293Y0483026D01*
X0194793Y0481820D01*
X0195716Y0480897D01*
X0196922Y0480397D01*
X0198227Y0480397D01*
X0199433Y0480897D01*
X0200356Y0481820D01*
X0200855Y0483026D01*
X0200855Y0484331D01*
X0200359Y0485529D01*
X0202663Y0485529D01*
X0202167Y0484331D01*
X0202167Y0483026D01*
X0202667Y0481820D01*
X0203590Y0480897D01*
X0204796Y0480397D01*
X0206101Y0480397D01*
X0207307Y0480897D01*
X0208230Y0481820D01*
X0208729Y0483026D01*
X0208729Y0484331D01*
X0208233Y0485529D01*
X0219228Y0485529D01*
X0219228Y0426784D01*
X0213466Y0426784D01*
X0213685Y0427002D01*
X0214104Y0428013D01*
X0213912Y0427550D02*
X0219228Y0427550D01*
X0219228Y0429147D02*
X0214087Y0429147D01*
X0213757Y0429945D02*
X0219228Y0429945D01*
X0219228Y0430744D02*
X0213059Y0430744D01*
X0210917Y0431542D02*
X0219228Y0431542D01*
X0219228Y0432341D02*
X0210119Y0432341D01*
X0209320Y0433139D02*
X0219228Y0433139D01*
X0219228Y0433938D02*
X0208522Y0433938D01*
X0207723Y0434736D02*
X0219228Y0434736D01*
X0219228Y0435535D02*
X0206925Y0435535D01*
X0206126Y0436333D02*
X0219228Y0436333D01*
X0219228Y0437132D02*
X0205328Y0437132D01*
X0205280Y0437930D02*
X0219228Y0437930D01*
X0219228Y0438729D02*
X0205280Y0438729D01*
X0205280Y0439527D02*
X0219228Y0439527D01*
X0219228Y0440326D02*
X0205280Y0440326D01*
X0205280Y0441124D02*
X0219228Y0441124D01*
X0219228Y0441923D02*
X0205280Y0441923D01*
X0205280Y0442721D02*
X0219228Y0442721D01*
X0219228Y0443520D02*
X0205280Y0443520D01*
X0205280Y0444318D02*
X0213360Y0444318D01*
X0213733Y0443945D02*
X0214744Y0443527D01*
X0215838Y0443527D01*
X0216848Y0443945D01*
X0217622Y0444719D01*
X0218041Y0445730D01*
X0218041Y0446824D01*
X0217622Y0447834D01*
X0216848Y0448608D01*
X0215838Y0449027D01*
X0214744Y0449027D01*
X0213733Y0448608D01*
X0212959Y0447834D01*
X0212541Y0446824D01*
X0212541Y0445730D01*
X0212959Y0444719D01*
X0213733Y0443945D01*
X0212795Y0445117D02*
X0205280Y0445117D01*
X0205433Y0445915D02*
X0212541Y0445915D01*
X0212541Y0446714D02*
X0205985Y0446714D01*
X0206230Y0447512D02*
X0212826Y0447512D01*
X0213436Y0448311D02*
X0206230Y0448311D01*
X0205935Y0449109D02*
X0219228Y0449109D01*
X0219228Y0448311D02*
X0217146Y0448311D01*
X0217755Y0447512D02*
X0219228Y0447512D01*
X0219228Y0446714D02*
X0218041Y0446714D01*
X0218041Y0445915D02*
X0219228Y0445915D01*
X0219228Y0445117D02*
X0217787Y0445117D01*
X0217221Y0444318D02*
X0219228Y0444318D01*
X0219228Y0449908D02*
X0205312Y0449908D01*
X0203480Y0447851D02*
X0203480Y0436434D01*
X0211354Y0428560D01*
X0208796Y0427550D02*
X0074858Y0427550D01*
X0074858Y0428348D02*
X0168307Y0428348D01*
X0168457Y0428197D02*
X0169468Y0427779D01*
X0170562Y0427779D01*
X0171573Y0428197D01*
X0172346Y0428971D01*
X0172765Y0429982D01*
X0172765Y0431076D01*
X0172509Y0431693D01*
X0173405Y0431322D01*
X0174499Y0431322D01*
X0175510Y0431741D01*
X0176284Y0432514D01*
X0176702Y0433525D01*
X0176702Y0434619D01*
X0176284Y0435630D01*
X0175510Y0436403D01*
X0174499Y0436822D01*
X0173405Y0436822D01*
X0172394Y0436403D01*
X0171621Y0435630D01*
X0171202Y0434619D01*
X0171202Y0433525D01*
X0171458Y0432908D01*
X0170675Y0433232D01*
X0170797Y0433525D01*
X0170797Y0434619D01*
X0170378Y0435630D01*
X0169604Y0436403D01*
X0168594Y0436822D01*
X0167500Y0436822D01*
X0166489Y0436403D01*
X0165715Y0435630D01*
X0165297Y0434619D01*
X0165297Y0433525D01*
X0165715Y0432514D01*
X0166489Y0431741D01*
X0167387Y0431369D01*
X0167265Y0431076D01*
X0167265Y0429982D01*
X0167684Y0428971D01*
X0168457Y0428197D01*
X0167611Y0429147D02*
X0142640Y0429147D01*
X0142439Y0428945D02*
X0143213Y0429719D01*
X0143631Y0430730D01*
X0143631Y0431824D01*
X0143213Y0432834D01*
X0142439Y0433608D01*
X0141428Y0434027D01*
X0140334Y0434027D01*
X0139324Y0433608D01*
X0138550Y0432834D01*
X0138131Y0431824D01*
X0138131Y0430730D01*
X0138550Y0429719D01*
X0139324Y0428945D01*
X0140334Y0428527D01*
X0141428Y0428527D01*
X0142439Y0428945D01*
X0143306Y0429945D02*
X0167280Y0429945D01*
X0167265Y0430744D02*
X0143631Y0430744D01*
X0143631Y0431542D02*
X0166968Y0431542D01*
X0165889Y0432341D02*
X0143417Y0432341D01*
X0142908Y0433139D02*
X0165456Y0433139D01*
X0165297Y0433938D02*
X0141643Y0433938D01*
X0140119Y0433938D02*
X0133565Y0433938D01*
X0133370Y0434409D02*
X0132597Y0435183D01*
X0131586Y0435601D01*
X0130492Y0435601D01*
X0129481Y0435183D01*
X0128707Y0434409D01*
X0128289Y0433398D01*
X0128289Y0432304D01*
X0128707Y0431294D01*
X0129481Y0430520D01*
X0130492Y0430101D01*
X0131586Y0430101D01*
X0132597Y0430520D01*
X0133370Y0431294D01*
X0133789Y0432304D01*
X0133789Y0433398D01*
X0133370Y0434409D01*
X0133043Y0434736D02*
X0165345Y0434736D01*
X0165676Y0435535D02*
X0131747Y0435535D01*
X0130330Y0435535D02*
X0074858Y0435535D01*
X0074858Y0436333D02*
X0166419Y0436333D01*
X0169675Y0436333D02*
X0172324Y0436333D01*
X0171581Y0435535D02*
X0170417Y0435535D01*
X0170748Y0434736D02*
X0171251Y0434736D01*
X0171202Y0433938D02*
X0170797Y0433938D01*
X0170899Y0433139D02*
X0171362Y0433139D01*
X0172572Y0431542D02*
X0172874Y0431542D01*
X0172765Y0430744D02*
X0206625Y0430744D01*
X0205826Y0431542D02*
X0175031Y0431542D01*
X0176110Y0432341D02*
X0187503Y0432341D01*
X0187749Y0432095D02*
X0188759Y0431676D01*
X0189854Y0431676D01*
X0190864Y0432095D01*
X0191638Y0432868D01*
X0192056Y0433879D01*
X0192056Y0434973D01*
X0191638Y0435984D01*
X0190864Y0436758D01*
X0189854Y0437176D01*
X0188759Y0437176D01*
X0187749Y0436758D01*
X0186975Y0435984D01*
X0186557Y0434973D01*
X0186557Y0433879D01*
X0186975Y0432868D01*
X0187749Y0432095D01*
X0186863Y0433139D02*
X0176542Y0433139D01*
X0176702Y0433938D02*
X0186557Y0433938D01*
X0186557Y0434736D02*
X0176654Y0434736D01*
X0176323Y0435535D02*
X0186789Y0435535D01*
X0187324Y0436333D02*
X0175580Y0436333D01*
X0177920Y0438026D02*
X0177501Y0439037D01*
X0177501Y0440131D01*
X0177920Y0441141D01*
X0178694Y0441915D01*
X0179704Y0442334D01*
X0180305Y0442334D01*
X0179889Y0442750D01*
X0179470Y0443761D01*
X0179470Y0444855D01*
X0179889Y0445866D01*
X0180662Y0446639D01*
X0181673Y0447058D01*
X0182767Y0447058D01*
X0183778Y0446639D01*
X0184551Y0445866D01*
X0184970Y0444855D01*
X0184970Y0443761D01*
X0184551Y0442750D01*
X0183778Y0441977D01*
X0182767Y0441558D01*
X0182166Y0441558D01*
X0182583Y0441141D01*
X0183001Y0440131D01*
X0183001Y0439037D01*
X0182583Y0438026D01*
X0181809Y0437252D01*
X0180798Y0436834D01*
X0179704Y0436834D01*
X0178694Y0437252D01*
X0177920Y0438026D01*
X0178016Y0437930D02*
X0074858Y0437930D01*
X0074858Y0437132D02*
X0178985Y0437132D01*
X0177629Y0438729D02*
X0074858Y0438729D01*
X0074858Y0439527D02*
X0177501Y0439527D01*
X0177582Y0440326D02*
X0074858Y0440326D01*
X0074858Y0441124D02*
X0177913Y0441124D01*
X0178712Y0441923D02*
X0074858Y0441923D01*
X0074858Y0442721D02*
X0179918Y0442721D01*
X0179570Y0443520D02*
X0074858Y0443520D01*
X0074858Y0444318D02*
X0152726Y0444318D01*
X0152736Y0444314D02*
X0153830Y0444314D01*
X0154841Y0444733D01*
X0155614Y0445506D01*
X0156033Y0446517D01*
X0156033Y0447611D01*
X0155614Y0448622D01*
X0154841Y0449395D01*
X0153830Y0449814D01*
X0152736Y0449814D01*
X0151725Y0449395D01*
X0150952Y0448622D01*
X0150533Y0447611D01*
X0150533Y0446517D01*
X0150952Y0445506D01*
X0151725Y0444733D01*
X0152736Y0444314D01*
X0153840Y0444318D02*
X0179470Y0444318D01*
X0179578Y0445117D02*
X0155225Y0445117D01*
X0155784Y0445915D02*
X0179938Y0445915D01*
X0180842Y0446714D02*
X0156033Y0446714D01*
X0156033Y0447512D02*
X0197078Y0447512D01*
X0196793Y0446714D02*
X0183598Y0446714D01*
X0184502Y0445915D02*
X0196793Y0445915D01*
X0197047Y0445117D02*
X0184862Y0445117D01*
X0184970Y0444318D02*
X0197612Y0444318D01*
X0201473Y0444318D02*
X0201680Y0444318D01*
X0201680Y0443520D02*
X0184870Y0443520D01*
X0184522Y0442721D02*
X0188188Y0442721D01*
X0188142Y0442702D02*
X0187369Y0441929D01*
X0186950Y0440918D01*
X0186950Y0439824D01*
X0187369Y0438813D01*
X0188142Y0438040D01*
X0189153Y0437621D01*
X0190247Y0437621D01*
X0191258Y0438040D01*
X0192032Y0438813D01*
X0192450Y0439824D01*
X0192450Y0440918D01*
X0192032Y0441929D01*
X0191258Y0442702D01*
X0190247Y0443121D01*
X0189153Y0443121D01*
X0188142Y0442702D01*
X0187366Y0441923D02*
X0183647Y0441923D01*
X0182590Y0441124D02*
X0187036Y0441124D01*
X0186950Y0440326D02*
X0182921Y0440326D01*
X0183001Y0439527D02*
X0187073Y0439527D01*
X0187454Y0438729D02*
X0182874Y0438729D01*
X0182487Y0437930D02*
X0188407Y0437930D01*
X0188652Y0437132D02*
X0181518Y0437132D01*
X0189961Y0437132D02*
X0201680Y0437132D01*
X0201680Y0437930D02*
X0190993Y0437930D01*
X0191947Y0438729D02*
X0201680Y0438729D01*
X0201680Y0439527D02*
X0192327Y0439527D01*
X0192450Y0440326D02*
X0201680Y0440326D01*
X0201680Y0441124D02*
X0192365Y0441124D01*
X0192034Y0441923D02*
X0201680Y0441923D01*
X0201680Y0442721D02*
X0191213Y0442721D01*
X0191289Y0436333D02*
X0201680Y0436333D01*
X0201834Y0435535D02*
X0191824Y0435535D01*
X0192056Y0434736D02*
X0202632Y0434736D01*
X0203431Y0433938D02*
X0192056Y0433938D01*
X0191750Y0433139D02*
X0204229Y0433139D01*
X0205028Y0432341D02*
X0191110Y0432341D01*
X0197688Y0448311D02*
X0155743Y0448311D01*
X0155127Y0449109D02*
X0201024Y0449109D01*
X0201647Y0449908D02*
X0074858Y0449908D01*
X0074858Y0450706D02*
X0219228Y0450706D01*
X0219228Y0451505D02*
X0074858Y0451505D01*
X0074858Y0452303D02*
X0219228Y0452303D01*
X0219228Y0453102D02*
X0074858Y0453102D01*
X0074858Y0453900D02*
X0219228Y0453900D01*
X0219228Y0454699D02*
X0074858Y0454699D01*
X0074858Y0455497D02*
X0219228Y0455497D01*
X0219228Y0456296D02*
X0074858Y0456296D01*
X0074858Y0457094D02*
X0219228Y0457094D01*
X0219228Y0457893D02*
X0210938Y0457893D01*
X0210637Y0457593D02*
X0211411Y0458366D01*
X0211830Y0459377D01*
X0211830Y0460471D01*
X0211411Y0461482D01*
X0210637Y0462255D01*
X0209627Y0462674D01*
X0208533Y0462674D01*
X0207522Y0462255D01*
X0206748Y0461482D01*
X0206330Y0460471D01*
X0206330Y0459377D01*
X0206748Y0458366D01*
X0207522Y0457593D01*
X0208533Y0457174D01*
X0209627Y0457174D01*
X0210637Y0457593D01*
X0211546Y0458691D02*
X0219228Y0458691D01*
X0219228Y0459490D02*
X0211830Y0459490D01*
X0211830Y0460288D02*
X0219228Y0460288D01*
X0219228Y0461087D02*
X0211575Y0461087D01*
X0211007Y0461885D02*
X0219228Y0461885D01*
X0219228Y0462684D02*
X0174794Y0462684D01*
X0174499Y0462806D02*
X0173405Y0462806D01*
X0172394Y0462387D01*
X0171621Y0461614D01*
X0171202Y0460603D01*
X0171202Y0459509D01*
X0171621Y0458498D01*
X0172394Y0457725D01*
X0173405Y0457306D01*
X0174499Y0457306D01*
X0175510Y0457725D01*
X0176284Y0458498D01*
X0176702Y0459509D01*
X0176702Y0460603D01*
X0176284Y0461614D01*
X0175510Y0462387D01*
X0174499Y0462806D01*
X0173110Y0462684D02*
X0158028Y0462684D01*
X0158173Y0462829D02*
X0158592Y0463840D01*
X0158592Y0464934D01*
X0158173Y0465945D01*
X0157400Y0466718D01*
X0156389Y0467137D01*
X0155295Y0467137D01*
X0154284Y0466718D01*
X0153511Y0465945D01*
X0153092Y0464934D01*
X0153092Y0463840D01*
X0153511Y0462829D01*
X0154284Y0462056D01*
X0155295Y0461637D01*
X0156389Y0461637D01*
X0157400Y0462056D01*
X0158173Y0462829D01*
X0158444Y0463483D02*
X0219228Y0463483D01*
X0219228Y0464281D02*
X0158592Y0464281D01*
X0158532Y0465080D02*
X0219228Y0465080D01*
X0219228Y0465878D02*
X0158201Y0465878D01*
X0157441Y0466677D02*
X0194939Y0466677D01*
X0195229Y0466386D02*
X0196240Y0465968D01*
X0197334Y0465968D01*
X0198345Y0466386D01*
X0199118Y0467160D01*
X0199537Y0468171D01*
X0199537Y0469265D01*
X0199118Y0470275D01*
X0198345Y0471049D01*
X0197334Y0471468D01*
X0196240Y0471468D01*
X0195947Y0471346D01*
X0195575Y0472244D01*
X0194801Y0473017D01*
X0193791Y0473436D01*
X0192696Y0473436D01*
X0191686Y0473017D01*
X0190912Y0472244D01*
X0190494Y0471233D01*
X0190494Y0470139D01*
X0190912Y0469128D01*
X0191686Y0468355D01*
X0192696Y0467936D01*
X0193791Y0467936D01*
X0194084Y0468058D01*
X0194455Y0467160D01*
X0195229Y0466386D01*
X0194325Y0467475D02*
X0074858Y0467475D01*
X0074858Y0466677D02*
X0154243Y0466677D01*
X0153483Y0465878D02*
X0074858Y0465878D01*
X0074858Y0465080D02*
X0153152Y0465080D01*
X0153092Y0464281D02*
X0074858Y0464281D01*
X0074858Y0463483D02*
X0153240Y0463483D01*
X0153656Y0462684D02*
X0074858Y0462684D01*
X0074858Y0461885D02*
X0154695Y0461885D01*
X0156989Y0461885D02*
X0171892Y0461885D01*
X0171403Y0461087D02*
X0074858Y0461087D01*
X0074858Y0460288D02*
X0171202Y0460288D01*
X0171210Y0459490D02*
X0074858Y0459490D01*
X0074858Y0458691D02*
X0171541Y0458691D01*
X0172226Y0457893D02*
X0074858Y0457893D01*
X0074858Y0449109D02*
X0151439Y0449109D01*
X0150823Y0448311D02*
X0074858Y0448311D01*
X0074858Y0447512D02*
X0150533Y0447512D01*
X0150533Y0446714D02*
X0074858Y0446714D01*
X0074858Y0445915D02*
X0150782Y0445915D01*
X0151341Y0445117D02*
X0074858Y0445117D01*
X0074858Y0434736D02*
X0129034Y0434736D01*
X0128512Y0433938D02*
X0074858Y0433938D01*
X0074858Y0433139D02*
X0128289Y0433139D01*
X0128289Y0432341D02*
X0074858Y0432341D01*
X0074858Y0431542D02*
X0128605Y0431542D01*
X0129258Y0430744D02*
X0074858Y0430744D01*
X0074858Y0429945D02*
X0138456Y0429945D01*
X0138131Y0430744D02*
X0132820Y0430744D01*
X0133473Y0431542D02*
X0138131Y0431542D01*
X0138345Y0432341D02*
X0133789Y0432341D01*
X0133789Y0433139D02*
X0138855Y0433139D01*
X0139122Y0429147D02*
X0074858Y0429147D01*
X0074858Y0426751D02*
X0107654Y0426751D01*
X0106855Y0425952D02*
X0074858Y0425952D01*
X0104228Y0413729D02*
X0107028Y0410929D01*
X0192428Y0410929D01*
X0195881Y0407475D01*
X0195881Y0405962D01*
X0213322Y0399033D02*
X0215291Y0401001D01*
X0215291Y0418718D01*
X0208604Y0428348D02*
X0171724Y0428348D01*
X0172419Y0429147D02*
X0208222Y0429147D01*
X0207423Y0429945D02*
X0172750Y0429945D01*
X0175678Y0457893D02*
X0207222Y0457893D01*
X0206614Y0458691D02*
X0176363Y0458691D01*
X0176694Y0459490D02*
X0206330Y0459490D01*
X0206330Y0460288D02*
X0176702Y0460288D01*
X0176502Y0461087D02*
X0206585Y0461087D01*
X0207152Y0461885D02*
X0176012Y0461885D01*
X0175964Y0481050D02*
X0179814Y0481050D01*
X0179033Y0481848D02*
X0176746Y0481848D01*
X0177076Y0482647D02*
X0178702Y0482647D01*
X0178545Y0483445D02*
X0177233Y0483445D01*
X0177233Y0484244D02*
X0178545Y0484244D01*
X0178840Y0485042D02*
X0176939Y0485042D01*
X0170966Y0485042D02*
X0157254Y0485042D01*
X0157548Y0484244D02*
X0170671Y0484244D01*
X0170671Y0483445D02*
X0157548Y0483445D01*
X0157391Y0482647D02*
X0170828Y0482647D01*
X0171159Y0481848D02*
X0157061Y0481848D01*
X0156279Y0481050D02*
X0171940Y0481050D01*
X0183838Y0481050D02*
X0187688Y0481050D01*
X0186907Y0481848D02*
X0184620Y0481848D01*
X0184950Y0482647D02*
X0186576Y0482647D01*
X0186419Y0483445D02*
X0185107Y0483445D01*
X0185107Y0484244D02*
X0186419Y0484244D01*
X0186714Y0485042D02*
X0184813Y0485042D01*
X0191712Y0481050D02*
X0195562Y0481050D01*
X0194781Y0481848D02*
X0192494Y0481848D01*
X0192824Y0482647D02*
X0194450Y0482647D01*
X0194293Y0483445D02*
X0192981Y0483445D01*
X0192981Y0484244D02*
X0194293Y0484244D01*
X0194588Y0485042D02*
X0192687Y0485042D01*
X0200561Y0485042D02*
X0202462Y0485042D01*
X0202167Y0484244D02*
X0200855Y0484244D01*
X0200855Y0483445D02*
X0202167Y0483445D01*
X0202324Y0482647D02*
X0200698Y0482647D01*
X0200368Y0481848D02*
X0202655Y0481848D01*
X0203437Y0481050D02*
X0199586Y0481050D01*
X0207460Y0481050D02*
X0219228Y0481050D01*
X0219228Y0481848D02*
X0208242Y0481848D01*
X0208572Y0482647D02*
X0219228Y0482647D01*
X0219228Y0483445D02*
X0208729Y0483445D01*
X0208729Y0484244D02*
X0219228Y0484244D01*
X0219228Y0485042D02*
X0208435Y0485042D01*
X0219228Y0480251D02*
X0074858Y0480251D01*
X0074858Y0479453D02*
X0219228Y0479453D01*
X0219228Y0478654D02*
X0074858Y0478654D01*
X0074858Y0477856D02*
X0219228Y0477856D01*
X0219228Y0477057D02*
X0074858Y0477057D01*
X0074858Y0476259D02*
X0219228Y0476259D01*
X0219228Y0475460D02*
X0074858Y0475460D01*
X0074858Y0474662D02*
X0219228Y0474662D01*
X0219228Y0473863D02*
X0074858Y0473863D01*
X0074858Y0473065D02*
X0191800Y0473065D01*
X0190934Y0472266D02*
X0074858Y0472266D01*
X0074858Y0471468D02*
X0190591Y0471468D01*
X0190494Y0470669D02*
X0074858Y0470669D01*
X0074858Y0469871D02*
X0190605Y0469871D01*
X0190968Y0469072D02*
X0074858Y0469072D01*
X0074858Y0468274D02*
X0191882Y0468274D01*
X0195553Y0472266D02*
X0219228Y0472266D01*
X0219228Y0471468D02*
X0195896Y0471468D01*
X0194687Y0473065D02*
X0219228Y0473065D01*
X0219228Y0470669D02*
X0198724Y0470669D01*
X0199286Y0469871D02*
X0219228Y0469871D01*
X0219228Y0469072D02*
X0199537Y0469072D01*
X0199537Y0468274D02*
X0219228Y0468274D01*
X0219228Y0467475D02*
X0199249Y0467475D01*
X0198635Y0466677D02*
X0219228Y0466677D01*
X0218550Y0379058D02*
X0217456Y0379058D01*
X0216445Y0378639D01*
X0215671Y0377866D01*
X0215253Y0376855D01*
X0215253Y0375761D01*
X0215484Y0375203D01*
X0214151Y0375203D01*
X0209235Y0370286D01*
X0208838Y0370286D01*
X0207827Y0369868D01*
X0207054Y0369094D01*
X0206635Y0368083D01*
X0206635Y0366989D01*
X0207054Y0365979D01*
X0207827Y0365205D01*
X0208838Y0364786D01*
X0209932Y0364786D01*
X0210943Y0365205D01*
X0211717Y0365979D01*
X0212135Y0366989D01*
X0212135Y0368083D01*
X0212132Y0368092D01*
X0215643Y0371603D01*
X0259658Y0371603D01*
X0260190Y0371071D01*
X0261200Y0370653D01*
X0262294Y0370653D01*
X0263305Y0371071D01*
X0264079Y0371845D01*
X0264497Y0372856D01*
X0264497Y0373950D01*
X0264079Y0374960D01*
X0263305Y0375734D01*
X0262294Y0376153D01*
X0261200Y0376153D01*
X0260190Y0375734D01*
X0259658Y0375203D01*
X0220521Y0375203D01*
X0220753Y0375761D01*
X0220753Y0376855D01*
X0220334Y0377866D01*
X0219560Y0378639D01*
X0218550Y0379058D01*
X0219075Y0378840D02*
X0297417Y0378840D01*
X0297417Y0378042D02*
X0276659Y0378042D01*
X0276468Y0378121D02*
X0275374Y0378121D01*
X0274363Y0377702D01*
X0273589Y0376929D01*
X0273171Y0375918D01*
X0273171Y0374824D01*
X0273589Y0373813D01*
X0274363Y0373040D01*
X0275374Y0372621D01*
X0276468Y0372621D01*
X0277478Y0373040D01*
X0278252Y0373813D01*
X0278671Y0374824D01*
X0278671Y0375918D01*
X0278252Y0376929D01*
X0277478Y0377702D01*
X0276468Y0378121D01*
X0275182Y0378042D02*
X0220158Y0378042D01*
X0220592Y0377243D02*
X0273904Y0377243D01*
X0273389Y0376445D02*
X0220753Y0376445D01*
X0220705Y0375646D02*
X0260102Y0375646D01*
X0261747Y0373403D02*
X0214897Y0373403D01*
X0209385Y0367891D01*
X0209385Y0367536D01*
X0208284Y0370057D02*
X0114228Y0370057D01*
X0114228Y0370855D02*
X0209804Y0370855D01*
X0210603Y0371654D02*
X0114228Y0371654D01*
X0114228Y0372452D02*
X0211401Y0372452D01*
X0212200Y0373251D02*
X0114228Y0373251D01*
X0114228Y0374049D02*
X0212998Y0374049D01*
X0213797Y0374848D02*
X0114228Y0374848D01*
X0114228Y0375646D02*
X0215300Y0375646D01*
X0215253Y0376445D02*
X0114228Y0376445D01*
X0114228Y0377243D02*
X0215413Y0377243D01*
X0215847Y0378042D02*
X0114228Y0378042D01*
X0114228Y0378840D02*
X0216930Y0378840D01*
X0214895Y0370855D02*
X0260711Y0370855D01*
X0262784Y0370855D02*
X0282225Y0370855D01*
X0282295Y0371023D02*
X0281876Y0370013D01*
X0281876Y0368919D01*
X0282295Y0367908D01*
X0283068Y0367134D01*
X0284079Y0366716D01*
X0285173Y0366716D01*
X0286184Y0367134D01*
X0286958Y0367908D01*
X0287376Y0368919D01*
X0287376Y0370013D01*
X0286958Y0371023D01*
X0286184Y0371797D01*
X0285173Y0372216D01*
X0284079Y0372216D01*
X0283068Y0371797D01*
X0282295Y0371023D01*
X0282925Y0371654D02*
X0263888Y0371654D01*
X0264330Y0372452D02*
X0297417Y0372452D01*
X0297417Y0371654D02*
X0286327Y0371654D01*
X0287027Y0370855D02*
X0297417Y0370855D01*
X0297417Y0370057D02*
X0287358Y0370057D01*
X0287376Y0369258D02*
X0297417Y0369258D01*
X0297417Y0368460D02*
X0287186Y0368460D01*
X0286711Y0367661D02*
X0297417Y0367661D01*
X0297417Y0366863D02*
X0285528Y0366863D01*
X0283724Y0366863D02*
X0258949Y0366863D01*
X0258986Y0366950D02*
X0258986Y0368044D01*
X0258567Y0369055D01*
X0257793Y0369828D01*
X0256783Y0370247D01*
X0255689Y0370247D01*
X0254678Y0369828D01*
X0254147Y0369297D01*
X0247616Y0369297D01*
X0202340Y0324022D01*
X0184624Y0324022D01*
X0174781Y0314179D01*
X0173727Y0313125D01*
X0173727Y0300452D01*
X0173828Y0300352D01*
X0173828Y0295474D01*
X0159383Y0281029D01*
X0155648Y0281029D01*
X0155116Y0281561D01*
X0154105Y0281979D01*
X0153011Y0281979D01*
X0152001Y0281561D01*
X0151227Y0280787D01*
X0150808Y0279776D01*
X0150808Y0278682D01*
X0151227Y0277672D01*
X0152001Y0276898D01*
X0153011Y0276479D01*
X0154105Y0276479D01*
X0155116Y0276898D01*
X0155648Y0277429D01*
X0187934Y0277429D01*
X0187934Y0277532D02*
X0187934Y0276438D01*
X0188353Y0275428D01*
X0189127Y0274654D01*
X0190137Y0274235D01*
X0184576Y0274235D01*
X0184576Y0274580D02*
X0184158Y0275590D01*
X0183384Y0276364D01*
X0182373Y0276783D01*
X0181279Y0276783D01*
X0180268Y0276364D01*
X0179495Y0275590D01*
X0179076Y0274580D01*
X0179076Y0273486D01*
X0179495Y0272475D01*
X0180268Y0271701D01*
X0181279Y0271283D01*
X0182373Y0271283D01*
X0183384Y0271701D01*
X0184158Y0272475D01*
X0184576Y0273486D01*
X0184576Y0274580D01*
X0184388Y0275034D02*
X0188747Y0275034D01*
X0188185Y0275832D02*
X0183915Y0275832D01*
X0182739Y0276631D02*
X0187934Y0276631D01*
X0187934Y0277532D02*
X0188353Y0278543D01*
X0189127Y0279317D01*
X0190137Y0279735D01*
X0191231Y0279735D01*
X0192242Y0279317D01*
X0193016Y0278543D01*
X0193434Y0277532D01*
X0193434Y0276438D01*
X0193016Y0275428D01*
X0192242Y0274654D01*
X0191231Y0274235D01*
X0190137Y0274235D01*
X0191232Y0274235D02*
X0241122Y0274235D01*
X0242216Y0274235D01*
X0294073Y0274235D01*
X0294245Y0274063D02*
X0295256Y0273645D01*
X0296350Y0273645D01*
X0297360Y0274063D01*
X0297417Y0274120D01*
X0297417Y0260558D01*
X0296607Y0260222D01*
X0295833Y0259449D01*
X0295415Y0258438D01*
X0295415Y0257344D01*
X0295833Y0256333D01*
X0296607Y0255559D01*
X0297417Y0255224D01*
X0297417Y0245529D01*
X0189563Y0245529D01*
X0189891Y0246320D01*
X0189891Y0247414D01*
X0189472Y0248425D01*
X0188699Y0249199D01*
X0187688Y0249617D01*
X0186594Y0249617D01*
X0185583Y0249199D01*
X0184810Y0248425D01*
X0184391Y0247414D01*
X0184391Y0246320D01*
X0184719Y0245529D01*
X0114228Y0245529D01*
X0114228Y0390891D01*
X0114866Y0391530D01*
X0115285Y0392541D01*
X0115285Y0393292D01*
X0121301Y0399308D01*
X0126052Y0399308D01*
X0120613Y0393869D01*
X0119862Y0393869D01*
X0118851Y0393450D01*
X0118078Y0392677D01*
X0117659Y0391666D01*
X0117659Y0390572D01*
X0118078Y0389561D01*
X0118851Y0388788D01*
X0119862Y0388369D01*
X0120956Y0388369D01*
X0121967Y0388788D01*
X0122740Y0389561D01*
X0123159Y0390572D01*
X0123159Y0391324D01*
X0131143Y0399308D01*
X0136682Y0399308D01*
X0124388Y0387014D01*
X0122498Y0387014D01*
X0121967Y0387545D01*
X0120956Y0387964D01*
X0119862Y0387964D01*
X0118851Y0387545D01*
X0118078Y0386771D01*
X0117659Y0385761D01*
X0117659Y0384667D01*
X0118078Y0383656D01*
X0118851Y0382882D01*
X0119862Y0382464D01*
X0120956Y0382464D01*
X0121967Y0382882D01*
X0122498Y0383414D01*
X0125879Y0383414D01*
X0129470Y0387005D01*
X0129470Y0386635D01*
X0129889Y0385624D01*
X0130662Y0384851D01*
X0131673Y0384432D01*
X0132767Y0384432D01*
X0133778Y0384851D01*
X0134551Y0385624D01*
X0134970Y0386635D01*
X0134970Y0387729D01*
X0134551Y0388740D01*
X0133778Y0389513D01*
X0132767Y0389932D01*
X0132397Y0389932D01*
X0141773Y0399308D01*
X0297417Y0399308D01*
X0297417Y0278670D01*
X0297360Y0278726D01*
X0296350Y0279145D01*
X0295256Y0279145D01*
X0294245Y0278726D01*
X0293471Y0277952D01*
X0293053Y0276942D01*
X0293053Y0275848D01*
X0293471Y0274837D01*
X0294245Y0274063D01*
X0293390Y0275034D02*
X0243606Y0275034D01*
X0243226Y0274654D02*
X0244000Y0275428D01*
X0244419Y0276438D01*
X0244419Y0277532D01*
X0244000Y0278543D01*
X0243226Y0279317D01*
X0242216Y0279735D01*
X0241122Y0279735D01*
X0240111Y0279317D01*
X0239337Y0278543D01*
X0238919Y0277532D01*
X0238919Y0276438D01*
X0239337Y0275428D01*
X0240111Y0274654D01*
X0241122Y0274235D01*
X0242216Y0274235D02*
X0243226Y0274654D01*
X0244168Y0275832D02*
X0293059Y0275832D01*
X0293053Y0276631D02*
X0244419Y0276631D01*
X0244419Y0277429D02*
X0293255Y0277429D01*
X0293747Y0278228D02*
X0244131Y0278228D01*
X0243517Y0279026D02*
X0268613Y0279026D01*
X0268851Y0278788D02*
X0269862Y0278369D01*
X0270956Y0278369D01*
X0271967Y0278788D01*
X0272740Y0279561D01*
X0273159Y0280572D01*
X0273159Y0281666D01*
X0272740Y0282677D01*
X0271967Y0283450D01*
X0270956Y0283869D01*
X0269862Y0283869D01*
X0268851Y0283450D01*
X0268078Y0282677D01*
X0267659Y0281666D01*
X0267659Y0280572D01*
X0268078Y0279561D01*
X0268851Y0278788D01*
X0267968Y0279825D02*
X0202561Y0279825D01*
X0202858Y0279527D02*
X0202085Y0280301D01*
X0201074Y0280720D01*
X0199980Y0280720D01*
X0198969Y0280301D01*
X0198196Y0279527D01*
X0197777Y0278517D01*
X0197777Y0277423D01*
X0198196Y0276412D01*
X0198969Y0275638D01*
X0199980Y0275220D01*
X0201074Y0275220D01*
X0202085Y0275638D01*
X0202858Y0276412D01*
X0203277Y0277423D01*
X0203277Y0278517D01*
X0202858Y0279527D01*
X0203066Y0279026D02*
X0239821Y0279026D01*
X0239207Y0278228D02*
X0203277Y0278228D01*
X0203277Y0277429D02*
X0238919Y0277429D01*
X0238919Y0276631D02*
X0202949Y0276631D01*
X0202279Y0275832D02*
X0239170Y0275832D01*
X0239731Y0275034D02*
X0192622Y0275034D01*
X0193183Y0275832D02*
X0198775Y0275832D01*
X0198105Y0276631D02*
X0193434Y0276631D01*
X0193434Y0277429D02*
X0197777Y0277429D01*
X0197777Y0278228D02*
X0193146Y0278228D01*
X0192532Y0279026D02*
X0197988Y0279026D01*
X0198493Y0279825D02*
X0184348Y0279825D01*
X0184158Y0279365D02*
X0184576Y0280375D01*
X0184576Y0281469D01*
X0184158Y0282480D01*
X0183384Y0283254D01*
X0182373Y0283672D01*
X0181279Y0283672D01*
X0180268Y0283254D01*
X0179495Y0282480D01*
X0179076Y0281469D01*
X0179076Y0280375D01*
X0179495Y0279365D01*
X0180268Y0278591D01*
X0181279Y0278172D01*
X0182373Y0278172D01*
X0183384Y0278591D01*
X0184158Y0279365D01*
X0183819Y0279026D02*
X0188836Y0279026D01*
X0188223Y0278228D02*
X0182507Y0278228D01*
X0181145Y0278228D02*
X0161673Y0278228D01*
X0162471Y0279026D02*
X0179833Y0279026D01*
X0179304Y0279825D02*
X0163270Y0279825D01*
X0164068Y0280623D02*
X0179076Y0280623D01*
X0179076Y0281422D02*
X0164867Y0281422D01*
X0165665Y0282220D02*
X0179387Y0282220D01*
X0180034Y0283019D02*
X0166464Y0283019D01*
X0167262Y0283817D02*
X0206430Y0283817D01*
X0206242Y0284273D02*
X0206660Y0283262D01*
X0207434Y0282489D01*
X0208445Y0282070D01*
X0209539Y0282070D01*
X0210549Y0282489D01*
X0211323Y0283262D01*
X0211742Y0284273D01*
X0211742Y0285367D01*
X0211323Y0286378D01*
X0210549Y0287151D01*
X0209539Y0287570D01*
X0208445Y0287570D01*
X0207434Y0287151D01*
X0206660Y0286378D01*
X0206242Y0285367D01*
X0206242Y0284273D01*
X0206242Y0284616D02*
X0168061Y0284616D01*
X0168859Y0285414D02*
X0206261Y0285414D01*
X0206592Y0286213D02*
X0190846Y0286213D01*
X0190444Y0286046D02*
X0191455Y0286465D01*
X0192228Y0287239D01*
X0192647Y0288249D01*
X0192647Y0289343D01*
X0192228Y0290354D01*
X0191455Y0291128D01*
X0190444Y0291546D01*
X0189350Y0291546D01*
X0188339Y0291128D01*
X0187566Y0290354D01*
X0187147Y0289343D01*
X0187147Y0288249D01*
X0187566Y0287239D01*
X0188339Y0286465D01*
X0189350Y0286046D01*
X0190444Y0286046D01*
X0188948Y0286213D02*
X0169658Y0286213D01*
X0170456Y0287012D02*
X0187793Y0287012D01*
X0187329Y0287810D02*
X0171255Y0287810D01*
X0172053Y0288609D02*
X0187147Y0288609D01*
X0187173Y0289407D02*
X0172852Y0289407D01*
X0173650Y0290206D02*
X0187504Y0290206D01*
X0188216Y0291004D02*
X0174449Y0291004D01*
X0175247Y0291803D02*
X0222587Y0291803D01*
X0222383Y0291312D02*
X0222383Y0290218D01*
X0222802Y0289207D01*
X0223576Y0288433D01*
X0224586Y0288015D01*
X0225680Y0288015D01*
X0226691Y0288433D01*
X0227222Y0288965D01*
X0261312Y0288965D01*
X0262366Y0290019D01*
X0262366Y0290019D01*
X0274141Y0301794D01*
X0274893Y0301794D01*
X0275904Y0302213D01*
X0276677Y0302987D01*
X0277096Y0303997D01*
X0277096Y0305091D01*
X0276677Y0306102D01*
X0275904Y0306876D01*
X0274893Y0307294D01*
X0273799Y0307294D01*
X0272788Y0306876D01*
X0272015Y0306102D01*
X0271596Y0305091D01*
X0271596Y0304340D01*
X0259821Y0292565D01*
X0238696Y0292565D01*
X0239276Y0293144D01*
X0239694Y0294155D01*
X0239694Y0295002D01*
X0240471Y0295323D01*
X0241244Y0296097D01*
X0241663Y0297108D01*
X0241663Y0298202D01*
X0241244Y0299212D01*
X0240471Y0299986D01*
X0239694Y0300307D01*
X0239694Y0300907D01*
X0240471Y0301229D01*
X0241244Y0302002D01*
X0241663Y0303013D01*
X0241663Y0304107D01*
X0241244Y0305118D01*
X0240471Y0305891D01*
X0239694Y0306213D01*
X0239694Y0307060D01*
X0239276Y0308071D01*
X0238502Y0308844D01*
X0237491Y0309263D01*
X0236397Y0309263D01*
X0235387Y0308844D01*
X0234613Y0308071D01*
X0234194Y0307060D01*
X0234194Y0305966D01*
X0234613Y0304955D01*
X0235387Y0304182D01*
X0236163Y0303860D01*
X0236163Y0303260D01*
X0235387Y0302939D01*
X0234613Y0302165D01*
X0234194Y0301154D01*
X0234194Y0300060D01*
X0234613Y0299050D01*
X0235387Y0298276D01*
X0236163Y0297954D01*
X0236163Y0297355D01*
X0235387Y0297033D01*
X0234613Y0296260D01*
X0234194Y0295249D01*
X0234194Y0294155D01*
X0234613Y0293144D01*
X0235192Y0292565D01*
X0227222Y0292565D01*
X0226691Y0293096D01*
X0225680Y0293515D01*
X0224586Y0293515D01*
X0223576Y0293096D01*
X0222802Y0292323D01*
X0222383Y0291312D01*
X0222383Y0291004D02*
X0191578Y0291004D01*
X0192290Y0290206D02*
X0222388Y0290206D01*
X0222719Y0289407D02*
X0192621Y0289407D01*
X0192647Y0288609D02*
X0223400Y0288609D01*
X0225133Y0290765D02*
X0260566Y0290765D01*
X0274346Y0304544D01*
X0277096Y0304579D02*
X0297417Y0304579D01*
X0297417Y0305377D02*
X0276977Y0305377D01*
X0276604Y0306176D02*
X0297417Y0306176D01*
X0297417Y0306974D02*
X0275666Y0306974D01*
X0273026Y0306974D02*
X0239694Y0306974D01*
X0239784Y0306176D02*
X0272088Y0306176D01*
X0271714Y0305377D02*
X0240985Y0305377D01*
X0241467Y0304579D02*
X0271596Y0304579D01*
X0271036Y0303780D02*
X0241663Y0303780D01*
X0241650Y0302982D02*
X0270238Y0302982D01*
X0269439Y0302183D02*
X0241319Y0302183D01*
X0240627Y0301385D02*
X0268641Y0301385D01*
X0267842Y0300586D02*
X0239694Y0300586D01*
X0240669Y0299788D02*
X0249952Y0299788D01*
X0250150Y0299986D02*
X0249377Y0299212D01*
X0248958Y0298202D01*
X0248958Y0297108D01*
X0249377Y0296097D01*
X0250150Y0295323D01*
X0251161Y0294905D01*
X0252255Y0294905D01*
X0253266Y0295323D01*
X0254039Y0296097D01*
X0254458Y0297108D01*
X0254458Y0298202D01*
X0254039Y0299212D01*
X0253266Y0299986D01*
X0252255Y0300405D01*
X0251161Y0300405D01*
X0250150Y0299986D01*
X0249284Y0298989D02*
X0241337Y0298989D01*
X0241663Y0298191D02*
X0248958Y0298191D01*
X0248958Y0297392D02*
X0241663Y0297392D01*
X0241450Y0296594D02*
X0249171Y0296594D01*
X0249678Y0295795D02*
X0240942Y0295795D01*
X0239694Y0294997D02*
X0250939Y0294997D01*
X0252477Y0294997D02*
X0262253Y0294997D01*
X0263051Y0295795D02*
X0253738Y0295795D01*
X0254245Y0296594D02*
X0263850Y0296594D01*
X0264648Y0297392D02*
X0254458Y0297392D01*
X0254458Y0298191D02*
X0265447Y0298191D01*
X0266245Y0298989D02*
X0254132Y0298989D01*
X0253464Y0299788D02*
X0267044Y0299788D01*
X0269739Y0297392D02*
X0297417Y0297392D01*
X0297417Y0296594D02*
X0268941Y0296594D01*
X0268142Y0295795D02*
X0297417Y0295795D01*
X0297417Y0294997D02*
X0267344Y0294997D01*
X0266545Y0294198D02*
X0297417Y0294198D01*
X0297417Y0293400D02*
X0265747Y0293400D01*
X0264948Y0292601D02*
X0281368Y0292601D01*
X0281673Y0292727D02*
X0280662Y0292309D01*
X0279889Y0291535D01*
X0279470Y0290524D01*
X0279470Y0289430D01*
X0279889Y0288420D01*
X0280662Y0287646D01*
X0281673Y0287227D01*
X0282767Y0287227D01*
X0283778Y0287646D01*
X0284551Y0288420D01*
X0284970Y0289430D01*
X0284970Y0290524D01*
X0284551Y0291535D01*
X0283778Y0292309D01*
X0282767Y0292727D01*
X0281673Y0292727D01*
X0283072Y0292601D02*
X0297417Y0292601D01*
X0297417Y0291803D02*
X0284284Y0291803D01*
X0284771Y0291004D02*
X0297417Y0291004D01*
X0297417Y0290206D02*
X0284970Y0290206D01*
X0284960Y0289407D02*
X0297417Y0289407D01*
X0297417Y0288609D02*
X0284629Y0288609D01*
X0283942Y0287810D02*
X0297417Y0287810D01*
X0297417Y0287012D02*
X0253209Y0287012D01*
X0253069Y0287151D02*
X0252058Y0287570D01*
X0250964Y0287570D01*
X0249953Y0287151D01*
X0249180Y0286378D01*
X0248761Y0285367D01*
X0248761Y0284273D01*
X0249180Y0283262D01*
X0249953Y0282489D01*
X0250964Y0282070D01*
X0252058Y0282070D01*
X0253069Y0282489D01*
X0253843Y0283262D01*
X0254261Y0284273D01*
X0254261Y0285367D01*
X0253843Y0286378D01*
X0253069Y0287151D01*
X0253911Y0286213D02*
X0297417Y0286213D01*
X0297417Y0285414D02*
X0254242Y0285414D01*
X0254261Y0284616D02*
X0297417Y0284616D01*
X0297417Y0283817D02*
X0271081Y0283817D01*
X0269737Y0283817D02*
X0254073Y0283817D01*
X0253599Y0283019D02*
X0268420Y0283019D01*
X0267888Y0282220D02*
X0252422Y0282220D01*
X0250601Y0282220D02*
X0209902Y0282220D01*
X0211080Y0283019D02*
X0249423Y0283019D01*
X0248950Y0283817D02*
X0211553Y0283817D01*
X0211742Y0284616D02*
X0248761Y0284616D01*
X0248781Y0285414D02*
X0211722Y0285414D01*
X0211391Y0286213D02*
X0249112Y0286213D01*
X0249814Y0287012D02*
X0210689Y0287012D01*
X0207294Y0287012D02*
X0192001Y0287012D01*
X0192465Y0287810D02*
X0280498Y0287810D01*
X0279810Y0288609D02*
X0226866Y0288609D01*
X0227186Y0292601D02*
X0235156Y0292601D01*
X0234507Y0293400D02*
X0225958Y0293400D01*
X0224308Y0293400D02*
X0191153Y0293400D01*
X0191047Y0293144D02*
X0191466Y0294155D01*
X0191466Y0295249D01*
X0191047Y0296260D01*
X0190274Y0297033D01*
X0189263Y0297452D01*
X0188169Y0297452D01*
X0187158Y0297033D01*
X0186385Y0296260D01*
X0185966Y0295249D01*
X0185966Y0294155D01*
X0186385Y0293144D01*
X0187158Y0292370D01*
X0188169Y0291952D01*
X0189263Y0291952D01*
X0190274Y0292370D01*
X0191047Y0293144D01*
X0190504Y0292601D02*
X0223080Y0292601D01*
X0234194Y0294198D02*
X0201156Y0294198D01*
X0201100Y0294142D02*
X0201874Y0294916D01*
X0202293Y0295926D01*
X0202293Y0297020D01*
X0201874Y0298031D01*
X0201100Y0298805D01*
X0200090Y0299223D01*
X0198996Y0299223D01*
X0197985Y0298805D01*
X0197211Y0298031D01*
X0196793Y0297020D01*
X0196793Y0295926D01*
X0197211Y0294916D01*
X0197985Y0294142D01*
X0198996Y0293723D01*
X0200090Y0293723D01*
X0201100Y0294142D01*
X0201908Y0294997D02*
X0234194Y0294997D01*
X0234421Y0295795D02*
X0202238Y0295795D01*
X0202293Y0296594D02*
X0234947Y0296594D01*
X0236163Y0297392D02*
X0202139Y0297392D01*
X0201715Y0298191D02*
X0235593Y0298191D01*
X0234673Y0298989D02*
X0200655Y0298989D01*
X0198430Y0298989D02*
X0190396Y0298989D01*
X0190274Y0298867D02*
X0191047Y0299640D01*
X0191466Y0300651D01*
X0191466Y0301745D01*
X0191047Y0302756D01*
X0190274Y0303529D01*
X0189263Y0303948D01*
X0188169Y0303948D01*
X0187158Y0303529D01*
X0186385Y0302756D01*
X0185966Y0301745D01*
X0185966Y0300651D01*
X0186385Y0299640D01*
X0187158Y0298867D01*
X0188169Y0298448D01*
X0189263Y0298448D01*
X0190274Y0298867D01*
X0191108Y0299788D02*
X0234307Y0299788D01*
X0234194Y0300586D02*
X0191439Y0300586D01*
X0191466Y0301385D02*
X0234290Y0301385D01*
X0234631Y0302183D02*
X0191284Y0302183D01*
X0190821Y0302982D02*
X0235491Y0302982D01*
X0236163Y0303780D02*
X0189668Y0303780D01*
X0187764Y0303780D02*
X0185980Y0303780D01*
X0186151Y0304194D02*
X0185732Y0303183D01*
X0184959Y0302410D01*
X0183948Y0301991D01*
X0182854Y0301991D01*
X0181843Y0302410D01*
X0181070Y0303183D01*
X0180651Y0304194D01*
X0180651Y0305288D01*
X0181070Y0306299D01*
X0181843Y0307073D01*
X0182854Y0307491D01*
X0183948Y0307491D01*
X0184959Y0307073D01*
X0185732Y0306299D01*
X0186151Y0305288D01*
X0186151Y0304194D01*
X0186151Y0304579D02*
X0234989Y0304579D01*
X0234438Y0305377D02*
X0186114Y0305377D01*
X0185783Y0306176D02*
X0234194Y0306176D01*
X0234194Y0306974D02*
X0185057Y0306974D01*
X0181745Y0306974D02*
X0177327Y0306974D01*
X0177327Y0306176D02*
X0181019Y0306176D01*
X0180688Y0305377D02*
X0177327Y0305377D01*
X0177327Y0304579D02*
X0180651Y0304579D01*
X0180822Y0303780D02*
X0177327Y0303780D01*
X0177327Y0303222D02*
X0177327Y0311633D01*
X0186115Y0320422D01*
X0203832Y0320422D01*
X0249107Y0365697D01*
X0254147Y0365697D01*
X0254678Y0365166D01*
X0255689Y0364747D01*
X0256783Y0364747D01*
X0257793Y0365166D01*
X0258567Y0365939D01*
X0258986Y0366950D01*
X0258986Y0367661D02*
X0282542Y0367661D01*
X0282066Y0368460D02*
X0258814Y0368460D01*
X0258364Y0369258D02*
X0281876Y0369258D01*
X0281894Y0370057D02*
X0257242Y0370057D01*
X0255229Y0370057D02*
X0214097Y0370057D01*
X0213298Y0369258D02*
X0247577Y0369258D01*
X0246779Y0368460D02*
X0212500Y0368460D01*
X0212135Y0367661D02*
X0245980Y0367661D01*
X0245182Y0366863D02*
X0212083Y0366863D01*
X0211752Y0366064D02*
X0244383Y0366064D01*
X0243585Y0365266D02*
X0211003Y0365266D01*
X0207767Y0365266D02*
X0203221Y0365266D01*
X0203277Y0365131D02*
X0202858Y0366141D01*
X0202085Y0366915D01*
X0201074Y0367334D01*
X0199980Y0367334D01*
X0198969Y0366915D01*
X0198196Y0366141D01*
X0197777Y0365131D01*
X0197777Y0364037D01*
X0198196Y0363026D01*
X0198969Y0362252D01*
X0199980Y0361834D01*
X0201074Y0361834D01*
X0202085Y0362252D01*
X0202858Y0363026D01*
X0203277Y0364037D01*
X0203277Y0365131D01*
X0203277Y0364467D02*
X0242786Y0364467D01*
X0241988Y0363669D02*
X0203124Y0363669D01*
X0202702Y0362870D02*
X0241189Y0362870D01*
X0240391Y0362072D02*
X0201648Y0362072D01*
X0199406Y0362072D02*
X0184182Y0362072D01*
X0184182Y0362139D02*
X0183764Y0363149D01*
X0182990Y0363923D01*
X0181980Y0364342D01*
X0180885Y0364342D01*
X0179875Y0363923D01*
X0179101Y0363149D01*
X0178682Y0362139D01*
X0178682Y0361045D01*
X0179101Y0360034D01*
X0179875Y0359260D01*
X0180885Y0358842D01*
X0181980Y0358842D01*
X0182990Y0359260D01*
X0183764Y0360034D01*
X0184182Y0361045D01*
X0184182Y0362139D01*
X0183879Y0362870D02*
X0192964Y0362870D01*
X0193090Y0362818D02*
X0194184Y0362818D01*
X0195195Y0363237D01*
X0195969Y0364010D01*
X0196387Y0365021D01*
X0196387Y0366115D01*
X0195969Y0367126D01*
X0195195Y0367899D01*
X0194184Y0368318D01*
X0193090Y0368318D01*
X0192079Y0367899D01*
X0191306Y0367126D01*
X0190887Y0366115D01*
X0190887Y0365021D01*
X0191306Y0364010D01*
X0192079Y0363237D01*
X0193090Y0362818D01*
X0194310Y0362870D02*
X0198352Y0362870D01*
X0197929Y0363669D02*
X0195627Y0363669D01*
X0196158Y0364467D02*
X0197777Y0364467D01*
X0197833Y0365266D02*
X0196387Y0365266D01*
X0196387Y0366064D02*
X0198164Y0366064D01*
X0198917Y0366863D02*
X0196078Y0366863D01*
X0195433Y0367661D02*
X0206635Y0367661D01*
X0206688Y0366863D02*
X0202137Y0366863D01*
X0202890Y0366064D02*
X0207019Y0366064D01*
X0206791Y0368460D02*
X0114228Y0368460D01*
X0114228Y0369258D02*
X0207218Y0369258D01*
X0219284Y0354120D02*
X0218511Y0353346D01*
X0218092Y0352335D01*
X0218092Y0351241D01*
X0218511Y0350231D01*
X0219284Y0349457D01*
X0220295Y0349038D01*
X0221389Y0349038D01*
X0222400Y0349457D01*
X0223173Y0350231D01*
X0223592Y0351241D01*
X0223592Y0352335D01*
X0223173Y0353346D01*
X0222400Y0354120D01*
X0221389Y0354538D01*
X0220295Y0354538D01*
X0219284Y0354120D01*
X0219251Y0354086D02*
X0194379Y0354086D01*
X0194197Y0354527D02*
X0193423Y0355301D01*
X0192413Y0355720D01*
X0191319Y0355720D01*
X0190308Y0355301D01*
X0189534Y0354527D01*
X0189116Y0353517D01*
X0189116Y0352423D01*
X0189534Y0351412D01*
X0190308Y0350638D01*
X0191319Y0350220D01*
X0192413Y0350220D01*
X0193423Y0350638D01*
X0194197Y0351412D01*
X0194616Y0352423D01*
X0194616Y0353517D01*
X0194197Y0354527D01*
X0193839Y0354885D02*
X0233204Y0354885D01*
X0234002Y0355683D02*
X0192500Y0355683D01*
X0191232Y0355683D02*
X0182444Y0355683D01*
X0182608Y0355288D02*
X0182189Y0356299D01*
X0181415Y0357073D01*
X0180405Y0357491D01*
X0179311Y0357491D01*
X0178300Y0357073D01*
X0177526Y0356299D01*
X0177108Y0355288D01*
X0177108Y0354194D01*
X0177526Y0353183D01*
X0178300Y0352410D01*
X0179311Y0351991D01*
X0180405Y0351991D01*
X0181415Y0352410D01*
X0182189Y0353183D01*
X0182608Y0354194D01*
X0182608Y0355288D01*
X0182608Y0354885D02*
X0189892Y0354885D01*
X0189352Y0354086D02*
X0182563Y0354086D01*
X0182232Y0353288D02*
X0189116Y0353288D01*
X0189116Y0352489D02*
X0181495Y0352489D01*
X0178220Y0352489D02*
X0174605Y0352489D01*
X0174526Y0352410D02*
X0175299Y0353183D01*
X0175718Y0354194D01*
X0175718Y0355288D01*
X0175299Y0356299D01*
X0174526Y0357073D01*
X0173515Y0357491D01*
X0172421Y0357491D01*
X0171410Y0357073D01*
X0170637Y0356299D01*
X0170218Y0355288D01*
X0170218Y0354194D01*
X0170637Y0353183D01*
X0171410Y0352410D01*
X0172421Y0351991D01*
X0173515Y0351991D01*
X0174526Y0352410D01*
X0175343Y0353288D02*
X0177483Y0353288D01*
X0177152Y0354086D02*
X0175673Y0354086D01*
X0175718Y0354885D02*
X0177108Y0354885D01*
X0177271Y0355683D02*
X0175554Y0355683D01*
X0175116Y0356482D02*
X0177709Y0356482D01*
X0178802Y0357281D02*
X0174024Y0357281D01*
X0171912Y0357281D02*
X0160244Y0357281D01*
X0160746Y0357073D02*
X0159735Y0357491D01*
X0158641Y0357491D01*
X0157631Y0357073D01*
X0156857Y0356299D01*
X0156438Y0355288D01*
X0156438Y0354194D01*
X0156857Y0353183D01*
X0157268Y0352773D01*
X0156857Y0352362D01*
X0156438Y0351351D01*
X0156438Y0350257D01*
X0156857Y0349246D01*
X0157631Y0348473D01*
X0158641Y0348054D01*
X0159735Y0348054D01*
X0160746Y0348473D01*
X0161520Y0349246D01*
X0161938Y0350257D01*
X0161938Y0351351D01*
X0161520Y0352362D01*
X0161109Y0352773D01*
X0161520Y0353183D01*
X0161938Y0354194D01*
X0161938Y0355288D01*
X0161520Y0356299D01*
X0160746Y0357073D01*
X0161337Y0356482D02*
X0170820Y0356482D01*
X0170382Y0355683D02*
X0161775Y0355683D01*
X0161938Y0354885D02*
X0170218Y0354885D01*
X0170263Y0354086D02*
X0161894Y0354086D01*
X0161563Y0353288D02*
X0170593Y0353288D01*
X0171331Y0352489D02*
X0161392Y0352489D01*
X0161798Y0351691D02*
X0189419Y0351691D01*
X0190054Y0350892D02*
X0161938Y0350892D01*
X0161871Y0350094D02*
X0218647Y0350094D01*
X0218237Y0350892D02*
X0193678Y0350892D01*
X0194312Y0351691D02*
X0218092Y0351691D01*
X0218156Y0352489D02*
X0194616Y0352489D01*
X0194616Y0353288D02*
X0218486Y0353288D01*
X0222433Y0354086D02*
X0232405Y0354086D01*
X0231607Y0353288D02*
X0223197Y0353288D01*
X0223528Y0352489D02*
X0230808Y0352489D01*
X0230010Y0351691D02*
X0223592Y0351691D01*
X0223447Y0350892D02*
X0229211Y0350892D01*
X0228413Y0350094D02*
X0223036Y0350094D01*
X0222009Y0349295D02*
X0227614Y0349295D01*
X0226816Y0348497D02*
X0160770Y0348497D01*
X0161540Y0349295D02*
X0219675Y0349295D01*
X0223622Y0345303D02*
X0193434Y0345303D01*
X0193434Y0345446D02*
X0193016Y0346456D01*
X0192242Y0347230D01*
X0191231Y0347649D01*
X0190137Y0347649D01*
X0189127Y0347230D01*
X0188353Y0346456D01*
X0187934Y0345446D01*
X0187934Y0344352D01*
X0188353Y0343341D01*
X0188764Y0342930D01*
X0188353Y0342519D01*
X0187934Y0341509D01*
X0187934Y0340759D01*
X0187185Y0340759D01*
X0186174Y0340340D01*
X0185400Y0339567D01*
X0184982Y0338556D01*
X0184982Y0337709D01*
X0184205Y0337387D01*
X0183432Y0336614D01*
X0183013Y0335603D01*
X0183013Y0334756D01*
X0182237Y0334435D01*
X0181826Y0334024D01*
X0181415Y0334435D01*
X0180405Y0334853D01*
X0179311Y0334853D01*
X0178300Y0334435D01*
X0177526Y0333661D01*
X0177108Y0332650D01*
X0177108Y0331556D01*
X0177526Y0330546D01*
X0178300Y0329772D01*
X0179311Y0329353D01*
X0180405Y0329353D01*
X0181415Y0329772D01*
X0181826Y0330183D01*
X0182237Y0329772D01*
X0183248Y0329353D01*
X0184342Y0329353D01*
X0185352Y0329772D01*
X0186126Y0330546D01*
X0186545Y0331556D01*
X0186545Y0332403D01*
X0187321Y0332725D01*
X0188095Y0333498D01*
X0188513Y0334509D01*
X0188513Y0335356D01*
X0189289Y0335678D01*
X0190063Y0336451D01*
X0190482Y0337462D01*
X0190482Y0338212D01*
X0191231Y0338212D01*
X0192242Y0338630D01*
X0193016Y0339404D01*
X0193434Y0340415D01*
X0193434Y0341509D01*
X0193016Y0342519D01*
X0192605Y0342930D01*
X0193016Y0343341D01*
X0193434Y0344352D01*
X0193434Y0345446D01*
X0193163Y0346101D02*
X0224420Y0346101D01*
X0225219Y0346900D02*
X0192572Y0346900D01*
X0193434Y0344504D02*
X0222823Y0344504D01*
X0222025Y0343706D02*
X0193167Y0343706D01*
X0192628Y0342907D02*
X0221226Y0342907D01*
X0220428Y0342109D02*
X0193186Y0342109D01*
X0193434Y0341310D02*
X0219629Y0341310D01*
X0218831Y0340512D02*
X0193434Y0340512D01*
X0193144Y0339713D02*
X0218032Y0339713D01*
X0217234Y0338915D02*
X0192527Y0338915D01*
X0190482Y0338116D02*
X0216435Y0338116D01*
X0215637Y0337318D02*
X0190422Y0337318D01*
X0190091Y0336519D02*
X0214838Y0336519D01*
X0214040Y0335721D02*
X0189333Y0335721D01*
X0188513Y0334922D02*
X0213241Y0334922D01*
X0212443Y0334124D02*
X0188354Y0334124D01*
X0187921Y0333325D02*
X0211644Y0333325D01*
X0210846Y0332527D02*
X0186843Y0332527D01*
X0186545Y0331728D02*
X0210047Y0331728D01*
X0209249Y0330930D02*
X0186285Y0330930D01*
X0185711Y0330131D02*
X0208450Y0330131D01*
X0207652Y0329333D02*
X0178414Y0329333D01*
X0178252Y0329724D02*
X0177478Y0330498D01*
X0176468Y0330916D01*
X0175374Y0330916D01*
X0174363Y0330498D01*
X0173952Y0330087D01*
X0173541Y0330498D01*
X0172531Y0330916D01*
X0171437Y0330916D01*
X0170426Y0330498D01*
X0169652Y0329724D01*
X0169234Y0328713D01*
X0169234Y0327619D01*
X0169652Y0326609D01*
X0170426Y0325835D01*
X0171026Y0325586D01*
X0170440Y0325000D01*
X0170021Y0323989D01*
X0170021Y0322895D01*
X0170440Y0321884D01*
X0171213Y0321111D01*
X0172224Y0320692D01*
X0173318Y0320692D01*
X0174329Y0321111D01*
X0175102Y0321884D01*
X0175521Y0322895D01*
X0175521Y0323989D01*
X0175102Y0325000D01*
X0174329Y0325773D01*
X0173728Y0326022D01*
X0173952Y0326246D01*
X0174363Y0325835D01*
X0175374Y0325416D01*
X0176468Y0325416D01*
X0177478Y0325835D01*
X0178252Y0326609D01*
X0178671Y0327619D01*
X0178671Y0328713D01*
X0178252Y0329724D01*
X0177941Y0330131D02*
X0177845Y0330131D01*
X0177367Y0330930D02*
X0114228Y0330930D01*
X0114228Y0331728D02*
X0177108Y0331728D01*
X0177108Y0332527D02*
X0114228Y0332527D01*
X0114228Y0333325D02*
X0177387Y0333325D01*
X0177989Y0334124D02*
X0114228Y0334124D01*
X0114228Y0334922D02*
X0183013Y0334922D01*
X0183062Y0335721D02*
X0114228Y0335721D01*
X0114228Y0336519D02*
X0183393Y0336519D01*
X0184136Y0337318D02*
X0114228Y0337318D01*
X0114228Y0338116D02*
X0184982Y0338116D01*
X0185130Y0338915D02*
X0114228Y0338915D01*
X0114228Y0339713D02*
X0185547Y0339713D01*
X0186588Y0340512D02*
X0114228Y0340512D01*
X0114228Y0341310D02*
X0187934Y0341310D01*
X0188183Y0342109D02*
X0114228Y0342109D01*
X0114228Y0342907D02*
X0188741Y0342907D01*
X0188202Y0343706D02*
X0114228Y0343706D01*
X0114228Y0344504D02*
X0187934Y0344504D01*
X0187934Y0345303D02*
X0145458Y0345303D01*
X0144972Y0345101D02*
X0145982Y0345520D01*
X0146756Y0346294D01*
X0147175Y0347304D01*
X0147175Y0348398D01*
X0146756Y0349409D01*
X0145982Y0350183D01*
X0144972Y0350601D01*
X0143878Y0350601D01*
X0142867Y0350183D01*
X0142093Y0349409D01*
X0141675Y0348398D01*
X0141675Y0347304D01*
X0142093Y0346294D01*
X0142867Y0345520D01*
X0143878Y0345101D01*
X0144972Y0345101D01*
X0143391Y0345303D02*
X0114228Y0345303D01*
X0114228Y0346101D02*
X0142286Y0346101D01*
X0141842Y0346900D02*
X0114228Y0346900D01*
X0114228Y0347698D02*
X0141675Y0347698D01*
X0141715Y0348497D02*
X0114228Y0348497D01*
X0114228Y0349295D02*
X0142046Y0349295D01*
X0142778Y0350094D02*
X0114228Y0350094D01*
X0114228Y0350892D02*
X0156438Y0350892D01*
X0156506Y0350094D02*
X0146071Y0350094D01*
X0146803Y0349295D02*
X0156837Y0349295D01*
X0157607Y0348497D02*
X0147134Y0348497D01*
X0147175Y0347698D02*
X0226017Y0347698D01*
X0228713Y0345303D02*
X0246478Y0345303D01*
X0246478Y0344982D02*
X0246896Y0343971D01*
X0247670Y0343197D01*
X0248681Y0342779D01*
X0249775Y0342779D01*
X0250786Y0343197D01*
X0251559Y0343971D01*
X0251978Y0344982D01*
X0251978Y0346076D01*
X0251559Y0347086D01*
X0250786Y0347860D01*
X0249775Y0348279D01*
X0248681Y0348279D01*
X0247670Y0347860D01*
X0246896Y0347086D01*
X0246478Y0346076D01*
X0246478Y0344982D01*
X0246675Y0344504D02*
X0231064Y0344504D01*
X0230602Y0344696D02*
X0229508Y0344696D01*
X0228497Y0344277D01*
X0227723Y0343504D01*
X0227305Y0342493D01*
X0227305Y0341399D01*
X0227723Y0340388D01*
X0228497Y0339615D01*
X0229508Y0339196D01*
X0230602Y0339196D01*
X0231612Y0339615D01*
X0232386Y0340388D01*
X0232805Y0341399D01*
X0232805Y0342493D01*
X0232386Y0343504D01*
X0231612Y0344277D01*
X0230602Y0344696D01*
X0229045Y0344504D02*
X0227914Y0344504D01*
X0227925Y0343706D02*
X0227116Y0343706D01*
X0227476Y0342907D02*
X0226317Y0342907D01*
X0225519Y0342109D02*
X0227305Y0342109D01*
X0227341Y0341310D02*
X0224720Y0341310D01*
X0223922Y0340512D02*
X0227672Y0340512D01*
X0228398Y0339713D02*
X0223123Y0339713D01*
X0222325Y0338915D02*
X0297417Y0338915D01*
X0297417Y0339713D02*
X0231711Y0339713D01*
X0232437Y0340512D02*
X0282521Y0340512D01*
X0282631Y0340402D02*
X0283641Y0339983D01*
X0284735Y0339983D01*
X0285746Y0340402D01*
X0286520Y0341176D01*
X0286938Y0342186D01*
X0286938Y0343280D01*
X0286520Y0344291D01*
X0285746Y0345065D01*
X0284735Y0345483D01*
X0283641Y0345483D01*
X0282631Y0345065D01*
X0281857Y0344291D01*
X0281438Y0343280D01*
X0281438Y0342186D01*
X0281857Y0341176D01*
X0282631Y0340402D01*
X0281801Y0341310D02*
X0232768Y0341310D01*
X0232805Y0342109D02*
X0281470Y0342109D01*
X0281438Y0342907D02*
X0250085Y0342907D01*
X0251294Y0343706D02*
X0281615Y0343706D01*
X0282070Y0344504D02*
X0251780Y0344504D01*
X0251978Y0345303D02*
X0283206Y0345303D01*
X0285171Y0345303D02*
X0297417Y0345303D01*
X0297417Y0346101D02*
X0251967Y0346101D01*
X0251636Y0346900D02*
X0297417Y0346900D01*
X0297417Y0347698D02*
X0250947Y0347698D01*
X0247508Y0347698D02*
X0231108Y0347698D01*
X0230310Y0346900D02*
X0246819Y0346900D01*
X0246488Y0346101D02*
X0229511Y0346101D01*
X0231907Y0348497D02*
X0297417Y0348497D01*
X0297417Y0349295D02*
X0232705Y0349295D01*
X0233504Y0350094D02*
X0297417Y0350094D01*
X0297417Y0350892D02*
X0234303Y0350892D01*
X0235101Y0351691D02*
X0297417Y0351691D01*
X0297417Y0352489D02*
X0235900Y0352489D01*
X0236698Y0353288D02*
X0297417Y0353288D01*
X0297417Y0354086D02*
X0237497Y0354086D01*
X0238295Y0354885D02*
X0297417Y0354885D01*
X0297417Y0355683D02*
X0239094Y0355683D01*
X0239892Y0356482D02*
X0297417Y0356482D01*
X0297417Y0357281D02*
X0240691Y0357281D01*
X0241489Y0358079D02*
X0297417Y0358079D01*
X0297417Y0358878D02*
X0292302Y0358878D01*
X0292216Y0358842D02*
X0293226Y0359260D01*
X0294000Y0360034D01*
X0294419Y0361045D01*
X0294419Y0362139D01*
X0294000Y0363149D01*
X0293226Y0363923D01*
X0292216Y0364342D01*
X0291122Y0364342D01*
X0290111Y0363923D01*
X0289337Y0363149D01*
X0288919Y0362139D01*
X0288919Y0361045D01*
X0289337Y0360034D01*
X0290111Y0359260D01*
X0291122Y0358842D01*
X0292216Y0358842D01*
X0291035Y0358878D02*
X0242288Y0358878D01*
X0243086Y0359676D02*
X0289695Y0359676D01*
X0289155Y0360475D02*
X0243885Y0360475D01*
X0244683Y0361273D02*
X0288919Y0361273D01*
X0288919Y0362072D02*
X0245482Y0362072D01*
X0246280Y0362870D02*
X0289222Y0362870D01*
X0289857Y0363669D02*
X0247079Y0363669D01*
X0247877Y0364467D02*
X0297417Y0364467D01*
X0297417Y0363669D02*
X0293481Y0363669D01*
X0294116Y0362870D02*
X0297417Y0362870D01*
X0297417Y0362072D02*
X0294419Y0362072D01*
X0294419Y0361273D02*
X0297417Y0361273D01*
X0297417Y0360475D02*
X0294183Y0360475D01*
X0293642Y0359676D02*
X0297417Y0359676D01*
X0297417Y0365266D02*
X0257893Y0365266D01*
X0258619Y0366064D02*
X0297417Y0366064D01*
X0297417Y0373251D02*
X0277689Y0373251D01*
X0278350Y0374049D02*
X0297417Y0374049D01*
X0297417Y0374848D02*
X0278671Y0374848D01*
X0278671Y0375646D02*
X0297417Y0375646D01*
X0297417Y0376445D02*
X0278453Y0376445D01*
X0277938Y0377243D02*
X0297417Y0377243D01*
X0297417Y0379639D02*
X0114228Y0379639D01*
X0114228Y0380437D02*
X0297417Y0380437D01*
X0297417Y0381236D02*
X0114228Y0381236D01*
X0114228Y0382034D02*
X0297417Y0382034D01*
X0297417Y0382833D02*
X0121847Y0382833D01*
X0120409Y0385214D02*
X0125133Y0385214D01*
X0145881Y0405962D01*
X0141268Y0398803D02*
X0297417Y0398803D01*
X0297417Y0398005D02*
X0140470Y0398005D01*
X0139671Y0397206D02*
X0148197Y0397206D01*
X0148379Y0397387D02*
X0147605Y0396614D01*
X0147186Y0395603D01*
X0147186Y0394509D01*
X0147605Y0393498D01*
X0148379Y0392725D01*
X0149389Y0392306D01*
X0150483Y0392306D01*
X0151494Y0392725D01*
X0152268Y0393498D01*
X0152686Y0394509D01*
X0152686Y0395603D01*
X0152268Y0396614D01*
X0151494Y0397387D01*
X0150483Y0397806D01*
X0149389Y0397806D01*
X0148379Y0397387D01*
X0147520Y0396408D02*
X0138873Y0396408D01*
X0138074Y0395609D02*
X0147189Y0395609D01*
X0147186Y0394811D02*
X0137276Y0394811D01*
X0136477Y0394012D02*
X0147392Y0394012D01*
X0147890Y0393214D02*
X0135679Y0393214D01*
X0134880Y0392415D02*
X0149127Y0392415D01*
X0150746Y0392415D02*
X0297417Y0392415D01*
X0297417Y0391616D02*
X0134082Y0391616D01*
X0133283Y0390818D02*
X0297417Y0390818D01*
X0297417Y0390019D02*
X0141933Y0390019D01*
X0141652Y0390301D02*
X0140641Y0390720D01*
X0139547Y0390720D01*
X0138536Y0390301D01*
X0137763Y0389527D01*
X0137344Y0388517D01*
X0137344Y0387423D01*
X0137763Y0386412D01*
X0138536Y0385638D01*
X0139547Y0385220D01*
X0140641Y0385220D01*
X0141652Y0385638D01*
X0142425Y0386412D01*
X0142844Y0387423D01*
X0142844Y0388517D01*
X0142425Y0389527D01*
X0141652Y0390301D01*
X0142552Y0389221D02*
X0285094Y0389221D01*
X0285387Y0389513D02*
X0284613Y0388740D01*
X0284194Y0387729D01*
X0284194Y0386635D01*
X0284613Y0385624D01*
X0285387Y0384851D01*
X0286397Y0384432D01*
X0287491Y0384432D01*
X0288502Y0384851D01*
X0289276Y0385624D01*
X0289694Y0386635D01*
X0289694Y0387729D01*
X0289276Y0388740D01*
X0288502Y0389513D01*
X0287491Y0389932D01*
X0286397Y0389932D01*
X0285387Y0389513D01*
X0284481Y0388422D02*
X0142844Y0388422D01*
X0142844Y0387624D02*
X0284194Y0387624D01*
X0284194Y0386825D02*
X0142597Y0386825D01*
X0142040Y0386027D02*
X0284446Y0386027D01*
X0285009Y0385228D02*
X0140662Y0385228D01*
X0139525Y0385228D02*
X0134155Y0385228D01*
X0134718Y0386027D02*
X0138147Y0386027D01*
X0137591Y0386825D02*
X0134970Y0386825D01*
X0134970Y0387624D02*
X0137344Y0387624D01*
X0137344Y0388422D02*
X0134683Y0388422D01*
X0134070Y0389221D02*
X0137636Y0389221D01*
X0138255Y0390019D02*
X0132485Y0390019D01*
X0129789Y0392415D02*
X0124250Y0392415D01*
X0123452Y0391616D02*
X0128991Y0391616D01*
X0128192Y0390818D02*
X0123159Y0390818D01*
X0122930Y0390019D02*
X0127394Y0390019D01*
X0126595Y0389221D02*
X0122400Y0389221D01*
X0121085Y0388422D02*
X0125797Y0388422D01*
X0124998Y0387624D02*
X0121776Y0387624D01*
X0119733Y0388422D02*
X0114228Y0388422D01*
X0114228Y0387624D02*
X0119042Y0387624D01*
X0118132Y0386825D02*
X0114228Y0386825D01*
X0114228Y0386027D02*
X0117769Y0386027D01*
X0117659Y0385228D02*
X0114228Y0385228D01*
X0114228Y0384430D02*
X0117757Y0384430D01*
X0118102Y0383631D02*
X0114228Y0383631D01*
X0114228Y0382833D02*
X0118970Y0382833D01*
X0118418Y0389221D02*
X0114228Y0389221D01*
X0114228Y0390019D02*
X0117888Y0390019D01*
X0117659Y0390818D02*
X0114228Y0390818D01*
X0114902Y0391616D02*
X0117659Y0391616D01*
X0117969Y0392415D02*
X0115233Y0392415D01*
X0115285Y0393214D02*
X0118614Y0393214D01*
X0120756Y0394012D02*
X0116005Y0394012D01*
X0116803Y0394811D02*
X0121555Y0394811D01*
X0122353Y0395609D02*
X0117602Y0395609D01*
X0118400Y0396408D02*
X0123152Y0396408D01*
X0123950Y0397206D02*
X0119199Y0397206D01*
X0119997Y0398005D02*
X0124749Y0398005D01*
X0125547Y0398803D02*
X0120796Y0398803D01*
X0125847Y0394012D02*
X0131386Y0394012D01*
X0130588Y0393214D02*
X0125049Y0393214D01*
X0126646Y0394811D02*
X0132185Y0394811D01*
X0132983Y0395609D02*
X0127444Y0395609D01*
X0128243Y0396408D02*
X0133782Y0396408D01*
X0134580Y0397206D02*
X0129041Y0397206D01*
X0129840Y0398005D02*
X0135379Y0398005D01*
X0136177Y0398803D02*
X0130638Y0398803D01*
X0134188Y0404899D02*
X0134818Y0404899D01*
X0135881Y0405962D01*
X0134188Y0404899D02*
X0120409Y0391119D01*
X0126895Y0384430D02*
X0297417Y0384430D01*
X0297417Y0385228D02*
X0288880Y0385228D01*
X0289442Y0386027D02*
X0297417Y0386027D01*
X0297417Y0386825D02*
X0289694Y0386825D01*
X0289694Y0387624D02*
X0297417Y0387624D01*
X0297417Y0388422D02*
X0289407Y0388422D01*
X0288795Y0389221D02*
X0297417Y0389221D01*
X0297417Y0393214D02*
X0151983Y0393214D01*
X0152480Y0394012D02*
X0297417Y0394012D01*
X0297417Y0394811D02*
X0152686Y0394811D01*
X0152684Y0395609D02*
X0297417Y0395609D01*
X0297417Y0396408D02*
X0152353Y0396408D01*
X0151676Y0397206D02*
X0297417Y0397206D01*
X0297417Y0383631D02*
X0126097Y0383631D01*
X0127694Y0385228D02*
X0130285Y0385228D01*
X0129722Y0386027D02*
X0128492Y0386027D01*
X0129291Y0386825D02*
X0129470Y0386825D01*
X0112535Y0393088D02*
X0125409Y0405962D01*
X0125881Y0405962D01*
X0114228Y0367661D02*
X0191841Y0367661D01*
X0191197Y0366863D02*
X0114228Y0366863D01*
X0114228Y0366064D02*
X0190887Y0366064D01*
X0190887Y0365266D02*
X0114228Y0365266D01*
X0114228Y0364467D02*
X0191117Y0364467D01*
X0191648Y0363669D02*
X0183245Y0363669D01*
X0184182Y0361273D02*
X0239592Y0361273D01*
X0238793Y0360475D02*
X0183946Y0360475D01*
X0183406Y0359676D02*
X0237995Y0359676D01*
X0237196Y0358878D02*
X0182066Y0358878D01*
X0180799Y0358878D02*
X0134888Y0358878D01*
X0134970Y0359076D02*
X0134551Y0358065D01*
X0133778Y0357292D01*
X0132767Y0356873D01*
X0131673Y0356873D01*
X0130662Y0357292D01*
X0129889Y0358065D01*
X0129470Y0359076D01*
X0129470Y0360170D01*
X0129889Y0361181D01*
X0130662Y0361954D01*
X0131673Y0362373D01*
X0132767Y0362373D01*
X0133778Y0361954D01*
X0134551Y0361181D01*
X0134970Y0360170D01*
X0134970Y0359076D01*
X0134970Y0359676D02*
X0179459Y0359676D01*
X0178919Y0360475D02*
X0134844Y0360475D01*
X0134459Y0361273D02*
X0178682Y0361273D01*
X0178682Y0362072D02*
X0133495Y0362072D01*
X0130945Y0362072D02*
X0125621Y0362072D01*
X0125904Y0361954D02*
X0124893Y0362373D01*
X0123799Y0362373D01*
X0122788Y0361954D01*
X0122015Y0361181D01*
X0121596Y0360170D01*
X0121596Y0359076D01*
X0122015Y0358065D01*
X0122788Y0357292D01*
X0123799Y0356873D01*
X0124893Y0356873D01*
X0125904Y0357292D01*
X0126677Y0358065D01*
X0127096Y0359076D01*
X0127096Y0360170D01*
X0126677Y0361181D01*
X0125904Y0361954D01*
X0126585Y0361273D02*
X0129981Y0361273D01*
X0129596Y0360475D02*
X0126970Y0360475D01*
X0127096Y0359676D02*
X0129470Y0359676D01*
X0129552Y0358878D02*
X0127014Y0358878D01*
X0126874Y0358079D02*
X0126683Y0358079D01*
X0126725Y0358017D02*
X0125952Y0357244D01*
X0125533Y0356233D01*
X0125533Y0355139D01*
X0125952Y0354128D01*
X0126725Y0353355D01*
X0127736Y0352936D01*
X0128830Y0352936D01*
X0129841Y0353355D01*
X0130614Y0354128D01*
X0131033Y0355139D01*
X0131033Y0356233D01*
X0130614Y0357244D01*
X0129841Y0358017D01*
X0128830Y0358436D01*
X0127736Y0358436D01*
X0126725Y0358017D01*
X0125988Y0357281D02*
X0125876Y0357281D01*
X0125636Y0356482D02*
X0123056Y0356482D01*
X0123159Y0356233D02*
X0122740Y0357244D01*
X0121967Y0358017D01*
X0120956Y0358436D01*
X0119862Y0358436D01*
X0118851Y0358017D01*
X0118078Y0357244D01*
X0117659Y0356233D01*
X0117659Y0355139D01*
X0118078Y0354128D01*
X0118851Y0353355D01*
X0119862Y0352936D01*
X0120956Y0352936D01*
X0121967Y0353355D01*
X0122740Y0354128D01*
X0123159Y0355139D01*
X0123159Y0356233D01*
X0123159Y0355683D02*
X0125533Y0355683D01*
X0125638Y0354885D02*
X0123054Y0354885D01*
X0122698Y0354086D02*
X0125993Y0354086D01*
X0126886Y0353288D02*
X0121805Y0353288D01*
X0119012Y0353288D02*
X0114228Y0353288D01*
X0114228Y0354086D02*
X0118119Y0354086D01*
X0117764Y0354885D02*
X0114228Y0354885D01*
X0114228Y0355683D02*
X0117659Y0355683D01*
X0117762Y0356482D02*
X0114228Y0356482D01*
X0114228Y0357281D02*
X0118114Y0357281D01*
X0119000Y0358079D02*
X0114228Y0358079D01*
X0114228Y0358878D02*
X0121678Y0358878D01*
X0121596Y0359676D02*
X0114228Y0359676D01*
X0114228Y0360475D02*
X0121722Y0360475D01*
X0122107Y0361273D02*
X0114228Y0361273D01*
X0114228Y0362072D02*
X0123071Y0362072D01*
X0122009Y0358079D02*
X0121818Y0358079D01*
X0122704Y0357281D02*
X0122815Y0357281D01*
X0129692Y0358079D02*
X0129883Y0358079D01*
X0130578Y0357281D02*
X0130689Y0357281D01*
X0130930Y0356482D02*
X0157040Y0356482D01*
X0156602Y0355683D02*
X0131033Y0355683D01*
X0130928Y0354885D02*
X0156438Y0354885D01*
X0156483Y0354086D02*
X0130572Y0354086D01*
X0129679Y0353288D02*
X0156814Y0353288D01*
X0156985Y0352489D02*
X0114228Y0352489D01*
X0114228Y0351691D02*
X0156579Y0351691D01*
X0158133Y0357281D02*
X0133750Y0357281D01*
X0134557Y0358079D02*
X0236398Y0358079D01*
X0235599Y0357281D02*
X0180913Y0357281D01*
X0182006Y0356482D02*
X0234801Y0356482D01*
X0232184Y0343706D02*
X0247161Y0343706D01*
X0248370Y0342907D02*
X0232633Y0342907D01*
X0221526Y0338116D02*
X0297417Y0338116D01*
X0297417Y0337318D02*
X0220728Y0337318D01*
X0219929Y0336519D02*
X0280942Y0336519D01*
X0280662Y0336403D02*
X0279889Y0335630D01*
X0279470Y0334619D01*
X0279470Y0333525D01*
X0279889Y0332514D01*
X0280662Y0331741D01*
X0281673Y0331322D01*
X0282767Y0331322D01*
X0283778Y0331741D01*
X0284551Y0332514D01*
X0284970Y0333525D01*
X0284970Y0334619D01*
X0284551Y0335630D01*
X0283778Y0336403D01*
X0282767Y0336822D01*
X0281673Y0336822D01*
X0280662Y0336403D01*
X0279980Y0335721D02*
X0219131Y0335721D01*
X0218332Y0334922D02*
X0279596Y0334922D01*
X0279470Y0334124D02*
X0217534Y0334124D01*
X0216735Y0333325D02*
X0279553Y0333325D01*
X0279883Y0332527D02*
X0215937Y0332527D01*
X0215138Y0331728D02*
X0280692Y0331728D01*
X0283748Y0331728D02*
X0297417Y0331728D01*
X0297417Y0330930D02*
X0214340Y0330930D01*
X0213541Y0330131D02*
X0297417Y0330131D01*
X0297417Y0329333D02*
X0212743Y0329333D01*
X0211944Y0328534D02*
X0297417Y0328534D01*
X0297417Y0327736D02*
X0211146Y0327736D01*
X0210347Y0326937D02*
X0297417Y0326937D01*
X0297417Y0326139D02*
X0209549Y0326139D01*
X0209796Y0325576D02*
X0209022Y0324803D01*
X0208604Y0323792D01*
X0208604Y0322698D01*
X0209022Y0321687D01*
X0209796Y0320914D01*
X0210807Y0320495D01*
X0211901Y0320495D01*
X0212911Y0320914D01*
X0213685Y0321687D01*
X0214104Y0322698D01*
X0214104Y0323792D01*
X0213685Y0324803D01*
X0212911Y0325576D01*
X0211901Y0325995D01*
X0210807Y0325995D01*
X0209796Y0325576D01*
X0209560Y0325340D02*
X0208750Y0325340D01*
X0208914Y0324542D02*
X0207952Y0324542D01*
X0208604Y0323743D02*
X0207153Y0323743D01*
X0206355Y0322945D02*
X0208604Y0322945D01*
X0208832Y0322146D02*
X0205556Y0322146D01*
X0204758Y0321348D02*
X0209362Y0321348D01*
X0210677Y0320549D02*
X0203959Y0320549D01*
X0203086Y0322222D02*
X0248362Y0367497D01*
X0256236Y0367497D01*
X0254578Y0365266D02*
X0248676Y0365266D01*
X0264497Y0373251D02*
X0274152Y0373251D01*
X0273492Y0374049D02*
X0264456Y0374049D01*
X0264125Y0374848D02*
X0273171Y0374848D01*
X0273171Y0375646D02*
X0263393Y0375646D01*
X0286306Y0344504D02*
X0297417Y0344504D01*
X0297417Y0343706D02*
X0286762Y0343706D01*
X0286938Y0342907D02*
X0297417Y0342907D01*
X0297417Y0342109D02*
X0286906Y0342109D01*
X0286576Y0341310D02*
X0297417Y0341310D01*
X0297417Y0340512D02*
X0285856Y0340512D01*
X0283498Y0336519D02*
X0297417Y0336519D01*
X0297417Y0335721D02*
X0284460Y0335721D01*
X0284844Y0334922D02*
X0297417Y0334922D01*
X0297417Y0334124D02*
X0284970Y0334124D01*
X0284887Y0333325D02*
X0297417Y0333325D01*
X0297417Y0332527D02*
X0284556Y0332527D01*
X0284123Y0325178D02*
X0282817Y0325178D01*
X0281611Y0324678D01*
X0280688Y0323755D01*
X0280189Y0322549D01*
X0280189Y0321244D01*
X0280688Y0320038D01*
X0281611Y0319115D01*
X0282817Y0318616D01*
X0284123Y0318616D01*
X0285328Y0319115D01*
X0286251Y0320038D01*
X0286751Y0321244D01*
X0286751Y0322549D01*
X0286251Y0323755D01*
X0285328Y0324678D01*
X0284123Y0325178D01*
X0285465Y0324542D02*
X0297417Y0324542D01*
X0297417Y0325340D02*
X0213148Y0325340D01*
X0213793Y0324542D02*
X0281475Y0324542D01*
X0280683Y0323743D02*
X0214104Y0323743D01*
X0214104Y0322945D02*
X0280352Y0322945D01*
X0280189Y0322146D02*
X0213875Y0322146D01*
X0213345Y0321348D02*
X0280189Y0321348D01*
X0280477Y0320549D02*
X0212031Y0320549D01*
X0209959Y0317702D02*
X0210732Y0316929D01*
X0211151Y0315918D01*
X0211151Y0314824D01*
X0210732Y0313813D01*
X0209959Y0313040D01*
X0208948Y0312621D01*
X0207854Y0312621D01*
X0206843Y0313040D01*
X0206070Y0313813D01*
X0205651Y0314824D01*
X0205651Y0315918D01*
X0206070Y0316929D01*
X0206843Y0317702D01*
X0207854Y0318121D01*
X0208948Y0318121D01*
X0209959Y0317702D01*
X0210306Y0317355D02*
X0297417Y0317355D01*
X0297417Y0318153D02*
X0201201Y0318153D01*
X0201480Y0317874D02*
X0200707Y0318647D01*
X0199696Y0319066D01*
X0198602Y0319066D01*
X0197591Y0318647D01*
X0196818Y0317874D01*
X0196399Y0316863D01*
X0196399Y0315769D01*
X0196818Y0314758D01*
X0197591Y0313985D01*
X0198602Y0313566D01*
X0199696Y0313566D01*
X0200707Y0313985D01*
X0201480Y0314758D01*
X0201899Y0315769D01*
X0201899Y0316863D01*
X0201480Y0317874D01*
X0201695Y0317355D02*
X0206496Y0317355D01*
X0205915Y0316556D02*
X0201899Y0316556D01*
X0201894Y0315758D02*
X0205651Y0315758D01*
X0205651Y0314959D02*
X0201564Y0314959D01*
X0200883Y0314161D02*
X0205926Y0314161D01*
X0206521Y0313362D02*
X0194254Y0313362D01*
X0194419Y0312965D02*
X0194000Y0313976D01*
X0193226Y0314750D01*
X0192216Y0315168D01*
X0191122Y0315168D01*
X0190111Y0314750D01*
X0189337Y0313976D01*
X0188919Y0312965D01*
X0188919Y0311871D01*
X0189337Y0310861D01*
X0190111Y0310087D01*
X0191122Y0309668D01*
X0192216Y0309668D01*
X0193226Y0310087D01*
X0194000Y0310861D01*
X0194419Y0311871D01*
X0194419Y0312965D01*
X0194419Y0312564D02*
X0245612Y0312564D01*
X0245612Y0312926D02*
X0245612Y0311832D01*
X0246030Y0310821D01*
X0246804Y0310048D01*
X0247815Y0309629D01*
X0248909Y0309629D01*
X0249919Y0310048D01*
X0250693Y0310821D01*
X0251112Y0311832D01*
X0251112Y0312926D01*
X0250693Y0313937D01*
X0249919Y0314710D01*
X0248909Y0315129D01*
X0247815Y0315129D01*
X0246804Y0314710D01*
X0246030Y0313937D01*
X0245612Y0312926D01*
X0245792Y0313362D02*
X0210281Y0313362D01*
X0210876Y0314161D02*
X0246254Y0314161D01*
X0247405Y0314959D02*
X0211151Y0314959D01*
X0211151Y0315758D02*
X0267623Y0315758D01*
X0267684Y0315905D02*
X0267265Y0314895D01*
X0267265Y0313800D01*
X0267684Y0312790D01*
X0268457Y0312016D01*
X0269468Y0311598D01*
X0270562Y0311598D01*
X0271573Y0312016D01*
X0272346Y0312790D01*
X0272765Y0313800D01*
X0272765Y0314895D01*
X0272346Y0315905D01*
X0271573Y0316679D01*
X0270562Y0317097D01*
X0269468Y0317097D01*
X0268457Y0316679D01*
X0267684Y0315905D01*
X0268335Y0316556D02*
X0210887Y0316556D01*
X0203086Y0322222D02*
X0185370Y0322222D01*
X0175527Y0312379D01*
X0175527Y0301198D01*
X0175628Y0301097D01*
X0175628Y0294729D01*
X0160129Y0279229D01*
X0153558Y0279229D01*
X0150997Y0278228D02*
X0114228Y0278228D01*
X0114228Y0279026D02*
X0150808Y0279026D01*
X0150829Y0279825D02*
X0114228Y0279825D01*
X0114228Y0280623D02*
X0151159Y0280623D01*
X0151862Y0281422D02*
X0114228Y0281422D01*
X0114228Y0282220D02*
X0160574Y0282220D01*
X0159776Y0281422D02*
X0155255Y0281422D01*
X0155648Y0277429D02*
X0160874Y0277429D01*
X0176373Y0292929D01*
X0177428Y0293983D01*
X0177428Y0298345D01*
X0178130Y0298054D01*
X0179224Y0298054D01*
X0180234Y0298473D01*
X0181008Y0299246D01*
X0181427Y0300257D01*
X0181427Y0301351D01*
X0181008Y0302362D01*
X0180234Y0303136D01*
X0179224Y0303554D01*
X0178130Y0303554D01*
X0177327Y0303222D01*
X0180388Y0302982D02*
X0181271Y0302982D01*
X0181082Y0302183D02*
X0182390Y0302183D01*
X0181413Y0301385D02*
X0185966Y0301385D01*
X0185993Y0300586D02*
X0181427Y0300586D01*
X0181232Y0299788D02*
X0186323Y0299788D01*
X0187036Y0298989D02*
X0180751Y0298989D01*
X0179553Y0298191D02*
X0197371Y0298191D01*
X0196947Y0297392D02*
X0189407Y0297392D01*
X0188025Y0297392D02*
X0177428Y0297392D01*
X0177428Y0296594D02*
X0186719Y0296594D01*
X0186192Y0295795D02*
X0177428Y0295795D01*
X0177428Y0294997D02*
X0185966Y0294997D01*
X0185966Y0294198D02*
X0177428Y0294198D01*
X0176844Y0293400D02*
X0186279Y0293400D01*
X0186928Y0292601D02*
X0176046Y0292601D01*
X0173350Y0294997D02*
X0163604Y0294997D01*
X0163488Y0295275D02*
X0163077Y0295686D01*
X0163488Y0296097D01*
X0163907Y0297108D01*
X0163907Y0298202D01*
X0163488Y0299212D01*
X0162715Y0299986D01*
X0161704Y0300405D01*
X0160610Y0300405D01*
X0159599Y0299986D01*
X0158826Y0299212D01*
X0158407Y0298202D01*
X0158407Y0297108D01*
X0158826Y0296097D01*
X0159236Y0295686D01*
X0158826Y0295275D01*
X0158407Y0294265D01*
X0158407Y0293171D01*
X0158826Y0292160D01*
X0159236Y0291749D01*
X0158826Y0291338D01*
X0158407Y0290328D01*
X0158407Y0289234D01*
X0158826Y0288223D01*
X0159599Y0287449D01*
X0160610Y0287031D01*
X0161704Y0287031D01*
X0162715Y0287449D01*
X0163488Y0288223D01*
X0163907Y0289234D01*
X0163907Y0290328D01*
X0163488Y0291338D01*
X0163077Y0291749D01*
X0163488Y0292160D01*
X0163907Y0293171D01*
X0163907Y0294265D01*
X0163488Y0295275D01*
X0163187Y0295795D02*
X0173828Y0295795D01*
X0173828Y0296594D02*
X0163694Y0296594D01*
X0163907Y0297392D02*
X0173828Y0297392D01*
X0173828Y0298191D02*
X0163907Y0298191D01*
X0163581Y0298989D02*
X0173828Y0298989D01*
X0173828Y0299788D02*
X0162913Y0299788D01*
X0159401Y0299788D02*
X0114228Y0299788D01*
X0114228Y0300586D02*
X0173727Y0300586D01*
X0173727Y0301385D02*
X0114228Y0301385D01*
X0114228Y0302183D02*
X0173727Y0302183D01*
X0173727Y0302982D02*
X0114228Y0302982D01*
X0114228Y0303780D02*
X0119229Y0303780D01*
X0119271Y0303763D02*
X0120365Y0303763D01*
X0121376Y0304182D01*
X0122150Y0304955D01*
X0122568Y0305966D01*
X0122568Y0307060D01*
X0122150Y0308071D01*
X0121376Y0308844D01*
X0120365Y0309263D01*
X0119271Y0309263D01*
X0118261Y0308844D01*
X0117487Y0308071D01*
X0117068Y0307060D01*
X0117068Y0305966D01*
X0117487Y0304955D01*
X0118261Y0304182D01*
X0119271Y0303763D01*
X0120407Y0303780D02*
X0173727Y0303780D01*
X0173727Y0304579D02*
X0121773Y0304579D01*
X0122325Y0305377D02*
X0173727Y0305377D01*
X0173727Y0306176D02*
X0122568Y0306176D01*
X0122568Y0306974D02*
X0123568Y0306974D01*
X0123182Y0307134D02*
X0124193Y0306716D01*
X0125287Y0306716D01*
X0126297Y0307134D01*
X0127071Y0307908D01*
X0127490Y0308919D01*
X0127490Y0310013D01*
X0127071Y0311023D01*
X0126297Y0311797D01*
X0125287Y0312216D01*
X0124193Y0312216D01*
X0123182Y0311797D01*
X0122408Y0311023D01*
X0121990Y0310013D01*
X0121990Y0308919D01*
X0122408Y0307908D01*
X0123182Y0307134D01*
X0122543Y0307773D02*
X0122273Y0307773D01*
X0122133Y0308571D02*
X0121649Y0308571D01*
X0121990Y0309370D02*
X0114228Y0309370D01*
X0114228Y0310168D02*
X0122054Y0310168D01*
X0122385Y0310967D02*
X0114228Y0310967D01*
X0114228Y0311765D02*
X0123150Y0311765D01*
X0123588Y0313985D02*
X0122815Y0314758D01*
X0122396Y0315769D01*
X0122396Y0316863D01*
X0122815Y0317874D01*
X0123588Y0318647D01*
X0124599Y0319066D01*
X0125693Y0319066D01*
X0126704Y0318647D01*
X0127477Y0317874D01*
X0127896Y0316863D01*
X0127896Y0315769D01*
X0127477Y0314758D01*
X0126704Y0313985D01*
X0125693Y0313566D01*
X0124599Y0313566D01*
X0123588Y0313985D01*
X0123412Y0314161D02*
X0114228Y0314161D01*
X0114228Y0314959D02*
X0122731Y0314959D01*
X0122400Y0315758D02*
X0114228Y0315758D01*
X0114228Y0316556D02*
X0122396Y0316556D01*
X0122600Y0317355D02*
X0114228Y0317355D01*
X0114228Y0318153D02*
X0123094Y0318153D01*
X0124324Y0318952D02*
X0114228Y0318952D01*
X0114228Y0319750D02*
X0140342Y0319750D01*
X0140654Y0319621D02*
X0141748Y0319621D01*
X0142759Y0320040D01*
X0143532Y0320813D01*
X0143951Y0321824D01*
X0143951Y0322918D01*
X0143532Y0323929D01*
X0142759Y0324702D01*
X0141748Y0325121D01*
X0140654Y0325121D01*
X0139643Y0324702D01*
X0138870Y0323929D01*
X0138451Y0322918D01*
X0138451Y0321824D01*
X0138870Y0320813D01*
X0139643Y0320040D01*
X0140654Y0319621D01*
X0142060Y0319750D02*
X0161760Y0319750D01*
X0161568Y0319671D02*
X0160794Y0318897D01*
X0160375Y0317887D01*
X0160375Y0316793D01*
X0160794Y0315782D01*
X0161568Y0315008D01*
X0162578Y0314590D01*
X0163672Y0314590D01*
X0164312Y0314855D01*
X0164312Y0313840D01*
X0164731Y0312829D01*
X0165505Y0312056D01*
X0166515Y0311637D01*
X0167609Y0311637D01*
X0168620Y0312056D01*
X0169394Y0312829D01*
X0169812Y0313840D01*
X0169812Y0314934D01*
X0169394Y0315945D01*
X0168620Y0316718D01*
X0167609Y0317137D01*
X0166515Y0317137D01*
X0165875Y0316872D01*
X0165875Y0317887D01*
X0165457Y0318897D01*
X0164683Y0319671D01*
X0163672Y0320090D01*
X0162578Y0320090D01*
X0161568Y0319671D01*
X0160849Y0318952D02*
X0125968Y0318952D01*
X0127197Y0318153D02*
X0160486Y0318153D01*
X0160375Y0317355D02*
X0127692Y0317355D01*
X0127896Y0316556D02*
X0160473Y0316556D01*
X0160818Y0315758D02*
X0127891Y0315758D01*
X0127561Y0314959D02*
X0129209Y0314959D01*
X0129714Y0315168D02*
X0128703Y0314750D01*
X0127930Y0313976D01*
X0127511Y0312965D01*
X0127511Y0311871D01*
X0127930Y0310861D01*
X0128703Y0310087D01*
X0129714Y0309668D01*
X0130808Y0309668D01*
X0131819Y0310087D01*
X0132592Y0310861D01*
X0133011Y0311871D01*
X0133011Y0312965D01*
X0132592Y0313976D01*
X0131819Y0314750D01*
X0130808Y0315168D01*
X0129714Y0315168D01*
X0131312Y0314959D02*
X0161686Y0314959D01*
X0164312Y0314161D02*
X0132407Y0314161D01*
X0132846Y0313362D02*
X0164510Y0313362D01*
X0164996Y0312564D02*
X0133011Y0312564D01*
X0132967Y0311765D02*
X0166205Y0311765D01*
X0167920Y0311765D02*
X0173727Y0311765D01*
X0173727Y0310967D02*
X0132636Y0310967D01*
X0131900Y0310168D02*
X0173727Y0310168D01*
X0173727Y0309370D02*
X0127490Y0309370D01*
X0127425Y0310168D02*
X0128622Y0310168D01*
X0127885Y0310967D02*
X0127094Y0310967D01*
X0127555Y0311765D02*
X0126329Y0311765D01*
X0127511Y0312564D02*
X0114228Y0312564D01*
X0114228Y0313362D02*
X0127675Y0313362D01*
X0128114Y0314161D02*
X0126880Y0314161D01*
X0127346Y0308571D02*
X0173727Y0308571D01*
X0173727Y0307773D02*
X0126936Y0307773D01*
X0125911Y0306974D02*
X0173727Y0306974D01*
X0177327Y0307773D02*
X0234490Y0307773D01*
X0235114Y0308571D02*
X0177327Y0308571D01*
X0177327Y0309370D02*
X0297417Y0309370D01*
X0297417Y0310168D02*
X0250040Y0310168D01*
X0250753Y0310967D02*
X0297417Y0310967D01*
X0297417Y0311765D02*
X0270967Y0311765D01*
X0272121Y0312564D02*
X0297417Y0312564D01*
X0297417Y0313362D02*
X0272584Y0313362D01*
X0272765Y0314161D02*
X0297417Y0314161D01*
X0297417Y0314959D02*
X0272738Y0314959D01*
X0272408Y0315758D02*
X0297417Y0315758D01*
X0297417Y0316556D02*
X0271695Y0316556D01*
X0267292Y0314959D02*
X0249318Y0314959D01*
X0250469Y0314161D02*
X0267265Y0314161D01*
X0267447Y0313362D02*
X0250931Y0313362D01*
X0251112Y0312564D02*
X0267910Y0312564D01*
X0269063Y0311765D02*
X0251084Y0311765D01*
X0246683Y0310168D02*
X0193308Y0310168D01*
X0194044Y0310967D02*
X0245970Y0310967D01*
X0245639Y0311765D02*
X0194375Y0311765D01*
X0193815Y0314161D02*
X0197415Y0314161D01*
X0196734Y0314959D02*
X0192720Y0314959D01*
X0190617Y0314959D02*
X0189171Y0314959D01*
X0189289Y0315008D02*
X0190063Y0315782D01*
X0190482Y0316793D01*
X0190482Y0317887D01*
X0190063Y0318897D01*
X0189289Y0319671D01*
X0188279Y0320090D01*
X0187185Y0320090D01*
X0186174Y0319671D01*
X0185400Y0318897D01*
X0184982Y0317887D01*
X0184982Y0316793D01*
X0185400Y0315782D01*
X0186174Y0315008D01*
X0187185Y0314590D01*
X0188279Y0314590D01*
X0189289Y0315008D01*
X0189522Y0314161D02*
X0179854Y0314161D01*
X0179056Y0313362D02*
X0189083Y0313362D01*
X0188919Y0312564D02*
X0178257Y0312564D01*
X0177459Y0311765D02*
X0188963Y0311765D01*
X0189293Y0310967D02*
X0177327Y0310967D01*
X0177327Y0310168D02*
X0190030Y0310168D01*
X0190039Y0315758D02*
X0196404Y0315758D01*
X0196399Y0316556D02*
X0190384Y0316556D01*
X0190482Y0317355D02*
X0196603Y0317355D01*
X0197097Y0318153D02*
X0190371Y0318153D01*
X0190008Y0318952D02*
X0198327Y0318952D01*
X0199971Y0318952D02*
X0282005Y0318952D01*
X0280976Y0319750D02*
X0189097Y0319750D01*
X0186366Y0319750D02*
X0185444Y0319750D01*
X0185455Y0318952D02*
X0184646Y0318952D01*
X0185092Y0318153D02*
X0183847Y0318153D01*
X0183049Y0317355D02*
X0184982Y0317355D01*
X0185080Y0316556D02*
X0182250Y0316556D01*
X0181451Y0315758D02*
X0185424Y0315758D01*
X0186292Y0314959D02*
X0180653Y0314959D01*
X0177957Y0317355D02*
X0165875Y0317355D01*
X0165765Y0318153D02*
X0178756Y0318153D01*
X0179554Y0318952D02*
X0165402Y0318952D01*
X0164491Y0319750D02*
X0180353Y0319750D01*
X0181151Y0320549D02*
X0143268Y0320549D01*
X0143754Y0321348D02*
X0170976Y0321348D01*
X0170331Y0322146D02*
X0143951Y0322146D01*
X0143940Y0322945D02*
X0170021Y0322945D01*
X0170021Y0323743D02*
X0143609Y0323743D01*
X0142920Y0324542D02*
X0170250Y0324542D01*
X0170780Y0325340D02*
X0114228Y0325340D01*
X0114228Y0324542D02*
X0139482Y0324542D01*
X0138793Y0323743D02*
X0114228Y0323743D01*
X0114228Y0322945D02*
X0138462Y0322945D01*
X0138451Y0322146D02*
X0114228Y0322146D01*
X0114228Y0321348D02*
X0138648Y0321348D01*
X0139134Y0320549D02*
X0114228Y0320549D01*
X0114228Y0326139D02*
X0170122Y0326139D01*
X0169516Y0326937D02*
X0114228Y0326937D01*
X0114228Y0327736D02*
X0169234Y0327736D01*
X0169234Y0328534D02*
X0114228Y0328534D01*
X0114228Y0329333D02*
X0169490Y0329333D01*
X0170059Y0330131D02*
X0114228Y0330131D01*
X0114228Y0308571D02*
X0117988Y0308571D01*
X0117364Y0307773D02*
X0114228Y0307773D01*
X0114228Y0306974D02*
X0117068Y0306974D01*
X0117068Y0306176D02*
X0114228Y0306176D01*
X0114228Y0305377D02*
X0117312Y0305377D01*
X0117863Y0304579D02*
X0114228Y0304579D01*
X0114228Y0298989D02*
X0158733Y0298989D01*
X0158407Y0298191D02*
X0114228Y0298191D01*
X0114228Y0297392D02*
X0158407Y0297392D01*
X0158620Y0296594D02*
X0114228Y0296594D01*
X0114228Y0295795D02*
X0159127Y0295795D01*
X0158710Y0294997D02*
X0114228Y0294997D01*
X0114228Y0294198D02*
X0158407Y0294198D01*
X0158407Y0293400D02*
X0114228Y0293400D01*
X0114228Y0292601D02*
X0158643Y0292601D01*
X0159183Y0291803D02*
X0114228Y0291803D01*
X0114228Y0291004D02*
X0158687Y0291004D01*
X0158407Y0290206D02*
X0114228Y0290206D01*
X0114228Y0289407D02*
X0158407Y0289407D01*
X0158666Y0288609D02*
X0150076Y0288609D01*
X0149919Y0288765D02*
X0148909Y0289184D01*
X0147815Y0289184D01*
X0146804Y0288765D01*
X0146030Y0287992D01*
X0145612Y0286981D01*
X0145612Y0285887D01*
X0146030Y0284876D01*
X0146804Y0284103D01*
X0147815Y0283684D01*
X0148909Y0283684D01*
X0149919Y0284103D01*
X0150693Y0284876D01*
X0151112Y0285887D01*
X0151112Y0286981D01*
X0150693Y0287992D01*
X0149919Y0288765D01*
X0150768Y0287810D02*
X0159238Y0287810D01*
X0163075Y0287810D02*
X0166164Y0287810D01*
X0166962Y0288609D02*
X0163648Y0288609D01*
X0163907Y0289407D02*
X0167761Y0289407D01*
X0168559Y0290206D02*
X0163907Y0290206D01*
X0163627Y0291004D02*
X0169358Y0291004D01*
X0170156Y0291803D02*
X0163131Y0291803D01*
X0163671Y0292601D02*
X0170955Y0292601D01*
X0171753Y0293400D02*
X0163907Y0293400D01*
X0163907Y0294198D02*
X0172552Y0294198D01*
X0177428Y0298191D02*
X0177800Y0298191D01*
X0184412Y0302183D02*
X0186148Y0302183D01*
X0186611Y0302982D02*
X0185531Y0302982D01*
X0190713Y0296594D02*
X0196793Y0296594D01*
X0196847Y0295795D02*
X0191240Y0295795D01*
X0191466Y0294997D02*
X0197178Y0294997D01*
X0197929Y0294198D02*
X0191466Y0294198D01*
X0183619Y0283019D02*
X0206903Y0283019D01*
X0208081Y0282220D02*
X0184265Y0282220D01*
X0184576Y0281422D02*
X0267659Y0281422D01*
X0267659Y0280623D02*
X0201306Y0280623D01*
X0199748Y0280623D02*
X0184576Y0280623D01*
X0180913Y0276631D02*
X0154471Y0276631D01*
X0152646Y0276631D02*
X0114228Y0276631D01*
X0114228Y0277429D02*
X0151469Y0277429D01*
X0149231Y0283817D02*
X0162171Y0283817D01*
X0161373Y0283019D02*
X0114228Y0283019D01*
X0114228Y0283817D02*
X0147493Y0283817D01*
X0146291Y0284616D02*
X0114228Y0284616D01*
X0114228Y0285414D02*
X0145807Y0285414D01*
X0145612Y0286213D02*
X0114228Y0286213D01*
X0114228Y0287012D02*
X0145624Y0287012D01*
X0145955Y0287810D02*
X0114228Y0287810D01*
X0114228Y0288609D02*
X0146647Y0288609D01*
X0151099Y0287012D02*
X0165365Y0287012D01*
X0164567Y0286213D02*
X0151112Y0286213D01*
X0150916Y0285414D02*
X0163768Y0285414D01*
X0162970Y0284616D02*
X0150433Y0284616D01*
X0155964Y0257846D02*
X0154953Y0257427D01*
X0154180Y0256653D01*
X0153761Y0255643D01*
X0153761Y0254549D01*
X0154180Y0253538D01*
X0154953Y0252764D01*
X0155964Y0252346D01*
X0157058Y0252346D01*
X0158069Y0252764D01*
X0158843Y0253538D01*
X0159261Y0254549D01*
X0159261Y0255643D01*
X0158843Y0256653D01*
X0158069Y0257427D01*
X0157058Y0257846D01*
X0155964Y0257846D01*
X0155049Y0257467D02*
X0114228Y0257467D01*
X0114228Y0258265D02*
X0198771Y0258265D01*
X0198761Y0258289D02*
X0199180Y0257278D01*
X0199953Y0256504D01*
X0200964Y0256086D01*
X0202058Y0256086D01*
X0203069Y0256504D01*
X0203843Y0257278D01*
X0204261Y0258289D01*
X0204261Y0259383D01*
X0203843Y0260393D01*
X0203069Y0261167D01*
X0202058Y0261586D01*
X0200964Y0261586D01*
X0199953Y0261167D01*
X0199180Y0260393D01*
X0198761Y0259383D01*
X0198761Y0258289D01*
X0198761Y0259064D02*
X0114228Y0259064D01*
X0114228Y0259862D02*
X0198960Y0259862D01*
X0199447Y0260661D02*
X0114228Y0260661D01*
X0114228Y0261459D02*
X0200659Y0261459D01*
X0202364Y0261459D02*
X0242856Y0261459D01*
X0242856Y0261084D02*
X0243274Y0260073D01*
X0244048Y0259300D01*
X0245031Y0258893D01*
X0244343Y0258608D01*
X0243570Y0257834D01*
X0243151Y0256824D01*
X0243151Y0255730D01*
X0243570Y0254719D01*
X0244343Y0253945D01*
X0245354Y0253527D01*
X0246448Y0253527D01*
X0247459Y0253945D01*
X0248232Y0254719D01*
X0248651Y0255730D01*
X0248651Y0256824D01*
X0248232Y0257834D01*
X0247459Y0258608D01*
X0246476Y0259015D01*
X0247163Y0259300D01*
X0247937Y0260073D01*
X0248356Y0261084D01*
X0248356Y0262178D01*
X0247937Y0263189D01*
X0247163Y0263962D01*
X0246153Y0264381D01*
X0245059Y0264381D01*
X0244048Y0263962D01*
X0243274Y0263189D01*
X0242856Y0262178D01*
X0242856Y0261084D01*
X0243031Y0260661D02*
X0203575Y0260661D01*
X0204063Y0259862D02*
X0243485Y0259862D01*
X0244618Y0259064D02*
X0204261Y0259064D01*
X0204251Y0258265D02*
X0244000Y0258265D01*
X0243417Y0257467D02*
X0203921Y0257467D01*
X0203233Y0256668D02*
X0243151Y0256668D01*
X0243151Y0255870D02*
X0194772Y0255870D01*
X0195195Y0255695D02*
X0194184Y0256113D01*
X0193090Y0256113D01*
X0192079Y0255695D01*
X0191306Y0254921D01*
X0190887Y0253910D01*
X0190887Y0252816D01*
X0191306Y0251805D01*
X0192079Y0251032D01*
X0193090Y0250613D01*
X0194184Y0250613D01*
X0195195Y0251032D01*
X0195969Y0251805D01*
X0196387Y0252816D01*
X0196387Y0253910D01*
X0195969Y0254921D01*
X0195195Y0255695D01*
X0195818Y0255071D02*
X0243424Y0255071D01*
X0244016Y0254273D02*
X0196237Y0254273D01*
X0196387Y0253474D02*
X0249549Y0253474D01*
X0249549Y0253871D02*
X0249549Y0252777D01*
X0249967Y0251766D01*
X0250741Y0250993D01*
X0251752Y0250574D01*
X0252846Y0250574D01*
X0253856Y0250993D01*
X0254630Y0251766D01*
X0255049Y0252777D01*
X0255049Y0253871D01*
X0254630Y0254882D01*
X0253856Y0255655D01*
X0252846Y0256074D01*
X0251752Y0256074D01*
X0250741Y0255655D01*
X0249967Y0254882D01*
X0249549Y0253871D01*
X0249715Y0254273D02*
X0247786Y0254273D01*
X0248378Y0255071D02*
X0250157Y0255071D01*
X0251258Y0255870D02*
X0248651Y0255870D01*
X0248651Y0256668D02*
X0295695Y0256668D01*
X0295415Y0257467D02*
X0248385Y0257467D01*
X0247802Y0258265D02*
X0295415Y0258265D01*
X0295674Y0259064D02*
X0246594Y0259064D01*
X0247726Y0259862D02*
X0296247Y0259862D01*
X0297417Y0260661D02*
X0248180Y0260661D01*
X0248356Y0261459D02*
X0297417Y0261459D01*
X0297417Y0262258D02*
X0248323Y0262258D01*
X0247992Y0263056D02*
X0297417Y0263056D01*
X0297417Y0263855D02*
X0247271Y0263855D01*
X0243940Y0263855D02*
X0114228Y0263855D01*
X0114228Y0264653D02*
X0182592Y0264653D01*
X0182631Y0264615D02*
X0183641Y0264196D01*
X0184735Y0264196D01*
X0185746Y0264615D01*
X0186520Y0265388D01*
X0186938Y0266399D01*
X0186938Y0267493D01*
X0186520Y0268504D01*
X0185746Y0269277D01*
X0184735Y0269696D01*
X0183641Y0269696D01*
X0182631Y0269277D01*
X0181857Y0268504D01*
X0181438Y0267493D01*
X0181438Y0266399D01*
X0181857Y0265388D01*
X0182631Y0264615D01*
X0181831Y0265452D02*
X0114228Y0265452D01*
X0114228Y0266250D02*
X0181500Y0266250D01*
X0181438Y0267049D02*
X0114228Y0267049D01*
X0114228Y0267847D02*
X0181585Y0267847D01*
X0181999Y0268646D02*
X0114228Y0268646D01*
X0114228Y0269444D02*
X0183034Y0269444D01*
X0185343Y0269444D02*
X0209766Y0269444D01*
X0209796Y0269474D02*
X0209022Y0268701D01*
X0208604Y0267690D01*
X0208604Y0266596D01*
X0209022Y0265585D01*
X0209796Y0264811D01*
X0210807Y0264393D01*
X0211901Y0264393D01*
X0212911Y0264811D01*
X0213685Y0265585D01*
X0214104Y0266596D01*
X0214104Y0267690D01*
X0213685Y0268701D01*
X0212911Y0269474D01*
X0211901Y0269893D01*
X0210807Y0269893D01*
X0209796Y0269474D01*
X0209000Y0268646D02*
X0186378Y0268646D01*
X0186792Y0267847D02*
X0208669Y0267847D01*
X0208604Y0267049D02*
X0186938Y0267049D01*
X0186877Y0266250D02*
X0208747Y0266250D01*
X0209156Y0265452D02*
X0186546Y0265452D01*
X0185785Y0264653D02*
X0210178Y0264653D01*
X0212529Y0264653D02*
X0297417Y0264653D01*
X0297417Y0265452D02*
X0213552Y0265452D01*
X0213961Y0266250D02*
X0297417Y0266250D01*
X0297417Y0267049D02*
X0214104Y0267049D01*
X0214039Y0267847D02*
X0297417Y0267847D01*
X0297417Y0268646D02*
X0213708Y0268646D01*
X0212941Y0269444D02*
X0297417Y0269444D01*
X0297417Y0270243D02*
X0114228Y0270243D01*
X0114228Y0271041D02*
X0297417Y0271041D01*
X0297417Y0271840D02*
X0183523Y0271840D01*
X0184225Y0272638D02*
X0297417Y0272638D01*
X0297417Y0273437D02*
X0184556Y0273437D01*
X0180130Y0271840D02*
X0114228Y0271840D01*
X0114228Y0272638D02*
X0179427Y0272638D01*
X0179096Y0273437D02*
X0114228Y0273437D01*
X0114228Y0274235D02*
X0179076Y0274235D01*
X0179264Y0275034D02*
X0114228Y0275034D01*
X0114228Y0275832D02*
X0179737Y0275832D01*
X0192502Y0255870D02*
X0159167Y0255870D01*
X0159261Y0255071D02*
X0191456Y0255071D01*
X0191037Y0254273D02*
X0159147Y0254273D01*
X0158779Y0253474D02*
X0190887Y0253474D01*
X0190945Y0252676D02*
X0157855Y0252676D01*
X0155168Y0252676D02*
X0114228Y0252676D01*
X0114228Y0253474D02*
X0154244Y0253474D01*
X0153876Y0254273D02*
X0114228Y0254273D01*
X0114228Y0255071D02*
X0153761Y0255071D01*
X0153855Y0255870D02*
X0114228Y0255870D01*
X0114228Y0256668D02*
X0154195Y0256668D01*
X0157973Y0257467D02*
X0199102Y0257467D01*
X0199790Y0256668D02*
X0158828Y0256668D01*
X0184586Y0247884D02*
X0114228Y0247884D01*
X0114228Y0247086D02*
X0184391Y0247086D01*
X0184405Y0246287D02*
X0114228Y0246287D01*
X0114228Y0248683D02*
X0185068Y0248683D01*
X0186267Y0249481D02*
X0114228Y0249481D01*
X0114228Y0250280D02*
X0283515Y0250280D01*
X0283410Y0250175D02*
X0282991Y0249164D01*
X0282991Y0248070D01*
X0283410Y0247059D01*
X0284183Y0246285D01*
X0285194Y0245867D01*
X0286288Y0245867D01*
X0287299Y0246285D01*
X0288072Y0247059D01*
X0288491Y0248070D01*
X0288491Y0249164D01*
X0288072Y0250175D01*
X0287299Y0250948D01*
X0286288Y0251367D01*
X0285194Y0251367D01*
X0284183Y0250948D01*
X0283410Y0250175D01*
X0283123Y0249481D02*
X0188016Y0249481D01*
X0189214Y0248683D02*
X0282991Y0248683D01*
X0283068Y0247884D02*
X0189696Y0247884D01*
X0189891Y0247086D02*
X0283399Y0247086D01*
X0284181Y0246287D02*
X0189878Y0246287D01*
X0192033Y0251079D02*
X0114228Y0251079D01*
X0114228Y0251877D02*
X0191276Y0251877D01*
X0195242Y0251079D02*
X0250655Y0251079D01*
X0249921Y0251877D02*
X0195998Y0251877D01*
X0196329Y0252676D02*
X0249591Y0252676D01*
X0253339Y0255870D02*
X0296297Y0255870D01*
X0297417Y0255071D02*
X0254441Y0255071D01*
X0254882Y0254273D02*
X0297417Y0254273D01*
X0297417Y0253474D02*
X0255049Y0253474D01*
X0255007Y0252676D02*
X0297417Y0252676D01*
X0297417Y0251877D02*
X0254676Y0251877D01*
X0253942Y0251079D02*
X0284498Y0251079D01*
X0286984Y0251079D02*
X0297417Y0251079D01*
X0297417Y0250280D02*
X0287967Y0250280D01*
X0288360Y0249481D02*
X0297417Y0249481D01*
X0297417Y0248683D02*
X0288491Y0248683D01*
X0288414Y0247884D02*
X0297417Y0247884D01*
X0297417Y0247086D02*
X0288084Y0247086D01*
X0287301Y0246287D02*
X0297417Y0246287D01*
X0297417Y0279026D02*
X0296635Y0279026D01*
X0297417Y0279825D02*
X0272849Y0279825D01*
X0273159Y0280623D02*
X0297417Y0280623D01*
X0297417Y0281422D02*
X0273159Y0281422D01*
X0272929Y0282220D02*
X0297417Y0282220D01*
X0297417Y0283019D02*
X0272398Y0283019D01*
X0272205Y0279026D02*
X0294970Y0279026D01*
X0279480Y0289407D02*
X0261754Y0289407D01*
X0262553Y0290206D02*
X0279470Y0290206D01*
X0279669Y0291004D02*
X0263351Y0291004D01*
X0264150Y0291803D02*
X0280156Y0291803D01*
X0275832Y0302183D02*
X0297417Y0302183D01*
X0297417Y0301385D02*
X0273732Y0301385D01*
X0272933Y0300586D02*
X0297417Y0300586D01*
X0297417Y0299788D02*
X0272135Y0299788D01*
X0271336Y0298989D02*
X0297417Y0298989D01*
X0297417Y0298191D02*
X0270538Y0298191D01*
X0276672Y0302982D02*
X0297417Y0302982D01*
X0297417Y0303780D02*
X0277006Y0303780D01*
X0284935Y0318952D02*
X0297417Y0318952D01*
X0297417Y0319750D02*
X0285964Y0319750D01*
X0286463Y0320549D02*
X0297417Y0320549D01*
X0297417Y0321348D02*
X0286751Y0321348D01*
X0286751Y0322146D02*
X0297417Y0322146D01*
X0297417Y0322945D02*
X0286587Y0322945D01*
X0286257Y0323743D02*
X0297417Y0323743D01*
X0297417Y0308571D02*
X0238775Y0308571D01*
X0239399Y0307773D02*
X0297417Y0307773D01*
X0261454Y0294198D02*
X0239694Y0294198D01*
X0239381Y0293400D02*
X0260656Y0293400D01*
X0259857Y0292601D02*
X0238733Y0292601D01*
X0243220Y0263056D02*
X0114228Y0263056D01*
X0114228Y0262258D02*
X0242889Y0262258D01*
X0249972Y0215529D02*
X0309228Y0215529D01*
X0309228Y0200300D01*
X0308961Y0200945D01*
X0308187Y0201718D01*
X0307176Y0202137D01*
X0306082Y0202137D01*
X0305072Y0201718D01*
X0304298Y0200945D01*
X0303879Y0199934D01*
X0303879Y0198840D01*
X0304298Y0197829D01*
X0305072Y0197056D01*
X0306082Y0196637D01*
X0307176Y0196637D01*
X0308187Y0197056D01*
X0308961Y0197829D01*
X0309228Y0198474D01*
X0309228Y0189145D01*
X0308838Y0189145D01*
X0307827Y0188726D01*
X0307296Y0188195D01*
X0302734Y0188195D01*
X0296829Y0182289D01*
X0291452Y0182289D01*
X0292032Y0182868D01*
X0292450Y0183879D01*
X0292450Y0184973D01*
X0292032Y0185984D01*
X0291258Y0186758D01*
X0290247Y0187176D01*
X0289153Y0187176D01*
X0288142Y0186758D01*
X0287369Y0185984D01*
X0286950Y0184973D01*
X0286950Y0183879D01*
X0287369Y0182868D01*
X0288142Y0182095D01*
X0288579Y0181914D01*
X0287936Y0181271D01*
X0287185Y0181271D01*
X0286174Y0180852D01*
X0285400Y0180078D01*
X0284982Y0179068D01*
X0284982Y0177974D01*
X0285400Y0176963D01*
X0286174Y0176189D01*
X0287185Y0175771D01*
X0288279Y0175771D01*
X0289289Y0176189D01*
X0290063Y0176963D01*
X0290482Y0177974D01*
X0290482Y0178689D01*
X0298320Y0178689D01*
X0299374Y0179744D01*
X0304225Y0184595D01*
X0307296Y0184595D01*
X0307827Y0184063D01*
X0308838Y0183645D01*
X0309228Y0183645D01*
X0309228Y0172725D01*
X0308974Y0172978D01*
X0307964Y0173397D01*
X0306870Y0173397D01*
X0305859Y0172978D01*
X0305085Y0172204D01*
X0304667Y0171194D01*
X0304667Y0170100D01*
X0305085Y0169089D01*
X0305859Y0168315D01*
X0306870Y0167897D01*
X0307964Y0167897D01*
X0308974Y0168315D01*
X0309228Y0168569D01*
X0309228Y0155529D01*
X0288645Y0155529D01*
X0288279Y0155680D01*
X0287185Y0155680D01*
X0286819Y0155529D01*
X0249228Y0155529D01*
X0249228Y0210442D01*
X0250111Y0210808D01*
X0250885Y0211582D01*
X0251304Y0212593D01*
X0251304Y0213687D01*
X0250885Y0214697D01*
X0250111Y0215471D01*
X0249972Y0215529D01*
X0250437Y0215145D02*
X0309228Y0215145D01*
X0309228Y0214347D02*
X0251030Y0214347D01*
X0251304Y0213548D02*
X0302094Y0213548D01*
X0302256Y0213616D02*
X0301245Y0213197D01*
X0300471Y0212423D01*
X0300053Y0211413D01*
X0300053Y0210319D01*
X0300471Y0209308D01*
X0301245Y0208534D01*
X0302256Y0208116D01*
X0303350Y0208116D01*
X0304360Y0208534D01*
X0305134Y0209308D01*
X0305553Y0210319D01*
X0305553Y0211413D01*
X0305134Y0212423D01*
X0304360Y0213197D01*
X0303350Y0213616D01*
X0302256Y0213616D01*
X0303512Y0213548D02*
X0309228Y0213548D01*
X0309228Y0212750D02*
X0304807Y0212750D01*
X0305329Y0211951D02*
X0309228Y0211951D01*
X0309228Y0211153D02*
X0305553Y0211153D01*
X0305553Y0210354D02*
X0309228Y0210354D01*
X0309228Y0209556D02*
X0305237Y0209556D01*
X0304583Y0208757D02*
X0309228Y0208757D01*
X0309228Y0207959D02*
X0262923Y0207959D01*
X0262923Y0207501D02*
X0262504Y0206491D01*
X0261730Y0205717D01*
X0260720Y0205298D01*
X0259626Y0205298D01*
X0258615Y0205717D01*
X0257841Y0206491D01*
X0257423Y0207501D01*
X0257423Y0208595D01*
X0257841Y0209606D01*
X0258615Y0210380D01*
X0259626Y0210798D01*
X0260720Y0210798D01*
X0261730Y0210380D01*
X0262504Y0209606D01*
X0262923Y0208595D01*
X0262923Y0207501D01*
X0262781Y0207160D02*
X0309228Y0207160D01*
X0309228Y0206362D02*
X0262375Y0206362D01*
X0261360Y0205563D02*
X0309228Y0205563D01*
X0309228Y0204765D02*
X0249228Y0204765D01*
X0249228Y0205563D02*
X0258986Y0205563D01*
X0257970Y0206362D02*
X0249228Y0206362D01*
X0249228Y0207160D02*
X0257564Y0207160D01*
X0257423Y0207959D02*
X0249228Y0207959D01*
X0249228Y0208757D02*
X0257490Y0208757D01*
X0257821Y0209556D02*
X0249228Y0209556D01*
X0249228Y0210354D02*
X0258590Y0210354D01*
X0261756Y0210354D02*
X0300053Y0210354D01*
X0300053Y0211153D02*
X0250456Y0211153D01*
X0251038Y0211951D02*
X0300276Y0211951D01*
X0300798Y0212750D02*
X0251304Y0212750D01*
X0249228Y0203966D02*
X0309228Y0203966D01*
X0309228Y0203168D02*
X0249228Y0203168D01*
X0249228Y0202369D02*
X0289735Y0202369D01*
X0289744Y0202373D02*
X0288733Y0201954D01*
X0287959Y0201181D01*
X0287541Y0200170D01*
X0287541Y0199076D01*
X0287959Y0198065D01*
X0288733Y0197292D01*
X0289744Y0196873D01*
X0290838Y0196873D01*
X0291848Y0197292D01*
X0292622Y0198065D01*
X0293041Y0199076D01*
X0293041Y0200170D01*
X0292622Y0201181D01*
X0291848Y0201954D01*
X0290838Y0202373D01*
X0289744Y0202373D01*
X0290847Y0202369D02*
X0309228Y0202369D01*
X0309228Y0201571D02*
X0308334Y0201571D01*
X0309032Y0200772D02*
X0309228Y0200772D01*
X0309188Y0198377D02*
X0309228Y0198377D01*
X0309228Y0197578D02*
X0308710Y0197578D01*
X0309228Y0196780D02*
X0307521Y0196780D01*
X0305737Y0196780D02*
X0278080Y0196780D01*
X0278080Y0196714D02*
X0277661Y0195703D01*
X0276888Y0194930D01*
X0275877Y0194511D01*
X0274783Y0194511D01*
X0273772Y0194930D01*
X0272999Y0195703D01*
X0272580Y0196714D01*
X0272580Y0197808D01*
X0272999Y0198819D01*
X0273772Y0199592D01*
X0274783Y0200011D01*
X0275877Y0200011D01*
X0276888Y0199592D01*
X0277661Y0198819D01*
X0278080Y0197808D01*
X0278080Y0196714D01*
X0277777Y0195981D02*
X0309228Y0195981D01*
X0309228Y0195183D02*
X0277141Y0195183D01*
X0278080Y0197578D02*
X0288447Y0197578D01*
X0287830Y0198377D02*
X0277844Y0198377D01*
X0277305Y0199175D02*
X0287541Y0199175D01*
X0287541Y0199974D02*
X0275967Y0199974D01*
X0274694Y0199974D02*
X0259072Y0199974D01*
X0259359Y0199686D02*
X0258586Y0200460D01*
X0257575Y0200879D01*
X0256481Y0200879D01*
X0255470Y0200460D01*
X0254696Y0199686D01*
X0254278Y0198676D01*
X0254278Y0197582D01*
X0254696Y0196571D01*
X0255470Y0195797D01*
X0256481Y0195379D01*
X0257575Y0195379D01*
X0258586Y0195797D01*
X0259359Y0196571D01*
X0259778Y0197582D01*
X0259778Y0198676D01*
X0259359Y0199686D01*
X0259571Y0199175D02*
X0273355Y0199175D01*
X0272816Y0198377D02*
X0259778Y0198377D01*
X0259776Y0197578D02*
X0272580Y0197578D01*
X0272580Y0196780D02*
X0259446Y0196780D01*
X0258769Y0195981D02*
X0272884Y0195981D01*
X0273519Y0195183D02*
X0249228Y0195183D01*
X0249228Y0195981D02*
X0255286Y0195981D01*
X0254610Y0196780D02*
X0249228Y0196780D01*
X0249228Y0197578D02*
X0254279Y0197578D01*
X0254278Y0198377D02*
X0249228Y0198377D01*
X0249228Y0199175D02*
X0254485Y0199175D01*
X0254984Y0199974D02*
X0249228Y0199974D01*
X0249228Y0200772D02*
X0256224Y0200772D01*
X0257831Y0200772D02*
X0287790Y0200772D01*
X0288349Y0201571D02*
X0249228Y0201571D01*
X0249228Y0194384D02*
X0309228Y0194384D01*
X0309228Y0193586D02*
X0287402Y0193586D01*
X0287098Y0193712D02*
X0286004Y0193712D01*
X0284993Y0193293D01*
X0284219Y0192519D01*
X0283801Y0191509D01*
X0283801Y0190415D01*
X0284219Y0189404D01*
X0284993Y0188630D01*
X0286004Y0188212D01*
X0287098Y0188212D01*
X0288108Y0188630D01*
X0288882Y0189404D01*
X0289301Y0190415D01*
X0289301Y0191509D01*
X0288882Y0192519D01*
X0288108Y0193293D01*
X0287098Y0193712D01*
X0285699Y0193586D02*
X0249228Y0193586D01*
X0249228Y0192787D02*
X0284487Y0192787D01*
X0283999Y0191989D02*
X0249228Y0191989D01*
X0249228Y0191190D02*
X0283801Y0191190D01*
X0283810Y0190392D02*
X0280183Y0190392D01*
X0279841Y0190734D02*
X0278830Y0191153D01*
X0277736Y0191153D01*
X0276725Y0190734D01*
X0275952Y0189960D01*
X0275533Y0188950D01*
X0275533Y0187856D01*
X0275952Y0186845D01*
X0276725Y0186071D01*
X0277736Y0185653D01*
X0278830Y0185653D01*
X0279470Y0185918D01*
X0279470Y0184903D01*
X0279889Y0183892D01*
X0280662Y0183119D01*
X0281673Y0182700D01*
X0282767Y0182700D01*
X0283778Y0183119D01*
X0284551Y0183892D01*
X0284970Y0184903D01*
X0284970Y0185997D01*
X0284551Y0187008D01*
X0283778Y0187781D01*
X0282767Y0188200D01*
X0281673Y0188200D01*
X0281033Y0187935D01*
X0281033Y0188950D01*
X0280614Y0189960D01*
X0279841Y0190734D01*
X0280766Y0189593D02*
X0284141Y0189593D01*
X0284829Y0188795D02*
X0281033Y0188795D01*
X0281033Y0187996D02*
X0281181Y0187996D01*
X0283259Y0187996D02*
X0294824Y0187996D01*
X0294824Y0187816D02*
X0295243Y0186805D01*
X0296016Y0186032D01*
X0297027Y0185613D01*
X0298121Y0185613D01*
X0299132Y0186032D01*
X0299906Y0186805D01*
X0300324Y0187816D01*
X0300324Y0188910D01*
X0299906Y0189921D01*
X0299132Y0190695D01*
X0298121Y0191113D01*
X0297027Y0191113D01*
X0296016Y0190695D01*
X0295243Y0189921D01*
X0294824Y0188910D01*
X0294824Y0187816D01*
X0295080Y0187198D02*
X0284361Y0187198D01*
X0284803Y0186399D02*
X0287784Y0186399D01*
X0287210Y0185601D02*
X0284970Y0185601D01*
X0284928Y0184802D02*
X0286950Y0184802D01*
X0286950Y0184004D02*
X0284597Y0184004D01*
X0283864Y0183205D02*
X0287229Y0183205D01*
X0287831Y0182407D02*
X0255272Y0182407D01*
X0254971Y0182707D02*
X0253961Y0183126D01*
X0252867Y0183126D01*
X0251856Y0182707D01*
X0251082Y0181934D01*
X0250664Y0180923D01*
X0250664Y0179829D01*
X0251082Y0178818D01*
X0251856Y0178045D01*
X0252867Y0177626D01*
X0253961Y0177626D01*
X0254971Y0178045D01*
X0255745Y0178818D01*
X0256164Y0179829D01*
X0256164Y0180923D01*
X0255745Y0181934D01*
X0254971Y0182707D01*
X0255880Y0181608D02*
X0288273Y0181608D01*
X0289700Y0180489D02*
X0287732Y0178521D01*
X0290482Y0178414D02*
X0309228Y0178414D01*
X0309228Y0179212D02*
X0298843Y0179212D01*
X0299642Y0180011D02*
X0309228Y0180011D01*
X0309228Y0180810D02*
X0300440Y0180810D01*
X0301239Y0181608D02*
X0309228Y0181608D01*
X0309228Y0182407D02*
X0302037Y0182407D01*
X0302836Y0183205D02*
X0309228Y0183205D01*
X0307972Y0184004D02*
X0303634Y0184004D01*
X0303480Y0186395D02*
X0297574Y0180489D01*
X0289700Y0180489D01*
X0291570Y0182407D02*
X0296946Y0182407D01*
X0297744Y0183205D02*
X0292171Y0183205D01*
X0292450Y0184004D02*
X0298543Y0184004D01*
X0299341Y0184802D02*
X0292450Y0184802D01*
X0292190Y0185601D02*
X0300140Y0185601D01*
X0299499Y0186399D02*
X0300938Y0186399D01*
X0301737Y0187198D02*
X0300068Y0187198D01*
X0300324Y0187996D02*
X0302536Y0187996D01*
X0303480Y0186395D02*
X0309385Y0186395D01*
X0307993Y0188795D02*
X0300324Y0188795D01*
X0300041Y0189593D02*
X0309228Y0189593D01*
X0309228Y0190392D02*
X0299435Y0190392D01*
X0295714Y0190392D02*
X0289291Y0190392D01*
X0289301Y0191190D02*
X0309228Y0191190D01*
X0309228Y0191989D02*
X0289102Y0191989D01*
X0288614Y0192787D02*
X0309228Y0192787D01*
X0304924Y0201571D02*
X0292232Y0201571D01*
X0292791Y0200772D02*
X0304227Y0200772D01*
X0303896Y0199974D02*
X0293041Y0199974D01*
X0293041Y0199175D02*
X0303879Y0199175D01*
X0304071Y0198377D02*
X0292751Y0198377D01*
X0292135Y0197578D02*
X0304549Y0197578D01*
X0301022Y0208757D02*
X0262855Y0208757D01*
X0262525Y0209556D02*
X0300368Y0209556D01*
X0295107Y0189593D02*
X0288960Y0189593D01*
X0288273Y0188795D02*
X0294824Y0188795D01*
X0295649Y0186399D02*
X0291616Y0186399D01*
X0290333Y0177615D02*
X0309228Y0177615D01*
X0309228Y0176817D02*
X0289917Y0176817D01*
X0288877Y0176018D02*
X0309228Y0176018D01*
X0309228Y0175220D02*
X0249228Y0175220D01*
X0249228Y0176018D02*
X0286587Y0176018D01*
X0285546Y0176817D02*
X0249228Y0176817D01*
X0249228Y0177615D02*
X0285130Y0177615D01*
X0284982Y0178414D02*
X0255341Y0178414D01*
X0255908Y0179212D02*
X0285042Y0179212D01*
X0285372Y0180011D02*
X0256164Y0180011D01*
X0256164Y0180810D02*
X0286131Y0180810D01*
X0280576Y0183205D02*
X0269297Y0183205D01*
X0269014Y0182922D02*
X0269787Y0183695D01*
X0270206Y0184706D01*
X0270206Y0185800D01*
X0269787Y0186811D01*
X0269014Y0187584D01*
X0268003Y0188003D01*
X0266909Y0188003D01*
X0265898Y0187584D01*
X0265125Y0186811D01*
X0264706Y0185800D01*
X0264706Y0184706D01*
X0265125Y0183695D01*
X0265898Y0182922D01*
X0266909Y0182503D01*
X0268003Y0182503D01*
X0269014Y0182922D01*
X0269915Y0184004D02*
X0279842Y0184004D01*
X0279512Y0184802D02*
X0270206Y0184802D01*
X0270206Y0185601D02*
X0279470Y0185601D01*
X0276397Y0186399D02*
X0269958Y0186399D01*
X0269401Y0187198D02*
X0275805Y0187198D01*
X0275533Y0187996D02*
X0268020Y0187996D01*
X0266892Y0187996D02*
X0249228Y0187996D01*
X0249228Y0187198D02*
X0265512Y0187198D01*
X0264954Y0186399D02*
X0249228Y0186399D01*
X0249228Y0185601D02*
X0264706Y0185601D01*
X0264706Y0184802D02*
X0249228Y0184802D01*
X0249228Y0184004D02*
X0264997Y0184004D01*
X0265615Y0183205D02*
X0249228Y0183205D01*
X0249228Y0182407D02*
X0251555Y0182407D01*
X0250947Y0181608D02*
X0249228Y0181608D01*
X0249228Y0180810D02*
X0250664Y0180810D01*
X0250664Y0180011D02*
X0249228Y0180011D01*
X0249228Y0179212D02*
X0250919Y0179212D01*
X0251486Y0178414D02*
X0249228Y0178414D01*
X0249228Y0174421D02*
X0309228Y0174421D01*
X0309228Y0173623D02*
X0249228Y0173623D01*
X0249228Y0172824D02*
X0305705Y0172824D01*
X0305011Y0172026D02*
X0249228Y0172026D01*
X0249228Y0171227D02*
X0304681Y0171227D01*
X0304667Y0170429D02*
X0259795Y0170429D01*
X0259561Y0170526D02*
X0258467Y0170526D01*
X0257456Y0170107D01*
X0256682Y0169334D01*
X0256264Y0168323D01*
X0256264Y0167229D01*
X0256682Y0166218D01*
X0257456Y0165445D01*
X0258467Y0165026D01*
X0259561Y0165026D01*
X0260571Y0165445D01*
X0261345Y0166218D01*
X0261764Y0167229D01*
X0261764Y0168323D01*
X0261345Y0169334D01*
X0260571Y0170107D01*
X0259561Y0170526D01*
X0258232Y0170429D02*
X0249228Y0170429D01*
X0249228Y0169630D02*
X0256979Y0169630D01*
X0256474Y0168832D02*
X0249228Y0168832D01*
X0249228Y0168033D02*
X0256264Y0168033D01*
X0256264Y0167235D02*
X0249228Y0167235D01*
X0249228Y0166436D02*
X0256592Y0166436D01*
X0257263Y0165638D02*
X0249228Y0165638D01*
X0249228Y0164839D02*
X0269709Y0164839D01*
X0269667Y0164737D02*
X0269667Y0163643D01*
X0270085Y0162632D01*
X0270859Y0161859D01*
X0271870Y0161440D01*
X0272964Y0161440D01*
X0273974Y0161859D01*
X0274748Y0162632D01*
X0275167Y0163643D01*
X0275167Y0164737D01*
X0274748Y0165748D01*
X0273974Y0166521D01*
X0272964Y0166940D01*
X0271870Y0166940D01*
X0270859Y0166521D01*
X0270085Y0165748D01*
X0269667Y0164737D01*
X0269667Y0164041D02*
X0249228Y0164041D01*
X0249228Y0163242D02*
X0269833Y0163242D01*
X0270274Y0162444D02*
X0249228Y0162444D01*
X0249228Y0161645D02*
X0271374Y0161645D01*
X0273459Y0161645D02*
X0294946Y0161645D01*
X0294824Y0161351D02*
X0294824Y0160257D01*
X0295243Y0159246D01*
X0296016Y0158473D01*
X0297027Y0158054D01*
X0298121Y0158054D01*
X0299132Y0158473D01*
X0299906Y0159246D01*
X0300324Y0160257D01*
X0300324Y0161351D01*
X0299906Y0162362D01*
X0299132Y0163136D01*
X0298121Y0163554D01*
X0297027Y0163554D01*
X0296016Y0163136D01*
X0295243Y0162362D01*
X0294824Y0161351D01*
X0294824Y0160847D02*
X0249228Y0160847D01*
X0249228Y0160048D02*
X0294911Y0160048D01*
X0295242Y0159250D02*
X0249228Y0159250D01*
X0249228Y0158451D02*
X0296069Y0158451D01*
X0299080Y0158451D02*
X0309228Y0158451D01*
X0309228Y0157653D02*
X0249228Y0157653D01*
X0249228Y0156854D02*
X0309228Y0156854D01*
X0309228Y0156056D02*
X0249228Y0156056D01*
X0260765Y0165638D02*
X0270040Y0165638D01*
X0270774Y0166436D02*
X0261435Y0166436D01*
X0261764Y0167235D02*
X0292385Y0167235D01*
X0292487Y0167480D02*
X0292068Y0166469D01*
X0292068Y0165375D01*
X0292487Y0164365D01*
X0293261Y0163591D01*
X0294271Y0163172D01*
X0295365Y0163172D01*
X0296376Y0163591D01*
X0297150Y0164365D01*
X0297568Y0165375D01*
X0297568Y0166469D01*
X0297150Y0167480D01*
X0296376Y0168254D01*
X0295365Y0168672D01*
X0294271Y0168672D01*
X0293261Y0168254D01*
X0292487Y0167480D01*
X0293040Y0168033D02*
X0261764Y0168033D01*
X0261553Y0168832D02*
X0305343Y0168832D01*
X0304861Y0169630D02*
X0261048Y0169630D01*
X0274060Y0166436D02*
X0292068Y0166436D01*
X0292068Y0165638D02*
X0274794Y0165638D01*
X0275124Y0164839D02*
X0292290Y0164839D01*
X0292811Y0164041D02*
X0275167Y0164041D01*
X0275001Y0163242D02*
X0294102Y0163242D01*
X0295534Y0163242D02*
X0296274Y0163242D01*
X0296826Y0164041D02*
X0309228Y0164041D01*
X0309228Y0164839D02*
X0297346Y0164839D01*
X0297568Y0165638D02*
X0309228Y0165638D01*
X0309228Y0166436D02*
X0297568Y0166436D01*
X0297251Y0167235D02*
X0309228Y0167235D01*
X0309228Y0168033D02*
X0308294Y0168033D01*
X0306540Y0168033D02*
X0296596Y0168033D01*
X0298874Y0163242D02*
X0309228Y0163242D01*
X0309228Y0162444D02*
X0299824Y0162444D01*
X0300202Y0161645D02*
X0309228Y0161645D01*
X0309228Y0160847D02*
X0300324Y0160847D01*
X0300238Y0160048D02*
X0309228Y0160048D01*
X0309228Y0159250D02*
X0299907Y0159250D01*
X0295325Y0162444D02*
X0274560Y0162444D01*
X0275533Y0188795D02*
X0249228Y0188795D01*
X0249228Y0189593D02*
X0275799Y0189593D01*
X0276383Y0190392D02*
X0249228Y0190392D01*
X0309128Y0172824D02*
X0309228Y0172824D01*
X0203659Y0325340D02*
X0174762Y0325340D01*
X0175292Y0324542D02*
X0202860Y0324542D01*
X0204458Y0326139D02*
X0177782Y0326139D01*
X0178388Y0326937D02*
X0205256Y0326937D01*
X0206055Y0327736D02*
X0178671Y0327736D01*
X0178671Y0328534D02*
X0206853Y0328534D01*
X0188797Y0346900D02*
X0147007Y0346900D01*
X0146564Y0346101D02*
X0188206Y0346101D01*
X0181926Y0334124D02*
X0181726Y0334124D01*
X0181774Y0330131D02*
X0181878Y0330131D01*
X0184345Y0323743D02*
X0175521Y0323743D01*
X0175521Y0322945D02*
X0183547Y0322945D01*
X0182748Y0322146D02*
X0175211Y0322146D01*
X0174566Y0321348D02*
X0181950Y0321348D01*
X0177159Y0316556D02*
X0168782Y0316556D01*
X0169471Y0315758D02*
X0176360Y0315758D01*
X0175562Y0314959D02*
X0169802Y0314959D01*
X0169812Y0314161D02*
X0174763Y0314161D01*
X0173965Y0313362D02*
X0169615Y0313362D01*
X0169128Y0312564D02*
X0173727Y0312564D01*
X0173845Y0326139D02*
X0174059Y0326139D01*
X0173996Y0330131D02*
X0173908Y0330131D01*
X0178985Y0362870D02*
X0114228Y0362870D01*
X0114228Y0363669D02*
X0179620Y0363669D01*
X0152255Y0481050D02*
X0148405Y0481050D01*
X0149187Y0481848D02*
X0151474Y0481848D01*
X0151143Y0482647D02*
X0149517Y0482647D01*
X0149674Y0483445D02*
X0150986Y0483445D01*
X0150986Y0484244D02*
X0149674Y0484244D01*
X0149380Y0485042D02*
X0151281Y0485042D01*
X0144381Y0481050D02*
X0142499Y0481050D01*
X0143281Y0481848D02*
X0143600Y0481848D01*
X0138476Y0481050D02*
X0136594Y0481050D01*
X0137376Y0481848D02*
X0137694Y0481848D01*
X0132570Y0481050D02*
X0130688Y0481050D01*
X0131470Y0481848D02*
X0131789Y0481848D01*
X0126665Y0481050D02*
X0124783Y0481050D01*
X0125565Y0481848D02*
X0125883Y0481848D01*
X0120759Y0481050D02*
X0074858Y0481050D01*
X0074858Y0481848D02*
X0119978Y0481848D01*
X0119647Y0482647D02*
X0074858Y0482647D01*
X0074858Y0483445D02*
X0119490Y0483445D01*
X0119490Y0484244D02*
X0074858Y0484244D01*
X0074858Y0485042D02*
X0119785Y0485042D01*
D15*
X0073677Y0215529D02*
X0073677Y0155529D01*
X0119302Y0155529D01*
X0120639Y0156082D01*
X0122103Y0156082D01*
X0123440Y0155529D01*
X0127592Y0155529D01*
X0128929Y0156082D01*
X0130393Y0156082D01*
X0131729Y0155529D01*
X0134482Y0155529D01*
X0135567Y0155978D01*
X0135190Y0156888D01*
X0135190Y0158409D01*
X0134828Y0158258D01*
X0132053Y0158258D01*
X0129489Y0159320D01*
X0127527Y0161282D01*
X0126465Y0163846D01*
X0126465Y0166621D01*
X0127527Y0169184D01*
X0129489Y0171146D01*
X0130303Y0171483D01*
X0129489Y0171820D01*
X0127527Y0173782D01*
X0126465Y0176346D01*
X0126465Y0179121D01*
X0127527Y0181684D01*
X0129489Y0183646D01*
X0132053Y0184708D01*
X0134828Y0184708D01*
X0137391Y0183646D01*
X0139353Y0181684D01*
X0139947Y0180251D01*
X0141033Y0181336D01*
X0142595Y0181983D01*
X0144286Y0181983D01*
X0145848Y0181336D01*
X0146933Y0180251D01*
X0147527Y0181684D01*
X0149489Y0183646D01*
X0152053Y0184708D01*
X0154828Y0184708D01*
X0157391Y0183646D01*
X0159353Y0181684D01*
X0160415Y0179121D01*
X0160415Y0176346D01*
X0159353Y0173782D01*
X0157391Y0171820D01*
X0156578Y0171483D01*
X0157391Y0171146D01*
X0159353Y0169184D01*
X0160415Y0166621D01*
X0160415Y0163846D01*
X0159353Y0161282D01*
X0157391Y0159320D01*
X0154828Y0158258D01*
X0152053Y0158258D01*
X0151690Y0158409D01*
X0151690Y0156888D01*
X0151313Y0155977D01*
X0151566Y0156082D01*
X0153031Y0156082D01*
X0154367Y0155529D01*
X0158104Y0155529D01*
X0159440Y0156082D01*
X0160905Y0156082D01*
X0162241Y0155529D01*
X0165978Y0155529D01*
X0167314Y0156082D01*
X0168779Y0156082D01*
X0170115Y0155529D01*
X0173852Y0155529D01*
X0175188Y0156082D01*
X0176653Y0156082D01*
X0177989Y0155529D01*
X0181726Y0155529D01*
X0183062Y0156082D01*
X0184527Y0156082D01*
X0184582Y0156059D01*
X0184582Y0156549D01*
X0185061Y0157707D01*
X0185947Y0158593D01*
X0187105Y0159072D01*
X0188358Y0159072D01*
X0189516Y0158593D01*
X0190402Y0157707D01*
X0190882Y0156549D01*
X0190882Y0156059D01*
X0190936Y0156082D01*
X0192401Y0156082D01*
X0193737Y0155529D01*
X0197474Y0155529D01*
X0198811Y0156082D01*
X0200275Y0156082D01*
X0201611Y0155529D01*
X0211254Y0155529D01*
X0212590Y0156082D01*
X0214054Y0156082D01*
X0215391Y0155529D01*
X0222080Y0155529D01*
X0223417Y0156082D01*
X0224881Y0156082D01*
X0226218Y0155529D01*
X0228970Y0155529D01*
X0230307Y0156082D01*
X0231771Y0156082D01*
X0233107Y0155529D01*
X0236844Y0155529D01*
X0238181Y0156082D01*
X0239645Y0156082D01*
X0240981Y0155529D01*
X0243318Y0155529D01*
X0244228Y0155905D01*
X0244228Y0187724D01*
X0243560Y0187448D01*
X0242096Y0187448D01*
X0240743Y0188008D01*
X0239707Y0189043D01*
X0239147Y0190396D01*
X0239147Y0191861D01*
X0239707Y0193214D01*
X0240743Y0194249D01*
X0242096Y0194810D01*
X0243560Y0194810D01*
X0244228Y0194533D01*
X0244228Y0196929D01*
X0238111Y0196929D01*
X0237155Y0197324D01*
X0236424Y0198056D01*
X0225094Y0209385D01*
X0214333Y0209385D01*
X0214494Y0209319D01*
X0215380Y0208433D01*
X0215860Y0207275D01*
X0215860Y0206022D01*
X0215380Y0204864D01*
X0215021Y0204505D01*
X0215599Y0203927D01*
X0216079Y0202769D01*
X0216079Y0201516D01*
X0215599Y0200358D01*
X0214713Y0199472D01*
X0213555Y0198993D01*
X0212302Y0198993D01*
X0211144Y0199472D01*
X0210258Y0200358D01*
X0209779Y0201516D01*
X0209779Y0202769D01*
X0210258Y0203927D01*
X0210617Y0204286D01*
X0210039Y0204864D01*
X0209560Y0206022D01*
X0209560Y0207275D01*
X0210039Y0208433D01*
X0210925Y0209319D01*
X0211086Y0209385D01*
X0161230Y0209385D01*
X0160275Y0209781D01*
X0159543Y0210513D01*
X0159543Y0210513D01*
X0158702Y0211354D01*
X0157617Y0211354D01*
X0159353Y0209617D01*
X0160415Y0207054D01*
X0160415Y0204279D01*
X0159353Y0201715D01*
X0157391Y0199753D01*
X0156578Y0199416D01*
X0157391Y0199080D01*
X0159353Y0197117D01*
X0160415Y0194554D01*
X0160415Y0191779D01*
X0159353Y0189215D01*
X0157391Y0187253D01*
X0154828Y0186191D01*
X0152053Y0186191D01*
X0149489Y0187253D01*
X0147527Y0189215D01*
X0146933Y0190649D01*
X0145848Y0189563D01*
X0144286Y0188916D01*
X0142595Y0188916D01*
X0141033Y0189563D01*
X0139947Y0190649D01*
X0139353Y0189215D01*
X0137391Y0187253D01*
X0134828Y0186191D01*
X0132053Y0186191D01*
X0129489Y0187253D01*
X0127527Y0189215D01*
X0126465Y0191779D01*
X0126465Y0194554D01*
X0127527Y0197117D01*
X0129489Y0199080D01*
X0130303Y0199416D01*
X0129489Y0199753D01*
X0127527Y0201715D01*
X0126465Y0204279D01*
X0126465Y0207054D01*
X0127527Y0209617D01*
X0129489Y0211580D01*
X0132053Y0212641D01*
X0134828Y0212641D01*
X0135190Y0212491D01*
X0135190Y0214012D01*
X0135819Y0215529D01*
X0131911Y0215529D01*
X0131642Y0215260D01*
X0130484Y0214780D01*
X0129231Y0214780D01*
X0128073Y0215260D01*
X0127804Y0215529D01*
X0073677Y0215529D01*
X0073677Y0214438D02*
X0135367Y0214438D01*
X0135190Y0212839D02*
X0091766Y0212839D01*
X0091977Y0212628D02*
X0091091Y0213514D01*
X0089933Y0213994D01*
X0088680Y0213994D01*
X0087522Y0213514D01*
X0086636Y0212628D01*
X0086157Y0211470D01*
X0086157Y0210217D01*
X0086636Y0209059D01*
X0087522Y0208173D01*
X0088680Y0207694D01*
X0089933Y0207694D01*
X0091091Y0208173D01*
X0091977Y0209059D01*
X0092456Y0210217D01*
X0092456Y0211470D01*
X0091977Y0212628D01*
X0092456Y0211241D02*
X0129151Y0211241D01*
X0127552Y0209642D02*
X0092218Y0209642D01*
X0090779Y0208044D02*
X0126875Y0208044D01*
X0126465Y0206445D02*
X0114656Y0206445D01*
X0114319Y0206782D02*
X0113161Y0207261D01*
X0111908Y0207261D01*
X0110751Y0206782D01*
X0109864Y0205896D01*
X0109385Y0204738D01*
X0109385Y0203485D01*
X0109864Y0202327D01*
X0110751Y0201441D01*
X0111908Y0200961D01*
X0113161Y0200961D01*
X0114319Y0201441D01*
X0115205Y0202327D01*
X0115685Y0203485D01*
X0115685Y0204738D01*
X0115205Y0205896D01*
X0114319Y0206782D01*
X0115640Y0204847D02*
X0126465Y0204847D01*
X0126892Y0203248D02*
X0115587Y0203248D01*
X0114528Y0201650D02*
X0127593Y0201650D01*
X0129191Y0200051D02*
X0121483Y0200051D01*
X0121505Y0200029D02*
X0120618Y0200916D01*
X0119461Y0201395D01*
X0118207Y0201395D01*
X0117050Y0200916D01*
X0116164Y0200029D01*
X0115684Y0198872D01*
X0115684Y0197619D01*
X0116164Y0196461D01*
X0117050Y0195575D01*
X0118207Y0195095D01*
X0119461Y0195095D01*
X0120618Y0195575D01*
X0121505Y0196461D01*
X0121984Y0197619D01*
X0121984Y0198872D01*
X0121505Y0200029D01*
X0121984Y0198453D02*
X0128863Y0198453D01*
X0127418Y0196854D02*
X0121667Y0196854D01*
X0119848Y0195256D02*
X0126756Y0195256D01*
X0126465Y0193657D02*
X0073677Y0193657D01*
X0073677Y0192059D02*
X0107872Y0192059D01*
X0107896Y0192116D02*
X0107416Y0190958D01*
X0107416Y0189705D01*
X0107896Y0188547D01*
X0108782Y0187661D01*
X0109940Y0187182D01*
X0111193Y0187182D01*
X0112351Y0187661D01*
X0113237Y0188547D01*
X0113716Y0189705D01*
X0113716Y0190958D01*
X0113237Y0192116D01*
X0112351Y0193002D01*
X0111193Y0193482D01*
X0109940Y0193482D01*
X0108782Y0193002D01*
X0107896Y0192116D01*
X0107416Y0190460D02*
X0073677Y0190460D01*
X0073677Y0188862D02*
X0107766Y0188862D01*
X0109743Y0187263D02*
X0073677Y0187263D01*
X0073677Y0185665D02*
X0185460Y0185665D01*
X0185061Y0185266D02*
X0184582Y0184108D01*
X0184582Y0182855D01*
X0185061Y0181697D01*
X0185738Y0181021D01*
X0185061Y0180344D01*
X0184582Y0179187D01*
X0184582Y0177934D01*
X0185061Y0176776D01*
X0185947Y0175890D01*
X0187105Y0175410D01*
X0188358Y0175410D01*
X0189516Y0175890D01*
X0190402Y0176776D01*
X0190882Y0177934D01*
X0190882Y0179187D01*
X0190402Y0180344D01*
X0189726Y0181021D01*
X0190402Y0181697D01*
X0190882Y0182855D01*
X0190882Y0184108D01*
X0190402Y0185266D01*
X0189516Y0186152D01*
X0188834Y0186434D01*
X0189516Y0186716D01*
X0190402Y0187603D01*
X0190882Y0188760D01*
X0190882Y0190013D01*
X0190402Y0191171D01*
X0189516Y0192057D01*
X0188358Y0192537D01*
X0187105Y0192537D01*
X0185947Y0192057D01*
X0185061Y0191171D01*
X0184582Y0190013D01*
X0184582Y0188760D01*
X0185061Y0187603D01*
X0185947Y0186716D01*
X0186629Y0186434D01*
X0185947Y0186152D01*
X0185061Y0185266D01*
X0184582Y0184066D02*
X0156378Y0184066D01*
X0158570Y0182468D02*
X0184742Y0182468D01*
X0185586Y0180869D02*
X0159691Y0180869D01*
X0160353Y0179271D02*
X0184616Y0179271D01*
X0184690Y0177672D02*
X0160415Y0177672D01*
X0160303Y0176074D02*
X0185763Y0176074D01*
X0187105Y0173836D02*
X0185947Y0173357D01*
X0185061Y0172470D01*
X0184582Y0171313D01*
X0184582Y0170059D01*
X0185061Y0168902D01*
X0185947Y0168016D01*
X0187105Y0167536D01*
X0188358Y0167536D01*
X0189516Y0168016D01*
X0190402Y0168902D01*
X0190882Y0170059D01*
X0190882Y0171313D01*
X0190402Y0172470D01*
X0189516Y0173357D01*
X0188358Y0173836D01*
X0187105Y0173836D01*
X0185467Y0172877D02*
X0158448Y0172877D01*
X0159640Y0174475D02*
X0244228Y0174475D01*
X0244228Y0172877D02*
X0189996Y0172877D01*
X0190882Y0171278D02*
X0244228Y0171278D01*
X0244228Y0169679D02*
X0190724Y0169679D01*
X0189581Y0168081D02*
X0244228Y0168081D01*
X0244228Y0166482D02*
X0160415Y0166482D01*
X0160415Y0164884D02*
X0183380Y0164884D01*
X0183093Y0164596D02*
X0182613Y0163439D01*
X0182613Y0162185D01*
X0183093Y0161028D01*
X0183979Y0160142D01*
X0185137Y0159662D01*
X0186390Y0159662D01*
X0187548Y0160142D01*
X0188434Y0161028D01*
X0188913Y0162185D01*
X0188913Y0163439D01*
X0188434Y0164596D01*
X0187548Y0165483D01*
X0186390Y0165962D01*
X0185137Y0165962D01*
X0183979Y0165483D01*
X0183093Y0164596D01*
X0182613Y0163285D02*
X0160183Y0163285D01*
X0159521Y0161687D02*
X0182820Y0161687D01*
X0184107Y0160088D02*
X0158160Y0160088D01*
X0155387Y0158490D02*
X0185845Y0158490D01*
X0184724Y0156891D02*
X0151690Y0156891D01*
X0158858Y0169679D02*
X0184739Y0169679D01*
X0184582Y0171278D02*
X0157074Y0171278D01*
X0159811Y0168081D02*
X0185882Y0168081D01*
X0188146Y0164884D02*
X0244228Y0164884D01*
X0244228Y0163285D02*
X0188913Y0163285D01*
X0188707Y0161687D02*
X0244228Y0161687D01*
X0244228Y0160088D02*
X0187419Y0160088D01*
X0189619Y0158490D02*
X0244228Y0158490D01*
X0244228Y0156891D02*
X0190740Y0156891D01*
X0189700Y0176074D02*
X0244228Y0176074D01*
X0244228Y0177672D02*
X0190773Y0177672D01*
X0190847Y0179271D02*
X0244228Y0179271D01*
X0244228Y0180869D02*
X0189878Y0180869D01*
X0190721Y0182468D02*
X0244228Y0182468D01*
X0244228Y0184066D02*
X0190882Y0184066D01*
X0190003Y0185665D02*
X0244228Y0185665D01*
X0244228Y0187263D02*
X0190063Y0187263D01*
X0190882Y0188862D02*
X0239889Y0188862D01*
X0239147Y0190460D02*
X0190697Y0190460D01*
X0189513Y0192059D02*
X0239229Y0192059D01*
X0240150Y0193657D02*
X0160415Y0193657D01*
X0160415Y0192059D02*
X0185951Y0192059D01*
X0184767Y0190460D02*
X0159869Y0190460D01*
X0159000Y0188862D02*
X0184582Y0188862D01*
X0185401Y0187263D02*
X0157401Y0187263D01*
X0160125Y0195256D02*
X0162607Y0195256D01*
X0163089Y0195056D02*
X0164343Y0195056D01*
X0165500Y0195535D01*
X0166386Y0196421D01*
X0166866Y0197579D01*
X0166866Y0198832D01*
X0166386Y0199990D01*
X0165500Y0200876D01*
X0164343Y0201356D01*
X0163089Y0201356D01*
X0161932Y0200876D01*
X0161046Y0199990D01*
X0160566Y0198832D01*
X0160566Y0197579D01*
X0161046Y0196421D01*
X0161932Y0195535D01*
X0163089Y0195056D01*
X0164825Y0195256D02*
X0244228Y0195256D01*
X0244228Y0196854D02*
X0166566Y0196854D01*
X0166866Y0198453D02*
X0236027Y0198453D01*
X0234428Y0200051D02*
X0215292Y0200051D01*
X0216079Y0201650D02*
X0232830Y0201650D01*
X0231231Y0203248D02*
X0215880Y0203248D01*
X0215363Y0204847D02*
X0229633Y0204847D01*
X0228034Y0206445D02*
X0215860Y0206445D01*
X0215541Y0208044D02*
X0226436Y0208044D01*
X0226171Y0211985D02*
X0238628Y0199529D01*
X0251228Y0199529D01*
X0250291Y0202182D02*
X0263519Y0202182D01*
X0263017Y0221162D02*
X0264781Y0221892D01*
X0266132Y0223243D01*
X0266862Y0225007D01*
X0266862Y0226916D01*
X0266132Y0228681D01*
X0264781Y0230031D01*
X0263017Y0230762D01*
X0261108Y0230762D01*
X0259343Y0230031D01*
X0257993Y0228681D01*
X0257262Y0226916D01*
X0257262Y0225007D01*
X0257993Y0223243D01*
X0259343Y0221892D01*
X0261108Y0221162D01*
X0263017Y0221162D01*
X0265319Y0222430D02*
X0268806Y0222430D01*
X0269343Y0221892D02*
X0271108Y0221162D01*
X0273017Y0221162D01*
X0274781Y0221892D01*
X0276132Y0223243D01*
X0276862Y0225007D01*
X0276862Y0226916D01*
X0276132Y0228681D01*
X0274781Y0230031D01*
X0273017Y0230762D01*
X0271108Y0230762D01*
X0269343Y0230031D01*
X0267993Y0228681D01*
X0267262Y0226916D01*
X0267262Y0225007D01*
X0267993Y0223243D01*
X0269343Y0221892D01*
X0267668Y0224029D02*
X0266457Y0224029D01*
X0266862Y0225627D02*
X0267262Y0225627D01*
X0267391Y0227226D02*
X0266734Y0227226D01*
X0265988Y0228824D02*
X0268137Y0228824D01*
X0270290Y0230423D02*
X0263835Y0230423D01*
X0262781Y0231193D02*
X0264545Y0231924D01*
X0265895Y0233274D01*
X0266626Y0235038D01*
X0266626Y0236948D01*
X0265895Y0238712D01*
X0264545Y0240062D01*
X0262781Y0240793D01*
X0260871Y0240793D01*
X0259107Y0240062D01*
X0257757Y0238712D01*
X0257026Y0236948D01*
X0257026Y0235038D01*
X0257757Y0233274D01*
X0259107Y0231924D01*
X0260871Y0231193D01*
X0262781Y0231193D01*
X0264643Y0232021D02*
X0269010Y0232021D01*
X0269107Y0231924D02*
X0270871Y0231193D01*
X0272781Y0231193D01*
X0274545Y0231924D01*
X0275895Y0233274D01*
X0276626Y0235038D01*
X0276626Y0236948D01*
X0275895Y0238712D01*
X0274545Y0240062D01*
X0272781Y0240793D01*
X0270871Y0240793D01*
X0269107Y0240062D01*
X0267757Y0238712D01*
X0267026Y0236948D01*
X0267026Y0235038D01*
X0267757Y0233274D01*
X0269107Y0231924D01*
X0267614Y0233620D02*
X0266039Y0233620D01*
X0266626Y0235218D02*
X0267026Y0235218D01*
X0267026Y0236817D02*
X0266626Y0236817D01*
X0266018Y0238415D02*
X0267634Y0238415D01*
X0269059Y0240014D02*
X0264594Y0240014D01*
X0259059Y0240014D02*
X0254594Y0240014D01*
X0254545Y0240062D02*
X0252781Y0240793D01*
X0250871Y0240793D01*
X0249107Y0240062D01*
X0247757Y0238712D01*
X0247026Y0236948D01*
X0247026Y0235038D01*
X0247757Y0233274D01*
X0249107Y0231924D01*
X0250871Y0231193D01*
X0252781Y0231193D01*
X0254545Y0231924D01*
X0255895Y0233274D01*
X0256626Y0235038D01*
X0256626Y0236948D01*
X0255895Y0238712D01*
X0254545Y0240062D01*
X0256018Y0238415D02*
X0257634Y0238415D01*
X0257026Y0236817D02*
X0256626Y0236817D01*
X0256626Y0235218D02*
X0257026Y0235218D01*
X0257614Y0233620D02*
X0256039Y0233620D01*
X0254643Y0232021D02*
X0259010Y0232021D01*
X0260290Y0230423D02*
X0253835Y0230423D01*
X0253017Y0230762D02*
X0254781Y0230031D01*
X0256132Y0228681D01*
X0256862Y0226916D01*
X0256862Y0225007D01*
X0256132Y0223243D01*
X0254781Y0221892D01*
X0253017Y0221162D01*
X0251108Y0221162D01*
X0249343Y0221892D01*
X0247993Y0223243D01*
X0247262Y0225007D01*
X0247262Y0226916D01*
X0247993Y0228681D01*
X0249343Y0230031D01*
X0251108Y0230762D01*
X0253017Y0230762D01*
X0250290Y0230423D02*
X0243835Y0230423D01*
X0243017Y0230762D02*
X0241108Y0230762D01*
X0239343Y0230031D01*
X0237993Y0228681D01*
X0237262Y0226916D01*
X0237262Y0225007D01*
X0237993Y0223243D01*
X0239343Y0221892D01*
X0241108Y0221162D01*
X0243017Y0221162D01*
X0244781Y0221892D01*
X0246132Y0223243D01*
X0246862Y0225007D01*
X0246862Y0226916D01*
X0246132Y0228681D01*
X0244781Y0230031D01*
X0243017Y0230762D01*
X0242781Y0231193D02*
X0244545Y0231924D01*
X0245895Y0233274D01*
X0246626Y0235038D01*
X0246626Y0236948D01*
X0245895Y0238712D01*
X0244545Y0240062D01*
X0242781Y0240793D01*
X0240871Y0240793D01*
X0239107Y0240062D01*
X0237757Y0238712D01*
X0237026Y0236948D01*
X0237026Y0235038D01*
X0237757Y0233274D01*
X0239107Y0231924D01*
X0240871Y0231193D01*
X0242781Y0231193D01*
X0244643Y0232021D02*
X0249010Y0232021D01*
X0247614Y0233620D02*
X0246039Y0233620D01*
X0246626Y0235218D02*
X0247026Y0235218D01*
X0247026Y0236817D02*
X0246626Y0236817D01*
X0246018Y0238415D02*
X0247634Y0238415D01*
X0249059Y0240014D02*
X0244594Y0240014D01*
X0239059Y0240014D02*
X0224594Y0240014D01*
X0224545Y0240062D02*
X0222781Y0240793D01*
X0220871Y0240793D01*
X0219107Y0240062D01*
X0217757Y0238712D01*
X0217026Y0236948D01*
X0217026Y0235038D01*
X0217757Y0233274D01*
X0219107Y0231924D01*
X0220871Y0231193D01*
X0222781Y0231193D01*
X0224545Y0231924D01*
X0225895Y0233274D01*
X0226626Y0235038D01*
X0226626Y0236948D01*
X0225895Y0238712D01*
X0224545Y0240062D01*
X0226018Y0238415D02*
X0237634Y0238415D01*
X0237026Y0236817D02*
X0226626Y0236817D01*
X0226626Y0235218D02*
X0237026Y0235218D01*
X0237614Y0233620D02*
X0226039Y0233620D01*
X0224643Y0232021D02*
X0239010Y0232021D01*
X0240290Y0230423D02*
X0223835Y0230423D01*
X0223017Y0230762D02*
X0221108Y0230762D01*
X0219343Y0230031D01*
X0217993Y0228681D01*
X0217262Y0226916D01*
X0217262Y0225007D01*
X0217312Y0224888D01*
X0216461Y0224037D01*
X0216862Y0225007D01*
X0216862Y0226916D01*
X0216132Y0228681D01*
X0214781Y0230031D01*
X0213017Y0230762D01*
X0211108Y0230762D01*
X0209343Y0230031D01*
X0207993Y0228681D01*
X0207262Y0226916D01*
X0207262Y0225007D01*
X0207894Y0223483D01*
X0206231Y0223483D01*
X0206862Y0225007D01*
X0206862Y0226916D01*
X0206132Y0228681D01*
X0204781Y0230031D01*
X0203017Y0230762D01*
X0201108Y0230762D01*
X0199343Y0230031D01*
X0197993Y0228681D01*
X0197262Y0226916D01*
X0197262Y0225007D01*
X0197894Y0223483D01*
X0196231Y0223483D01*
X0196862Y0225007D01*
X0196862Y0226916D01*
X0196132Y0228681D01*
X0194781Y0230031D01*
X0193017Y0230762D01*
X0191108Y0230762D01*
X0189343Y0230031D01*
X0187993Y0228681D01*
X0187262Y0226916D01*
X0187262Y0225075D01*
X0186628Y0224440D01*
X0186862Y0225007D01*
X0186862Y0226916D01*
X0186132Y0228681D01*
X0184781Y0230031D01*
X0183017Y0230762D01*
X0181108Y0230762D01*
X0179343Y0230031D01*
X0177993Y0228681D01*
X0177262Y0226916D01*
X0177262Y0225007D01*
X0177993Y0223243D01*
X0179343Y0221892D01*
X0181108Y0221162D01*
X0183017Y0221162D01*
X0183584Y0221396D01*
X0182718Y0220530D01*
X0158842Y0220530D01*
X0158321Y0221051D01*
X0156968Y0221611D01*
X0155503Y0221611D01*
X0154150Y0221051D01*
X0153286Y0220187D01*
X0152311Y0221162D01*
X0153017Y0221162D01*
X0154781Y0221892D01*
X0156132Y0223243D01*
X0156862Y0225007D01*
X0156862Y0226916D01*
X0156132Y0228681D01*
X0154781Y0230031D01*
X0153017Y0230762D01*
X0151108Y0230762D01*
X0149343Y0230031D01*
X0147993Y0228681D01*
X0147262Y0226916D01*
X0147262Y0225007D01*
X0147502Y0224428D01*
X0121486Y0224428D01*
X0107590Y0238323D01*
X0106635Y0238719D01*
X0100945Y0238719D01*
X0100895Y0238838D01*
X0099545Y0240188D01*
X0098755Y0240516D01*
X0098755Y0241992D01*
X0099466Y0242286D01*
X0100817Y0243636D01*
X0101547Y0245401D01*
X0101547Y0247310D01*
X0100817Y0249074D01*
X0099466Y0250425D01*
X0098755Y0250719D01*
X0098755Y0251880D01*
X0099545Y0252207D01*
X0100895Y0253558D01*
X0101626Y0255322D01*
X0101626Y0257231D01*
X0101577Y0257350D01*
X0106134Y0261907D01*
X0106865Y0262638D01*
X0107261Y0263594D01*
X0107261Y0271558D01*
X0106865Y0272513D01*
X0103324Y0276054D01*
X0103324Y0310740D01*
X0103509Y0310294D01*
X0104544Y0309258D01*
X0105897Y0308698D01*
X0107362Y0308698D01*
X0108715Y0309258D01*
X0109750Y0310294D01*
X0110310Y0311647D01*
X0110310Y0313111D01*
X0109750Y0314464D01*
X0108715Y0315500D01*
X0107362Y0316060D01*
X0105897Y0316060D01*
X0104544Y0315500D01*
X0103509Y0314464D01*
X0103324Y0314018D01*
X0103324Y0346173D01*
X0103509Y0345727D01*
X0104544Y0344691D01*
X0105897Y0344131D01*
X0107362Y0344131D01*
X0108715Y0344691D01*
X0109750Y0345727D01*
X0110310Y0347080D01*
X0110310Y0348544D01*
X0109750Y0349897D01*
X0108715Y0350933D01*
X0107362Y0351493D01*
X0105897Y0351493D01*
X0104544Y0350933D01*
X0103509Y0349897D01*
X0103324Y0349451D01*
X0103324Y0393088D01*
X0109385Y0393088D01*
X0109385Y0392461D01*
X0109864Y0391303D01*
X0110566Y0390601D01*
X0110566Y0294038D01*
X0109988Y0294616D01*
X0108831Y0295096D01*
X0107578Y0295096D01*
X0106420Y0294616D01*
X0105534Y0293730D01*
X0105054Y0292573D01*
X0105054Y0291319D01*
X0105534Y0290162D01*
X0106420Y0289275D01*
X0107578Y0288796D01*
X0108831Y0288796D01*
X0109988Y0289275D01*
X0110566Y0289853D01*
X0110566Y0241513D01*
X0195645Y0241513D01*
X0195645Y0240768D01*
X0196124Y0239610D01*
X0197010Y0238724D01*
X0197652Y0238459D01*
X0197026Y0236948D01*
X0197026Y0235038D01*
X0197757Y0233274D01*
X0199107Y0231924D01*
X0200871Y0231193D01*
X0202781Y0231193D01*
X0204545Y0231924D01*
X0205895Y0233274D01*
X0206626Y0235038D01*
X0206626Y0236948D01*
X0205895Y0238712D01*
X0204545Y0240062D01*
X0202781Y0240793D01*
X0201945Y0240793D01*
X0201945Y0241513D01*
X0295065Y0241513D01*
X0295396Y0240713D01*
X0296282Y0239827D01*
X0297440Y0239347D01*
X0298693Y0239347D01*
X0299851Y0239827D01*
X0300737Y0240713D01*
X0301068Y0241513D01*
X0301511Y0241513D01*
X0301511Y0385674D01*
X0301672Y0385607D01*
X0302925Y0385607D01*
X0304083Y0386087D01*
X0304969Y0386973D01*
X0305449Y0388130D01*
X0305449Y0389384D01*
X0304969Y0390541D01*
X0304083Y0391427D01*
X0302925Y0391907D01*
X0301672Y0391907D01*
X0301511Y0391840D01*
X0301511Y0420647D01*
X0311128Y0420647D01*
X0311128Y0219859D01*
X0219637Y0219859D01*
X0220989Y0221211D01*
X0221108Y0221162D01*
X0223017Y0221162D01*
X0224781Y0221892D01*
X0226132Y0223243D01*
X0226862Y0225007D01*
X0226862Y0226916D01*
X0226132Y0228681D01*
X0224781Y0230031D01*
X0223017Y0230762D01*
X0220290Y0230423D02*
X0213835Y0230423D01*
X0212781Y0231193D02*
X0214545Y0231924D01*
X0215895Y0233274D01*
X0216626Y0235038D01*
X0216626Y0236948D01*
X0215895Y0238712D01*
X0214545Y0240062D01*
X0212781Y0240793D01*
X0210871Y0240793D01*
X0209107Y0240062D01*
X0207757Y0238712D01*
X0207026Y0236948D01*
X0207026Y0235038D01*
X0207757Y0233274D01*
X0209107Y0231924D01*
X0210871Y0231193D01*
X0212781Y0231193D01*
X0214643Y0232021D02*
X0219010Y0232021D01*
X0217614Y0233620D02*
X0216039Y0233620D01*
X0216626Y0235218D02*
X0217026Y0235218D01*
X0217026Y0236817D02*
X0216626Y0236817D01*
X0216018Y0238415D02*
X0217634Y0238415D01*
X0219059Y0240014D02*
X0214594Y0240014D01*
X0209059Y0240014D02*
X0204594Y0240014D01*
X0206018Y0238415D02*
X0207634Y0238415D01*
X0207026Y0236817D02*
X0206626Y0236817D01*
X0206626Y0235218D02*
X0207026Y0235218D01*
X0207614Y0233620D02*
X0206039Y0233620D01*
X0204643Y0232021D02*
X0209010Y0232021D01*
X0210290Y0230423D02*
X0203835Y0230423D01*
X0205988Y0228824D02*
X0208137Y0228824D01*
X0207391Y0227226D02*
X0206734Y0227226D01*
X0206862Y0225627D02*
X0207262Y0225627D01*
X0207668Y0224029D02*
X0206457Y0224029D01*
X0200290Y0230423D02*
X0193835Y0230423D01*
X0192781Y0231193D02*
X0194545Y0231924D01*
X0195895Y0233274D01*
X0196626Y0235038D01*
X0196626Y0236948D01*
X0195895Y0238712D01*
X0194545Y0240062D01*
X0192781Y0240793D01*
X0190871Y0240793D01*
X0189107Y0240062D01*
X0187757Y0238712D01*
X0187026Y0236948D01*
X0187026Y0235038D01*
X0187757Y0233274D01*
X0189107Y0231924D01*
X0190871Y0231193D01*
X0192781Y0231193D01*
X0194643Y0232021D02*
X0199010Y0232021D01*
X0197614Y0233620D02*
X0196039Y0233620D01*
X0196626Y0235218D02*
X0197026Y0235218D01*
X0197026Y0236817D02*
X0196626Y0236817D01*
X0196018Y0238415D02*
X0197634Y0238415D01*
X0195957Y0240014D02*
X0194594Y0240014D01*
X0189059Y0240014D02*
X0184594Y0240014D01*
X0184545Y0240062D02*
X0182781Y0240793D01*
X0180871Y0240793D01*
X0179107Y0240062D01*
X0177757Y0238712D01*
X0177026Y0236948D01*
X0177026Y0235038D01*
X0177757Y0233274D01*
X0179107Y0231924D01*
X0180871Y0231193D01*
X0182781Y0231193D01*
X0184545Y0231924D01*
X0185895Y0233274D01*
X0186626Y0235038D01*
X0186626Y0236948D01*
X0185895Y0238712D01*
X0184545Y0240062D01*
X0186018Y0238415D02*
X0187634Y0238415D01*
X0187026Y0236817D02*
X0186626Y0236817D01*
X0186626Y0235218D02*
X0187026Y0235218D01*
X0187614Y0233620D02*
X0186039Y0233620D01*
X0184643Y0232021D02*
X0189010Y0232021D01*
X0190290Y0230423D02*
X0183835Y0230423D01*
X0185988Y0228824D02*
X0188137Y0228824D01*
X0187391Y0227226D02*
X0186734Y0227226D01*
X0186862Y0225627D02*
X0187262Y0225627D01*
X0191826Y0225962D02*
X0186747Y0220883D01*
X0183795Y0217930D01*
X0156236Y0217930D01*
X0158540Y0220832D02*
X0183019Y0220832D01*
X0186747Y0220883D02*
X0216984Y0220883D01*
X0222062Y0225962D01*
X0226457Y0224029D02*
X0237668Y0224029D01*
X0237262Y0225627D02*
X0226862Y0225627D01*
X0226734Y0227226D02*
X0237391Y0227226D01*
X0238137Y0228824D02*
X0225988Y0228824D01*
X0225319Y0222430D02*
X0238806Y0222430D01*
X0245319Y0222430D02*
X0248806Y0222430D01*
X0247668Y0224029D02*
X0246457Y0224029D01*
X0246862Y0225627D02*
X0247262Y0225627D01*
X0247391Y0227226D02*
X0246734Y0227226D01*
X0245988Y0228824D02*
X0248137Y0228824D01*
X0255988Y0228824D02*
X0258137Y0228824D01*
X0257391Y0227226D02*
X0256734Y0227226D01*
X0256862Y0225627D02*
X0257262Y0225627D01*
X0257668Y0224029D02*
X0256457Y0224029D01*
X0255319Y0222430D02*
X0258806Y0222430D01*
X0275319Y0222430D02*
X0278806Y0222430D01*
X0279343Y0221892D02*
X0277993Y0223243D01*
X0277262Y0225007D01*
X0277262Y0226916D01*
X0277993Y0228681D01*
X0279343Y0230031D01*
X0281108Y0230762D01*
X0283017Y0230762D01*
X0284781Y0230031D01*
X0286132Y0228681D01*
X0286862Y0226916D01*
X0286862Y0225007D01*
X0286132Y0223243D01*
X0284781Y0221892D01*
X0283017Y0221162D01*
X0281108Y0221162D01*
X0279343Y0221892D01*
X0277668Y0224029D02*
X0276457Y0224029D01*
X0276862Y0225627D02*
X0277262Y0225627D01*
X0277391Y0227226D02*
X0276734Y0227226D01*
X0275988Y0228824D02*
X0278137Y0228824D01*
X0280290Y0230423D02*
X0273835Y0230423D01*
X0274643Y0232021D02*
X0279010Y0232021D01*
X0279107Y0231924D02*
X0280871Y0231193D01*
X0282781Y0231193D01*
X0284545Y0231924D01*
X0285895Y0233274D01*
X0286626Y0235038D01*
X0286626Y0236948D01*
X0285895Y0238712D01*
X0284545Y0240062D01*
X0282781Y0240793D01*
X0280871Y0240793D01*
X0279107Y0240062D01*
X0277757Y0238712D01*
X0277026Y0236948D01*
X0277026Y0235038D01*
X0277757Y0233274D01*
X0279107Y0231924D01*
X0277614Y0233620D02*
X0276039Y0233620D01*
X0276626Y0235218D02*
X0277026Y0235218D01*
X0277026Y0236817D02*
X0276626Y0236817D01*
X0276018Y0238415D02*
X0277634Y0238415D01*
X0279059Y0240014D02*
X0274594Y0240014D01*
X0284594Y0240014D02*
X0289059Y0240014D01*
X0289107Y0240062D02*
X0287757Y0238712D01*
X0287026Y0236948D01*
X0287026Y0235038D01*
X0287757Y0233274D01*
X0289107Y0231924D01*
X0290871Y0231193D01*
X0292781Y0231193D01*
X0294545Y0231924D01*
X0295895Y0233274D01*
X0296626Y0235038D01*
X0296626Y0236948D01*
X0295895Y0238712D01*
X0294545Y0240062D01*
X0292781Y0240793D01*
X0290871Y0240793D01*
X0289107Y0240062D01*
X0287634Y0238415D02*
X0286018Y0238415D01*
X0286626Y0236817D02*
X0287026Y0236817D01*
X0287026Y0235218D02*
X0286626Y0235218D01*
X0286039Y0233620D02*
X0287614Y0233620D01*
X0289010Y0232021D02*
X0284643Y0232021D01*
X0283835Y0230423D02*
X0290290Y0230423D01*
X0291108Y0230762D02*
X0289343Y0230031D01*
X0287993Y0228681D01*
X0287262Y0226916D01*
X0287262Y0225007D01*
X0287993Y0223243D01*
X0289343Y0221892D01*
X0291108Y0221162D01*
X0293017Y0221162D01*
X0294781Y0221892D01*
X0296132Y0223243D01*
X0296862Y0225007D01*
X0296862Y0226916D01*
X0296132Y0228681D01*
X0294781Y0230031D01*
X0293017Y0230762D01*
X0291108Y0230762D01*
X0293835Y0230423D02*
X0311128Y0230423D01*
X0311128Y0232021D02*
X0294643Y0232021D01*
X0296039Y0233620D02*
X0311128Y0233620D01*
X0311128Y0235218D02*
X0296626Y0235218D01*
X0296626Y0236817D02*
X0311128Y0236817D01*
X0311128Y0238415D02*
X0296018Y0238415D01*
X0296095Y0240014D02*
X0294594Y0240014D01*
X0300038Y0240014D02*
X0311128Y0240014D01*
X0311128Y0241612D02*
X0301511Y0241612D01*
X0301511Y0243211D02*
X0311128Y0243211D01*
X0311128Y0244810D02*
X0301511Y0244810D01*
X0301511Y0246408D02*
X0311128Y0246408D01*
X0311128Y0248007D02*
X0301511Y0248007D01*
X0301511Y0249605D02*
X0311128Y0249605D01*
X0311128Y0251204D02*
X0301511Y0251204D01*
X0301511Y0252802D02*
X0311128Y0252802D01*
X0311128Y0254401D02*
X0301511Y0254401D01*
X0301511Y0255999D02*
X0311128Y0255999D01*
X0311128Y0257598D02*
X0301511Y0257598D01*
X0301511Y0259196D02*
X0311128Y0259196D01*
X0311128Y0260795D02*
X0301511Y0260795D01*
X0301511Y0262393D02*
X0311128Y0262393D01*
X0311128Y0263992D02*
X0301511Y0263992D01*
X0301511Y0265590D02*
X0311128Y0265590D01*
X0311128Y0267189D02*
X0301511Y0267189D01*
X0301511Y0268787D02*
X0311128Y0268787D01*
X0311128Y0270386D02*
X0301511Y0270386D01*
X0301511Y0271984D02*
X0311128Y0271984D01*
X0311128Y0273583D02*
X0301511Y0273583D01*
X0301511Y0275181D02*
X0311128Y0275181D01*
X0311128Y0276780D02*
X0301511Y0276780D01*
X0301511Y0278378D02*
X0311128Y0278378D01*
X0311128Y0279977D02*
X0301511Y0279977D01*
X0301511Y0281575D02*
X0311128Y0281575D01*
X0311128Y0283174D02*
X0301511Y0283174D01*
X0301511Y0284772D02*
X0311128Y0284772D01*
X0311128Y0286371D02*
X0301511Y0286371D01*
X0301511Y0287969D02*
X0311128Y0287969D01*
X0311128Y0289568D02*
X0301511Y0289568D01*
X0301511Y0291166D02*
X0311128Y0291166D01*
X0311128Y0292765D02*
X0301511Y0292765D01*
X0301511Y0294363D02*
X0311128Y0294363D01*
X0311128Y0295962D02*
X0301511Y0295962D01*
X0301511Y0297560D02*
X0311128Y0297560D01*
X0311128Y0299159D02*
X0301511Y0299159D01*
X0301511Y0300757D02*
X0311128Y0300757D01*
X0311128Y0302356D02*
X0301511Y0302356D01*
X0301511Y0303954D02*
X0311128Y0303954D01*
X0311128Y0305553D02*
X0301511Y0305553D01*
X0301511Y0307151D02*
X0311128Y0307151D01*
X0311128Y0308750D02*
X0301511Y0308750D01*
X0301511Y0310348D02*
X0311128Y0310348D01*
X0311128Y0311947D02*
X0301511Y0311947D01*
X0301511Y0313545D02*
X0311128Y0313545D01*
X0311128Y0315144D02*
X0301511Y0315144D01*
X0301511Y0316743D02*
X0311128Y0316743D01*
X0311128Y0318341D02*
X0301511Y0318341D01*
X0301511Y0319940D02*
X0311128Y0319940D01*
X0311128Y0321538D02*
X0301511Y0321538D01*
X0301511Y0323137D02*
X0311128Y0323137D01*
X0311128Y0324735D02*
X0301511Y0324735D01*
X0301511Y0326334D02*
X0311128Y0326334D01*
X0311128Y0327932D02*
X0301511Y0327932D01*
X0301511Y0329531D02*
X0311128Y0329531D01*
X0311128Y0331129D02*
X0301511Y0331129D01*
X0301511Y0332728D02*
X0311128Y0332728D01*
X0311128Y0334326D02*
X0301511Y0334326D01*
X0301511Y0335925D02*
X0311128Y0335925D01*
X0311128Y0337523D02*
X0301511Y0337523D01*
X0301511Y0339122D02*
X0311128Y0339122D01*
X0311128Y0340720D02*
X0301511Y0340720D01*
X0301511Y0342319D02*
X0311128Y0342319D01*
X0311128Y0343917D02*
X0301511Y0343917D01*
X0301511Y0345516D02*
X0311128Y0345516D01*
X0311128Y0347114D02*
X0301511Y0347114D01*
X0301511Y0348713D02*
X0311128Y0348713D01*
X0311128Y0350311D02*
X0301511Y0350311D01*
X0301511Y0351910D02*
X0311128Y0351910D01*
X0311128Y0353508D02*
X0301511Y0353508D01*
X0301511Y0355107D02*
X0311128Y0355107D01*
X0311128Y0356705D02*
X0301511Y0356705D01*
X0301511Y0358304D02*
X0311128Y0358304D01*
X0311128Y0359902D02*
X0301511Y0359902D01*
X0301511Y0361501D02*
X0311128Y0361501D01*
X0311128Y0363099D02*
X0301511Y0363099D01*
X0301511Y0364698D02*
X0311128Y0364698D01*
X0311128Y0366296D02*
X0301511Y0366296D01*
X0301511Y0367895D02*
X0311128Y0367895D01*
X0311128Y0369493D02*
X0301511Y0369493D01*
X0301511Y0371092D02*
X0311128Y0371092D01*
X0311128Y0372690D02*
X0301511Y0372690D01*
X0301511Y0374289D02*
X0311128Y0374289D01*
X0311128Y0375887D02*
X0301511Y0375887D01*
X0301511Y0377486D02*
X0311128Y0377486D01*
X0311128Y0379084D02*
X0301511Y0379084D01*
X0301511Y0380683D02*
X0311128Y0380683D01*
X0311128Y0382281D02*
X0301511Y0382281D01*
X0301511Y0383880D02*
X0311128Y0383880D01*
X0311128Y0385479D02*
X0301511Y0385479D01*
X0305012Y0387077D02*
X0311128Y0387077D01*
X0311128Y0388676D02*
X0305449Y0388676D01*
X0305080Y0390274D02*
X0311128Y0390274D01*
X0311128Y0391873D02*
X0303008Y0391873D01*
X0301589Y0391873D02*
X0301511Y0391873D01*
X0301511Y0393471D02*
X0311128Y0393471D01*
X0311128Y0395070D02*
X0301511Y0395070D01*
X0301511Y0396668D02*
X0303319Y0396668D01*
X0303664Y0396323D02*
X0304822Y0395843D01*
X0306075Y0395843D01*
X0307233Y0396323D01*
X0308119Y0397209D01*
X0308598Y0398367D01*
X0308598Y0399620D01*
X0308119Y0400777D01*
X0307233Y0401664D01*
X0306075Y0402143D01*
X0304822Y0402143D01*
X0303664Y0401664D01*
X0302778Y0400777D01*
X0302298Y0399620D01*
X0302298Y0398367D01*
X0302778Y0397209D01*
X0303664Y0396323D01*
X0302340Y0398267D02*
X0301511Y0398267D01*
X0301511Y0399865D02*
X0302400Y0399865D01*
X0301511Y0401464D02*
X0303464Y0401464D01*
X0301511Y0403062D02*
X0311128Y0403062D01*
X0311128Y0401464D02*
X0307433Y0401464D01*
X0308497Y0399865D02*
X0311128Y0399865D01*
X0311128Y0398267D02*
X0308557Y0398267D01*
X0307578Y0396668D02*
X0311128Y0396668D01*
X0311128Y0404661D02*
X0301511Y0404661D01*
X0301511Y0406259D02*
X0311128Y0406259D01*
X0311128Y0407858D02*
X0301511Y0407858D01*
X0301511Y0409456D02*
X0311128Y0409456D01*
X0311128Y0411055D02*
X0301511Y0411055D01*
X0301511Y0412653D02*
X0311128Y0412653D01*
X0311128Y0414252D02*
X0301511Y0414252D01*
X0301511Y0415850D02*
X0311128Y0415850D01*
X0311128Y0417449D02*
X0301511Y0417449D01*
X0301511Y0419047D02*
X0311128Y0419047D01*
X0311128Y0420646D02*
X0301511Y0420646D01*
X0301905Y0460056D02*
X0276314Y0460056D01*
X0274346Y0458088D01*
X0270409Y0438403D02*
X0236944Y0438403D01*
X0231039Y0444308D01*
X0231039Y0452182D01*
X0236551Y0428521D02*
X0232614Y0424584D01*
X0108598Y0424584D01*
X0100724Y0416710D01*
X0100724Y0274977D01*
X0104661Y0271040D01*
X0104661Y0264111D01*
X0096826Y0256277D01*
X0092408Y0254401D02*
X0091257Y0254401D01*
X0091275Y0254434D02*
X0091508Y0255153D01*
X0091626Y0255899D01*
X0091626Y0256077D01*
X0087026Y0256077D01*
X0087026Y0256477D01*
X0086626Y0256477D01*
X0086626Y0261077D01*
X0086448Y0261077D01*
X0085702Y0260958D01*
X0084984Y0260725D01*
X0084310Y0260382D01*
X0083699Y0259938D01*
X0083165Y0259404D01*
X0082721Y0258792D01*
X0082378Y0258119D01*
X0082144Y0257401D01*
X0082026Y0256654D01*
X0082026Y0256477D01*
X0086626Y0256477D01*
X0086626Y0256077D01*
X0082026Y0256077D01*
X0082026Y0255899D01*
X0082144Y0255153D01*
X0082378Y0254434D01*
X0082721Y0253761D01*
X0083165Y0253150D01*
X0083699Y0252615D01*
X0084310Y0252171D01*
X0084984Y0251828D01*
X0085702Y0251595D01*
X0086448Y0251477D01*
X0086626Y0251477D01*
X0086626Y0256077D01*
X0087026Y0256077D01*
X0087026Y0251477D01*
X0087204Y0251477D01*
X0087950Y0251595D01*
X0088669Y0251828D01*
X0089342Y0252171D01*
X0089953Y0252615D01*
X0090487Y0253150D01*
X0090932Y0253761D01*
X0091275Y0254434D01*
X0092026Y0255322D02*
X0092757Y0253558D01*
X0094107Y0252207D01*
X0094228Y0252157D01*
X0094228Y0250507D01*
X0094028Y0250425D01*
X0092678Y0249074D01*
X0091947Y0247310D01*
X0091947Y0245401D01*
X0092678Y0243636D01*
X0094028Y0242286D01*
X0094228Y0242204D01*
X0094228Y0240238D01*
X0094107Y0240188D01*
X0092757Y0238838D01*
X0092026Y0237074D01*
X0092026Y0235164D01*
X0092757Y0233400D01*
X0094107Y0232050D01*
X0094228Y0232000D01*
X0094228Y0230553D01*
X0094107Y0230503D01*
X0092757Y0229153D01*
X0092026Y0227389D01*
X0092026Y0225479D01*
X0092757Y0223715D01*
X0094107Y0222365D01*
X0094226Y0222316D01*
X0094226Y0220529D01*
X0074228Y0220529D01*
X0074228Y0330529D01*
X0094187Y0330529D01*
X0094187Y0270458D01*
X0094107Y0270425D01*
X0092757Y0269074D01*
X0092026Y0267310D01*
X0092026Y0265401D01*
X0092757Y0263636D01*
X0094107Y0262286D01*
X0094228Y0262236D01*
X0094228Y0260396D01*
X0094107Y0260346D01*
X0092757Y0258996D01*
X0092026Y0257231D01*
X0092026Y0255322D01*
X0092026Y0255999D02*
X0091626Y0255999D01*
X0091626Y0256477D02*
X0091626Y0256654D01*
X0091508Y0257401D01*
X0091275Y0258119D01*
X0090932Y0258792D01*
X0090487Y0259404D01*
X0089953Y0259938D01*
X0089342Y0260382D01*
X0088669Y0260725D01*
X0087950Y0260958D01*
X0087204Y0261077D01*
X0087026Y0261077D01*
X0087026Y0256477D01*
X0091626Y0256477D01*
X0091444Y0257598D02*
X0092178Y0257598D01*
X0092957Y0259196D02*
X0090638Y0259196D01*
X0088454Y0260795D02*
X0094228Y0260795D01*
X0094000Y0262393D02*
X0089539Y0262393D01*
X0089342Y0262250D02*
X0089953Y0262694D01*
X0090487Y0263228D01*
X0090932Y0263840D01*
X0091275Y0264513D01*
X0091508Y0265231D01*
X0091626Y0265978D01*
X0091626Y0266155D01*
X0087026Y0266155D01*
X0087026Y0261555D01*
X0087204Y0261555D01*
X0087950Y0261674D01*
X0088669Y0261907D01*
X0089342Y0262250D01*
X0087026Y0262393D02*
X0086626Y0262393D01*
X0086626Y0261555D02*
X0086626Y0266155D01*
X0087026Y0266155D01*
X0087026Y0266555D01*
X0091626Y0266555D01*
X0091626Y0266733D01*
X0091508Y0267479D01*
X0091275Y0268198D01*
X0090932Y0268871D01*
X0090487Y0269482D01*
X0089953Y0270017D01*
X0089342Y0270461D01*
X0088669Y0270804D01*
X0087950Y0271037D01*
X0087204Y0271155D01*
X0087026Y0271155D01*
X0087026Y0266555D01*
X0086626Y0266555D01*
X0086626Y0266155D01*
X0082026Y0266155D01*
X0082026Y0265978D01*
X0082144Y0265231D01*
X0082378Y0264513D01*
X0082721Y0263840D01*
X0083165Y0263228D01*
X0083699Y0262694D01*
X0084310Y0262250D01*
X0084984Y0261907D01*
X0085702Y0261674D01*
X0086448Y0261555D01*
X0086626Y0261555D01*
X0086626Y0260795D02*
X0087026Y0260795D01*
X0087026Y0259196D02*
X0086626Y0259196D01*
X0086626Y0257598D02*
X0087026Y0257598D01*
X0087026Y0255999D02*
X0086626Y0255999D01*
X0086626Y0254401D02*
X0087026Y0254401D01*
X0087026Y0252802D02*
X0086626Y0252802D01*
X0086547Y0251155D02*
X0086370Y0251155D01*
X0085623Y0251037D01*
X0084905Y0250804D01*
X0084232Y0250461D01*
X0083620Y0250017D01*
X0083086Y0249482D01*
X0082642Y0248871D01*
X0082299Y0248198D01*
X0082066Y0247479D01*
X0081947Y0246733D01*
X0081947Y0246555D01*
X0086547Y0246555D01*
X0086547Y0246155D01*
X0081947Y0246155D01*
X0081947Y0245978D01*
X0082066Y0245231D01*
X0082299Y0244513D01*
X0082642Y0243840D01*
X0083086Y0243228D01*
X0083620Y0242694D01*
X0084232Y0242250D01*
X0084905Y0241907D01*
X0085623Y0241674D01*
X0086370Y0241555D01*
X0086547Y0241555D01*
X0086547Y0246155D01*
X0086947Y0246155D01*
X0086947Y0241555D01*
X0087125Y0241555D01*
X0087871Y0241674D01*
X0088590Y0241907D01*
X0089263Y0242250D01*
X0089874Y0242694D01*
X0090409Y0243228D01*
X0090853Y0243840D01*
X0091196Y0244513D01*
X0091429Y0245231D01*
X0091547Y0245978D01*
X0091547Y0246155D01*
X0086948Y0246155D01*
X0086948Y0246555D01*
X0091547Y0246555D01*
X0091547Y0246733D01*
X0091429Y0247479D01*
X0091196Y0248198D01*
X0090853Y0248871D01*
X0090409Y0249482D01*
X0089874Y0250017D01*
X0089263Y0250461D01*
X0088590Y0250804D01*
X0087871Y0251037D01*
X0087125Y0251155D01*
X0086947Y0251155D01*
X0086947Y0246555D01*
X0086547Y0246555D01*
X0086547Y0251155D01*
X0086547Y0249605D02*
X0086947Y0249605D01*
X0086947Y0248007D02*
X0086547Y0248007D01*
X0086547Y0246408D02*
X0074228Y0246408D01*
X0074228Y0244810D02*
X0082203Y0244810D01*
X0083104Y0243211D02*
X0074228Y0243211D01*
X0074228Y0241612D02*
X0086009Y0241612D01*
X0086547Y0241612D02*
X0086947Y0241612D01*
X0087486Y0241612D02*
X0094228Y0241612D01*
X0093933Y0240014D02*
X0089632Y0240014D01*
X0089342Y0240224D02*
X0088669Y0240567D01*
X0087950Y0240801D01*
X0087204Y0240919D01*
X0087026Y0240919D01*
X0087026Y0236319D01*
X0086626Y0236319D01*
X0086626Y0235919D01*
X0082026Y0235919D01*
X0082026Y0235741D01*
X0082144Y0234995D01*
X0082378Y0234277D01*
X0082721Y0233603D01*
X0083165Y0232992D01*
X0083699Y0232458D01*
X0084310Y0232014D01*
X0084984Y0231671D01*
X0085702Y0231437D01*
X0086448Y0231319D01*
X0086626Y0231319D01*
X0086626Y0235919D01*
X0087026Y0235919D01*
X0087026Y0231319D01*
X0087204Y0231319D01*
X0087950Y0231437D01*
X0088669Y0231671D01*
X0089342Y0232014D01*
X0089953Y0232458D01*
X0090487Y0232992D01*
X0090932Y0233603D01*
X0091275Y0234277D01*
X0091508Y0234995D01*
X0091626Y0235741D01*
X0091626Y0235919D01*
X0087026Y0235919D01*
X0087026Y0236319D01*
X0091626Y0236319D01*
X0091626Y0236497D01*
X0091508Y0237243D01*
X0091275Y0237962D01*
X0090932Y0238635D01*
X0090487Y0239246D01*
X0089953Y0239780D01*
X0089342Y0240224D01*
X0087026Y0240014D02*
X0086626Y0240014D01*
X0086626Y0240919D02*
X0086448Y0240919D01*
X0085702Y0240801D01*
X0084984Y0240567D01*
X0084310Y0240224D01*
X0083699Y0239780D01*
X0083165Y0239246D01*
X0082721Y0238635D01*
X0082378Y0237962D01*
X0082144Y0237243D01*
X0082026Y0236497D01*
X0082026Y0236319D01*
X0086626Y0236319D01*
X0086626Y0240919D01*
X0086547Y0243211D02*
X0086947Y0243211D01*
X0086947Y0244810D02*
X0086547Y0244810D01*
X0086948Y0246408D02*
X0091947Y0246408D01*
X0092192Y0244810D02*
X0091292Y0244810D01*
X0090391Y0243211D02*
X0093104Y0243211D01*
X0092582Y0238415D02*
X0091043Y0238415D01*
X0091575Y0236817D02*
X0092026Y0236817D01*
X0092026Y0235218D02*
X0091543Y0235218D01*
X0090940Y0233620D02*
X0092666Y0233620D01*
X0094176Y0232021D02*
X0089352Y0232021D01*
X0088669Y0230882D02*
X0087950Y0231116D01*
X0087204Y0231234D01*
X0087026Y0231234D01*
X0087026Y0226634D01*
X0086626Y0226634D01*
X0086626Y0226234D01*
X0082026Y0226234D01*
X0082026Y0226056D01*
X0082144Y0225310D01*
X0082378Y0224592D01*
X0082721Y0223918D01*
X0083165Y0223307D01*
X0083699Y0222773D01*
X0084310Y0222329D01*
X0084984Y0221986D01*
X0085702Y0221752D01*
X0086448Y0221634D01*
X0086626Y0221634D01*
X0086626Y0226234D01*
X0087026Y0226234D01*
X0087026Y0221634D01*
X0087204Y0221634D01*
X0087950Y0221752D01*
X0088669Y0221986D01*
X0089342Y0222329D01*
X0089953Y0222773D01*
X0090487Y0223307D01*
X0090932Y0223918D01*
X0091275Y0224592D01*
X0091508Y0225310D01*
X0091626Y0226056D01*
X0091626Y0226234D01*
X0087026Y0226234D01*
X0087026Y0226634D01*
X0091626Y0226634D01*
X0091626Y0226812D01*
X0091508Y0227558D01*
X0091275Y0228277D01*
X0090932Y0228950D01*
X0090487Y0229561D01*
X0089953Y0230095D01*
X0089342Y0230539D01*
X0088669Y0230882D01*
X0089502Y0230423D02*
X0094027Y0230423D01*
X0092621Y0228824D02*
X0090995Y0228824D01*
X0091561Y0227226D02*
X0092026Y0227226D01*
X0092026Y0225627D02*
X0091558Y0225627D01*
X0090988Y0224029D02*
X0092627Y0224029D01*
X0094042Y0222430D02*
X0089482Y0222430D01*
X0087026Y0222430D02*
X0086626Y0222430D01*
X0086626Y0224029D02*
X0087026Y0224029D01*
X0087026Y0225627D02*
X0086626Y0225627D01*
X0086626Y0226634D02*
X0082026Y0226634D01*
X0082026Y0226812D01*
X0082144Y0227558D01*
X0082378Y0228277D01*
X0082721Y0228950D01*
X0083165Y0229561D01*
X0083699Y0230095D01*
X0084310Y0230539D01*
X0084984Y0230882D01*
X0085702Y0231116D01*
X0086448Y0231234D01*
X0086626Y0231234D01*
X0086626Y0226634D01*
X0086626Y0227226D02*
X0087026Y0227226D01*
X0087026Y0228824D02*
X0086626Y0228824D01*
X0086626Y0230423D02*
X0087026Y0230423D01*
X0087026Y0232021D02*
X0086626Y0232021D01*
X0086626Y0233620D02*
X0087026Y0233620D01*
X0087026Y0235218D02*
X0086626Y0235218D01*
X0086626Y0236817D02*
X0087026Y0236817D01*
X0087026Y0238415D02*
X0086626Y0238415D01*
X0084021Y0240014D02*
X0074228Y0240014D01*
X0074228Y0238415D02*
X0082609Y0238415D01*
X0082077Y0236817D02*
X0074228Y0236817D01*
X0074228Y0235218D02*
X0082109Y0235218D01*
X0082712Y0233620D02*
X0074228Y0233620D01*
X0074228Y0232021D02*
X0084300Y0232021D01*
X0084150Y0230423D02*
X0074228Y0230423D01*
X0074228Y0228824D02*
X0082657Y0228824D01*
X0082092Y0227226D02*
X0074228Y0227226D01*
X0074228Y0225627D02*
X0082094Y0225627D01*
X0082665Y0224029D02*
X0074228Y0224029D01*
X0074228Y0222430D02*
X0084171Y0222430D01*
X0086847Y0212839D02*
X0073677Y0212839D01*
X0073677Y0211241D02*
X0086157Y0211241D01*
X0086395Y0209642D02*
X0073677Y0209642D01*
X0073677Y0208044D02*
X0087834Y0208044D01*
X0096787Y0206080D02*
X0096826Y0206119D01*
X0096826Y0226434D01*
X0094226Y0220832D02*
X0074228Y0220832D01*
X0073677Y0206445D02*
X0110414Y0206445D01*
X0109430Y0204847D02*
X0073677Y0204847D01*
X0073677Y0203248D02*
X0109483Y0203248D01*
X0110542Y0201650D02*
X0073677Y0201650D01*
X0073677Y0200051D02*
X0116185Y0200051D01*
X0115684Y0198453D02*
X0073677Y0198453D01*
X0073677Y0196854D02*
X0116001Y0196854D01*
X0117820Y0195256D02*
X0073677Y0195256D01*
X0073677Y0184066D02*
X0130502Y0184066D01*
X0128310Y0182468D02*
X0073677Y0182468D01*
X0073677Y0180869D02*
X0127190Y0180869D01*
X0126527Y0179271D02*
X0073677Y0179271D01*
X0073677Y0177672D02*
X0126465Y0177672D01*
X0126578Y0176074D02*
X0073677Y0176074D01*
X0073677Y0174475D02*
X0127240Y0174475D01*
X0128433Y0172877D02*
X0073677Y0172877D01*
X0073677Y0171278D02*
X0129807Y0171278D01*
X0128022Y0169679D02*
X0073677Y0169679D01*
X0073677Y0168081D02*
X0127070Y0168081D01*
X0126465Y0166482D02*
X0073677Y0166482D01*
X0073677Y0164884D02*
X0126465Y0164884D01*
X0126698Y0163285D02*
X0073677Y0163285D01*
X0073677Y0161687D02*
X0127360Y0161687D01*
X0128721Y0160088D02*
X0073677Y0160088D01*
X0073677Y0158490D02*
X0131494Y0158490D01*
X0135190Y0156891D02*
X0073677Y0156891D01*
X0111389Y0187263D02*
X0129480Y0187263D01*
X0127881Y0188862D02*
X0113367Y0188862D01*
X0113716Y0190460D02*
X0127012Y0190460D01*
X0126465Y0192059D02*
X0113261Y0192059D01*
X0120409Y0221828D02*
X0147968Y0221828D01*
X0151905Y0217891D01*
X0151905Y0215922D01*
X0153873Y0213954D01*
X0159779Y0213954D01*
X0161747Y0211985D01*
X0226171Y0211985D01*
X0220610Y0220832D02*
X0311128Y0220832D01*
X0311128Y0222430D02*
X0295319Y0222430D01*
X0296457Y0224029D02*
X0311128Y0224029D01*
X0311128Y0225627D02*
X0296862Y0225627D01*
X0296734Y0227226D02*
X0311128Y0227226D01*
X0311128Y0228824D02*
X0295988Y0228824D01*
X0288137Y0228824D02*
X0285988Y0228824D01*
X0286734Y0227226D02*
X0287391Y0227226D01*
X0287262Y0225627D02*
X0286862Y0225627D01*
X0286457Y0224029D02*
X0287668Y0224029D01*
X0288806Y0222430D02*
X0285319Y0222430D01*
X0218137Y0228824D02*
X0215988Y0228824D01*
X0216734Y0227226D02*
X0217391Y0227226D01*
X0217262Y0225627D02*
X0216862Y0225627D01*
X0209878Y0208044D02*
X0176482Y0208044D01*
X0176623Y0207903D02*
X0175737Y0208790D01*
X0174579Y0209269D01*
X0173326Y0209269D01*
X0172168Y0208790D01*
X0171282Y0207903D01*
X0170802Y0206746D01*
X0170802Y0205730D01*
X0170717Y0205935D01*
X0169831Y0206821D01*
X0168673Y0207301D01*
X0167420Y0207301D01*
X0166262Y0206821D01*
X0165376Y0205935D01*
X0164897Y0204777D01*
X0164897Y0203524D01*
X0165376Y0202366D01*
X0166262Y0201480D01*
X0167420Y0201001D01*
X0168673Y0201001D01*
X0169831Y0201480D01*
X0170717Y0202366D01*
X0171197Y0203524D01*
X0171197Y0204540D01*
X0171282Y0204335D01*
X0172168Y0203449D01*
X0173326Y0202969D01*
X0174579Y0202969D01*
X0175737Y0203449D01*
X0176623Y0204335D01*
X0177102Y0205493D01*
X0177102Y0206746D01*
X0176623Y0207903D01*
X0177102Y0206445D02*
X0209560Y0206445D01*
X0210056Y0204847D02*
X0176835Y0204847D01*
X0175252Y0203248D02*
X0209977Y0203248D01*
X0209779Y0201650D02*
X0170000Y0201650D01*
X0171082Y0203248D02*
X0172652Y0203248D01*
X0170802Y0206445D02*
X0170207Y0206445D01*
X0171422Y0208044D02*
X0160005Y0208044D01*
X0160415Y0206445D02*
X0165886Y0206445D01*
X0164925Y0204847D02*
X0160415Y0204847D01*
X0159988Y0203248D02*
X0165011Y0203248D01*
X0166093Y0201650D02*
X0159288Y0201650D01*
X0157689Y0200051D02*
X0161107Y0200051D01*
X0160566Y0198453D02*
X0158018Y0198453D01*
X0159463Y0196854D02*
X0160866Y0196854D01*
X0166325Y0200051D02*
X0210565Y0200051D01*
X0197668Y0224029D02*
X0196457Y0224029D01*
X0196862Y0225627D02*
X0197262Y0225627D01*
X0197391Y0227226D02*
X0196734Y0227226D01*
X0195988Y0228824D02*
X0198137Y0228824D01*
X0192062Y0225962D02*
X0191826Y0225962D01*
X0180290Y0230423D02*
X0173835Y0230423D01*
X0173017Y0230762D02*
X0171108Y0230762D01*
X0169343Y0230031D01*
X0167993Y0228681D01*
X0167262Y0226916D01*
X0167262Y0225007D01*
X0167993Y0223243D01*
X0169343Y0221892D01*
X0171108Y0221162D01*
X0173017Y0221162D01*
X0174781Y0221892D01*
X0176132Y0223243D01*
X0176862Y0225007D01*
X0176862Y0226916D01*
X0176132Y0228681D01*
X0174781Y0230031D01*
X0173017Y0230762D01*
X0172781Y0231193D02*
X0174545Y0231924D01*
X0175895Y0233274D01*
X0176626Y0235038D01*
X0176626Y0236948D01*
X0175895Y0238712D01*
X0174545Y0240062D01*
X0172781Y0240793D01*
X0170871Y0240793D01*
X0169107Y0240062D01*
X0167757Y0238712D01*
X0167026Y0236948D01*
X0167026Y0235038D01*
X0167757Y0233274D01*
X0169107Y0231924D01*
X0170871Y0231193D01*
X0172781Y0231193D01*
X0174643Y0232021D02*
X0179010Y0232021D01*
X0177614Y0233620D02*
X0176039Y0233620D01*
X0176626Y0235218D02*
X0177026Y0235218D01*
X0177026Y0236817D02*
X0176626Y0236817D01*
X0176018Y0238415D02*
X0177634Y0238415D01*
X0179059Y0240014D02*
X0174594Y0240014D01*
X0169059Y0240014D02*
X0164594Y0240014D01*
X0164545Y0240062D02*
X0162781Y0240793D01*
X0160871Y0240793D01*
X0159107Y0240062D01*
X0157757Y0238712D01*
X0157026Y0236948D01*
X0157026Y0235038D01*
X0157757Y0233274D01*
X0159107Y0231924D01*
X0160871Y0231193D01*
X0162781Y0231193D01*
X0164545Y0231924D01*
X0165895Y0233274D01*
X0166626Y0235038D01*
X0166626Y0236948D01*
X0165895Y0238712D01*
X0164545Y0240062D01*
X0166018Y0238415D02*
X0167634Y0238415D01*
X0167026Y0236817D02*
X0166626Y0236817D01*
X0166626Y0235218D02*
X0167026Y0235218D01*
X0167614Y0233620D02*
X0166039Y0233620D01*
X0164643Y0232021D02*
X0169010Y0232021D01*
X0170290Y0230423D02*
X0163835Y0230423D01*
X0163017Y0230762D02*
X0164781Y0230031D01*
X0166132Y0228681D01*
X0166862Y0226916D01*
X0166862Y0225007D01*
X0166132Y0223243D01*
X0164781Y0221892D01*
X0163017Y0221162D01*
X0161108Y0221162D01*
X0159343Y0221892D01*
X0157993Y0223243D01*
X0157262Y0225007D01*
X0157262Y0226916D01*
X0157993Y0228681D01*
X0159343Y0230031D01*
X0161108Y0230762D01*
X0163017Y0230762D01*
X0160290Y0230423D02*
X0153835Y0230423D01*
X0152781Y0231193D02*
X0154545Y0231924D01*
X0155895Y0233274D01*
X0156626Y0235038D01*
X0156626Y0236948D01*
X0155895Y0238712D01*
X0154545Y0240062D01*
X0152781Y0240793D01*
X0150871Y0240793D01*
X0149107Y0240062D01*
X0147757Y0238712D01*
X0147026Y0236948D01*
X0147026Y0235038D01*
X0147757Y0233274D01*
X0149107Y0231924D01*
X0150871Y0231193D01*
X0152781Y0231193D01*
X0154643Y0232021D02*
X0159010Y0232021D01*
X0157614Y0233620D02*
X0156039Y0233620D01*
X0156626Y0235218D02*
X0157026Y0235218D01*
X0157026Y0236817D02*
X0156626Y0236817D01*
X0156018Y0238415D02*
X0157634Y0238415D01*
X0159059Y0240014D02*
X0154594Y0240014D01*
X0149059Y0240014D02*
X0099720Y0240014D01*
X0098755Y0241612D02*
X0110566Y0241612D01*
X0110566Y0243211D02*
X0100391Y0243211D01*
X0101303Y0244810D02*
X0110566Y0244810D01*
X0110566Y0246408D02*
X0101547Y0246408D01*
X0101259Y0248007D02*
X0110566Y0248007D01*
X0110566Y0249605D02*
X0100286Y0249605D01*
X0098755Y0251204D02*
X0110566Y0251204D01*
X0110566Y0252802D02*
X0100140Y0252802D01*
X0101245Y0254401D02*
X0110566Y0254401D01*
X0110566Y0255999D02*
X0101626Y0255999D01*
X0101824Y0257598D02*
X0110566Y0257598D01*
X0110566Y0259196D02*
X0103423Y0259196D01*
X0105021Y0260795D02*
X0110566Y0260795D01*
X0110566Y0262393D02*
X0106620Y0262393D01*
X0107261Y0263992D02*
X0110566Y0263992D01*
X0110566Y0265590D02*
X0107261Y0265590D01*
X0107261Y0267189D02*
X0110566Y0267189D01*
X0110566Y0268787D02*
X0107261Y0268787D01*
X0107261Y0270386D02*
X0110566Y0270386D01*
X0110566Y0271984D02*
X0107084Y0271984D01*
X0105795Y0273583D02*
X0110566Y0273583D01*
X0110566Y0275181D02*
X0104197Y0275181D01*
X0103324Y0276780D02*
X0110566Y0276780D01*
X0110566Y0278378D02*
X0103324Y0278378D01*
X0103324Y0279977D02*
X0110566Y0279977D01*
X0110566Y0281575D02*
X0103324Y0281575D01*
X0103324Y0283174D02*
X0110566Y0283174D01*
X0110566Y0284772D02*
X0103324Y0284772D01*
X0103324Y0286371D02*
X0110566Y0286371D01*
X0110566Y0287969D02*
X0103324Y0287969D01*
X0103324Y0289568D02*
X0106127Y0289568D01*
X0105118Y0291166D02*
X0103324Y0291166D01*
X0103324Y0292765D02*
X0105134Y0292765D01*
X0106167Y0294363D02*
X0103324Y0294363D01*
X0103324Y0295962D02*
X0110566Y0295962D01*
X0110566Y0297560D02*
X0103324Y0297560D01*
X0103324Y0299159D02*
X0110566Y0299159D01*
X0110566Y0300757D02*
X0103324Y0300757D01*
X0103324Y0302356D02*
X0110566Y0302356D01*
X0110566Y0303954D02*
X0103324Y0303954D01*
X0103324Y0305553D02*
X0110566Y0305553D01*
X0110566Y0307151D02*
X0103324Y0307151D01*
X0103324Y0308750D02*
X0105771Y0308750D01*
X0107487Y0308750D02*
X0110566Y0308750D01*
X0110566Y0310348D02*
X0109773Y0310348D01*
X0110310Y0311947D02*
X0110566Y0311947D01*
X0110566Y0313545D02*
X0110131Y0313545D01*
X0110566Y0315144D02*
X0109070Y0315144D01*
X0110566Y0316743D02*
X0103324Y0316743D01*
X0103324Y0318341D02*
X0110566Y0318341D01*
X0110566Y0319940D02*
X0103324Y0319940D01*
X0103324Y0321538D02*
X0110566Y0321538D01*
X0110566Y0323137D02*
X0103324Y0323137D01*
X0103324Y0324735D02*
X0110566Y0324735D01*
X0110566Y0326334D02*
X0103324Y0326334D01*
X0103324Y0327932D02*
X0110566Y0327932D01*
X0110566Y0329531D02*
X0103324Y0329531D01*
X0103324Y0331129D02*
X0110566Y0331129D01*
X0110566Y0332728D02*
X0103324Y0332728D01*
X0103324Y0334326D02*
X0110566Y0334326D01*
X0110566Y0335925D02*
X0103324Y0335925D01*
X0103324Y0337523D02*
X0110566Y0337523D01*
X0110566Y0339122D02*
X0103324Y0339122D01*
X0103324Y0340720D02*
X0110566Y0340720D01*
X0110566Y0342319D02*
X0103324Y0342319D01*
X0103324Y0343917D02*
X0110566Y0343917D01*
X0110566Y0345516D02*
X0109539Y0345516D01*
X0110310Y0347114D02*
X0110566Y0347114D01*
X0110566Y0348713D02*
X0110241Y0348713D01*
X0110566Y0350311D02*
X0109336Y0350311D01*
X0110566Y0351910D02*
X0103324Y0351910D01*
X0103324Y0353508D02*
X0110566Y0353508D01*
X0110566Y0355107D02*
X0103324Y0355107D01*
X0103324Y0356705D02*
X0110566Y0356705D01*
X0110566Y0358304D02*
X0103324Y0358304D01*
X0103324Y0359902D02*
X0110566Y0359902D01*
X0110566Y0361501D02*
X0103324Y0361501D01*
X0103324Y0363099D02*
X0110566Y0363099D01*
X0110566Y0364698D02*
X0103324Y0364698D01*
X0103324Y0366296D02*
X0110566Y0366296D01*
X0110566Y0367895D02*
X0103324Y0367895D01*
X0103324Y0369493D02*
X0110566Y0369493D01*
X0110566Y0371092D02*
X0103324Y0371092D01*
X0103324Y0372690D02*
X0110566Y0372690D01*
X0110566Y0374289D02*
X0103324Y0374289D01*
X0103324Y0375887D02*
X0110566Y0375887D01*
X0110566Y0377486D02*
X0103324Y0377486D01*
X0103324Y0379084D02*
X0110566Y0379084D01*
X0110566Y0380683D02*
X0103324Y0380683D01*
X0103324Y0382281D02*
X0110566Y0382281D01*
X0110566Y0383880D02*
X0103324Y0383880D01*
X0103324Y0385479D02*
X0110566Y0385479D01*
X0110566Y0387077D02*
X0103324Y0387077D01*
X0103324Y0388676D02*
X0110566Y0388676D01*
X0110566Y0390274D02*
X0103324Y0390274D01*
X0103324Y0391873D02*
X0109629Y0391873D01*
X0094187Y0391873D02*
X0075133Y0391873D01*
X0075133Y0393088D02*
X0094187Y0393088D01*
X0094187Y0336001D01*
X0075133Y0336001D01*
X0075133Y0393088D01*
X0075133Y0390274D02*
X0094187Y0390274D01*
X0094187Y0388676D02*
X0075133Y0388676D01*
X0075133Y0387077D02*
X0094187Y0387077D01*
X0094187Y0385479D02*
X0075133Y0385479D01*
X0075133Y0383880D02*
X0094187Y0383880D01*
X0094187Y0382281D02*
X0075133Y0382281D01*
X0075133Y0380683D02*
X0094187Y0380683D01*
X0094187Y0379084D02*
X0075133Y0379084D01*
X0075133Y0377486D02*
X0077948Y0377486D01*
X0077918Y0377456D02*
X0077358Y0376103D01*
X0077358Y0374639D01*
X0077918Y0373286D01*
X0078954Y0372250D01*
X0080307Y0371690D01*
X0081771Y0371690D01*
X0083124Y0372250D01*
X0084159Y0373286D01*
X0084720Y0374639D01*
X0084720Y0376103D01*
X0084159Y0377456D01*
X0083124Y0378492D01*
X0081771Y0379052D01*
X0080307Y0379052D01*
X0078954Y0378492D01*
X0077918Y0377456D01*
X0077358Y0375887D02*
X0075133Y0375887D01*
X0075133Y0374289D02*
X0077503Y0374289D01*
X0078514Y0372690D02*
X0075133Y0372690D01*
X0075133Y0371092D02*
X0094187Y0371092D01*
X0094187Y0372690D02*
X0083564Y0372690D01*
X0084575Y0374289D02*
X0094187Y0374289D01*
X0094187Y0375887D02*
X0084720Y0375887D01*
X0084130Y0377486D02*
X0094187Y0377486D01*
X0094187Y0369493D02*
X0075133Y0369493D01*
X0075133Y0367895D02*
X0094187Y0367895D01*
X0094187Y0366296D02*
X0075133Y0366296D01*
X0075133Y0364698D02*
X0094187Y0364698D01*
X0094187Y0363099D02*
X0075133Y0363099D01*
X0075133Y0361501D02*
X0094187Y0361501D01*
X0094187Y0359902D02*
X0075133Y0359902D01*
X0075133Y0358304D02*
X0094187Y0358304D01*
X0094187Y0356705D02*
X0075133Y0356705D01*
X0075133Y0355107D02*
X0094187Y0355107D01*
X0094187Y0353508D02*
X0075133Y0353508D01*
X0075133Y0351910D02*
X0094187Y0351910D01*
X0094187Y0350311D02*
X0075133Y0350311D01*
X0075133Y0348713D02*
X0094187Y0348713D01*
X0094187Y0347114D02*
X0075133Y0347114D01*
X0075133Y0345516D02*
X0094187Y0345516D01*
X0094187Y0343917D02*
X0075133Y0343917D01*
X0075133Y0342319D02*
X0094187Y0342319D01*
X0094187Y0340720D02*
X0075133Y0340720D01*
X0075133Y0339122D02*
X0094187Y0339122D01*
X0094187Y0337523D02*
X0075133Y0337523D01*
X0074228Y0329531D02*
X0094187Y0329531D01*
X0094187Y0327932D02*
X0074228Y0327932D01*
X0074228Y0326334D02*
X0094187Y0326334D01*
X0094187Y0324735D02*
X0074228Y0324735D01*
X0074228Y0323137D02*
X0094187Y0323137D01*
X0094187Y0321538D02*
X0074228Y0321538D01*
X0074228Y0319940D02*
X0094187Y0319940D01*
X0094187Y0318341D02*
X0074228Y0318341D01*
X0074228Y0316743D02*
X0094187Y0316743D01*
X0094187Y0315144D02*
X0074228Y0315144D01*
X0074228Y0313545D02*
X0094187Y0313545D01*
X0094187Y0311947D02*
X0074228Y0311947D01*
X0074228Y0310348D02*
X0094187Y0310348D01*
X0094187Y0308750D02*
X0074228Y0308750D01*
X0074228Y0307151D02*
X0094187Y0307151D01*
X0094187Y0305553D02*
X0074228Y0305553D01*
X0074228Y0303954D02*
X0094187Y0303954D01*
X0094187Y0302356D02*
X0074228Y0302356D01*
X0074228Y0300757D02*
X0094187Y0300757D01*
X0094187Y0299159D02*
X0074228Y0299159D01*
X0074228Y0297560D02*
X0094187Y0297560D01*
X0094187Y0295962D02*
X0074228Y0295962D01*
X0074228Y0294363D02*
X0094187Y0294363D01*
X0094187Y0292765D02*
X0074228Y0292765D01*
X0074228Y0291166D02*
X0094187Y0291166D01*
X0094187Y0289568D02*
X0074228Y0289568D01*
X0074228Y0287969D02*
X0094187Y0287969D01*
X0094187Y0286371D02*
X0091536Y0286371D01*
X0091970Y0285937D02*
X0090935Y0286972D01*
X0089582Y0287533D01*
X0088118Y0287533D01*
X0086765Y0286972D01*
X0085729Y0285937D01*
X0085169Y0284584D01*
X0085169Y0283119D01*
X0085729Y0281766D01*
X0086765Y0280731D01*
X0088118Y0280170D01*
X0089582Y0280170D01*
X0090935Y0280731D01*
X0091970Y0281766D01*
X0092531Y0283119D01*
X0092531Y0284584D01*
X0091970Y0285937D01*
X0092453Y0284772D02*
X0094187Y0284772D01*
X0094187Y0283174D02*
X0092531Y0283174D01*
X0091780Y0281575D02*
X0094187Y0281575D01*
X0094187Y0279977D02*
X0074228Y0279977D01*
X0074228Y0281575D02*
X0085920Y0281575D01*
X0085169Y0283174D02*
X0074228Y0283174D01*
X0074228Y0284772D02*
X0085247Y0284772D01*
X0086163Y0286371D02*
X0074228Y0286371D01*
X0074228Y0278378D02*
X0094187Y0278378D01*
X0094187Y0276780D02*
X0074228Y0276780D01*
X0074228Y0275181D02*
X0094187Y0275181D01*
X0094187Y0273583D02*
X0074228Y0273583D01*
X0074228Y0271984D02*
X0094187Y0271984D01*
X0094068Y0270386D02*
X0089445Y0270386D01*
X0090974Y0268787D02*
X0092638Y0268787D01*
X0092026Y0267189D02*
X0091554Y0267189D01*
X0091565Y0265590D02*
X0092026Y0265590D01*
X0092610Y0263992D02*
X0091009Y0263992D01*
X0087026Y0263992D02*
X0086626Y0263992D01*
X0086626Y0265590D02*
X0087026Y0265590D01*
X0086626Y0266555D02*
X0082026Y0266555D01*
X0082026Y0266733D01*
X0082144Y0267479D01*
X0082378Y0268198D01*
X0082721Y0268871D01*
X0083165Y0269482D01*
X0083699Y0270017D01*
X0084310Y0270461D01*
X0084984Y0270804D01*
X0085702Y0271037D01*
X0086448Y0271155D01*
X0086626Y0271155D01*
X0086626Y0266555D01*
X0086626Y0267189D02*
X0087026Y0267189D01*
X0087026Y0268787D02*
X0086626Y0268787D01*
X0086626Y0270386D02*
X0087026Y0270386D01*
X0084207Y0270386D02*
X0074228Y0270386D01*
X0074228Y0268787D02*
X0082678Y0268787D01*
X0082098Y0267189D02*
X0074228Y0267189D01*
X0074228Y0265590D02*
X0082088Y0265590D01*
X0082643Y0263992D02*
X0074228Y0263992D01*
X0074228Y0262393D02*
X0084113Y0262393D01*
X0085198Y0260795D02*
X0074228Y0260795D01*
X0074228Y0259196D02*
X0083014Y0259196D01*
X0082208Y0257598D02*
X0074228Y0257598D01*
X0074228Y0255999D02*
X0082026Y0255999D01*
X0082395Y0254401D02*
X0074228Y0254401D01*
X0074228Y0252802D02*
X0083513Y0252802D01*
X0083209Y0249605D02*
X0074228Y0249605D01*
X0074228Y0248007D02*
X0082237Y0248007D01*
X0090286Y0249605D02*
X0093209Y0249605D01*
X0092236Y0248007D02*
X0091258Y0248007D01*
X0094228Y0251204D02*
X0074228Y0251204D01*
X0090140Y0252802D02*
X0093513Y0252802D01*
X0096826Y0266355D02*
X0096787Y0266395D01*
X0096787Y0432458D01*
X0103324Y0350311D02*
X0103923Y0350311D01*
X0103720Y0345516D02*
X0103324Y0345516D01*
X0103324Y0315144D02*
X0104188Y0315144D01*
X0103486Y0310348D02*
X0103324Y0310348D01*
X0110241Y0294363D02*
X0110566Y0294363D01*
X0110566Y0289568D02*
X0110281Y0289568D01*
X0107368Y0238415D02*
X0147634Y0238415D01*
X0147026Y0236817D02*
X0109097Y0236817D01*
X0110695Y0235218D02*
X0147026Y0235218D01*
X0147614Y0233620D02*
X0112294Y0233620D01*
X0113892Y0232021D02*
X0149010Y0232021D01*
X0150290Y0230423D02*
X0115491Y0230423D01*
X0117089Y0228824D02*
X0148137Y0228824D01*
X0147391Y0227226D02*
X0118688Y0227226D01*
X0120286Y0225627D02*
X0147262Y0225627D01*
X0152641Y0220832D02*
X0153931Y0220832D01*
X0155319Y0222430D02*
X0158806Y0222430D01*
X0157668Y0224029D02*
X0156457Y0224029D01*
X0156862Y0225627D02*
X0157262Y0225627D01*
X0157391Y0227226D02*
X0156734Y0227226D01*
X0155988Y0228824D02*
X0158137Y0228824D01*
X0165988Y0228824D02*
X0168137Y0228824D01*
X0167391Y0227226D02*
X0166734Y0227226D01*
X0166862Y0225627D02*
X0167262Y0225627D01*
X0167668Y0224029D02*
X0166457Y0224029D01*
X0165319Y0222430D02*
X0168806Y0222430D01*
X0175319Y0222430D02*
X0178806Y0222430D01*
X0177668Y0224029D02*
X0176457Y0224029D01*
X0176862Y0225627D02*
X0177262Y0225627D01*
X0177391Y0227226D02*
X0176734Y0227226D01*
X0175988Y0228824D02*
X0178137Y0228824D01*
X0160610Y0209642D02*
X0159329Y0209642D01*
X0158815Y0211241D02*
X0157730Y0211241D01*
X0147012Y0190460D02*
X0146744Y0190460D01*
X0147881Y0188862D02*
X0139000Y0188862D01*
X0139869Y0190460D02*
X0140136Y0190460D01*
X0137401Y0187263D02*
X0149480Y0187263D01*
X0150502Y0184066D02*
X0136378Y0184066D01*
X0138570Y0182468D02*
X0148310Y0182468D01*
X0147190Y0180869D02*
X0146315Y0180869D01*
X0140566Y0180869D02*
X0139691Y0180869D01*
X0120409Y0221828D02*
X0106118Y0236119D01*
X0096826Y0236119D01*
M02*
