G75*
%MOIN*%
%OFA0B0*%
%FSLAX25Y25*%
%IPPOS*%
%LPD*%
%AMOC8*
5,1,8,0,0,1.08239X$1,22.5*
%
%ADD10C,0.13098*%
%ADD11C,0.00666*%
%ADD12C,0.00687*%
%ADD13C,0.05815*%
%ADD14C,0.07900*%
%ADD15C,0.00716*%
%ADD16C,0.00746*%
%ADD17C,0.00905*%
%ADD18C,0.00837*%
%ADD19C,0.00679*%
%ADD20C,0.04400*%
%ADD21C,0.09850*%
%ADD22C,0.00857*%
%ADD23C,0.00741*%
%ADD24C,0.00925*%
%ADD25C,0.08100*%
%ADD26C,0.05000*%
%ADD27C,0.04437*%
%ADD28C,0.04262*%
D10*
X0091728Y0129429D03*
X0291728Y0129429D03*
X0291728Y0504429D03*
X0091728Y0504429D03*
D11*
X0155109Y0460721D02*
X0155109Y0456557D01*
X0151339Y0456557D01*
X0151339Y0460721D01*
X0155109Y0460721D01*
X0155109Y0457222D02*
X0151339Y0457222D01*
X0151339Y0457887D02*
X0155109Y0457887D01*
X0155109Y0458552D02*
X0151339Y0458552D01*
X0151339Y0459217D02*
X0155109Y0459217D01*
X0155109Y0459882D02*
X0151339Y0459882D01*
X0151339Y0460547D02*
X0155109Y0460547D01*
X0155109Y0454028D02*
X0155109Y0449864D01*
X0151339Y0449864D01*
X0151339Y0454028D01*
X0155109Y0454028D01*
X0155109Y0450529D02*
X0151339Y0450529D01*
X0151339Y0451194D02*
X0155109Y0451194D01*
X0155109Y0451859D02*
X0151339Y0451859D01*
X0151339Y0452524D02*
X0155109Y0452524D01*
X0155109Y0453189D02*
X0151339Y0453189D01*
X0151339Y0453854D02*
X0155109Y0453854D01*
X0177973Y0474736D02*
X0182137Y0474736D01*
X0182137Y0470966D01*
X0177973Y0470966D01*
X0177973Y0474736D01*
X0177973Y0471631D02*
X0182137Y0471631D01*
X0182137Y0472296D02*
X0177973Y0472296D01*
X0177973Y0472961D02*
X0182137Y0472961D01*
X0182137Y0473626D02*
X0177973Y0473626D01*
X0177973Y0474291D02*
X0182137Y0474291D01*
X0184665Y0474736D02*
X0188829Y0474736D01*
X0188829Y0470966D01*
X0184665Y0470966D01*
X0184665Y0474736D01*
X0184665Y0471631D02*
X0188829Y0471631D01*
X0188829Y0472296D02*
X0184665Y0472296D01*
X0184665Y0472961D02*
X0188829Y0472961D01*
X0188829Y0473626D02*
X0184665Y0473626D01*
X0184665Y0474291D02*
X0188829Y0474291D01*
X0201595Y0464697D02*
X0201595Y0460533D01*
X0201595Y0464697D02*
X0205365Y0464697D01*
X0205365Y0460533D01*
X0201595Y0460533D01*
X0201595Y0461198D02*
X0205365Y0461198D01*
X0205365Y0461863D02*
X0201595Y0461863D01*
X0201595Y0462528D02*
X0205365Y0462528D01*
X0205365Y0463193D02*
X0201595Y0463193D01*
X0201595Y0463858D02*
X0205365Y0463858D01*
X0205365Y0464523D02*
X0201595Y0464523D01*
X0201595Y0458004D02*
X0201595Y0453840D01*
X0201595Y0458004D02*
X0205365Y0458004D01*
X0205365Y0453840D01*
X0201595Y0453840D01*
X0201595Y0454505D02*
X0205365Y0454505D01*
X0205365Y0455170D02*
X0201595Y0455170D01*
X0201595Y0455835D02*
X0205365Y0455835D01*
X0205365Y0456500D02*
X0201595Y0456500D01*
X0201595Y0457165D02*
X0205365Y0457165D01*
X0205365Y0457830D02*
X0201595Y0457830D01*
X0177461Y0389107D02*
X0177461Y0384943D01*
X0177461Y0389107D02*
X0181231Y0389107D01*
X0181231Y0384943D01*
X0177461Y0384943D01*
X0177461Y0385608D02*
X0181231Y0385608D01*
X0181231Y0386273D02*
X0177461Y0386273D01*
X0177461Y0386938D02*
X0181231Y0386938D01*
X0181231Y0387603D02*
X0177461Y0387603D01*
X0177461Y0388268D02*
X0181231Y0388268D01*
X0181231Y0388933D02*
X0177461Y0388933D01*
X0177461Y0382414D02*
X0177461Y0378250D01*
X0177461Y0382414D02*
X0181231Y0382414D01*
X0181231Y0378250D01*
X0177461Y0378250D01*
X0177461Y0378915D02*
X0181231Y0378915D01*
X0181231Y0379580D02*
X0177461Y0379580D01*
X0177461Y0380245D02*
X0181231Y0380245D01*
X0181231Y0380910D02*
X0177461Y0380910D01*
X0177461Y0381575D02*
X0181231Y0381575D01*
X0181231Y0382240D02*
X0177461Y0382240D01*
X0182478Y0346445D02*
X0179534Y0343501D01*
X0182478Y0346445D02*
X0185144Y0343779D01*
X0182200Y0340835D01*
X0179534Y0343501D01*
X0181535Y0341500D02*
X0182865Y0341500D01*
X0183530Y0342165D02*
X0180870Y0342165D01*
X0180205Y0342830D02*
X0184195Y0342830D01*
X0184860Y0343495D02*
X0179540Y0343495D01*
X0180193Y0344160D02*
X0184763Y0344160D01*
X0184098Y0344825D02*
X0180858Y0344825D01*
X0181523Y0345490D02*
X0183433Y0345490D01*
X0182768Y0346155D02*
X0182188Y0346155D01*
X0177746Y0341713D02*
X0174802Y0338769D01*
X0177746Y0341713D02*
X0180412Y0339047D01*
X0177468Y0336103D01*
X0174802Y0338769D01*
X0176803Y0336768D02*
X0178133Y0336768D01*
X0178798Y0337433D02*
X0176138Y0337433D01*
X0175473Y0338098D02*
X0179463Y0338098D01*
X0180128Y0338763D02*
X0174808Y0338763D01*
X0175461Y0339428D02*
X0180031Y0339428D01*
X0179366Y0340093D02*
X0176126Y0340093D01*
X0176791Y0340758D02*
X0178701Y0340758D01*
X0178036Y0341423D02*
X0177456Y0341423D01*
X0200253Y0332378D02*
X0203197Y0335322D01*
X0205863Y0332656D01*
X0202919Y0329712D01*
X0200253Y0332378D01*
X0202254Y0330377D02*
X0203584Y0330377D01*
X0204249Y0331042D02*
X0201589Y0331042D01*
X0200924Y0331707D02*
X0204914Y0331707D01*
X0205579Y0332372D02*
X0200259Y0332372D01*
X0200912Y0333037D02*
X0205482Y0333037D01*
X0204817Y0333702D02*
X0201577Y0333702D01*
X0202242Y0334367D02*
X0204152Y0334367D01*
X0203487Y0335032D02*
X0202907Y0335032D01*
X0204986Y0337110D02*
X0207930Y0340054D01*
X0210596Y0337388D01*
X0207652Y0334444D01*
X0204986Y0337110D01*
X0206987Y0335109D02*
X0208317Y0335109D01*
X0208982Y0335774D02*
X0206322Y0335774D01*
X0205657Y0336439D02*
X0209647Y0336439D01*
X0210312Y0337104D02*
X0204992Y0337104D01*
X0205645Y0337769D02*
X0210215Y0337769D01*
X0209550Y0338434D02*
X0206310Y0338434D01*
X0206975Y0339099D02*
X0208885Y0339099D01*
X0208220Y0339764D02*
X0207640Y0339764D01*
X0226595Y0278053D02*
X0230759Y0278053D01*
X0226595Y0278053D02*
X0226595Y0281823D01*
X0230759Y0281823D01*
X0230759Y0278053D01*
X0230759Y0278718D02*
X0226595Y0278718D01*
X0226595Y0279383D02*
X0230759Y0279383D01*
X0230759Y0280048D02*
X0226595Y0280048D01*
X0226595Y0280713D02*
X0230759Y0280713D01*
X0230759Y0281378D02*
X0226595Y0281378D01*
X0233288Y0278053D02*
X0237452Y0278053D01*
X0233288Y0278053D02*
X0233288Y0281823D01*
X0237452Y0281823D01*
X0237452Y0278053D01*
X0237452Y0278718D02*
X0233288Y0278718D01*
X0233288Y0279383D02*
X0237452Y0279383D01*
X0237452Y0280048D02*
X0233288Y0280048D01*
X0233288Y0280713D02*
X0237452Y0280713D01*
X0237452Y0281378D02*
X0233288Y0281378D01*
X0268799Y0327414D02*
X0272963Y0327414D01*
X0272963Y0323644D01*
X0268799Y0323644D01*
X0268799Y0327414D01*
X0268799Y0324309D02*
X0272963Y0324309D01*
X0272963Y0324974D02*
X0268799Y0324974D01*
X0268799Y0325639D02*
X0272963Y0325639D01*
X0272963Y0326304D02*
X0268799Y0326304D01*
X0268799Y0326969D02*
X0272963Y0326969D01*
X0275492Y0327414D02*
X0279656Y0327414D01*
X0279656Y0323644D01*
X0275492Y0323644D01*
X0275492Y0327414D01*
X0275492Y0324309D02*
X0279656Y0324309D01*
X0279656Y0324974D02*
X0275492Y0324974D01*
X0275492Y0325639D02*
X0279656Y0325639D01*
X0279656Y0326304D02*
X0275492Y0326304D01*
X0275492Y0326969D02*
X0279656Y0326969D01*
X0295295Y0334697D02*
X0299459Y0334697D01*
X0299459Y0330927D01*
X0295295Y0330927D01*
X0295295Y0334697D01*
X0295295Y0331592D02*
X0299459Y0331592D01*
X0299459Y0332257D02*
X0295295Y0332257D01*
X0295295Y0332922D02*
X0299459Y0332922D01*
X0299459Y0333587D02*
X0295295Y0333587D01*
X0295295Y0334252D02*
X0299459Y0334252D01*
X0301988Y0334697D02*
X0306152Y0334697D01*
X0306152Y0330927D01*
X0301988Y0330927D01*
X0301988Y0334697D01*
X0301988Y0331592D02*
X0306152Y0331592D01*
X0306152Y0332257D02*
X0301988Y0332257D01*
X0301988Y0332922D02*
X0306152Y0332922D01*
X0306152Y0333587D02*
X0301988Y0333587D01*
X0301988Y0334252D02*
X0306152Y0334252D01*
X0306152Y0344540D02*
X0301988Y0344540D01*
X0306152Y0344540D02*
X0306152Y0340770D01*
X0301988Y0340770D01*
X0301988Y0344540D01*
X0301988Y0341435D02*
X0306152Y0341435D01*
X0306152Y0342100D02*
X0301988Y0342100D01*
X0301988Y0342765D02*
X0306152Y0342765D01*
X0306152Y0343430D02*
X0301988Y0343430D01*
X0301988Y0344095D02*
X0306152Y0344095D01*
X0299459Y0344540D02*
X0295295Y0344540D01*
X0299459Y0344540D02*
X0299459Y0340770D01*
X0295295Y0340770D01*
X0295295Y0344540D01*
X0295295Y0341435D02*
X0299459Y0341435D01*
X0299459Y0342100D02*
X0295295Y0342100D01*
X0295295Y0342765D02*
X0299459Y0342765D01*
X0299459Y0343430D02*
X0295295Y0343430D01*
X0295295Y0344095D02*
X0299459Y0344095D01*
X0277530Y0367266D02*
X0273366Y0367266D01*
X0273366Y0371036D01*
X0277530Y0371036D01*
X0277530Y0367266D01*
X0277530Y0367931D02*
X0273366Y0367931D01*
X0273366Y0368596D02*
X0277530Y0368596D01*
X0277530Y0369261D02*
X0273366Y0369261D01*
X0273366Y0369926D02*
X0277530Y0369926D01*
X0277530Y0370591D02*
X0273366Y0370591D01*
X0270837Y0367266D02*
X0266673Y0367266D01*
X0266673Y0371036D01*
X0270837Y0371036D01*
X0270837Y0367266D01*
X0270837Y0367931D02*
X0266673Y0367931D01*
X0266673Y0368596D02*
X0270837Y0368596D01*
X0270837Y0369261D02*
X0266673Y0369261D01*
X0266673Y0369926D02*
X0270837Y0369926D01*
X0270837Y0370591D02*
X0266673Y0370591D01*
X0296476Y0456036D02*
X0300640Y0456036D01*
X0300640Y0452266D01*
X0296476Y0452266D01*
X0296476Y0456036D01*
X0296476Y0452931D02*
X0300640Y0452931D01*
X0300640Y0453596D02*
X0296476Y0453596D01*
X0296476Y0454261D02*
X0300640Y0454261D01*
X0300640Y0454926D02*
X0296476Y0454926D01*
X0296476Y0455591D02*
X0300640Y0455591D01*
X0303169Y0456036D02*
X0307333Y0456036D01*
X0307333Y0452266D01*
X0303169Y0452266D01*
X0303169Y0456036D01*
X0303169Y0452931D02*
X0307333Y0452931D01*
X0307333Y0453596D02*
X0303169Y0453596D01*
X0303169Y0454261D02*
X0307333Y0454261D01*
X0307333Y0454926D02*
X0303169Y0454926D01*
X0303169Y0455591D02*
X0307333Y0455591D01*
X0295522Y0456203D02*
X0291358Y0456203D01*
X0291358Y0459973D01*
X0295522Y0459973D01*
X0295522Y0456203D01*
X0295522Y0456868D02*
X0291358Y0456868D01*
X0291358Y0457533D02*
X0295522Y0457533D01*
X0295522Y0458198D02*
X0291358Y0458198D01*
X0291358Y0458863D02*
X0295522Y0458863D01*
X0295522Y0459528D02*
X0291358Y0459528D01*
X0288829Y0456203D02*
X0284665Y0456203D01*
X0284665Y0459973D01*
X0288829Y0459973D01*
X0288829Y0456203D01*
X0288829Y0456868D02*
X0284665Y0456868D01*
X0284665Y0457533D02*
X0288829Y0457533D01*
X0288829Y0458198D02*
X0284665Y0458198D01*
X0284665Y0458863D02*
X0288829Y0458863D01*
X0288829Y0459528D02*
X0284665Y0459528D01*
X0266555Y0458565D02*
X0266555Y0462729D01*
X0270325Y0462729D01*
X0270325Y0458565D01*
X0266555Y0458565D01*
X0266555Y0459230D02*
X0270325Y0459230D01*
X0270325Y0459895D02*
X0266555Y0459895D01*
X0266555Y0460560D02*
X0270325Y0460560D01*
X0270325Y0461225D02*
X0266555Y0461225D01*
X0266555Y0461890D02*
X0270325Y0461890D01*
X0270325Y0462555D02*
X0266555Y0462555D01*
X0266555Y0465258D02*
X0266555Y0469422D01*
X0270325Y0469422D01*
X0270325Y0465258D01*
X0266555Y0465258D01*
X0266555Y0465923D02*
X0270325Y0465923D01*
X0270325Y0466588D02*
X0266555Y0466588D01*
X0266555Y0467253D02*
X0270325Y0467253D01*
X0270325Y0467918D02*
X0266555Y0467918D01*
X0266555Y0468583D02*
X0270325Y0468583D01*
X0270325Y0469248D02*
X0266555Y0469248D01*
X0296870Y0493473D02*
X0301034Y0493473D01*
X0301034Y0489703D01*
X0296870Y0489703D01*
X0296870Y0493473D01*
X0296870Y0490368D02*
X0301034Y0490368D01*
X0301034Y0491033D02*
X0296870Y0491033D01*
X0296870Y0491698D02*
X0301034Y0491698D01*
X0301034Y0492363D02*
X0296870Y0492363D01*
X0296870Y0493028D02*
X0301034Y0493028D01*
X0303563Y0493473D02*
X0307727Y0493473D01*
X0307727Y0489703D01*
X0303563Y0489703D01*
X0303563Y0493473D01*
X0303563Y0490368D02*
X0307727Y0490368D01*
X0307727Y0491033D02*
X0303563Y0491033D01*
X0303563Y0491698D02*
X0307727Y0491698D01*
X0307727Y0492363D02*
X0303563Y0492363D01*
X0303563Y0493028D02*
X0307727Y0493028D01*
X0306647Y0483286D02*
X0306647Y0479122D01*
X0302877Y0479122D01*
X0302877Y0483286D01*
X0306647Y0483286D01*
X0306647Y0479787D02*
X0302877Y0479787D01*
X0302877Y0480452D02*
X0306647Y0480452D01*
X0306647Y0481117D02*
X0302877Y0481117D01*
X0302877Y0481782D02*
X0306647Y0481782D01*
X0306647Y0482447D02*
X0302877Y0482447D01*
X0302877Y0483112D02*
X0306647Y0483112D01*
X0306647Y0476593D02*
X0306647Y0472429D01*
X0302877Y0472429D01*
X0302877Y0476593D01*
X0306647Y0476593D01*
X0306647Y0473094D02*
X0302877Y0473094D01*
X0302877Y0473759D02*
X0306647Y0473759D01*
X0306647Y0474424D02*
X0302877Y0474424D01*
X0302877Y0475089D02*
X0306647Y0475089D01*
X0306647Y0475754D02*
X0302877Y0475754D01*
X0302877Y0476419D02*
X0306647Y0476419D01*
X0144311Y0380485D02*
X0144311Y0376321D01*
X0144311Y0380485D02*
X0148081Y0380485D01*
X0148081Y0376321D01*
X0144311Y0376321D01*
X0144311Y0376986D02*
X0148081Y0376986D01*
X0148081Y0377651D02*
X0144311Y0377651D01*
X0144311Y0378316D02*
X0148081Y0378316D01*
X0148081Y0378981D02*
X0144311Y0378981D01*
X0144311Y0379646D02*
X0148081Y0379646D01*
X0148081Y0380311D02*
X0144311Y0380311D01*
X0144311Y0373792D02*
X0144311Y0369628D01*
X0144311Y0373792D02*
X0148081Y0373792D01*
X0148081Y0369628D01*
X0144311Y0369628D01*
X0144311Y0370293D02*
X0148081Y0370293D01*
X0148081Y0370958D02*
X0144311Y0370958D01*
X0144311Y0371623D02*
X0148081Y0371623D01*
X0148081Y0372288D02*
X0144311Y0372288D01*
X0144311Y0372953D02*
X0148081Y0372953D01*
X0148081Y0373618D02*
X0144311Y0373618D01*
X0148317Y0364737D02*
X0148317Y0360573D01*
X0144547Y0360573D01*
X0144547Y0364737D01*
X0148317Y0364737D01*
X0148317Y0361238D02*
X0144547Y0361238D01*
X0144547Y0361903D02*
X0148317Y0361903D01*
X0148317Y0362568D02*
X0144547Y0362568D01*
X0144547Y0363233D02*
X0148317Y0363233D01*
X0148317Y0363898D02*
X0144547Y0363898D01*
X0144547Y0364563D02*
X0148317Y0364563D01*
X0148317Y0358044D02*
X0148317Y0353880D01*
X0144547Y0353880D01*
X0144547Y0358044D01*
X0148317Y0358044D01*
X0148317Y0354545D02*
X0144547Y0354545D01*
X0144547Y0355210D02*
X0148317Y0355210D01*
X0148317Y0355875D02*
X0144547Y0355875D01*
X0144547Y0356540D02*
X0148317Y0356540D01*
X0148317Y0357205D02*
X0144547Y0357205D01*
X0144547Y0357870D02*
X0148317Y0357870D01*
X0089656Y0288644D02*
X0085492Y0288644D01*
X0085492Y0292414D01*
X0089656Y0292414D01*
X0089656Y0288644D01*
X0089656Y0289309D02*
X0085492Y0289309D01*
X0085492Y0289974D02*
X0089656Y0289974D01*
X0089656Y0290639D02*
X0085492Y0290639D01*
X0085492Y0291304D02*
X0089656Y0291304D01*
X0089656Y0291969D02*
X0085492Y0291969D01*
X0082963Y0288644D02*
X0078799Y0288644D01*
X0078799Y0292414D01*
X0082963Y0292414D01*
X0082963Y0288644D01*
X0082963Y0289309D02*
X0078799Y0289309D01*
X0078799Y0289974D02*
X0082963Y0289974D01*
X0082963Y0290639D02*
X0078799Y0290639D01*
X0078799Y0291304D02*
X0082963Y0291304D01*
X0082963Y0291969D02*
X0078799Y0291969D01*
X0222058Y0197937D02*
X0222058Y0193773D01*
X0222058Y0197937D02*
X0225828Y0197937D01*
X0225828Y0193773D01*
X0222058Y0193773D01*
X0222058Y0194438D02*
X0225828Y0194438D01*
X0225828Y0195103D02*
X0222058Y0195103D01*
X0222058Y0195768D02*
X0225828Y0195768D01*
X0225828Y0196433D02*
X0222058Y0196433D01*
X0222058Y0197098D02*
X0225828Y0197098D01*
X0225828Y0197763D02*
X0222058Y0197763D01*
X0222058Y0191244D02*
X0222058Y0187080D01*
X0222058Y0191244D02*
X0225828Y0191244D01*
X0225828Y0187080D01*
X0222058Y0187080D01*
X0222058Y0187745D02*
X0225828Y0187745D01*
X0225828Y0188410D02*
X0222058Y0188410D01*
X0222058Y0189075D02*
X0225828Y0189075D01*
X0225828Y0189740D02*
X0222058Y0189740D01*
X0222058Y0190405D02*
X0225828Y0190405D01*
X0225828Y0191070D02*
X0222058Y0191070D01*
X0230984Y0191244D02*
X0230984Y0187080D01*
X0230984Y0191244D02*
X0234754Y0191244D01*
X0234754Y0187080D01*
X0230984Y0187080D01*
X0230984Y0187745D02*
X0234754Y0187745D01*
X0234754Y0188410D02*
X0230984Y0188410D01*
X0230984Y0189075D02*
X0234754Y0189075D01*
X0234754Y0189740D02*
X0230984Y0189740D01*
X0230984Y0190405D02*
X0234754Y0190405D01*
X0234754Y0191070D02*
X0230984Y0191070D01*
X0230984Y0193773D02*
X0230984Y0197937D01*
X0234754Y0197937D01*
X0234754Y0193773D01*
X0230984Y0193773D01*
X0230984Y0194438D02*
X0234754Y0194438D01*
X0234754Y0195103D02*
X0230984Y0195103D01*
X0230984Y0195768D02*
X0234754Y0195768D01*
X0234754Y0196433D02*
X0230984Y0196433D01*
X0230984Y0197098D02*
X0234754Y0197098D01*
X0234754Y0197763D02*
X0230984Y0197763D01*
X0265965Y0203083D02*
X0270129Y0203083D01*
X0270129Y0199313D01*
X0265965Y0199313D01*
X0265965Y0203083D01*
X0265965Y0199978D02*
X0270129Y0199978D01*
X0270129Y0200643D02*
X0265965Y0200643D01*
X0265965Y0201308D02*
X0270129Y0201308D01*
X0270129Y0201973D02*
X0265965Y0201973D01*
X0265965Y0202638D02*
X0270129Y0202638D01*
X0272658Y0203083D02*
X0276822Y0203083D01*
X0276822Y0199313D01*
X0272658Y0199313D01*
X0272658Y0203083D01*
X0272658Y0199978D02*
X0276822Y0199978D01*
X0276822Y0200643D02*
X0272658Y0200643D01*
X0272658Y0201308D02*
X0276822Y0201308D01*
X0276822Y0201973D02*
X0272658Y0201973D01*
X0272658Y0202638D02*
X0276822Y0202638D01*
X0275837Y0212925D02*
X0271673Y0212925D01*
X0275837Y0212925D02*
X0275837Y0209155D01*
X0271673Y0209155D01*
X0271673Y0212925D01*
X0271673Y0209820D02*
X0275837Y0209820D01*
X0275837Y0210485D02*
X0271673Y0210485D01*
X0271673Y0211150D02*
X0275837Y0211150D01*
X0275837Y0211815D02*
X0271673Y0211815D01*
X0271673Y0212480D02*
X0275837Y0212480D01*
X0269144Y0212925D02*
X0264980Y0212925D01*
X0269144Y0212925D02*
X0269144Y0209155D01*
X0264980Y0209155D01*
X0264980Y0212925D01*
X0264980Y0209820D02*
X0269144Y0209820D01*
X0269144Y0210485D02*
X0264980Y0210485D01*
X0264980Y0211150D02*
X0269144Y0211150D01*
X0269144Y0211815D02*
X0264980Y0211815D01*
X0264980Y0212480D02*
X0269144Y0212480D01*
X0269508Y0193831D02*
X0269508Y0189667D01*
X0269508Y0193831D02*
X0273278Y0193831D01*
X0273278Y0189667D01*
X0269508Y0189667D01*
X0269508Y0190332D02*
X0273278Y0190332D01*
X0273278Y0190997D02*
X0269508Y0190997D01*
X0269508Y0191662D02*
X0273278Y0191662D01*
X0273278Y0192327D02*
X0269508Y0192327D01*
X0269508Y0192992D02*
X0273278Y0192992D01*
X0273278Y0193657D02*
X0269508Y0193657D01*
X0269508Y0187138D02*
X0269508Y0182974D01*
X0269508Y0187138D02*
X0273278Y0187138D01*
X0273278Y0182974D01*
X0269508Y0182974D01*
X0269508Y0183639D02*
X0273278Y0183639D01*
X0273278Y0184304D02*
X0269508Y0184304D01*
X0269508Y0184969D02*
X0273278Y0184969D01*
X0273278Y0185634D02*
X0269508Y0185634D01*
X0269508Y0186299D02*
X0273278Y0186299D01*
X0273278Y0186964D02*
X0269508Y0186964D01*
D12*
X0297273Y0178270D02*
X0297273Y0174914D01*
X0297273Y0178270D02*
X0302599Y0178270D01*
X0302599Y0174914D01*
X0297273Y0174914D01*
X0297273Y0175600D02*
X0302599Y0175600D01*
X0302599Y0176286D02*
X0297273Y0176286D01*
X0297273Y0176972D02*
X0302599Y0176972D01*
X0302599Y0177658D02*
X0297273Y0177658D01*
X0300562Y0317306D02*
X0303918Y0317306D01*
X0303918Y0313752D01*
X0300562Y0313752D01*
X0300562Y0317306D01*
X0300562Y0314438D02*
X0303918Y0314438D01*
X0303918Y0315124D02*
X0300562Y0315124D01*
X0300562Y0315810D02*
X0303918Y0315810D01*
X0303918Y0316496D02*
X0300562Y0316496D01*
X0300562Y0317182D02*
X0303918Y0317182D01*
X0291516Y0317306D02*
X0288160Y0317306D01*
X0291516Y0317306D02*
X0291516Y0313752D01*
X0288160Y0313752D01*
X0288160Y0317306D01*
X0288160Y0314438D02*
X0291516Y0314438D01*
X0291516Y0315124D02*
X0288160Y0315124D01*
X0288160Y0315810D02*
X0291516Y0315810D01*
X0291516Y0316496D02*
X0288160Y0316496D01*
X0288160Y0317182D02*
X0291516Y0317182D01*
X0209095Y0436527D02*
X0205739Y0436527D01*
X0205739Y0441853D01*
X0209095Y0441853D01*
X0209095Y0436527D01*
X0209095Y0437213D02*
X0205739Y0437213D01*
X0205739Y0437899D02*
X0209095Y0437899D01*
X0209095Y0438585D02*
X0205739Y0438585D01*
X0205739Y0439271D02*
X0209095Y0439271D01*
X0209095Y0439957D02*
X0205739Y0439957D01*
X0205739Y0440643D02*
X0209095Y0440643D01*
X0209095Y0441329D02*
X0205739Y0441329D01*
X0094646Y0332531D02*
X0091290Y0332531D01*
X0091290Y0336085D01*
X0094646Y0336085D01*
X0094646Y0332531D01*
X0094646Y0333217D02*
X0091290Y0333217D01*
X0091290Y0333903D02*
X0094646Y0333903D01*
X0094646Y0334589D02*
X0091290Y0334589D01*
X0091290Y0335275D02*
X0094646Y0335275D01*
X0094646Y0335961D02*
X0091290Y0335961D01*
X0082244Y0332531D02*
X0078888Y0332531D01*
X0078888Y0336085D01*
X0082244Y0336085D01*
X0082244Y0332531D01*
X0082244Y0333217D02*
X0078888Y0333217D01*
X0078888Y0333903D02*
X0082244Y0333903D01*
X0082244Y0334589D02*
X0078888Y0334589D01*
X0078888Y0335275D02*
X0082244Y0335275D01*
X0082244Y0335961D02*
X0078888Y0335961D01*
X0078997Y0350209D02*
X0078997Y0353565D01*
X0078997Y0350209D02*
X0075443Y0350209D01*
X0075443Y0353565D01*
X0078997Y0353565D01*
X0078997Y0350895D02*
X0075443Y0350895D01*
X0075443Y0351581D02*
X0078997Y0351581D01*
X0078997Y0352267D02*
X0075443Y0352267D01*
X0075443Y0352953D02*
X0078997Y0352953D01*
X0078997Y0362610D02*
X0078997Y0365966D01*
X0078997Y0362610D02*
X0075443Y0362610D01*
X0075443Y0365966D01*
X0078997Y0365966D01*
X0078997Y0363296D02*
X0075443Y0363296D01*
X0075443Y0363982D02*
X0078997Y0363982D01*
X0078997Y0364668D02*
X0075443Y0364668D01*
X0075443Y0365354D02*
X0078997Y0365354D01*
D13*
X0268165Y0445426D03*
X0268165Y0473426D03*
X0268322Y0480584D03*
X0268322Y0508584D03*
D14*
X0271858Y0405962D03*
X0261858Y0405962D03*
X0251858Y0405962D03*
X0241858Y0405962D03*
X0231858Y0405962D03*
X0221858Y0405962D03*
X0205881Y0405962D03*
X0195881Y0405962D03*
X0185881Y0405962D03*
X0175881Y0405962D03*
X0165881Y0405962D03*
X0155881Y0405962D03*
X0145881Y0405962D03*
X0135881Y0405962D03*
X0125881Y0405962D03*
X0115881Y0405962D03*
X0096826Y0266355D03*
X0096826Y0256277D03*
X0096747Y0246355D03*
X0096826Y0236119D03*
X0096826Y0226434D03*
X0086826Y0226434D03*
X0086826Y0236119D03*
X0086747Y0246355D03*
X0086826Y0256277D03*
X0086826Y0266355D03*
X0151826Y0235993D03*
X0161826Y0235993D03*
X0171826Y0235993D03*
X0181826Y0235993D03*
X0191826Y0235993D03*
X0201826Y0235993D03*
X0211826Y0235993D03*
X0221826Y0235993D03*
X0241826Y0235993D03*
X0251826Y0235993D03*
X0261826Y0235993D03*
X0271826Y0235993D03*
X0281826Y0235993D03*
X0291826Y0235993D03*
X0291858Y0405962D03*
X0281858Y0405962D03*
D15*
X0281147Y0461917D02*
X0283293Y0461917D01*
X0281147Y0461917D02*
X0281147Y0470361D01*
X0283293Y0470361D01*
X0283293Y0461917D01*
X0283293Y0462632D02*
X0281147Y0462632D01*
X0281147Y0463347D02*
X0283293Y0463347D01*
X0283293Y0464062D02*
X0281147Y0464062D01*
X0281147Y0464777D02*
X0283293Y0464777D01*
X0283293Y0465492D02*
X0281147Y0465492D01*
X0281147Y0466207D02*
X0283293Y0466207D01*
X0283293Y0466922D02*
X0281147Y0466922D01*
X0281147Y0467637D02*
X0283293Y0467637D01*
X0283293Y0468352D02*
X0281147Y0468352D01*
X0281147Y0469067D02*
X0283293Y0469067D01*
X0283293Y0469782D02*
X0281147Y0469782D01*
X0278293Y0461917D02*
X0276147Y0461917D01*
X0276147Y0470361D01*
X0278293Y0470361D01*
X0278293Y0461917D01*
X0278293Y0462632D02*
X0276147Y0462632D01*
X0276147Y0463347D02*
X0278293Y0463347D01*
X0278293Y0464062D02*
X0276147Y0464062D01*
X0276147Y0464777D02*
X0278293Y0464777D01*
X0278293Y0465492D02*
X0276147Y0465492D01*
X0276147Y0466207D02*
X0278293Y0466207D01*
X0278293Y0466922D02*
X0276147Y0466922D01*
X0276147Y0467637D02*
X0278293Y0467637D01*
X0278293Y0468352D02*
X0276147Y0468352D01*
X0276147Y0469067D02*
X0278293Y0469067D01*
X0278293Y0469782D02*
X0276147Y0469782D01*
X0286147Y0461917D02*
X0288293Y0461917D01*
X0286147Y0461917D02*
X0286147Y0470361D01*
X0288293Y0470361D01*
X0288293Y0461917D01*
X0288293Y0462632D02*
X0286147Y0462632D01*
X0286147Y0463347D02*
X0288293Y0463347D01*
X0288293Y0464062D02*
X0286147Y0464062D01*
X0286147Y0464777D02*
X0288293Y0464777D01*
X0288293Y0465492D02*
X0286147Y0465492D01*
X0286147Y0466207D02*
X0288293Y0466207D01*
X0288293Y0466922D02*
X0286147Y0466922D01*
X0286147Y0467637D02*
X0288293Y0467637D01*
X0288293Y0468352D02*
X0286147Y0468352D01*
X0286147Y0469067D02*
X0288293Y0469067D01*
X0288293Y0469782D02*
X0286147Y0469782D01*
X0291147Y0461917D02*
X0293293Y0461917D01*
X0291147Y0461917D02*
X0291147Y0470361D01*
X0293293Y0470361D01*
X0293293Y0461917D01*
X0293293Y0462632D02*
X0291147Y0462632D01*
X0291147Y0463347D02*
X0293293Y0463347D01*
X0293293Y0464062D02*
X0291147Y0464062D01*
X0291147Y0464777D02*
X0293293Y0464777D01*
X0293293Y0465492D02*
X0291147Y0465492D01*
X0291147Y0466207D02*
X0293293Y0466207D01*
X0293293Y0466922D02*
X0291147Y0466922D01*
X0291147Y0467637D02*
X0293293Y0467637D01*
X0293293Y0468352D02*
X0291147Y0468352D01*
X0291147Y0469067D02*
X0293293Y0469067D01*
X0293293Y0469782D02*
X0291147Y0469782D01*
X0291147Y0482389D02*
X0293293Y0482389D01*
X0291147Y0482389D02*
X0291147Y0490833D01*
X0293293Y0490833D01*
X0293293Y0482389D01*
X0293293Y0483104D02*
X0291147Y0483104D01*
X0291147Y0483819D02*
X0293293Y0483819D01*
X0293293Y0484534D02*
X0291147Y0484534D01*
X0291147Y0485249D02*
X0293293Y0485249D01*
X0293293Y0485964D02*
X0291147Y0485964D01*
X0291147Y0486679D02*
X0293293Y0486679D01*
X0293293Y0487394D02*
X0291147Y0487394D01*
X0291147Y0488109D02*
X0293293Y0488109D01*
X0293293Y0488824D02*
X0291147Y0488824D01*
X0291147Y0489539D02*
X0293293Y0489539D01*
X0293293Y0490254D02*
X0291147Y0490254D01*
X0288293Y0482389D02*
X0286147Y0482389D01*
X0286147Y0490833D01*
X0288293Y0490833D01*
X0288293Y0482389D01*
X0288293Y0483104D02*
X0286147Y0483104D01*
X0286147Y0483819D02*
X0288293Y0483819D01*
X0288293Y0484534D02*
X0286147Y0484534D01*
X0286147Y0485249D02*
X0288293Y0485249D01*
X0288293Y0485964D02*
X0286147Y0485964D01*
X0286147Y0486679D02*
X0288293Y0486679D01*
X0288293Y0487394D02*
X0286147Y0487394D01*
X0286147Y0488109D02*
X0288293Y0488109D01*
X0288293Y0488824D02*
X0286147Y0488824D01*
X0286147Y0489539D02*
X0288293Y0489539D01*
X0288293Y0490254D02*
X0286147Y0490254D01*
X0283293Y0482389D02*
X0281147Y0482389D01*
X0281147Y0490833D01*
X0283293Y0490833D01*
X0283293Y0482389D01*
X0283293Y0483104D02*
X0281147Y0483104D01*
X0281147Y0483819D02*
X0283293Y0483819D01*
X0283293Y0484534D02*
X0281147Y0484534D01*
X0281147Y0485249D02*
X0283293Y0485249D01*
X0283293Y0485964D02*
X0281147Y0485964D01*
X0281147Y0486679D02*
X0283293Y0486679D01*
X0283293Y0487394D02*
X0281147Y0487394D01*
X0281147Y0488109D02*
X0283293Y0488109D01*
X0283293Y0488824D02*
X0281147Y0488824D01*
X0281147Y0489539D02*
X0283293Y0489539D01*
X0283293Y0490254D02*
X0281147Y0490254D01*
X0278293Y0482389D02*
X0276147Y0482389D01*
X0276147Y0490833D01*
X0278293Y0490833D01*
X0278293Y0482389D01*
X0278293Y0483104D02*
X0276147Y0483104D01*
X0276147Y0483819D02*
X0278293Y0483819D01*
X0278293Y0484534D02*
X0276147Y0484534D01*
X0276147Y0485249D02*
X0278293Y0485249D01*
X0278293Y0485964D02*
X0276147Y0485964D01*
X0276147Y0486679D02*
X0278293Y0486679D01*
X0278293Y0487394D02*
X0276147Y0487394D01*
X0276147Y0488109D02*
X0278293Y0488109D01*
X0278293Y0488824D02*
X0276147Y0488824D01*
X0276147Y0489539D02*
X0278293Y0489539D01*
X0278293Y0490254D02*
X0276147Y0490254D01*
D16*
X0287363Y0441282D02*
X0289281Y0441282D01*
X0287363Y0441282D02*
X0287363Y0445760D01*
X0289281Y0445760D01*
X0289281Y0441282D01*
X0289281Y0442027D02*
X0287363Y0442027D01*
X0287363Y0442772D02*
X0289281Y0442772D01*
X0289281Y0443517D02*
X0287363Y0443517D01*
X0287363Y0444262D02*
X0289281Y0444262D01*
X0289281Y0445007D02*
X0287363Y0445007D01*
X0287363Y0445752D02*
X0289281Y0445752D01*
X0291103Y0441282D02*
X0293021Y0441282D01*
X0291103Y0441282D02*
X0291103Y0445760D01*
X0293021Y0445760D01*
X0293021Y0441282D01*
X0293021Y0442027D02*
X0291103Y0442027D01*
X0291103Y0442772D02*
X0293021Y0442772D01*
X0293021Y0443517D02*
X0291103Y0443517D01*
X0291103Y0444262D02*
X0293021Y0444262D01*
X0293021Y0445007D02*
X0291103Y0445007D01*
X0291103Y0445752D02*
X0293021Y0445752D01*
X0294844Y0441282D02*
X0296762Y0441282D01*
X0294844Y0441282D02*
X0294844Y0445760D01*
X0296762Y0445760D01*
X0296762Y0441282D01*
X0296762Y0442027D02*
X0294844Y0442027D01*
X0294844Y0442772D02*
X0296762Y0442772D01*
X0296762Y0443517D02*
X0294844Y0443517D01*
X0294844Y0444262D02*
X0296762Y0444262D01*
X0296762Y0445007D02*
X0294844Y0445007D01*
X0294844Y0445752D02*
X0296762Y0445752D01*
X0296762Y0431045D02*
X0294844Y0431045D01*
X0294844Y0435523D01*
X0296762Y0435523D01*
X0296762Y0431045D01*
X0296762Y0431790D02*
X0294844Y0431790D01*
X0294844Y0432535D02*
X0296762Y0432535D01*
X0296762Y0433280D02*
X0294844Y0433280D01*
X0294844Y0434025D02*
X0296762Y0434025D01*
X0296762Y0434770D02*
X0294844Y0434770D01*
X0294844Y0435515D02*
X0296762Y0435515D01*
X0289281Y0431045D02*
X0287363Y0431045D01*
X0287363Y0435523D01*
X0289281Y0435523D01*
X0289281Y0431045D01*
X0289281Y0431790D02*
X0287363Y0431790D01*
X0287363Y0432535D02*
X0289281Y0432535D01*
X0289281Y0433280D02*
X0287363Y0433280D01*
X0287363Y0434025D02*
X0289281Y0434025D01*
X0289281Y0434770D02*
X0287363Y0434770D01*
X0287363Y0435515D02*
X0289281Y0435515D01*
X0088927Y0308408D02*
X0087009Y0308408D01*
X0087009Y0312886D01*
X0088927Y0312886D01*
X0088927Y0308408D01*
X0088927Y0309153D02*
X0087009Y0309153D01*
X0087009Y0309898D02*
X0088927Y0309898D01*
X0088927Y0310643D02*
X0087009Y0310643D01*
X0087009Y0311388D02*
X0088927Y0311388D01*
X0088927Y0312133D02*
X0087009Y0312133D01*
X0087009Y0312878D02*
X0088927Y0312878D01*
X0085187Y0308408D02*
X0083269Y0308408D01*
X0083269Y0312886D01*
X0085187Y0312886D01*
X0085187Y0308408D01*
X0085187Y0309153D02*
X0083269Y0309153D01*
X0083269Y0309898D02*
X0085187Y0309898D01*
X0085187Y0310643D02*
X0083269Y0310643D01*
X0083269Y0311388D02*
X0085187Y0311388D01*
X0085187Y0312133D02*
X0083269Y0312133D01*
X0083269Y0312878D02*
X0085187Y0312878D01*
X0081447Y0308408D02*
X0079529Y0308408D01*
X0079529Y0312886D01*
X0081447Y0312886D01*
X0081447Y0308408D01*
X0081447Y0309153D02*
X0079529Y0309153D01*
X0079529Y0309898D02*
X0081447Y0309898D01*
X0081447Y0310643D02*
X0079529Y0310643D01*
X0079529Y0311388D02*
X0081447Y0311388D01*
X0081447Y0312133D02*
X0079529Y0312133D01*
X0079529Y0312878D02*
X0081447Y0312878D01*
X0081447Y0298171D02*
X0079529Y0298171D01*
X0079529Y0302649D01*
X0081447Y0302649D01*
X0081447Y0298171D01*
X0081447Y0298916D02*
X0079529Y0298916D01*
X0079529Y0299661D02*
X0081447Y0299661D01*
X0081447Y0300406D02*
X0079529Y0300406D01*
X0079529Y0301151D02*
X0081447Y0301151D01*
X0081447Y0301896D02*
X0079529Y0301896D01*
X0079529Y0302641D02*
X0081447Y0302641D01*
X0087009Y0298171D02*
X0088927Y0298171D01*
X0087009Y0298171D02*
X0087009Y0302649D01*
X0088927Y0302649D01*
X0088927Y0298171D01*
X0088927Y0298916D02*
X0087009Y0298916D01*
X0087009Y0299661D02*
X0088927Y0299661D01*
X0088927Y0300406D02*
X0087009Y0300406D01*
X0087009Y0301151D02*
X0088927Y0301151D01*
X0088927Y0301896D02*
X0087009Y0301896D01*
X0087009Y0302641D02*
X0088927Y0302641D01*
D17*
X0290718Y0373113D02*
X0290718Y0373693D01*
X0290718Y0373113D02*
X0289154Y0373113D01*
X0289154Y0373693D01*
X0290718Y0373693D01*
X0290718Y0375081D02*
X0290718Y0375661D01*
X0290718Y0375081D02*
X0289154Y0375081D01*
X0289154Y0375661D01*
X0290718Y0375661D01*
X0290718Y0377050D02*
X0290718Y0377630D01*
X0290718Y0377050D02*
X0289154Y0377050D01*
X0289154Y0377630D01*
X0290718Y0377630D01*
X0290718Y0379018D02*
X0290718Y0379598D01*
X0290718Y0379018D02*
X0289154Y0379018D01*
X0289154Y0379598D01*
X0290718Y0379598D01*
X0290718Y0380987D02*
X0290718Y0381567D01*
X0290718Y0380987D02*
X0289154Y0380987D01*
X0289154Y0381567D01*
X0290718Y0381567D01*
X0292993Y0383841D02*
X0293573Y0383841D01*
X0292993Y0383841D02*
X0292993Y0385405D01*
X0293573Y0385405D01*
X0293573Y0383841D01*
X0293573Y0384745D02*
X0292993Y0384745D01*
X0294961Y0383841D02*
X0295541Y0383841D01*
X0294961Y0383841D02*
X0294961Y0385405D01*
X0295541Y0385405D01*
X0295541Y0383841D01*
X0295541Y0384745D02*
X0294961Y0384745D01*
X0296930Y0383841D02*
X0297510Y0383841D01*
X0296930Y0383841D02*
X0296930Y0385405D01*
X0297510Y0385405D01*
X0297510Y0383841D01*
X0297510Y0384745D02*
X0296930Y0384745D01*
X0298898Y0383841D02*
X0299478Y0383841D01*
X0298898Y0383841D02*
X0298898Y0385405D01*
X0299478Y0385405D01*
X0299478Y0383841D01*
X0299478Y0384745D02*
X0298898Y0384745D01*
X0300867Y0383841D02*
X0301447Y0383841D01*
X0300867Y0383841D02*
X0300867Y0385405D01*
X0301447Y0385405D01*
X0301447Y0383841D01*
X0301447Y0384745D02*
X0300867Y0384745D01*
X0303721Y0381567D02*
X0303721Y0380987D01*
X0303721Y0381567D02*
X0305285Y0381567D01*
X0305285Y0380987D01*
X0303721Y0380987D01*
X0303721Y0379598D02*
X0303721Y0379018D01*
X0303721Y0379598D02*
X0305285Y0379598D01*
X0305285Y0379018D01*
X0303721Y0379018D01*
X0303721Y0377630D02*
X0303721Y0377050D01*
X0303721Y0377630D02*
X0305285Y0377630D01*
X0305285Y0377050D01*
X0303721Y0377050D01*
X0303721Y0375661D02*
X0303721Y0375081D01*
X0303721Y0375661D02*
X0305285Y0375661D01*
X0305285Y0375081D01*
X0303721Y0375081D01*
X0303721Y0373693D02*
X0303721Y0373113D01*
X0303721Y0373693D02*
X0305285Y0373693D01*
X0305285Y0373113D01*
X0303721Y0373113D01*
X0301447Y0370838D02*
X0300867Y0370838D01*
X0301447Y0370838D02*
X0301447Y0369274D01*
X0300867Y0369274D01*
X0300867Y0370838D01*
X0300867Y0370178D02*
X0301447Y0370178D01*
X0299478Y0370838D02*
X0298898Y0370838D01*
X0299478Y0370838D02*
X0299478Y0369274D01*
X0298898Y0369274D01*
X0298898Y0370838D01*
X0298898Y0370178D02*
X0299478Y0370178D01*
X0297510Y0370838D02*
X0296930Y0370838D01*
X0297510Y0370838D02*
X0297510Y0369274D01*
X0296930Y0369274D01*
X0296930Y0370838D01*
X0296930Y0370178D02*
X0297510Y0370178D01*
X0295541Y0370838D02*
X0294961Y0370838D01*
X0295541Y0370838D02*
X0295541Y0369274D01*
X0294961Y0369274D01*
X0294961Y0370838D01*
X0294961Y0370178D02*
X0295541Y0370178D01*
X0293573Y0370838D02*
X0292993Y0370838D01*
X0293573Y0370838D02*
X0293573Y0369274D01*
X0292993Y0369274D01*
X0292993Y0370838D01*
X0292993Y0370178D02*
X0293573Y0370178D01*
D18*
X0293451Y0373571D02*
X0300989Y0373571D01*
X0293451Y0373571D02*
X0293451Y0381109D01*
X0300989Y0381109D01*
X0300989Y0373571D01*
X0300989Y0374407D02*
X0293451Y0374407D01*
X0293451Y0375243D02*
X0300989Y0375243D01*
X0300989Y0376079D02*
X0293451Y0376079D01*
X0293451Y0376915D02*
X0300989Y0376915D01*
X0300989Y0377751D02*
X0293451Y0377751D01*
X0293451Y0378587D02*
X0300989Y0378587D01*
X0300989Y0379423D02*
X0293451Y0379423D01*
X0293451Y0380259D02*
X0300989Y0380259D01*
X0300989Y0381095D02*
X0293451Y0381095D01*
D19*
X0197879Y0453059D02*
X0192151Y0453059D01*
X0192151Y0457605D01*
X0197879Y0457605D01*
X0197879Y0453059D01*
X0197879Y0453737D02*
X0192151Y0453737D01*
X0192151Y0454415D02*
X0197879Y0454415D01*
X0197879Y0455093D02*
X0192151Y0455093D01*
X0192151Y0455771D02*
X0197879Y0455771D01*
X0197879Y0456449D02*
X0192151Y0456449D01*
X0192151Y0457127D02*
X0197879Y0457127D01*
X0197879Y0461720D02*
X0192151Y0461720D01*
X0192151Y0466266D01*
X0197879Y0466266D01*
X0197879Y0461720D01*
X0197879Y0462398D02*
X0192151Y0462398D01*
X0192151Y0463076D02*
X0197879Y0463076D01*
X0197879Y0463754D02*
X0192151Y0463754D01*
X0192151Y0464432D02*
X0197879Y0464432D01*
X0197879Y0465110D02*
X0192151Y0465110D01*
X0192151Y0465788D02*
X0197879Y0465788D01*
X0182919Y0461720D02*
X0177191Y0461720D01*
X0177191Y0466266D01*
X0182919Y0466266D01*
X0182919Y0461720D01*
X0182919Y0462398D02*
X0177191Y0462398D01*
X0177191Y0463076D02*
X0182919Y0463076D01*
X0182919Y0463754D02*
X0177191Y0463754D01*
X0177191Y0464432D02*
X0182919Y0464432D01*
X0182919Y0465110D02*
X0177191Y0465110D01*
X0177191Y0465788D02*
X0182919Y0465788D01*
X0182919Y0453059D02*
X0177191Y0453059D01*
X0177191Y0457605D01*
X0182919Y0457605D01*
X0182919Y0453059D01*
X0182919Y0453737D02*
X0177191Y0453737D01*
X0177191Y0454415D02*
X0182919Y0454415D01*
X0182919Y0455093D02*
X0177191Y0455093D01*
X0177191Y0455771D02*
X0182919Y0455771D01*
X0182919Y0456449D02*
X0177191Y0456449D01*
X0177191Y0457127D02*
X0182919Y0457127D01*
D20*
X0147440Y0213166D03*
X0139440Y0213166D03*
X0143440Y0193166D03*
X0143440Y0177733D03*
X0139440Y0157733D03*
X0147440Y0157733D03*
D21*
X0153440Y0165233D03*
X0153440Y0177733D03*
X0153440Y0193166D03*
X0153440Y0205666D03*
X0133440Y0205666D03*
X0133440Y0193166D03*
X0133440Y0177733D03*
X0133440Y0165233D03*
D22*
X0227832Y0432318D02*
X0228656Y0432318D01*
X0228656Y0430510D01*
X0227832Y0430510D01*
X0227832Y0432318D01*
X0227832Y0431366D02*
X0228656Y0431366D01*
X0228656Y0432222D02*
X0227832Y0432222D01*
X0229800Y0432318D02*
X0230624Y0432318D01*
X0230624Y0430510D01*
X0229800Y0430510D01*
X0229800Y0432318D01*
X0229800Y0431366D02*
X0230624Y0431366D01*
X0230624Y0432222D02*
X0229800Y0432222D01*
X0229800Y0438027D02*
X0230624Y0438027D01*
X0230624Y0436219D01*
X0229800Y0436219D01*
X0229800Y0438027D01*
X0229800Y0437075D02*
X0230624Y0437075D01*
X0230624Y0437931D02*
X0229800Y0437931D01*
X0228656Y0438027D02*
X0227832Y0438027D01*
X0228656Y0438027D02*
X0228656Y0436219D01*
X0227832Y0436219D01*
X0227832Y0438027D01*
X0227832Y0437075D02*
X0228656Y0437075D01*
X0228656Y0437931D02*
X0227832Y0437931D01*
D23*
X0230801Y0435133D02*
X0230801Y0433405D01*
X0227655Y0433405D01*
X0227655Y0435133D01*
X0230801Y0435133D01*
X0230801Y0434145D02*
X0227655Y0434145D01*
X0227655Y0434885D02*
X0230801Y0434885D01*
D24*
X0214094Y0434993D02*
X0210976Y0434993D01*
X0210976Y0435513D01*
X0214094Y0435513D01*
X0214094Y0434993D01*
X0214094Y0436962D02*
X0210976Y0436962D01*
X0210976Y0437482D01*
X0214094Y0437482D01*
X0214094Y0436962D01*
X0214094Y0438930D02*
X0210976Y0438930D01*
X0210976Y0439450D01*
X0214094Y0439450D01*
X0214094Y0438930D01*
X0214094Y0440899D02*
X0210976Y0440899D01*
X0210976Y0441419D01*
X0214094Y0441419D01*
X0214094Y0440899D01*
X0214094Y0442867D02*
X0210976Y0442867D01*
X0210976Y0443387D01*
X0214094Y0443387D01*
X0214094Y0442867D01*
X0208141Y0443733D02*
X0208141Y0446851D01*
X0208661Y0446851D01*
X0208661Y0443733D01*
X0208141Y0443733D01*
X0208141Y0444657D02*
X0208661Y0444657D01*
X0208661Y0445581D02*
X0208141Y0445581D01*
X0208141Y0446505D02*
X0208661Y0446505D01*
X0206172Y0446851D02*
X0206172Y0443733D01*
X0206172Y0446851D02*
X0206692Y0446851D01*
X0206692Y0443733D01*
X0206172Y0443733D01*
X0206172Y0444657D02*
X0206692Y0444657D01*
X0206692Y0445581D02*
X0206172Y0445581D01*
X0206172Y0446505D02*
X0206692Y0446505D01*
X0203858Y0443387D02*
X0200740Y0443387D01*
X0203858Y0443387D02*
X0203858Y0442867D01*
X0200740Y0442867D01*
X0200740Y0443387D01*
X0200740Y0441419D02*
X0203858Y0441419D01*
X0203858Y0440899D01*
X0200740Y0440899D01*
X0200740Y0441419D01*
X0200740Y0439450D02*
X0203858Y0439450D01*
X0203858Y0438930D01*
X0200740Y0438930D01*
X0200740Y0439450D01*
X0200740Y0437482D02*
X0203858Y0437482D01*
X0203858Y0436962D01*
X0200740Y0436962D01*
X0200740Y0437482D01*
X0200740Y0435513D02*
X0203858Y0435513D01*
X0203858Y0434993D01*
X0200740Y0434993D01*
X0200740Y0435513D01*
X0206692Y0434647D02*
X0206692Y0431529D01*
X0206172Y0431529D01*
X0206172Y0434647D01*
X0206692Y0434647D01*
X0206692Y0432453D02*
X0206172Y0432453D01*
X0206172Y0433377D02*
X0206692Y0433377D01*
X0206692Y0434301D02*
X0206172Y0434301D01*
X0208661Y0434647D02*
X0208661Y0431529D01*
X0208141Y0431529D01*
X0208141Y0434647D01*
X0208661Y0434647D01*
X0208661Y0432453D02*
X0208141Y0432453D01*
X0208141Y0433377D02*
X0208661Y0433377D01*
X0208661Y0434301D02*
X0208141Y0434301D01*
X0296259Y0183269D02*
X0296259Y0180151D01*
X0295739Y0180151D01*
X0295739Y0183269D01*
X0296259Y0183269D01*
X0296259Y0181075D02*
X0295739Y0181075D01*
X0295739Y0181999D02*
X0296259Y0181999D01*
X0296259Y0182923D02*
X0295739Y0182923D01*
X0298228Y0183269D02*
X0298228Y0180151D01*
X0297708Y0180151D01*
X0297708Y0183269D01*
X0298228Y0183269D01*
X0298228Y0181075D02*
X0297708Y0181075D01*
X0297708Y0181999D02*
X0298228Y0181999D01*
X0298228Y0182923D02*
X0297708Y0182923D01*
X0300196Y0183269D02*
X0300196Y0180151D01*
X0299676Y0180151D01*
X0299676Y0183269D01*
X0300196Y0183269D01*
X0300196Y0181075D02*
X0299676Y0181075D01*
X0299676Y0181999D02*
X0300196Y0181999D01*
X0300196Y0182923D02*
X0299676Y0182923D01*
X0302165Y0183269D02*
X0302165Y0180151D01*
X0301645Y0180151D01*
X0301645Y0183269D01*
X0302165Y0183269D01*
X0302165Y0181075D02*
X0301645Y0181075D01*
X0301645Y0181999D02*
X0302165Y0181999D01*
X0302165Y0182923D02*
X0301645Y0182923D01*
X0304133Y0183269D02*
X0304133Y0180151D01*
X0303613Y0180151D01*
X0303613Y0183269D01*
X0304133Y0183269D01*
X0304133Y0181075D02*
X0303613Y0181075D01*
X0303613Y0181999D02*
X0304133Y0181999D01*
X0304133Y0182923D02*
X0303613Y0182923D01*
X0304480Y0177836D02*
X0307598Y0177836D01*
X0307598Y0177316D01*
X0304480Y0177316D01*
X0304480Y0177836D01*
X0304480Y0175867D02*
X0307598Y0175867D01*
X0307598Y0175347D01*
X0304480Y0175347D01*
X0304480Y0175867D01*
X0303613Y0173032D02*
X0303613Y0169914D01*
X0303613Y0173032D02*
X0304133Y0173032D01*
X0304133Y0169914D01*
X0303613Y0169914D01*
X0303613Y0170838D02*
X0304133Y0170838D01*
X0304133Y0171762D02*
X0303613Y0171762D01*
X0303613Y0172686D02*
X0304133Y0172686D01*
X0301645Y0173032D02*
X0301645Y0169914D01*
X0301645Y0173032D02*
X0302165Y0173032D01*
X0302165Y0169914D01*
X0301645Y0169914D01*
X0301645Y0170838D02*
X0302165Y0170838D01*
X0302165Y0171762D02*
X0301645Y0171762D01*
X0301645Y0172686D02*
X0302165Y0172686D01*
X0299676Y0173032D02*
X0299676Y0169914D01*
X0299676Y0173032D02*
X0300196Y0173032D01*
X0300196Y0169914D01*
X0299676Y0169914D01*
X0299676Y0170838D02*
X0300196Y0170838D01*
X0300196Y0171762D02*
X0299676Y0171762D01*
X0299676Y0172686D02*
X0300196Y0172686D01*
X0297708Y0173032D02*
X0297708Y0169914D01*
X0297708Y0173032D02*
X0298228Y0173032D01*
X0298228Y0169914D01*
X0297708Y0169914D01*
X0297708Y0170838D02*
X0298228Y0170838D01*
X0298228Y0171762D02*
X0297708Y0171762D01*
X0297708Y0172686D02*
X0298228Y0172686D01*
X0295739Y0173032D02*
X0295739Y0169914D01*
X0295739Y0173032D02*
X0296259Y0173032D01*
X0296259Y0169914D01*
X0295739Y0169914D01*
X0295739Y0170838D02*
X0296259Y0170838D01*
X0296259Y0171762D02*
X0295739Y0171762D01*
X0295739Y0172686D02*
X0296259Y0172686D01*
X0295393Y0175347D02*
X0292275Y0175347D01*
X0292275Y0175867D01*
X0295393Y0175867D01*
X0295393Y0175347D01*
X0295393Y0177316D02*
X0292275Y0177316D01*
X0292275Y0177836D01*
X0295393Y0177836D01*
X0295393Y0177316D01*
D25*
X0292062Y0225962D03*
X0282062Y0225962D03*
X0272062Y0225962D03*
X0262062Y0225962D03*
X0252062Y0225962D03*
X0242062Y0225962D03*
X0222062Y0225962D03*
X0212062Y0225962D03*
X0202062Y0225962D03*
X0192062Y0225962D03*
X0182062Y0225962D03*
X0172062Y0225962D03*
X0162062Y0225962D03*
X0152062Y0225962D03*
X0156062Y0415962D03*
X0166062Y0415962D03*
X0176062Y0415962D03*
X0186062Y0415962D03*
X0196062Y0415962D03*
X0206062Y0415962D03*
X0222062Y0415962D03*
X0232062Y0415962D03*
X0242062Y0415962D03*
X0252062Y0415962D03*
X0262062Y0415962D03*
X0272062Y0415962D03*
X0282062Y0415962D03*
X0292062Y0415962D03*
X0146062Y0415962D03*
X0136062Y0415962D03*
X0126062Y0415962D03*
X0116062Y0415962D03*
D26*
X0073897Y0478929D02*
X0073899Y0479060D01*
X0073905Y0479192D01*
X0073915Y0479323D01*
X0073929Y0479454D01*
X0073947Y0479584D01*
X0073969Y0479713D01*
X0073994Y0479842D01*
X0074024Y0479970D01*
X0074058Y0480097D01*
X0074095Y0480224D01*
X0074136Y0480348D01*
X0074181Y0480472D01*
X0074230Y0480594D01*
X0074282Y0480715D01*
X0074338Y0480833D01*
X0074398Y0480951D01*
X0074461Y0481066D01*
X0074528Y0481179D01*
X0074598Y0481291D01*
X0074671Y0481400D01*
X0074747Y0481506D01*
X0074827Y0481611D01*
X0074910Y0481713D01*
X0074996Y0481812D01*
X0075085Y0481909D01*
X0075177Y0482003D01*
X0075272Y0482094D01*
X0075369Y0482183D01*
X0075469Y0482268D01*
X0075572Y0482350D01*
X0075677Y0482429D01*
X0075784Y0482505D01*
X0075894Y0482577D01*
X0076006Y0482646D01*
X0076120Y0482712D01*
X0076235Y0482774D01*
X0076353Y0482833D01*
X0076472Y0482888D01*
X0076593Y0482940D01*
X0076716Y0482987D01*
X0076840Y0483031D01*
X0076965Y0483072D01*
X0077091Y0483108D01*
X0077219Y0483141D01*
X0077347Y0483169D01*
X0077476Y0483194D01*
X0077606Y0483215D01*
X0077736Y0483232D01*
X0077867Y0483245D01*
X0077998Y0483254D01*
X0078129Y0483259D01*
X0078261Y0483260D01*
X0078392Y0483257D01*
X0078524Y0483250D01*
X0078655Y0483239D01*
X0078785Y0483224D01*
X0078915Y0483205D01*
X0079045Y0483182D01*
X0079173Y0483156D01*
X0079301Y0483125D01*
X0079428Y0483090D01*
X0079554Y0483052D01*
X0079678Y0483010D01*
X0079802Y0482964D01*
X0079923Y0482914D01*
X0080043Y0482861D01*
X0080162Y0482804D01*
X0080279Y0482744D01*
X0080393Y0482680D01*
X0080506Y0482612D01*
X0080617Y0482541D01*
X0080726Y0482467D01*
X0080832Y0482390D01*
X0080936Y0482309D01*
X0081037Y0482226D01*
X0081136Y0482139D01*
X0081232Y0482049D01*
X0081325Y0481956D01*
X0081416Y0481861D01*
X0081503Y0481763D01*
X0081588Y0481662D01*
X0081669Y0481559D01*
X0081747Y0481453D01*
X0081822Y0481345D01*
X0081894Y0481235D01*
X0081962Y0481123D01*
X0082027Y0481009D01*
X0082088Y0480892D01*
X0082146Y0480774D01*
X0082200Y0480654D01*
X0082251Y0480533D01*
X0082298Y0480410D01*
X0082341Y0480286D01*
X0082380Y0480161D01*
X0082416Y0480034D01*
X0082447Y0479906D01*
X0082475Y0479778D01*
X0082499Y0479649D01*
X0082519Y0479519D01*
X0082535Y0479388D01*
X0082547Y0479257D01*
X0082555Y0479126D01*
X0082559Y0478995D01*
X0082559Y0478863D01*
X0082555Y0478732D01*
X0082547Y0478601D01*
X0082535Y0478470D01*
X0082519Y0478339D01*
X0082499Y0478209D01*
X0082475Y0478080D01*
X0082447Y0477952D01*
X0082416Y0477824D01*
X0082380Y0477697D01*
X0082341Y0477572D01*
X0082298Y0477448D01*
X0082251Y0477325D01*
X0082200Y0477204D01*
X0082146Y0477084D01*
X0082088Y0476966D01*
X0082027Y0476849D01*
X0081962Y0476735D01*
X0081894Y0476623D01*
X0081822Y0476513D01*
X0081747Y0476405D01*
X0081669Y0476299D01*
X0081588Y0476196D01*
X0081503Y0476095D01*
X0081416Y0475997D01*
X0081325Y0475902D01*
X0081232Y0475809D01*
X0081136Y0475719D01*
X0081037Y0475632D01*
X0080936Y0475549D01*
X0080832Y0475468D01*
X0080726Y0475391D01*
X0080617Y0475317D01*
X0080506Y0475246D01*
X0080394Y0475178D01*
X0080279Y0475114D01*
X0080162Y0475054D01*
X0080043Y0474997D01*
X0079923Y0474944D01*
X0079802Y0474894D01*
X0079678Y0474848D01*
X0079554Y0474806D01*
X0079428Y0474768D01*
X0079301Y0474733D01*
X0079173Y0474702D01*
X0079045Y0474676D01*
X0078915Y0474653D01*
X0078785Y0474634D01*
X0078655Y0474619D01*
X0078524Y0474608D01*
X0078392Y0474601D01*
X0078261Y0474598D01*
X0078129Y0474599D01*
X0077998Y0474604D01*
X0077867Y0474613D01*
X0077736Y0474626D01*
X0077606Y0474643D01*
X0077476Y0474664D01*
X0077347Y0474689D01*
X0077219Y0474717D01*
X0077091Y0474750D01*
X0076965Y0474786D01*
X0076840Y0474827D01*
X0076716Y0474871D01*
X0076593Y0474918D01*
X0076472Y0474970D01*
X0076353Y0475025D01*
X0076235Y0475084D01*
X0076120Y0475146D01*
X0076006Y0475212D01*
X0075894Y0475281D01*
X0075784Y0475353D01*
X0075677Y0475429D01*
X0075572Y0475508D01*
X0075469Y0475590D01*
X0075369Y0475675D01*
X0075272Y0475764D01*
X0075177Y0475855D01*
X0075085Y0475949D01*
X0074996Y0476046D01*
X0074910Y0476145D01*
X0074827Y0476247D01*
X0074747Y0476352D01*
X0074671Y0476458D01*
X0074598Y0476567D01*
X0074528Y0476679D01*
X0074461Y0476792D01*
X0074398Y0476907D01*
X0074338Y0477025D01*
X0074282Y0477143D01*
X0074230Y0477264D01*
X0074181Y0477386D01*
X0074136Y0477510D01*
X0074095Y0477634D01*
X0074058Y0477761D01*
X0074024Y0477888D01*
X0073994Y0478016D01*
X0073969Y0478145D01*
X0073947Y0478274D01*
X0073929Y0478404D01*
X0073915Y0478535D01*
X0073905Y0478666D01*
X0073899Y0478798D01*
X0073897Y0478929D01*
X0216897Y0454929D02*
X0216899Y0455060D01*
X0216905Y0455192D01*
X0216915Y0455323D01*
X0216929Y0455454D01*
X0216947Y0455584D01*
X0216969Y0455713D01*
X0216994Y0455842D01*
X0217024Y0455970D01*
X0217058Y0456097D01*
X0217095Y0456224D01*
X0217136Y0456348D01*
X0217181Y0456472D01*
X0217230Y0456594D01*
X0217282Y0456715D01*
X0217338Y0456833D01*
X0217398Y0456951D01*
X0217461Y0457066D01*
X0217528Y0457179D01*
X0217598Y0457291D01*
X0217671Y0457400D01*
X0217747Y0457506D01*
X0217827Y0457611D01*
X0217910Y0457713D01*
X0217996Y0457812D01*
X0218085Y0457909D01*
X0218177Y0458003D01*
X0218272Y0458094D01*
X0218369Y0458183D01*
X0218469Y0458268D01*
X0218572Y0458350D01*
X0218677Y0458429D01*
X0218784Y0458505D01*
X0218894Y0458577D01*
X0219006Y0458646D01*
X0219120Y0458712D01*
X0219235Y0458774D01*
X0219353Y0458833D01*
X0219472Y0458888D01*
X0219593Y0458940D01*
X0219716Y0458987D01*
X0219840Y0459031D01*
X0219965Y0459072D01*
X0220091Y0459108D01*
X0220219Y0459141D01*
X0220347Y0459169D01*
X0220476Y0459194D01*
X0220606Y0459215D01*
X0220736Y0459232D01*
X0220867Y0459245D01*
X0220998Y0459254D01*
X0221129Y0459259D01*
X0221261Y0459260D01*
X0221392Y0459257D01*
X0221524Y0459250D01*
X0221655Y0459239D01*
X0221785Y0459224D01*
X0221915Y0459205D01*
X0222045Y0459182D01*
X0222173Y0459156D01*
X0222301Y0459125D01*
X0222428Y0459090D01*
X0222554Y0459052D01*
X0222678Y0459010D01*
X0222802Y0458964D01*
X0222923Y0458914D01*
X0223043Y0458861D01*
X0223162Y0458804D01*
X0223279Y0458744D01*
X0223393Y0458680D01*
X0223506Y0458612D01*
X0223617Y0458541D01*
X0223726Y0458467D01*
X0223832Y0458390D01*
X0223936Y0458309D01*
X0224037Y0458226D01*
X0224136Y0458139D01*
X0224232Y0458049D01*
X0224325Y0457956D01*
X0224416Y0457861D01*
X0224503Y0457763D01*
X0224588Y0457662D01*
X0224669Y0457559D01*
X0224747Y0457453D01*
X0224822Y0457345D01*
X0224894Y0457235D01*
X0224962Y0457123D01*
X0225027Y0457009D01*
X0225088Y0456892D01*
X0225146Y0456774D01*
X0225200Y0456654D01*
X0225251Y0456533D01*
X0225298Y0456410D01*
X0225341Y0456286D01*
X0225380Y0456161D01*
X0225416Y0456034D01*
X0225447Y0455906D01*
X0225475Y0455778D01*
X0225499Y0455649D01*
X0225519Y0455519D01*
X0225535Y0455388D01*
X0225547Y0455257D01*
X0225555Y0455126D01*
X0225559Y0454995D01*
X0225559Y0454863D01*
X0225555Y0454732D01*
X0225547Y0454601D01*
X0225535Y0454470D01*
X0225519Y0454339D01*
X0225499Y0454209D01*
X0225475Y0454080D01*
X0225447Y0453952D01*
X0225416Y0453824D01*
X0225380Y0453697D01*
X0225341Y0453572D01*
X0225298Y0453448D01*
X0225251Y0453325D01*
X0225200Y0453204D01*
X0225146Y0453084D01*
X0225088Y0452966D01*
X0225027Y0452849D01*
X0224962Y0452735D01*
X0224894Y0452623D01*
X0224822Y0452513D01*
X0224747Y0452405D01*
X0224669Y0452299D01*
X0224588Y0452196D01*
X0224503Y0452095D01*
X0224416Y0451997D01*
X0224325Y0451902D01*
X0224232Y0451809D01*
X0224136Y0451719D01*
X0224037Y0451632D01*
X0223936Y0451549D01*
X0223832Y0451468D01*
X0223726Y0451391D01*
X0223617Y0451317D01*
X0223506Y0451246D01*
X0223394Y0451178D01*
X0223279Y0451114D01*
X0223162Y0451054D01*
X0223043Y0450997D01*
X0222923Y0450944D01*
X0222802Y0450894D01*
X0222678Y0450848D01*
X0222554Y0450806D01*
X0222428Y0450768D01*
X0222301Y0450733D01*
X0222173Y0450702D01*
X0222045Y0450676D01*
X0221915Y0450653D01*
X0221785Y0450634D01*
X0221655Y0450619D01*
X0221524Y0450608D01*
X0221392Y0450601D01*
X0221261Y0450598D01*
X0221129Y0450599D01*
X0220998Y0450604D01*
X0220867Y0450613D01*
X0220736Y0450626D01*
X0220606Y0450643D01*
X0220476Y0450664D01*
X0220347Y0450689D01*
X0220219Y0450717D01*
X0220091Y0450750D01*
X0219965Y0450786D01*
X0219840Y0450827D01*
X0219716Y0450871D01*
X0219593Y0450918D01*
X0219472Y0450970D01*
X0219353Y0451025D01*
X0219235Y0451084D01*
X0219120Y0451146D01*
X0219006Y0451212D01*
X0218894Y0451281D01*
X0218784Y0451353D01*
X0218677Y0451429D01*
X0218572Y0451508D01*
X0218469Y0451590D01*
X0218369Y0451675D01*
X0218272Y0451764D01*
X0218177Y0451855D01*
X0218085Y0451949D01*
X0217996Y0452046D01*
X0217910Y0452145D01*
X0217827Y0452247D01*
X0217747Y0452352D01*
X0217671Y0452458D01*
X0217598Y0452567D01*
X0217528Y0452679D01*
X0217461Y0452792D01*
X0217398Y0452907D01*
X0217338Y0453025D01*
X0217282Y0453143D01*
X0217230Y0453264D01*
X0217181Y0453386D01*
X0217136Y0453510D01*
X0217095Y0453634D01*
X0217058Y0453761D01*
X0217024Y0453888D01*
X0216994Y0454016D01*
X0216969Y0454145D01*
X0216947Y0454274D01*
X0216929Y0454404D01*
X0216915Y0454535D01*
X0216905Y0454666D01*
X0216899Y0454798D01*
X0216897Y0454929D01*
X0257897Y0432929D02*
X0257899Y0433060D01*
X0257905Y0433192D01*
X0257915Y0433323D01*
X0257929Y0433454D01*
X0257947Y0433584D01*
X0257969Y0433713D01*
X0257994Y0433842D01*
X0258024Y0433970D01*
X0258058Y0434097D01*
X0258095Y0434224D01*
X0258136Y0434348D01*
X0258181Y0434472D01*
X0258230Y0434594D01*
X0258282Y0434715D01*
X0258338Y0434833D01*
X0258398Y0434951D01*
X0258461Y0435066D01*
X0258528Y0435179D01*
X0258598Y0435291D01*
X0258671Y0435400D01*
X0258747Y0435506D01*
X0258827Y0435611D01*
X0258910Y0435713D01*
X0258996Y0435812D01*
X0259085Y0435909D01*
X0259177Y0436003D01*
X0259272Y0436094D01*
X0259369Y0436183D01*
X0259469Y0436268D01*
X0259572Y0436350D01*
X0259677Y0436429D01*
X0259784Y0436505D01*
X0259894Y0436577D01*
X0260006Y0436646D01*
X0260120Y0436712D01*
X0260235Y0436774D01*
X0260353Y0436833D01*
X0260472Y0436888D01*
X0260593Y0436940D01*
X0260716Y0436987D01*
X0260840Y0437031D01*
X0260965Y0437072D01*
X0261091Y0437108D01*
X0261219Y0437141D01*
X0261347Y0437169D01*
X0261476Y0437194D01*
X0261606Y0437215D01*
X0261736Y0437232D01*
X0261867Y0437245D01*
X0261998Y0437254D01*
X0262129Y0437259D01*
X0262261Y0437260D01*
X0262392Y0437257D01*
X0262524Y0437250D01*
X0262655Y0437239D01*
X0262785Y0437224D01*
X0262915Y0437205D01*
X0263045Y0437182D01*
X0263173Y0437156D01*
X0263301Y0437125D01*
X0263428Y0437090D01*
X0263554Y0437052D01*
X0263678Y0437010D01*
X0263802Y0436964D01*
X0263923Y0436914D01*
X0264043Y0436861D01*
X0264162Y0436804D01*
X0264279Y0436744D01*
X0264393Y0436680D01*
X0264506Y0436612D01*
X0264617Y0436541D01*
X0264726Y0436467D01*
X0264832Y0436390D01*
X0264936Y0436309D01*
X0265037Y0436226D01*
X0265136Y0436139D01*
X0265232Y0436049D01*
X0265325Y0435956D01*
X0265416Y0435861D01*
X0265503Y0435763D01*
X0265588Y0435662D01*
X0265669Y0435559D01*
X0265747Y0435453D01*
X0265822Y0435345D01*
X0265894Y0435235D01*
X0265962Y0435123D01*
X0266027Y0435009D01*
X0266088Y0434892D01*
X0266146Y0434774D01*
X0266200Y0434654D01*
X0266251Y0434533D01*
X0266298Y0434410D01*
X0266341Y0434286D01*
X0266380Y0434161D01*
X0266416Y0434034D01*
X0266447Y0433906D01*
X0266475Y0433778D01*
X0266499Y0433649D01*
X0266519Y0433519D01*
X0266535Y0433388D01*
X0266547Y0433257D01*
X0266555Y0433126D01*
X0266559Y0432995D01*
X0266559Y0432863D01*
X0266555Y0432732D01*
X0266547Y0432601D01*
X0266535Y0432470D01*
X0266519Y0432339D01*
X0266499Y0432209D01*
X0266475Y0432080D01*
X0266447Y0431952D01*
X0266416Y0431824D01*
X0266380Y0431697D01*
X0266341Y0431572D01*
X0266298Y0431448D01*
X0266251Y0431325D01*
X0266200Y0431204D01*
X0266146Y0431084D01*
X0266088Y0430966D01*
X0266027Y0430849D01*
X0265962Y0430735D01*
X0265894Y0430623D01*
X0265822Y0430513D01*
X0265747Y0430405D01*
X0265669Y0430299D01*
X0265588Y0430196D01*
X0265503Y0430095D01*
X0265416Y0429997D01*
X0265325Y0429902D01*
X0265232Y0429809D01*
X0265136Y0429719D01*
X0265037Y0429632D01*
X0264936Y0429549D01*
X0264832Y0429468D01*
X0264726Y0429391D01*
X0264617Y0429317D01*
X0264506Y0429246D01*
X0264394Y0429178D01*
X0264279Y0429114D01*
X0264162Y0429054D01*
X0264043Y0428997D01*
X0263923Y0428944D01*
X0263802Y0428894D01*
X0263678Y0428848D01*
X0263554Y0428806D01*
X0263428Y0428768D01*
X0263301Y0428733D01*
X0263173Y0428702D01*
X0263045Y0428676D01*
X0262915Y0428653D01*
X0262785Y0428634D01*
X0262655Y0428619D01*
X0262524Y0428608D01*
X0262392Y0428601D01*
X0262261Y0428598D01*
X0262129Y0428599D01*
X0261998Y0428604D01*
X0261867Y0428613D01*
X0261736Y0428626D01*
X0261606Y0428643D01*
X0261476Y0428664D01*
X0261347Y0428689D01*
X0261219Y0428717D01*
X0261091Y0428750D01*
X0260965Y0428786D01*
X0260840Y0428827D01*
X0260716Y0428871D01*
X0260593Y0428918D01*
X0260472Y0428970D01*
X0260353Y0429025D01*
X0260235Y0429084D01*
X0260120Y0429146D01*
X0260006Y0429212D01*
X0259894Y0429281D01*
X0259784Y0429353D01*
X0259677Y0429429D01*
X0259572Y0429508D01*
X0259469Y0429590D01*
X0259369Y0429675D01*
X0259272Y0429764D01*
X0259177Y0429855D01*
X0259085Y0429949D01*
X0258996Y0430046D01*
X0258910Y0430145D01*
X0258827Y0430247D01*
X0258747Y0430352D01*
X0258671Y0430458D01*
X0258598Y0430567D01*
X0258528Y0430679D01*
X0258461Y0430792D01*
X0258398Y0430907D01*
X0258338Y0431025D01*
X0258282Y0431143D01*
X0258230Y0431264D01*
X0258181Y0431386D01*
X0258136Y0431510D01*
X0258095Y0431634D01*
X0258058Y0431761D01*
X0258024Y0431888D01*
X0257994Y0432016D01*
X0257969Y0432145D01*
X0257947Y0432274D01*
X0257929Y0432404D01*
X0257915Y0432535D01*
X0257905Y0432666D01*
X0257899Y0432798D01*
X0257897Y0432929D01*
X0303897Y0392929D02*
X0303899Y0393060D01*
X0303905Y0393192D01*
X0303915Y0393323D01*
X0303929Y0393454D01*
X0303947Y0393584D01*
X0303969Y0393713D01*
X0303994Y0393842D01*
X0304024Y0393970D01*
X0304058Y0394097D01*
X0304095Y0394224D01*
X0304136Y0394348D01*
X0304181Y0394472D01*
X0304230Y0394594D01*
X0304282Y0394715D01*
X0304338Y0394833D01*
X0304398Y0394951D01*
X0304461Y0395066D01*
X0304528Y0395179D01*
X0304598Y0395291D01*
X0304671Y0395400D01*
X0304747Y0395506D01*
X0304827Y0395611D01*
X0304910Y0395713D01*
X0304996Y0395812D01*
X0305085Y0395909D01*
X0305177Y0396003D01*
X0305272Y0396094D01*
X0305369Y0396183D01*
X0305469Y0396268D01*
X0305572Y0396350D01*
X0305677Y0396429D01*
X0305784Y0396505D01*
X0305894Y0396577D01*
X0306006Y0396646D01*
X0306120Y0396712D01*
X0306235Y0396774D01*
X0306353Y0396833D01*
X0306472Y0396888D01*
X0306593Y0396940D01*
X0306716Y0396987D01*
X0306840Y0397031D01*
X0306965Y0397072D01*
X0307091Y0397108D01*
X0307219Y0397141D01*
X0307347Y0397169D01*
X0307476Y0397194D01*
X0307606Y0397215D01*
X0307736Y0397232D01*
X0307867Y0397245D01*
X0307998Y0397254D01*
X0308129Y0397259D01*
X0308261Y0397260D01*
X0308392Y0397257D01*
X0308524Y0397250D01*
X0308655Y0397239D01*
X0308785Y0397224D01*
X0308915Y0397205D01*
X0309045Y0397182D01*
X0309173Y0397156D01*
X0309301Y0397125D01*
X0309428Y0397090D01*
X0309554Y0397052D01*
X0309678Y0397010D01*
X0309802Y0396964D01*
X0309923Y0396914D01*
X0310043Y0396861D01*
X0310162Y0396804D01*
X0310279Y0396744D01*
X0310393Y0396680D01*
X0310506Y0396612D01*
X0310617Y0396541D01*
X0310726Y0396467D01*
X0310832Y0396390D01*
X0310936Y0396309D01*
X0311037Y0396226D01*
X0311136Y0396139D01*
X0311232Y0396049D01*
X0311325Y0395956D01*
X0311416Y0395861D01*
X0311503Y0395763D01*
X0311588Y0395662D01*
X0311669Y0395559D01*
X0311747Y0395453D01*
X0311822Y0395345D01*
X0311894Y0395235D01*
X0311962Y0395123D01*
X0312027Y0395009D01*
X0312088Y0394892D01*
X0312146Y0394774D01*
X0312200Y0394654D01*
X0312251Y0394533D01*
X0312298Y0394410D01*
X0312341Y0394286D01*
X0312380Y0394161D01*
X0312416Y0394034D01*
X0312447Y0393906D01*
X0312475Y0393778D01*
X0312499Y0393649D01*
X0312519Y0393519D01*
X0312535Y0393388D01*
X0312547Y0393257D01*
X0312555Y0393126D01*
X0312559Y0392995D01*
X0312559Y0392863D01*
X0312555Y0392732D01*
X0312547Y0392601D01*
X0312535Y0392470D01*
X0312519Y0392339D01*
X0312499Y0392209D01*
X0312475Y0392080D01*
X0312447Y0391952D01*
X0312416Y0391824D01*
X0312380Y0391697D01*
X0312341Y0391572D01*
X0312298Y0391448D01*
X0312251Y0391325D01*
X0312200Y0391204D01*
X0312146Y0391084D01*
X0312088Y0390966D01*
X0312027Y0390849D01*
X0311962Y0390735D01*
X0311894Y0390623D01*
X0311822Y0390513D01*
X0311747Y0390405D01*
X0311669Y0390299D01*
X0311588Y0390196D01*
X0311503Y0390095D01*
X0311416Y0389997D01*
X0311325Y0389902D01*
X0311232Y0389809D01*
X0311136Y0389719D01*
X0311037Y0389632D01*
X0310936Y0389549D01*
X0310832Y0389468D01*
X0310726Y0389391D01*
X0310617Y0389317D01*
X0310506Y0389246D01*
X0310394Y0389178D01*
X0310279Y0389114D01*
X0310162Y0389054D01*
X0310043Y0388997D01*
X0309923Y0388944D01*
X0309802Y0388894D01*
X0309678Y0388848D01*
X0309554Y0388806D01*
X0309428Y0388768D01*
X0309301Y0388733D01*
X0309173Y0388702D01*
X0309045Y0388676D01*
X0308915Y0388653D01*
X0308785Y0388634D01*
X0308655Y0388619D01*
X0308524Y0388608D01*
X0308392Y0388601D01*
X0308261Y0388598D01*
X0308129Y0388599D01*
X0307998Y0388604D01*
X0307867Y0388613D01*
X0307736Y0388626D01*
X0307606Y0388643D01*
X0307476Y0388664D01*
X0307347Y0388689D01*
X0307219Y0388717D01*
X0307091Y0388750D01*
X0306965Y0388786D01*
X0306840Y0388827D01*
X0306716Y0388871D01*
X0306593Y0388918D01*
X0306472Y0388970D01*
X0306353Y0389025D01*
X0306235Y0389084D01*
X0306120Y0389146D01*
X0306006Y0389212D01*
X0305894Y0389281D01*
X0305784Y0389353D01*
X0305677Y0389429D01*
X0305572Y0389508D01*
X0305469Y0389590D01*
X0305369Y0389675D01*
X0305272Y0389764D01*
X0305177Y0389855D01*
X0305085Y0389949D01*
X0304996Y0390046D01*
X0304910Y0390145D01*
X0304827Y0390247D01*
X0304747Y0390352D01*
X0304671Y0390458D01*
X0304598Y0390567D01*
X0304528Y0390679D01*
X0304461Y0390792D01*
X0304398Y0390907D01*
X0304338Y0391025D01*
X0304282Y0391143D01*
X0304230Y0391264D01*
X0304181Y0391386D01*
X0304136Y0391510D01*
X0304095Y0391634D01*
X0304058Y0391761D01*
X0304024Y0391888D01*
X0303994Y0392016D01*
X0303969Y0392145D01*
X0303947Y0392274D01*
X0303929Y0392404D01*
X0303915Y0392535D01*
X0303905Y0392666D01*
X0303899Y0392798D01*
X0303897Y0392929D01*
X0265897Y0353929D02*
X0265899Y0354060D01*
X0265905Y0354192D01*
X0265915Y0354323D01*
X0265929Y0354454D01*
X0265947Y0354584D01*
X0265969Y0354713D01*
X0265994Y0354842D01*
X0266024Y0354970D01*
X0266058Y0355097D01*
X0266095Y0355224D01*
X0266136Y0355348D01*
X0266181Y0355472D01*
X0266230Y0355594D01*
X0266282Y0355715D01*
X0266338Y0355833D01*
X0266398Y0355951D01*
X0266461Y0356066D01*
X0266528Y0356179D01*
X0266598Y0356291D01*
X0266671Y0356400D01*
X0266747Y0356506D01*
X0266827Y0356611D01*
X0266910Y0356713D01*
X0266996Y0356812D01*
X0267085Y0356909D01*
X0267177Y0357003D01*
X0267272Y0357094D01*
X0267369Y0357183D01*
X0267469Y0357268D01*
X0267572Y0357350D01*
X0267677Y0357429D01*
X0267784Y0357505D01*
X0267894Y0357577D01*
X0268006Y0357646D01*
X0268120Y0357712D01*
X0268235Y0357774D01*
X0268353Y0357833D01*
X0268472Y0357888D01*
X0268593Y0357940D01*
X0268716Y0357987D01*
X0268840Y0358031D01*
X0268965Y0358072D01*
X0269091Y0358108D01*
X0269219Y0358141D01*
X0269347Y0358169D01*
X0269476Y0358194D01*
X0269606Y0358215D01*
X0269736Y0358232D01*
X0269867Y0358245D01*
X0269998Y0358254D01*
X0270129Y0358259D01*
X0270261Y0358260D01*
X0270392Y0358257D01*
X0270524Y0358250D01*
X0270655Y0358239D01*
X0270785Y0358224D01*
X0270915Y0358205D01*
X0271045Y0358182D01*
X0271173Y0358156D01*
X0271301Y0358125D01*
X0271428Y0358090D01*
X0271554Y0358052D01*
X0271678Y0358010D01*
X0271802Y0357964D01*
X0271923Y0357914D01*
X0272043Y0357861D01*
X0272162Y0357804D01*
X0272279Y0357744D01*
X0272393Y0357680D01*
X0272506Y0357612D01*
X0272617Y0357541D01*
X0272726Y0357467D01*
X0272832Y0357390D01*
X0272936Y0357309D01*
X0273037Y0357226D01*
X0273136Y0357139D01*
X0273232Y0357049D01*
X0273325Y0356956D01*
X0273416Y0356861D01*
X0273503Y0356763D01*
X0273588Y0356662D01*
X0273669Y0356559D01*
X0273747Y0356453D01*
X0273822Y0356345D01*
X0273894Y0356235D01*
X0273962Y0356123D01*
X0274027Y0356009D01*
X0274088Y0355892D01*
X0274146Y0355774D01*
X0274200Y0355654D01*
X0274251Y0355533D01*
X0274298Y0355410D01*
X0274341Y0355286D01*
X0274380Y0355161D01*
X0274416Y0355034D01*
X0274447Y0354906D01*
X0274475Y0354778D01*
X0274499Y0354649D01*
X0274519Y0354519D01*
X0274535Y0354388D01*
X0274547Y0354257D01*
X0274555Y0354126D01*
X0274559Y0353995D01*
X0274559Y0353863D01*
X0274555Y0353732D01*
X0274547Y0353601D01*
X0274535Y0353470D01*
X0274519Y0353339D01*
X0274499Y0353209D01*
X0274475Y0353080D01*
X0274447Y0352952D01*
X0274416Y0352824D01*
X0274380Y0352697D01*
X0274341Y0352572D01*
X0274298Y0352448D01*
X0274251Y0352325D01*
X0274200Y0352204D01*
X0274146Y0352084D01*
X0274088Y0351966D01*
X0274027Y0351849D01*
X0273962Y0351735D01*
X0273894Y0351623D01*
X0273822Y0351513D01*
X0273747Y0351405D01*
X0273669Y0351299D01*
X0273588Y0351196D01*
X0273503Y0351095D01*
X0273416Y0350997D01*
X0273325Y0350902D01*
X0273232Y0350809D01*
X0273136Y0350719D01*
X0273037Y0350632D01*
X0272936Y0350549D01*
X0272832Y0350468D01*
X0272726Y0350391D01*
X0272617Y0350317D01*
X0272506Y0350246D01*
X0272394Y0350178D01*
X0272279Y0350114D01*
X0272162Y0350054D01*
X0272043Y0349997D01*
X0271923Y0349944D01*
X0271802Y0349894D01*
X0271678Y0349848D01*
X0271554Y0349806D01*
X0271428Y0349768D01*
X0271301Y0349733D01*
X0271173Y0349702D01*
X0271045Y0349676D01*
X0270915Y0349653D01*
X0270785Y0349634D01*
X0270655Y0349619D01*
X0270524Y0349608D01*
X0270392Y0349601D01*
X0270261Y0349598D01*
X0270129Y0349599D01*
X0269998Y0349604D01*
X0269867Y0349613D01*
X0269736Y0349626D01*
X0269606Y0349643D01*
X0269476Y0349664D01*
X0269347Y0349689D01*
X0269219Y0349717D01*
X0269091Y0349750D01*
X0268965Y0349786D01*
X0268840Y0349827D01*
X0268716Y0349871D01*
X0268593Y0349918D01*
X0268472Y0349970D01*
X0268353Y0350025D01*
X0268235Y0350084D01*
X0268120Y0350146D01*
X0268006Y0350212D01*
X0267894Y0350281D01*
X0267784Y0350353D01*
X0267677Y0350429D01*
X0267572Y0350508D01*
X0267469Y0350590D01*
X0267369Y0350675D01*
X0267272Y0350764D01*
X0267177Y0350855D01*
X0267085Y0350949D01*
X0266996Y0351046D01*
X0266910Y0351145D01*
X0266827Y0351247D01*
X0266747Y0351352D01*
X0266671Y0351458D01*
X0266598Y0351567D01*
X0266528Y0351679D01*
X0266461Y0351792D01*
X0266398Y0351907D01*
X0266338Y0352025D01*
X0266282Y0352143D01*
X0266230Y0352264D01*
X0266181Y0352386D01*
X0266136Y0352510D01*
X0266095Y0352634D01*
X0266058Y0352761D01*
X0266024Y0352888D01*
X0265994Y0353016D01*
X0265969Y0353145D01*
X0265947Y0353274D01*
X0265929Y0353404D01*
X0265915Y0353535D01*
X0265905Y0353666D01*
X0265899Y0353798D01*
X0265897Y0353929D01*
X0300897Y0157929D02*
X0300899Y0158060D01*
X0300905Y0158192D01*
X0300915Y0158323D01*
X0300929Y0158454D01*
X0300947Y0158584D01*
X0300969Y0158713D01*
X0300994Y0158842D01*
X0301024Y0158970D01*
X0301058Y0159097D01*
X0301095Y0159224D01*
X0301136Y0159348D01*
X0301181Y0159472D01*
X0301230Y0159594D01*
X0301282Y0159715D01*
X0301338Y0159833D01*
X0301398Y0159951D01*
X0301461Y0160066D01*
X0301528Y0160179D01*
X0301598Y0160291D01*
X0301671Y0160400D01*
X0301747Y0160506D01*
X0301827Y0160611D01*
X0301910Y0160713D01*
X0301996Y0160812D01*
X0302085Y0160909D01*
X0302177Y0161003D01*
X0302272Y0161094D01*
X0302369Y0161183D01*
X0302469Y0161268D01*
X0302572Y0161350D01*
X0302677Y0161429D01*
X0302784Y0161505D01*
X0302894Y0161577D01*
X0303006Y0161646D01*
X0303120Y0161712D01*
X0303235Y0161774D01*
X0303353Y0161833D01*
X0303472Y0161888D01*
X0303593Y0161940D01*
X0303716Y0161987D01*
X0303840Y0162031D01*
X0303965Y0162072D01*
X0304091Y0162108D01*
X0304219Y0162141D01*
X0304347Y0162169D01*
X0304476Y0162194D01*
X0304606Y0162215D01*
X0304736Y0162232D01*
X0304867Y0162245D01*
X0304998Y0162254D01*
X0305129Y0162259D01*
X0305261Y0162260D01*
X0305392Y0162257D01*
X0305524Y0162250D01*
X0305655Y0162239D01*
X0305785Y0162224D01*
X0305915Y0162205D01*
X0306045Y0162182D01*
X0306173Y0162156D01*
X0306301Y0162125D01*
X0306428Y0162090D01*
X0306554Y0162052D01*
X0306678Y0162010D01*
X0306802Y0161964D01*
X0306923Y0161914D01*
X0307043Y0161861D01*
X0307162Y0161804D01*
X0307279Y0161744D01*
X0307393Y0161680D01*
X0307506Y0161612D01*
X0307617Y0161541D01*
X0307726Y0161467D01*
X0307832Y0161390D01*
X0307936Y0161309D01*
X0308037Y0161226D01*
X0308136Y0161139D01*
X0308232Y0161049D01*
X0308325Y0160956D01*
X0308416Y0160861D01*
X0308503Y0160763D01*
X0308588Y0160662D01*
X0308669Y0160559D01*
X0308747Y0160453D01*
X0308822Y0160345D01*
X0308894Y0160235D01*
X0308962Y0160123D01*
X0309027Y0160009D01*
X0309088Y0159892D01*
X0309146Y0159774D01*
X0309200Y0159654D01*
X0309251Y0159533D01*
X0309298Y0159410D01*
X0309341Y0159286D01*
X0309380Y0159161D01*
X0309416Y0159034D01*
X0309447Y0158906D01*
X0309475Y0158778D01*
X0309499Y0158649D01*
X0309519Y0158519D01*
X0309535Y0158388D01*
X0309547Y0158257D01*
X0309555Y0158126D01*
X0309559Y0157995D01*
X0309559Y0157863D01*
X0309555Y0157732D01*
X0309547Y0157601D01*
X0309535Y0157470D01*
X0309519Y0157339D01*
X0309499Y0157209D01*
X0309475Y0157080D01*
X0309447Y0156952D01*
X0309416Y0156824D01*
X0309380Y0156697D01*
X0309341Y0156572D01*
X0309298Y0156448D01*
X0309251Y0156325D01*
X0309200Y0156204D01*
X0309146Y0156084D01*
X0309088Y0155966D01*
X0309027Y0155849D01*
X0308962Y0155735D01*
X0308894Y0155623D01*
X0308822Y0155513D01*
X0308747Y0155405D01*
X0308669Y0155299D01*
X0308588Y0155196D01*
X0308503Y0155095D01*
X0308416Y0154997D01*
X0308325Y0154902D01*
X0308232Y0154809D01*
X0308136Y0154719D01*
X0308037Y0154632D01*
X0307936Y0154549D01*
X0307832Y0154468D01*
X0307726Y0154391D01*
X0307617Y0154317D01*
X0307506Y0154246D01*
X0307394Y0154178D01*
X0307279Y0154114D01*
X0307162Y0154054D01*
X0307043Y0153997D01*
X0306923Y0153944D01*
X0306802Y0153894D01*
X0306678Y0153848D01*
X0306554Y0153806D01*
X0306428Y0153768D01*
X0306301Y0153733D01*
X0306173Y0153702D01*
X0306045Y0153676D01*
X0305915Y0153653D01*
X0305785Y0153634D01*
X0305655Y0153619D01*
X0305524Y0153608D01*
X0305392Y0153601D01*
X0305261Y0153598D01*
X0305129Y0153599D01*
X0304998Y0153604D01*
X0304867Y0153613D01*
X0304736Y0153626D01*
X0304606Y0153643D01*
X0304476Y0153664D01*
X0304347Y0153689D01*
X0304219Y0153717D01*
X0304091Y0153750D01*
X0303965Y0153786D01*
X0303840Y0153827D01*
X0303716Y0153871D01*
X0303593Y0153918D01*
X0303472Y0153970D01*
X0303353Y0154025D01*
X0303235Y0154084D01*
X0303120Y0154146D01*
X0303006Y0154212D01*
X0302894Y0154281D01*
X0302784Y0154353D01*
X0302677Y0154429D01*
X0302572Y0154508D01*
X0302469Y0154590D01*
X0302369Y0154675D01*
X0302272Y0154764D01*
X0302177Y0154855D01*
X0302085Y0154949D01*
X0301996Y0155046D01*
X0301910Y0155145D01*
X0301827Y0155247D01*
X0301747Y0155352D01*
X0301671Y0155458D01*
X0301598Y0155567D01*
X0301528Y0155679D01*
X0301461Y0155792D01*
X0301398Y0155907D01*
X0301338Y0156025D01*
X0301282Y0156143D01*
X0301230Y0156264D01*
X0301181Y0156386D01*
X0301136Y0156510D01*
X0301095Y0156634D01*
X0301058Y0156761D01*
X0301024Y0156888D01*
X0300994Y0157016D01*
X0300969Y0157145D01*
X0300947Y0157274D01*
X0300929Y0157404D01*
X0300915Y0157535D01*
X0300905Y0157666D01*
X0300899Y0157798D01*
X0300897Y0157929D01*
D27*
X0305228Y0157929D03*
X0270228Y0353929D03*
X0308228Y0392929D03*
X0262228Y0432929D03*
X0221228Y0454929D03*
X0078228Y0478929D03*
D28*
X0122771Y0483678D03*
X0128677Y0483678D03*
X0134582Y0483678D03*
X0140488Y0483678D03*
X0146393Y0483678D03*
X0154267Y0483678D03*
X0173952Y0483678D03*
X0181826Y0483678D03*
X0189700Y0483678D03*
X0197574Y0483678D03*
X0205448Y0483678D03*
X0222771Y0461237D03*
X0231039Y0452182D03*
X0238519Y0451395D03*
X0236551Y0428521D03*
X0270409Y0438403D03*
X0271984Y0432497D03*
X0286157Y0428560D03*
X0297968Y0428560D03*
X0297968Y0448245D03*
X0290094Y0452970D03*
X0282220Y0454151D03*
X0274346Y0458088D03*
X0282228Y0494929D03*
X0300055Y0486143D03*
X0308228Y0465929D03*
X0301905Y0460056D03*
X0283470Y0321897D03*
X0308817Y0300262D03*
X0289110Y0209072D03*
X0301905Y0151001D03*
X0245387Y0152401D03*
X0238913Y0152401D03*
X0231039Y0152401D03*
X0224149Y0152401D03*
X0213322Y0152401D03*
X0199543Y0152401D03*
X0191669Y0152401D03*
X0183795Y0152401D03*
X0175921Y0152401D03*
X0168047Y0152401D03*
X0160173Y0152401D03*
X0152299Y0152401D03*
X0144425Y0152401D03*
X0136551Y0152401D03*
X0129661Y0152401D03*
X0121371Y0152401D03*
X0121393Y0175568D03*
X0156236Y0217930D03*
X0132220Y0229702D03*
X0130409Y0253324D03*
X0108598Y0276946D03*
X0088850Y0283851D03*
X0083007Y0295450D03*
X0106629Y0312379D03*
X0124228Y0302340D03*
X0106629Y0347812D03*
X0086944Y0349781D03*
X0081039Y0375371D03*
X0187732Y0198245D03*
X0166078Y0174623D03*
X0222181Y0169702D03*
X0242828Y0191129D03*
X0223165Y0203166D03*
M02*
