G75*
%MOIN*%
%OFA0B0*%
%FSLAX25Y25*%
%IPPOS*%
%LPD*%
%AMOC8*
5,1,8,0,0,1.08239X$1,22.5*
%
%ADD10C,0.00602*%
%ADD11C,0.00591*%
%ADD12C,0.00589*%
%ADD13C,0.00598*%
%ADD14C,0.01181*%
%ADD15C,0.00600*%
%ADD16R,0.05118X0.05118*%
%ADD17C,0.00598*%
%ADD18C,0.01040*%
%ADD19R,0.03937X0.02953*%
%ADD20C,0.00748*%
%ADD21C,0.00630*%
%ADD22C,0.00614*%
%ADD23R,0.06890X0.06890*%
D10*
X0139432Y0229835D02*
X0139432Y0232775D01*
X0142570Y0232775D01*
X0142570Y0229835D01*
X0139432Y0229835D01*
X0139432Y0230436D02*
X0142570Y0230436D01*
X0142570Y0231037D02*
X0139432Y0231037D01*
X0139432Y0231638D02*
X0142570Y0231638D01*
X0142570Y0232239D02*
X0139432Y0232239D01*
X0139432Y0242237D02*
X0139432Y0245177D01*
X0142570Y0245177D01*
X0142570Y0242237D01*
X0139432Y0242237D01*
X0139432Y0242838D02*
X0142570Y0242838D01*
X0142570Y0243439D02*
X0139432Y0243439D01*
X0139432Y0244040D02*
X0142570Y0244040D01*
X0142570Y0244641D02*
X0139432Y0244641D01*
X0159110Y0271383D02*
X0167035Y0279308D01*
X0159110Y0271383D02*
X0157031Y0273462D01*
X0164956Y0281387D01*
X0167035Y0279308D01*
X0159711Y0271984D02*
X0158509Y0271984D01*
X0157908Y0272585D02*
X0160312Y0272585D01*
X0160913Y0273186D02*
X0157307Y0273186D01*
X0157356Y0273787D02*
X0161514Y0273787D01*
X0162115Y0274388D02*
X0157957Y0274388D01*
X0158558Y0274989D02*
X0162716Y0274989D01*
X0163317Y0275590D02*
X0159159Y0275590D01*
X0159760Y0276191D02*
X0163918Y0276191D01*
X0164519Y0276792D02*
X0160361Y0276792D01*
X0160962Y0277393D02*
X0165120Y0277393D01*
X0165721Y0277994D02*
X0161563Y0277994D01*
X0162164Y0278595D02*
X0166322Y0278595D01*
X0166923Y0279196D02*
X0162765Y0279196D01*
X0163366Y0279797D02*
X0166546Y0279797D01*
X0165945Y0280398D02*
X0163967Y0280398D01*
X0164568Y0280999D02*
X0165344Y0280999D01*
X0172881Y0273462D02*
X0164956Y0265537D01*
X0162877Y0267616D01*
X0170802Y0275541D01*
X0172881Y0273462D01*
X0165557Y0266138D02*
X0164355Y0266138D01*
X0163754Y0266739D02*
X0166158Y0266739D01*
X0166759Y0267340D02*
X0163153Y0267340D01*
X0163202Y0267941D02*
X0167360Y0267941D01*
X0167961Y0268542D02*
X0163803Y0268542D01*
X0164404Y0269143D02*
X0168562Y0269143D01*
X0169163Y0269744D02*
X0165005Y0269744D01*
X0165606Y0270345D02*
X0169764Y0270345D01*
X0170365Y0270946D02*
X0166207Y0270946D01*
X0166808Y0271547D02*
X0170966Y0271547D01*
X0171567Y0272148D02*
X0167409Y0272148D01*
X0168010Y0272749D02*
X0172168Y0272749D01*
X0172769Y0273350D02*
X0168611Y0273350D01*
X0169212Y0273951D02*
X0172392Y0273951D01*
X0171791Y0274552D02*
X0169813Y0274552D01*
X0170414Y0275153D02*
X0171190Y0275153D01*
X0264666Y0177818D02*
X0267214Y0177818D01*
X0264666Y0177818D02*
X0264666Y0178396D01*
X0267214Y0178396D01*
X0267214Y0177818D01*
X0267214Y0175850D02*
X0264666Y0175850D01*
X0264666Y0176428D01*
X0267214Y0176428D01*
X0267214Y0175850D01*
X0267214Y0173881D02*
X0264666Y0173881D01*
X0264666Y0174459D01*
X0267214Y0174459D01*
X0267214Y0173881D01*
X0267214Y0171913D02*
X0264666Y0171913D01*
X0264666Y0172491D01*
X0267214Y0172491D01*
X0267214Y0171913D01*
X0267214Y0169944D02*
X0264666Y0169944D01*
X0264666Y0170522D01*
X0267214Y0170522D01*
X0267214Y0169944D01*
X0269281Y0170425D02*
X0269281Y0167877D01*
X0268703Y0167877D01*
X0268703Y0170425D01*
X0269281Y0170425D01*
X0269281Y0168478D02*
X0268703Y0168478D01*
X0268703Y0169079D02*
X0269281Y0169079D01*
X0269281Y0169680D02*
X0268703Y0169680D01*
X0268703Y0170281D02*
X0269281Y0170281D01*
X0271249Y0170425D02*
X0271249Y0167877D01*
X0270671Y0167877D01*
X0270671Y0170425D01*
X0271249Y0170425D01*
X0271249Y0168478D02*
X0270671Y0168478D01*
X0270671Y0169079D02*
X0271249Y0169079D01*
X0271249Y0169680D02*
X0270671Y0169680D01*
X0270671Y0170281D02*
X0271249Y0170281D01*
X0273218Y0170425D02*
X0273218Y0167877D01*
X0272640Y0167877D01*
X0272640Y0170425D01*
X0273218Y0170425D01*
X0273218Y0168478D02*
X0272640Y0168478D01*
X0272640Y0169079D02*
X0273218Y0169079D01*
X0273218Y0169680D02*
X0272640Y0169680D01*
X0272640Y0170281D02*
X0273218Y0170281D01*
X0274706Y0170522D02*
X0277254Y0170522D01*
X0277254Y0169944D01*
X0274706Y0169944D01*
X0274706Y0170522D01*
X0274706Y0172491D02*
X0277254Y0172491D01*
X0277254Y0171913D01*
X0274706Y0171913D01*
X0274706Y0172491D01*
X0274706Y0174459D02*
X0277254Y0174459D01*
X0277254Y0173881D01*
X0274706Y0173881D01*
X0274706Y0174459D01*
X0274706Y0176428D02*
X0277254Y0176428D01*
X0277254Y0175850D01*
X0274706Y0175850D01*
X0274706Y0176428D01*
X0274706Y0178396D02*
X0277254Y0178396D01*
X0277254Y0177818D01*
X0274706Y0177818D01*
X0274706Y0178396D01*
X0272640Y0177916D02*
X0272640Y0180464D01*
X0273218Y0180464D01*
X0273218Y0177916D01*
X0272640Y0177916D01*
X0272640Y0178517D02*
X0273218Y0178517D01*
X0273218Y0179118D02*
X0272640Y0179118D01*
X0272640Y0179719D02*
X0273218Y0179719D01*
X0273218Y0180320D02*
X0272640Y0180320D01*
X0270671Y0180464D02*
X0270671Y0177916D01*
X0270671Y0180464D02*
X0271249Y0180464D01*
X0271249Y0177916D01*
X0270671Y0177916D01*
X0270671Y0178517D02*
X0271249Y0178517D01*
X0271249Y0179118D02*
X0270671Y0179118D01*
X0270671Y0179719D02*
X0271249Y0179719D01*
X0271249Y0180320D02*
X0270671Y0180320D01*
X0268703Y0180464D02*
X0268703Y0177916D01*
X0268703Y0180464D02*
X0269281Y0180464D01*
X0269281Y0177916D01*
X0268703Y0177916D01*
X0268703Y0178517D02*
X0269281Y0178517D01*
X0269281Y0179118D02*
X0268703Y0179118D01*
X0268703Y0179719D02*
X0269281Y0179719D01*
X0269281Y0180320D02*
X0268703Y0180320D01*
X0270198Y0200554D02*
X0270198Y0201724D01*
X0272942Y0201724D01*
X0272942Y0200554D01*
X0270198Y0200554D01*
X0270198Y0201155D02*
X0272942Y0201155D01*
X0270198Y0204491D02*
X0270198Y0205661D01*
X0272942Y0205661D01*
X0272942Y0204491D01*
X0270198Y0204491D01*
X0270198Y0205092D02*
X0272942Y0205092D01*
X0270198Y0208428D02*
X0270198Y0209598D01*
X0272942Y0209598D01*
X0272942Y0208428D01*
X0270198Y0208428D01*
X0270198Y0209029D02*
X0272942Y0209029D01*
X0281616Y0209598D02*
X0281616Y0208428D01*
X0281616Y0209598D02*
X0284360Y0209598D01*
X0284360Y0208428D01*
X0281616Y0208428D01*
X0281616Y0209029D02*
X0284360Y0209029D01*
X0281616Y0205661D02*
X0281616Y0204491D01*
X0281616Y0205661D02*
X0284360Y0205661D01*
X0284360Y0204491D01*
X0281616Y0204491D01*
X0281616Y0205092D02*
X0284360Y0205092D01*
X0281616Y0201724D02*
X0281616Y0200554D01*
X0281616Y0201724D02*
X0284360Y0201724D01*
X0284360Y0200554D01*
X0281616Y0200554D01*
X0281616Y0201155D02*
X0284360Y0201155D01*
X0290297Y0449814D02*
X0293237Y0449814D01*
X0293237Y0446676D01*
X0290297Y0446676D01*
X0290297Y0449814D01*
X0290297Y0447277D02*
X0293237Y0447277D01*
X0293237Y0447878D02*
X0290297Y0447878D01*
X0290297Y0448479D02*
X0293237Y0448479D01*
X0293237Y0449080D02*
X0290297Y0449080D01*
X0290297Y0449681D02*
X0293237Y0449681D01*
X0302699Y0449814D02*
X0305639Y0449814D01*
X0305639Y0446676D01*
X0302699Y0446676D01*
X0302699Y0449814D01*
X0302699Y0447277D02*
X0305639Y0447277D01*
X0305639Y0447878D02*
X0302699Y0447878D01*
X0302699Y0448479D02*
X0305639Y0448479D01*
X0305639Y0449080D02*
X0302699Y0449080D01*
X0302699Y0449681D02*
X0305639Y0449681D01*
X0305740Y0469655D02*
X0305740Y0472595D01*
X0308878Y0472595D01*
X0308878Y0469655D01*
X0305740Y0469655D01*
X0305740Y0470256D02*
X0308878Y0470256D01*
X0308878Y0470857D02*
X0305740Y0470857D01*
X0305740Y0471458D02*
X0308878Y0471458D01*
X0308878Y0472059D02*
X0305740Y0472059D01*
X0305740Y0482057D02*
X0305740Y0484997D01*
X0308878Y0484997D01*
X0308878Y0482057D01*
X0305740Y0482057D01*
X0305740Y0482658D02*
X0308878Y0482658D01*
X0308878Y0483259D02*
X0305740Y0483259D01*
X0305740Y0483860D02*
X0308878Y0483860D01*
X0308878Y0484461D02*
X0305740Y0484461D01*
X0167233Y0482668D02*
X0167233Y0482090D01*
X0166655Y0482090D01*
X0166655Y0482668D01*
X0167233Y0482668D01*
X0167233Y0480109D02*
X0167233Y0479531D01*
X0166655Y0479531D01*
X0166655Y0480109D01*
X0167233Y0480109D01*
X0167233Y0477550D02*
X0167233Y0476972D01*
X0166655Y0476972D01*
X0166655Y0477550D01*
X0167233Y0477550D01*
X0163493Y0477550D02*
X0163493Y0476972D01*
X0162915Y0476972D01*
X0162915Y0477550D01*
X0163493Y0477550D01*
X0163493Y0479531D02*
X0163493Y0480109D01*
X0163493Y0479531D02*
X0162915Y0479531D01*
X0162915Y0480109D01*
X0163493Y0480109D01*
X0163493Y0482090D02*
X0163493Y0482668D01*
X0163493Y0482090D02*
X0162915Y0482090D01*
X0162915Y0482668D01*
X0163493Y0482668D01*
D11*
X0160468Y0473147D02*
X0160468Y0469407D01*
X0160468Y0473147D02*
X0163814Y0473147D01*
X0163814Y0469407D01*
X0160468Y0469407D01*
X0160468Y0469997D02*
X0163814Y0469997D01*
X0163814Y0470587D02*
X0160468Y0470587D01*
X0160468Y0471177D02*
X0163814Y0471177D01*
X0163814Y0471767D02*
X0160468Y0471767D01*
X0160468Y0472357D02*
X0163814Y0472357D01*
X0163814Y0472947D02*
X0160468Y0472947D01*
X0160468Y0466454D02*
X0160468Y0462714D01*
X0160468Y0466454D02*
X0163814Y0466454D01*
X0163814Y0462714D01*
X0160468Y0462714D01*
X0160468Y0463304D02*
X0163814Y0463304D01*
X0163814Y0463894D02*
X0160468Y0463894D01*
X0160468Y0464484D02*
X0163814Y0464484D01*
X0163814Y0465074D02*
X0160468Y0465074D01*
X0160468Y0465664D02*
X0163814Y0465664D01*
X0163814Y0466254D02*
X0160468Y0466254D01*
X0168342Y0466454D02*
X0168342Y0462714D01*
X0168342Y0466454D02*
X0171688Y0466454D01*
X0171688Y0462714D01*
X0168342Y0462714D01*
X0168342Y0463304D02*
X0171688Y0463304D01*
X0171688Y0463894D02*
X0168342Y0463894D01*
X0168342Y0464484D02*
X0171688Y0464484D01*
X0171688Y0465074D02*
X0168342Y0465074D01*
X0168342Y0465664D02*
X0171688Y0465664D01*
X0171688Y0466254D02*
X0168342Y0466254D01*
X0168342Y0469407D02*
X0168342Y0473147D01*
X0171688Y0473147D01*
X0171688Y0469407D01*
X0168342Y0469407D01*
X0168342Y0469997D02*
X0171688Y0469997D01*
X0171688Y0470587D02*
X0168342Y0470587D01*
X0168342Y0471177D02*
X0171688Y0471177D01*
X0171688Y0471767D02*
X0168342Y0471767D01*
X0168342Y0472357D02*
X0171688Y0472357D01*
X0171688Y0472947D02*
X0168342Y0472947D01*
X0179562Y0473147D02*
X0179562Y0469407D01*
X0176216Y0469407D01*
X0176216Y0473147D01*
X0179562Y0473147D01*
X0179562Y0469997D02*
X0176216Y0469997D01*
X0176216Y0470587D02*
X0179562Y0470587D01*
X0179562Y0471177D02*
X0176216Y0471177D01*
X0176216Y0471767D02*
X0179562Y0471767D01*
X0179562Y0472357D02*
X0176216Y0472357D01*
X0176216Y0472947D02*
X0179562Y0472947D01*
X0187436Y0473147D02*
X0187436Y0469407D01*
X0184090Y0469407D01*
X0184090Y0473147D01*
X0187436Y0473147D01*
X0187436Y0469997D02*
X0184090Y0469997D01*
X0184090Y0470587D02*
X0187436Y0470587D01*
X0187436Y0471177D02*
X0184090Y0471177D01*
X0184090Y0471767D02*
X0187436Y0471767D01*
X0187436Y0472357D02*
X0184090Y0472357D01*
X0184090Y0472947D02*
X0187436Y0472947D01*
X0187436Y0466454D02*
X0187436Y0462714D01*
X0184090Y0462714D01*
X0184090Y0466454D01*
X0187436Y0466454D01*
X0187436Y0463304D02*
X0184090Y0463304D01*
X0184090Y0463894D02*
X0187436Y0463894D01*
X0187436Y0464484D02*
X0184090Y0464484D01*
X0184090Y0465074D02*
X0187436Y0465074D01*
X0187436Y0465664D02*
X0184090Y0465664D01*
X0184090Y0466254D02*
X0187436Y0466254D01*
X0179562Y0466454D02*
X0179562Y0462714D01*
X0176216Y0462714D01*
X0176216Y0466454D01*
X0179562Y0466454D01*
X0179562Y0463304D02*
X0176216Y0463304D01*
X0176216Y0463894D02*
X0179562Y0463894D01*
X0179562Y0464484D02*
X0176216Y0464484D01*
X0176216Y0465074D02*
X0179562Y0465074D01*
X0179562Y0465664D02*
X0176216Y0465664D01*
X0176216Y0466254D02*
X0179562Y0466254D01*
X0145508Y0445194D02*
X0145508Y0441454D01*
X0145508Y0445194D02*
X0148854Y0445194D01*
X0148854Y0441454D01*
X0145508Y0441454D01*
X0145508Y0442044D02*
X0148854Y0442044D01*
X0148854Y0442634D02*
X0145508Y0442634D01*
X0145508Y0443224D02*
X0148854Y0443224D01*
X0148854Y0443814D02*
X0145508Y0443814D01*
X0145508Y0444404D02*
X0148854Y0444404D01*
X0148854Y0444994D02*
X0145508Y0444994D01*
X0145508Y0438501D02*
X0145508Y0434761D01*
X0145508Y0438501D02*
X0148854Y0438501D01*
X0148854Y0434761D01*
X0145508Y0434761D01*
X0145508Y0435351D02*
X0148854Y0435351D01*
X0148854Y0435941D02*
X0145508Y0435941D01*
X0145508Y0436531D02*
X0148854Y0436531D01*
X0148854Y0437121D02*
X0145508Y0437121D01*
X0145508Y0437711D02*
X0148854Y0437711D01*
X0148854Y0438301D02*
X0145508Y0438301D01*
X0170704Y0376690D02*
X0170704Y0372950D01*
X0167358Y0372950D01*
X0167358Y0376690D01*
X0170704Y0376690D01*
X0170704Y0373540D02*
X0167358Y0373540D01*
X0167358Y0374130D02*
X0170704Y0374130D01*
X0170704Y0374720D02*
X0167358Y0374720D01*
X0167358Y0375310D02*
X0170704Y0375310D01*
X0170704Y0375900D02*
X0167358Y0375900D01*
X0167358Y0376490D02*
X0170704Y0376490D01*
X0170704Y0369997D02*
X0170704Y0366257D01*
X0167358Y0366257D01*
X0167358Y0369997D01*
X0170704Y0369997D01*
X0170704Y0366847D02*
X0167358Y0366847D01*
X0167358Y0367437D02*
X0170704Y0367437D01*
X0170704Y0368027D02*
X0167358Y0368027D01*
X0167358Y0368617D02*
X0170704Y0368617D01*
X0170704Y0369207D02*
X0167358Y0369207D01*
X0167358Y0369797D02*
X0170704Y0369797D01*
X0148893Y0357674D02*
X0148893Y0353934D01*
X0148893Y0357674D02*
X0152239Y0357674D01*
X0152239Y0353934D01*
X0148893Y0353934D01*
X0148893Y0354524D02*
X0152239Y0354524D01*
X0152239Y0355114D02*
X0148893Y0355114D01*
X0148893Y0355704D02*
X0152239Y0355704D01*
X0152239Y0356294D02*
X0148893Y0356294D01*
X0148893Y0356884D02*
X0152239Y0356884D01*
X0152239Y0357474D02*
X0148893Y0357474D01*
X0148893Y0350981D02*
X0148893Y0347241D01*
X0148893Y0350981D02*
X0152239Y0350981D01*
X0152239Y0347241D01*
X0148893Y0347241D01*
X0148893Y0347831D02*
X0152239Y0347831D01*
X0152239Y0348421D02*
X0148893Y0348421D01*
X0148893Y0349011D02*
X0152239Y0349011D01*
X0152239Y0349601D02*
X0148893Y0349601D01*
X0148893Y0350191D02*
X0152239Y0350191D01*
X0152239Y0350781D02*
X0148893Y0350781D01*
X0144149Y0332261D02*
X0140409Y0332261D01*
X0140409Y0335607D01*
X0144149Y0335607D01*
X0144149Y0332261D01*
X0144149Y0332851D02*
X0140409Y0332851D01*
X0140409Y0333441D02*
X0144149Y0333441D01*
X0144149Y0334031D02*
X0140409Y0334031D01*
X0140409Y0334621D02*
X0144149Y0334621D01*
X0144149Y0335211D02*
X0140409Y0335211D01*
X0137456Y0332261D02*
X0133716Y0332261D01*
X0133716Y0335607D01*
X0137456Y0335607D01*
X0137456Y0332261D01*
X0137456Y0332851D02*
X0133716Y0332851D01*
X0133716Y0333441D02*
X0137456Y0333441D01*
X0137456Y0334031D02*
X0133716Y0334031D01*
X0133716Y0334621D02*
X0137456Y0334621D01*
X0137456Y0335211D02*
X0133716Y0335211D01*
X0124008Y0330430D02*
X0120268Y0330430D01*
X0120268Y0333776D01*
X0124008Y0333776D01*
X0124008Y0330430D01*
X0124008Y0331020D02*
X0120268Y0331020D01*
X0120268Y0331610D02*
X0124008Y0331610D01*
X0124008Y0332200D02*
X0120268Y0332200D01*
X0120268Y0332790D02*
X0124008Y0332790D01*
X0124008Y0333380D02*
X0120268Y0333380D01*
X0117315Y0330430D02*
X0113575Y0330430D01*
X0113575Y0333776D01*
X0117315Y0333776D01*
X0117315Y0330430D01*
X0117315Y0331020D02*
X0113575Y0331020D01*
X0113575Y0331610D02*
X0117315Y0331610D01*
X0117315Y0332200D02*
X0113575Y0332200D01*
X0113575Y0332790D02*
X0117315Y0332790D01*
X0117315Y0333380D02*
X0113575Y0333380D01*
X0113575Y0321156D02*
X0117315Y0321156D01*
X0113575Y0321156D02*
X0113575Y0324502D01*
X0117315Y0324502D01*
X0117315Y0321156D01*
X0117315Y0321746D02*
X0113575Y0321746D01*
X0113575Y0322336D02*
X0117315Y0322336D01*
X0117315Y0322926D02*
X0113575Y0322926D01*
X0113575Y0323516D02*
X0117315Y0323516D01*
X0117315Y0324106D02*
X0113575Y0324106D01*
X0120268Y0321156D02*
X0124008Y0321156D01*
X0120268Y0321156D02*
X0120268Y0324502D01*
X0124008Y0324502D01*
X0124008Y0321156D01*
X0124008Y0321746D02*
X0120268Y0321746D01*
X0120268Y0322336D02*
X0124008Y0322336D01*
X0124008Y0322926D02*
X0120268Y0322926D01*
X0120268Y0323516D02*
X0124008Y0323516D01*
X0124008Y0324106D02*
X0120268Y0324106D01*
X0117402Y0303510D02*
X0114758Y0300866D01*
X0117402Y0303510D02*
X0119768Y0301144D01*
X0117124Y0298500D01*
X0114758Y0300866D01*
X0116534Y0299090D02*
X0117714Y0299090D01*
X0118304Y0299680D02*
X0115944Y0299680D01*
X0115354Y0300270D02*
X0118894Y0300270D01*
X0119484Y0300860D02*
X0114764Y0300860D01*
X0115342Y0301450D02*
X0119462Y0301450D01*
X0118872Y0302040D02*
X0115932Y0302040D01*
X0116522Y0302630D02*
X0118282Y0302630D01*
X0117692Y0303220D02*
X0117112Y0303220D01*
X0112670Y0298778D02*
X0110026Y0296134D01*
X0112670Y0298778D02*
X0115036Y0296412D01*
X0112392Y0293768D01*
X0110026Y0296134D01*
X0111802Y0294358D02*
X0112982Y0294358D01*
X0113572Y0294948D02*
X0111212Y0294948D01*
X0110622Y0295538D02*
X0114162Y0295538D01*
X0114752Y0296128D02*
X0110032Y0296128D01*
X0110610Y0296718D02*
X0114730Y0296718D01*
X0114140Y0297308D02*
X0111200Y0297308D01*
X0111790Y0297898D02*
X0113550Y0297898D01*
X0112960Y0298488D02*
X0112380Y0298488D01*
X0113963Y0289333D02*
X0116607Y0286689D01*
X0113963Y0289333D02*
X0116329Y0291699D01*
X0118973Y0289055D01*
X0116607Y0286689D01*
X0117197Y0287279D02*
X0116017Y0287279D01*
X0115427Y0287869D02*
X0117787Y0287869D01*
X0118377Y0288459D02*
X0114837Y0288459D01*
X0114247Y0289049D02*
X0118967Y0289049D01*
X0118389Y0289639D02*
X0114269Y0289639D01*
X0114859Y0290229D02*
X0117799Y0290229D01*
X0117209Y0290819D02*
X0115449Y0290819D01*
X0116039Y0291409D02*
X0116619Y0291409D01*
X0118695Y0284601D02*
X0121339Y0281957D01*
X0118695Y0284601D02*
X0121061Y0286967D01*
X0123705Y0284323D01*
X0121339Y0281957D01*
X0121929Y0282547D02*
X0120749Y0282547D01*
X0120159Y0283137D02*
X0122519Y0283137D01*
X0123109Y0283727D02*
X0119569Y0283727D01*
X0118979Y0284317D02*
X0123699Y0284317D01*
X0123121Y0284907D02*
X0119001Y0284907D01*
X0119591Y0285497D02*
X0122531Y0285497D01*
X0121941Y0286087D02*
X0120181Y0286087D01*
X0120771Y0286677D02*
X0121351Y0286677D01*
X0123805Y0279491D02*
X0126449Y0276847D01*
X0123805Y0279491D02*
X0126171Y0281857D01*
X0128815Y0279213D01*
X0126449Y0276847D01*
X0127039Y0277437D02*
X0125859Y0277437D01*
X0125269Y0278027D02*
X0127629Y0278027D01*
X0128219Y0278617D02*
X0124679Y0278617D01*
X0124089Y0279207D02*
X0128809Y0279207D01*
X0128231Y0279797D02*
X0124111Y0279797D01*
X0124701Y0280387D02*
X0127641Y0280387D01*
X0127051Y0280977D02*
X0125291Y0280977D01*
X0125881Y0281567D02*
X0126461Y0281567D01*
X0128538Y0274758D02*
X0131182Y0272114D01*
X0128538Y0274758D02*
X0130904Y0277124D01*
X0133548Y0274480D01*
X0131182Y0272114D01*
X0131772Y0272704D02*
X0130592Y0272704D01*
X0130002Y0273294D02*
X0132362Y0273294D01*
X0132952Y0273884D02*
X0129412Y0273884D01*
X0128822Y0274474D02*
X0133542Y0274474D01*
X0132964Y0275064D02*
X0128844Y0275064D01*
X0129434Y0275654D02*
X0132374Y0275654D01*
X0131784Y0276244D02*
X0130024Y0276244D01*
X0130614Y0276834D02*
X0131194Y0276834D01*
X0139553Y0274480D02*
X0142197Y0277124D01*
X0144563Y0274758D01*
X0141919Y0272114D01*
X0139553Y0274480D01*
X0141329Y0272704D02*
X0142509Y0272704D01*
X0143099Y0273294D02*
X0140739Y0273294D01*
X0140149Y0273884D02*
X0143689Y0273884D01*
X0144279Y0274474D02*
X0139559Y0274474D01*
X0140137Y0275064D02*
X0144257Y0275064D01*
X0143667Y0275654D02*
X0140727Y0275654D01*
X0141317Y0276244D02*
X0143077Y0276244D01*
X0142487Y0276834D02*
X0141907Y0276834D01*
X0144286Y0279213D02*
X0146930Y0281857D01*
X0149296Y0279491D01*
X0146652Y0276847D01*
X0144286Y0279213D01*
X0146062Y0277437D02*
X0147242Y0277437D01*
X0147832Y0278027D02*
X0145472Y0278027D01*
X0144882Y0278617D02*
X0148422Y0278617D01*
X0149012Y0279207D02*
X0144292Y0279207D01*
X0144870Y0279797D02*
X0148990Y0279797D01*
X0148400Y0280387D02*
X0145460Y0280387D01*
X0146050Y0280977D02*
X0147810Y0280977D01*
X0147220Y0281567D02*
X0146640Y0281567D01*
X0148412Y0270632D02*
X0151056Y0267988D01*
X0148412Y0270632D02*
X0150778Y0272998D01*
X0153422Y0270354D01*
X0151056Y0267988D01*
X0151646Y0268578D02*
X0150466Y0268578D01*
X0149876Y0269168D02*
X0152236Y0269168D01*
X0152826Y0269758D02*
X0149286Y0269758D01*
X0148696Y0270348D02*
X0153416Y0270348D01*
X0152838Y0270938D02*
X0148718Y0270938D01*
X0149308Y0271528D02*
X0152248Y0271528D01*
X0151658Y0272118D02*
X0149898Y0272118D01*
X0150488Y0272708D02*
X0151068Y0272708D01*
X0153144Y0265900D02*
X0155788Y0263256D01*
X0153144Y0265900D02*
X0155510Y0268266D01*
X0158154Y0265622D01*
X0155788Y0263256D01*
X0156378Y0263846D02*
X0155198Y0263846D01*
X0154608Y0264436D02*
X0156968Y0264436D01*
X0157558Y0265026D02*
X0154018Y0265026D01*
X0153428Y0265616D02*
X0158148Y0265616D01*
X0157570Y0266206D02*
X0153450Y0266206D01*
X0154040Y0266796D02*
X0156980Y0266796D01*
X0156390Y0267386D02*
X0154630Y0267386D01*
X0155220Y0267976D02*
X0155800Y0267976D01*
X0147239Y0259994D02*
X0149883Y0257350D01*
X0147239Y0259994D02*
X0149605Y0262360D01*
X0152249Y0259716D01*
X0149883Y0257350D01*
X0150473Y0257940D02*
X0149293Y0257940D01*
X0148703Y0258530D02*
X0151063Y0258530D01*
X0151653Y0259120D02*
X0148113Y0259120D01*
X0147523Y0259710D02*
X0152243Y0259710D01*
X0151665Y0260300D02*
X0147545Y0260300D01*
X0148135Y0260890D02*
X0151075Y0260890D01*
X0150485Y0261480D02*
X0148725Y0261480D01*
X0149315Y0262070D02*
X0149895Y0262070D01*
X0145150Y0262083D02*
X0142506Y0264727D01*
X0144872Y0267093D01*
X0147516Y0264449D01*
X0145150Y0262083D01*
X0145740Y0262673D02*
X0144560Y0262673D01*
X0143970Y0263263D02*
X0146330Y0263263D01*
X0146920Y0263853D02*
X0143380Y0263853D01*
X0142790Y0264443D02*
X0147510Y0264443D01*
X0146932Y0265033D02*
X0142812Y0265033D01*
X0143402Y0265623D02*
X0146342Y0265623D01*
X0145752Y0266213D02*
X0143992Y0266213D01*
X0144582Y0266803D02*
X0145162Y0266803D01*
X0154804Y0287862D02*
X0152160Y0290506D01*
X0154526Y0292872D01*
X0157170Y0290228D01*
X0154804Y0287862D01*
X0155394Y0288452D02*
X0154214Y0288452D01*
X0153624Y0289042D02*
X0155984Y0289042D01*
X0156574Y0289632D02*
X0153034Y0289632D01*
X0152444Y0290222D02*
X0157164Y0290222D01*
X0156586Y0290812D02*
X0152466Y0290812D01*
X0153056Y0291402D02*
X0155996Y0291402D01*
X0155406Y0291992D02*
X0153646Y0291992D01*
X0154236Y0292582D02*
X0154816Y0292582D01*
X0150071Y0292595D02*
X0147427Y0295239D01*
X0149793Y0297605D01*
X0152437Y0294961D01*
X0150071Y0292595D01*
X0150661Y0293185D02*
X0149481Y0293185D01*
X0148891Y0293775D02*
X0151251Y0293775D01*
X0151841Y0294365D02*
X0148301Y0294365D01*
X0147711Y0294955D02*
X0152431Y0294955D01*
X0151853Y0295545D02*
X0147733Y0295545D01*
X0148323Y0296135D02*
X0151263Y0296135D01*
X0150673Y0296725D02*
X0148913Y0296725D01*
X0149503Y0297315D02*
X0150083Y0297315D01*
X0196295Y0274721D02*
X0200035Y0274721D01*
X0200035Y0271375D01*
X0196295Y0271375D01*
X0196295Y0274721D01*
X0196295Y0271965D02*
X0200035Y0271965D01*
X0200035Y0272555D02*
X0196295Y0272555D01*
X0196295Y0273145D02*
X0200035Y0273145D01*
X0200035Y0273735D02*
X0196295Y0273735D01*
X0196295Y0274325D02*
X0200035Y0274325D01*
X0202988Y0274721D02*
X0206728Y0274721D01*
X0206728Y0271375D01*
X0202988Y0271375D01*
X0202988Y0274721D01*
X0202988Y0271965D02*
X0206728Y0271965D01*
X0206728Y0272555D02*
X0202988Y0272555D01*
X0202988Y0273145D02*
X0206728Y0273145D01*
X0206728Y0273735D02*
X0202988Y0273735D01*
X0202988Y0274325D02*
X0206728Y0274325D01*
X0206728Y0266847D02*
X0202988Y0266847D01*
X0206728Y0266847D02*
X0206728Y0263501D01*
X0202988Y0263501D01*
X0202988Y0266847D01*
X0202988Y0264091D02*
X0206728Y0264091D01*
X0206728Y0264681D02*
X0202988Y0264681D01*
X0202988Y0265271D02*
X0206728Y0265271D01*
X0206728Y0265861D02*
X0202988Y0265861D01*
X0202988Y0266451D02*
X0206728Y0266451D01*
X0200035Y0266847D02*
X0196295Y0266847D01*
X0200035Y0266847D02*
X0200035Y0263501D01*
X0196295Y0263501D01*
X0196295Y0266847D01*
X0196295Y0264091D02*
X0200035Y0264091D01*
X0200035Y0264681D02*
X0196295Y0264681D01*
X0196295Y0265271D02*
X0200035Y0265271D01*
X0200035Y0265861D02*
X0196295Y0265861D01*
X0196295Y0266451D02*
X0200035Y0266451D01*
X0240389Y0323934D02*
X0240389Y0327674D01*
X0240389Y0323934D02*
X0237043Y0323934D01*
X0237043Y0327674D01*
X0240389Y0327674D01*
X0240389Y0324524D02*
X0237043Y0324524D01*
X0237043Y0325114D02*
X0240389Y0325114D01*
X0240389Y0325704D02*
X0237043Y0325704D01*
X0237043Y0326294D02*
X0240389Y0326294D01*
X0240389Y0326884D02*
X0237043Y0326884D01*
X0237043Y0327474D02*
X0240389Y0327474D01*
X0240389Y0330627D02*
X0240389Y0334367D01*
X0240389Y0330627D02*
X0237043Y0330627D01*
X0237043Y0334367D01*
X0240389Y0334367D01*
X0240389Y0331217D02*
X0237043Y0331217D01*
X0237043Y0331807D02*
X0240389Y0331807D01*
X0240389Y0332397D02*
X0237043Y0332397D01*
X0237043Y0332987D02*
X0240389Y0332987D01*
X0240389Y0333577D02*
X0237043Y0333577D01*
X0237043Y0334167D02*
X0240389Y0334167D01*
X0221815Y0356529D02*
X0219171Y0359173D01*
X0221537Y0361539D01*
X0224181Y0358895D01*
X0221815Y0356529D01*
X0222405Y0357119D02*
X0221225Y0357119D01*
X0220635Y0357709D02*
X0222995Y0357709D01*
X0223585Y0358299D02*
X0220045Y0358299D01*
X0219455Y0358889D02*
X0224175Y0358889D01*
X0223597Y0359479D02*
X0219477Y0359479D01*
X0220067Y0360069D02*
X0223007Y0360069D01*
X0222417Y0360659D02*
X0220657Y0360659D01*
X0221247Y0361249D02*
X0221827Y0361249D01*
X0217082Y0361262D02*
X0214438Y0363906D01*
X0216804Y0366272D01*
X0219448Y0363628D01*
X0217082Y0361262D01*
X0217672Y0361852D02*
X0216492Y0361852D01*
X0215902Y0362442D02*
X0218262Y0362442D01*
X0218852Y0363032D02*
X0215312Y0363032D01*
X0214722Y0363622D02*
X0219442Y0363622D01*
X0218864Y0364212D02*
X0214744Y0364212D01*
X0215334Y0364802D02*
X0218274Y0364802D01*
X0217684Y0365392D02*
X0215924Y0365392D01*
X0216514Y0365982D02*
X0217094Y0365982D01*
X0278972Y0312714D02*
X0282712Y0312714D01*
X0278972Y0312714D02*
X0278972Y0316060D01*
X0282712Y0316060D01*
X0282712Y0312714D01*
X0282712Y0313304D02*
X0278972Y0313304D01*
X0278972Y0313894D02*
X0282712Y0313894D01*
X0282712Y0314484D02*
X0278972Y0314484D01*
X0278972Y0315074D02*
X0282712Y0315074D01*
X0282712Y0315664D02*
X0278972Y0315664D01*
X0285665Y0312714D02*
X0289405Y0312714D01*
X0285665Y0312714D02*
X0285665Y0316060D01*
X0289405Y0316060D01*
X0289405Y0312714D01*
X0289405Y0313304D02*
X0285665Y0313304D01*
X0285665Y0313894D02*
X0289405Y0313894D01*
X0289405Y0314484D02*
X0285665Y0314484D01*
X0285665Y0315074D02*
X0289405Y0315074D01*
X0289405Y0315664D02*
X0285665Y0315664D01*
X0285665Y0294471D02*
X0289405Y0294471D01*
X0285665Y0294471D02*
X0285665Y0297817D01*
X0289405Y0297817D01*
X0289405Y0294471D01*
X0289405Y0295061D02*
X0285665Y0295061D01*
X0285665Y0295651D02*
X0289405Y0295651D01*
X0289405Y0296241D02*
X0285665Y0296241D01*
X0285665Y0296831D02*
X0289405Y0296831D01*
X0289405Y0297421D02*
X0285665Y0297421D01*
X0282712Y0294471D02*
X0278972Y0294471D01*
X0278972Y0297817D01*
X0282712Y0297817D01*
X0282712Y0294471D01*
X0282712Y0295061D02*
X0278972Y0295061D01*
X0278972Y0295651D02*
X0282712Y0295651D01*
X0282712Y0296241D02*
X0278972Y0296241D01*
X0278972Y0296831D02*
X0282712Y0296831D01*
X0282712Y0297421D02*
X0278972Y0297421D01*
X0238224Y0194013D02*
X0234484Y0194013D01*
X0238224Y0194013D02*
X0238224Y0190667D01*
X0234484Y0190667D01*
X0234484Y0194013D01*
X0234484Y0191257D02*
X0238224Y0191257D01*
X0238224Y0191847D02*
X0234484Y0191847D01*
X0234484Y0192437D02*
X0238224Y0192437D01*
X0238224Y0193027D02*
X0234484Y0193027D01*
X0234484Y0193617D02*
X0238224Y0193617D01*
X0231531Y0194013D02*
X0227791Y0194013D01*
X0231531Y0194013D02*
X0231531Y0190667D01*
X0227791Y0190667D01*
X0227791Y0194013D01*
X0227791Y0191257D02*
X0231531Y0191257D01*
X0231531Y0191847D02*
X0227791Y0191847D01*
X0227791Y0192437D02*
X0231531Y0192437D01*
X0231531Y0193027D02*
X0227791Y0193027D01*
X0227791Y0193617D02*
X0231531Y0193617D01*
X0219523Y0193619D02*
X0219523Y0189879D01*
X0219523Y0193619D02*
X0222869Y0193619D01*
X0222869Y0189879D01*
X0219523Y0189879D01*
X0219523Y0190469D02*
X0222869Y0190469D01*
X0222869Y0191059D02*
X0219523Y0191059D01*
X0219523Y0191649D02*
X0222869Y0191649D01*
X0222869Y0192239D02*
X0219523Y0192239D01*
X0219523Y0192829D02*
X0222869Y0192829D01*
X0222869Y0193419D02*
X0219523Y0193419D01*
X0219523Y0186926D02*
X0219523Y0183186D01*
X0219523Y0186926D02*
X0222869Y0186926D01*
X0222869Y0183186D01*
X0219523Y0183186D01*
X0219523Y0183776D02*
X0222869Y0183776D01*
X0222869Y0184366D02*
X0219523Y0184366D01*
X0219523Y0184956D02*
X0222869Y0184956D01*
X0222869Y0185546D02*
X0219523Y0185546D01*
X0219523Y0186136D02*
X0222869Y0186136D01*
X0222869Y0186726D02*
X0219523Y0186726D01*
X0213618Y0168029D02*
X0213618Y0164289D01*
X0213618Y0168029D02*
X0216964Y0168029D01*
X0216964Y0164289D01*
X0213618Y0164289D01*
X0213618Y0164879D02*
X0216964Y0164879D01*
X0216964Y0165469D02*
X0213618Y0165469D01*
X0213618Y0166059D02*
X0216964Y0166059D01*
X0216964Y0166649D02*
X0213618Y0166649D01*
X0213618Y0167239D02*
X0216964Y0167239D01*
X0216964Y0167829D02*
X0213618Y0167829D01*
X0213618Y0161336D02*
X0213618Y0157596D01*
X0213618Y0161336D02*
X0216964Y0161336D01*
X0216964Y0157596D01*
X0213618Y0157596D01*
X0213618Y0158186D02*
X0216964Y0158186D01*
X0216964Y0158776D02*
X0213618Y0158776D01*
X0213618Y0159366D02*
X0216964Y0159366D01*
X0216964Y0159956D02*
X0213618Y0159956D01*
X0213618Y0160546D02*
X0216964Y0160546D01*
X0216964Y0161136D02*
X0213618Y0161136D01*
X0195901Y0161336D02*
X0195901Y0157596D01*
X0195901Y0161336D02*
X0199247Y0161336D01*
X0199247Y0157596D01*
X0195901Y0157596D01*
X0195901Y0158186D02*
X0199247Y0158186D01*
X0199247Y0158776D02*
X0195901Y0158776D01*
X0195901Y0159366D02*
X0199247Y0159366D01*
X0199247Y0159956D02*
X0195901Y0159956D01*
X0195901Y0160546D02*
X0199247Y0160546D01*
X0199247Y0161136D02*
X0195901Y0161136D01*
X0195901Y0164289D02*
X0195901Y0168029D01*
X0199247Y0168029D01*
X0199247Y0164289D01*
X0195901Y0164289D01*
X0195901Y0164879D02*
X0199247Y0164879D01*
X0199247Y0165469D02*
X0195901Y0165469D01*
X0195901Y0166059D02*
X0199247Y0166059D01*
X0199247Y0166649D02*
X0195901Y0166649D01*
X0195901Y0167239D02*
X0199247Y0167239D01*
X0199247Y0167829D02*
X0195901Y0167829D01*
X0183106Y0172359D02*
X0179366Y0172359D01*
X0183106Y0172359D02*
X0183106Y0169013D01*
X0179366Y0169013D01*
X0179366Y0172359D01*
X0179366Y0169603D02*
X0183106Y0169603D01*
X0183106Y0170193D02*
X0179366Y0170193D01*
X0179366Y0170783D02*
X0183106Y0170783D01*
X0183106Y0171373D02*
X0179366Y0171373D01*
X0179366Y0171963D02*
X0183106Y0171963D01*
X0183106Y0180233D02*
X0179366Y0180233D01*
X0183106Y0180233D02*
X0183106Y0176887D01*
X0179366Y0176887D01*
X0179366Y0180233D01*
X0179366Y0177477D02*
X0183106Y0177477D01*
X0183106Y0178067D02*
X0179366Y0178067D01*
X0179366Y0178657D02*
X0183106Y0178657D01*
X0183106Y0179247D02*
X0179366Y0179247D01*
X0179366Y0179837D02*
X0183106Y0179837D01*
X0176413Y0180233D02*
X0172673Y0180233D01*
X0176413Y0180233D02*
X0176413Y0176887D01*
X0172673Y0176887D01*
X0172673Y0180233D01*
X0172673Y0177477D02*
X0176413Y0177477D01*
X0176413Y0178067D02*
X0172673Y0178067D01*
X0172673Y0178657D02*
X0176413Y0178657D01*
X0176413Y0179247D02*
X0172673Y0179247D01*
X0172673Y0179837D02*
X0176413Y0179837D01*
X0176413Y0172359D02*
X0172673Y0172359D01*
X0176413Y0172359D02*
X0176413Y0169013D01*
X0172673Y0169013D01*
X0172673Y0172359D01*
X0172673Y0169603D02*
X0176413Y0169603D01*
X0176413Y0170193D02*
X0172673Y0170193D01*
X0172673Y0170783D02*
X0176413Y0170783D01*
X0176413Y0171373D02*
X0172673Y0171373D01*
X0172673Y0171963D02*
X0176413Y0171963D01*
X0176413Y0164485D02*
X0172673Y0164485D01*
X0176413Y0164485D02*
X0176413Y0161139D01*
X0172673Y0161139D01*
X0172673Y0164485D01*
X0172673Y0161729D02*
X0176413Y0161729D01*
X0176413Y0162319D02*
X0172673Y0162319D01*
X0172673Y0162909D02*
X0176413Y0162909D01*
X0176413Y0163499D02*
X0172673Y0163499D01*
X0172673Y0164089D02*
X0176413Y0164089D01*
X0179366Y0164485D02*
X0183106Y0164485D01*
X0183106Y0161139D01*
X0179366Y0161139D01*
X0179366Y0164485D01*
X0179366Y0161729D02*
X0183106Y0161729D01*
X0183106Y0162319D02*
X0179366Y0162319D01*
X0179366Y0162909D02*
X0183106Y0162909D01*
X0183106Y0163499D02*
X0179366Y0163499D01*
X0179366Y0164089D02*
X0183106Y0164089D01*
X0183499Y0191060D02*
X0183499Y0194800D01*
X0183499Y0191060D02*
X0180153Y0191060D01*
X0180153Y0194800D01*
X0183499Y0194800D01*
X0183499Y0191650D02*
X0180153Y0191650D01*
X0180153Y0192240D02*
X0183499Y0192240D01*
X0183499Y0192830D02*
X0180153Y0192830D01*
X0180153Y0193420D02*
X0183499Y0193420D01*
X0183499Y0194010D02*
X0180153Y0194010D01*
X0180153Y0194600D02*
X0183499Y0194600D01*
X0183499Y0197753D02*
X0183499Y0201493D01*
X0183499Y0197753D02*
X0180153Y0197753D01*
X0180153Y0201493D01*
X0183499Y0201493D01*
X0183499Y0198343D02*
X0180153Y0198343D01*
X0180153Y0198933D02*
X0183499Y0198933D01*
X0183499Y0199523D02*
X0180153Y0199523D01*
X0180153Y0200113D02*
X0183499Y0200113D01*
X0183499Y0200703D02*
X0180153Y0200703D01*
X0180153Y0201293D02*
X0183499Y0201293D01*
X0172279Y0201493D02*
X0172279Y0197753D01*
X0172279Y0201493D02*
X0175625Y0201493D01*
X0175625Y0197753D01*
X0172279Y0197753D01*
X0172279Y0198343D02*
X0175625Y0198343D01*
X0175625Y0198933D02*
X0172279Y0198933D01*
X0172279Y0199523D02*
X0175625Y0199523D01*
X0175625Y0200113D02*
X0172279Y0200113D01*
X0172279Y0200703D02*
X0175625Y0200703D01*
X0175625Y0201293D02*
X0172279Y0201293D01*
X0172279Y0194800D02*
X0172279Y0191060D01*
X0172279Y0194800D02*
X0175625Y0194800D01*
X0175625Y0191060D01*
X0172279Y0191060D01*
X0172279Y0191650D02*
X0175625Y0191650D01*
X0175625Y0192240D02*
X0172279Y0192240D01*
X0172279Y0192830D02*
X0175625Y0192830D01*
X0175625Y0193420D02*
X0172279Y0193420D01*
X0172279Y0194010D02*
X0175625Y0194010D01*
X0175625Y0194600D02*
X0172279Y0194600D01*
X0227791Y0157202D02*
X0231531Y0157202D01*
X0227791Y0157202D02*
X0227791Y0160548D01*
X0231531Y0160548D01*
X0231531Y0157202D01*
X0231531Y0157792D02*
X0227791Y0157792D01*
X0227791Y0158382D02*
X0231531Y0158382D01*
X0231531Y0158972D02*
X0227791Y0158972D01*
X0227791Y0159562D02*
X0231531Y0159562D01*
X0231531Y0160152D02*
X0227791Y0160152D01*
X0234484Y0157202D02*
X0238224Y0157202D01*
X0234484Y0157202D02*
X0234484Y0160548D01*
X0238224Y0160548D01*
X0238224Y0157202D01*
X0238224Y0157792D02*
X0234484Y0157792D01*
X0234484Y0158382D02*
X0238224Y0158382D01*
X0238224Y0158972D02*
X0234484Y0158972D01*
X0234484Y0159562D02*
X0238224Y0159562D01*
X0238224Y0160152D02*
X0234484Y0160152D01*
X0257870Y0162871D02*
X0261610Y0162871D01*
X0261610Y0159525D01*
X0257870Y0159525D01*
X0257870Y0162871D01*
X0257870Y0160115D02*
X0261610Y0160115D01*
X0261610Y0160705D02*
X0257870Y0160705D01*
X0257870Y0161295D02*
X0261610Y0161295D01*
X0261610Y0161885D02*
X0257870Y0161885D01*
X0257870Y0162475D02*
X0261610Y0162475D01*
X0264562Y0162871D02*
X0268302Y0162871D01*
X0268302Y0159525D01*
X0264562Y0159525D01*
X0264562Y0162871D01*
X0264562Y0160115D02*
X0268302Y0160115D01*
X0268302Y0160705D02*
X0264562Y0160705D01*
X0264562Y0161295D02*
X0268302Y0161295D01*
X0268302Y0161885D02*
X0264562Y0161885D01*
X0264562Y0162475D02*
X0268302Y0162475D01*
X0263224Y0183186D02*
X0263224Y0186926D01*
X0263224Y0183186D02*
X0259878Y0183186D01*
X0259878Y0186926D01*
X0263224Y0186926D01*
X0263224Y0183776D02*
X0259878Y0183776D01*
X0259878Y0184366D02*
X0263224Y0184366D01*
X0263224Y0184956D02*
X0259878Y0184956D01*
X0259878Y0185546D02*
X0263224Y0185546D01*
X0263224Y0186136D02*
X0259878Y0186136D01*
X0259878Y0186726D02*
X0263224Y0186726D01*
X0263224Y0189879D02*
X0263224Y0193619D01*
X0263224Y0189879D02*
X0259878Y0189879D01*
X0259878Y0193619D01*
X0263224Y0193619D01*
X0263224Y0190469D02*
X0259878Y0190469D01*
X0259878Y0191059D02*
X0263224Y0191059D01*
X0263224Y0191649D02*
X0259878Y0191649D01*
X0259878Y0192239D02*
X0263224Y0192239D01*
X0263224Y0192829D02*
X0259878Y0192829D01*
X0259878Y0193419D02*
X0263224Y0193419D01*
X0281531Y0171966D02*
X0281531Y0168226D01*
X0281531Y0171966D02*
X0284877Y0171966D01*
X0284877Y0168226D01*
X0281531Y0168226D01*
X0281531Y0168816D02*
X0284877Y0168816D01*
X0284877Y0169406D02*
X0281531Y0169406D01*
X0281531Y0169996D02*
X0284877Y0169996D01*
X0284877Y0170586D02*
X0281531Y0170586D01*
X0281531Y0171176D02*
X0284877Y0171176D01*
X0284877Y0171766D02*
X0281531Y0171766D01*
X0281531Y0165273D02*
X0281531Y0161533D01*
X0281531Y0165273D02*
X0284877Y0165273D01*
X0284877Y0161533D01*
X0281531Y0161533D01*
X0281531Y0162123D02*
X0284877Y0162123D01*
X0284877Y0162713D02*
X0281531Y0162713D01*
X0281531Y0163303D02*
X0284877Y0163303D01*
X0284877Y0163893D02*
X0281531Y0163893D01*
X0281531Y0164483D02*
X0284877Y0164483D01*
X0284877Y0165073D02*
X0281531Y0165073D01*
X0101444Y0288656D02*
X0097704Y0288656D01*
X0097704Y0292002D01*
X0101444Y0292002D01*
X0101444Y0288656D01*
X0101444Y0289246D02*
X0097704Y0289246D01*
X0097704Y0289836D02*
X0101444Y0289836D01*
X0101444Y0290426D02*
X0097704Y0290426D01*
X0097704Y0291016D02*
X0101444Y0291016D01*
X0101444Y0291606D02*
X0097704Y0291606D01*
X0094751Y0288656D02*
X0091011Y0288656D01*
X0091011Y0292002D01*
X0094751Y0292002D01*
X0094751Y0288656D01*
X0094751Y0289246D02*
X0091011Y0289246D01*
X0091011Y0289836D02*
X0094751Y0289836D01*
X0094751Y0290426D02*
X0091011Y0290426D01*
X0091011Y0291016D02*
X0094751Y0291016D01*
X0094751Y0291606D02*
X0091011Y0291606D01*
X0091177Y0302202D02*
X0094917Y0302202D01*
X0094917Y0298856D01*
X0091177Y0298856D01*
X0091177Y0302202D01*
X0091177Y0299446D02*
X0094917Y0299446D01*
X0094917Y0300036D02*
X0091177Y0300036D01*
X0091177Y0300626D02*
X0094917Y0300626D01*
X0094917Y0301216D02*
X0091177Y0301216D01*
X0091177Y0301806D02*
X0094917Y0301806D01*
X0097870Y0302202D02*
X0101610Y0302202D01*
X0101610Y0298856D01*
X0097870Y0298856D01*
X0097870Y0302202D01*
X0097870Y0299446D02*
X0101610Y0299446D01*
X0101610Y0300036D02*
X0097870Y0300036D01*
X0097870Y0300626D02*
X0101610Y0300626D01*
X0101610Y0301216D02*
X0097870Y0301216D01*
X0097870Y0301806D02*
X0101610Y0301806D01*
X0108884Y0366257D02*
X0108884Y0369603D01*
X0108884Y0366257D02*
X0091364Y0366257D01*
X0091364Y0369603D01*
X0108884Y0369603D01*
X0108884Y0366847D02*
X0091364Y0366847D01*
X0091364Y0367437D02*
X0108884Y0367437D01*
X0108884Y0368027D02*
X0091364Y0368027D01*
X0091364Y0368617D02*
X0108884Y0368617D01*
X0108884Y0369207D02*
X0091364Y0369207D01*
X0108884Y0374131D02*
X0108884Y0377477D01*
X0108884Y0374131D02*
X0091364Y0374131D01*
X0091364Y0377477D01*
X0108884Y0377477D01*
X0108884Y0374721D02*
X0091364Y0374721D01*
X0091364Y0375311D02*
X0108884Y0375311D01*
X0108884Y0375901D02*
X0091364Y0375901D01*
X0091364Y0376491D02*
X0108884Y0376491D01*
X0108884Y0377081D02*
X0091364Y0377081D01*
X0232220Y0460391D02*
X0235960Y0460391D01*
X0232220Y0460391D02*
X0232220Y0463737D01*
X0235960Y0463737D01*
X0235960Y0460391D01*
X0235960Y0460981D02*
X0232220Y0460981D01*
X0232220Y0461571D02*
X0235960Y0461571D01*
X0235960Y0462161D02*
X0232220Y0462161D01*
X0232220Y0462751D02*
X0235960Y0462751D01*
X0235960Y0463341D02*
X0232220Y0463341D01*
X0239838Y0468639D02*
X0239838Y0470411D01*
X0239838Y0468639D02*
X0231768Y0468639D01*
X0231768Y0470411D01*
X0239838Y0470411D01*
X0239838Y0469229D02*
X0231768Y0469229D01*
X0231768Y0469819D02*
X0239838Y0469819D01*
X0239838Y0470409D02*
X0231768Y0470409D01*
X0239838Y0473639D02*
X0239838Y0475411D01*
X0239838Y0473639D02*
X0231768Y0473639D01*
X0231768Y0475411D01*
X0239838Y0475411D01*
X0239838Y0474229D02*
X0231768Y0474229D01*
X0231768Y0474819D02*
X0239838Y0474819D01*
X0239838Y0475409D02*
X0231768Y0475409D01*
X0239838Y0478639D02*
X0239838Y0480411D01*
X0239838Y0478639D02*
X0231768Y0478639D01*
X0231768Y0480411D01*
X0239838Y0480411D01*
X0239838Y0479229D02*
X0231768Y0479229D01*
X0231768Y0479819D02*
X0239838Y0479819D01*
X0239838Y0480409D02*
X0231768Y0480409D01*
X0239838Y0483639D02*
X0239838Y0485411D01*
X0239838Y0483639D02*
X0231768Y0483639D01*
X0231768Y0485411D01*
X0239838Y0485411D01*
X0239838Y0484229D02*
X0231768Y0484229D01*
X0231768Y0484819D02*
X0239838Y0484819D01*
X0239838Y0485409D02*
X0231768Y0485409D01*
X0238913Y0460391D02*
X0242653Y0460391D01*
X0238913Y0460391D02*
X0238913Y0463737D01*
X0242653Y0463737D01*
X0242653Y0460391D01*
X0242653Y0460981D02*
X0238913Y0460981D01*
X0238913Y0461571D02*
X0242653Y0461571D01*
X0242653Y0462161D02*
X0238913Y0462161D01*
X0238913Y0462751D02*
X0242653Y0462751D01*
X0242653Y0463341D02*
X0238913Y0463341D01*
X0249838Y0460352D02*
X0253578Y0460352D01*
X0249838Y0460352D02*
X0249838Y0463698D01*
X0253578Y0463698D01*
X0253578Y0460352D01*
X0253578Y0460942D02*
X0249838Y0460942D01*
X0249838Y0461532D02*
X0253578Y0461532D01*
X0253578Y0462122D02*
X0249838Y0462122D01*
X0249838Y0462712D02*
X0253578Y0462712D01*
X0253578Y0463302D02*
X0249838Y0463302D01*
X0260310Y0468639D02*
X0260310Y0470411D01*
X0260310Y0468639D02*
X0252240Y0468639D01*
X0252240Y0470411D01*
X0260310Y0470411D01*
X0260310Y0469229D02*
X0252240Y0469229D01*
X0252240Y0469819D02*
X0260310Y0469819D01*
X0260310Y0470409D02*
X0252240Y0470409D01*
X0260310Y0473639D02*
X0260310Y0475411D01*
X0260310Y0473639D02*
X0252240Y0473639D01*
X0252240Y0475411D01*
X0260310Y0475411D01*
X0260310Y0474229D02*
X0252240Y0474229D01*
X0252240Y0474819D02*
X0260310Y0474819D01*
X0260310Y0475409D02*
X0252240Y0475409D01*
X0260310Y0478639D02*
X0260310Y0480411D01*
X0260310Y0478639D02*
X0252240Y0478639D01*
X0252240Y0480411D01*
X0260310Y0480411D01*
X0260310Y0479229D02*
X0252240Y0479229D01*
X0252240Y0479819D02*
X0260310Y0479819D01*
X0260310Y0480409D02*
X0252240Y0480409D01*
X0260310Y0483639D02*
X0260310Y0485411D01*
X0260310Y0483639D02*
X0252240Y0483639D01*
X0252240Y0485411D01*
X0260310Y0485411D01*
X0260310Y0484229D02*
X0252240Y0484229D01*
X0252240Y0484819D02*
X0260310Y0484819D01*
X0260310Y0485409D02*
X0252240Y0485409D01*
X0253696Y0491848D02*
X0249956Y0491848D01*
X0249956Y0495194D01*
X0253696Y0495194D01*
X0253696Y0491848D01*
X0253696Y0492438D02*
X0249956Y0492438D01*
X0249956Y0493028D02*
X0253696Y0493028D01*
X0253696Y0493618D02*
X0249956Y0493618D01*
X0249956Y0494208D02*
X0253696Y0494208D01*
X0253696Y0494798D02*
X0249956Y0494798D01*
X0256649Y0491848D02*
X0260389Y0491848D01*
X0256649Y0491848D02*
X0256649Y0495194D01*
X0260389Y0495194D01*
X0260389Y0491848D01*
X0260389Y0492438D02*
X0256649Y0492438D01*
X0256649Y0493028D02*
X0260389Y0493028D01*
X0260389Y0493618D02*
X0256649Y0493618D01*
X0256649Y0494208D02*
X0260389Y0494208D01*
X0260389Y0494798D02*
X0256649Y0494798D01*
X0256531Y0460352D02*
X0260271Y0460352D01*
X0256531Y0460352D02*
X0256531Y0463698D01*
X0260271Y0463698D01*
X0260271Y0460352D01*
X0260271Y0460942D02*
X0256531Y0460942D01*
X0256531Y0461532D02*
X0260271Y0461532D01*
X0260271Y0462122D02*
X0256531Y0462122D01*
X0256531Y0462712D02*
X0260271Y0462712D01*
X0260271Y0463302D02*
X0256531Y0463302D01*
X0278972Y0460194D02*
X0282712Y0460194D01*
X0278972Y0460194D02*
X0278972Y0463540D01*
X0282712Y0463540D01*
X0282712Y0460194D01*
X0282712Y0460784D02*
X0278972Y0460784D01*
X0278972Y0461374D02*
X0282712Y0461374D01*
X0282712Y0461964D02*
X0278972Y0461964D01*
X0278972Y0462554D02*
X0282712Y0462554D01*
X0282712Y0463144D02*
X0278972Y0463144D01*
X0278972Y0472202D02*
X0282712Y0472202D01*
X0282712Y0468856D01*
X0278972Y0468856D01*
X0278972Y0472202D01*
X0278972Y0469446D02*
X0282712Y0469446D01*
X0282712Y0470036D02*
X0278972Y0470036D01*
X0278972Y0470626D02*
X0282712Y0470626D01*
X0282712Y0471216D02*
X0278972Y0471216D01*
X0278972Y0471806D02*
X0282712Y0471806D01*
X0285665Y0472202D02*
X0289405Y0472202D01*
X0289405Y0468856D01*
X0285665Y0468856D01*
X0285665Y0472202D01*
X0285665Y0469446D02*
X0289405Y0469446D01*
X0289405Y0470036D02*
X0285665Y0470036D01*
X0285665Y0470626D02*
X0289405Y0470626D01*
X0289405Y0471216D02*
X0285665Y0471216D01*
X0285665Y0471806D02*
X0289405Y0471806D01*
X0289405Y0460194D02*
X0285665Y0460194D01*
X0285665Y0463540D01*
X0289405Y0463540D01*
X0289405Y0460194D01*
X0289405Y0460784D02*
X0285665Y0460784D01*
X0285665Y0461374D02*
X0289405Y0461374D01*
X0289405Y0461964D02*
X0285665Y0461964D01*
X0285665Y0462554D02*
X0289405Y0462554D01*
X0289405Y0463144D02*
X0285665Y0463144D01*
X0294720Y0462147D02*
X0294720Y0458407D01*
X0294720Y0462147D02*
X0298066Y0462147D01*
X0298066Y0458407D01*
X0294720Y0458407D01*
X0294720Y0458997D02*
X0298066Y0458997D01*
X0298066Y0459587D02*
X0294720Y0459587D01*
X0294720Y0460177D02*
X0298066Y0460177D01*
X0298066Y0460767D02*
X0294720Y0460767D01*
X0294720Y0461357D02*
X0298066Y0461357D01*
X0298066Y0461947D02*
X0294720Y0461947D01*
X0294720Y0465100D02*
X0294720Y0468840D01*
X0298066Y0468840D01*
X0298066Y0465100D01*
X0294720Y0465100D01*
X0294720Y0465690D02*
X0298066Y0465690D01*
X0298066Y0466280D02*
X0294720Y0466280D01*
X0294720Y0466870D02*
X0298066Y0466870D01*
X0298066Y0467460D02*
X0294720Y0467460D01*
X0294720Y0468050D02*
X0298066Y0468050D01*
X0298066Y0468640D02*
X0294720Y0468640D01*
X0294326Y0472911D02*
X0294326Y0476651D01*
X0297672Y0476651D01*
X0297672Y0472911D01*
X0294326Y0472911D01*
X0294326Y0473501D02*
X0297672Y0473501D01*
X0297672Y0474091D02*
X0294326Y0474091D01*
X0294326Y0474681D02*
X0297672Y0474681D01*
X0297672Y0475271D02*
X0294326Y0475271D01*
X0294326Y0475861D02*
X0297672Y0475861D01*
X0297672Y0476451D02*
X0294326Y0476451D01*
X0294326Y0479603D02*
X0294326Y0483343D01*
X0297672Y0483343D01*
X0297672Y0479603D01*
X0294326Y0479603D01*
X0294326Y0480193D02*
X0297672Y0480193D01*
X0297672Y0480783D02*
X0294326Y0480783D01*
X0294326Y0481373D02*
X0297672Y0481373D01*
X0297672Y0481963D02*
X0294326Y0481963D01*
X0294326Y0482553D02*
X0297672Y0482553D01*
X0297672Y0483143D02*
X0294326Y0483143D01*
X0289405Y0488131D02*
X0285665Y0488131D01*
X0289405Y0488131D02*
X0289405Y0484785D01*
X0285665Y0484785D01*
X0285665Y0488131D01*
X0285665Y0485375D02*
X0289405Y0485375D01*
X0289405Y0485965D02*
X0285665Y0485965D01*
X0285665Y0486555D02*
X0289405Y0486555D01*
X0289405Y0487145D02*
X0285665Y0487145D01*
X0285665Y0487735D02*
X0289405Y0487735D01*
X0282712Y0488131D02*
X0278972Y0488131D01*
X0282712Y0488131D02*
X0282712Y0484785D01*
X0278972Y0484785D01*
X0278972Y0488131D01*
X0278972Y0485375D02*
X0282712Y0485375D01*
X0282712Y0485965D02*
X0278972Y0485965D01*
X0278972Y0486555D02*
X0282712Y0486555D01*
X0282712Y0487145D02*
X0278972Y0487145D01*
X0278972Y0487735D02*
X0282712Y0487735D01*
X0282712Y0479863D02*
X0278972Y0479863D01*
X0282712Y0479863D02*
X0282712Y0476517D01*
X0278972Y0476517D01*
X0278972Y0479863D01*
X0278972Y0477107D02*
X0282712Y0477107D01*
X0282712Y0477697D02*
X0278972Y0477697D01*
X0278972Y0478287D02*
X0282712Y0478287D01*
X0282712Y0478877D02*
X0278972Y0478877D01*
X0278972Y0479467D02*
X0282712Y0479467D01*
X0285665Y0479863D02*
X0289405Y0479863D01*
X0289405Y0476517D01*
X0285665Y0476517D01*
X0285665Y0479863D01*
X0285665Y0477107D02*
X0289405Y0477107D01*
X0289405Y0477697D02*
X0285665Y0477697D01*
X0285665Y0478287D02*
X0289405Y0478287D01*
X0289405Y0478877D02*
X0285665Y0478877D01*
X0285665Y0479467D02*
X0289405Y0479467D01*
X0302200Y0443619D02*
X0302200Y0439879D01*
X0302200Y0443619D02*
X0305546Y0443619D01*
X0305546Y0439879D01*
X0302200Y0439879D01*
X0302200Y0440469D02*
X0305546Y0440469D01*
X0305546Y0441059D02*
X0302200Y0441059D01*
X0302200Y0441649D02*
X0305546Y0441649D01*
X0305546Y0442239D02*
X0302200Y0442239D01*
X0302200Y0442829D02*
X0305546Y0442829D01*
X0305546Y0443419D02*
X0302200Y0443419D01*
X0302200Y0436926D02*
X0302200Y0433186D01*
X0302200Y0436926D02*
X0305546Y0436926D01*
X0305546Y0433186D01*
X0302200Y0433186D01*
X0302200Y0433776D02*
X0305546Y0433776D01*
X0305546Y0434366D02*
X0302200Y0434366D01*
X0302200Y0434956D02*
X0305546Y0434956D01*
X0305546Y0435546D02*
X0302200Y0435546D01*
X0302200Y0436136D02*
X0305546Y0436136D01*
X0305546Y0436726D02*
X0302200Y0436726D01*
D12*
X0252890Y0433186D02*
X0252890Y0441258D01*
X0252890Y0433186D02*
X0250920Y0433186D01*
X0250920Y0441258D01*
X0252890Y0441258D01*
X0252890Y0433774D02*
X0250920Y0433774D01*
X0250920Y0434362D02*
X0252890Y0434362D01*
X0252890Y0434950D02*
X0250920Y0434950D01*
X0250920Y0435538D02*
X0252890Y0435538D01*
X0252890Y0436126D02*
X0250920Y0436126D01*
X0250920Y0436714D02*
X0252890Y0436714D01*
X0252890Y0437302D02*
X0250920Y0437302D01*
X0250920Y0437890D02*
X0252890Y0437890D01*
X0252890Y0438478D02*
X0250920Y0438478D01*
X0250920Y0439066D02*
X0252890Y0439066D01*
X0252890Y0439654D02*
X0250920Y0439654D01*
X0250920Y0440242D02*
X0252890Y0440242D01*
X0252890Y0440830D02*
X0250920Y0440830D01*
X0252890Y0447752D02*
X0252890Y0455824D01*
X0252890Y0447752D02*
X0250920Y0447752D01*
X0250920Y0455824D01*
X0252890Y0455824D01*
X0252890Y0448340D02*
X0250920Y0448340D01*
X0250920Y0448928D02*
X0252890Y0448928D01*
X0252890Y0449516D02*
X0250920Y0449516D01*
X0250920Y0450104D02*
X0252890Y0450104D01*
X0252890Y0450692D02*
X0250920Y0450692D01*
X0250920Y0451280D02*
X0252890Y0451280D01*
X0252890Y0451868D02*
X0250920Y0451868D01*
X0250920Y0452456D02*
X0252890Y0452456D01*
X0252890Y0453044D02*
X0250920Y0453044D01*
X0250920Y0453632D02*
X0252890Y0453632D01*
X0252890Y0454220D02*
X0250920Y0454220D01*
X0250920Y0454808D02*
X0252890Y0454808D01*
X0252890Y0455396D02*
X0250920Y0455396D01*
D13*
X0277401Y0450308D02*
X0279953Y0450308D01*
X0279953Y0446182D01*
X0277401Y0446182D01*
X0277401Y0450308D01*
X0277401Y0446779D02*
X0279953Y0446779D01*
X0279953Y0447376D02*
X0277401Y0447376D01*
X0277401Y0447973D02*
X0279953Y0447973D01*
X0279953Y0448570D02*
X0277401Y0448570D01*
X0277401Y0449167D02*
X0279953Y0449167D01*
X0279953Y0449764D02*
X0277401Y0449764D01*
X0284487Y0450308D02*
X0287039Y0450308D01*
X0287039Y0446182D01*
X0284487Y0446182D01*
X0284487Y0450308D01*
X0284487Y0446779D02*
X0287039Y0446779D01*
X0287039Y0447376D02*
X0284487Y0447376D01*
X0284487Y0447973D02*
X0287039Y0447973D01*
X0287039Y0448570D02*
X0284487Y0448570D01*
X0284487Y0449167D02*
X0287039Y0449167D01*
X0287039Y0449764D02*
X0284487Y0449764D01*
X0292445Y0344324D02*
X0292445Y0343348D01*
X0292445Y0344324D02*
X0297359Y0344324D01*
X0297359Y0343348D01*
X0292445Y0343348D01*
X0292445Y0343945D02*
X0297359Y0343945D01*
X0292445Y0341765D02*
X0292445Y0340789D01*
X0292445Y0341765D02*
X0297359Y0341765D01*
X0297359Y0340789D01*
X0292445Y0340789D01*
X0292445Y0341386D02*
X0297359Y0341386D01*
X0292445Y0339206D02*
X0292445Y0338230D01*
X0292445Y0339206D02*
X0297359Y0339206D01*
X0297359Y0338230D01*
X0292445Y0338230D01*
X0292445Y0338827D02*
X0297359Y0338827D01*
X0292445Y0336647D02*
X0292445Y0335671D01*
X0292445Y0336647D02*
X0297359Y0336647D01*
X0297359Y0335671D01*
X0292445Y0335671D01*
X0292445Y0336268D02*
X0297359Y0336268D01*
X0292445Y0334087D02*
X0292445Y0333111D01*
X0292445Y0334087D02*
X0297359Y0334087D01*
X0297359Y0333111D01*
X0292445Y0333111D01*
X0292445Y0333708D02*
X0297359Y0333708D01*
X0241567Y0339284D02*
X0239015Y0339284D01*
X0241567Y0339284D02*
X0241567Y0338308D01*
X0239015Y0338308D01*
X0239015Y0339284D01*
X0239015Y0338905D02*
X0241567Y0338905D01*
X0241567Y0344009D02*
X0239015Y0344009D01*
X0241567Y0344009D02*
X0241567Y0343033D01*
X0239015Y0343033D01*
X0239015Y0344009D01*
X0239015Y0343630D02*
X0241567Y0343630D01*
X0212235Y0195001D02*
X0212047Y0195001D01*
X0212047Y0196765D01*
X0212235Y0196765D01*
X0212235Y0195001D01*
X0212235Y0195598D02*
X0212047Y0195598D01*
X0212047Y0196195D02*
X0212235Y0196195D01*
X0210660Y0195001D02*
X0210472Y0195001D01*
X0210472Y0196765D01*
X0210660Y0196765D01*
X0210660Y0195001D01*
X0210660Y0195598D02*
X0210472Y0195598D01*
X0210472Y0196195D02*
X0210660Y0196195D01*
X0209086Y0195001D02*
X0208898Y0195001D01*
X0208898Y0196765D01*
X0209086Y0196765D01*
X0209086Y0195001D01*
X0209086Y0195598D02*
X0208898Y0195598D01*
X0208898Y0196195D02*
X0209086Y0196195D01*
X0207511Y0195001D02*
X0207323Y0195001D01*
X0207323Y0196765D01*
X0207511Y0196765D01*
X0207511Y0195001D01*
X0207511Y0195598D02*
X0207323Y0195598D01*
X0207323Y0196195D02*
X0207511Y0196195D01*
X0205936Y0195001D02*
X0205748Y0195001D01*
X0205748Y0196765D01*
X0205936Y0196765D01*
X0205936Y0195001D01*
X0205936Y0195598D02*
X0205748Y0195598D01*
X0205748Y0196195D02*
X0205936Y0196195D01*
X0204361Y0195001D02*
X0204173Y0195001D01*
X0204173Y0196765D01*
X0204361Y0196765D01*
X0204361Y0195001D01*
X0204361Y0195598D02*
X0204173Y0195598D01*
X0204173Y0196195D02*
X0204361Y0196195D01*
X0202786Y0195001D02*
X0202598Y0195001D01*
X0202598Y0196765D01*
X0202786Y0196765D01*
X0202786Y0195001D01*
X0202786Y0195598D02*
X0202598Y0195598D01*
X0202598Y0196195D02*
X0202786Y0196195D01*
X0201212Y0195001D02*
X0201024Y0195001D01*
X0201024Y0196765D01*
X0201212Y0196765D01*
X0201212Y0195001D01*
X0201212Y0195598D02*
X0201024Y0195598D01*
X0201024Y0196195D02*
X0201212Y0196195D01*
X0199637Y0195001D02*
X0199449Y0195001D01*
X0199449Y0196765D01*
X0199637Y0196765D01*
X0199637Y0195001D01*
X0199637Y0195598D02*
X0199449Y0195598D01*
X0199449Y0196195D02*
X0199637Y0196195D01*
X0198062Y0195001D02*
X0197874Y0195001D01*
X0197874Y0196765D01*
X0198062Y0196765D01*
X0198062Y0195001D01*
X0198062Y0195598D02*
X0197874Y0195598D01*
X0197874Y0196195D02*
X0198062Y0196195D01*
X0196487Y0195001D02*
X0196299Y0195001D01*
X0196299Y0196765D01*
X0196487Y0196765D01*
X0196487Y0195001D01*
X0196487Y0195598D02*
X0196299Y0195598D01*
X0196299Y0196195D02*
X0196487Y0196195D01*
X0194912Y0195001D02*
X0194724Y0195001D01*
X0194724Y0196765D01*
X0194912Y0196765D01*
X0194912Y0195001D01*
X0194912Y0195598D02*
X0194724Y0195598D01*
X0194724Y0196195D02*
X0194912Y0196195D01*
X0191180Y0193221D02*
X0191180Y0193033D01*
X0191180Y0193221D02*
X0192944Y0193221D01*
X0192944Y0193033D01*
X0191180Y0193033D01*
X0191180Y0191646D02*
X0191180Y0191458D01*
X0191180Y0191646D02*
X0192944Y0191646D01*
X0192944Y0191458D01*
X0191180Y0191458D01*
X0191180Y0190071D02*
X0191180Y0189883D01*
X0191180Y0190071D02*
X0192944Y0190071D01*
X0192944Y0189883D01*
X0191180Y0189883D01*
X0191180Y0188497D02*
X0191180Y0188309D01*
X0191180Y0188497D02*
X0192944Y0188497D01*
X0192944Y0188309D01*
X0191180Y0188309D01*
X0191180Y0186922D02*
X0191180Y0186734D01*
X0191180Y0186922D02*
X0192944Y0186922D01*
X0192944Y0186734D01*
X0191180Y0186734D01*
X0191180Y0185347D02*
X0191180Y0185159D01*
X0191180Y0185347D02*
X0192944Y0185347D01*
X0192944Y0185159D01*
X0191180Y0185159D01*
X0191180Y0183772D02*
X0191180Y0183584D01*
X0191180Y0183772D02*
X0192944Y0183772D01*
X0192944Y0183584D01*
X0191180Y0183584D01*
X0191180Y0182197D02*
X0191180Y0182009D01*
X0191180Y0182197D02*
X0192944Y0182197D01*
X0192944Y0182009D01*
X0191180Y0182009D01*
X0191180Y0180623D02*
X0191180Y0180435D01*
X0191180Y0180623D02*
X0192944Y0180623D01*
X0192944Y0180435D01*
X0191180Y0180435D01*
X0191180Y0179048D02*
X0191180Y0178860D01*
X0191180Y0179048D02*
X0192944Y0179048D01*
X0192944Y0178860D01*
X0191180Y0178860D01*
X0191180Y0177473D02*
X0191180Y0177285D01*
X0191180Y0177473D02*
X0192944Y0177473D01*
X0192944Y0177285D01*
X0191180Y0177285D01*
X0191180Y0175898D02*
X0191180Y0175710D01*
X0191180Y0175898D02*
X0192944Y0175898D01*
X0192944Y0175710D01*
X0191180Y0175710D01*
X0194724Y0173930D02*
X0194912Y0173930D01*
X0194912Y0172166D01*
X0194724Y0172166D01*
X0194724Y0173930D01*
X0194724Y0172763D02*
X0194912Y0172763D01*
X0194912Y0173360D02*
X0194724Y0173360D01*
X0196299Y0173930D02*
X0196487Y0173930D01*
X0196487Y0172166D01*
X0196299Y0172166D01*
X0196299Y0173930D01*
X0196299Y0172763D02*
X0196487Y0172763D01*
X0196487Y0173360D02*
X0196299Y0173360D01*
X0197874Y0173930D02*
X0198062Y0173930D01*
X0198062Y0172166D01*
X0197874Y0172166D01*
X0197874Y0173930D01*
X0197874Y0172763D02*
X0198062Y0172763D01*
X0198062Y0173360D02*
X0197874Y0173360D01*
X0199449Y0173930D02*
X0199637Y0173930D01*
X0199637Y0172166D01*
X0199449Y0172166D01*
X0199449Y0173930D01*
X0199449Y0172763D02*
X0199637Y0172763D01*
X0199637Y0173360D02*
X0199449Y0173360D01*
X0201024Y0173930D02*
X0201212Y0173930D01*
X0201212Y0172166D01*
X0201024Y0172166D01*
X0201024Y0173930D01*
X0201024Y0172763D02*
X0201212Y0172763D01*
X0201212Y0173360D02*
X0201024Y0173360D01*
X0202598Y0173930D02*
X0202786Y0173930D01*
X0202786Y0172166D01*
X0202598Y0172166D01*
X0202598Y0173930D01*
X0202598Y0172763D02*
X0202786Y0172763D01*
X0202786Y0173360D02*
X0202598Y0173360D01*
X0204173Y0173930D02*
X0204361Y0173930D01*
X0204361Y0172166D01*
X0204173Y0172166D01*
X0204173Y0173930D01*
X0204173Y0172763D02*
X0204361Y0172763D01*
X0204361Y0173360D02*
X0204173Y0173360D01*
X0205748Y0173930D02*
X0205936Y0173930D01*
X0205936Y0172166D01*
X0205748Y0172166D01*
X0205748Y0173930D01*
X0205748Y0172763D02*
X0205936Y0172763D01*
X0205936Y0173360D02*
X0205748Y0173360D01*
X0207323Y0173930D02*
X0207511Y0173930D01*
X0207511Y0172166D01*
X0207323Y0172166D01*
X0207323Y0173930D01*
X0207323Y0172763D02*
X0207511Y0172763D01*
X0207511Y0173360D02*
X0207323Y0173360D01*
X0208898Y0173930D02*
X0209086Y0173930D01*
X0209086Y0172166D01*
X0208898Y0172166D01*
X0208898Y0173930D01*
X0208898Y0172763D02*
X0209086Y0172763D01*
X0209086Y0173360D02*
X0208898Y0173360D01*
X0210472Y0173930D02*
X0210660Y0173930D01*
X0210660Y0172166D01*
X0210472Y0172166D01*
X0210472Y0173930D01*
X0210472Y0172763D02*
X0210660Y0172763D01*
X0210660Y0173360D02*
X0210472Y0173360D01*
X0212047Y0173930D02*
X0212235Y0173930D01*
X0212235Y0172166D01*
X0212047Y0172166D01*
X0212047Y0173930D01*
X0212047Y0172763D02*
X0212235Y0172763D01*
X0212235Y0173360D02*
X0212047Y0173360D01*
X0215779Y0175710D02*
X0215779Y0175898D01*
X0215779Y0175710D02*
X0214015Y0175710D01*
X0214015Y0175898D01*
X0215779Y0175898D01*
X0215779Y0177285D02*
X0215779Y0177473D01*
X0215779Y0177285D02*
X0214015Y0177285D01*
X0214015Y0177473D01*
X0215779Y0177473D01*
X0215779Y0178860D02*
X0215779Y0179048D01*
X0215779Y0178860D02*
X0214015Y0178860D01*
X0214015Y0179048D01*
X0215779Y0179048D01*
X0215779Y0180435D02*
X0215779Y0180623D01*
X0215779Y0180435D02*
X0214015Y0180435D01*
X0214015Y0180623D01*
X0215779Y0180623D01*
X0215779Y0182009D02*
X0215779Y0182197D01*
X0215779Y0182009D02*
X0214015Y0182009D01*
X0214015Y0182197D01*
X0215779Y0182197D01*
X0215779Y0183584D02*
X0215779Y0183772D01*
X0215779Y0183584D02*
X0214015Y0183584D01*
X0214015Y0183772D01*
X0215779Y0183772D01*
X0215779Y0185159D02*
X0215779Y0185347D01*
X0215779Y0185159D02*
X0214015Y0185159D01*
X0214015Y0185347D01*
X0215779Y0185347D01*
X0215779Y0186734D02*
X0215779Y0186922D01*
X0215779Y0186734D02*
X0214015Y0186734D01*
X0214015Y0186922D01*
X0215779Y0186922D01*
X0215779Y0188309D02*
X0215779Y0188497D01*
X0215779Y0188309D02*
X0214015Y0188309D01*
X0214015Y0188497D01*
X0215779Y0188497D01*
X0215779Y0189883D02*
X0215779Y0190071D01*
X0215779Y0189883D02*
X0214015Y0189883D01*
X0214015Y0190071D01*
X0215779Y0190071D01*
X0215779Y0191458D02*
X0215779Y0191646D01*
X0215779Y0191458D02*
X0214015Y0191458D01*
X0214015Y0191646D01*
X0215779Y0191646D01*
X0215779Y0193033D02*
X0215779Y0193221D01*
X0215779Y0193033D02*
X0214015Y0193033D01*
X0214015Y0193221D01*
X0215779Y0193221D01*
X0091156Y0321576D02*
X0091156Y0322552D01*
X0091156Y0321576D02*
X0086242Y0321576D01*
X0086242Y0322552D01*
X0091156Y0322552D01*
X0091156Y0322173D02*
X0086242Y0322173D01*
X0091156Y0324135D02*
X0091156Y0325111D01*
X0091156Y0324135D02*
X0086242Y0324135D01*
X0086242Y0325111D01*
X0091156Y0325111D01*
X0091156Y0324732D02*
X0086242Y0324732D01*
X0091156Y0326694D02*
X0091156Y0327670D01*
X0091156Y0326694D02*
X0086242Y0326694D01*
X0086242Y0327670D01*
X0091156Y0327670D01*
X0091156Y0327291D02*
X0086242Y0327291D01*
X0091156Y0329253D02*
X0091156Y0330229D01*
X0091156Y0329253D02*
X0086242Y0329253D01*
X0086242Y0330229D01*
X0091156Y0330229D01*
X0091156Y0329850D02*
X0086242Y0329850D01*
X0091156Y0331812D02*
X0091156Y0332788D01*
X0091156Y0331812D02*
X0086242Y0331812D01*
X0086242Y0332788D01*
X0091156Y0332788D01*
X0091156Y0332409D02*
X0086242Y0332409D01*
D14*
X0084295Y0301985D02*
X0084295Y0299229D01*
X0081539Y0299229D01*
X0081539Y0301985D01*
X0084295Y0301985D01*
X0084295Y0300409D02*
X0081539Y0300409D01*
X0081539Y0301589D02*
X0084295Y0301589D01*
X0077389Y0301985D02*
X0077389Y0299229D01*
X0074633Y0299229D01*
X0074633Y0301985D01*
X0077389Y0301985D01*
X0077389Y0300409D02*
X0074633Y0300409D01*
X0074633Y0301589D02*
X0077389Y0301589D01*
X0172452Y0187340D02*
X0172452Y0184584D01*
X0172452Y0187340D02*
X0175208Y0187340D01*
X0175208Y0184584D01*
X0172452Y0184584D01*
X0172452Y0185764D02*
X0175208Y0185764D01*
X0175208Y0186944D02*
X0172452Y0186944D01*
X0179358Y0187340D02*
X0179358Y0184584D01*
X0179358Y0187340D02*
X0182114Y0187340D01*
X0182114Y0184584D01*
X0179358Y0184584D01*
X0179358Y0185764D02*
X0182114Y0185764D01*
X0182114Y0186944D02*
X0179358Y0186944D01*
X0295106Y0294766D02*
X0295106Y0297522D01*
X0297862Y0297522D01*
X0297862Y0294766D01*
X0295106Y0294766D01*
X0295106Y0295946D02*
X0297862Y0295946D01*
X0297862Y0297126D02*
X0295106Y0297126D01*
X0302011Y0297522D02*
X0302011Y0294766D01*
X0302011Y0297522D02*
X0304767Y0297522D01*
X0304767Y0294766D01*
X0302011Y0294766D01*
X0302011Y0295946D02*
X0304767Y0295946D01*
X0304767Y0297126D02*
X0302011Y0297126D01*
X0302011Y0311040D02*
X0302011Y0313796D01*
X0304767Y0313796D01*
X0304767Y0311040D01*
X0302011Y0311040D01*
X0302011Y0312220D02*
X0304767Y0312220D01*
X0304767Y0313400D02*
X0302011Y0313400D01*
X0295106Y0313796D02*
X0295106Y0311040D01*
X0295106Y0313796D02*
X0297862Y0313796D01*
X0297862Y0311040D01*
X0295106Y0311040D01*
X0295106Y0312220D02*
X0297862Y0312220D01*
X0297862Y0313400D02*
X0295106Y0313400D01*
X0228817Y0364462D02*
X0226869Y0362514D01*
X0224921Y0364462D01*
X0226869Y0366410D01*
X0228817Y0364462D01*
X0228049Y0363694D02*
X0225689Y0363694D01*
X0225333Y0364874D02*
X0228405Y0364874D01*
X0227225Y0366054D02*
X0226513Y0366054D01*
X0223934Y0369345D02*
X0221986Y0367397D01*
X0220038Y0369345D01*
X0221986Y0371293D01*
X0223934Y0369345D01*
X0223166Y0368577D02*
X0220806Y0368577D01*
X0220450Y0369757D02*
X0223522Y0369757D01*
X0222342Y0370937D02*
X0221630Y0370937D01*
D15*
X0208600Y0349446D02*
X0206242Y0347088D01*
X0208600Y0349446D02*
X0208872Y0349174D01*
X0206514Y0346816D01*
X0206242Y0347088D01*
X0206569Y0347415D02*
X0207113Y0347415D01*
X0207168Y0348014D02*
X0207712Y0348014D01*
X0207767Y0348613D02*
X0208311Y0348613D01*
X0208366Y0349212D02*
X0208834Y0349212D01*
X0209992Y0348054D02*
X0207634Y0345696D01*
X0209992Y0348054D02*
X0210264Y0347782D01*
X0207906Y0345424D01*
X0207634Y0345696D01*
X0207961Y0346023D02*
X0208505Y0346023D01*
X0208560Y0346622D02*
X0209104Y0346622D01*
X0209159Y0347221D02*
X0209703Y0347221D01*
X0209758Y0347820D02*
X0210226Y0347820D01*
X0211384Y0346662D02*
X0209026Y0344304D01*
X0211384Y0346662D02*
X0211656Y0346390D01*
X0209298Y0344032D01*
X0209026Y0344304D01*
X0209353Y0344631D02*
X0209897Y0344631D01*
X0209952Y0345230D02*
X0210496Y0345230D01*
X0210551Y0345829D02*
X0211095Y0345829D01*
X0211150Y0346428D02*
X0211618Y0346428D01*
X0212775Y0345270D02*
X0210417Y0342912D01*
X0212775Y0345270D02*
X0213047Y0344998D01*
X0210689Y0342640D01*
X0210417Y0342912D01*
X0210744Y0343239D02*
X0211288Y0343239D01*
X0211343Y0343838D02*
X0211887Y0343838D01*
X0211942Y0344437D02*
X0212486Y0344437D01*
X0212541Y0345036D02*
X0213009Y0345036D01*
X0214167Y0343878D02*
X0211809Y0341520D01*
X0214167Y0343878D02*
X0214439Y0343606D01*
X0212081Y0341248D01*
X0211809Y0341520D01*
X0212136Y0341847D02*
X0212680Y0341847D01*
X0212735Y0342446D02*
X0213279Y0342446D01*
X0213334Y0343045D02*
X0213878Y0343045D01*
X0213933Y0343644D02*
X0214401Y0343644D01*
X0215559Y0342487D02*
X0213201Y0340129D01*
X0215559Y0342487D02*
X0215831Y0342215D01*
X0213473Y0339857D01*
X0213201Y0340129D01*
X0213528Y0340456D02*
X0214072Y0340456D01*
X0214127Y0341055D02*
X0214671Y0341055D01*
X0214726Y0341654D02*
X0215270Y0341654D01*
X0215325Y0342253D02*
X0215793Y0342253D01*
X0216951Y0341095D02*
X0214593Y0338737D01*
X0216951Y0341095D02*
X0217223Y0340823D01*
X0214865Y0338465D01*
X0214593Y0338737D01*
X0214920Y0339064D02*
X0215464Y0339064D01*
X0215519Y0339663D02*
X0216063Y0339663D01*
X0216118Y0340262D02*
X0216662Y0340262D01*
X0216717Y0340861D02*
X0217185Y0340861D01*
X0218343Y0339703D02*
X0215985Y0337345D01*
X0218343Y0339703D02*
X0218615Y0339431D01*
X0216257Y0337073D01*
X0215985Y0337345D01*
X0216312Y0337672D02*
X0216856Y0337672D01*
X0216911Y0338271D02*
X0217455Y0338271D01*
X0217510Y0338870D02*
X0218054Y0338870D01*
X0218109Y0339469D02*
X0218577Y0339469D01*
X0219735Y0338311D02*
X0217377Y0335953D01*
X0219735Y0338311D02*
X0220007Y0338039D01*
X0217649Y0335681D01*
X0217377Y0335953D01*
X0217704Y0336280D02*
X0218248Y0336280D01*
X0218303Y0336879D02*
X0218847Y0336879D01*
X0218902Y0337478D02*
X0219446Y0337478D01*
X0219501Y0338077D02*
X0219969Y0338077D01*
X0221127Y0336919D02*
X0218769Y0334561D01*
X0221127Y0336919D02*
X0221399Y0336647D01*
X0219041Y0334289D01*
X0218769Y0334561D01*
X0219096Y0334888D02*
X0219640Y0334888D01*
X0219695Y0335487D02*
X0220239Y0335487D01*
X0220294Y0336086D02*
X0220838Y0336086D01*
X0220893Y0336685D02*
X0221361Y0336685D01*
X0222519Y0335527D02*
X0220161Y0333169D01*
X0222519Y0335527D02*
X0222791Y0335255D01*
X0220433Y0332897D01*
X0220161Y0333169D01*
X0220488Y0333496D02*
X0221032Y0333496D01*
X0221087Y0334095D02*
X0221631Y0334095D01*
X0221686Y0334694D02*
X0222230Y0334694D01*
X0222285Y0335293D02*
X0222753Y0335293D01*
X0223911Y0334135D02*
X0221553Y0331777D01*
X0223911Y0334135D02*
X0224183Y0333863D01*
X0221825Y0331505D01*
X0221553Y0331777D01*
X0221880Y0332104D02*
X0222424Y0332104D01*
X0222479Y0332703D02*
X0223023Y0332703D01*
X0223078Y0333302D02*
X0223622Y0333302D01*
X0223677Y0333901D02*
X0224145Y0333901D01*
X0225303Y0332743D02*
X0222945Y0330385D01*
X0225303Y0332743D02*
X0225575Y0332471D01*
X0223217Y0330113D01*
X0222945Y0330385D01*
X0223272Y0330712D02*
X0223816Y0330712D01*
X0223871Y0331311D02*
X0224415Y0331311D01*
X0224470Y0331910D02*
X0225014Y0331910D01*
X0225069Y0332509D02*
X0225537Y0332509D01*
X0226695Y0331351D02*
X0224337Y0328993D01*
X0226695Y0331351D02*
X0226967Y0331079D01*
X0224609Y0328721D01*
X0224337Y0328993D01*
X0224664Y0329320D02*
X0225208Y0329320D01*
X0225263Y0329919D02*
X0225807Y0329919D01*
X0225862Y0330518D02*
X0226406Y0330518D01*
X0226461Y0331117D02*
X0226929Y0331117D01*
X0228087Y0329959D02*
X0225729Y0327601D01*
X0228087Y0329959D02*
X0228359Y0329687D01*
X0226001Y0327329D01*
X0225729Y0327601D01*
X0226056Y0327928D02*
X0226600Y0327928D01*
X0226655Y0328527D02*
X0227199Y0328527D01*
X0227254Y0329126D02*
X0227798Y0329126D01*
X0227853Y0329725D02*
X0228321Y0329725D01*
X0229479Y0328567D02*
X0227121Y0326209D01*
X0229479Y0328567D02*
X0229751Y0328295D01*
X0227393Y0325937D01*
X0227121Y0326209D01*
X0227448Y0326536D02*
X0227992Y0326536D01*
X0228047Y0327135D02*
X0228591Y0327135D01*
X0228646Y0327734D02*
X0229190Y0327734D01*
X0229245Y0328333D02*
X0229713Y0328333D01*
X0230871Y0327175D02*
X0228513Y0324817D01*
X0230871Y0327175D02*
X0231143Y0326903D01*
X0228785Y0324545D01*
X0228513Y0324817D01*
X0228840Y0325144D02*
X0229384Y0325144D01*
X0229439Y0325743D02*
X0229983Y0325743D01*
X0230038Y0326342D02*
X0230582Y0326342D01*
X0230637Y0326941D02*
X0231105Y0326941D01*
X0232263Y0325783D02*
X0229905Y0323425D01*
X0232263Y0325783D02*
X0232535Y0325511D01*
X0230177Y0323153D01*
X0229905Y0323425D01*
X0230232Y0323752D02*
X0230776Y0323752D01*
X0230831Y0324351D02*
X0231375Y0324351D01*
X0231430Y0324950D02*
X0231974Y0324950D01*
X0232029Y0325549D02*
X0232497Y0325549D01*
X0230177Y0317432D02*
X0232535Y0315074D01*
X0232263Y0314802D01*
X0229905Y0317160D01*
X0230177Y0317432D01*
X0231664Y0315401D02*
X0232208Y0315401D01*
X0231609Y0316000D02*
X0231065Y0316000D01*
X0231010Y0316599D02*
X0230466Y0316599D01*
X0230411Y0317198D02*
X0229943Y0317198D01*
X0228785Y0316040D02*
X0231143Y0313682D01*
X0230871Y0313410D01*
X0228513Y0315768D01*
X0228785Y0316040D01*
X0230272Y0314009D02*
X0230816Y0314009D01*
X0230217Y0314608D02*
X0229673Y0314608D01*
X0229618Y0315207D02*
X0229074Y0315207D01*
X0229019Y0315806D02*
X0228551Y0315806D01*
X0227393Y0314648D02*
X0229751Y0312290D01*
X0229479Y0312018D01*
X0227121Y0314376D01*
X0227393Y0314648D01*
X0228880Y0312617D02*
X0229424Y0312617D01*
X0228825Y0313216D02*
X0228281Y0313216D01*
X0228226Y0313815D02*
X0227682Y0313815D01*
X0227627Y0314414D02*
X0227159Y0314414D01*
X0226001Y0313256D02*
X0228359Y0310898D01*
X0228087Y0310626D01*
X0225729Y0312984D01*
X0226001Y0313256D01*
X0227488Y0311225D02*
X0228032Y0311225D01*
X0227433Y0311824D02*
X0226889Y0311824D01*
X0226834Y0312423D02*
X0226290Y0312423D01*
X0226235Y0313022D02*
X0225767Y0313022D01*
X0224609Y0311864D02*
X0226967Y0309506D01*
X0226695Y0309234D01*
X0224337Y0311592D01*
X0224609Y0311864D01*
X0226096Y0309833D02*
X0226640Y0309833D01*
X0226041Y0310432D02*
X0225497Y0310432D01*
X0225442Y0311031D02*
X0224898Y0311031D01*
X0224843Y0311630D02*
X0224375Y0311630D01*
X0223217Y0310472D02*
X0225575Y0308114D01*
X0225303Y0307842D01*
X0222945Y0310200D01*
X0223217Y0310472D01*
X0224704Y0308441D02*
X0225248Y0308441D01*
X0224649Y0309040D02*
X0224105Y0309040D01*
X0224050Y0309639D02*
X0223506Y0309639D01*
X0223451Y0310238D02*
X0222983Y0310238D01*
X0221825Y0309080D02*
X0224183Y0306722D01*
X0223911Y0306450D01*
X0221553Y0308808D01*
X0221825Y0309080D01*
X0223312Y0307049D02*
X0223856Y0307049D01*
X0223257Y0307648D02*
X0222713Y0307648D01*
X0222658Y0308247D02*
X0222114Y0308247D01*
X0222059Y0308846D02*
X0221591Y0308846D01*
X0220433Y0307688D02*
X0222791Y0305330D01*
X0222519Y0305058D01*
X0220161Y0307416D01*
X0220433Y0307688D01*
X0221920Y0305657D02*
X0222464Y0305657D01*
X0221865Y0306256D02*
X0221321Y0306256D01*
X0221266Y0306855D02*
X0220722Y0306855D01*
X0220667Y0307454D02*
X0220199Y0307454D01*
X0219041Y0306296D02*
X0221399Y0303938D01*
X0221127Y0303666D01*
X0218769Y0306024D01*
X0219041Y0306296D01*
X0220528Y0304265D02*
X0221072Y0304265D01*
X0220473Y0304864D02*
X0219929Y0304864D01*
X0219874Y0305463D02*
X0219330Y0305463D01*
X0219275Y0306062D02*
X0218807Y0306062D01*
X0217649Y0304904D02*
X0220007Y0302546D01*
X0219735Y0302274D01*
X0217377Y0304632D01*
X0217649Y0304904D01*
X0219136Y0302873D02*
X0219680Y0302873D01*
X0219081Y0303472D02*
X0218537Y0303472D01*
X0218482Y0304071D02*
X0217938Y0304071D01*
X0217883Y0304670D02*
X0217415Y0304670D01*
X0216257Y0303512D02*
X0218615Y0301154D01*
X0218343Y0300882D01*
X0215985Y0303240D01*
X0216257Y0303512D01*
X0217744Y0301481D02*
X0218288Y0301481D01*
X0217689Y0302080D02*
X0217145Y0302080D01*
X0217090Y0302679D02*
X0216546Y0302679D01*
X0216491Y0303278D02*
X0216023Y0303278D01*
X0214865Y0302120D02*
X0217223Y0299762D01*
X0216951Y0299490D01*
X0214593Y0301848D01*
X0214865Y0302120D01*
X0216352Y0300089D02*
X0216896Y0300089D01*
X0216297Y0300688D02*
X0215753Y0300688D01*
X0215698Y0301287D02*
X0215154Y0301287D01*
X0215099Y0301886D02*
X0214631Y0301886D01*
X0213473Y0300728D02*
X0215831Y0298370D01*
X0215559Y0298098D01*
X0213201Y0300456D01*
X0213473Y0300728D01*
X0214960Y0298697D02*
X0215504Y0298697D01*
X0214905Y0299296D02*
X0214361Y0299296D01*
X0214306Y0299895D02*
X0213762Y0299895D01*
X0213707Y0300494D02*
X0213239Y0300494D01*
X0212081Y0299336D02*
X0214439Y0296978D01*
X0214167Y0296706D01*
X0211809Y0299064D01*
X0212081Y0299336D01*
X0213568Y0297305D02*
X0214112Y0297305D01*
X0213513Y0297904D02*
X0212969Y0297904D01*
X0212914Y0298503D02*
X0212370Y0298503D01*
X0212315Y0299102D02*
X0211847Y0299102D01*
X0210689Y0297944D02*
X0213047Y0295586D01*
X0212775Y0295314D01*
X0210417Y0297672D01*
X0210689Y0297944D01*
X0212176Y0295913D02*
X0212720Y0295913D01*
X0212121Y0296512D02*
X0211577Y0296512D01*
X0211522Y0297111D02*
X0210978Y0297111D01*
X0210923Y0297710D02*
X0210455Y0297710D01*
X0209298Y0296552D02*
X0211656Y0294194D01*
X0211384Y0293922D01*
X0209026Y0296280D01*
X0209298Y0296552D01*
X0210785Y0294521D02*
X0211329Y0294521D01*
X0210730Y0295120D02*
X0210186Y0295120D01*
X0210131Y0295719D02*
X0209587Y0295719D01*
X0209532Y0296318D02*
X0209064Y0296318D01*
X0207906Y0295160D02*
X0210264Y0292802D01*
X0209992Y0292530D01*
X0207634Y0294888D01*
X0207906Y0295160D01*
X0209393Y0293129D02*
X0209937Y0293129D01*
X0209338Y0293728D02*
X0208794Y0293728D01*
X0208739Y0294327D02*
X0208195Y0294327D01*
X0208140Y0294926D02*
X0207672Y0294926D01*
X0206514Y0293769D02*
X0208872Y0291411D01*
X0208600Y0291139D01*
X0206242Y0293497D01*
X0206514Y0293769D01*
X0208001Y0291738D02*
X0208545Y0291738D01*
X0207946Y0292337D02*
X0207402Y0292337D01*
X0207347Y0292936D02*
X0206803Y0292936D01*
X0206748Y0293535D02*
X0206280Y0293535D01*
X0205122Y0292377D02*
X0207480Y0290019D01*
X0207208Y0289747D01*
X0204850Y0292105D01*
X0205122Y0292377D01*
X0206609Y0290346D02*
X0207153Y0290346D01*
X0206554Y0290945D02*
X0206010Y0290945D01*
X0205955Y0291544D02*
X0205411Y0291544D01*
X0205356Y0292143D02*
X0204888Y0292143D01*
X0203730Y0290985D02*
X0206088Y0288627D01*
X0205816Y0288355D01*
X0203458Y0290713D01*
X0203730Y0290985D01*
X0205217Y0288954D02*
X0205761Y0288954D01*
X0205162Y0289553D02*
X0204618Y0289553D01*
X0204563Y0290152D02*
X0204019Y0290152D01*
X0203964Y0290751D02*
X0203496Y0290751D01*
X0202338Y0289593D02*
X0204696Y0287235D01*
X0204424Y0286963D01*
X0202066Y0289321D01*
X0202338Y0289593D01*
X0203825Y0287562D02*
X0204369Y0287562D01*
X0203770Y0288161D02*
X0203226Y0288161D01*
X0203171Y0288760D02*
X0202627Y0288760D01*
X0202572Y0289359D02*
X0202104Y0289359D01*
X0200946Y0288201D02*
X0203304Y0285843D01*
X0203032Y0285571D01*
X0200674Y0287929D01*
X0200946Y0288201D01*
X0202433Y0286170D02*
X0202977Y0286170D01*
X0202378Y0286769D02*
X0201834Y0286769D01*
X0201779Y0287368D02*
X0201235Y0287368D01*
X0201180Y0287967D02*
X0200712Y0287967D01*
X0199554Y0286809D02*
X0201912Y0284451D01*
X0201640Y0284179D01*
X0199282Y0286537D01*
X0199554Y0286809D01*
X0201041Y0284778D02*
X0201585Y0284778D01*
X0200986Y0285377D02*
X0200442Y0285377D01*
X0200387Y0285976D02*
X0199843Y0285976D01*
X0199788Y0286575D02*
X0199320Y0286575D01*
X0198162Y0285417D02*
X0200520Y0283059D01*
X0200248Y0282787D01*
X0197890Y0285145D01*
X0198162Y0285417D01*
X0199649Y0283386D02*
X0200193Y0283386D01*
X0199594Y0283985D02*
X0199050Y0283985D01*
X0198995Y0284584D02*
X0198451Y0284584D01*
X0198396Y0285183D02*
X0197928Y0285183D01*
X0196770Y0284025D02*
X0199128Y0281667D01*
X0198856Y0281395D01*
X0196498Y0283753D01*
X0196770Y0284025D01*
X0198257Y0281994D02*
X0198801Y0281994D01*
X0198202Y0282593D02*
X0197658Y0282593D01*
X0197603Y0283192D02*
X0197059Y0283192D01*
X0197004Y0283791D02*
X0196536Y0283791D01*
X0190776Y0283753D02*
X0188418Y0281395D01*
X0188146Y0281667D01*
X0190504Y0284025D01*
X0190776Y0283753D01*
X0189017Y0281994D02*
X0188473Y0281994D01*
X0189072Y0282593D02*
X0189616Y0282593D01*
X0189671Y0283192D02*
X0190215Y0283192D01*
X0190270Y0283791D02*
X0190738Y0283791D01*
X0189384Y0285145D02*
X0187026Y0282787D01*
X0186754Y0283059D01*
X0189112Y0285417D01*
X0189384Y0285145D01*
X0187625Y0283386D02*
X0187081Y0283386D01*
X0187680Y0283985D02*
X0188224Y0283985D01*
X0188279Y0284584D02*
X0188823Y0284584D01*
X0188878Y0285183D02*
X0189346Y0285183D01*
X0187992Y0286537D02*
X0185634Y0284179D01*
X0185362Y0284451D01*
X0187720Y0286809D01*
X0187992Y0286537D01*
X0186233Y0284778D02*
X0185689Y0284778D01*
X0186288Y0285377D02*
X0186832Y0285377D01*
X0186887Y0285976D02*
X0187431Y0285976D01*
X0187486Y0286575D02*
X0187954Y0286575D01*
X0186601Y0287929D02*
X0184243Y0285571D01*
X0183971Y0285843D01*
X0186329Y0288201D01*
X0186601Y0287929D01*
X0184842Y0286170D02*
X0184298Y0286170D01*
X0184897Y0286769D02*
X0185441Y0286769D01*
X0185496Y0287368D02*
X0186040Y0287368D01*
X0186095Y0287967D02*
X0186563Y0287967D01*
X0185209Y0289321D02*
X0182851Y0286963D01*
X0182579Y0287235D01*
X0184937Y0289593D01*
X0185209Y0289321D01*
X0183450Y0287562D02*
X0182906Y0287562D01*
X0183505Y0288161D02*
X0184049Y0288161D01*
X0184104Y0288760D02*
X0184648Y0288760D01*
X0184703Y0289359D02*
X0185171Y0289359D01*
X0183817Y0290713D02*
X0181459Y0288355D01*
X0181187Y0288627D01*
X0183545Y0290985D01*
X0183817Y0290713D01*
X0182058Y0288954D02*
X0181514Y0288954D01*
X0182113Y0289553D02*
X0182657Y0289553D01*
X0182712Y0290152D02*
X0183256Y0290152D01*
X0183311Y0290751D02*
X0183779Y0290751D01*
X0182425Y0292105D02*
X0180067Y0289747D01*
X0179795Y0290019D01*
X0182153Y0292377D01*
X0182425Y0292105D01*
X0180666Y0290346D02*
X0180122Y0290346D01*
X0180721Y0290945D02*
X0181265Y0290945D01*
X0181320Y0291544D02*
X0181864Y0291544D01*
X0181919Y0292143D02*
X0182387Y0292143D01*
X0181033Y0293497D02*
X0178675Y0291139D01*
X0178403Y0291411D01*
X0180761Y0293769D01*
X0181033Y0293497D01*
X0179274Y0291738D02*
X0178730Y0291738D01*
X0179329Y0292337D02*
X0179873Y0292337D01*
X0179928Y0292936D02*
X0180472Y0292936D01*
X0180527Y0293535D02*
X0180995Y0293535D01*
X0179641Y0294888D02*
X0177283Y0292530D01*
X0177011Y0292802D01*
X0179369Y0295160D01*
X0179641Y0294888D01*
X0177882Y0293129D02*
X0177338Y0293129D01*
X0177937Y0293728D02*
X0178481Y0293728D01*
X0178536Y0294327D02*
X0179080Y0294327D01*
X0179135Y0294926D02*
X0179603Y0294926D01*
X0178249Y0296280D02*
X0175891Y0293922D01*
X0175619Y0294194D01*
X0177977Y0296552D01*
X0178249Y0296280D01*
X0176490Y0294521D02*
X0175946Y0294521D01*
X0176545Y0295120D02*
X0177089Y0295120D01*
X0177144Y0295719D02*
X0177688Y0295719D01*
X0177743Y0296318D02*
X0178211Y0296318D01*
X0176857Y0297672D02*
X0174499Y0295314D01*
X0174227Y0295586D01*
X0176585Y0297944D01*
X0176857Y0297672D01*
X0175098Y0295913D02*
X0174554Y0295913D01*
X0175153Y0296512D02*
X0175697Y0296512D01*
X0175752Y0297111D02*
X0176296Y0297111D01*
X0176351Y0297710D02*
X0176819Y0297710D01*
X0175465Y0299064D02*
X0173107Y0296706D01*
X0172835Y0296978D01*
X0175193Y0299336D01*
X0175465Y0299064D01*
X0173706Y0297305D02*
X0173162Y0297305D01*
X0173761Y0297904D02*
X0174305Y0297904D01*
X0174360Y0298503D02*
X0174904Y0298503D01*
X0174959Y0299102D02*
X0175427Y0299102D01*
X0174073Y0300456D02*
X0171715Y0298098D01*
X0171443Y0298370D01*
X0173801Y0300728D01*
X0174073Y0300456D01*
X0172314Y0298697D02*
X0171770Y0298697D01*
X0172369Y0299296D02*
X0172913Y0299296D01*
X0172968Y0299895D02*
X0173512Y0299895D01*
X0173567Y0300494D02*
X0174035Y0300494D01*
X0172681Y0301848D02*
X0170323Y0299490D01*
X0170051Y0299762D01*
X0172409Y0302120D01*
X0172681Y0301848D01*
X0170922Y0300089D02*
X0170378Y0300089D01*
X0170977Y0300688D02*
X0171521Y0300688D01*
X0171576Y0301287D02*
X0172120Y0301287D01*
X0172175Y0301886D02*
X0172643Y0301886D01*
X0171289Y0303240D02*
X0168931Y0300882D01*
X0168659Y0301154D01*
X0171017Y0303512D01*
X0171289Y0303240D01*
X0169530Y0301481D02*
X0168986Y0301481D01*
X0169585Y0302080D02*
X0170129Y0302080D01*
X0170184Y0302679D02*
X0170728Y0302679D01*
X0170783Y0303278D02*
X0171251Y0303278D01*
X0169897Y0304632D02*
X0167539Y0302274D01*
X0167267Y0302546D01*
X0169625Y0304904D01*
X0169897Y0304632D01*
X0168138Y0302873D02*
X0167594Y0302873D01*
X0168193Y0303472D02*
X0168737Y0303472D01*
X0168792Y0304071D02*
X0169336Y0304071D01*
X0169391Y0304670D02*
X0169859Y0304670D01*
X0168505Y0306024D02*
X0166147Y0303666D01*
X0165875Y0303938D01*
X0168233Y0306296D01*
X0168505Y0306024D01*
X0166746Y0304265D02*
X0166202Y0304265D01*
X0166801Y0304864D02*
X0167345Y0304864D01*
X0167400Y0305463D02*
X0167944Y0305463D01*
X0167999Y0306062D02*
X0168467Y0306062D01*
X0167113Y0307416D02*
X0164755Y0305058D01*
X0164483Y0305330D01*
X0166841Y0307688D01*
X0167113Y0307416D01*
X0165354Y0305657D02*
X0164810Y0305657D01*
X0165409Y0306256D02*
X0165953Y0306256D01*
X0166008Y0306855D02*
X0166552Y0306855D01*
X0166607Y0307454D02*
X0167075Y0307454D01*
X0165721Y0308808D02*
X0163363Y0306450D01*
X0163091Y0306722D01*
X0165449Y0309080D01*
X0165721Y0308808D01*
X0163962Y0307049D02*
X0163418Y0307049D01*
X0164017Y0307648D02*
X0164561Y0307648D01*
X0164616Y0308247D02*
X0165160Y0308247D01*
X0165215Y0308846D02*
X0165683Y0308846D01*
X0164329Y0310200D02*
X0161971Y0307842D01*
X0161699Y0308114D01*
X0164057Y0310472D01*
X0164329Y0310200D01*
X0162570Y0308441D02*
X0162026Y0308441D01*
X0162625Y0309040D02*
X0163169Y0309040D01*
X0163224Y0309639D02*
X0163768Y0309639D01*
X0163823Y0310238D02*
X0164291Y0310238D01*
X0162938Y0311592D02*
X0160580Y0309234D01*
X0160308Y0309506D01*
X0162666Y0311864D01*
X0162938Y0311592D01*
X0161179Y0309833D02*
X0160635Y0309833D01*
X0161234Y0310432D02*
X0161778Y0310432D01*
X0161833Y0311031D02*
X0162377Y0311031D01*
X0162432Y0311630D02*
X0162900Y0311630D01*
X0161546Y0312984D02*
X0159188Y0310626D01*
X0158916Y0310898D01*
X0161274Y0313256D01*
X0161546Y0312984D01*
X0159787Y0311225D02*
X0159243Y0311225D01*
X0159842Y0311824D02*
X0160386Y0311824D01*
X0160441Y0312423D02*
X0160985Y0312423D01*
X0161040Y0313022D02*
X0161508Y0313022D01*
X0160154Y0314376D02*
X0157796Y0312018D01*
X0157524Y0312290D01*
X0159882Y0314648D01*
X0160154Y0314376D01*
X0158395Y0312617D02*
X0157851Y0312617D01*
X0158450Y0313216D02*
X0158994Y0313216D01*
X0159049Y0313815D02*
X0159593Y0313815D01*
X0159648Y0314414D02*
X0160116Y0314414D01*
X0158762Y0315768D02*
X0156404Y0313410D01*
X0156132Y0313682D01*
X0158490Y0316040D01*
X0158762Y0315768D01*
X0157003Y0314009D02*
X0156459Y0314009D01*
X0157058Y0314608D02*
X0157602Y0314608D01*
X0157657Y0315207D02*
X0158201Y0315207D01*
X0158256Y0315806D02*
X0158724Y0315806D01*
X0157370Y0317160D02*
X0155012Y0314802D01*
X0154740Y0315074D01*
X0157098Y0317432D01*
X0157370Y0317160D01*
X0155611Y0315401D02*
X0155067Y0315401D01*
X0155666Y0316000D02*
X0156210Y0316000D01*
X0156265Y0316599D02*
X0156809Y0316599D01*
X0156864Y0317198D02*
X0157332Y0317198D01*
X0157098Y0323153D02*
X0154740Y0325511D01*
X0155012Y0325783D01*
X0157370Y0323425D01*
X0157098Y0323153D01*
X0157043Y0323752D02*
X0156499Y0323752D01*
X0156444Y0324351D02*
X0155900Y0324351D01*
X0155845Y0324950D02*
X0155301Y0324950D01*
X0155246Y0325549D02*
X0154778Y0325549D01*
X0156132Y0326903D02*
X0158490Y0324545D01*
X0156132Y0326903D02*
X0156404Y0327175D01*
X0158762Y0324817D01*
X0158490Y0324545D01*
X0158435Y0325144D02*
X0157891Y0325144D01*
X0157836Y0325743D02*
X0157292Y0325743D01*
X0157237Y0326342D02*
X0156693Y0326342D01*
X0156638Y0326941D02*
X0156170Y0326941D01*
X0157524Y0328295D02*
X0159882Y0325937D01*
X0157524Y0328295D02*
X0157796Y0328567D01*
X0160154Y0326209D01*
X0159882Y0325937D01*
X0159827Y0326536D02*
X0159283Y0326536D01*
X0159228Y0327135D02*
X0158684Y0327135D01*
X0158629Y0327734D02*
X0158085Y0327734D01*
X0158030Y0328333D02*
X0157562Y0328333D01*
X0158916Y0329687D02*
X0161274Y0327329D01*
X0158916Y0329687D02*
X0159188Y0329959D01*
X0161546Y0327601D01*
X0161274Y0327329D01*
X0161219Y0327928D02*
X0160675Y0327928D01*
X0160620Y0328527D02*
X0160076Y0328527D01*
X0160021Y0329126D02*
X0159477Y0329126D01*
X0159422Y0329725D02*
X0158954Y0329725D01*
X0160308Y0331079D02*
X0162666Y0328721D01*
X0160308Y0331079D02*
X0160580Y0331351D01*
X0162938Y0328993D01*
X0162666Y0328721D01*
X0162611Y0329320D02*
X0162067Y0329320D01*
X0162012Y0329919D02*
X0161468Y0329919D01*
X0161413Y0330518D02*
X0160869Y0330518D01*
X0160814Y0331117D02*
X0160346Y0331117D01*
X0161699Y0332471D02*
X0164057Y0330113D01*
X0161699Y0332471D02*
X0161971Y0332743D01*
X0164329Y0330385D01*
X0164057Y0330113D01*
X0164002Y0330712D02*
X0163458Y0330712D01*
X0163403Y0331311D02*
X0162859Y0331311D01*
X0162804Y0331910D02*
X0162260Y0331910D01*
X0162205Y0332509D02*
X0161737Y0332509D01*
X0163091Y0333863D02*
X0165449Y0331505D01*
X0163091Y0333863D02*
X0163363Y0334135D01*
X0165721Y0331777D01*
X0165449Y0331505D01*
X0165394Y0332104D02*
X0164850Y0332104D01*
X0164795Y0332703D02*
X0164251Y0332703D01*
X0164196Y0333302D02*
X0163652Y0333302D01*
X0163597Y0333901D02*
X0163129Y0333901D01*
X0164483Y0335255D02*
X0166841Y0332897D01*
X0164483Y0335255D02*
X0164755Y0335527D01*
X0167113Y0333169D01*
X0166841Y0332897D01*
X0166786Y0333496D02*
X0166242Y0333496D01*
X0166187Y0334095D02*
X0165643Y0334095D01*
X0165588Y0334694D02*
X0165044Y0334694D01*
X0164989Y0335293D02*
X0164521Y0335293D01*
X0165875Y0336647D02*
X0168233Y0334289D01*
X0165875Y0336647D02*
X0166147Y0336919D01*
X0168505Y0334561D01*
X0168233Y0334289D01*
X0168178Y0334888D02*
X0167634Y0334888D01*
X0167579Y0335487D02*
X0167035Y0335487D01*
X0166980Y0336086D02*
X0166436Y0336086D01*
X0166381Y0336685D02*
X0165913Y0336685D01*
X0167267Y0338039D02*
X0169625Y0335681D01*
X0167267Y0338039D02*
X0167539Y0338311D01*
X0169897Y0335953D01*
X0169625Y0335681D01*
X0169570Y0336280D02*
X0169026Y0336280D01*
X0168971Y0336879D02*
X0168427Y0336879D01*
X0168372Y0337478D02*
X0167828Y0337478D01*
X0167773Y0338077D02*
X0167305Y0338077D01*
X0168659Y0339431D02*
X0171017Y0337073D01*
X0168659Y0339431D02*
X0168931Y0339703D01*
X0171289Y0337345D01*
X0171017Y0337073D01*
X0170962Y0337672D02*
X0170418Y0337672D01*
X0170363Y0338271D02*
X0169819Y0338271D01*
X0169764Y0338870D02*
X0169220Y0338870D01*
X0169165Y0339469D02*
X0168697Y0339469D01*
X0170051Y0340823D02*
X0172409Y0338465D01*
X0170051Y0340823D02*
X0170323Y0341095D01*
X0172681Y0338737D01*
X0172409Y0338465D01*
X0172354Y0339064D02*
X0171810Y0339064D01*
X0171755Y0339663D02*
X0171211Y0339663D01*
X0171156Y0340262D02*
X0170612Y0340262D01*
X0170557Y0340861D02*
X0170089Y0340861D01*
X0171443Y0342215D02*
X0173801Y0339857D01*
X0171443Y0342215D02*
X0171715Y0342487D01*
X0174073Y0340129D01*
X0173801Y0339857D01*
X0173746Y0340456D02*
X0173202Y0340456D01*
X0173147Y0341055D02*
X0172603Y0341055D01*
X0172548Y0341654D02*
X0172004Y0341654D01*
X0171949Y0342253D02*
X0171481Y0342253D01*
X0172835Y0343606D02*
X0175193Y0341248D01*
X0172835Y0343606D02*
X0173107Y0343878D01*
X0175465Y0341520D01*
X0175193Y0341248D01*
X0175138Y0341847D02*
X0174594Y0341847D01*
X0174539Y0342446D02*
X0173995Y0342446D01*
X0173940Y0343045D02*
X0173396Y0343045D01*
X0173341Y0343644D02*
X0172873Y0343644D01*
X0174227Y0344998D02*
X0176585Y0342640D01*
X0174227Y0344998D02*
X0174499Y0345270D01*
X0176857Y0342912D01*
X0176585Y0342640D01*
X0176530Y0343239D02*
X0175986Y0343239D01*
X0175931Y0343838D02*
X0175387Y0343838D01*
X0175332Y0344437D02*
X0174788Y0344437D01*
X0174733Y0345036D02*
X0174265Y0345036D01*
X0175619Y0346390D02*
X0177977Y0344032D01*
X0175619Y0346390D02*
X0175891Y0346662D01*
X0178249Y0344304D01*
X0177977Y0344032D01*
X0177922Y0344631D02*
X0177378Y0344631D01*
X0177323Y0345230D02*
X0176779Y0345230D01*
X0176724Y0345829D02*
X0176180Y0345829D01*
X0176125Y0346428D02*
X0175657Y0346428D01*
X0177011Y0347782D02*
X0179369Y0345424D01*
X0177011Y0347782D02*
X0177283Y0348054D01*
X0179641Y0345696D01*
X0179369Y0345424D01*
X0179314Y0346023D02*
X0178770Y0346023D01*
X0178715Y0346622D02*
X0178171Y0346622D01*
X0178116Y0347221D02*
X0177572Y0347221D01*
X0177517Y0347820D02*
X0177049Y0347820D01*
X0178403Y0349174D02*
X0180761Y0346816D01*
X0178403Y0349174D02*
X0178675Y0349446D01*
X0181033Y0347088D01*
X0180761Y0346816D01*
X0180706Y0347415D02*
X0180162Y0347415D01*
X0180107Y0348014D02*
X0179563Y0348014D01*
X0179508Y0348613D02*
X0178964Y0348613D01*
X0178909Y0349212D02*
X0178441Y0349212D01*
X0179795Y0350566D02*
X0182153Y0348208D01*
X0179795Y0350566D02*
X0180067Y0350838D01*
X0182425Y0348480D01*
X0182153Y0348208D01*
X0182098Y0348807D02*
X0181554Y0348807D01*
X0181499Y0349406D02*
X0180955Y0349406D01*
X0180900Y0350005D02*
X0180356Y0350005D01*
X0180301Y0350604D02*
X0179833Y0350604D01*
X0181187Y0351958D02*
X0183545Y0349600D01*
X0181187Y0351958D02*
X0181459Y0352230D01*
X0183817Y0349872D01*
X0183545Y0349600D01*
X0183490Y0350199D02*
X0182946Y0350199D01*
X0182891Y0350798D02*
X0182347Y0350798D01*
X0182292Y0351397D02*
X0181748Y0351397D01*
X0181693Y0351996D02*
X0181225Y0351996D01*
X0182579Y0353350D02*
X0184937Y0350992D01*
X0182579Y0353350D02*
X0182851Y0353622D01*
X0185209Y0351264D01*
X0184937Y0350992D01*
X0184882Y0351591D02*
X0184338Y0351591D01*
X0184283Y0352190D02*
X0183739Y0352190D01*
X0183684Y0352789D02*
X0183140Y0352789D01*
X0183085Y0353388D02*
X0182617Y0353388D01*
X0183971Y0354742D02*
X0186329Y0352384D01*
X0183971Y0354742D02*
X0184243Y0355014D01*
X0186601Y0352656D01*
X0186329Y0352384D01*
X0186274Y0352983D02*
X0185730Y0352983D01*
X0185675Y0353582D02*
X0185131Y0353582D01*
X0185076Y0354181D02*
X0184532Y0354181D01*
X0184477Y0354780D02*
X0184009Y0354780D01*
X0185362Y0356134D02*
X0187720Y0353776D01*
X0185362Y0356134D02*
X0185634Y0356406D01*
X0187992Y0354048D01*
X0187720Y0353776D01*
X0187665Y0354375D02*
X0187121Y0354375D01*
X0187066Y0354974D02*
X0186522Y0354974D01*
X0186467Y0355573D02*
X0185923Y0355573D01*
X0185868Y0356172D02*
X0185400Y0356172D01*
X0186754Y0357526D02*
X0189112Y0355168D01*
X0186754Y0357526D02*
X0187026Y0357798D01*
X0189384Y0355440D01*
X0189112Y0355168D01*
X0189057Y0355767D02*
X0188513Y0355767D01*
X0188458Y0356366D02*
X0187914Y0356366D01*
X0187859Y0356965D02*
X0187315Y0356965D01*
X0187260Y0357564D02*
X0186792Y0357564D01*
X0188146Y0358918D02*
X0190504Y0356560D01*
X0188146Y0358918D02*
X0188418Y0359190D01*
X0190776Y0356832D01*
X0190504Y0356560D01*
X0190449Y0357159D02*
X0189905Y0357159D01*
X0189850Y0357758D02*
X0189306Y0357758D01*
X0189251Y0358357D02*
X0188707Y0358357D01*
X0188652Y0358956D02*
X0188184Y0358956D01*
X0196498Y0356832D02*
X0198856Y0359190D01*
X0199128Y0358918D01*
X0196770Y0356560D01*
X0196498Y0356832D01*
X0196825Y0357159D02*
X0197369Y0357159D01*
X0197424Y0357758D02*
X0197968Y0357758D01*
X0198023Y0358357D02*
X0198567Y0358357D01*
X0198622Y0358956D02*
X0199090Y0358956D01*
X0200248Y0357798D02*
X0197890Y0355440D01*
X0200248Y0357798D02*
X0200520Y0357526D01*
X0198162Y0355168D01*
X0197890Y0355440D01*
X0198217Y0355767D02*
X0198761Y0355767D01*
X0198816Y0356366D02*
X0199360Y0356366D01*
X0199415Y0356965D02*
X0199959Y0356965D01*
X0200014Y0357564D02*
X0200482Y0357564D01*
X0201640Y0356406D02*
X0199282Y0354048D01*
X0201640Y0356406D02*
X0201912Y0356134D01*
X0199554Y0353776D01*
X0199282Y0354048D01*
X0199609Y0354375D02*
X0200153Y0354375D01*
X0200208Y0354974D02*
X0200752Y0354974D01*
X0200807Y0355573D02*
X0201351Y0355573D01*
X0201406Y0356172D02*
X0201874Y0356172D01*
X0203032Y0355014D02*
X0200674Y0352656D01*
X0203032Y0355014D02*
X0203304Y0354742D01*
X0200946Y0352384D01*
X0200674Y0352656D01*
X0201001Y0352983D02*
X0201545Y0352983D01*
X0201600Y0353582D02*
X0202144Y0353582D01*
X0202199Y0354181D02*
X0202743Y0354181D01*
X0202798Y0354780D02*
X0203266Y0354780D01*
X0204424Y0353622D02*
X0202066Y0351264D01*
X0204424Y0353622D02*
X0204696Y0353350D01*
X0202338Y0350992D01*
X0202066Y0351264D01*
X0202393Y0351591D02*
X0202937Y0351591D01*
X0202992Y0352190D02*
X0203536Y0352190D01*
X0203591Y0352789D02*
X0204135Y0352789D01*
X0204190Y0353388D02*
X0204658Y0353388D01*
X0205816Y0352230D02*
X0203458Y0349872D01*
X0205816Y0352230D02*
X0206088Y0351958D01*
X0203730Y0349600D01*
X0203458Y0349872D01*
X0203785Y0350199D02*
X0204329Y0350199D01*
X0204384Y0350798D02*
X0204928Y0350798D01*
X0204983Y0351397D02*
X0205527Y0351397D01*
X0205582Y0351996D02*
X0206050Y0351996D01*
X0207208Y0350838D02*
X0204850Y0348480D01*
X0207208Y0350838D02*
X0207480Y0350566D01*
X0205122Y0348208D01*
X0204850Y0348480D01*
X0205177Y0348807D02*
X0205721Y0348807D01*
X0205776Y0349406D02*
X0206320Y0349406D01*
X0206375Y0350005D02*
X0206919Y0350005D01*
X0206974Y0350604D02*
X0207442Y0350604D01*
X0267698Y0193014D02*
X0269656Y0193014D01*
X0267698Y0193014D02*
X0267698Y0193398D01*
X0269656Y0193398D01*
X0269656Y0193014D01*
X0269656Y0191045D02*
X0267698Y0191045D01*
X0267698Y0191429D01*
X0269656Y0191429D01*
X0269656Y0191045D01*
X0269656Y0189077D02*
X0267698Y0189077D01*
X0267698Y0189461D01*
X0269656Y0189461D01*
X0269656Y0189077D01*
X0273013Y0189077D02*
X0274971Y0189077D01*
X0273013Y0189077D02*
X0273013Y0189461D01*
X0274971Y0189461D01*
X0274971Y0189077D01*
X0274971Y0191045D02*
X0273013Y0191045D01*
X0273013Y0191429D01*
X0274971Y0191429D01*
X0274971Y0191045D01*
X0274971Y0193014D02*
X0273013Y0193014D01*
X0273013Y0193398D01*
X0274971Y0193398D01*
X0274971Y0193014D01*
D16*
X0169413Y0443222D03*
X0169413Y0449914D03*
X0162720Y0449914D03*
X0162720Y0443222D03*
D17*
X0157893Y0443769D02*
X0156523Y0443769D01*
X0157893Y0443769D02*
X0157893Y0443461D01*
X0156523Y0443461D01*
X0156523Y0443769D01*
X0156523Y0445738D02*
X0157893Y0445738D01*
X0157893Y0445430D01*
X0156523Y0445430D01*
X0156523Y0445738D01*
X0156523Y0447706D02*
X0157893Y0447706D01*
X0157893Y0447398D01*
X0156523Y0447398D01*
X0156523Y0447706D01*
X0156523Y0449675D02*
X0157893Y0449675D01*
X0157893Y0449367D01*
X0156523Y0449367D01*
X0156523Y0449675D01*
X0156523Y0451643D02*
X0157893Y0451643D01*
X0157893Y0451335D01*
X0156523Y0451335D01*
X0156523Y0451643D01*
X0156523Y0453612D02*
X0157893Y0453612D01*
X0157893Y0453304D01*
X0156523Y0453304D01*
X0156523Y0453612D01*
X0159331Y0454741D02*
X0159331Y0456111D01*
X0159331Y0454741D02*
X0159023Y0454741D01*
X0159023Y0456111D01*
X0159331Y0456111D01*
X0159331Y0455338D02*
X0159023Y0455338D01*
X0159023Y0455935D02*
X0159331Y0455935D01*
X0161299Y0456111D02*
X0161299Y0454741D01*
X0160991Y0454741D01*
X0160991Y0456111D01*
X0161299Y0456111D01*
X0161299Y0455338D02*
X0160991Y0455338D01*
X0160991Y0455935D02*
X0161299Y0455935D01*
X0163268Y0456111D02*
X0163268Y0454741D01*
X0162960Y0454741D01*
X0162960Y0456111D01*
X0163268Y0456111D01*
X0163268Y0455338D02*
X0162960Y0455338D01*
X0162960Y0455935D02*
X0163268Y0455935D01*
X0165236Y0456111D02*
X0165236Y0454741D01*
X0164928Y0454741D01*
X0164928Y0456111D01*
X0165236Y0456111D01*
X0165236Y0455338D02*
X0164928Y0455338D01*
X0164928Y0455935D02*
X0165236Y0455935D01*
X0167205Y0456111D02*
X0167205Y0454741D01*
X0166897Y0454741D01*
X0166897Y0456111D01*
X0167205Y0456111D01*
X0167205Y0455338D02*
X0166897Y0455338D01*
X0166897Y0455935D02*
X0167205Y0455935D01*
X0168865Y0456111D02*
X0168865Y0454741D01*
X0168865Y0456111D02*
X0169173Y0456111D01*
X0169173Y0454741D01*
X0168865Y0454741D01*
X0168865Y0455338D02*
X0169173Y0455338D01*
X0169173Y0455935D02*
X0168865Y0455935D01*
X0170834Y0456111D02*
X0170834Y0454741D01*
X0170834Y0456111D02*
X0171142Y0456111D01*
X0171142Y0454741D01*
X0170834Y0454741D01*
X0170834Y0455338D02*
X0171142Y0455338D01*
X0171142Y0455935D02*
X0170834Y0455935D01*
X0172802Y0456111D02*
X0172802Y0454741D01*
X0172802Y0456111D02*
X0173110Y0456111D01*
X0173110Y0454741D01*
X0172802Y0454741D01*
X0172802Y0455338D02*
X0173110Y0455338D01*
X0173110Y0455935D02*
X0172802Y0455935D01*
X0174240Y0453304D02*
X0175610Y0453304D01*
X0174240Y0453304D02*
X0174240Y0453612D01*
X0175610Y0453612D01*
X0175610Y0453304D01*
X0175610Y0451335D02*
X0174240Y0451335D01*
X0174240Y0451643D01*
X0175610Y0451643D01*
X0175610Y0451335D01*
X0175610Y0449367D02*
X0174240Y0449367D01*
X0174240Y0449675D01*
X0175610Y0449675D01*
X0175610Y0449367D01*
X0175610Y0447398D02*
X0174240Y0447398D01*
X0174240Y0447706D01*
X0175610Y0447706D01*
X0175610Y0447398D01*
X0175610Y0445430D02*
X0174240Y0445430D01*
X0174240Y0445738D01*
X0175610Y0445738D01*
X0175610Y0445430D01*
X0175610Y0443461D02*
X0174240Y0443461D01*
X0174240Y0443769D01*
X0175610Y0443769D01*
X0175610Y0443461D01*
X0175610Y0441493D02*
X0174240Y0441493D01*
X0174240Y0441801D01*
X0175610Y0441801D01*
X0175610Y0441493D01*
X0175610Y0439524D02*
X0174240Y0439524D01*
X0174240Y0439832D01*
X0175610Y0439832D01*
X0175610Y0439524D01*
X0172802Y0438395D02*
X0172802Y0437025D01*
X0172802Y0438395D02*
X0173110Y0438395D01*
X0173110Y0437025D01*
X0172802Y0437025D01*
X0172802Y0437622D02*
X0173110Y0437622D01*
X0173110Y0438219D02*
X0172802Y0438219D01*
X0170834Y0438395D02*
X0170834Y0437025D01*
X0170834Y0438395D02*
X0171142Y0438395D01*
X0171142Y0437025D01*
X0170834Y0437025D01*
X0170834Y0437622D02*
X0171142Y0437622D01*
X0171142Y0438219D02*
X0170834Y0438219D01*
X0168865Y0438395D02*
X0168865Y0437025D01*
X0168865Y0438395D02*
X0169173Y0438395D01*
X0169173Y0437025D01*
X0168865Y0437025D01*
X0168865Y0437622D02*
X0169173Y0437622D01*
X0169173Y0438219D02*
X0168865Y0438219D01*
X0166897Y0438395D02*
X0166897Y0437025D01*
X0166897Y0438395D02*
X0167205Y0438395D01*
X0167205Y0437025D01*
X0166897Y0437025D01*
X0166897Y0437622D02*
X0167205Y0437622D01*
X0167205Y0438219D02*
X0166897Y0438219D01*
X0164928Y0438395D02*
X0164928Y0437025D01*
X0164928Y0438395D02*
X0165236Y0438395D01*
X0165236Y0437025D01*
X0164928Y0437025D01*
X0164928Y0437622D02*
X0165236Y0437622D01*
X0165236Y0438219D02*
X0164928Y0438219D01*
X0162960Y0438395D02*
X0162960Y0437025D01*
X0162960Y0438395D02*
X0163268Y0438395D01*
X0163268Y0437025D01*
X0162960Y0437025D01*
X0162960Y0437622D02*
X0163268Y0437622D01*
X0163268Y0438219D02*
X0162960Y0438219D01*
X0160991Y0438395D02*
X0160991Y0437025D01*
X0160991Y0438395D02*
X0161299Y0438395D01*
X0161299Y0437025D01*
X0160991Y0437025D01*
X0160991Y0437622D02*
X0161299Y0437622D01*
X0161299Y0438219D02*
X0160991Y0438219D01*
X0159023Y0438395D02*
X0159023Y0437025D01*
X0159023Y0438395D02*
X0159331Y0438395D01*
X0159331Y0437025D01*
X0159023Y0437025D01*
X0159023Y0437622D02*
X0159331Y0437622D01*
X0159331Y0438219D02*
X0159023Y0438219D01*
X0157893Y0439832D02*
X0156523Y0439832D01*
X0157893Y0439832D02*
X0157893Y0439524D01*
X0156523Y0439524D01*
X0156523Y0439832D01*
X0156523Y0441801D02*
X0157893Y0441801D01*
X0157893Y0441493D01*
X0156523Y0441493D01*
X0156523Y0441801D01*
D18*
X0204251Y0169115D03*
X0206220Y0169115D03*
X0206220Y0166753D03*
X0205236Y0165048D03*
X0204251Y0166753D03*
D19*
X0277279Y0202615D03*
X0277279Y0207536D03*
D20*
X0302756Y0319014D02*
X0302756Y0326926D01*
X0309488Y0326926D01*
X0309488Y0319014D01*
X0302756Y0319014D01*
X0302756Y0319761D02*
X0309488Y0319761D01*
X0309488Y0320508D02*
X0302756Y0320508D01*
X0302756Y0321255D02*
X0309488Y0321255D01*
X0309488Y0322002D02*
X0302756Y0322002D01*
X0302756Y0322749D02*
X0309488Y0322749D01*
X0309488Y0323496D02*
X0302756Y0323496D01*
X0302756Y0324243D02*
X0309488Y0324243D01*
X0309488Y0324990D02*
X0302756Y0324990D01*
X0302756Y0325737D02*
X0309488Y0325737D01*
X0309488Y0326484D02*
X0302756Y0326484D01*
X0302756Y0330233D02*
X0302756Y0337359D01*
X0309488Y0337359D01*
X0309488Y0330233D01*
X0302756Y0330233D01*
X0302756Y0330980D02*
X0309488Y0330980D01*
X0309488Y0331727D02*
X0302756Y0331727D01*
X0302756Y0332474D02*
X0309488Y0332474D01*
X0309488Y0333221D02*
X0302756Y0333221D01*
X0302756Y0333968D02*
X0309488Y0333968D01*
X0309488Y0334715D02*
X0302756Y0334715D01*
X0302756Y0335462D02*
X0309488Y0335462D01*
X0309488Y0336209D02*
X0302756Y0336209D01*
X0302756Y0336956D02*
X0309488Y0336956D01*
X0302756Y0340076D02*
X0302756Y0347202D01*
X0309488Y0347202D01*
X0309488Y0340076D01*
X0302756Y0340076D01*
X0302756Y0340823D02*
X0309488Y0340823D01*
X0309488Y0341570D02*
X0302756Y0341570D01*
X0302756Y0342317D02*
X0309488Y0342317D01*
X0309488Y0343064D02*
X0302756Y0343064D01*
X0302756Y0343811D02*
X0309488Y0343811D01*
X0309488Y0344558D02*
X0302756Y0344558D01*
X0302756Y0345305D02*
X0309488Y0345305D01*
X0309488Y0346052D02*
X0302756Y0346052D01*
X0302756Y0346799D02*
X0309488Y0346799D01*
X0302756Y0350510D02*
X0302756Y0358422D01*
X0309488Y0358422D01*
X0309488Y0350510D01*
X0302756Y0350510D01*
X0302756Y0351257D02*
X0309488Y0351257D01*
X0309488Y0352004D02*
X0302756Y0352004D01*
X0302756Y0352751D02*
X0309488Y0352751D01*
X0309488Y0353498D02*
X0302756Y0353498D01*
X0302756Y0354245D02*
X0309488Y0354245D01*
X0309488Y0354992D02*
X0302756Y0354992D01*
X0302756Y0355739D02*
X0309488Y0355739D01*
X0309488Y0356486D02*
X0302756Y0356486D01*
X0302756Y0357233D02*
X0309488Y0357233D01*
X0309488Y0357980D02*
X0302756Y0357980D01*
X0080844Y0346886D02*
X0080844Y0338974D01*
X0074112Y0338974D01*
X0074112Y0346886D01*
X0080844Y0346886D01*
X0080844Y0339721D02*
X0074112Y0339721D01*
X0074112Y0340468D02*
X0080844Y0340468D01*
X0080844Y0341215D02*
X0074112Y0341215D01*
X0074112Y0341962D02*
X0080844Y0341962D01*
X0080844Y0342709D02*
X0074112Y0342709D01*
X0074112Y0343456D02*
X0080844Y0343456D01*
X0080844Y0344203D02*
X0074112Y0344203D01*
X0074112Y0344950D02*
X0080844Y0344950D01*
X0080844Y0345697D02*
X0074112Y0345697D01*
X0074112Y0346444D02*
X0080844Y0346444D01*
X0080844Y0335666D02*
X0080844Y0328540D01*
X0074112Y0328540D01*
X0074112Y0335666D01*
X0080844Y0335666D01*
X0080844Y0329287D02*
X0074112Y0329287D01*
X0074112Y0330034D02*
X0080844Y0330034D01*
X0080844Y0330781D02*
X0074112Y0330781D01*
X0074112Y0331528D02*
X0080844Y0331528D01*
X0080844Y0332275D02*
X0074112Y0332275D01*
X0074112Y0333022D02*
X0080844Y0333022D01*
X0080844Y0333769D02*
X0074112Y0333769D01*
X0074112Y0334516D02*
X0080844Y0334516D01*
X0080844Y0335263D02*
X0074112Y0335263D01*
X0080844Y0325824D02*
X0080844Y0318698D01*
X0074112Y0318698D01*
X0074112Y0325824D01*
X0080844Y0325824D01*
X0080844Y0319445D02*
X0074112Y0319445D01*
X0074112Y0320192D02*
X0080844Y0320192D01*
X0080844Y0320939D02*
X0074112Y0320939D01*
X0074112Y0321686D02*
X0080844Y0321686D01*
X0080844Y0322433D02*
X0074112Y0322433D01*
X0074112Y0323180D02*
X0080844Y0323180D01*
X0080844Y0323927D02*
X0074112Y0323927D01*
X0074112Y0324674D02*
X0080844Y0324674D01*
X0080844Y0325421D02*
X0074112Y0325421D01*
X0080844Y0315390D02*
X0080844Y0307478D01*
X0074112Y0307478D01*
X0074112Y0315390D01*
X0080844Y0315390D01*
X0080844Y0308225D02*
X0074112Y0308225D01*
X0074112Y0308972D02*
X0080844Y0308972D01*
X0080844Y0309719D02*
X0074112Y0309719D01*
X0074112Y0310466D02*
X0080844Y0310466D01*
X0080844Y0311213D02*
X0074112Y0311213D01*
X0074112Y0311960D02*
X0080844Y0311960D01*
X0080844Y0312707D02*
X0074112Y0312707D01*
X0074112Y0313454D02*
X0080844Y0313454D01*
X0080844Y0314201D02*
X0074112Y0314201D01*
X0074112Y0314948D02*
X0080844Y0314948D01*
D21*
X0091139Y0318403D02*
X0091139Y0310765D01*
X0085471Y0310765D01*
X0085471Y0318403D01*
X0091139Y0318403D01*
X0091139Y0311394D02*
X0085471Y0311394D01*
X0085471Y0312023D02*
X0091139Y0312023D01*
X0091139Y0312652D02*
X0085471Y0312652D01*
X0085471Y0313281D02*
X0091139Y0313281D01*
X0091139Y0313910D02*
X0085471Y0313910D01*
X0085471Y0314539D02*
X0091139Y0314539D01*
X0091139Y0315168D02*
X0085471Y0315168D01*
X0085471Y0315797D02*
X0091139Y0315797D01*
X0091139Y0316426D02*
X0085471Y0316426D01*
X0085471Y0317055D02*
X0091139Y0317055D01*
X0091139Y0317684D02*
X0085471Y0317684D01*
X0085471Y0318313D02*
X0091139Y0318313D01*
X0091139Y0335962D02*
X0091139Y0343600D01*
X0091139Y0335962D02*
X0085471Y0335962D01*
X0085471Y0343600D01*
X0091139Y0343600D01*
X0091139Y0336591D02*
X0085471Y0336591D01*
X0085471Y0337220D02*
X0091139Y0337220D01*
X0091139Y0337849D02*
X0085471Y0337849D01*
X0085471Y0338478D02*
X0091139Y0338478D01*
X0091139Y0339107D02*
X0085471Y0339107D01*
X0085471Y0339736D02*
X0091139Y0339736D01*
X0091139Y0340365D02*
X0085471Y0340365D01*
X0085471Y0340994D02*
X0091139Y0340994D01*
X0091139Y0341623D02*
X0085471Y0341623D01*
X0085471Y0342252D02*
X0091139Y0342252D01*
X0091139Y0342881D02*
X0085471Y0342881D01*
X0085471Y0343510D02*
X0091139Y0343510D01*
X0086029Y0361315D02*
X0073273Y0361315D01*
X0086029Y0361315D02*
X0086029Y0355647D01*
X0073273Y0355647D01*
X0073273Y0361315D01*
X0073273Y0356276D02*
X0086029Y0356276D01*
X0086029Y0356905D02*
X0073273Y0356905D01*
X0073273Y0357534D02*
X0086029Y0357534D01*
X0086029Y0358163D02*
X0073273Y0358163D01*
X0073273Y0358792D02*
X0086029Y0358792D01*
X0086029Y0359421D02*
X0073273Y0359421D01*
X0073273Y0360050D02*
X0086029Y0360050D01*
X0086029Y0360679D02*
X0073273Y0360679D01*
X0073273Y0361308D02*
X0086029Y0361308D01*
X0086029Y0388087D02*
X0073273Y0388087D01*
X0086029Y0388087D02*
X0086029Y0382419D01*
X0073273Y0382419D01*
X0073273Y0388087D01*
X0073273Y0383048D02*
X0086029Y0383048D01*
X0086029Y0383677D02*
X0073273Y0383677D01*
X0073273Y0384306D02*
X0086029Y0384306D01*
X0086029Y0384935D02*
X0073273Y0384935D01*
X0073273Y0385564D02*
X0086029Y0385564D01*
X0086029Y0386193D02*
X0073273Y0386193D01*
X0073273Y0386822D02*
X0086029Y0386822D01*
X0086029Y0387451D02*
X0073273Y0387451D01*
X0073273Y0388080D02*
X0086029Y0388080D01*
X0292461Y0355135D02*
X0292461Y0347497D01*
X0292461Y0355135D02*
X0298129Y0355135D01*
X0298129Y0347497D01*
X0292461Y0347497D01*
X0292461Y0348126D02*
X0298129Y0348126D01*
X0298129Y0348755D02*
X0292461Y0348755D01*
X0292461Y0349384D02*
X0298129Y0349384D01*
X0298129Y0350013D02*
X0292461Y0350013D01*
X0292461Y0350642D02*
X0298129Y0350642D01*
X0298129Y0351271D02*
X0292461Y0351271D01*
X0292461Y0351900D02*
X0298129Y0351900D01*
X0298129Y0352529D02*
X0292461Y0352529D01*
X0292461Y0353158D02*
X0298129Y0353158D01*
X0298129Y0353787D02*
X0292461Y0353787D01*
X0292461Y0354416D02*
X0298129Y0354416D01*
X0298129Y0355045D02*
X0292461Y0355045D01*
X0292461Y0329938D02*
X0292461Y0322300D01*
X0292461Y0329938D02*
X0298129Y0329938D01*
X0298129Y0322300D01*
X0292461Y0322300D01*
X0292461Y0322929D02*
X0298129Y0322929D01*
X0298129Y0323558D02*
X0292461Y0323558D01*
X0292461Y0324187D02*
X0298129Y0324187D01*
X0298129Y0324816D02*
X0292461Y0324816D01*
X0292461Y0325445D02*
X0298129Y0325445D01*
X0298129Y0326074D02*
X0292461Y0326074D01*
X0292461Y0326703D02*
X0298129Y0326703D01*
X0298129Y0327332D02*
X0292461Y0327332D01*
X0292461Y0327961D02*
X0298129Y0327961D01*
X0298129Y0328590D02*
X0292461Y0328590D01*
X0292461Y0329219D02*
X0298129Y0329219D01*
X0298129Y0329848D02*
X0292461Y0329848D01*
D22*
X0083118Y0163614D02*
X0083118Y0158126D01*
X0083118Y0163614D02*
X0087622Y0163614D01*
X0087622Y0158126D01*
X0083118Y0158126D01*
X0083118Y0158739D02*
X0087622Y0158739D01*
X0087622Y0159352D02*
X0083118Y0159352D01*
X0083118Y0159965D02*
X0087622Y0159965D01*
X0087622Y0160578D02*
X0083118Y0160578D01*
X0083118Y0161191D02*
X0087622Y0161191D01*
X0087622Y0161804D02*
X0083118Y0161804D01*
X0083118Y0162417D02*
X0087622Y0162417D01*
X0087622Y0163030D02*
X0083118Y0163030D01*
X0083118Y0188244D02*
X0083118Y0193732D01*
X0087622Y0193732D01*
X0087622Y0188244D01*
X0083118Y0188244D01*
X0083118Y0188857D02*
X0087622Y0188857D01*
X0087622Y0189470D02*
X0083118Y0189470D01*
X0083118Y0190083D02*
X0087622Y0190083D01*
X0087622Y0190696D02*
X0083118Y0190696D01*
X0083118Y0191309D02*
X0087622Y0191309D01*
X0087622Y0191922D02*
X0083118Y0191922D01*
X0083118Y0192535D02*
X0087622Y0192535D01*
X0087622Y0193148D02*
X0083118Y0193148D01*
X0100834Y0193732D02*
X0100834Y0188244D01*
X0100834Y0193732D02*
X0105338Y0193732D01*
X0105338Y0188244D01*
X0100834Y0188244D01*
X0100834Y0188857D02*
X0105338Y0188857D01*
X0105338Y0189470D02*
X0100834Y0189470D01*
X0100834Y0190083D02*
X0105338Y0190083D01*
X0105338Y0190696D02*
X0100834Y0190696D01*
X0100834Y0191309D02*
X0105338Y0191309D01*
X0105338Y0191922D02*
X0100834Y0191922D01*
X0100834Y0192535D02*
X0105338Y0192535D01*
X0105338Y0193148D02*
X0100834Y0193148D01*
X0100834Y0163614D02*
X0100834Y0158126D01*
X0100834Y0163614D02*
X0105338Y0163614D01*
X0105338Y0158126D01*
X0100834Y0158126D01*
X0100834Y0158739D02*
X0105338Y0158739D01*
X0105338Y0159352D02*
X0100834Y0159352D01*
X0100834Y0159965D02*
X0105338Y0159965D01*
X0105338Y0160578D02*
X0100834Y0160578D01*
X0100834Y0161191D02*
X0105338Y0161191D01*
X0105338Y0161804D02*
X0100834Y0161804D01*
X0100834Y0162417D02*
X0105338Y0162417D01*
X0105338Y0163030D02*
X0100834Y0163030D01*
X0138795Y0282547D02*
X0135054Y0286288D01*
X0138795Y0282547D02*
X0135888Y0279640D01*
X0132147Y0283381D01*
X0135054Y0286288D01*
X0135275Y0280253D02*
X0136501Y0280253D01*
X0137114Y0280866D02*
X0134662Y0280866D01*
X0134049Y0281479D02*
X0137727Y0281479D01*
X0138340Y0282092D02*
X0133436Y0282092D01*
X0132823Y0282705D02*
X0138637Y0282705D01*
X0138024Y0283318D02*
X0132210Y0283318D01*
X0132697Y0283931D02*
X0137411Y0283931D01*
X0136798Y0284544D02*
X0133310Y0284544D01*
X0133923Y0285157D02*
X0136185Y0285157D01*
X0135572Y0285770D02*
X0134536Y0285770D01*
X0141178Y0292413D02*
X0144919Y0288672D01*
X0142012Y0285765D01*
X0138271Y0289506D01*
X0141178Y0292413D01*
X0141399Y0286378D02*
X0142625Y0286378D01*
X0143238Y0286991D02*
X0140786Y0286991D01*
X0140173Y0287604D02*
X0143851Y0287604D01*
X0144464Y0288217D02*
X0139560Y0288217D01*
X0138947Y0288830D02*
X0144761Y0288830D01*
X0144148Y0289443D02*
X0138334Y0289443D01*
X0138821Y0290056D02*
X0143535Y0290056D01*
X0142922Y0290669D02*
X0139434Y0290669D01*
X0140047Y0291282D02*
X0142309Y0291282D01*
X0141696Y0291895D02*
X0140660Y0291895D01*
X0134340Y0299251D02*
X0130599Y0302992D01*
X0134340Y0299251D02*
X0131433Y0296344D01*
X0127692Y0300085D01*
X0130599Y0302992D01*
X0130820Y0296957D02*
X0132046Y0296957D01*
X0132659Y0297570D02*
X0130207Y0297570D01*
X0129594Y0298183D02*
X0133272Y0298183D01*
X0133885Y0298796D02*
X0128981Y0298796D01*
X0128368Y0299409D02*
X0134182Y0299409D01*
X0133569Y0300022D02*
X0127755Y0300022D01*
X0128242Y0300635D02*
X0132956Y0300635D01*
X0132343Y0301248D02*
X0128855Y0301248D01*
X0129468Y0301861D02*
X0131730Y0301861D01*
X0131117Y0302474D02*
X0130081Y0302474D01*
X0124475Y0296867D02*
X0128216Y0293126D01*
X0125309Y0290219D01*
X0121568Y0293960D01*
X0124475Y0296867D01*
X0124696Y0290832D02*
X0125922Y0290832D01*
X0126535Y0291445D02*
X0124083Y0291445D01*
X0123470Y0292058D02*
X0127148Y0292058D01*
X0127761Y0292671D02*
X0122857Y0292671D01*
X0122244Y0293284D02*
X0128058Y0293284D01*
X0127445Y0293897D02*
X0121631Y0293897D01*
X0122118Y0294510D02*
X0126832Y0294510D01*
X0126219Y0295123D02*
X0122731Y0295123D01*
X0123344Y0295736D02*
X0125606Y0295736D01*
X0124993Y0296349D02*
X0123957Y0296349D01*
X0100834Y0440126D02*
X0100834Y0445614D01*
X0105338Y0445614D01*
X0105338Y0440126D01*
X0100834Y0440126D01*
X0100834Y0440739D02*
X0105338Y0440739D01*
X0105338Y0441352D02*
X0100834Y0441352D01*
X0100834Y0441965D02*
X0105338Y0441965D01*
X0105338Y0442578D02*
X0100834Y0442578D01*
X0100834Y0443191D02*
X0105338Y0443191D01*
X0105338Y0443804D02*
X0100834Y0443804D01*
X0100834Y0444417D02*
X0105338Y0444417D01*
X0105338Y0445030D02*
X0100834Y0445030D01*
X0083118Y0445614D02*
X0083118Y0440126D01*
X0083118Y0445614D02*
X0087622Y0445614D01*
X0087622Y0440126D01*
X0083118Y0440126D01*
X0083118Y0440739D02*
X0087622Y0440739D01*
X0087622Y0441352D02*
X0083118Y0441352D01*
X0083118Y0441965D02*
X0087622Y0441965D01*
X0087622Y0442578D02*
X0083118Y0442578D01*
X0083118Y0443191D02*
X0087622Y0443191D01*
X0087622Y0443804D02*
X0083118Y0443804D01*
X0083118Y0444417D02*
X0087622Y0444417D01*
X0087622Y0445030D02*
X0083118Y0445030D01*
X0083118Y0470244D02*
X0083118Y0475732D01*
X0087622Y0475732D01*
X0087622Y0470244D01*
X0083118Y0470244D01*
X0083118Y0470857D02*
X0087622Y0470857D01*
X0087622Y0471470D02*
X0083118Y0471470D01*
X0083118Y0472083D02*
X0087622Y0472083D01*
X0087622Y0472696D02*
X0083118Y0472696D01*
X0083118Y0473309D02*
X0087622Y0473309D01*
X0087622Y0473922D02*
X0083118Y0473922D01*
X0083118Y0474535D02*
X0087622Y0474535D01*
X0087622Y0475148D02*
X0083118Y0475148D01*
X0100834Y0475732D02*
X0100834Y0470244D01*
X0100834Y0475732D02*
X0105338Y0475732D01*
X0105338Y0470244D01*
X0100834Y0470244D01*
X0100834Y0470857D02*
X0105338Y0470857D01*
X0105338Y0471470D02*
X0100834Y0471470D01*
X0100834Y0472083D02*
X0105338Y0472083D01*
X0105338Y0472696D02*
X0100834Y0472696D01*
X0100834Y0473309D02*
X0105338Y0473309D01*
X0105338Y0473922D02*
X0100834Y0473922D01*
X0100834Y0474535D02*
X0105338Y0474535D01*
X0105338Y0475148D02*
X0100834Y0475148D01*
X0231070Y0185931D02*
X0231070Y0180639D01*
X0226960Y0180639D01*
X0226960Y0185931D01*
X0231070Y0185931D01*
X0231070Y0181252D02*
X0226960Y0181252D01*
X0226960Y0181865D02*
X0231070Y0181865D01*
X0231070Y0182478D02*
X0226960Y0182478D01*
X0226960Y0183091D02*
X0231070Y0183091D01*
X0231070Y0183704D02*
X0226960Y0183704D01*
X0226960Y0184317D02*
X0231070Y0184317D01*
X0231070Y0184930D02*
X0226960Y0184930D01*
X0226960Y0185543D02*
X0231070Y0185543D01*
X0239732Y0185931D02*
X0239732Y0180639D01*
X0235622Y0180639D01*
X0235622Y0185931D01*
X0239732Y0185931D01*
X0239732Y0181252D02*
X0235622Y0181252D01*
X0235622Y0181865D02*
X0239732Y0181865D01*
X0239732Y0182478D02*
X0235622Y0182478D01*
X0235622Y0183091D02*
X0239732Y0183091D01*
X0239732Y0183704D02*
X0235622Y0183704D01*
X0235622Y0184317D02*
X0239732Y0184317D01*
X0239732Y0184930D02*
X0235622Y0184930D01*
X0235622Y0185543D02*
X0239732Y0185543D01*
X0239732Y0170970D02*
X0239732Y0165678D01*
X0235622Y0165678D01*
X0235622Y0170970D01*
X0239732Y0170970D01*
X0239732Y0166291D02*
X0235622Y0166291D01*
X0235622Y0166904D02*
X0239732Y0166904D01*
X0239732Y0167517D02*
X0235622Y0167517D01*
X0235622Y0168130D02*
X0239732Y0168130D01*
X0239732Y0168743D02*
X0235622Y0168743D01*
X0235622Y0169356D02*
X0239732Y0169356D01*
X0239732Y0169969D02*
X0235622Y0169969D01*
X0235622Y0170582D02*
X0239732Y0170582D01*
X0231070Y0170970D02*
X0231070Y0165678D01*
X0226960Y0165678D01*
X0226960Y0170970D01*
X0231070Y0170970D01*
X0231070Y0166291D02*
X0226960Y0166291D01*
X0226960Y0166904D02*
X0231070Y0166904D01*
X0231070Y0167517D02*
X0226960Y0167517D01*
X0226960Y0168130D02*
X0231070Y0168130D01*
X0231070Y0168743D02*
X0226960Y0168743D01*
X0226960Y0169356D02*
X0231070Y0169356D01*
X0231070Y0169969D02*
X0226960Y0169969D01*
X0226960Y0170582D02*
X0231070Y0170582D01*
D23*
X0207909Y0180036D03*
X0207909Y0188895D03*
X0199051Y0188895D03*
X0199051Y0180036D03*
M02*
