G75*
%MOIN*%
%OFA0B0*%
%FSLAX25Y25*%
%IPPOS*%
%LPD*%
%AMOC8*
5,1,8,0,0,1.08239X$1,22.5*
%
%ADD10C,0.05315*%
%ADD11C,0.06000*%
%ADD12C,0.02700*%
%ADD13C,0.03762*%
%ADD14C,0.01600*%
%ADD15C,0.00800*%
D10*
X0268165Y0445426D03*
X0268165Y0473426D03*
X0268322Y0480584D03*
X0268322Y0508584D03*
D11*
X0272062Y0415962D03*
X0282062Y0415962D03*
X0281858Y0405962D03*
X0291858Y0405962D03*
X0292062Y0415962D03*
X0271858Y0405962D03*
X0261858Y0405962D03*
X0262062Y0415962D03*
X0252062Y0415962D03*
X0251858Y0405962D03*
X0241858Y0405962D03*
X0242062Y0415962D03*
X0232062Y0415962D03*
X0231858Y0405962D03*
X0221858Y0405962D03*
X0222062Y0415962D03*
X0206062Y0415962D03*
X0196062Y0415962D03*
X0195881Y0405962D03*
X0205881Y0405962D03*
X0185881Y0405962D03*
X0186062Y0415962D03*
X0176062Y0415962D03*
X0175881Y0405962D03*
X0165881Y0405962D03*
X0166062Y0415962D03*
X0156062Y0415962D03*
X0155881Y0405962D03*
X0145881Y0405962D03*
X0146062Y0415962D03*
X0136062Y0415962D03*
X0135881Y0405962D03*
X0125881Y0405962D03*
X0126062Y0415962D03*
X0116062Y0415962D03*
X0115881Y0405962D03*
X0096826Y0266355D03*
X0096826Y0256277D03*
X0096747Y0246355D03*
X0096826Y0236119D03*
X0096826Y0226434D03*
X0086826Y0226434D03*
X0086826Y0236119D03*
X0086747Y0246355D03*
X0086826Y0256277D03*
X0086826Y0266355D03*
X0151826Y0235993D03*
X0152062Y0225962D03*
X0162062Y0225962D03*
X0161826Y0235993D03*
X0171826Y0235993D03*
X0172062Y0225962D03*
X0182062Y0225962D03*
X0192062Y0225962D03*
X0191826Y0235993D03*
X0181826Y0235993D03*
X0201826Y0235993D03*
X0202062Y0225962D03*
X0212062Y0225962D03*
X0211826Y0235993D03*
X0221826Y0235993D03*
X0222062Y0225962D03*
X0242062Y0225962D03*
X0241826Y0235993D03*
X0251826Y0235993D03*
X0252062Y0225962D03*
X0262062Y0225962D03*
X0261826Y0235993D03*
X0271826Y0235993D03*
X0272062Y0225962D03*
X0282062Y0225962D03*
X0281826Y0235993D03*
X0291826Y0235993D03*
X0292062Y0225962D03*
D12*
X0298066Y0242497D03*
X0298165Y0257891D03*
X0285741Y0248617D03*
X0263828Y0248529D03*
X0252299Y0253324D03*
X0245901Y0256277D03*
X0245606Y0261631D03*
X0238913Y0273048D03*
X0241669Y0276985D03*
X0251511Y0284820D03*
X0251708Y0297655D03*
X0248362Y0312379D03*
X0236944Y0306513D03*
X0238913Y0303560D03*
X0236944Y0300607D03*
X0238913Y0297655D03*
X0236944Y0294702D03*
X0225133Y0290765D03*
X0208992Y0284820D03*
X0200527Y0277970D03*
X0190684Y0276985D03*
X0181826Y0274033D03*
X0184188Y0266946D03*
X0181826Y0280922D03*
X0189897Y0288796D03*
X0188716Y0294702D03*
X0182614Y0296277D03*
X0178677Y0300804D03*
X0183401Y0304741D03*
X0188716Y0301198D03*
X0191669Y0312418D03*
X0187732Y0317340D03*
X0199149Y0316316D03*
X0208401Y0315371D03*
X0211354Y0323245D03*
X0216275Y0329151D03*
X0230055Y0341946D03*
X0233992Y0339977D03*
X0249228Y0345529D03*
X0256236Y0367497D03*
X0261747Y0373403D03*
X0275921Y0375371D03*
X0284626Y0369466D03*
X0291669Y0361592D03*
X0284188Y0342733D03*
X0282220Y0334072D03*
X0270015Y0314348D03*
X0274346Y0304544D03*
X0282220Y0289977D03*
X0270409Y0281119D03*
X0295803Y0276395D03*
X0302803Y0210866D03*
X0306629Y0199387D03*
X0303480Y0190332D03*
X0297574Y0188363D03*
X0290291Y0199623D03*
X0286551Y0190962D03*
X0289700Y0184426D03*
X0287732Y0178521D03*
X0282220Y0185450D03*
X0278283Y0188403D03*
X0275330Y0197261D03*
X0263519Y0202182D03*
X0260173Y0208048D03*
X0257028Y0198129D03*
X0267456Y0185253D03*
X0259014Y0167776D03*
X0253414Y0180376D03*
X0242456Y0162773D03*
X0240028Y0206529D03*
X0240028Y0213529D03*
X0248554Y0213140D03*
X0225439Y0215152D03*
X0212710Y0206648D03*
X0212929Y0202143D03*
X0195606Y0217536D03*
X0198795Y0241395D03*
X0193637Y0253363D03*
X0187141Y0246867D03*
X0201511Y0258836D03*
X0211354Y0267143D03*
X0199543Y0296473D03*
X0198558Y0328166D03*
X0190684Y0340962D03*
X0190684Y0344899D03*
X0187732Y0338009D03*
X0185763Y0335056D03*
X0183795Y0332103D03*
X0179858Y0332103D03*
X0175921Y0328166D03*
X0171984Y0328166D03*
X0172771Y0323442D03*
X0167062Y0314387D03*
X0170015Y0309662D03*
X0163125Y0317340D03*
X0161157Y0297655D03*
X0161157Y0293718D03*
X0161157Y0289781D03*
X0153558Y0279229D03*
X0148362Y0286434D03*
X0133401Y0269505D03*
X0156511Y0255096D03*
X0156829Y0247025D03*
X0129858Y0217930D03*
X0112535Y0204111D03*
X0118834Y0198245D03*
X0110566Y0190332D03*
X0089307Y0210844D03*
X0108204Y0291946D03*
X0119818Y0306513D03*
X0124740Y0309466D03*
X0130261Y0312418D03*
X0125146Y0316316D03*
X0141201Y0322371D03*
X0144425Y0341159D03*
X0144425Y0347851D03*
X0132220Y0359623D03*
X0128283Y0355686D03*
X0124346Y0359623D03*
X0120409Y0355686D03*
X0134188Y0381277D03*
X0132220Y0387182D03*
X0140094Y0387970D03*
X0149936Y0395056D03*
X0169031Y0384269D03*
X0177495Y0373403D03*
X0181432Y0361592D03*
X0179858Y0354741D03*
X0175921Y0351788D03*
X0172968Y0354741D03*
X0159188Y0354741D03*
X0159188Y0350804D03*
X0191866Y0352970D03*
X0193637Y0365568D03*
X0200527Y0364584D03*
X0209385Y0367536D03*
X0218003Y0376308D03*
X0220842Y0351788D03*
X0215291Y0418718D03*
X0211354Y0428560D03*
X0217259Y0436434D03*
X0222771Y0438363D03*
X0224740Y0428521D03*
X0236944Y0421828D03*
X0215291Y0446277D03*
X0209080Y0459924D03*
X0203480Y0447851D03*
X0199543Y0446277D03*
X0197574Y0442340D03*
X0189700Y0440371D03*
X0189307Y0434426D03*
X0182220Y0444308D03*
X0180251Y0439584D03*
X0173952Y0434072D03*
X0170015Y0430529D03*
X0168047Y0434072D03*
X0152692Y0443324D03*
X0153283Y0447064D03*
X0155842Y0464387D03*
X0173952Y0460056D03*
X0185763Y0454151D03*
X0193244Y0470686D03*
X0196787Y0468718D03*
X0140881Y0431277D03*
X0131039Y0432851D03*
X0104228Y0413729D03*
X0112535Y0393088D03*
X0120409Y0391119D03*
X0120409Y0385214D03*
X0173952Y0206119D03*
X0168047Y0204151D03*
X0163716Y0198206D03*
X0187732Y0189387D03*
X0187732Y0183481D03*
X0187732Y0178560D03*
X0187732Y0170686D03*
X0185763Y0162812D03*
X0187732Y0155922D03*
X0272417Y0164190D03*
X0276314Y0161828D03*
X0287732Y0152930D03*
X0294818Y0165922D03*
X0297574Y0160804D03*
X0307417Y0170647D03*
X0309385Y0186395D03*
X0286944Y0387182D03*
X0302299Y0388757D03*
X0305448Y0398993D03*
X0258603Y0456308D03*
X0302228Y0469929D03*
D13*
X0308228Y0465929D03*
X0301905Y0460056D03*
X0297968Y0448245D03*
X0290094Y0452970D03*
X0282220Y0454151D03*
X0274346Y0458088D03*
X0270409Y0438403D03*
X0271984Y0432497D03*
X0286157Y0428560D03*
X0297968Y0428560D03*
X0300055Y0486143D03*
X0282228Y0494929D03*
X0238519Y0451395D03*
X0231039Y0452182D03*
X0222771Y0461237D03*
X0205448Y0483678D03*
X0197574Y0483678D03*
X0189700Y0483678D03*
X0181826Y0483678D03*
X0173952Y0483678D03*
X0154267Y0483678D03*
X0146393Y0483678D03*
X0140488Y0483678D03*
X0134582Y0483678D03*
X0128677Y0483678D03*
X0122771Y0483678D03*
X0081039Y0375371D03*
X0086944Y0349781D03*
X0106629Y0347812D03*
X0106629Y0312379D03*
X0124228Y0302340D03*
X0108598Y0276946D03*
X0088850Y0283851D03*
X0083007Y0295450D03*
X0130409Y0253324D03*
X0132220Y0229702D03*
X0156236Y0217930D03*
X0187732Y0198245D03*
X0166078Y0174623D03*
X0168047Y0152401D03*
X0175921Y0152401D03*
X0183795Y0152401D03*
X0191669Y0152401D03*
X0199543Y0152401D03*
X0213322Y0152401D03*
X0224149Y0152401D03*
X0231039Y0152401D03*
X0238913Y0152401D03*
X0245387Y0152401D03*
X0222181Y0169702D03*
X0242828Y0191129D03*
X0223165Y0203166D03*
X0160173Y0152401D03*
X0152299Y0152401D03*
X0144425Y0152401D03*
X0136551Y0152401D03*
X0129661Y0152401D03*
X0121371Y0152401D03*
X0121393Y0175568D03*
X0283470Y0321897D03*
X0308817Y0300262D03*
X0289110Y0209072D03*
X0301905Y0151001D03*
X0236551Y0428521D03*
D14*
X0072328Y0484980D02*
X0072328Y0149093D01*
X0286602Y0149772D01*
X0285834Y0150090D01*
X0284892Y0151033D01*
X0284382Y0152264D01*
X0284382Y0153597D01*
X0284892Y0154828D01*
X0285834Y0155770D01*
X0287065Y0156280D01*
X0288398Y0156280D01*
X0289629Y0155770D01*
X0290572Y0154828D01*
X0291082Y0153597D01*
X0291082Y0152264D01*
X0290572Y0151033D01*
X0289629Y0150090D01*
X0288878Y0149779D01*
X0311128Y0149850D01*
X0311128Y0183491D01*
X0310052Y0183045D01*
X0308719Y0183045D01*
X0307488Y0183555D01*
X0306545Y0184497D01*
X0306035Y0185728D01*
X0306035Y0187061D01*
X0306545Y0188292D01*
X0307488Y0189235D01*
X0308719Y0189745D01*
X0310052Y0189745D01*
X0311128Y0189299D01*
X0311128Y0297085D01*
X0311015Y0296972D01*
X0309589Y0296381D01*
X0308045Y0296381D01*
X0306618Y0296972D01*
X0305527Y0298064D01*
X0304936Y0299490D01*
X0304936Y0301034D01*
X0305527Y0302461D01*
X0306618Y0303553D01*
X0308045Y0304144D01*
X0309589Y0304144D01*
X0311015Y0303553D01*
X0311128Y0303440D01*
X0311128Y0463340D01*
X0310426Y0462638D01*
X0309000Y0462048D01*
X0307456Y0462048D01*
X0306029Y0462638D01*
X0304938Y0463730D01*
X0304347Y0465157D01*
X0304347Y0466701D01*
X0304778Y0467741D01*
X0304125Y0467089D01*
X0302894Y0466579D01*
X0301561Y0466579D01*
X0300330Y0467089D01*
X0299388Y0468031D01*
X0298878Y0469262D01*
X0298878Y0470595D01*
X0299388Y0471826D01*
X0300330Y0472769D01*
X0301561Y0473279D01*
X0302894Y0473279D01*
X0304125Y0472769D01*
X0305068Y0471826D01*
X0305578Y0470595D01*
X0305578Y0469262D01*
X0305228Y0468417D01*
X0306029Y0469219D01*
X0307456Y0469810D01*
X0309000Y0469810D01*
X0310426Y0469219D01*
X0311128Y0468517D01*
X0311128Y0487566D01*
X0072328Y0484980D01*
X0072328Y0484586D02*
X0265815Y0484586D01*
X0265684Y0484532D02*
X0264374Y0483222D01*
X0263665Y0481510D01*
X0263665Y0479657D01*
X0264374Y0477945D01*
X0265236Y0477084D01*
X0264216Y0476064D01*
X0263507Y0474353D01*
X0263507Y0472500D01*
X0264216Y0470788D01*
X0265527Y0469478D01*
X0267238Y0468769D01*
X0269091Y0468769D01*
X0270803Y0469478D01*
X0272113Y0470788D01*
X0272822Y0472500D01*
X0272822Y0474353D01*
X0272113Y0476064D01*
X0271251Y0476926D01*
X0272271Y0477945D01*
X0272980Y0479657D01*
X0272980Y0481510D01*
X0272271Y0483222D01*
X0270960Y0484532D01*
X0269249Y0485241D01*
X0267396Y0485241D01*
X0265684Y0484532D01*
X0264277Y0482988D02*
X0072328Y0482988D01*
X0072328Y0481389D02*
X0263665Y0481389D01*
X0263665Y0479791D02*
X0072328Y0479791D01*
X0072328Y0478192D02*
X0264272Y0478192D01*
X0264746Y0476594D02*
X0072328Y0476594D01*
X0072328Y0474995D02*
X0263773Y0474995D01*
X0263507Y0473397D02*
X0072328Y0473397D01*
X0072328Y0471798D02*
X0263798Y0471798D01*
X0264805Y0470200D02*
X0072328Y0470200D01*
X0072328Y0468601D02*
X0299152Y0468601D01*
X0298878Y0470200D02*
X0271525Y0470200D01*
X0272532Y0471798D02*
X0299376Y0471798D01*
X0300538Y0467003D02*
X0072328Y0467003D01*
X0072328Y0465404D02*
X0304347Y0465404D01*
X0304472Y0467003D02*
X0303918Y0467003D01*
X0305304Y0468601D02*
X0305412Y0468601D01*
X0305578Y0470200D02*
X0311128Y0470200D01*
X0311128Y0471798D02*
X0305079Y0471798D01*
X0311128Y0473397D02*
X0272822Y0473397D01*
X0272556Y0474995D02*
X0311128Y0474995D01*
X0311128Y0476594D02*
X0271584Y0476594D01*
X0272373Y0478192D02*
X0311128Y0478192D01*
X0311128Y0479791D02*
X0272980Y0479791D01*
X0272980Y0481389D02*
X0311128Y0481389D01*
X0311128Y0482988D02*
X0272368Y0482988D01*
X0270830Y0484586D02*
X0311128Y0484586D01*
X0311128Y0486185D02*
X0183566Y0486185D01*
X0174619Y0463406D02*
X0173286Y0463406D01*
X0172055Y0462896D01*
X0171112Y0461954D01*
X0170602Y0460723D01*
X0170602Y0459390D01*
X0171112Y0458159D01*
X0172055Y0457216D01*
X0173286Y0456706D01*
X0174619Y0456706D01*
X0175850Y0457216D01*
X0176792Y0458159D01*
X0177302Y0459390D01*
X0177302Y0460723D01*
X0176792Y0461954D01*
X0175850Y0462896D01*
X0174619Y0463406D01*
X0176539Y0462207D02*
X0298595Y0462207D01*
X0298615Y0462255D02*
X0298024Y0460828D01*
X0298024Y0459284D01*
X0298615Y0457858D01*
X0299706Y0456766D01*
X0301133Y0456175D01*
X0302677Y0456175D01*
X0304103Y0456766D01*
X0305195Y0457858D01*
X0305786Y0459284D01*
X0305786Y0460828D01*
X0305195Y0462255D01*
X0304103Y0463346D01*
X0302677Y0463937D01*
X0301133Y0463937D01*
X0299706Y0463346D01*
X0298615Y0462255D01*
X0298024Y0460609D02*
X0277314Y0460609D01*
X0277636Y0460286D02*
X0276544Y0461378D01*
X0275118Y0461969D01*
X0273574Y0461969D01*
X0272147Y0461378D01*
X0271056Y0460286D01*
X0270465Y0458860D01*
X0270465Y0457316D01*
X0271056Y0455889D01*
X0272147Y0454797D01*
X0273574Y0454207D01*
X0275118Y0454207D01*
X0276544Y0454797D01*
X0277636Y0455889D01*
X0278227Y0457316D01*
X0278227Y0458860D01*
X0277636Y0460286D01*
X0278165Y0459010D02*
X0298137Y0459010D01*
X0299061Y0457412D02*
X0284448Y0457412D01*
X0284418Y0457441D02*
X0282992Y0458032D01*
X0281448Y0458032D01*
X0280021Y0457441D01*
X0278930Y0456349D01*
X0278339Y0454923D01*
X0278339Y0453379D01*
X0278930Y0451952D01*
X0280021Y0450860D01*
X0281448Y0450270D01*
X0282992Y0450270D01*
X0284418Y0450860D01*
X0285510Y0451952D01*
X0286101Y0453379D01*
X0286101Y0454923D01*
X0285510Y0456349D01*
X0284418Y0457441D01*
X0285732Y0455813D02*
X0287449Y0455813D01*
X0287895Y0456260D02*
X0286804Y0455168D01*
X0286213Y0453742D01*
X0286213Y0452198D01*
X0286804Y0450771D01*
X0287895Y0449679D01*
X0289322Y0449088D01*
X0290866Y0449088D01*
X0292292Y0449679D01*
X0293384Y0450771D01*
X0293975Y0452198D01*
X0293975Y0453742D01*
X0293384Y0455168D01*
X0292292Y0456260D01*
X0290866Y0456851D01*
X0289322Y0456851D01*
X0287895Y0456260D01*
X0286409Y0454214D02*
X0286101Y0454214D01*
X0286213Y0452616D02*
X0285785Y0452616D01*
X0286702Y0451017D02*
X0284575Y0451017D01*
X0288524Y0449419D02*
X0270696Y0449419D01*
X0270803Y0449375D02*
X0269091Y0450084D01*
X0267238Y0450084D01*
X0265527Y0449375D01*
X0264216Y0448064D01*
X0263507Y0446353D01*
X0263507Y0444500D01*
X0264216Y0442788D01*
X0265527Y0441478D01*
X0267238Y0440769D01*
X0267286Y0440769D01*
X0267119Y0440601D01*
X0266528Y0439175D01*
X0266528Y0437631D01*
X0267119Y0436204D01*
X0268210Y0435112D01*
X0269637Y0434522D01*
X0271181Y0434522D01*
X0272607Y0435112D01*
X0273699Y0436204D01*
X0274290Y0437631D01*
X0274290Y0439175D01*
X0273699Y0440601D01*
X0272607Y0441693D01*
X0271484Y0442158D01*
X0272113Y0442788D01*
X0272822Y0444500D01*
X0272822Y0446353D01*
X0272113Y0448064D01*
X0270803Y0449375D01*
X0272214Y0447820D02*
X0294087Y0447820D01*
X0294087Y0447473D02*
X0294678Y0446047D01*
X0295769Y0444955D01*
X0297196Y0444364D01*
X0298740Y0444364D01*
X0300166Y0444955D01*
X0301258Y0446047D01*
X0301849Y0447473D01*
X0301849Y0449017D01*
X0301258Y0450444D01*
X0300166Y0451535D01*
X0298740Y0452126D01*
X0297196Y0452126D01*
X0295769Y0451535D01*
X0294678Y0450444D01*
X0294087Y0449017D01*
X0294087Y0447473D01*
X0294605Y0446222D02*
X0272822Y0446222D01*
X0272822Y0444623D02*
X0296570Y0444623D01*
X0299366Y0444623D02*
X0311128Y0444623D01*
X0311128Y0443025D02*
X0272211Y0443025D01*
X0272874Y0441426D02*
X0311128Y0441426D01*
X0311128Y0439828D02*
X0274019Y0439828D01*
X0274290Y0438229D02*
X0311128Y0438229D01*
X0311128Y0436631D02*
X0273876Y0436631D01*
X0272414Y0435032D02*
X0311128Y0435032D01*
X0311128Y0433434D02*
X0218770Y0433434D01*
X0219157Y0433594D02*
X0220099Y0434536D01*
X0220609Y0435768D01*
X0220609Y0435787D01*
X0220873Y0435523D01*
X0222105Y0435013D01*
X0223437Y0435013D01*
X0224669Y0435523D01*
X0225611Y0436466D01*
X0226121Y0437697D01*
X0226121Y0439030D01*
X0225611Y0440261D01*
X0224669Y0441203D01*
X0223437Y0441713D01*
X0222105Y0441713D01*
X0220873Y0441203D01*
X0219931Y0440261D01*
X0219421Y0439030D01*
X0219421Y0439010D01*
X0219157Y0439274D01*
X0217926Y0439784D01*
X0216593Y0439784D01*
X0215362Y0439274D01*
X0214419Y0438332D01*
X0213909Y0437100D01*
X0213909Y0435768D01*
X0214419Y0434536D01*
X0215362Y0433594D01*
X0216593Y0433084D01*
X0217926Y0433084D01*
X0219157Y0433594D01*
X0220305Y0435032D02*
X0222059Y0435032D01*
X0223484Y0435032D02*
X0268404Y0435032D01*
X0266942Y0436631D02*
X0225680Y0436631D01*
X0226121Y0438229D02*
X0266528Y0438229D01*
X0266798Y0439828D02*
X0225790Y0439828D01*
X0224130Y0441426D02*
X0265651Y0441426D01*
X0264118Y0443025D02*
X0216194Y0443025D01*
X0215957Y0442927D02*
X0217188Y0443437D01*
X0218131Y0444379D01*
X0218641Y0445610D01*
X0218641Y0446943D01*
X0218131Y0448174D01*
X0217188Y0449117D01*
X0215957Y0449627D01*
X0214624Y0449627D01*
X0213393Y0449117D01*
X0212451Y0448174D01*
X0211941Y0446943D01*
X0211941Y0445610D01*
X0212451Y0444379D01*
X0213393Y0443437D01*
X0214624Y0442927D01*
X0215957Y0442927D01*
X0214387Y0443025D02*
X0200916Y0443025D01*
X0200924Y0443006D02*
X0200414Y0444237D01*
X0199472Y0445180D01*
X0198241Y0445690D01*
X0196908Y0445690D01*
X0195677Y0445180D01*
X0194734Y0444237D01*
X0194224Y0443006D01*
X0194224Y0441673D01*
X0194734Y0440442D01*
X0195677Y0439500D01*
X0196908Y0438990D01*
X0198241Y0438990D01*
X0199472Y0439500D01*
X0200414Y0440442D01*
X0200924Y0441673D01*
X0200924Y0443006D01*
X0200822Y0441426D02*
X0221412Y0441426D01*
X0219752Y0439828D02*
X0199800Y0439828D01*
X0200028Y0444623D02*
X0202519Y0444623D01*
X0202813Y0444501D02*
X0204146Y0444501D01*
X0205377Y0445011D01*
X0206320Y0445954D01*
X0206830Y0447185D01*
X0206830Y0448518D01*
X0206320Y0449749D01*
X0205377Y0450691D01*
X0204146Y0451201D01*
X0202813Y0451201D01*
X0201582Y0450691D01*
X0200640Y0449749D01*
X0200130Y0448518D01*
X0200130Y0447185D01*
X0200640Y0445954D01*
X0201582Y0445011D01*
X0202813Y0444501D01*
X0204441Y0444623D02*
X0212350Y0444623D01*
X0211941Y0446222D02*
X0206431Y0446222D01*
X0206830Y0447820D02*
X0212304Y0447820D01*
X0214123Y0449419D02*
X0206456Y0449419D01*
X0204590Y0451017D02*
X0227320Y0451017D01*
X0227158Y0451410D02*
X0227749Y0449984D01*
X0228840Y0448892D01*
X0230267Y0448301D01*
X0231811Y0448301D01*
X0233237Y0448892D01*
X0234329Y0449984D01*
X0234920Y0451410D01*
X0234920Y0452954D01*
X0234329Y0454381D01*
X0233237Y0455472D01*
X0231811Y0456063D01*
X0230267Y0456063D01*
X0228840Y0455472D01*
X0227749Y0454381D01*
X0227158Y0452954D01*
X0227158Y0451410D01*
X0227158Y0452616D02*
X0188754Y0452616D01*
X0188603Y0452253D02*
X0189113Y0453484D01*
X0189113Y0454817D01*
X0188603Y0456048D01*
X0187661Y0456991D01*
X0186430Y0457501D01*
X0185097Y0457501D01*
X0183866Y0456991D01*
X0182923Y0456048D01*
X0182413Y0454817D01*
X0182413Y0453484D01*
X0182923Y0452253D01*
X0183866Y0451311D01*
X0185097Y0450801D01*
X0186430Y0450801D01*
X0187661Y0451311D01*
X0188603Y0452253D01*
X0189113Y0454214D02*
X0227680Y0454214D01*
X0229663Y0455813D02*
X0188701Y0455813D01*
X0186645Y0457412D02*
X0270465Y0457412D01*
X0270527Y0459010D02*
X0177145Y0459010D01*
X0177302Y0460609D02*
X0271378Y0460609D01*
X0271132Y0455813D02*
X0232415Y0455813D01*
X0234398Y0454214D02*
X0273555Y0454214D01*
X0275137Y0454214D02*
X0278339Y0454214D01*
X0278655Y0452616D02*
X0234920Y0452616D01*
X0234757Y0451017D02*
X0279864Y0451017D01*
X0278708Y0455813D02*
X0277560Y0455813D01*
X0278227Y0457412D02*
X0279992Y0457412D01*
X0292739Y0455813D02*
X0311128Y0455813D01*
X0311128Y0454214D02*
X0293779Y0454214D01*
X0293975Y0452616D02*
X0311128Y0452616D01*
X0311128Y0451017D02*
X0300684Y0451017D01*
X0301683Y0449419D02*
X0311128Y0449419D01*
X0311128Y0447820D02*
X0301849Y0447820D01*
X0301331Y0446222D02*
X0311128Y0446222D01*
X0311128Y0457412D02*
X0304749Y0457412D01*
X0305672Y0459010D02*
X0311128Y0459010D01*
X0311128Y0460609D02*
X0305786Y0460609D01*
X0305215Y0462207D02*
X0307071Y0462207D01*
X0309385Y0462207D02*
X0311128Y0462207D01*
X0311044Y0468601D02*
X0311128Y0468601D01*
X0304906Y0463806D02*
X0302995Y0463806D01*
X0300815Y0463806D02*
X0072328Y0463806D01*
X0072328Y0462207D02*
X0171365Y0462207D01*
X0170602Y0460609D02*
X0072328Y0460609D01*
X0072328Y0459010D02*
X0170759Y0459010D01*
X0171859Y0457412D02*
X0072328Y0457412D01*
X0072328Y0455813D02*
X0182826Y0455813D01*
X0182413Y0454214D02*
X0072328Y0454214D01*
X0072328Y0452616D02*
X0182773Y0452616D01*
X0184573Y0451017D02*
X0072328Y0451017D01*
X0072328Y0449419D02*
X0150900Y0449419D01*
X0150443Y0448962D02*
X0149933Y0447730D01*
X0149933Y0446398D01*
X0150254Y0445623D01*
X0149852Y0445221D01*
X0149342Y0443990D01*
X0149342Y0442658D01*
X0149852Y0441426D01*
X0150795Y0440484D01*
X0152026Y0439974D01*
X0153359Y0439974D01*
X0154590Y0440484D01*
X0155532Y0441426D01*
X0156042Y0442658D01*
X0156042Y0443990D01*
X0155721Y0444765D01*
X0156123Y0445166D01*
X0156633Y0446398D01*
X0156633Y0447730D01*
X0156123Y0448962D01*
X0155180Y0449904D01*
X0153949Y0450414D01*
X0152617Y0450414D01*
X0151385Y0449904D01*
X0150443Y0448962D01*
X0149970Y0447820D02*
X0072328Y0447820D01*
X0072328Y0446222D02*
X0150006Y0446222D01*
X0149605Y0444623D02*
X0072328Y0444623D01*
X0072328Y0443025D02*
X0149342Y0443025D01*
X0149852Y0441426D02*
X0072328Y0441426D01*
X0072328Y0439828D02*
X0176901Y0439828D01*
X0176901Y0440250D02*
X0176901Y0438917D01*
X0177411Y0437686D01*
X0178354Y0436744D01*
X0179585Y0436234D01*
X0180918Y0436234D01*
X0182149Y0436744D01*
X0183091Y0437686D01*
X0183601Y0438917D01*
X0183601Y0440250D01*
X0183246Y0441107D01*
X0184118Y0441468D01*
X0185060Y0442411D01*
X0185570Y0443642D01*
X0185570Y0444974D01*
X0185060Y0446206D01*
X0184118Y0447148D01*
X0182886Y0447658D01*
X0181554Y0447658D01*
X0180322Y0447148D01*
X0179380Y0446206D01*
X0178870Y0444974D01*
X0178870Y0443642D01*
X0179225Y0442785D01*
X0178354Y0442424D01*
X0177411Y0441481D01*
X0176901Y0440250D01*
X0177389Y0441426D02*
X0155532Y0441426D01*
X0156042Y0443025D02*
X0179125Y0443025D01*
X0178870Y0444623D02*
X0155780Y0444623D01*
X0156560Y0446222D02*
X0179396Y0446222D01*
X0184017Y0441426D02*
X0186511Y0441426D01*
X0186350Y0441037D02*
X0186350Y0439705D01*
X0186860Y0438473D01*
X0187803Y0437531D01*
X0187926Y0437480D01*
X0187409Y0437266D01*
X0186467Y0436324D01*
X0185957Y0435093D01*
X0185957Y0434470D01*
X0179679Y0428193D01*
X0179004Y0427518D01*
X0178639Y0426636D01*
X0178639Y0420306D01*
X0177057Y0420962D01*
X0175068Y0420962D01*
X0173230Y0420200D01*
X0171824Y0418794D01*
X0171062Y0416956D01*
X0171062Y0414967D01*
X0170301Y0413129D01*
X0168895Y0411723D01*
X0167057Y0410962D01*
X0165068Y0410962D01*
X0163230Y0411723D01*
X0161824Y0413129D01*
X0161062Y0414967D01*
X0160301Y0413129D01*
X0158895Y0411723D01*
X0157057Y0410962D01*
X0155068Y0410962D01*
X0153230Y0411723D01*
X0151824Y0413129D01*
X0151062Y0414967D01*
X0151062Y0416956D01*
X0151824Y0418794D01*
X0153230Y0420200D01*
X0155068Y0420962D01*
X0157057Y0420962D01*
X0158895Y0420200D01*
X0160301Y0418794D01*
X0161062Y0416956D01*
X0161062Y0414967D01*
X0161062Y0416956D01*
X0161824Y0418794D01*
X0163230Y0420200D01*
X0165068Y0420962D01*
X0167057Y0420962D01*
X0168895Y0420200D01*
X0170301Y0418794D01*
X0171062Y0416956D01*
X0171062Y0414967D01*
X0171824Y0413129D01*
X0173230Y0411723D01*
X0175068Y0410962D01*
X0177057Y0410962D01*
X0178639Y0411617D01*
X0178639Y0411011D01*
X0178088Y0410460D01*
X0176876Y0410962D01*
X0174887Y0410962D01*
X0173049Y0410200D01*
X0171643Y0408794D01*
X0170881Y0406956D01*
X0170120Y0408794D01*
X0168714Y0410200D01*
X0166876Y0410962D01*
X0164887Y0410962D01*
X0163049Y0410200D01*
X0161643Y0408794D01*
X0160881Y0406956D01*
X0160120Y0408794D01*
X0158714Y0410200D01*
X0156876Y0410962D01*
X0154887Y0410962D01*
X0153049Y0410200D01*
X0151643Y0408794D01*
X0150881Y0406956D01*
X0150120Y0408794D01*
X0148714Y0410200D01*
X0146876Y0410962D01*
X0144887Y0410962D01*
X0143049Y0410200D01*
X0141643Y0408794D01*
X0140881Y0406956D01*
X0140120Y0408794D01*
X0138714Y0410200D01*
X0136876Y0410962D01*
X0134887Y0410962D01*
X0133049Y0410200D01*
X0131643Y0408794D01*
X0130881Y0406956D01*
X0130120Y0408794D01*
X0128714Y0410200D01*
X0126876Y0410962D01*
X0124887Y0410962D01*
X0123049Y0410200D01*
X0121643Y0408794D01*
X0120881Y0406956D01*
X0120881Y0404967D01*
X0121643Y0403129D01*
X0123049Y0401723D01*
X0124887Y0400962D01*
X0126876Y0400962D01*
X0128714Y0401723D01*
X0130120Y0403129D01*
X0130881Y0404967D01*
X0130881Y0406956D01*
X0130881Y0404967D01*
X0131643Y0403129D01*
X0133049Y0401723D01*
X0134887Y0400962D01*
X0136876Y0400962D01*
X0138714Y0401723D01*
X0140120Y0403129D01*
X0140881Y0404967D01*
X0140881Y0406956D01*
X0140881Y0404967D01*
X0141643Y0403129D01*
X0143049Y0401723D01*
X0144887Y0400962D01*
X0146876Y0400962D01*
X0148714Y0401723D01*
X0150120Y0403129D01*
X0150881Y0404967D01*
X0150881Y0406956D01*
X0150881Y0404967D01*
X0151643Y0403129D01*
X0153049Y0401723D01*
X0154887Y0400962D01*
X0156876Y0400962D01*
X0158714Y0401723D01*
X0160120Y0403129D01*
X0160881Y0404967D01*
X0160881Y0406956D01*
X0160881Y0404967D01*
X0161643Y0403129D01*
X0163049Y0401723D01*
X0164887Y0400962D01*
X0166876Y0400962D01*
X0168714Y0401723D01*
X0170120Y0403129D01*
X0170881Y0404967D01*
X0170881Y0406956D01*
X0170881Y0404967D01*
X0171643Y0403129D01*
X0173049Y0401723D01*
X0174887Y0400962D01*
X0176876Y0400962D01*
X0178714Y0401723D01*
X0180120Y0403129D01*
X0180881Y0404967D01*
X0180881Y0406465D01*
X0180881Y0406465D01*
X0180881Y0404967D01*
X0181643Y0403129D01*
X0183049Y0401723D01*
X0184887Y0400962D01*
X0186876Y0400962D01*
X0188714Y0401723D01*
X0190120Y0403129D01*
X0190881Y0404967D01*
X0190881Y0406956D01*
X0190120Y0408794D01*
X0188714Y0410200D01*
X0186876Y0410962D01*
X0184887Y0410962D01*
X0183439Y0410362D01*
X0183439Y0411636D01*
X0185068Y0410962D01*
X0187057Y0410962D01*
X0188895Y0411723D01*
X0190301Y0413129D01*
X0191062Y0414967D01*
X0191062Y0416956D01*
X0190301Y0418794D01*
X0188895Y0420200D01*
X0187057Y0420962D01*
X0185068Y0420962D01*
X0183439Y0420287D01*
X0183439Y0425164D01*
X0189351Y0431076D01*
X0189973Y0431076D01*
X0191204Y0431586D01*
X0192146Y0432529D01*
X0192656Y0433760D01*
X0192656Y0435093D01*
X0192146Y0436324D01*
X0191204Y0437266D01*
X0191081Y0437317D01*
X0191598Y0437531D01*
X0192540Y0438473D01*
X0193050Y0439705D01*
X0193050Y0441037D01*
X0192540Y0442269D01*
X0191598Y0443211D01*
X0190367Y0443721D01*
X0189034Y0443721D01*
X0187803Y0443211D01*
X0186860Y0442269D01*
X0186350Y0441037D01*
X0186350Y0439828D02*
X0183601Y0439828D01*
X0183316Y0438229D02*
X0187104Y0438229D01*
X0186774Y0436631D02*
X0181877Y0436631D01*
X0178626Y0436631D02*
X0176131Y0436631D01*
X0175850Y0436912D02*
X0174619Y0437422D01*
X0173286Y0437422D01*
X0172055Y0436912D01*
X0171112Y0435970D01*
X0170999Y0435697D01*
X0170887Y0435970D01*
X0169944Y0436912D01*
X0168713Y0437422D01*
X0167380Y0437422D01*
X0166149Y0436912D01*
X0165207Y0435970D01*
X0164697Y0434738D01*
X0164697Y0433406D01*
X0165207Y0432174D01*
X0166149Y0431232D01*
X0166665Y0431018D01*
X0166665Y0429862D01*
X0167175Y0428631D01*
X0168118Y0427689D01*
X0169349Y0427179D01*
X0170682Y0427179D01*
X0171913Y0427689D01*
X0172855Y0428631D01*
X0173365Y0429862D01*
X0173365Y0430722D01*
X0174619Y0430722D01*
X0175850Y0431232D01*
X0176792Y0432174D01*
X0177302Y0433406D01*
X0177302Y0434738D01*
X0176792Y0435970D01*
X0175850Y0436912D01*
X0177186Y0438229D02*
X0072328Y0438229D01*
X0072328Y0436631D02*
X0165868Y0436631D01*
X0164818Y0435032D02*
X0133595Y0435032D01*
X0133879Y0434749D02*
X0132936Y0435691D01*
X0131705Y0436201D01*
X0130372Y0436201D01*
X0129141Y0435691D01*
X0128199Y0434749D01*
X0127689Y0433518D01*
X0127689Y0432185D01*
X0128199Y0430954D01*
X0129141Y0430011D01*
X0130372Y0429501D01*
X0131705Y0429501D01*
X0132936Y0430011D01*
X0133879Y0430954D01*
X0134389Y0432185D01*
X0134389Y0433518D01*
X0133879Y0434749D01*
X0134389Y0433434D02*
X0138301Y0433434D01*
X0138041Y0433174D02*
X0137531Y0431943D01*
X0137531Y0430610D01*
X0138041Y0429379D01*
X0138984Y0428437D01*
X0140215Y0427927D01*
X0141548Y0427927D01*
X0142779Y0428437D01*
X0143721Y0429379D01*
X0144231Y0430610D01*
X0144231Y0431943D01*
X0143721Y0433174D01*
X0142779Y0434117D01*
X0141548Y0434627D01*
X0140215Y0434627D01*
X0138984Y0434117D01*
X0138041Y0433174D01*
X0137531Y0431835D02*
X0134244Y0431835D01*
X0133162Y0430237D02*
X0137686Y0430237D01*
X0138782Y0428638D02*
X0072328Y0428638D01*
X0072328Y0427040D02*
X0178806Y0427040D01*
X0179679Y0428193D02*
X0179679Y0428193D01*
X0180124Y0428638D02*
X0172858Y0428638D01*
X0173365Y0430237D02*
X0181723Y0430237D01*
X0183322Y0431835D02*
X0176453Y0431835D01*
X0177302Y0433434D02*
X0184920Y0433434D01*
X0185957Y0435032D02*
X0177180Y0435032D01*
X0171774Y0436631D02*
X0170225Y0436631D01*
X0164697Y0433434D02*
X0143462Y0433434D01*
X0144231Y0431835D02*
X0165546Y0431835D01*
X0166665Y0430237D02*
X0144077Y0430237D01*
X0142981Y0428638D02*
X0167172Y0428638D01*
X0167820Y0420646D02*
X0174305Y0420646D01*
X0172077Y0419047D02*
X0170048Y0419047D01*
X0170858Y0417449D02*
X0171266Y0417449D01*
X0171062Y0415850D02*
X0171062Y0415850D01*
X0170766Y0414252D02*
X0171359Y0414252D01*
X0172300Y0412653D02*
X0169825Y0412653D01*
X0167282Y0411055D02*
X0174843Y0411055D01*
X0177282Y0411055D02*
X0178639Y0411055D01*
X0183439Y0411055D02*
X0184843Y0411055D01*
X0187282Y0411055D02*
X0194843Y0411055D01*
X0194887Y0410962D02*
X0193049Y0410200D01*
X0191643Y0408794D01*
X0190881Y0406956D01*
X0190881Y0404967D01*
X0191643Y0403129D01*
X0193049Y0401723D01*
X0194887Y0400962D01*
X0196876Y0400962D01*
X0198714Y0401723D01*
X0200120Y0403129D01*
X0200881Y0404967D01*
X0200881Y0406956D01*
X0200120Y0408794D01*
X0198714Y0410200D01*
X0196876Y0410962D01*
X0194887Y0410962D01*
X0195068Y0410962D02*
X0197057Y0410962D01*
X0198895Y0411723D01*
X0200301Y0413129D01*
X0201062Y0414967D01*
X0201062Y0416956D01*
X0201062Y0414967D01*
X0201824Y0413129D01*
X0203230Y0411723D01*
X0205068Y0410962D01*
X0207057Y0410962D01*
X0208895Y0411723D01*
X0210301Y0413129D01*
X0211062Y0414967D01*
X0211062Y0416956D01*
X0210301Y0418794D01*
X0208895Y0420200D01*
X0207057Y0420962D01*
X0205068Y0420962D01*
X0203230Y0420200D01*
X0201824Y0418794D01*
X0201062Y0416956D01*
X0200301Y0418794D01*
X0198895Y0420200D01*
X0197057Y0420962D01*
X0195068Y0420962D01*
X0193230Y0420200D01*
X0191824Y0418794D01*
X0191062Y0416956D01*
X0191062Y0414967D01*
X0191824Y0413129D01*
X0193230Y0411723D01*
X0195068Y0410962D01*
X0197282Y0411055D02*
X0204843Y0411055D01*
X0204887Y0410962D02*
X0203049Y0410200D01*
X0201643Y0408794D01*
X0200881Y0406956D01*
X0200881Y0404967D01*
X0201643Y0403129D01*
X0203049Y0401723D01*
X0204887Y0400962D01*
X0206876Y0400962D01*
X0208714Y0401723D01*
X0210120Y0403129D01*
X0210881Y0404967D01*
X0210881Y0406956D01*
X0210120Y0408794D01*
X0208714Y0410200D01*
X0206876Y0410962D01*
X0204887Y0410962D01*
X0207282Y0411055D02*
X0220843Y0411055D01*
X0220863Y0410962D02*
X0219025Y0410200D01*
X0217619Y0408794D01*
X0216858Y0406956D01*
X0216858Y0404967D01*
X0217619Y0403129D01*
X0219025Y0401723D01*
X0220863Y0400962D01*
X0222852Y0400962D01*
X0224690Y0401723D01*
X0226096Y0403129D01*
X0226858Y0404967D01*
X0227619Y0403129D01*
X0229025Y0401723D01*
X0230863Y0400962D01*
X0232852Y0400962D01*
X0234690Y0401723D01*
X0236096Y0403129D01*
X0236858Y0404967D01*
X0237619Y0403129D01*
X0239025Y0401723D01*
X0240863Y0400962D01*
X0242852Y0400962D01*
X0244690Y0401723D01*
X0246096Y0403129D01*
X0246858Y0404967D01*
X0247619Y0403129D01*
X0249025Y0401723D01*
X0250863Y0400962D01*
X0252852Y0400962D01*
X0254690Y0401723D01*
X0256096Y0403129D01*
X0256858Y0404967D01*
X0257619Y0403129D01*
X0259025Y0401723D01*
X0260863Y0400962D01*
X0262852Y0400962D01*
X0264690Y0401723D01*
X0266096Y0403129D01*
X0266858Y0404967D01*
X0266858Y0406956D01*
X0266096Y0408794D01*
X0264690Y0410200D01*
X0262852Y0410962D01*
X0260863Y0410962D01*
X0259025Y0410200D01*
X0257619Y0408794D01*
X0256858Y0406956D01*
X0256858Y0404967D01*
X0256858Y0406956D01*
X0256096Y0408794D01*
X0254690Y0410200D01*
X0252852Y0410962D01*
X0250863Y0410962D01*
X0249025Y0410200D01*
X0247619Y0408794D01*
X0246858Y0406956D01*
X0246858Y0404967D01*
X0246858Y0406956D01*
X0246096Y0408794D01*
X0244690Y0410200D01*
X0242852Y0410962D01*
X0240863Y0410962D01*
X0239025Y0410200D01*
X0237619Y0408794D01*
X0236858Y0406956D01*
X0236858Y0404967D01*
X0236858Y0406956D01*
X0236096Y0408794D01*
X0234690Y0410200D01*
X0232852Y0410962D01*
X0230863Y0410962D01*
X0229025Y0410200D01*
X0227619Y0408794D01*
X0226858Y0406956D01*
X0226858Y0404967D01*
X0226858Y0406956D01*
X0226096Y0408794D01*
X0224690Y0410200D01*
X0222852Y0410962D01*
X0220863Y0410962D01*
X0221068Y0410962D02*
X0223057Y0410962D01*
X0224895Y0411723D01*
X0226301Y0413129D01*
X0227062Y0414967D01*
X0227062Y0416956D01*
X0227062Y0414967D01*
X0227824Y0413129D01*
X0229230Y0411723D01*
X0231068Y0410962D01*
X0233057Y0410962D01*
X0234895Y0411723D01*
X0236301Y0413129D01*
X0237062Y0414967D01*
X0237062Y0416956D01*
X0237062Y0414967D01*
X0237824Y0413129D01*
X0239230Y0411723D01*
X0241068Y0410962D01*
X0243057Y0410962D01*
X0244895Y0411723D01*
X0246301Y0413129D01*
X0247062Y0414967D01*
X0247062Y0416956D01*
X0247062Y0414967D01*
X0247824Y0413129D01*
X0249230Y0411723D01*
X0251068Y0410962D01*
X0253057Y0410962D01*
X0254895Y0411723D01*
X0256301Y0413129D01*
X0257062Y0414967D01*
X0257062Y0416956D01*
X0257062Y0414967D01*
X0257824Y0413129D01*
X0259230Y0411723D01*
X0261068Y0410962D01*
X0263057Y0410962D01*
X0264895Y0411723D01*
X0266301Y0413129D01*
X0267062Y0414967D01*
X0267062Y0416956D01*
X0267062Y0414967D01*
X0267824Y0413129D01*
X0269230Y0411723D01*
X0271068Y0410962D01*
X0273057Y0410962D01*
X0274895Y0411723D01*
X0276301Y0413129D01*
X0277062Y0414967D01*
X0277062Y0416956D01*
X0277062Y0414967D01*
X0277824Y0413129D01*
X0279230Y0411723D01*
X0281068Y0410962D01*
X0283057Y0410962D01*
X0284895Y0411723D01*
X0286301Y0413129D01*
X0287062Y0414967D01*
X0287062Y0416956D01*
X0287062Y0414967D01*
X0287824Y0413129D01*
X0289230Y0411723D01*
X0291068Y0410962D01*
X0293057Y0410962D01*
X0294895Y0411723D01*
X0296301Y0413129D01*
X0297062Y0414967D01*
X0297062Y0416956D01*
X0296301Y0418794D01*
X0294895Y0420200D01*
X0293057Y0420962D01*
X0291068Y0420962D01*
X0289230Y0420200D01*
X0287824Y0418794D01*
X0287062Y0416956D01*
X0286301Y0418794D01*
X0284895Y0420200D01*
X0283057Y0420962D01*
X0281068Y0420962D01*
X0279230Y0420200D01*
X0277824Y0418794D01*
X0277062Y0416956D01*
X0276301Y0418794D01*
X0274895Y0420200D01*
X0273057Y0420962D01*
X0271068Y0420962D01*
X0269230Y0420200D01*
X0267824Y0418794D01*
X0267062Y0416956D01*
X0266301Y0418794D01*
X0264895Y0420200D01*
X0263057Y0420962D01*
X0261068Y0420962D01*
X0259230Y0420200D01*
X0257824Y0418794D01*
X0257062Y0416956D01*
X0256301Y0418794D01*
X0254895Y0420200D01*
X0253057Y0420962D01*
X0251068Y0420962D01*
X0249230Y0420200D01*
X0247824Y0418794D01*
X0247062Y0416956D01*
X0246301Y0418794D01*
X0244895Y0420200D01*
X0243057Y0420962D01*
X0241068Y0420962D01*
X0240034Y0420534D01*
X0240294Y0421161D01*
X0240294Y0422494D01*
X0239784Y0423725D01*
X0238842Y0424668D01*
X0238116Y0424968D01*
X0238749Y0425230D01*
X0239841Y0426322D01*
X0240432Y0427749D01*
X0240432Y0429293D01*
X0239841Y0430719D01*
X0238749Y0431811D01*
X0237323Y0432402D01*
X0235779Y0432402D01*
X0234352Y0431811D01*
X0233260Y0430719D01*
X0232670Y0429293D01*
X0232670Y0427749D01*
X0233260Y0426322D01*
X0234352Y0425230D01*
X0235379Y0424805D01*
X0235047Y0424668D01*
X0234104Y0423725D01*
X0233594Y0422494D01*
X0233594Y0421161D01*
X0233805Y0420652D01*
X0233057Y0420962D01*
X0231068Y0420962D01*
X0229230Y0420200D01*
X0227824Y0418794D01*
X0227062Y0416956D01*
X0226301Y0418794D01*
X0224895Y0420200D01*
X0223057Y0420962D01*
X0221068Y0420962D01*
X0219230Y0420200D01*
X0218574Y0419545D01*
X0218131Y0420615D01*
X0217188Y0421558D01*
X0215957Y0422068D01*
X0214624Y0422068D01*
X0213393Y0421558D01*
X0212451Y0420615D01*
X0211941Y0419384D01*
X0211941Y0418051D01*
X0212451Y0416820D01*
X0213393Y0415878D01*
X0214624Y0415368D01*
X0215957Y0415368D01*
X0217062Y0415825D01*
X0217062Y0414967D01*
X0217824Y0413129D01*
X0219230Y0411723D01*
X0221068Y0410962D01*
X0223282Y0411055D02*
X0230843Y0411055D01*
X0233282Y0411055D02*
X0240843Y0411055D01*
X0243282Y0411055D02*
X0250843Y0411055D01*
X0253282Y0411055D02*
X0260843Y0411055D01*
X0263282Y0411055D02*
X0270843Y0411055D01*
X0270734Y0410643D02*
X0270015Y0410410D01*
X0269342Y0410067D01*
X0268731Y0409623D01*
X0268196Y0409089D01*
X0267752Y0408477D01*
X0267409Y0407804D01*
X0267176Y0407086D01*
X0267058Y0406339D01*
X0267058Y0406162D01*
X0271658Y0406162D01*
X0271658Y0410762D01*
X0271480Y0410762D01*
X0270734Y0410643D01*
X0272058Y0410762D02*
X0272058Y0406162D01*
X0271658Y0406162D01*
X0271658Y0405762D01*
X0267058Y0405762D01*
X0267058Y0405584D01*
X0267176Y0404838D01*
X0267409Y0404119D01*
X0267752Y0403446D01*
X0268196Y0402835D01*
X0268731Y0402300D01*
X0269342Y0401856D01*
X0270015Y0401513D01*
X0270734Y0401280D01*
X0271480Y0401162D01*
X0271658Y0401162D01*
X0271658Y0405762D01*
X0272058Y0405762D01*
X0272058Y0406162D01*
X0276658Y0406162D01*
X0276658Y0406339D01*
X0276539Y0407086D01*
X0276306Y0407804D01*
X0275963Y0408477D01*
X0275519Y0409089D01*
X0274985Y0409623D01*
X0274373Y0410067D01*
X0273700Y0410410D01*
X0272982Y0410643D01*
X0272235Y0410762D01*
X0272058Y0410762D01*
X0273282Y0411055D02*
X0280843Y0411055D01*
X0280734Y0410643D02*
X0280015Y0410410D01*
X0279342Y0410067D01*
X0278731Y0409623D01*
X0278196Y0409089D01*
X0277752Y0408477D01*
X0277409Y0407804D01*
X0277176Y0407086D01*
X0277058Y0406339D01*
X0277058Y0406162D01*
X0281658Y0406162D01*
X0281658Y0410762D01*
X0281480Y0410762D01*
X0280734Y0410643D01*
X0282058Y0410762D02*
X0282058Y0406162D01*
X0281658Y0406162D01*
X0281658Y0405762D01*
X0277058Y0405762D01*
X0277058Y0405584D01*
X0277176Y0404838D01*
X0277409Y0404119D01*
X0277752Y0403446D01*
X0278196Y0402835D01*
X0278731Y0402300D01*
X0279342Y0401856D01*
X0280015Y0401513D01*
X0280734Y0401280D01*
X0281480Y0401162D01*
X0281658Y0401162D01*
X0281658Y0405762D01*
X0282058Y0405762D01*
X0282058Y0406162D01*
X0286658Y0406162D01*
X0286658Y0406339D01*
X0286539Y0407086D01*
X0286306Y0407804D01*
X0285963Y0408477D01*
X0285519Y0409089D01*
X0284985Y0409623D01*
X0284373Y0410067D01*
X0283700Y0410410D01*
X0282982Y0410643D01*
X0282235Y0410762D01*
X0282058Y0410762D01*
X0283282Y0411055D02*
X0290843Y0411055D01*
X0290734Y0410643D02*
X0290015Y0410410D01*
X0289342Y0410067D01*
X0288731Y0409623D01*
X0288196Y0409089D01*
X0287752Y0408477D01*
X0287409Y0407804D01*
X0287176Y0407086D01*
X0287058Y0406339D01*
X0287058Y0406162D01*
X0291658Y0406162D01*
X0291658Y0410762D01*
X0291480Y0410762D01*
X0290734Y0410643D01*
X0292058Y0410762D02*
X0292058Y0406162D01*
X0291658Y0406162D01*
X0291658Y0405762D01*
X0287058Y0405762D01*
X0287058Y0405584D01*
X0287176Y0404838D01*
X0287409Y0404119D01*
X0287752Y0403446D01*
X0288196Y0402835D01*
X0288731Y0402300D01*
X0289342Y0401856D01*
X0290015Y0401513D01*
X0290734Y0401280D01*
X0291480Y0401162D01*
X0291658Y0401162D01*
X0291658Y0405762D01*
X0292058Y0405762D01*
X0292058Y0406162D01*
X0296658Y0406162D01*
X0296658Y0406339D01*
X0296539Y0407086D01*
X0296306Y0407804D01*
X0295963Y0408477D01*
X0295519Y0409089D01*
X0294985Y0409623D01*
X0294373Y0410067D01*
X0293700Y0410410D01*
X0292982Y0410643D01*
X0292235Y0410762D01*
X0292058Y0410762D01*
X0293282Y0411055D02*
X0311128Y0411055D01*
X0311128Y0412653D02*
X0295825Y0412653D01*
X0296766Y0414252D02*
X0311128Y0414252D01*
X0311128Y0415850D02*
X0297062Y0415850D01*
X0296858Y0417449D02*
X0311128Y0417449D01*
X0311128Y0419047D02*
X0296048Y0419047D01*
X0293820Y0420646D02*
X0311128Y0420646D01*
X0311128Y0422244D02*
X0240294Y0422244D01*
X0240305Y0420646D02*
X0240081Y0420646D01*
X0237710Y0418519D02*
X0237062Y0416956D01*
X0236432Y0418478D01*
X0237611Y0418478D01*
X0237710Y0418519D01*
X0237266Y0417449D02*
X0236858Y0417449D01*
X0237062Y0415850D02*
X0237062Y0415850D01*
X0236766Y0414252D02*
X0237359Y0414252D01*
X0238300Y0412653D02*
X0235825Y0412653D01*
X0235434Y0409456D02*
X0238281Y0409456D01*
X0237231Y0407858D02*
X0236484Y0407858D01*
X0236858Y0406259D02*
X0236858Y0406259D01*
X0236731Y0404661D02*
X0236985Y0404661D01*
X0237686Y0403062D02*
X0236029Y0403062D01*
X0234064Y0401464D02*
X0239651Y0401464D01*
X0244064Y0401464D02*
X0249651Y0401464D01*
X0247686Y0403062D02*
X0246029Y0403062D01*
X0246731Y0404661D02*
X0246985Y0404661D01*
X0246858Y0406259D02*
X0246858Y0406259D01*
X0247231Y0407858D02*
X0246484Y0407858D01*
X0245434Y0409456D02*
X0248281Y0409456D01*
X0248300Y0412653D02*
X0245825Y0412653D01*
X0246766Y0414252D02*
X0247359Y0414252D01*
X0247062Y0415850D02*
X0247062Y0415850D01*
X0246858Y0417449D02*
X0247266Y0417449D01*
X0248077Y0419047D02*
X0246048Y0419047D01*
X0243820Y0420646D02*
X0250305Y0420646D01*
X0253820Y0420646D02*
X0260305Y0420646D01*
X0258077Y0419047D02*
X0256048Y0419047D01*
X0256858Y0417449D02*
X0257266Y0417449D01*
X0257062Y0415850D02*
X0257062Y0415850D01*
X0256766Y0414252D02*
X0257359Y0414252D01*
X0258300Y0412653D02*
X0255825Y0412653D01*
X0255434Y0409456D02*
X0258281Y0409456D01*
X0257231Y0407858D02*
X0256484Y0407858D01*
X0256858Y0406259D02*
X0256858Y0406259D01*
X0256731Y0404661D02*
X0256985Y0404661D01*
X0257686Y0403062D02*
X0256029Y0403062D01*
X0254064Y0401464D02*
X0259651Y0401464D01*
X0264064Y0401464D02*
X0270168Y0401464D01*
X0271658Y0401464D02*
X0272058Y0401464D01*
X0272058Y0401162D02*
X0272235Y0401162D01*
X0272982Y0401280D01*
X0273700Y0401513D01*
X0274373Y0401856D01*
X0274985Y0402300D01*
X0275519Y0402835D01*
X0275963Y0403446D01*
X0276306Y0404119D01*
X0276539Y0404838D01*
X0276658Y0405584D01*
X0276658Y0405762D01*
X0272058Y0405762D01*
X0272058Y0401162D01*
X0273547Y0401464D02*
X0280168Y0401464D01*
X0281658Y0401464D02*
X0282058Y0401464D01*
X0282058Y0401162D02*
X0282235Y0401162D01*
X0282982Y0401280D01*
X0283700Y0401513D01*
X0284373Y0401856D01*
X0284985Y0402300D01*
X0285519Y0402835D01*
X0285963Y0403446D01*
X0286306Y0404119D01*
X0286539Y0404838D01*
X0286658Y0405584D01*
X0286658Y0405762D01*
X0282058Y0405762D01*
X0282058Y0401162D01*
X0283547Y0401464D02*
X0290168Y0401464D01*
X0291658Y0401464D02*
X0292058Y0401464D01*
X0292058Y0401162D02*
X0292235Y0401162D01*
X0292982Y0401280D01*
X0293700Y0401513D01*
X0294373Y0401856D01*
X0294985Y0402300D01*
X0295519Y0402835D01*
X0295963Y0403446D01*
X0296306Y0404119D01*
X0296539Y0404838D01*
X0296658Y0405584D01*
X0296658Y0405762D01*
X0292058Y0405762D01*
X0292058Y0401162D01*
X0293547Y0401464D02*
X0303181Y0401464D01*
X0303551Y0401833D02*
X0302608Y0400891D01*
X0302098Y0399660D01*
X0302098Y0398327D01*
X0302608Y0397096D01*
X0303551Y0396153D01*
X0304782Y0395643D01*
X0306115Y0395643D01*
X0307346Y0396153D01*
X0308288Y0397096D01*
X0308798Y0398327D01*
X0308798Y0399660D01*
X0308288Y0400891D01*
X0307346Y0401833D01*
X0306115Y0402343D01*
X0304782Y0402343D01*
X0303551Y0401833D01*
X0302183Y0399865D02*
X0072328Y0399865D01*
X0072328Y0398267D02*
X0148933Y0398267D01*
X0149270Y0398406D02*
X0148039Y0397896D01*
X0147096Y0396954D01*
X0146586Y0395723D01*
X0146586Y0394390D01*
X0147096Y0393159D01*
X0148039Y0392216D01*
X0149270Y0391706D01*
X0150603Y0391706D01*
X0151834Y0392216D01*
X0152776Y0393159D01*
X0153286Y0394390D01*
X0153286Y0395723D01*
X0152776Y0396954D01*
X0151834Y0397896D01*
X0150603Y0398406D01*
X0149270Y0398406D01*
X0150940Y0398267D02*
X0302123Y0398267D01*
X0303036Y0396668D02*
X0152895Y0396668D01*
X0153286Y0395070D02*
X0311128Y0395070D01*
X0311128Y0396668D02*
X0307861Y0396668D01*
X0308773Y0398267D02*
X0311128Y0398267D01*
X0311128Y0399865D02*
X0308713Y0399865D01*
X0307715Y0401464D02*
X0311128Y0401464D01*
X0311128Y0403062D02*
X0295684Y0403062D01*
X0296482Y0404661D02*
X0311128Y0404661D01*
X0311128Y0406259D02*
X0296658Y0406259D01*
X0296279Y0407858D02*
X0311128Y0407858D01*
X0311128Y0409456D02*
X0295151Y0409456D01*
X0292058Y0409456D02*
X0291658Y0409456D01*
X0291658Y0407858D02*
X0292058Y0407858D01*
X0292058Y0406259D02*
X0291658Y0406259D01*
X0291658Y0404661D02*
X0292058Y0404661D01*
X0292058Y0403062D02*
X0291658Y0403062D01*
X0288031Y0403062D02*
X0285684Y0403062D01*
X0286482Y0404661D02*
X0287233Y0404661D01*
X0287058Y0406259D02*
X0286658Y0406259D01*
X0286279Y0407858D02*
X0287437Y0407858D01*
X0288564Y0409456D02*
X0285151Y0409456D01*
X0282058Y0409456D02*
X0281658Y0409456D01*
X0281658Y0407858D02*
X0282058Y0407858D01*
X0282058Y0406259D02*
X0281658Y0406259D01*
X0281658Y0404661D02*
X0282058Y0404661D01*
X0282058Y0403062D02*
X0281658Y0403062D01*
X0278031Y0403062D02*
X0275684Y0403062D01*
X0276482Y0404661D02*
X0277233Y0404661D01*
X0277058Y0406259D02*
X0276658Y0406259D01*
X0276279Y0407858D02*
X0277437Y0407858D01*
X0278564Y0409456D02*
X0275151Y0409456D01*
X0272058Y0409456D02*
X0271658Y0409456D01*
X0271658Y0407858D02*
X0272058Y0407858D01*
X0272058Y0406259D02*
X0271658Y0406259D01*
X0271658Y0404661D02*
X0272058Y0404661D01*
X0272058Y0403062D02*
X0271658Y0403062D01*
X0268031Y0403062D02*
X0266029Y0403062D01*
X0266731Y0404661D02*
X0267233Y0404661D01*
X0267058Y0406259D02*
X0266858Y0406259D01*
X0266484Y0407858D02*
X0267437Y0407858D01*
X0268564Y0409456D02*
X0265434Y0409456D01*
X0265825Y0412653D02*
X0268300Y0412653D01*
X0267359Y0414252D02*
X0266766Y0414252D01*
X0267062Y0415850D02*
X0267062Y0415850D01*
X0266858Y0417449D02*
X0267266Y0417449D01*
X0268077Y0419047D02*
X0266048Y0419047D01*
X0263820Y0420646D02*
X0270305Y0420646D01*
X0273820Y0420646D02*
X0280305Y0420646D01*
X0278077Y0419047D02*
X0276048Y0419047D01*
X0276858Y0417449D02*
X0277266Y0417449D01*
X0277062Y0415850D02*
X0277062Y0415850D01*
X0276766Y0414252D02*
X0277359Y0414252D01*
X0278300Y0412653D02*
X0275825Y0412653D01*
X0285825Y0412653D02*
X0288300Y0412653D01*
X0287359Y0414252D02*
X0286766Y0414252D01*
X0287062Y0415850D02*
X0287062Y0415850D01*
X0286858Y0417449D02*
X0287266Y0417449D01*
X0288077Y0419047D02*
X0286048Y0419047D01*
X0283820Y0420646D02*
X0290305Y0420646D01*
X0288355Y0425270D02*
X0289447Y0426362D01*
X0290038Y0427788D01*
X0290038Y0429332D01*
X0289447Y0430759D01*
X0288355Y0431850D01*
X0286929Y0432441D01*
X0285385Y0432441D01*
X0283958Y0431850D01*
X0282867Y0430759D01*
X0282276Y0429332D01*
X0282276Y0427788D01*
X0282867Y0426362D01*
X0283958Y0425270D01*
X0285385Y0424679D01*
X0286929Y0424679D01*
X0288355Y0425270D01*
X0288527Y0425441D02*
X0295598Y0425441D01*
X0295769Y0425270D02*
X0294678Y0426362D01*
X0294087Y0427788D01*
X0294087Y0429332D01*
X0294678Y0430759D01*
X0295769Y0431850D01*
X0297196Y0432441D01*
X0298740Y0432441D01*
X0300166Y0431850D01*
X0301258Y0430759D01*
X0301849Y0429332D01*
X0301849Y0427788D01*
X0301258Y0426362D01*
X0300166Y0425270D01*
X0298740Y0424679D01*
X0297196Y0424679D01*
X0295769Y0425270D01*
X0294397Y0427040D02*
X0289728Y0427040D01*
X0290038Y0428638D02*
X0294087Y0428638D01*
X0294462Y0430237D02*
X0289663Y0430237D01*
X0288370Y0431835D02*
X0295754Y0431835D01*
X0300181Y0431835D02*
X0311128Y0431835D01*
X0311128Y0430237D02*
X0301474Y0430237D01*
X0301849Y0428638D02*
X0311128Y0428638D01*
X0311128Y0427040D02*
X0301539Y0427040D01*
X0300338Y0425441D02*
X0311128Y0425441D01*
X0311128Y0423843D02*
X0239667Y0423843D01*
X0238960Y0425441D02*
X0283787Y0425441D01*
X0282586Y0427040D02*
X0240138Y0427040D01*
X0240432Y0428638D02*
X0282276Y0428638D01*
X0282651Y0430237D02*
X0240041Y0430237D01*
X0238690Y0431835D02*
X0283943Y0431835D01*
X0291664Y0449419D02*
X0294253Y0449419D01*
X0293486Y0451017D02*
X0295252Y0451017D01*
X0265633Y0449419D02*
X0233764Y0449419D01*
X0228313Y0449419D02*
X0216458Y0449419D01*
X0218277Y0447820D02*
X0264115Y0447820D01*
X0263507Y0446222D02*
X0218641Y0446222D01*
X0218232Y0444623D02*
X0263507Y0444623D01*
X0234411Y0431835D02*
X0225491Y0431835D01*
X0225406Y0431871D02*
X0224073Y0431871D01*
X0222842Y0431361D01*
X0221900Y0430418D01*
X0221390Y0429187D01*
X0221390Y0427854D01*
X0221900Y0426623D01*
X0222842Y0425681D01*
X0224073Y0425171D01*
X0225406Y0425171D01*
X0226637Y0425681D01*
X0227580Y0426623D01*
X0228090Y0427854D01*
X0228090Y0429187D01*
X0227580Y0430418D01*
X0226637Y0431361D01*
X0225406Y0431871D01*
X0223988Y0431835D02*
X0212201Y0431835D01*
X0212020Y0431910D02*
X0210687Y0431910D01*
X0209456Y0431400D01*
X0208514Y0430458D01*
X0208004Y0429226D01*
X0208004Y0427894D01*
X0208514Y0426662D01*
X0209456Y0425720D01*
X0210687Y0425210D01*
X0212020Y0425210D01*
X0213251Y0425720D01*
X0214194Y0426662D01*
X0214704Y0427894D01*
X0214704Y0429226D01*
X0214194Y0430458D01*
X0213251Y0431400D01*
X0212020Y0431910D01*
X0210507Y0431835D02*
X0191453Y0431835D01*
X0192521Y0433434D02*
X0215749Y0433434D01*
X0214214Y0435032D02*
X0192656Y0435032D01*
X0191839Y0436631D02*
X0213909Y0436631D01*
X0214377Y0438229D02*
X0192296Y0438229D01*
X0193050Y0439828D02*
X0195348Y0439828D01*
X0194326Y0441426D02*
X0192889Y0441426D01*
X0191784Y0443025D02*
X0194232Y0443025D01*
X0195120Y0444623D02*
X0185570Y0444623D01*
X0185314Y0443025D02*
X0187616Y0443025D01*
X0185044Y0446222D02*
X0200529Y0446222D01*
X0200130Y0447820D02*
X0156596Y0447820D01*
X0155666Y0449419D02*
X0200503Y0449419D01*
X0202369Y0451017D02*
X0186953Y0451017D01*
X0184882Y0457412D02*
X0176045Y0457412D01*
X0188511Y0430237D02*
X0208422Y0430237D01*
X0208004Y0428638D02*
X0186913Y0428638D01*
X0185314Y0427040D02*
X0208357Y0427040D01*
X0210129Y0425441D02*
X0183716Y0425441D01*
X0183439Y0423843D02*
X0234222Y0423843D01*
X0234141Y0425441D02*
X0226059Y0425441D01*
X0227752Y0427040D02*
X0232963Y0427040D01*
X0232670Y0428638D02*
X0228090Y0428638D01*
X0227655Y0430237D02*
X0233061Y0430237D01*
X0233594Y0422244D02*
X0183439Y0422244D01*
X0183439Y0420646D02*
X0184305Y0420646D01*
X0187820Y0420646D02*
X0194305Y0420646D01*
X0192077Y0419047D02*
X0190048Y0419047D01*
X0190858Y0417449D02*
X0191266Y0417449D01*
X0191062Y0415850D02*
X0191062Y0415850D01*
X0190766Y0414252D02*
X0191359Y0414252D01*
X0192300Y0412653D02*
X0189825Y0412653D01*
X0189458Y0409456D02*
X0192305Y0409456D01*
X0191255Y0407858D02*
X0190508Y0407858D01*
X0190881Y0406259D02*
X0190881Y0406259D01*
X0190754Y0404661D02*
X0191008Y0404661D01*
X0191710Y0403062D02*
X0190053Y0403062D01*
X0188088Y0401464D02*
X0193675Y0401464D01*
X0198088Y0401464D02*
X0203675Y0401464D01*
X0201710Y0403062D02*
X0200053Y0403062D01*
X0200754Y0404661D02*
X0201008Y0404661D01*
X0200881Y0406259D02*
X0200881Y0406259D01*
X0200508Y0407858D02*
X0201255Y0407858D01*
X0202305Y0409456D02*
X0199458Y0409456D01*
X0199825Y0412653D02*
X0202300Y0412653D01*
X0201359Y0414252D02*
X0200766Y0414252D01*
X0201062Y0415850D02*
X0201062Y0415850D01*
X0200858Y0417449D02*
X0201266Y0417449D01*
X0202077Y0419047D02*
X0200048Y0419047D01*
X0197820Y0420646D02*
X0204305Y0420646D01*
X0207820Y0420646D02*
X0212481Y0420646D01*
X0211941Y0419047D02*
X0210048Y0419047D01*
X0210858Y0417449D02*
X0212190Y0417449D01*
X0211062Y0415850D02*
X0213459Y0415850D01*
X0210766Y0414252D02*
X0217359Y0414252D01*
X0218300Y0412653D02*
X0209825Y0412653D01*
X0209458Y0409456D02*
X0218281Y0409456D01*
X0217231Y0407858D02*
X0210508Y0407858D01*
X0210881Y0406259D02*
X0216858Y0406259D01*
X0216985Y0404661D02*
X0210754Y0404661D01*
X0210053Y0403062D02*
X0217686Y0403062D01*
X0219651Y0401464D02*
X0208088Y0401464D01*
X0224064Y0401464D02*
X0229651Y0401464D01*
X0227686Y0403062D02*
X0226029Y0403062D01*
X0226731Y0404661D02*
X0226985Y0404661D01*
X0226858Y0406259D02*
X0226858Y0406259D01*
X0227231Y0407858D02*
X0226484Y0407858D01*
X0225434Y0409456D02*
X0228281Y0409456D01*
X0228300Y0412653D02*
X0225825Y0412653D01*
X0226766Y0414252D02*
X0227359Y0414252D01*
X0227062Y0415850D02*
X0227062Y0415850D01*
X0226858Y0417449D02*
X0227266Y0417449D01*
X0228077Y0419047D02*
X0226048Y0419047D01*
X0223820Y0420646D02*
X0230305Y0420646D01*
X0223420Y0425441D02*
X0212578Y0425441D01*
X0214350Y0427040D02*
X0221727Y0427040D01*
X0221390Y0428638D02*
X0214704Y0428638D01*
X0214285Y0430237D02*
X0221824Y0430237D01*
X0220305Y0420646D02*
X0218100Y0420646D01*
X0183675Y0401464D02*
X0178088Y0401464D01*
X0180053Y0403062D02*
X0181710Y0403062D01*
X0181008Y0404661D02*
X0180754Y0404661D01*
X0180881Y0406259D02*
X0180881Y0406259D01*
X0173675Y0401464D02*
X0168088Y0401464D01*
X0170053Y0403062D02*
X0171710Y0403062D01*
X0171008Y0404661D02*
X0170754Y0404661D01*
X0170881Y0406259D02*
X0170881Y0406259D01*
X0170508Y0407858D02*
X0171255Y0407858D01*
X0172305Y0409456D02*
X0169458Y0409456D01*
X0164843Y0411055D02*
X0157282Y0411055D01*
X0154843Y0411055D02*
X0137282Y0411055D01*
X0137057Y0410962D02*
X0138895Y0411723D01*
X0140301Y0413129D01*
X0141062Y0414967D01*
X0141062Y0416956D01*
X0140301Y0418794D01*
X0138895Y0420200D01*
X0137057Y0420962D01*
X0135068Y0420962D01*
X0133230Y0420200D01*
X0131824Y0418794D01*
X0131062Y0416956D01*
X0130301Y0418794D01*
X0128895Y0420200D01*
X0127057Y0420962D01*
X0125068Y0420962D01*
X0123230Y0420200D01*
X0121824Y0418794D01*
X0121062Y0416956D01*
X0121062Y0414967D01*
X0120301Y0413129D01*
X0118895Y0411723D01*
X0117057Y0410962D01*
X0115068Y0410962D01*
X0113230Y0411723D01*
X0111824Y0413129D01*
X0111062Y0414967D01*
X0111062Y0416956D01*
X0111824Y0418794D01*
X0113230Y0420200D01*
X0115068Y0420962D01*
X0117057Y0420962D01*
X0118895Y0420200D01*
X0120301Y0418794D01*
X0121062Y0416956D01*
X0121062Y0414967D01*
X0121824Y0413129D01*
X0123230Y0411723D01*
X0125068Y0410962D01*
X0127057Y0410962D01*
X0128895Y0411723D01*
X0130301Y0413129D01*
X0131062Y0414967D01*
X0131062Y0416956D01*
X0131062Y0414967D01*
X0131824Y0413129D01*
X0133230Y0411723D01*
X0135068Y0410962D01*
X0137057Y0410962D01*
X0134843Y0411055D02*
X0127282Y0411055D01*
X0124843Y0411055D02*
X0117282Y0411055D01*
X0117005Y0410643D02*
X0116259Y0410762D01*
X0116081Y0410762D01*
X0116081Y0406162D01*
X0115681Y0406162D01*
X0115681Y0410762D01*
X0115504Y0410762D01*
X0114757Y0410643D01*
X0114039Y0410410D01*
X0113366Y0410067D01*
X0112754Y0409623D01*
X0112220Y0409089D01*
X0111776Y0408477D01*
X0111433Y0407804D01*
X0111200Y0407086D01*
X0111081Y0406339D01*
X0111081Y0406162D01*
X0115681Y0406162D01*
X0115681Y0405762D01*
X0111081Y0405762D01*
X0111081Y0405584D01*
X0111200Y0404838D01*
X0111433Y0404119D01*
X0111776Y0403446D01*
X0112220Y0402835D01*
X0112754Y0402300D01*
X0113366Y0401856D01*
X0114039Y0401513D01*
X0114757Y0401280D01*
X0115504Y0401162D01*
X0115681Y0401162D01*
X0115681Y0405762D01*
X0116081Y0405762D01*
X0116081Y0406162D01*
X0120681Y0406162D01*
X0120681Y0406339D01*
X0120563Y0407086D01*
X0120330Y0407804D01*
X0119987Y0408477D01*
X0119543Y0409089D01*
X0119008Y0409623D01*
X0118397Y0410067D01*
X0117724Y0410410D01*
X0117005Y0410643D01*
X0116081Y0409456D02*
X0115681Y0409456D01*
X0115681Y0407858D02*
X0116081Y0407858D01*
X0116081Y0406259D02*
X0115681Y0406259D01*
X0116081Y0405762D02*
X0116081Y0401162D01*
X0116259Y0401162D01*
X0117005Y0401280D01*
X0117724Y0401513D01*
X0118397Y0401856D01*
X0119008Y0402300D01*
X0119543Y0402835D01*
X0119987Y0403446D01*
X0120330Y0404119D01*
X0120563Y0404838D01*
X0120681Y0405584D01*
X0120681Y0405762D01*
X0116081Y0405762D01*
X0116081Y0404661D02*
X0115681Y0404661D01*
X0115681Y0403062D02*
X0116081Y0403062D01*
X0116081Y0401464D02*
X0115681Y0401464D01*
X0114192Y0401464D02*
X0072328Y0401464D01*
X0072328Y0403062D02*
X0112055Y0403062D01*
X0111257Y0404661D02*
X0072328Y0404661D01*
X0072328Y0406259D02*
X0111081Y0406259D01*
X0111460Y0407858D02*
X0072328Y0407858D01*
X0072328Y0409456D02*
X0112588Y0409456D01*
X0114843Y0411055D02*
X0106291Y0411055D01*
X0106125Y0410889D02*
X0107068Y0411831D01*
X0107578Y0413062D01*
X0107578Y0414395D01*
X0107068Y0415626D01*
X0106125Y0416569D01*
X0104894Y0417079D01*
X0103561Y0417079D01*
X0102330Y0416569D01*
X0101388Y0415626D01*
X0100878Y0414395D01*
X0100878Y0413062D01*
X0101388Y0411831D01*
X0102330Y0410889D01*
X0103561Y0410379D01*
X0104894Y0410379D01*
X0106125Y0410889D01*
X0107408Y0412653D02*
X0112300Y0412653D01*
X0111359Y0414252D02*
X0107578Y0414252D01*
X0106844Y0415850D02*
X0111062Y0415850D01*
X0111266Y0417449D02*
X0072328Y0417449D01*
X0072328Y0419047D02*
X0112077Y0419047D01*
X0114305Y0420646D02*
X0072328Y0420646D01*
X0072328Y0422244D02*
X0178639Y0422244D01*
X0178639Y0420646D02*
X0177820Y0420646D01*
X0178639Y0423843D02*
X0072328Y0423843D01*
X0072328Y0425441D02*
X0178639Y0425441D01*
X0164305Y0420646D02*
X0157820Y0420646D01*
X0160048Y0419047D02*
X0162077Y0419047D01*
X0161266Y0417449D02*
X0160858Y0417449D01*
X0161062Y0415850D02*
X0161062Y0415850D01*
X0160766Y0414252D02*
X0161359Y0414252D01*
X0162300Y0412653D02*
X0159825Y0412653D01*
X0159458Y0409456D02*
X0162305Y0409456D01*
X0161255Y0407858D02*
X0160508Y0407858D01*
X0160881Y0406259D02*
X0160881Y0406259D01*
X0160754Y0404661D02*
X0161008Y0404661D01*
X0161710Y0403062D02*
X0160053Y0403062D01*
X0158088Y0401464D02*
X0163675Y0401464D01*
X0153675Y0401464D02*
X0148088Y0401464D01*
X0150053Y0403062D02*
X0151710Y0403062D01*
X0151008Y0404661D02*
X0150754Y0404661D01*
X0150881Y0406259D02*
X0150881Y0406259D01*
X0150508Y0407858D02*
X0151255Y0407858D01*
X0152305Y0409456D02*
X0149458Y0409456D01*
X0148578Y0411856D02*
X0149189Y0412300D01*
X0149724Y0412835D01*
X0150168Y0413446D01*
X0150511Y0414119D01*
X0150744Y0414838D01*
X0150862Y0415584D01*
X0150862Y0415762D01*
X0146262Y0415762D01*
X0146262Y0411162D01*
X0146440Y0411162D01*
X0147186Y0411280D01*
X0147905Y0411513D01*
X0148578Y0411856D01*
X0149542Y0412653D02*
X0152300Y0412653D01*
X0151359Y0414252D02*
X0150554Y0414252D01*
X0151062Y0415850D02*
X0146262Y0415850D01*
X0146262Y0415762D02*
X0146262Y0416162D01*
X0145862Y0416162D01*
X0145862Y0415762D01*
X0141262Y0415762D01*
X0141262Y0415584D01*
X0141381Y0414838D01*
X0141614Y0414119D01*
X0141957Y0413446D01*
X0142401Y0412835D01*
X0142935Y0412300D01*
X0143547Y0411856D01*
X0144220Y0411513D01*
X0144938Y0411280D01*
X0145685Y0411162D01*
X0145862Y0411162D01*
X0145862Y0415762D01*
X0146262Y0415762D01*
X0146262Y0416162D02*
X0150862Y0416162D01*
X0150862Y0416339D01*
X0150744Y0417086D01*
X0150511Y0417804D01*
X0150168Y0418477D01*
X0149724Y0419089D01*
X0149189Y0419623D01*
X0148578Y0420067D01*
X0147905Y0420410D01*
X0147186Y0420643D01*
X0146440Y0420762D01*
X0146262Y0420762D01*
X0146262Y0416162D01*
X0145862Y0416162D02*
X0145862Y0420762D01*
X0145685Y0420762D01*
X0144938Y0420643D01*
X0144220Y0420410D01*
X0143547Y0420067D01*
X0142935Y0419623D01*
X0142401Y0419089D01*
X0141957Y0418477D01*
X0141614Y0417804D01*
X0141381Y0417086D01*
X0141262Y0416339D01*
X0141262Y0416162D01*
X0145862Y0416162D01*
X0145862Y0415850D02*
X0141062Y0415850D01*
X0140858Y0417449D02*
X0141499Y0417449D01*
X0142371Y0419047D02*
X0140048Y0419047D01*
X0137820Y0420646D02*
X0144953Y0420646D01*
X0145862Y0420646D02*
X0146262Y0420646D01*
X0147172Y0420646D02*
X0154305Y0420646D01*
X0152077Y0419047D02*
X0149754Y0419047D01*
X0150626Y0417449D02*
X0151266Y0417449D01*
X0146262Y0417449D02*
X0145862Y0417449D01*
X0145862Y0419047D02*
X0146262Y0419047D01*
X0146262Y0414252D02*
X0145862Y0414252D01*
X0145862Y0412653D02*
X0146262Y0412653D01*
X0142583Y0412653D02*
X0139825Y0412653D01*
X0140766Y0414252D02*
X0141571Y0414252D01*
X0142305Y0409456D02*
X0139458Y0409456D01*
X0140508Y0407858D02*
X0141255Y0407858D01*
X0140881Y0406259D02*
X0140881Y0406259D01*
X0140754Y0404661D02*
X0141008Y0404661D01*
X0141710Y0403062D02*
X0140053Y0403062D01*
X0138088Y0401464D02*
X0143675Y0401464D01*
X0146978Y0396668D02*
X0072328Y0396668D01*
X0072328Y0395070D02*
X0109779Y0395070D01*
X0109695Y0394985D02*
X0109185Y0393754D01*
X0109185Y0392421D01*
X0109695Y0391190D01*
X0110637Y0390248D01*
X0111868Y0389738D01*
X0113201Y0389738D01*
X0114432Y0390248D01*
X0115375Y0391190D01*
X0115885Y0392421D01*
X0115885Y0393754D01*
X0115375Y0394985D01*
X0114432Y0395928D01*
X0113201Y0396438D01*
X0111868Y0396438D01*
X0110637Y0395928D01*
X0109695Y0394985D01*
X0109185Y0393471D02*
X0072328Y0393471D01*
X0072328Y0391873D02*
X0109412Y0391873D01*
X0110611Y0390274D02*
X0072328Y0390274D01*
X0072328Y0388676D02*
X0118115Y0388676D01*
X0118511Y0388279D02*
X0118784Y0388166D01*
X0118511Y0388054D01*
X0117569Y0387111D01*
X0117059Y0385880D01*
X0117059Y0384547D01*
X0117569Y0383316D01*
X0118511Y0382374D01*
X0119743Y0381864D01*
X0121075Y0381864D01*
X0122306Y0382374D01*
X0123249Y0383316D01*
X0123759Y0384547D01*
X0123759Y0385880D01*
X0123249Y0387111D01*
X0122306Y0388054D01*
X0122034Y0388166D01*
X0122306Y0388279D01*
X0123249Y0389222D01*
X0123759Y0390453D01*
X0123759Y0391786D01*
X0123249Y0393017D01*
X0122306Y0393959D01*
X0121075Y0394469D01*
X0119743Y0394469D01*
X0118511Y0393959D01*
X0117569Y0393017D01*
X0117059Y0391786D01*
X0117059Y0390453D01*
X0117569Y0389222D01*
X0118511Y0388279D01*
X0117555Y0387077D02*
X0072328Y0387077D01*
X0072328Y0385479D02*
X0117059Y0385479D01*
X0117335Y0383880D02*
X0072328Y0383880D01*
X0072328Y0382281D02*
X0118734Y0382281D01*
X0122084Y0382281D02*
X0130979Y0382281D01*
X0130838Y0381943D02*
X0130838Y0380610D01*
X0131348Y0379379D01*
X0132291Y0378437D01*
X0133522Y0377927D01*
X0134855Y0377927D01*
X0136086Y0378437D01*
X0137028Y0379379D01*
X0137538Y0380610D01*
X0137538Y0381943D01*
X0137028Y0383174D01*
X0136086Y0384117D01*
X0134855Y0384627D01*
X0134402Y0384627D01*
X0135060Y0385285D01*
X0135570Y0386516D01*
X0135570Y0387848D01*
X0135060Y0389080D01*
X0134118Y0390022D01*
X0132886Y0390532D01*
X0131554Y0390532D01*
X0130322Y0390022D01*
X0129380Y0389080D01*
X0128870Y0387848D01*
X0128870Y0386516D01*
X0129380Y0385285D01*
X0130322Y0384342D01*
X0131554Y0383832D01*
X0132006Y0383832D01*
X0131348Y0383174D01*
X0130838Y0381943D01*
X0130838Y0380683D02*
X0072328Y0380683D01*
X0072328Y0379084D02*
X0079862Y0379084D01*
X0080267Y0379252D02*
X0078840Y0378661D01*
X0077749Y0377570D01*
X0077158Y0376143D01*
X0077158Y0374599D01*
X0077749Y0373173D01*
X0078840Y0372081D01*
X0080267Y0371490D01*
X0081811Y0371490D01*
X0083237Y0372081D01*
X0084329Y0373173D01*
X0084920Y0374599D01*
X0084920Y0376143D01*
X0084329Y0377570D01*
X0083237Y0378661D01*
X0081811Y0379252D01*
X0080267Y0379252D01*
X0082216Y0379084D02*
X0131643Y0379084D01*
X0131438Y0383880D02*
X0123482Y0383880D01*
X0123759Y0385479D02*
X0129300Y0385479D01*
X0128870Y0387077D02*
X0123263Y0387077D01*
X0122703Y0388676D02*
X0129212Y0388676D01*
X0130930Y0390274D02*
X0123685Y0390274D01*
X0123723Y0391873D02*
X0148868Y0391873D01*
X0151004Y0391873D02*
X0301066Y0391873D01*
X0301632Y0392107D02*
X0300401Y0391597D01*
X0299459Y0390655D01*
X0298949Y0389423D01*
X0298949Y0388091D01*
X0299459Y0386859D01*
X0300401Y0385917D01*
X0301632Y0385407D01*
X0302965Y0385407D01*
X0304196Y0385917D01*
X0305139Y0386859D01*
X0305649Y0388091D01*
X0305649Y0389423D01*
X0305139Y0390655D01*
X0304196Y0391597D01*
X0302965Y0392107D01*
X0301632Y0392107D01*
X0303531Y0391873D02*
X0311128Y0391873D01*
X0311128Y0393471D02*
X0152906Y0393471D01*
X0146967Y0393471D02*
X0122795Y0393471D01*
X0118023Y0393471D02*
X0115885Y0393471D01*
X0115658Y0391873D02*
X0117095Y0391873D01*
X0117133Y0390274D02*
X0114459Y0390274D01*
X0115291Y0395070D02*
X0146586Y0395070D01*
X0141992Y0390810D02*
X0140760Y0391320D01*
X0139428Y0391320D01*
X0138196Y0390810D01*
X0137254Y0389867D01*
X0136744Y0388636D01*
X0136744Y0387303D01*
X0137254Y0386072D01*
X0138196Y0385130D01*
X0139428Y0384620D01*
X0140760Y0384620D01*
X0141992Y0385130D01*
X0142934Y0386072D01*
X0143444Y0387303D01*
X0143444Y0388636D01*
X0142934Y0389867D01*
X0141992Y0390810D01*
X0142527Y0390274D02*
X0285655Y0390274D01*
X0285047Y0390022D02*
X0284104Y0389080D01*
X0283594Y0387848D01*
X0283594Y0386516D01*
X0284104Y0385285D01*
X0285047Y0384342D01*
X0286278Y0383832D01*
X0287611Y0383832D01*
X0288842Y0384342D01*
X0289784Y0385285D01*
X0290294Y0386516D01*
X0290294Y0387848D01*
X0289784Y0389080D01*
X0288842Y0390022D01*
X0287611Y0390532D01*
X0286278Y0390532D01*
X0285047Y0390022D01*
X0283937Y0388676D02*
X0143427Y0388676D01*
X0143350Y0387077D02*
X0167102Y0387077D01*
X0167133Y0387109D02*
X0166191Y0386166D01*
X0165681Y0384935D01*
X0165681Y0383602D01*
X0166191Y0382371D01*
X0167133Y0381429D01*
X0168365Y0380919D01*
X0169697Y0380919D01*
X0170929Y0381429D01*
X0171871Y0382371D01*
X0172381Y0383602D01*
X0172381Y0384935D01*
X0171871Y0386166D01*
X0170929Y0387109D01*
X0169697Y0387619D01*
X0168365Y0387619D01*
X0167133Y0387109D01*
X0165906Y0385479D02*
X0142340Y0385479D01*
X0137847Y0385479D02*
X0135140Y0385479D01*
X0135570Y0387077D02*
X0136838Y0387077D01*
X0136760Y0388676D02*
X0135227Y0388676D01*
X0133509Y0390274D02*
X0137661Y0390274D01*
X0136323Y0383880D02*
X0165681Y0383880D01*
X0166281Y0382281D02*
X0137398Y0382281D01*
X0137538Y0380683D02*
X0311128Y0380683D01*
X0311128Y0382281D02*
X0171781Y0382281D01*
X0172381Y0383880D02*
X0286162Y0383880D01*
X0287726Y0383880D02*
X0311128Y0383880D01*
X0311128Y0385479D02*
X0303138Y0385479D01*
X0301460Y0385479D02*
X0289865Y0385479D01*
X0290294Y0387077D02*
X0299368Y0387077D01*
X0298949Y0388676D02*
X0289952Y0388676D01*
X0288234Y0390274D02*
X0299301Y0390274D01*
X0305296Y0390274D02*
X0311128Y0390274D01*
X0311128Y0388676D02*
X0305649Y0388676D01*
X0305229Y0387077D02*
X0311128Y0387077D01*
X0311128Y0379084D02*
X0136734Y0379084D01*
X0132886Y0362973D02*
X0131554Y0362973D01*
X0130322Y0362463D01*
X0129380Y0361521D01*
X0128870Y0360289D01*
X0128870Y0359036D01*
X0127696Y0359036D01*
X0127696Y0360289D01*
X0127186Y0361521D01*
X0126243Y0362463D01*
X0125012Y0362973D01*
X0123680Y0362973D01*
X0122448Y0362463D01*
X0121506Y0361521D01*
X0120996Y0360289D01*
X0120996Y0359036D01*
X0119743Y0359036D01*
X0118511Y0358526D01*
X0117569Y0357584D01*
X0117059Y0356352D01*
X0117059Y0355020D01*
X0117569Y0353788D01*
X0118511Y0352846D01*
X0119743Y0352336D01*
X0121075Y0352336D01*
X0122306Y0352846D01*
X0123249Y0353788D01*
X0123759Y0355020D01*
X0123759Y0356273D01*
X0124933Y0356273D01*
X0124933Y0355020D01*
X0125443Y0353788D01*
X0126385Y0352846D01*
X0127617Y0352336D01*
X0128949Y0352336D01*
X0130180Y0352846D01*
X0131123Y0353788D01*
X0131633Y0355020D01*
X0131633Y0356273D01*
X0132886Y0356273D01*
X0134118Y0356783D01*
X0135060Y0357725D01*
X0135570Y0358957D01*
X0135570Y0360289D01*
X0135060Y0361521D01*
X0134118Y0362463D01*
X0132886Y0362973D01*
X0135068Y0361501D02*
X0178082Y0361501D01*
X0178082Y0360925D02*
X0178592Y0359694D01*
X0179535Y0358752D01*
X0180766Y0358242D01*
X0182099Y0358242D01*
X0183330Y0358752D01*
X0184272Y0359694D01*
X0184782Y0360925D01*
X0184782Y0362258D01*
X0184272Y0363489D01*
X0183330Y0364432D01*
X0182099Y0364942D01*
X0180766Y0364942D01*
X0179535Y0364432D01*
X0178592Y0363489D01*
X0178082Y0362258D01*
X0178082Y0360925D01*
X0178506Y0359902D02*
X0135570Y0359902D01*
X0135299Y0358304D02*
X0180616Y0358304D01*
X0182249Y0358304D02*
X0290852Y0358304D01*
X0291002Y0358242D02*
X0292335Y0358242D01*
X0293566Y0358752D01*
X0294509Y0359694D01*
X0295019Y0360925D01*
X0295019Y0362258D01*
X0294509Y0363489D01*
X0293566Y0364432D01*
X0292335Y0364942D01*
X0291002Y0364942D01*
X0289771Y0364432D01*
X0288829Y0363489D01*
X0288319Y0362258D01*
X0288319Y0360925D01*
X0288829Y0359694D01*
X0289771Y0358752D01*
X0291002Y0358242D01*
X0292485Y0358304D02*
X0311128Y0358304D01*
X0311128Y0359902D02*
X0294595Y0359902D01*
X0295019Y0361501D02*
X0311128Y0361501D01*
X0311128Y0363099D02*
X0294670Y0363099D01*
X0292923Y0364698D02*
X0311128Y0364698D01*
X0311128Y0366296D02*
X0259364Y0366296D01*
X0259586Y0366831D02*
X0259076Y0365599D01*
X0258133Y0364657D01*
X0256902Y0364147D01*
X0255569Y0364147D01*
X0254338Y0364657D01*
X0253396Y0365599D01*
X0252886Y0366831D01*
X0252886Y0368163D01*
X0253396Y0369395D01*
X0254338Y0370337D01*
X0255569Y0370847D01*
X0256902Y0370847D01*
X0258133Y0370337D01*
X0259076Y0369395D01*
X0259586Y0368163D01*
X0259586Y0366831D01*
X0259586Y0367895D02*
X0311128Y0367895D01*
X0311128Y0369493D02*
X0258977Y0369493D01*
X0259850Y0370563D02*
X0261081Y0370053D01*
X0262414Y0370053D01*
X0263645Y0370563D01*
X0264587Y0371505D01*
X0265097Y0372736D01*
X0265097Y0374069D01*
X0264587Y0375300D01*
X0263645Y0376243D01*
X0262414Y0376753D01*
X0261081Y0376753D01*
X0259850Y0376243D01*
X0258907Y0375300D01*
X0258397Y0374069D01*
X0258397Y0372736D01*
X0258907Y0371505D01*
X0259850Y0370563D01*
X0259321Y0371092D02*
X0179922Y0371092D01*
X0180335Y0371505D02*
X0180845Y0372736D01*
X0180845Y0374069D01*
X0180335Y0375300D01*
X0179393Y0376243D01*
X0178162Y0376753D01*
X0176829Y0376753D01*
X0175598Y0376243D01*
X0174655Y0375300D01*
X0174145Y0374069D01*
X0174145Y0372736D01*
X0174655Y0371505D01*
X0175598Y0370563D01*
X0176829Y0370053D01*
X0178162Y0370053D01*
X0179393Y0370563D01*
X0180335Y0371505D01*
X0180826Y0372690D02*
X0258416Y0372690D01*
X0258489Y0374289D02*
X0180754Y0374289D01*
X0179748Y0375887D02*
X0259495Y0375887D01*
X0264000Y0375887D02*
X0272571Y0375887D01*
X0272571Y0376037D02*
X0272571Y0374705D01*
X0273081Y0373473D01*
X0274023Y0372531D01*
X0275254Y0372021D01*
X0276587Y0372021D01*
X0277818Y0372531D01*
X0278761Y0373473D01*
X0279271Y0374705D01*
X0279271Y0376037D01*
X0278761Y0377269D01*
X0277818Y0378211D01*
X0276587Y0378721D01*
X0275254Y0378721D01*
X0274023Y0378211D01*
X0273081Y0377269D01*
X0272571Y0376037D01*
X0273298Y0377486D02*
X0084364Y0377486D01*
X0084920Y0375887D02*
X0175243Y0375887D01*
X0174237Y0374289D02*
X0084791Y0374289D01*
X0083847Y0372690D02*
X0174164Y0372690D01*
X0175069Y0371092D02*
X0072328Y0371092D01*
X0072328Y0372690D02*
X0078231Y0372690D01*
X0077286Y0374289D02*
X0072328Y0374289D01*
X0072328Y0375887D02*
X0077158Y0375887D01*
X0077714Y0377486D02*
X0072328Y0377486D01*
X0072328Y0369493D02*
X0206605Y0369493D01*
X0206545Y0369434D02*
X0206035Y0368203D01*
X0206035Y0366870D01*
X0206545Y0365639D01*
X0207488Y0364696D01*
X0208719Y0364186D01*
X0210052Y0364186D01*
X0211283Y0364696D01*
X0212225Y0365639D01*
X0212735Y0366870D01*
X0212735Y0368203D01*
X0212225Y0369434D01*
X0211283Y0370376D01*
X0210052Y0370886D01*
X0208719Y0370886D01*
X0207488Y0370376D01*
X0206545Y0369434D01*
X0206035Y0367895D02*
X0201287Y0367895D01*
X0201193Y0367934D02*
X0199861Y0367934D01*
X0198629Y0367424D01*
X0197687Y0366481D01*
X0197177Y0365250D01*
X0197177Y0363917D01*
X0197687Y0362686D01*
X0198629Y0361744D01*
X0199861Y0361234D01*
X0201193Y0361234D01*
X0202425Y0361744D01*
X0203367Y0362686D01*
X0203877Y0363917D01*
X0203877Y0365250D01*
X0203367Y0366481D01*
X0202425Y0367424D01*
X0201193Y0367934D01*
X0199767Y0367895D02*
X0072328Y0367895D01*
X0072328Y0366296D02*
X0197610Y0366296D01*
X0197177Y0364698D02*
X0182687Y0364698D01*
X0184434Y0363099D02*
X0197516Y0363099D01*
X0199216Y0361501D02*
X0184782Y0361501D01*
X0184359Y0359902D02*
X0288742Y0359902D01*
X0288319Y0361501D02*
X0201838Y0361501D01*
X0203538Y0363099D02*
X0288667Y0363099D01*
X0290414Y0364698D02*
X0258174Y0364698D01*
X0254297Y0364698D02*
X0211284Y0364698D01*
X0212498Y0366296D02*
X0253107Y0366296D01*
X0252886Y0367895D02*
X0212735Y0367895D01*
X0212166Y0369493D02*
X0253494Y0369493D01*
X0264174Y0371092D02*
X0311128Y0371092D01*
X0311128Y0372690D02*
X0277978Y0372690D01*
X0279098Y0374289D02*
X0311128Y0374289D01*
X0311128Y0375887D02*
X0279271Y0375887D01*
X0278543Y0377486D02*
X0311128Y0377486D01*
X0311128Y0356705D02*
X0175741Y0356705D01*
X0175808Y0356639D02*
X0174866Y0357581D01*
X0173634Y0358091D01*
X0172302Y0358091D01*
X0171070Y0357581D01*
X0170128Y0356639D01*
X0169618Y0355408D01*
X0169618Y0354075D01*
X0170128Y0352844D01*
X0171070Y0351901D01*
X0172302Y0351391D01*
X0172571Y0351391D01*
X0172571Y0351122D01*
X0173081Y0349891D01*
X0174023Y0348948D01*
X0175254Y0348438D01*
X0176587Y0348438D01*
X0177818Y0348948D01*
X0178761Y0349891D01*
X0179271Y0351122D01*
X0179271Y0352455D01*
X0178761Y0353686D01*
X0177818Y0354628D01*
X0176587Y0355138D01*
X0176318Y0355138D01*
X0176318Y0355408D01*
X0175808Y0356639D01*
X0176663Y0355107D02*
X0189265Y0355107D01*
X0189026Y0354867D02*
X0188516Y0353636D01*
X0188516Y0352303D01*
X0189026Y0351072D01*
X0189968Y0350130D01*
X0191199Y0349620D01*
X0192532Y0349620D01*
X0193763Y0350130D01*
X0194706Y0351072D01*
X0195216Y0352303D01*
X0195216Y0353636D01*
X0194706Y0354867D01*
X0193763Y0355810D01*
X0192532Y0356320D01*
X0191199Y0356320D01*
X0189968Y0355810D01*
X0189026Y0354867D01*
X0188516Y0353508D02*
X0178834Y0353508D01*
X0179271Y0351910D02*
X0188679Y0351910D01*
X0189786Y0350311D02*
X0178935Y0350311D01*
X0177249Y0348713D02*
X0219513Y0348713D01*
X0218944Y0348948D02*
X0220176Y0348438D01*
X0221508Y0348438D01*
X0222740Y0348948D01*
X0223682Y0349891D01*
X0224192Y0351122D01*
X0224192Y0352455D01*
X0223682Y0353686D01*
X0222740Y0354628D01*
X0221508Y0355138D01*
X0220176Y0355138D01*
X0218944Y0354628D01*
X0218002Y0353686D01*
X0217492Y0352455D01*
X0217492Y0351122D01*
X0218002Y0349891D01*
X0218944Y0348948D01*
X0217828Y0350311D02*
X0193945Y0350311D01*
X0195053Y0351910D02*
X0217492Y0351910D01*
X0217928Y0353508D02*
X0195216Y0353508D01*
X0194466Y0355107D02*
X0220099Y0355107D01*
X0221585Y0355107D02*
X0311128Y0355107D01*
X0311128Y0353508D02*
X0223756Y0353508D01*
X0224192Y0351910D02*
X0311128Y0351910D01*
X0311128Y0350311D02*
X0223856Y0350311D01*
X0222171Y0348713D02*
X0248161Y0348713D01*
X0248561Y0348879D02*
X0247330Y0348369D01*
X0246388Y0347426D01*
X0245878Y0346195D01*
X0245878Y0344862D01*
X0246388Y0343631D01*
X0247330Y0342689D01*
X0248561Y0342179D01*
X0249894Y0342179D01*
X0251125Y0342689D01*
X0252068Y0343631D01*
X0252578Y0344862D01*
X0252578Y0346195D01*
X0252068Y0347426D01*
X0251125Y0348369D01*
X0249894Y0348879D01*
X0248561Y0348879D01*
X0250295Y0348713D02*
X0311128Y0348713D01*
X0311128Y0347114D02*
X0252197Y0347114D01*
X0252578Y0345516D02*
X0282233Y0345516D01*
X0282291Y0345573D02*
X0281348Y0344631D01*
X0280838Y0343400D01*
X0280838Y0342067D01*
X0281348Y0340836D01*
X0282291Y0339893D01*
X0283522Y0339383D01*
X0284855Y0339383D01*
X0286086Y0339893D01*
X0287028Y0340836D01*
X0287538Y0342067D01*
X0287538Y0343400D01*
X0287028Y0344631D01*
X0286086Y0345573D01*
X0284855Y0346083D01*
X0283522Y0346083D01*
X0282291Y0345573D01*
X0281053Y0343917D02*
X0252186Y0343917D01*
X0250232Y0342319D02*
X0280838Y0342319D01*
X0281464Y0340720D02*
X0237310Y0340720D01*
X0237342Y0340644D02*
X0236832Y0341875D01*
X0235889Y0342817D01*
X0234658Y0343327D01*
X0233325Y0343327D01*
X0232094Y0342817D01*
X0231152Y0341875D01*
X0230642Y0340644D01*
X0230642Y0339311D01*
X0231152Y0338080D01*
X0232094Y0337137D01*
X0233325Y0336627D01*
X0234658Y0336627D01*
X0235889Y0337137D01*
X0236832Y0338080D01*
X0237342Y0339311D01*
X0237342Y0340644D01*
X0237263Y0339122D02*
X0311128Y0339122D01*
X0311128Y0340720D02*
X0286913Y0340720D01*
X0287538Y0342319D02*
X0311128Y0342319D01*
X0311128Y0343917D02*
X0287324Y0343917D01*
X0286144Y0345516D02*
X0311128Y0345516D01*
X0311128Y0337523D02*
X0236275Y0337523D01*
X0236388Y0342319D02*
X0248223Y0342319D01*
X0246269Y0343917D02*
X0193904Y0343917D01*
X0194034Y0344232D02*
X0194034Y0345565D01*
X0193524Y0346796D01*
X0192582Y0347739D01*
X0191351Y0348249D01*
X0190018Y0348249D01*
X0188787Y0347739D01*
X0187844Y0346796D01*
X0187334Y0345565D01*
X0187334Y0344232D01*
X0187844Y0343001D01*
X0187915Y0342930D01*
X0187844Y0342859D01*
X0187334Y0341628D01*
X0187334Y0341359D01*
X0187065Y0341359D01*
X0185834Y0340849D01*
X0184892Y0339907D01*
X0184382Y0338675D01*
X0184382Y0338110D01*
X0183866Y0337896D01*
X0182923Y0336954D01*
X0182413Y0335723D01*
X0182413Y0335157D01*
X0181897Y0334943D01*
X0181826Y0334873D01*
X0181755Y0334943D01*
X0180524Y0335453D01*
X0179191Y0335453D01*
X0177960Y0334943D01*
X0177018Y0334001D01*
X0176508Y0332770D01*
X0176508Y0331516D01*
X0175254Y0331516D01*
X0174023Y0331006D01*
X0173952Y0330935D01*
X0173881Y0331006D01*
X0172650Y0331516D01*
X0171317Y0331516D01*
X0170086Y0331006D01*
X0169144Y0330064D01*
X0168634Y0328833D01*
X0168634Y0327500D01*
X0169144Y0326269D01*
X0170002Y0325410D01*
X0169931Y0325340D01*
X0169421Y0324108D01*
X0169421Y0322776D01*
X0169931Y0321544D01*
X0170873Y0320602D01*
X0172105Y0320092D01*
X0173437Y0320092D01*
X0174669Y0320602D01*
X0175611Y0321544D01*
X0176121Y0322776D01*
X0176121Y0324108D01*
X0175828Y0324816D01*
X0176587Y0324816D01*
X0177818Y0325326D01*
X0178761Y0326269D01*
X0179271Y0327500D01*
X0179271Y0328753D01*
X0180524Y0328753D01*
X0181755Y0329263D01*
X0181826Y0329334D01*
X0181897Y0329263D01*
X0183128Y0328753D01*
X0184461Y0328753D01*
X0185692Y0329263D01*
X0186635Y0330206D01*
X0187145Y0331437D01*
X0187145Y0332002D01*
X0187661Y0332216D01*
X0188603Y0333159D01*
X0189113Y0334390D01*
X0189113Y0334955D01*
X0189629Y0335169D01*
X0190572Y0336111D01*
X0191082Y0337343D01*
X0191082Y0337612D01*
X0191351Y0337612D01*
X0192582Y0338122D01*
X0193524Y0339064D01*
X0194034Y0340295D01*
X0194034Y0341628D01*
X0193524Y0342859D01*
X0193454Y0342930D01*
X0193524Y0343001D01*
X0194034Y0344232D01*
X0194034Y0345516D02*
X0245878Y0345516D01*
X0246259Y0347114D02*
X0193207Y0347114D01*
X0193748Y0342319D02*
X0231595Y0342319D01*
X0230673Y0340720D02*
X0194034Y0340720D01*
X0193548Y0339122D02*
X0230720Y0339122D01*
X0231708Y0337523D02*
X0191082Y0337523D01*
X0190385Y0335925D02*
X0279361Y0335925D01*
X0279380Y0335970D02*
X0278870Y0334738D01*
X0278870Y0333406D01*
X0279380Y0332174D01*
X0280322Y0331232D01*
X0281554Y0330722D01*
X0282886Y0330722D01*
X0284118Y0331232D01*
X0285060Y0332174D01*
X0285570Y0333406D01*
X0285570Y0334738D01*
X0285060Y0335970D01*
X0284118Y0336912D01*
X0282886Y0337422D01*
X0281554Y0337422D01*
X0280322Y0336912D01*
X0279380Y0335970D01*
X0278870Y0334326D02*
X0189087Y0334326D01*
X0188172Y0332728D02*
X0279151Y0332728D01*
X0280570Y0331129D02*
X0219034Y0331129D01*
X0219115Y0331048D02*
X0218173Y0331991D01*
X0216941Y0332501D01*
X0215609Y0332501D01*
X0214377Y0331991D01*
X0213435Y0331048D01*
X0212925Y0329817D01*
X0212925Y0328484D01*
X0213435Y0327253D01*
X0214377Y0326311D01*
X0215609Y0325801D01*
X0216941Y0325801D01*
X0218173Y0326311D01*
X0219115Y0327253D01*
X0219625Y0328484D01*
X0219625Y0329817D01*
X0219115Y0331048D01*
X0219625Y0329531D02*
X0311128Y0329531D01*
X0311128Y0331129D02*
X0283869Y0331129D01*
X0285289Y0332728D02*
X0311128Y0332728D01*
X0311128Y0334326D02*
X0285570Y0334326D01*
X0285078Y0335925D02*
X0311128Y0335925D01*
X0311128Y0327932D02*
X0219396Y0327932D01*
X0218196Y0326334D02*
X0311128Y0326334D01*
X0311128Y0324735D02*
X0286120Y0324735D01*
X0285668Y0325187D02*
X0284242Y0325778D01*
X0282698Y0325778D01*
X0281271Y0325187D01*
X0280180Y0324095D01*
X0279589Y0322669D01*
X0279589Y0321125D01*
X0280180Y0319698D01*
X0281271Y0318606D01*
X0282698Y0318016D01*
X0284242Y0318016D01*
X0285668Y0318606D01*
X0286760Y0319698D01*
X0287351Y0321125D01*
X0287351Y0322669D01*
X0286760Y0324095D01*
X0285668Y0325187D01*
X0287157Y0323137D02*
X0311128Y0323137D01*
X0311128Y0321538D02*
X0287351Y0321538D01*
X0286860Y0319940D02*
X0311128Y0319940D01*
X0311128Y0318341D02*
X0285028Y0318341D01*
X0281912Y0318341D02*
X0201862Y0318341D01*
X0201989Y0318214D02*
X0201047Y0319156D01*
X0199815Y0319666D01*
X0198483Y0319666D01*
X0197251Y0319156D01*
X0196309Y0318214D01*
X0195799Y0316982D01*
X0195799Y0315650D01*
X0196309Y0314418D01*
X0197251Y0313476D01*
X0198483Y0312966D01*
X0199815Y0312966D01*
X0201047Y0313476D01*
X0201989Y0314418D01*
X0202499Y0315650D01*
X0202499Y0316982D01*
X0201989Y0318214D01*
X0202499Y0316743D02*
X0311128Y0316743D01*
X0311128Y0315144D02*
X0250334Y0315144D01*
X0250259Y0315219D02*
X0249028Y0315729D01*
X0247695Y0315729D01*
X0246464Y0315219D01*
X0245522Y0314277D01*
X0245012Y0313045D01*
X0245012Y0311713D01*
X0245522Y0310481D01*
X0246464Y0309539D01*
X0247695Y0309029D01*
X0249028Y0309029D01*
X0250259Y0309539D01*
X0251202Y0310481D01*
X0251712Y0311713D01*
X0251712Y0313045D01*
X0251202Y0314277D01*
X0250259Y0315219D01*
X0251504Y0313545D02*
X0311128Y0313545D01*
X0311128Y0311947D02*
X0251712Y0311947D01*
X0251069Y0310348D02*
X0311128Y0310348D01*
X0311128Y0308750D02*
X0239445Y0308750D01*
X0239784Y0308410D02*
X0238842Y0309353D01*
X0237611Y0309863D01*
X0236278Y0309863D01*
X0235047Y0309353D01*
X0234104Y0308410D01*
X0233594Y0307179D01*
X0233594Y0305846D01*
X0234104Y0304615D01*
X0235047Y0303673D01*
X0235319Y0303560D01*
X0235047Y0303447D01*
X0234104Y0302505D01*
X0233594Y0301274D01*
X0233594Y0299941D01*
X0234104Y0298710D01*
X0235047Y0297767D01*
X0235319Y0297655D01*
X0235047Y0297542D01*
X0234104Y0296599D01*
X0233594Y0295368D01*
X0233594Y0294035D01*
X0234104Y0292804D01*
X0235047Y0291862D01*
X0236278Y0291352D01*
X0237611Y0291352D01*
X0238842Y0291862D01*
X0239784Y0292804D01*
X0240294Y0294035D01*
X0240294Y0294601D01*
X0240810Y0294815D01*
X0241753Y0295757D01*
X0242263Y0296988D01*
X0242263Y0298321D01*
X0241753Y0299552D01*
X0240810Y0300495D01*
X0240538Y0300607D01*
X0240810Y0300720D01*
X0241753Y0301662D01*
X0242263Y0302894D01*
X0242263Y0304226D01*
X0241753Y0305458D01*
X0240810Y0306400D01*
X0240294Y0306614D01*
X0240294Y0307179D01*
X0239784Y0308410D01*
X0240294Y0307151D02*
X0272215Y0307151D01*
X0272448Y0307384D02*
X0271506Y0306442D01*
X0270996Y0305211D01*
X0270996Y0303878D01*
X0271506Y0302647D01*
X0272448Y0301704D01*
X0273680Y0301194D01*
X0275012Y0301194D01*
X0276243Y0301704D01*
X0277186Y0302647D01*
X0277696Y0303878D01*
X0277696Y0305211D01*
X0277186Y0306442D01*
X0276243Y0307384D01*
X0275012Y0307894D01*
X0273680Y0307894D01*
X0272448Y0307384D01*
X0271138Y0305553D02*
X0241658Y0305553D01*
X0242263Y0303954D02*
X0270996Y0303954D01*
X0271797Y0302356D02*
X0242040Y0302356D01*
X0240848Y0300757D02*
X0250445Y0300757D01*
X0251042Y0301005D02*
X0249810Y0300495D01*
X0248868Y0299552D01*
X0248358Y0298321D01*
X0248358Y0296988D01*
X0248868Y0295757D01*
X0249810Y0294815D01*
X0251042Y0294305D01*
X0252374Y0294305D01*
X0253606Y0294815D01*
X0254548Y0295757D01*
X0255058Y0296988D01*
X0255058Y0298321D01*
X0254548Y0299552D01*
X0253606Y0300495D01*
X0252374Y0301005D01*
X0251042Y0301005D01*
X0252971Y0300757D02*
X0304936Y0300757D01*
X0305073Y0299159D02*
X0254711Y0299159D01*
X0255058Y0297560D02*
X0306030Y0297560D01*
X0305483Y0302356D02*
X0276895Y0302356D01*
X0277696Y0303954D02*
X0307588Y0303954D01*
X0310045Y0303954D02*
X0311128Y0303954D01*
X0311128Y0305553D02*
X0277554Y0305553D01*
X0276476Y0307151D02*
X0311128Y0307151D01*
X0311128Y0295962D02*
X0254633Y0295962D01*
X0252516Y0294363D02*
X0311128Y0294363D01*
X0311128Y0292765D02*
X0239745Y0292765D01*
X0240294Y0294363D02*
X0250900Y0294363D01*
X0248783Y0295962D02*
X0241838Y0295962D01*
X0242263Y0297560D02*
X0248358Y0297560D01*
X0248705Y0299159D02*
X0241916Y0299159D01*
X0235092Y0297560D02*
X0190569Y0297560D01*
X0190614Y0297542D02*
X0189628Y0297950D01*
X0190614Y0298358D01*
X0191556Y0299300D01*
X0192066Y0300532D01*
X0192066Y0301864D01*
X0191556Y0303096D01*
X0190614Y0304038D01*
X0189382Y0304548D01*
X0188050Y0304548D01*
X0186818Y0304038D01*
X0186677Y0303897D01*
X0186751Y0304075D01*
X0186751Y0305408D01*
X0186241Y0306639D01*
X0185299Y0307581D01*
X0184067Y0308091D01*
X0182735Y0308091D01*
X0181503Y0307581D01*
X0180561Y0306639D01*
X0180051Y0305408D01*
X0180051Y0304075D01*
X0180561Y0302844D01*
X0181503Y0301901D01*
X0182735Y0301391D01*
X0184067Y0301391D01*
X0185299Y0301901D01*
X0185440Y0302042D01*
X0185366Y0301864D01*
X0185366Y0300532D01*
X0185876Y0299300D01*
X0186818Y0298358D01*
X0187803Y0297950D01*
X0186818Y0297542D01*
X0185964Y0296687D01*
X0185964Y0296943D01*
X0185454Y0298174D01*
X0184511Y0299117D01*
X0183280Y0299627D01*
X0181947Y0299627D01*
X0180716Y0299117D01*
X0179774Y0298174D01*
X0179264Y0296943D01*
X0179264Y0295610D01*
X0179774Y0294379D01*
X0180716Y0293437D01*
X0181947Y0292927D01*
X0183280Y0292927D01*
X0184511Y0293437D01*
X0185366Y0294291D01*
X0185366Y0294035D01*
X0185876Y0292804D01*
X0186818Y0291862D01*
X0187813Y0291450D01*
X0187057Y0290694D01*
X0186547Y0289463D01*
X0186547Y0288130D01*
X0187057Y0286899D01*
X0187999Y0285956D01*
X0189231Y0285446D01*
X0190563Y0285446D01*
X0191795Y0285956D01*
X0192737Y0286899D01*
X0193247Y0288130D01*
X0193247Y0289463D01*
X0192737Y0290694D01*
X0191795Y0291636D01*
X0190800Y0292048D01*
X0191556Y0292804D01*
X0192066Y0294035D01*
X0192066Y0295368D01*
X0191556Y0296599D01*
X0190614Y0297542D01*
X0191415Y0299159D02*
X0233918Y0299159D01*
X0233594Y0300757D02*
X0192066Y0300757D01*
X0191862Y0302356D02*
X0234043Y0302356D01*
X0234765Y0303954D02*
X0190697Y0303954D01*
X0186735Y0303954D02*
X0186701Y0303954D01*
X0186691Y0305553D02*
X0233716Y0305553D01*
X0233594Y0307151D02*
X0185728Y0307151D01*
X0189001Y0310348D02*
X0173357Y0310348D01*
X0173365Y0310329D02*
X0172855Y0311560D01*
X0171913Y0312502D01*
X0170682Y0313012D01*
X0170119Y0313012D01*
X0170412Y0313721D01*
X0170412Y0315053D01*
X0169902Y0316284D01*
X0168960Y0317227D01*
X0167729Y0317737D01*
X0166475Y0317737D01*
X0166475Y0318006D01*
X0165965Y0319237D01*
X0165023Y0320180D01*
X0163792Y0320690D01*
X0162459Y0320690D01*
X0161228Y0320180D01*
X0160285Y0319237D01*
X0159775Y0318006D01*
X0159775Y0316673D01*
X0160285Y0315442D01*
X0161228Y0314500D01*
X0162459Y0313990D01*
X0163712Y0313990D01*
X0163712Y0313721D01*
X0164222Y0312489D01*
X0165165Y0311547D01*
X0166396Y0311037D01*
X0166958Y0311037D01*
X0166665Y0310329D01*
X0166665Y0308996D01*
X0167175Y0307765D01*
X0168118Y0306822D01*
X0169349Y0306312D01*
X0170682Y0306312D01*
X0171913Y0306822D01*
X0172855Y0307765D01*
X0173365Y0308996D01*
X0173365Y0310329D01*
X0173263Y0308750D02*
X0234444Y0308750D01*
X0233840Y0295962D02*
X0191820Y0295962D01*
X0192066Y0294363D02*
X0233594Y0294363D01*
X0234144Y0292765D02*
X0227871Y0292765D01*
X0227973Y0292662D02*
X0227031Y0293605D01*
X0225800Y0294115D01*
X0224467Y0294115D01*
X0223236Y0293605D01*
X0222293Y0292662D01*
X0221783Y0291431D01*
X0221783Y0290098D01*
X0222293Y0288867D01*
X0223236Y0287925D01*
X0224467Y0287415D01*
X0225800Y0287415D01*
X0227031Y0287925D01*
X0227973Y0288867D01*
X0228483Y0290098D01*
X0228483Y0291431D01*
X0227973Y0292662D01*
X0228483Y0291166D02*
X0311128Y0291166D01*
X0311128Y0289568D02*
X0228263Y0289568D01*
X0227075Y0287969D02*
X0250361Y0287969D01*
X0250845Y0288170D02*
X0249614Y0287660D01*
X0248671Y0286718D01*
X0248161Y0285486D01*
X0248161Y0284154D01*
X0248671Y0282922D01*
X0249614Y0281980D01*
X0250845Y0281470D01*
X0252178Y0281470D01*
X0253409Y0281980D01*
X0254351Y0282922D01*
X0254861Y0284154D01*
X0254861Y0285486D01*
X0254351Y0286718D01*
X0253409Y0287660D01*
X0252178Y0288170D01*
X0250845Y0288170D01*
X0252662Y0287969D02*
X0311128Y0287969D01*
X0311128Y0286371D02*
X0254495Y0286371D01*
X0254861Y0284772D02*
X0311128Y0284772D01*
X0311128Y0283174D02*
X0254455Y0283174D01*
X0252432Y0281575D02*
X0311128Y0281575D01*
X0311128Y0279977D02*
X0243201Y0279977D01*
X0243566Y0279825D02*
X0242335Y0280335D01*
X0241002Y0280335D01*
X0239771Y0279825D01*
X0238829Y0278883D01*
X0238319Y0277652D01*
X0238319Y0276398D01*
X0238246Y0276398D01*
X0237015Y0275888D01*
X0236073Y0274946D01*
X0235563Y0273715D01*
X0235563Y0272382D01*
X0236073Y0271151D01*
X0237015Y0270208D01*
X0238246Y0269698D01*
X0239579Y0269698D01*
X0240810Y0270208D01*
X0241753Y0271151D01*
X0242263Y0272382D01*
X0242263Y0273635D01*
X0242335Y0273635D01*
X0243566Y0274145D01*
X0244509Y0275088D01*
X0245019Y0276319D01*
X0245019Y0277652D01*
X0244509Y0278883D01*
X0243566Y0279825D01*
X0244718Y0278378D02*
X0311128Y0278378D01*
X0311128Y0276780D02*
X0245019Y0276780D01*
X0244547Y0275181D02*
X0311128Y0275181D01*
X0311128Y0273583D02*
X0242263Y0273583D01*
X0242098Y0271984D02*
X0311128Y0271984D01*
X0311128Y0270386D02*
X0240988Y0270386D01*
X0236838Y0270386D02*
X0212279Y0270386D01*
X0212020Y0270493D02*
X0210687Y0270493D01*
X0209456Y0269983D01*
X0208514Y0269040D01*
X0208004Y0267809D01*
X0208004Y0266476D01*
X0208514Y0265245D01*
X0209456Y0264303D01*
X0210687Y0263793D01*
X0212020Y0263793D01*
X0213251Y0264303D01*
X0214194Y0265245D01*
X0214704Y0266476D01*
X0214704Y0267809D01*
X0214194Y0269040D01*
X0213251Y0269983D01*
X0212020Y0270493D01*
X0210429Y0270386D02*
X0136662Y0270386D01*
X0136751Y0270171D02*
X0136241Y0271403D01*
X0135299Y0272345D01*
X0134067Y0272855D01*
X0132735Y0272855D01*
X0131503Y0272345D01*
X0130561Y0271403D01*
X0130051Y0270171D01*
X0130051Y0268839D01*
X0130561Y0267607D01*
X0131503Y0266665D01*
X0132735Y0266155D01*
X0134067Y0266155D01*
X0135299Y0266665D01*
X0136241Y0267607D01*
X0136751Y0268839D01*
X0136751Y0270171D01*
X0136730Y0268787D02*
X0181325Y0268787D01*
X0181348Y0268844D02*
X0180838Y0267612D01*
X0180838Y0266280D01*
X0181348Y0265048D01*
X0182291Y0264106D01*
X0183522Y0263596D01*
X0184855Y0263596D01*
X0186086Y0264106D01*
X0187028Y0265048D01*
X0187538Y0266280D01*
X0187538Y0267612D01*
X0187028Y0268844D01*
X0186086Y0269786D01*
X0184855Y0270296D01*
X0183522Y0270296D01*
X0182291Y0269786D01*
X0181348Y0268844D01*
X0180838Y0267189D02*
X0135822Y0267189D01*
X0135659Y0271984D02*
X0179137Y0271984D01*
X0178986Y0272135D02*
X0179929Y0271193D01*
X0181160Y0270683D01*
X0182493Y0270683D01*
X0183724Y0271193D01*
X0184666Y0272135D01*
X0185176Y0273366D01*
X0185176Y0274699D01*
X0184666Y0275930D01*
X0183724Y0276873D01*
X0182493Y0277383D01*
X0181160Y0277383D01*
X0179929Y0276873D01*
X0178986Y0275930D01*
X0178476Y0274699D01*
X0178476Y0273366D01*
X0178986Y0272135D01*
X0178476Y0273583D02*
X0110620Y0273583D01*
X0110796Y0273656D02*
X0111888Y0274747D01*
X0112479Y0276174D01*
X0112479Y0277718D01*
X0111888Y0279144D01*
X0110796Y0280236D01*
X0109370Y0280827D01*
X0107826Y0280827D01*
X0106399Y0280236D01*
X0105308Y0279144D01*
X0104717Y0277718D01*
X0104717Y0276174D01*
X0105308Y0274747D01*
X0106399Y0273656D01*
X0107826Y0273065D01*
X0109370Y0273065D01*
X0110796Y0273656D01*
X0112068Y0275181D02*
X0178676Y0275181D01*
X0179836Y0276780D02*
X0155846Y0276780D01*
X0155456Y0276389D02*
X0156398Y0277332D01*
X0156908Y0278563D01*
X0156908Y0279896D01*
X0156398Y0281127D01*
X0155456Y0282069D01*
X0154225Y0282579D01*
X0152892Y0282579D01*
X0151661Y0282069D01*
X0150718Y0281127D01*
X0150208Y0279896D01*
X0150208Y0278563D01*
X0150718Y0277332D01*
X0151661Y0276389D01*
X0152892Y0275879D01*
X0154225Y0275879D01*
X0155456Y0276389D01*
X0156832Y0278378D02*
X0179633Y0278378D01*
X0179929Y0278082D02*
X0181160Y0277572D01*
X0182493Y0277572D01*
X0183724Y0278082D01*
X0184666Y0279025D01*
X0185176Y0280256D01*
X0185176Y0281589D01*
X0184666Y0282820D01*
X0183724Y0283762D01*
X0182493Y0284272D01*
X0181160Y0284272D01*
X0179929Y0283762D01*
X0178986Y0282820D01*
X0178476Y0281589D01*
X0178476Y0280256D01*
X0178986Y0279025D01*
X0179929Y0278082D01*
X0178592Y0279977D02*
X0156875Y0279977D01*
X0155950Y0281575D02*
X0178476Y0281575D01*
X0179340Y0283174D02*
X0072328Y0283174D01*
X0072328Y0284772D02*
X0205642Y0284772D01*
X0205642Y0284154D02*
X0206152Y0282922D01*
X0207094Y0281980D01*
X0208325Y0281470D01*
X0209658Y0281470D01*
X0210889Y0281980D01*
X0211832Y0282922D01*
X0212342Y0284154D01*
X0212342Y0285486D01*
X0211832Y0286718D01*
X0210889Y0287660D01*
X0209658Y0288170D01*
X0208325Y0288170D01*
X0207094Y0287660D01*
X0206152Y0286718D01*
X0205642Y0285486D01*
X0205642Y0284154D01*
X0206047Y0283174D02*
X0184312Y0283174D01*
X0185176Y0281575D02*
X0208071Y0281575D01*
X0209912Y0281575D02*
X0250591Y0281575D01*
X0248567Y0283174D02*
X0211936Y0283174D01*
X0212342Y0284772D02*
X0248161Y0284772D01*
X0248528Y0286371D02*
X0211975Y0286371D01*
X0210142Y0287969D02*
X0223191Y0287969D01*
X0222003Y0289568D02*
X0193203Y0289568D01*
X0193180Y0287969D02*
X0207841Y0287969D01*
X0206008Y0286371D02*
X0192209Y0286371D01*
X0192265Y0291166D02*
X0221783Y0291166D01*
X0222396Y0292765D02*
X0191517Y0292765D01*
X0187529Y0291166D02*
X0164209Y0291166D01*
X0163997Y0291678D02*
X0163926Y0291749D01*
X0163997Y0291820D01*
X0164507Y0293051D01*
X0164507Y0294384D01*
X0163997Y0295615D01*
X0163926Y0295686D01*
X0163997Y0295757D01*
X0164507Y0296988D01*
X0164507Y0298321D01*
X0163997Y0299552D01*
X0163055Y0300495D01*
X0161823Y0301005D01*
X0160491Y0301005D01*
X0159259Y0300495D01*
X0158317Y0299552D01*
X0157807Y0298321D01*
X0157807Y0296988D01*
X0158317Y0295757D01*
X0158388Y0295686D01*
X0158317Y0295615D01*
X0157807Y0294384D01*
X0157807Y0293051D01*
X0158317Y0291820D01*
X0158388Y0291749D01*
X0158317Y0291678D01*
X0157807Y0290447D01*
X0157807Y0289114D01*
X0158317Y0287883D01*
X0159259Y0286941D01*
X0160491Y0286431D01*
X0161823Y0286431D01*
X0163055Y0286941D01*
X0163997Y0287883D01*
X0164507Y0289114D01*
X0164507Y0290447D01*
X0163997Y0291678D01*
X0164388Y0292765D02*
X0185915Y0292765D01*
X0186591Y0289568D02*
X0164507Y0289568D01*
X0164033Y0287969D02*
X0186614Y0287969D01*
X0187585Y0286371D02*
X0072328Y0286371D01*
X0072328Y0287969D02*
X0158281Y0287969D01*
X0157807Y0289568D02*
X0072328Y0289568D01*
X0072328Y0291166D02*
X0158105Y0291166D01*
X0157926Y0292765D02*
X0085811Y0292765D01*
X0086298Y0293251D02*
X0086888Y0294678D01*
X0086888Y0296222D01*
X0086298Y0297648D01*
X0085206Y0298740D01*
X0083779Y0299331D01*
X0082235Y0299331D01*
X0080809Y0298740D01*
X0079717Y0297648D01*
X0079126Y0296222D01*
X0079126Y0294678D01*
X0079717Y0293251D01*
X0080809Y0292160D01*
X0082235Y0291569D01*
X0083779Y0291569D01*
X0085206Y0292160D01*
X0086298Y0293251D01*
X0086758Y0294363D02*
X0157807Y0294363D01*
X0158232Y0295962D02*
X0086888Y0295962D01*
X0086334Y0297560D02*
X0157807Y0297560D01*
X0158154Y0299159D02*
X0126536Y0299159D01*
X0126426Y0299049D02*
X0127518Y0300141D01*
X0128109Y0301568D01*
X0128109Y0303112D01*
X0127518Y0304538D01*
X0126426Y0305630D01*
X0125253Y0306116D01*
X0125406Y0306116D01*
X0126637Y0306626D01*
X0127580Y0307568D01*
X0128090Y0308799D01*
X0128090Y0309852D01*
X0128363Y0309578D01*
X0129594Y0309068D01*
X0130927Y0309068D01*
X0132158Y0309578D01*
X0133101Y0310521D01*
X0133611Y0311752D01*
X0133611Y0313085D01*
X0133101Y0314316D01*
X0132158Y0315258D01*
X0130927Y0315768D01*
X0129594Y0315768D01*
X0128363Y0315258D01*
X0128313Y0315208D01*
X0128496Y0315650D01*
X0128496Y0316982D01*
X0127986Y0318214D01*
X0127043Y0319156D01*
X0125812Y0319666D01*
X0124480Y0319666D01*
X0123248Y0319156D01*
X0122306Y0318214D01*
X0121796Y0316982D01*
X0121796Y0315650D01*
X0122306Y0314418D01*
X0123248Y0313476D01*
X0124480Y0312966D01*
X0125812Y0312966D01*
X0127043Y0313476D01*
X0127094Y0313526D01*
X0126911Y0313085D01*
X0126911Y0312032D01*
X0126637Y0312306D01*
X0125406Y0312816D01*
X0124073Y0312816D01*
X0122842Y0312306D01*
X0121900Y0311363D01*
X0121390Y0310132D01*
X0121390Y0309488D01*
X0120485Y0309863D01*
X0119152Y0309863D01*
X0117921Y0309353D01*
X0116978Y0308410D01*
X0116468Y0307179D01*
X0116468Y0305846D01*
X0116978Y0304615D01*
X0117921Y0303673D01*
X0119152Y0303163D01*
X0120368Y0303163D01*
X0120347Y0303112D01*
X0120347Y0301568D01*
X0120938Y0300141D01*
X0122029Y0299049D01*
X0123456Y0298459D01*
X0125000Y0298459D01*
X0126426Y0299049D01*
X0127773Y0300757D02*
X0159894Y0300757D01*
X0162420Y0300757D02*
X0185366Y0300757D01*
X0186017Y0299159D02*
X0184409Y0299159D01*
X0185708Y0297560D02*
X0186863Y0297560D01*
X0180818Y0299159D02*
X0164160Y0299159D01*
X0164507Y0297560D02*
X0179519Y0297560D01*
X0179264Y0295962D02*
X0164082Y0295962D01*
X0164507Y0294363D02*
X0179789Y0294363D01*
X0181049Y0302356D02*
X0128109Y0302356D01*
X0127760Y0303954D02*
X0180101Y0303954D01*
X0180111Y0305553D02*
X0126503Y0305553D01*
X0127163Y0307151D02*
X0167789Y0307151D01*
X0166767Y0308750D02*
X0128069Y0308750D01*
X0132929Y0310348D02*
X0166673Y0310348D01*
X0164765Y0311947D02*
X0133611Y0311947D01*
X0133420Y0313545D02*
X0163785Y0313545D01*
X0160583Y0315144D02*
X0132273Y0315144D01*
X0128496Y0316743D02*
X0159775Y0316743D01*
X0159914Y0318341D02*
X0127858Y0318341D01*
X0122433Y0318341D02*
X0072328Y0318341D01*
X0072328Y0316743D02*
X0121796Y0316743D01*
X0122005Y0315144D02*
X0109353Y0315144D01*
X0108828Y0315669D02*
X0107401Y0316260D01*
X0105857Y0316260D01*
X0104431Y0315669D01*
X0103339Y0314577D01*
X0102748Y0313151D01*
X0102748Y0311607D01*
X0103339Y0310181D01*
X0104431Y0309089D01*
X0105857Y0308498D01*
X0107401Y0308498D01*
X0108828Y0309089D01*
X0109920Y0310181D01*
X0110510Y0311607D01*
X0110510Y0313151D01*
X0109920Y0314577D01*
X0108828Y0315669D01*
X0110347Y0313545D02*
X0123179Y0313545D01*
X0122483Y0311947D02*
X0110510Y0311947D01*
X0109989Y0310348D02*
X0121479Y0310348D01*
X0117318Y0308750D02*
X0108010Y0308750D01*
X0105249Y0308750D02*
X0072328Y0308750D01*
X0072328Y0310348D02*
X0103270Y0310348D01*
X0102748Y0311947D02*
X0072328Y0311947D01*
X0072328Y0313545D02*
X0102912Y0313545D01*
X0103906Y0315144D02*
X0072328Y0315144D01*
X0072328Y0319940D02*
X0160988Y0319940D01*
X0165263Y0319940D02*
X0185594Y0319940D01*
X0185834Y0320180D02*
X0184892Y0319237D01*
X0184382Y0318006D01*
X0184382Y0316673D01*
X0184892Y0315442D01*
X0185834Y0314500D01*
X0187065Y0313990D01*
X0188398Y0313990D01*
X0188755Y0314137D01*
X0188319Y0313085D01*
X0188319Y0311752D01*
X0188829Y0310521D01*
X0189771Y0309578D01*
X0191002Y0309068D01*
X0192335Y0309068D01*
X0193566Y0309578D01*
X0194509Y0310521D01*
X0195019Y0311752D01*
X0195019Y0313085D01*
X0194509Y0314316D01*
X0193566Y0315258D01*
X0192335Y0315768D01*
X0191002Y0315768D01*
X0190646Y0315621D01*
X0191082Y0316673D01*
X0191082Y0318006D01*
X0190572Y0319237D01*
X0189629Y0320180D01*
X0188398Y0320690D01*
X0187065Y0320690D01*
X0185834Y0320180D01*
X0184520Y0318341D02*
X0166337Y0318341D01*
X0169444Y0316743D02*
X0184382Y0316743D01*
X0185190Y0315144D02*
X0170375Y0315144D01*
X0170340Y0313545D02*
X0188510Y0313545D01*
X0188319Y0311947D02*
X0172468Y0311947D01*
X0172242Y0307151D02*
X0181074Y0307151D01*
X0175605Y0321538D02*
X0279589Y0321538D01*
X0279783Y0323137D02*
X0176121Y0323137D01*
X0175861Y0324735D02*
X0280820Y0324735D01*
X0280080Y0319940D02*
X0189869Y0319940D01*
X0190943Y0318341D02*
X0196436Y0318341D01*
X0195799Y0316743D02*
X0191082Y0316743D01*
X0193681Y0315144D02*
X0196008Y0315144D01*
X0197182Y0313545D02*
X0194828Y0313545D01*
X0195019Y0311947D02*
X0245012Y0311947D01*
X0245219Y0313545D02*
X0201116Y0313545D01*
X0202290Y0315144D02*
X0246389Y0315144D01*
X0245655Y0310348D02*
X0194336Y0310348D01*
X0197892Y0324816D02*
X0199225Y0324816D01*
X0200456Y0325326D01*
X0201398Y0326269D01*
X0201908Y0327500D01*
X0201908Y0328833D01*
X0201398Y0330064D01*
X0200456Y0331006D01*
X0199225Y0331516D01*
X0197892Y0331516D01*
X0196661Y0331006D01*
X0195718Y0330064D01*
X0195208Y0328833D01*
X0195208Y0327500D01*
X0195718Y0326269D01*
X0196661Y0325326D01*
X0197892Y0324816D01*
X0195692Y0326334D02*
X0178788Y0326334D01*
X0179271Y0327932D02*
X0195208Y0327932D01*
X0195498Y0329531D02*
X0185960Y0329531D01*
X0187017Y0331129D02*
X0196957Y0331129D01*
X0200160Y0331129D02*
X0213516Y0331129D01*
X0212925Y0329531D02*
X0201619Y0329531D01*
X0201908Y0327932D02*
X0213154Y0327932D01*
X0214354Y0326334D02*
X0201425Y0326334D01*
X0187621Y0342319D02*
X0147570Y0342319D01*
X0147775Y0341825D02*
X0147265Y0343056D01*
X0146322Y0343999D01*
X0145091Y0344509D01*
X0143758Y0344509D01*
X0142527Y0343999D01*
X0141585Y0343056D01*
X0141075Y0341825D01*
X0141075Y0340492D01*
X0141585Y0339261D01*
X0142527Y0338319D01*
X0143758Y0337809D01*
X0145091Y0337809D01*
X0146322Y0338319D01*
X0147265Y0339261D01*
X0147775Y0340492D01*
X0147775Y0341825D01*
X0147775Y0340720D02*
X0185705Y0340720D01*
X0184567Y0339122D02*
X0147125Y0339122D01*
X0146404Y0343917D02*
X0187465Y0343917D01*
X0187334Y0345516D02*
X0109822Y0345516D01*
X0109920Y0345614D02*
X0110510Y0347040D01*
X0110510Y0348584D01*
X0109920Y0350011D01*
X0108828Y0351102D01*
X0107401Y0351693D01*
X0105857Y0351693D01*
X0104431Y0351102D01*
X0103339Y0350011D01*
X0102748Y0348584D01*
X0102748Y0347040D01*
X0103339Y0345614D01*
X0104431Y0344522D01*
X0105857Y0343931D01*
X0107401Y0343931D01*
X0108828Y0344522D01*
X0109920Y0345614D01*
X0110510Y0347114D02*
X0188162Y0347114D01*
X0183493Y0337523D02*
X0072328Y0337523D01*
X0072328Y0335925D02*
X0182497Y0335925D01*
X0177343Y0334326D02*
X0072328Y0334326D01*
X0072328Y0332728D02*
X0176508Y0332728D01*
X0174319Y0331129D02*
X0173585Y0331129D01*
X0170382Y0331129D02*
X0072328Y0331129D01*
X0072328Y0329531D02*
X0168923Y0329531D01*
X0168634Y0327932D02*
X0072328Y0327932D01*
X0072328Y0326334D02*
X0169117Y0326334D01*
X0169681Y0324735D02*
X0072328Y0324735D01*
X0072328Y0323137D02*
X0169421Y0323137D01*
X0169937Y0321538D02*
X0072328Y0321538D01*
X0072328Y0307151D02*
X0116468Y0307151D01*
X0116590Y0305553D02*
X0072328Y0305553D01*
X0072328Y0303954D02*
X0117639Y0303954D01*
X0120347Y0302356D02*
X0072328Y0302356D01*
X0072328Y0300757D02*
X0120682Y0300757D01*
X0121920Y0299159D02*
X0084195Y0299159D01*
X0081820Y0299159D02*
X0072328Y0299159D01*
X0072328Y0297560D02*
X0079681Y0297560D01*
X0079126Y0295962D02*
X0072328Y0295962D01*
X0072328Y0294363D02*
X0079256Y0294363D01*
X0080204Y0292765D02*
X0072328Y0292765D01*
X0072328Y0281575D02*
X0151167Y0281575D01*
X0150242Y0279977D02*
X0111056Y0279977D01*
X0112205Y0278378D02*
X0150285Y0278378D01*
X0151271Y0276780D02*
X0112479Y0276780D01*
X0106576Y0273583D02*
X0072328Y0273583D01*
X0072328Y0275181D02*
X0105128Y0275181D01*
X0104717Y0276780D02*
X0072328Y0276780D01*
X0072328Y0278378D02*
X0104990Y0278378D01*
X0106140Y0279977D02*
X0072328Y0279977D01*
X0072328Y0271984D02*
X0131143Y0271984D01*
X0130140Y0270386D02*
X0099867Y0270386D01*
X0099658Y0270594D02*
X0097821Y0271355D01*
X0095832Y0271355D01*
X0093994Y0270594D01*
X0092587Y0269188D01*
X0091826Y0267350D01*
X0091065Y0269188D01*
X0089658Y0270594D01*
X0087821Y0271355D01*
X0085832Y0271355D01*
X0083994Y0270594D01*
X0082587Y0269188D01*
X0081826Y0267350D01*
X0081826Y0265361D01*
X0082587Y0263523D01*
X0083994Y0262117D01*
X0085832Y0261355D01*
X0087821Y0261355D01*
X0089658Y0262117D01*
X0091065Y0263523D01*
X0091826Y0265361D01*
X0091826Y0267350D01*
X0091826Y0265361D01*
X0092587Y0263523D01*
X0093994Y0262117D01*
X0095832Y0261355D01*
X0097821Y0261355D01*
X0099658Y0262117D01*
X0101065Y0263523D01*
X0101826Y0265361D01*
X0101826Y0267350D01*
X0101065Y0269188D01*
X0099658Y0270594D01*
X0101231Y0268787D02*
X0130072Y0268787D01*
X0130980Y0267189D02*
X0101826Y0267189D01*
X0101826Y0265590D02*
X0181124Y0265590D01*
X0182567Y0263992D02*
X0101259Y0263992D01*
X0099935Y0262393D02*
X0242295Y0262393D01*
X0242256Y0262297D02*
X0242256Y0260965D01*
X0242766Y0259733D01*
X0243693Y0258806D01*
X0243061Y0258174D01*
X0242551Y0256943D01*
X0242551Y0255610D01*
X0243061Y0254379D01*
X0244003Y0253437D01*
X0245235Y0252927D01*
X0246567Y0252927D01*
X0247799Y0253437D01*
X0248741Y0254379D01*
X0249251Y0255610D01*
X0249251Y0256943D01*
X0248741Y0258174D01*
X0247814Y0259101D01*
X0248446Y0259733D01*
X0248956Y0260965D01*
X0248956Y0262297D01*
X0248446Y0263529D01*
X0247503Y0264471D01*
X0246272Y0264981D01*
X0244939Y0264981D01*
X0243708Y0264471D01*
X0242766Y0263529D01*
X0242256Y0262297D01*
X0242326Y0260795D02*
X0204290Y0260795D01*
X0204351Y0260733D02*
X0203409Y0261676D01*
X0202178Y0262186D01*
X0200845Y0262186D01*
X0199614Y0261676D01*
X0198671Y0260733D01*
X0198161Y0259502D01*
X0198161Y0258169D01*
X0198671Y0256938D01*
X0199614Y0255996D01*
X0200845Y0255486D01*
X0202178Y0255486D01*
X0203409Y0255996D01*
X0204351Y0256938D01*
X0204861Y0258169D01*
X0204861Y0259502D01*
X0204351Y0260733D01*
X0204861Y0259196D02*
X0243303Y0259196D01*
X0242822Y0257598D02*
X0204624Y0257598D01*
X0203412Y0255999D02*
X0242551Y0255999D01*
X0243052Y0254401D02*
X0196834Y0254401D01*
X0196987Y0254030D02*
X0196477Y0255261D01*
X0195535Y0256203D01*
X0194304Y0256713D01*
X0192971Y0256713D01*
X0191740Y0256203D01*
X0190797Y0255261D01*
X0190287Y0254030D01*
X0190287Y0252697D01*
X0190797Y0251466D01*
X0191740Y0250523D01*
X0192971Y0250013D01*
X0194304Y0250013D01*
X0195535Y0250523D01*
X0196477Y0251466D01*
X0196987Y0252697D01*
X0196987Y0254030D01*
X0196987Y0252802D02*
X0248949Y0252802D01*
X0248949Y0252658D02*
X0249459Y0251426D01*
X0250401Y0250484D01*
X0251632Y0249974D01*
X0252965Y0249974D01*
X0254196Y0250484D01*
X0255139Y0251426D01*
X0255649Y0252658D01*
X0255649Y0253990D01*
X0255139Y0255221D01*
X0254196Y0256164D01*
X0252965Y0256674D01*
X0251632Y0256674D01*
X0250401Y0256164D01*
X0249459Y0255221D01*
X0248949Y0253990D01*
X0248949Y0252658D01*
X0249681Y0251204D02*
X0196215Y0251204D01*
X0195739Y0255999D02*
X0199610Y0255999D01*
X0198398Y0257598D02*
X0158747Y0257598D01*
X0158409Y0257936D02*
X0157178Y0258446D01*
X0155845Y0258446D01*
X0154614Y0257936D01*
X0153671Y0256993D01*
X0153161Y0255762D01*
X0153161Y0254429D01*
X0153671Y0253198D01*
X0154614Y0252256D01*
X0155845Y0251746D01*
X0157178Y0251746D01*
X0158409Y0252256D01*
X0159351Y0253198D01*
X0159861Y0254429D01*
X0159861Y0255762D01*
X0159351Y0256993D01*
X0158409Y0257936D01*
X0159763Y0255999D02*
X0191535Y0255999D01*
X0190441Y0254401D02*
X0159849Y0254401D01*
X0158955Y0252802D02*
X0190287Y0252802D01*
X0191059Y0251204D02*
X0133731Y0251204D01*
X0133699Y0251125D02*
X0134290Y0252552D01*
X0134290Y0254096D01*
X0133699Y0255522D01*
X0132607Y0256614D01*
X0131181Y0257205D01*
X0129637Y0257205D01*
X0128210Y0256614D01*
X0127119Y0255522D01*
X0126528Y0254096D01*
X0126528Y0252552D01*
X0127119Y0251125D01*
X0128210Y0250034D01*
X0129637Y0249443D01*
X0131181Y0249443D01*
X0132607Y0250034D01*
X0133699Y0251125D01*
X0134290Y0252802D02*
X0154067Y0252802D01*
X0153173Y0254401D02*
X0134164Y0254401D01*
X0133222Y0255999D02*
X0153259Y0255999D01*
X0154276Y0257598D02*
X0101691Y0257598D01*
X0101826Y0257271D02*
X0101065Y0259109D01*
X0099658Y0260515D01*
X0097821Y0261277D01*
X0095832Y0261277D01*
X0093994Y0260515D01*
X0092587Y0259109D01*
X0091826Y0257271D01*
X0091065Y0259109D01*
X0089658Y0260515D01*
X0087821Y0261277D01*
X0085832Y0261277D01*
X0083994Y0260515D01*
X0082587Y0259109D01*
X0081826Y0257271D01*
X0081826Y0255282D01*
X0082587Y0253444D01*
X0083994Y0252038D01*
X0085697Y0251332D01*
X0083915Y0250594D01*
X0082509Y0249188D01*
X0081747Y0247350D01*
X0081747Y0245361D01*
X0082509Y0243523D01*
X0083915Y0242117D01*
X0085753Y0241355D01*
X0087742Y0241355D01*
X0089580Y0242117D01*
X0090986Y0243523D01*
X0091747Y0245361D01*
X0091747Y0247350D01*
X0090986Y0249188D01*
X0089580Y0250594D01*
X0087876Y0251300D01*
X0089658Y0252038D01*
X0091065Y0253444D01*
X0091826Y0255282D01*
X0091826Y0257271D01*
X0091826Y0255282D01*
X0092587Y0253444D01*
X0093994Y0252038D01*
X0095697Y0251332D01*
X0093915Y0250594D01*
X0092509Y0249188D01*
X0091747Y0247350D01*
X0091747Y0245361D01*
X0092509Y0243523D01*
X0093915Y0242117D01*
X0095753Y0241355D01*
X0097742Y0241355D01*
X0099580Y0242117D01*
X0100986Y0243523D01*
X0101747Y0245361D01*
X0101747Y0247350D01*
X0100986Y0249188D01*
X0099580Y0250594D01*
X0097876Y0251300D01*
X0099658Y0252038D01*
X0101065Y0253444D01*
X0101826Y0255282D01*
X0101826Y0257271D01*
X0101826Y0255999D02*
X0127595Y0255999D01*
X0126654Y0254401D02*
X0101461Y0254401D01*
X0100423Y0252802D02*
X0126528Y0252802D01*
X0127086Y0251204D02*
X0098109Y0251204D01*
X0095386Y0251204D02*
X0088109Y0251204D01*
X0085386Y0251204D02*
X0072328Y0251204D01*
X0072328Y0252802D02*
X0083230Y0252802D01*
X0082191Y0254401D02*
X0072328Y0254401D01*
X0072328Y0255999D02*
X0081826Y0255999D01*
X0081961Y0257598D02*
X0072328Y0257598D01*
X0072328Y0259196D02*
X0082675Y0259196D01*
X0084668Y0260795D02*
X0072328Y0260795D01*
X0072328Y0262393D02*
X0083717Y0262393D01*
X0082393Y0263992D02*
X0072328Y0263992D01*
X0072328Y0265590D02*
X0081826Y0265590D01*
X0081826Y0267189D02*
X0072328Y0267189D01*
X0072328Y0268787D02*
X0082422Y0268787D01*
X0083785Y0270386D02*
X0072328Y0270386D01*
X0072328Y0249605D02*
X0082926Y0249605D01*
X0082019Y0248007D02*
X0072328Y0248007D01*
X0072328Y0246408D02*
X0081747Y0246408D01*
X0081976Y0244810D02*
X0072328Y0244810D01*
X0072328Y0243211D02*
X0082821Y0243211D01*
X0085132Y0241612D02*
X0072328Y0241612D01*
X0072328Y0240014D02*
X0083650Y0240014D01*
X0083994Y0240358D02*
X0082587Y0238951D01*
X0081826Y0237114D01*
X0081826Y0235125D01*
X0082587Y0233287D01*
X0083994Y0231880D01*
X0085451Y0231277D01*
X0083994Y0230673D01*
X0082587Y0229266D01*
X0081826Y0227429D01*
X0081826Y0225440D01*
X0082587Y0223602D01*
X0083994Y0222195D01*
X0085832Y0221434D01*
X0087821Y0221434D01*
X0089658Y0222195D01*
X0091065Y0223602D01*
X0091826Y0225440D01*
X0091826Y0227429D01*
X0091065Y0229266D01*
X0089658Y0230673D01*
X0088201Y0231277D01*
X0089658Y0231880D01*
X0091065Y0233287D01*
X0091826Y0235125D01*
X0091826Y0237114D01*
X0091065Y0238951D01*
X0089658Y0240358D01*
X0087821Y0241119D01*
X0085832Y0241119D01*
X0083994Y0240358D01*
X0082365Y0238415D02*
X0072328Y0238415D01*
X0072328Y0236817D02*
X0081826Y0236817D01*
X0081826Y0235218D02*
X0072328Y0235218D01*
X0072328Y0233620D02*
X0082449Y0233620D01*
X0083853Y0232021D02*
X0072328Y0232021D01*
X0072328Y0230423D02*
X0083744Y0230423D01*
X0082404Y0228824D02*
X0072328Y0228824D01*
X0072328Y0227226D02*
X0081826Y0227226D01*
X0081826Y0225627D02*
X0072328Y0225627D01*
X0072328Y0224029D02*
X0082411Y0224029D01*
X0083759Y0222430D02*
X0072328Y0222430D01*
X0072328Y0220832D02*
X0153649Y0220832D01*
X0154037Y0221220D02*
X0152945Y0220129D01*
X0152355Y0218702D01*
X0152355Y0217158D01*
X0152945Y0215732D01*
X0154037Y0214640D01*
X0155464Y0214049D01*
X0157008Y0214049D01*
X0158434Y0214640D01*
X0159526Y0215732D01*
X0160117Y0217158D01*
X0160117Y0218702D01*
X0159526Y0220129D01*
X0158434Y0221220D01*
X0157008Y0221811D01*
X0155464Y0221811D01*
X0154037Y0221220D01*
X0154895Y0221723D02*
X0156301Y0223129D01*
X0157062Y0224967D01*
X0157062Y0226956D01*
X0156301Y0228794D01*
X0154895Y0230200D01*
X0153057Y0230962D01*
X0151068Y0230962D01*
X0149230Y0230200D01*
X0147824Y0228794D01*
X0147062Y0226956D01*
X0147062Y0224967D01*
X0147824Y0223129D01*
X0149230Y0221723D01*
X0151068Y0220962D01*
X0153057Y0220962D01*
X0154895Y0221723D01*
X0155602Y0222430D02*
X0158523Y0222430D01*
X0157824Y0223129D02*
X0159230Y0221723D01*
X0161068Y0220962D01*
X0163057Y0220962D01*
X0164895Y0221723D01*
X0166301Y0223129D01*
X0167062Y0224967D01*
X0167062Y0226956D01*
X0167062Y0224967D01*
X0167824Y0223129D01*
X0169230Y0221723D01*
X0171068Y0220962D01*
X0173057Y0220962D01*
X0174895Y0221723D01*
X0176301Y0223129D01*
X0177062Y0224967D01*
X0177062Y0226956D01*
X0177062Y0224967D01*
X0177824Y0223129D01*
X0179230Y0221723D01*
X0181068Y0220962D01*
X0183057Y0220962D01*
X0184895Y0221723D01*
X0186301Y0223129D01*
X0187062Y0224967D01*
X0187062Y0226956D01*
X0186301Y0228794D01*
X0184895Y0230200D01*
X0183057Y0230962D01*
X0181068Y0230962D01*
X0180636Y0230783D01*
X0180137Y0231281D01*
X0180832Y0230993D01*
X0182821Y0230993D01*
X0184658Y0231754D01*
X0186065Y0233161D01*
X0186826Y0234999D01*
X0186826Y0236988D01*
X0186065Y0238825D01*
X0184658Y0240232D01*
X0182821Y0240993D01*
X0180832Y0240993D01*
X0178994Y0240232D01*
X0177587Y0238825D01*
X0176826Y0236988D01*
X0176065Y0238825D01*
X0174658Y0240232D01*
X0172821Y0240993D01*
X0170832Y0240993D01*
X0168994Y0240232D01*
X0167587Y0238825D01*
X0166826Y0236988D01*
X0166065Y0238825D01*
X0164658Y0240232D01*
X0162821Y0240993D01*
X0160832Y0240993D01*
X0158994Y0240232D01*
X0157587Y0238825D01*
X0156826Y0236988D01*
X0156065Y0238825D01*
X0154658Y0240232D01*
X0152821Y0240993D01*
X0150832Y0240993D01*
X0148994Y0240232D01*
X0147587Y0238825D01*
X0146826Y0236988D01*
X0146826Y0234999D01*
X0147587Y0233161D01*
X0148994Y0231754D01*
X0150832Y0230993D01*
X0152821Y0230993D01*
X0154658Y0231754D01*
X0156065Y0233161D01*
X0156826Y0234999D01*
X0156826Y0236988D01*
X0156826Y0234999D01*
X0157587Y0233161D01*
X0158994Y0231754D01*
X0160832Y0230993D01*
X0162821Y0230993D01*
X0164658Y0231754D01*
X0166065Y0233161D01*
X0166826Y0234999D01*
X0167537Y0233283D01*
X0166782Y0233283D01*
X0165900Y0232918D01*
X0163684Y0230702D01*
X0163057Y0230962D01*
X0161068Y0230962D01*
X0159230Y0230200D01*
X0157824Y0228794D01*
X0157062Y0226956D01*
X0157062Y0224967D01*
X0157824Y0223129D01*
X0157451Y0224029D02*
X0156674Y0224029D01*
X0157062Y0225627D02*
X0157062Y0225627D01*
X0156951Y0227226D02*
X0157174Y0227226D01*
X0157854Y0228824D02*
X0156271Y0228824D01*
X0154358Y0230423D02*
X0159767Y0230423D01*
X0158727Y0232021D02*
X0154926Y0232021D01*
X0156255Y0233620D02*
X0157397Y0233620D01*
X0156826Y0235218D02*
X0156826Y0235218D01*
X0156826Y0236817D02*
X0156826Y0236817D01*
X0156235Y0238415D02*
X0157418Y0238415D01*
X0158776Y0240014D02*
X0154876Y0240014D01*
X0156163Y0243675D02*
X0154932Y0244185D01*
X0153989Y0245127D01*
X0153479Y0246358D01*
X0153479Y0247691D01*
X0153989Y0248922D01*
X0154932Y0249865D01*
X0156163Y0250375D01*
X0157496Y0250375D01*
X0158727Y0249865D01*
X0159669Y0248922D01*
X0160179Y0247691D01*
X0160179Y0246358D01*
X0159669Y0245127D01*
X0158727Y0244185D01*
X0157496Y0243675D01*
X0156163Y0243675D01*
X0154307Y0244810D02*
X0101519Y0244810D01*
X0101747Y0246408D02*
X0153479Y0246408D01*
X0153610Y0248007D02*
X0101475Y0248007D01*
X0100569Y0249605D02*
X0129245Y0249605D01*
X0131573Y0249605D02*
X0154672Y0249605D01*
X0158987Y0249605D02*
X0185141Y0249605D01*
X0185244Y0249707D02*
X0184301Y0248765D01*
X0183791Y0247534D01*
X0183791Y0246201D01*
X0184301Y0244970D01*
X0185244Y0244027D01*
X0186475Y0243517D01*
X0187808Y0243517D01*
X0189039Y0244027D01*
X0189981Y0244970D01*
X0190491Y0246201D01*
X0190491Y0247534D01*
X0189981Y0248765D01*
X0189039Y0249707D01*
X0187808Y0250217D01*
X0186475Y0250217D01*
X0185244Y0249707D01*
X0183987Y0248007D02*
X0160049Y0248007D01*
X0160179Y0246408D02*
X0183791Y0246408D01*
X0184461Y0244810D02*
X0159352Y0244810D01*
X0164876Y0240014D02*
X0168776Y0240014D01*
X0167418Y0238415D02*
X0166235Y0238415D01*
X0166826Y0236988D02*
X0166826Y0234999D01*
X0166826Y0236988D01*
X0166826Y0236817D02*
X0166826Y0236817D01*
X0166826Y0235218D02*
X0166826Y0235218D01*
X0166255Y0233620D02*
X0167397Y0233620D01*
X0165004Y0232021D02*
X0164926Y0232021D01*
X0167300Y0227529D02*
X0167062Y0226956D01*
X0166964Y0227194D01*
X0167300Y0227529D01*
X0167174Y0227226D02*
X0166996Y0227226D01*
X0167062Y0225627D02*
X0167062Y0225627D01*
X0166674Y0224029D02*
X0167451Y0224029D01*
X0168523Y0222430D02*
X0165602Y0222430D01*
X0159897Y0219233D02*
X0192683Y0219233D01*
X0192766Y0219434D02*
X0192256Y0218203D01*
X0192256Y0216870D01*
X0192766Y0215639D01*
X0193708Y0214696D01*
X0194939Y0214186D01*
X0196272Y0214186D01*
X0197503Y0214696D01*
X0198446Y0215639D01*
X0198956Y0216870D01*
X0198956Y0218203D01*
X0198446Y0219434D01*
X0197503Y0220376D01*
X0196272Y0220886D01*
X0194939Y0220886D01*
X0193708Y0220376D01*
X0192766Y0219434D01*
X0193057Y0220962D02*
X0194895Y0221723D01*
X0196301Y0223129D01*
X0197062Y0224967D01*
X0197062Y0226956D01*
X0196301Y0228794D01*
X0194895Y0230200D01*
X0193057Y0230962D01*
X0191068Y0230962D01*
X0189230Y0230200D01*
X0187824Y0228794D01*
X0187062Y0226956D01*
X0187062Y0224967D01*
X0187824Y0223129D01*
X0189230Y0221723D01*
X0191068Y0220962D01*
X0193057Y0220962D01*
X0194807Y0220832D02*
X0158823Y0220832D01*
X0160117Y0217635D02*
X0192256Y0217635D01*
X0192601Y0216036D02*
X0159652Y0216036D01*
X0157946Y0214438D02*
X0194333Y0214438D01*
X0196879Y0214438D02*
X0222109Y0214438D01*
X0222089Y0214486D02*
X0222599Y0213255D01*
X0223541Y0212312D01*
X0224772Y0211802D01*
X0226105Y0211802D01*
X0227336Y0212312D01*
X0228279Y0213255D01*
X0228789Y0214486D01*
X0228789Y0215819D01*
X0228279Y0217050D01*
X0227336Y0217992D01*
X0226105Y0218502D01*
X0224772Y0218502D01*
X0223541Y0217992D01*
X0222599Y0217050D01*
X0222089Y0215819D01*
X0222089Y0214486D01*
X0222179Y0216036D02*
X0198610Y0216036D01*
X0198956Y0217635D02*
X0223184Y0217635D01*
X0223057Y0220962D02*
X0221068Y0220962D01*
X0219230Y0221723D01*
X0217824Y0223129D01*
X0217062Y0224967D01*
X0217062Y0226956D01*
X0217824Y0228794D01*
X0219230Y0230200D01*
X0221068Y0230962D01*
X0223057Y0230962D01*
X0224895Y0230200D01*
X0226301Y0228794D01*
X0227062Y0226956D01*
X0227062Y0224967D01*
X0226301Y0223129D01*
X0224895Y0221723D01*
X0223057Y0220962D01*
X0225602Y0222430D02*
X0238523Y0222430D01*
X0237824Y0223129D02*
X0239230Y0221723D01*
X0241068Y0220962D01*
X0243057Y0220962D01*
X0244895Y0221723D01*
X0246301Y0223129D01*
X0247062Y0224967D01*
X0247062Y0226956D01*
X0246301Y0228794D01*
X0244895Y0230200D01*
X0243057Y0230962D01*
X0241068Y0230962D01*
X0239230Y0230200D01*
X0237824Y0228794D01*
X0237062Y0226956D01*
X0237062Y0224967D01*
X0237824Y0223129D01*
X0237451Y0224029D02*
X0226674Y0224029D01*
X0227062Y0225627D02*
X0237062Y0225627D01*
X0237174Y0227226D02*
X0226951Y0227226D01*
X0226271Y0228824D02*
X0237854Y0228824D01*
X0239767Y0230423D02*
X0224358Y0230423D01*
X0224658Y0231754D02*
X0226065Y0233161D01*
X0226826Y0234999D01*
X0226826Y0236988D01*
X0226065Y0238825D01*
X0224658Y0240232D01*
X0222821Y0240993D01*
X0220832Y0240993D01*
X0218994Y0240232D01*
X0217587Y0238825D01*
X0216826Y0236988D01*
X0216065Y0238825D01*
X0214658Y0240232D01*
X0212821Y0240993D01*
X0210832Y0240993D01*
X0208994Y0240232D01*
X0207587Y0238825D01*
X0206826Y0236988D01*
X0206065Y0238825D01*
X0204658Y0240232D01*
X0202821Y0240993D01*
X0202145Y0240993D01*
X0202145Y0242061D01*
X0201635Y0243292D01*
X0200692Y0244235D01*
X0199461Y0244745D01*
X0198128Y0244745D01*
X0196897Y0244235D01*
X0195955Y0243292D01*
X0195445Y0242061D01*
X0195445Y0240728D01*
X0195955Y0239497D01*
X0196897Y0238555D01*
X0197391Y0238350D01*
X0196826Y0236988D01*
X0196065Y0238825D01*
X0194658Y0240232D01*
X0192821Y0240993D01*
X0190832Y0240993D01*
X0188994Y0240232D01*
X0187587Y0238825D01*
X0186826Y0236988D01*
X0186826Y0234999D01*
X0187587Y0233161D01*
X0188994Y0231754D01*
X0190832Y0230993D01*
X0192821Y0230993D01*
X0194658Y0231754D01*
X0196065Y0233161D01*
X0196826Y0234999D01*
X0196826Y0236988D01*
X0196826Y0234999D01*
X0197587Y0233161D01*
X0198994Y0231754D01*
X0200832Y0230993D01*
X0202821Y0230993D01*
X0204658Y0231754D01*
X0206065Y0233161D01*
X0206826Y0234999D01*
X0206826Y0236988D01*
X0206826Y0234999D01*
X0207587Y0233161D01*
X0208994Y0231754D01*
X0210832Y0230993D01*
X0212821Y0230993D01*
X0214658Y0231754D01*
X0216065Y0233161D01*
X0216826Y0234999D01*
X0216826Y0236988D01*
X0216826Y0234999D01*
X0217587Y0233161D01*
X0218994Y0231754D01*
X0220832Y0230993D01*
X0222821Y0230993D01*
X0224658Y0231754D01*
X0224926Y0232021D02*
X0238727Y0232021D01*
X0238994Y0231754D02*
X0240832Y0230993D01*
X0242821Y0230993D01*
X0244658Y0231754D01*
X0246065Y0233161D01*
X0246826Y0234999D01*
X0247587Y0233161D01*
X0248994Y0231754D01*
X0250832Y0230993D01*
X0252821Y0230993D01*
X0254658Y0231754D01*
X0256065Y0233161D01*
X0256826Y0234999D01*
X0257587Y0233161D01*
X0258994Y0231754D01*
X0260832Y0230993D01*
X0262821Y0230993D01*
X0264658Y0231754D01*
X0266065Y0233161D01*
X0266826Y0234999D01*
X0267587Y0233161D01*
X0268994Y0231754D01*
X0270832Y0230993D01*
X0272821Y0230993D01*
X0274658Y0231754D01*
X0276065Y0233161D01*
X0276826Y0234999D01*
X0277587Y0233161D01*
X0278994Y0231754D01*
X0280832Y0230993D01*
X0282821Y0230993D01*
X0284658Y0231754D01*
X0286065Y0233161D01*
X0286826Y0234999D01*
X0287587Y0233161D01*
X0288994Y0231754D01*
X0290832Y0230993D01*
X0292821Y0230993D01*
X0294658Y0231754D01*
X0296065Y0233161D01*
X0296826Y0234999D01*
X0296826Y0236988D01*
X0296065Y0238825D01*
X0294658Y0240232D01*
X0292821Y0240993D01*
X0290832Y0240993D01*
X0288994Y0240232D01*
X0287587Y0238825D01*
X0286826Y0236988D01*
X0286065Y0238825D01*
X0284658Y0240232D01*
X0282821Y0240993D01*
X0280832Y0240993D01*
X0278994Y0240232D01*
X0277587Y0238825D01*
X0276826Y0236988D01*
X0276065Y0238825D01*
X0274658Y0240232D01*
X0272821Y0240993D01*
X0270832Y0240993D01*
X0268994Y0240232D01*
X0267587Y0238825D01*
X0266826Y0236988D01*
X0266065Y0238825D01*
X0264658Y0240232D01*
X0262821Y0240993D01*
X0260832Y0240993D01*
X0258994Y0240232D01*
X0257587Y0238825D01*
X0256826Y0236988D01*
X0256065Y0238825D01*
X0254658Y0240232D01*
X0252821Y0240993D01*
X0250832Y0240993D01*
X0248994Y0240232D01*
X0247587Y0238825D01*
X0246826Y0236988D01*
X0246065Y0238825D01*
X0244658Y0240232D01*
X0242821Y0240993D01*
X0240832Y0240993D01*
X0238994Y0240232D01*
X0237587Y0238825D01*
X0236826Y0236988D01*
X0236826Y0234999D01*
X0237587Y0233161D01*
X0238994Y0231754D01*
X0237397Y0233620D02*
X0226255Y0233620D01*
X0226826Y0235218D02*
X0236826Y0235218D01*
X0236826Y0236817D02*
X0226826Y0236817D01*
X0226235Y0238415D02*
X0237418Y0238415D01*
X0238776Y0240014D02*
X0224876Y0240014D01*
X0218776Y0240014D02*
X0214876Y0240014D01*
X0216235Y0238415D02*
X0217418Y0238415D01*
X0216826Y0236817D02*
X0216826Y0236817D01*
X0216826Y0235218D02*
X0216826Y0235218D01*
X0216255Y0233620D02*
X0217397Y0233620D01*
X0218727Y0232021D02*
X0214926Y0232021D01*
X0213905Y0230410D02*
X0214578Y0230067D01*
X0215189Y0229623D01*
X0215724Y0229089D01*
X0216168Y0228477D01*
X0216511Y0227804D01*
X0216744Y0227086D01*
X0216862Y0226339D01*
X0216862Y0226162D01*
X0212262Y0226162D01*
X0211862Y0226162D01*
X0211862Y0225762D01*
X0207262Y0225762D01*
X0207262Y0225584D01*
X0207381Y0224838D01*
X0207614Y0224119D01*
X0207957Y0223446D01*
X0208401Y0222835D01*
X0208935Y0222300D01*
X0209547Y0221856D01*
X0210220Y0221513D01*
X0210938Y0221280D01*
X0211685Y0221162D01*
X0211862Y0221162D01*
X0211862Y0225762D01*
X0212262Y0225762D01*
X0212262Y0221162D01*
X0212440Y0221162D01*
X0213186Y0221280D01*
X0213905Y0221513D01*
X0214578Y0221856D01*
X0215189Y0222300D01*
X0215724Y0222835D01*
X0216168Y0223446D01*
X0216511Y0224119D01*
X0216744Y0224838D01*
X0216862Y0225584D01*
X0216862Y0225762D01*
X0212262Y0225762D01*
X0212262Y0226162D01*
X0212262Y0230762D01*
X0212440Y0230762D01*
X0213186Y0230643D01*
X0213905Y0230410D01*
X0213865Y0230423D02*
X0219767Y0230423D01*
X0217854Y0228824D02*
X0215916Y0228824D01*
X0216699Y0227226D02*
X0217174Y0227226D01*
X0217062Y0225627D02*
X0216862Y0225627D01*
X0216465Y0224029D02*
X0217451Y0224029D01*
X0218523Y0222430D02*
X0215319Y0222430D01*
X0212262Y0222430D02*
X0211862Y0222430D01*
X0211862Y0224029D02*
X0212262Y0224029D01*
X0212262Y0225627D02*
X0211862Y0225627D01*
X0211862Y0226162D02*
X0207262Y0226162D01*
X0207262Y0226339D01*
X0207381Y0227086D01*
X0207614Y0227804D01*
X0207957Y0228477D01*
X0208401Y0229089D01*
X0208935Y0229623D01*
X0209547Y0230067D01*
X0210220Y0230410D01*
X0210938Y0230643D01*
X0211685Y0230762D01*
X0211862Y0230762D01*
X0211862Y0226162D01*
X0211862Y0227226D02*
X0212262Y0227226D01*
X0212262Y0228824D02*
X0211862Y0228824D01*
X0211862Y0230423D02*
X0212262Y0230423D01*
X0210260Y0230423D02*
X0203865Y0230423D01*
X0203905Y0230410D02*
X0203186Y0230643D01*
X0202440Y0230762D01*
X0202262Y0230762D01*
X0202262Y0226162D01*
X0201862Y0226162D01*
X0201862Y0225762D01*
X0197262Y0225762D01*
X0197262Y0225584D01*
X0197381Y0224838D01*
X0197614Y0224119D01*
X0197957Y0223446D01*
X0198401Y0222835D01*
X0198935Y0222300D01*
X0199547Y0221856D01*
X0200220Y0221513D01*
X0200938Y0221280D01*
X0201685Y0221162D01*
X0201862Y0221162D01*
X0201862Y0225762D01*
X0202262Y0225762D01*
X0202262Y0221162D01*
X0202440Y0221162D01*
X0203186Y0221280D01*
X0203905Y0221513D01*
X0204578Y0221856D01*
X0205189Y0222300D01*
X0205724Y0222835D01*
X0206168Y0223446D01*
X0206511Y0224119D01*
X0206744Y0224838D01*
X0206862Y0225584D01*
X0206862Y0225762D01*
X0202262Y0225762D01*
X0202262Y0226162D01*
X0206862Y0226162D01*
X0206862Y0226339D01*
X0206744Y0227086D01*
X0206511Y0227804D01*
X0206168Y0228477D01*
X0205724Y0229089D01*
X0205189Y0229623D01*
X0204578Y0230067D01*
X0203905Y0230410D01*
X0202262Y0230423D02*
X0201862Y0230423D01*
X0201862Y0230762D02*
X0201685Y0230762D01*
X0200938Y0230643D01*
X0200220Y0230410D01*
X0199547Y0230067D01*
X0198935Y0229623D01*
X0198401Y0229089D01*
X0197957Y0228477D01*
X0197614Y0227804D01*
X0197381Y0227086D01*
X0197262Y0226339D01*
X0197262Y0226162D01*
X0201862Y0226162D01*
X0201862Y0230762D01*
X0200260Y0230423D02*
X0194358Y0230423D01*
X0194926Y0232021D02*
X0198727Y0232021D01*
X0197397Y0233620D02*
X0196255Y0233620D01*
X0196826Y0235218D02*
X0196826Y0235218D01*
X0196826Y0236817D02*
X0196826Y0236817D01*
X0197233Y0238415D02*
X0196235Y0238415D01*
X0195741Y0240014D02*
X0194876Y0240014D01*
X0195445Y0241612D02*
X0098363Y0241612D01*
X0097821Y0241119D02*
X0099658Y0240358D01*
X0101065Y0238951D01*
X0101826Y0237114D01*
X0101826Y0235125D01*
X0101065Y0233287D01*
X0099658Y0231880D01*
X0098201Y0231277D01*
X0099658Y0230673D01*
X0101065Y0229266D01*
X0101826Y0227429D01*
X0101826Y0225440D01*
X0101065Y0223602D01*
X0099658Y0222195D01*
X0097821Y0221434D01*
X0095832Y0221434D01*
X0093994Y0222195D01*
X0092587Y0223602D01*
X0091826Y0225440D01*
X0091826Y0227429D01*
X0092587Y0229266D01*
X0093994Y0230673D01*
X0095451Y0231277D01*
X0093994Y0231880D01*
X0092587Y0233287D01*
X0091826Y0235125D01*
X0091826Y0237114D01*
X0092587Y0238951D01*
X0093994Y0240358D01*
X0095832Y0241119D01*
X0097821Y0241119D01*
X0100002Y0240014D02*
X0148776Y0240014D01*
X0147418Y0238415D02*
X0101287Y0238415D01*
X0101826Y0236817D02*
X0146826Y0236817D01*
X0146826Y0235218D02*
X0101826Y0235218D01*
X0101203Y0233620D02*
X0147397Y0233620D01*
X0148727Y0232021D02*
X0135389Y0232021D01*
X0135510Y0231900D02*
X0134418Y0232992D01*
X0132992Y0233583D01*
X0131448Y0233583D01*
X0130021Y0232992D01*
X0128930Y0231900D01*
X0128339Y0230474D01*
X0128339Y0228930D01*
X0128930Y0227503D01*
X0130021Y0226412D01*
X0131448Y0225821D01*
X0132992Y0225821D01*
X0134418Y0226412D01*
X0135510Y0227503D01*
X0136101Y0228930D01*
X0136101Y0230474D01*
X0135510Y0231900D01*
X0136101Y0230423D02*
X0149767Y0230423D01*
X0147854Y0228824D02*
X0136057Y0228824D01*
X0135233Y0227226D02*
X0147174Y0227226D01*
X0147062Y0225627D02*
X0101826Y0225627D01*
X0101826Y0227226D02*
X0129207Y0227226D01*
X0128382Y0228824D02*
X0101248Y0228824D01*
X0099908Y0230423D02*
X0128339Y0230423D01*
X0129051Y0232021D02*
X0099800Y0232021D01*
X0101242Y0224029D02*
X0147451Y0224029D01*
X0148523Y0222430D02*
X0099893Y0222430D01*
X0093759Y0222430D02*
X0089893Y0222430D01*
X0091242Y0224029D02*
X0092411Y0224029D01*
X0091826Y0225627D02*
X0091826Y0225627D01*
X0091826Y0227226D02*
X0091826Y0227226D01*
X0091248Y0228824D02*
X0092404Y0228824D01*
X0093744Y0230423D02*
X0089908Y0230423D01*
X0089800Y0232021D02*
X0093853Y0232021D01*
X0092449Y0233620D02*
X0091203Y0233620D01*
X0091826Y0235218D02*
X0091826Y0235218D01*
X0091826Y0236817D02*
X0091826Y0236817D01*
X0091287Y0238415D02*
X0092365Y0238415D01*
X0093650Y0240014D02*
X0090002Y0240014D01*
X0088363Y0241612D02*
X0095132Y0241612D01*
X0092821Y0243211D02*
X0090674Y0243211D01*
X0091519Y0244810D02*
X0091976Y0244810D01*
X0091747Y0246408D02*
X0091747Y0246408D01*
X0091475Y0248007D02*
X0092019Y0248007D01*
X0092926Y0249605D02*
X0090569Y0249605D01*
X0090423Y0252802D02*
X0093230Y0252802D01*
X0092191Y0254401D02*
X0091461Y0254401D01*
X0091826Y0255999D02*
X0091826Y0255999D01*
X0091691Y0257598D02*
X0091961Y0257598D01*
X0092675Y0259196D02*
X0090978Y0259196D01*
X0088984Y0260795D02*
X0094668Y0260795D01*
X0093717Y0262393D02*
X0089935Y0262393D01*
X0091259Y0263992D02*
X0092393Y0263992D01*
X0091826Y0265590D02*
X0091826Y0265590D01*
X0091826Y0267189D02*
X0091826Y0267189D01*
X0091231Y0268787D02*
X0092422Y0268787D01*
X0093785Y0270386D02*
X0089867Y0270386D01*
X0098984Y0260795D02*
X0198733Y0260795D01*
X0198161Y0259196D02*
X0100978Y0259196D01*
X0100674Y0243211D02*
X0195921Y0243211D01*
X0201668Y0243211D02*
X0294736Y0243211D01*
X0294716Y0243163D02*
X0294716Y0241831D01*
X0295226Y0240599D01*
X0296169Y0239657D01*
X0297400Y0239147D01*
X0298733Y0239147D01*
X0299964Y0239657D01*
X0300906Y0240599D01*
X0301416Y0241831D01*
X0301416Y0243163D01*
X0300906Y0244395D01*
X0299964Y0245337D01*
X0298733Y0245847D01*
X0297400Y0245847D01*
X0296169Y0245337D01*
X0295226Y0244395D01*
X0294716Y0243163D01*
X0294807Y0241612D02*
X0202145Y0241612D01*
X0204876Y0240014D02*
X0208776Y0240014D01*
X0207418Y0238415D02*
X0206235Y0238415D01*
X0206826Y0236817D02*
X0206826Y0236817D01*
X0206826Y0235218D02*
X0206826Y0235218D01*
X0206255Y0233620D02*
X0207397Y0233620D01*
X0208727Y0232021D02*
X0204926Y0232021D01*
X0205916Y0228824D02*
X0208209Y0228824D01*
X0207426Y0227226D02*
X0206699Y0227226D01*
X0206862Y0225627D02*
X0207262Y0225627D01*
X0207660Y0224029D02*
X0206465Y0224029D01*
X0205319Y0222430D02*
X0208806Y0222430D01*
X0202262Y0222430D02*
X0201862Y0222430D01*
X0201862Y0224029D02*
X0202262Y0224029D01*
X0202262Y0225627D02*
X0201862Y0225627D01*
X0201862Y0227226D02*
X0202262Y0227226D01*
X0202262Y0228824D02*
X0201862Y0228824D01*
X0198209Y0228824D02*
X0196271Y0228824D01*
X0196951Y0227226D02*
X0197426Y0227226D01*
X0197262Y0225627D02*
X0197062Y0225627D01*
X0196674Y0224029D02*
X0197660Y0224029D01*
X0198806Y0222430D02*
X0195602Y0222430D01*
X0196404Y0220832D02*
X0311128Y0220832D01*
X0311128Y0222430D02*
X0295602Y0222430D01*
X0296301Y0223129D02*
X0294895Y0221723D01*
X0293057Y0220962D01*
X0291068Y0220962D01*
X0289230Y0221723D01*
X0287824Y0223129D01*
X0287062Y0224967D01*
X0286301Y0223129D01*
X0284895Y0221723D01*
X0283057Y0220962D01*
X0281068Y0220962D01*
X0279230Y0221723D01*
X0277824Y0223129D01*
X0277062Y0224967D01*
X0276301Y0223129D01*
X0274895Y0221723D01*
X0273057Y0220962D01*
X0271068Y0220962D01*
X0269230Y0221723D01*
X0267824Y0223129D01*
X0267062Y0224967D01*
X0266301Y0223129D01*
X0264895Y0221723D01*
X0263057Y0220962D01*
X0261068Y0220962D01*
X0259230Y0221723D01*
X0257824Y0223129D01*
X0257062Y0224967D01*
X0256301Y0223129D01*
X0254895Y0221723D01*
X0253057Y0220962D01*
X0251068Y0220962D01*
X0249230Y0221723D01*
X0247824Y0223129D01*
X0247062Y0224967D01*
X0247062Y0226956D01*
X0247824Y0228794D01*
X0249230Y0230200D01*
X0251068Y0230962D01*
X0253057Y0230962D01*
X0254895Y0230200D01*
X0256301Y0228794D01*
X0257062Y0226956D01*
X0257062Y0224967D01*
X0257062Y0226956D01*
X0257824Y0228794D01*
X0259230Y0230200D01*
X0261068Y0230962D01*
X0263057Y0230962D01*
X0264895Y0230200D01*
X0266301Y0228794D01*
X0267062Y0226956D01*
X0267062Y0224967D01*
X0267062Y0226956D01*
X0267824Y0228794D01*
X0269230Y0230200D01*
X0271068Y0230962D01*
X0273057Y0230962D01*
X0274895Y0230200D01*
X0276301Y0228794D01*
X0277062Y0226956D01*
X0277062Y0224967D01*
X0277062Y0226956D01*
X0277824Y0228794D01*
X0279230Y0230200D01*
X0281068Y0230962D01*
X0283057Y0230962D01*
X0284895Y0230200D01*
X0286301Y0228794D01*
X0287062Y0226956D01*
X0287062Y0224967D01*
X0287062Y0226956D01*
X0287824Y0228794D01*
X0289230Y0230200D01*
X0291068Y0230962D01*
X0293057Y0230962D01*
X0294895Y0230200D01*
X0296301Y0228794D01*
X0297062Y0226956D01*
X0297062Y0224967D01*
X0296301Y0223129D01*
X0296674Y0224029D02*
X0311128Y0224029D01*
X0311128Y0225627D02*
X0297062Y0225627D01*
X0296951Y0227226D02*
X0311128Y0227226D01*
X0311128Y0228824D02*
X0296271Y0228824D01*
X0294358Y0230423D02*
X0311128Y0230423D01*
X0311128Y0232021D02*
X0294926Y0232021D01*
X0296255Y0233620D02*
X0311128Y0233620D01*
X0311128Y0235218D02*
X0296826Y0235218D01*
X0296826Y0236817D02*
X0311128Y0236817D01*
X0311128Y0238415D02*
X0296235Y0238415D01*
X0295812Y0240014D02*
X0294876Y0240014D01*
X0295641Y0244810D02*
X0189821Y0244810D01*
X0190491Y0246408D02*
X0261211Y0246408D01*
X0260988Y0246631D02*
X0261930Y0245689D01*
X0263161Y0245179D01*
X0264494Y0245179D01*
X0265725Y0245689D01*
X0266668Y0246631D01*
X0267178Y0247862D01*
X0267178Y0249195D01*
X0266668Y0250426D01*
X0265725Y0251369D01*
X0264494Y0251879D01*
X0263161Y0251879D01*
X0261930Y0251369D01*
X0260988Y0250426D01*
X0260478Y0249195D01*
X0260478Y0247862D01*
X0260988Y0246631D01*
X0260478Y0248007D02*
X0190295Y0248007D01*
X0189141Y0249605D02*
X0260648Y0249605D01*
X0261765Y0251204D02*
X0254916Y0251204D01*
X0255649Y0252802D02*
X0311128Y0252802D01*
X0311128Y0251204D02*
X0265890Y0251204D01*
X0267008Y0249605D02*
X0311128Y0249605D01*
X0311128Y0248007D02*
X0267178Y0248007D01*
X0266445Y0246408D02*
X0311128Y0246408D01*
X0311128Y0244810D02*
X0300492Y0244810D01*
X0301397Y0243211D02*
X0311128Y0243211D01*
X0311128Y0241612D02*
X0301326Y0241612D01*
X0300321Y0240014D02*
X0311128Y0240014D01*
X0311128Y0254401D02*
X0255479Y0254401D01*
X0254361Y0255999D02*
X0311128Y0255999D01*
X0311128Y0257598D02*
X0248980Y0257598D01*
X0249251Y0255999D02*
X0250236Y0255999D01*
X0249119Y0254401D02*
X0248750Y0254401D01*
X0247908Y0259196D02*
X0311128Y0259196D01*
X0311128Y0260795D02*
X0248885Y0260795D01*
X0248916Y0262393D02*
X0311128Y0262393D01*
X0311128Y0263992D02*
X0247983Y0263992D01*
X0243229Y0263992D02*
X0212500Y0263992D01*
X0210207Y0263992D02*
X0185810Y0263992D01*
X0187253Y0265590D02*
X0208371Y0265590D01*
X0208004Y0267189D02*
X0187538Y0267189D01*
X0187052Y0268787D02*
X0208409Y0268787D01*
X0214299Y0268787D02*
X0311128Y0268787D01*
X0311128Y0267189D02*
X0214704Y0267189D01*
X0214337Y0265590D02*
X0311128Y0265590D01*
X0288776Y0240014D02*
X0284876Y0240014D01*
X0286235Y0238415D02*
X0287418Y0238415D01*
X0286826Y0236988D02*
X0286826Y0234999D01*
X0286826Y0236988D01*
X0286826Y0236817D02*
X0286826Y0236817D01*
X0286826Y0235218D02*
X0286826Y0235218D01*
X0286255Y0233620D02*
X0287397Y0233620D01*
X0288727Y0232021D02*
X0284926Y0232021D01*
X0284358Y0230423D02*
X0289767Y0230423D01*
X0287854Y0228824D02*
X0286271Y0228824D01*
X0286951Y0227226D02*
X0287174Y0227226D01*
X0287062Y0225627D02*
X0287062Y0225627D01*
X0286674Y0224029D02*
X0287451Y0224029D01*
X0288523Y0222430D02*
X0285602Y0222430D01*
X0288338Y0212953D02*
X0286911Y0212362D01*
X0285819Y0211270D01*
X0285229Y0209844D01*
X0285229Y0208300D01*
X0285819Y0206873D01*
X0286911Y0205782D01*
X0288338Y0205191D01*
X0289882Y0205191D01*
X0291308Y0205782D01*
X0292400Y0206873D01*
X0292991Y0208300D01*
X0292991Y0209844D01*
X0292400Y0211270D01*
X0291308Y0212362D01*
X0289882Y0212953D01*
X0288338Y0212953D01*
X0288063Y0212839D02*
X0243368Y0212839D01*
X0243378Y0212862D02*
X0242868Y0211631D01*
X0241925Y0210689D01*
X0240694Y0210179D01*
X0239361Y0210179D01*
X0238130Y0210689D01*
X0237188Y0211631D01*
X0236678Y0212862D01*
X0236678Y0214195D01*
X0237188Y0215426D01*
X0238130Y0216369D01*
X0239361Y0216879D01*
X0240694Y0216879D01*
X0241925Y0216369D01*
X0242868Y0215426D01*
X0243378Y0214195D01*
X0243378Y0212862D01*
X0243277Y0214438D02*
X0311128Y0214438D01*
X0311128Y0216036D02*
X0242258Y0216036D01*
X0237798Y0216036D02*
X0228699Y0216036D01*
X0228769Y0214438D02*
X0236778Y0214438D01*
X0236687Y0212839D02*
X0227863Y0212839D01*
X0227694Y0217635D02*
X0311128Y0217635D01*
X0311128Y0219233D02*
X0198529Y0219233D01*
X0189767Y0230423D02*
X0184358Y0230423D01*
X0184926Y0232021D02*
X0188727Y0232021D01*
X0187397Y0233620D02*
X0186255Y0233620D01*
X0186826Y0235218D02*
X0186826Y0235218D01*
X0186826Y0236817D02*
X0186826Y0236817D01*
X0186235Y0238415D02*
X0187418Y0238415D01*
X0188776Y0240014D02*
X0184876Y0240014D01*
X0178776Y0240014D02*
X0174876Y0240014D01*
X0176235Y0238415D02*
X0177418Y0238415D01*
X0176826Y0236988D02*
X0176826Y0234999D01*
X0176116Y0233283D01*
X0177537Y0233283D01*
X0176826Y0234999D01*
X0176826Y0236988D01*
X0176826Y0236817D02*
X0176826Y0236817D01*
X0176826Y0235218D02*
X0176826Y0235218D01*
X0176255Y0233620D02*
X0177397Y0233620D01*
X0176630Y0228000D02*
X0177241Y0227389D01*
X0177062Y0226956D01*
X0176630Y0228000D01*
X0176951Y0227226D02*
X0177174Y0227226D01*
X0177062Y0225627D02*
X0177062Y0225627D01*
X0176674Y0224029D02*
X0177451Y0224029D01*
X0178523Y0222430D02*
X0175602Y0222430D01*
X0174619Y0209469D02*
X0173286Y0209469D01*
X0172055Y0208959D01*
X0171112Y0208017D01*
X0170602Y0206786D01*
X0170602Y0205453D01*
X0171112Y0204222D01*
X0172055Y0203279D01*
X0173286Y0202769D01*
X0174619Y0202769D01*
X0175850Y0203279D01*
X0176792Y0204222D01*
X0177302Y0205453D01*
X0177302Y0206786D01*
X0176792Y0208017D01*
X0175850Y0208959D01*
X0174619Y0209469D01*
X0176765Y0208044D02*
X0209662Y0208044D01*
X0209870Y0208546D02*
X0209360Y0207315D01*
X0209360Y0205982D01*
X0209870Y0204751D01*
X0210334Y0204286D01*
X0210089Y0204040D01*
X0209579Y0202809D01*
X0209579Y0201476D01*
X0210089Y0200245D01*
X0211031Y0199303D01*
X0212262Y0198793D01*
X0213595Y0198793D01*
X0214826Y0199303D01*
X0215769Y0200245D01*
X0216279Y0201476D01*
X0216279Y0202809D01*
X0215769Y0204040D01*
X0215304Y0204505D01*
X0215550Y0204751D01*
X0216060Y0205982D01*
X0216060Y0207315D01*
X0215550Y0208546D01*
X0214607Y0209488D01*
X0213376Y0209998D01*
X0212043Y0209998D01*
X0210812Y0209488D01*
X0209870Y0208546D01*
X0211184Y0209642D02*
X0159329Y0209642D01*
X0159353Y0209617D02*
X0157391Y0211580D01*
X0154828Y0212641D01*
X0152053Y0212641D01*
X0151690Y0212491D01*
X0151690Y0214012D01*
X0151043Y0215574D01*
X0149848Y0216769D01*
X0148286Y0217416D01*
X0146595Y0217416D01*
X0145033Y0216769D01*
X0143837Y0215574D01*
X0143440Y0214615D01*
X0143043Y0215574D01*
X0141848Y0216769D01*
X0140286Y0217416D01*
X0138595Y0217416D01*
X0137033Y0216769D01*
X0135837Y0215574D01*
X0135190Y0214012D01*
X0135190Y0212491D01*
X0134828Y0212641D01*
X0132053Y0212641D01*
X0129489Y0211580D01*
X0127527Y0209617D01*
X0126465Y0207054D01*
X0126465Y0204279D01*
X0127527Y0201715D01*
X0129489Y0199753D01*
X0130303Y0199416D01*
X0129489Y0199080D01*
X0127527Y0197117D01*
X0126465Y0194554D01*
X0126465Y0191779D01*
X0127527Y0189215D01*
X0129489Y0187253D01*
X0132053Y0186191D01*
X0134828Y0186191D01*
X0137391Y0187253D01*
X0139353Y0189215D01*
X0139947Y0190649D01*
X0141033Y0189563D01*
X0142595Y0188916D01*
X0144286Y0188916D01*
X0145848Y0189563D01*
X0146933Y0190649D01*
X0147527Y0189215D01*
X0149489Y0187253D01*
X0152053Y0186191D01*
X0154828Y0186191D01*
X0157391Y0187253D01*
X0159353Y0189215D01*
X0160415Y0191779D01*
X0160415Y0194554D01*
X0159353Y0197117D01*
X0157391Y0199080D01*
X0156578Y0199416D01*
X0157391Y0199753D01*
X0159353Y0201715D01*
X0160415Y0204279D01*
X0160415Y0207054D01*
X0159353Y0209617D01*
X0160005Y0208044D02*
X0171139Y0208044D01*
X0170602Y0206445D02*
X0160415Y0206445D01*
X0160415Y0204847D02*
X0170853Y0204847D01*
X0172129Y0203248D02*
X0159988Y0203248D01*
X0159288Y0201650D02*
X0185809Y0201650D01*
X0185533Y0201535D02*
X0184441Y0200444D01*
X0183851Y0199017D01*
X0183851Y0197473D01*
X0184441Y0196047D01*
X0185533Y0194955D01*
X0186960Y0194364D01*
X0188504Y0194364D01*
X0189930Y0194955D01*
X0191022Y0196047D01*
X0191613Y0197473D01*
X0191613Y0199017D01*
X0191022Y0200444D01*
X0189930Y0201535D01*
X0188504Y0202126D01*
X0186960Y0202126D01*
X0185533Y0201535D01*
X0184279Y0200051D02*
X0166578Y0200051D01*
X0166556Y0200103D02*
X0165614Y0201046D01*
X0164382Y0201556D01*
X0163050Y0201556D01*
X0161818Y0201046D01*
X0160876Y0200103D01*
X0160366Y0198872D01*
X0160366Y0197539D01*
X0160876Y0196308D01*
X0161818Y0195366D01*
X0163050Y0194856D01*
X0164382Y0194856D01*
X0165614Y0195366D01*
X0166556Y0196308D01*
X0167066Y0197539D01*
X0167066Y0198872D01*
X0166556Y0200103D01*
X0167066Y0198453D02*
X0183851Y0198453D01*
X0184107Y0196854D02*
X0166782Y0196854D01*
X0165348Y0195256D02*
X0185232Y0195256D01*
X0190231Y0195256D02*
X0255210Y0195256D01*
X0255130Y0195289D02*
X0256361Y0194779D01*
X0257694Y0194779D01*
X0258925Y0195289D01*
X0259868Y0196231D01*
X0260378Y0197462D01*
X0260378Y0198795D01*
X0259868Y0200026D01*
X0258925Y0200969D01*
X0257694Y0201479D01*
X0256361Y0201479D01*
X0255130Y0200969D01*
X0254188Y0200026D01*
X0253678Y0198795D01*
X0253678Y0197462D01*
X0254188Y0196231D01*
X0255130Y0195289D01*
X0253930Y0196854D02*
X0191356Y0196854D01*
X0191613Y0198453D02*
X0253678Y0198453D01*
X0254213Y0200051D02*
X0225538Y0200051D01*
X0225363Y0199876D02*
X0226455Y0200968D01*
X0227046Y0202394D01*
X0227046Y0203938D01*
X0226455Y0205365D01*
X0225363Y0206457D01*
X0223937Y0207047D01*
X0222393Y0207047D01*
X0220966Y0206457D01*
X0219875Y0205365D01*
X0219284Y0203938D01*
X0219284Y0202394D01*
X0219875Y0200968D01*
X0220966Y0199876D01*
X0222393Y0199285D01*
X0223937Y0199285D01*
X0225363Y0199876D01*
X0226737Y0201650D02*
X0260169Y0201650D01*
X0260169Y0201516D02*
X0260679Y0200285D01*
X0261621Y0199342D01*
X0262853Y0198832D01*
X0264185Y0198832D01*
X0265417Y0199342D01*
X0266359Y0200285D01*
X0266869Y0201516D01*
X0266869Y0202848D01*
X0266359Y0204080D01*
X0265417Y0205022D01*
X0264185Y0205532D01*
X0262853Y0205532D01*
X0261621Y0205022D01*
X0260679Y0204080D01*
X0260169Y0202848D01*
X0260169Y0201516D01*
X0259843Y0200051D02*
X0260912Y0200051D01*
X0260378Y0198453D02*
X0272198Y0198453D01*
X0271980Y0197927D02*
X0271980Y0196595D01*
X0272490Y0195363D01*
X0273433Y0194421D01*
X0274664Y0193911D01*
X0275996Y0193911D01*
X0277228Y0194421D01*
X0278170Y0195363D01*
X0278680Y0196595D01*
X0278680Y0197927D01*
X0278170Y0199159D01*
X0277228Y0200101D01*
X0275996Y0200611D01*
X0274664Y0200611D01*
X0273433Y0200101D01*
X0272490Y0199159D01*
X0271980Y0197927D01*
X0271980Y0196854D02*
X0260126Y0196854D01*
X0258846Y0195256D02*
X0272598Y0195256D01*
X0273383Y0200051D02*
X0266126Y0200051D01*
X0266869Y0201650D02*
X0311128Y0201650D01*
X0311128Y0203248D02*
X0266704Y0203248D01*
X0265592Y0204847D02*
X0311128Y0204847D01*
X0311128Y0206445D02*
X0291972Y0206445D01*
X0292885Y0208044D02*
X0311128Y0208044D01*
X0311128Y0209642D02*
X0292991Y0209642D01*
X0292412Y0211241D02*
X0311128Y0211241D01*
X0311128Y0212839D02*
X0290156Y0212839D01*
X0285807Y0211241D02*
X0261219Y0211241D01*
X0260839Y0211398D02*
X0262070Y0210888D01*
X0263013Y0209946D01*
X0263523Y0208715D01*
X0263523Y0207382D01*
X0263013Y0206151D01*
X0262070Y0205208D01*
X0260839Y0204698D01*
X0259506Y0204698D01*
X0258275Y0205208D01*
X0257333Y0206151D01*
X0256823Y0207382D01*
X0256823Y0208715D01*
X0257333Y0209946D01*
X0258275Y0210888D01*
X0259506Y0211398D01*
X0260839Y0211398D01*
X0259126Y0211241D02*
X0242478Y0211241D01*
X0237578Y0211241D02*
X0157730Y0211241D01*
X0154525Y0214438D02*
X0151514Y0214438D01*
X0151690Y0212839D02*
X0223014Y0212839D01*
X0220955Y0206445D02*
X0216060Y0206445D01*
X0215758Y0208044D02*
X0256823Y0208044D01*
X0257207Y0209642D02*
X0214236Y0209642D01*
X0215589Y0204847D02*
X0219660Y0204847D01*
X0219284Y0203248D02*
X0216097Y0203248D01*
X0216279Y0201650D02*
X0219592Y0201650D01*
X0220791Y0200051D02*
X0215575Y0200051D01*
X0210283Y0200051D02*
X0191184Y0200051D01*
X0189654Y0201650D02*
X0209579Y0201650D01*
X0209760Y0203248D02*
X0175775Y0203248D01*
X0177051Y0204847D02*
X0209830Y0204847D01*
X0209360Y0206445D02*
X0177302Y0206445D01*
X0185602Y0222430D02*
X0188523Y0222430D01*
X0187451Y0224029D02*
X0186674Y0224029D01*
X0187062Y0225627D02*
X0187062Y0225627D01*
X0186951Y0227226D02*
X0187174Y0227226D01*
X0187854Y0228824D02*
X0186271Y0228824D01*
X0160854Y0200051D02*
X0157689Y0200051D01*
X0158018Y0198453D02*
X0160366Y0198453D01*
X0160650Y0196854D02*
X0159463Y0196854D01*
X0160125Y0195256D02*
X0162084Y0195256D01*
X0160415Y0193657D02*
X0302754Y0193657D01*
X0302813Y0193682D02*
X0301582Y0193172D01*
X0300640Y0192229D01*
X0300130Y0190998D01*
X0300130Y0190545D01*
X0299472Y0191203D01*
X0298241Y0191713D01*
X0296908Y0191713D01*
X0295677Y0191203D01*
X0294734Y0190261D01*
X0294224Y0189030D01*
X0294224Y0187697D01*
X0294734Y0186466D01*
X0295677Y0185523D01*
X0296908Y0185013D01*
X0298241Y0185013D01*
X0299472Y0185523D01*
X0300414Y0186466D01*
X0300924Y0187697D01*
X0300924Y0188150D01*
X0301582Y0187492D01*
X0302813Y0186982D01*
X0304146Y0186982D01*
X0305377Y0187492D01*
X0306320Y0188434D01*
X0306830Y0189665D01*
X0306830Y0190998D01*
X0306320Y0192229D01*
X0305377Y0193172D01*
X0304146Y0193682D01*
X0302813Y0193682D01*
X0304205Y0193657D02*
X0311128Y0193657D01*
X0311128Y0192059D02*
X0306390Y0192059D01*
X0306830Y0190460D02*
X0311128Y0190460D01*
X0307115Y0188862D02*
X0306497Y0188862D01*
X0306119Y0187263D02*
X0304825Y0187263D01*
X0306062Y0185665D02*
X0299613Y0185665D01*
X0300745Y0187263D02*
X0302134Y0187263D01*
X0300569Y0192059D02*
X0160415Y0192059D01*
X0159869Y0190460D02*
X0275603Y0190460D01*
X0275443Y0190300D02*
X0276385Y0191243D01*
X0277617Y0191753D01*
X0278949Y0191753D01*
X0280180Y0191243D01*
X0281123Y0190300D01*
X0281633Y0189069D01*
X0281633Y0188800D01*
X0282886Y0188800D01*
X0284118Y0188290D01*
X0285060Y0187347D01*
X0285570Y0186116D01*
X0285570Y0184784D01*
X0285060Y0183552D01*
X0284118Y0182610D01*
X0282886Y0182100D01*
X0281554Y0182100D01*
X0280322Y0182610D01*
X0279380Y0183552D01*
X0278870Y0184784D01*
X0278870Y0185053D01*
X0277617Y0185053D01*
X0276385Y0185563D01*
X0275443Y0186505D01*
X0274933Y0187736D01*
X0274933Y0189069D01*
X0275443Y0190300D01*
X0274933Y0188862D02*
X0159000Y0188862D01*
X0157401Y0187263D02*
X0275129Y0187263D01*
X0276283Y0185665D02*
X0190286Y0185665D01*
X0190572Y0185379D02*
X0189629Y0186321D01*
X0188398Y0186831D01*
X0187065Y0186831D01*
X0185834Y0186321D01*
X0184892Y0185379D01*
X0184382Y0184148D01*
X0184382Y0182815D01*
X0184892Y0181584D01*
X0185455Y0181021D01*
X0184892Y0180458D01*
X0184382Y0179226D01*
X0184382Y0177894D01*
X0184892Y0176662D01*
X0185834Y0175720D01*
X0187065Y0175210D01*
X0188398Y0175210D01*
X0189629Y0175720D01*
X0190572Y0176662D01*
X0191082Y0177894D01*
X0191082Y0179226D01*
X0190572Y0180458D01*
X0190009Y0181021D01*
X0190572Y0181584D01*
X0191082Y0182815D01*
X0191082Y0184148D01*
X0190572Y0185379D01*
X0191082Y0184066D02*
X0279167Y0184066D01*
X0280666Y0182468D02*
X0190938Y0182468D01*
X0190160Y0180869D02*
X0285342Y0180869D01*
X0284892Y0180418D02*
X0284382Y0179187D01*
X0284382Y0177854D01*
X0284892Y0176623D01*
X0285834Y0175681D01*
X0287065Y0175171D01*
X0288398Y0175171D01*
X0289629Y0175681D01*
X0290572Y0176623D01*
X0291082Y0177854D01*
X0291082Y0179187D01*
X0290572Y0180418D01*
X0289914Y0181076D01*
X0290367Y0181076D01*
X0291598Y0181586D01*
X0292540Y0182529D01*
X0293050Y0183760D01*
X0293050Y0185093D01*
X0292540Y0186324D01*
X0291598Y0187266D01*
X0290367Y0187776D01*
X0289034Y0187776D01*
X0287803Y0187266D01*
X0286860Y0186324D01*
X0286350Y0185093D01*
X0286350Y0183760D01*
X0286860Y0182529D01*
X0287518Y0181871D01*
X0287065Y0181871D01*
X0285834Y0181361D01*
X0284892Y0180418D01*
X0284416Y0179271D02*
X0191063Y0179271D01*
X0190990Y0177672D02*
X0284457Y0177672D01*
X0285441Y0176074D02*
X0189983Y0176074D01*
X0189629Y0173526D02*
X0188398Y0174036D01*
X0187065Y0174036D01*
X0185834Y0173526D01*
X0184892Y0172584D01*
X0184382Y0171352D01*
X0184382Y0170020D01*
X0184892Y0168788D01*
X0185834Y0167846D01*
X0187065Y0167336D01*
X0188398Y0167336D01*
X0189629Y0167846D01*
X0190572Y0168788D01*
X0191082Y0170020D01*
X0191082Y0171352D01*
X0190572Y0172584D01*
X0189629Y0173526D01*
X0190279Y0172877D02*
X0219866Y0172877D01*
X0219982Y0172992D02*
X0218890Y0171900D01*
X0218299Y0170474D01*
X0218299Y0168930D01*
X0218890Y0167503D01*
X0219982Y0166412D01*
X0221409Y0165821D01*
X0222953Y0165821D01*
X0224379Y0166412D01*
X0225471Y0167503D01*
X0226062Y0168930D01*
X0226062Y0170474D01*
X0225471Y0171900D01*
X0224379Y0172992D01*
X0222953Y0173583D01*
X0221409Y0173583D01*
X0219982Y0172992D01*
X0218633Y0171278D02*
X0191082Y0171278D01*
X0190941Y0169679D02*
X0218299Y0169679D01*
X0218651Y0168081D02*
X0189864Y0168081D01*
X0187661Y0165652D02*
X0186430Y0166162D01*
X0185097Y0166162D01*
X0183866Y0165652D01*
X0182923Y0164710D01*
X0182413Y0163478D01*
X0182413Y0162146D01*
X0182923Y0160914D01*
X0183866Y0159972D01*
X0185097Y0159462D01*
X0186430Y0159462D01*
X0187661Y0159972D01*
X0188603Y0160914D01*
X0189113Y0162146D01*
X0189113Y0163478D01*
X0188603Y0164710D01*
X0187661Y0165652D01*
X0188429Y0164884D02*
X0239830Y0164884D01*
X0239616Y0164670D02*
X0239106Y0163439D01*
X0239106Y0162106D01*
X0239616Y0160875D01*
X0240558Y0159933D01*
X0241790Y0159423D01*
X0243122Y0159423D01*
X0244354Y0159933D01*
X0245296Y0160875D01*
X0245806Y0162106D01*
X0245806Y0163439D01*
X0245296Y0164670D01*
X0244354Y0165613D01*
X0243122Y0166123D01*
X0241790Y0166123D01*
X0240558Y0165613D01*
X0239616Y0164670D01*
X0239106Y0163285D02*
X0189113Y0163285D01*
X0188923Y0161687D02*
X0239280Y0161687D01*
X0240403Y0160088D02*
X0187777Y0160088D01*
X0183749Y0160088D02*
X0158160Y0160088D01*
X0157391Y0159320D02*
X0159353Y0161282D01*
X0160415Y0163846D01*
X0160415Y0166621D01*
X0159353Y0169184D01*
X0157391Y0171146D01*
X0156578Y0171483D01*
X0157391Y0171820D01*
X0159353Y0173782D01*
X0160415Y0176346D01*
X0160415Y0179121D01*
X0159353Y0181684D01*
X0157391Y0183646D01*
X0154828Y0184708D01*
X0152053Y0184708D01*
X0149489Y0183646D01*
X0147527Y0181684D01*
X0146933Y0180251D01*
X0145848Y0181336D01*
X0144286Y0181983D01*
X0142595Y0181983D01*
X0141033Y0181336D01*
X0139947Y0180251D01*
X0139353Y0181684D01*
X0137391Y0183646D01*
X0134828Y0184708D01*
X0132053Y0184708D01*
X0129489Y0183646D01*
X0127527Y0181684D01*
X0126465Y0179121D01*
X0126465Y0176346D01*
X0127527Y0173782D01*
X0129489Y0171820D01*
X0130303Y0171483D01*
X0129489Y0171146D01*
X0127527Y0169184D01*
X0126465Y0166621D01*
X0126465Y0163846D01*
X0127527Y0161282D01*
X0129489Y0159320D01*
X0132053Y0158258D01*
X0134828Y0158258D01*
X0135190Y0158409D01*
X0135190Y0156888D01*
X0135837Y0155326D01*
X0137033Y0154130D01*
X0138595Y0153483D01*
X0140286Y0153483D01*
X0141848Y0154130D01*
X0143043Y0155326D01*
X0143440Y0156284D01*
X0143837Y0155326D01*
X0145033Y0154130D01*
X0146595Y0153483D01*
X0148286Y0153483D01*
X0149848Y0154130D01*
X0151043Y0155326D01*
X0151690Y0156888D01*
X0151690Y0158409D01*
X0152053Y0158258D01*
X0154828Y0158258D01*
X0157391Y0159320D01*
X0155387Y0158490D02*
X0275619Y0158490D01*
X0275648Y0158478D02*
X0276981Y0158478D01*
X0278212Y0158988D01*
X0279154Y0159930D01*
X0279664Y0161161D01*
X0279664Y0162494D01*
X0279154Y0163725D01*
X0278212Y0164668D01*
X0276981Y0165178D01*
X0275648Y0165178D01*
X0274417Y0164668D01*
X0273474Y0163725D01*
X0272964Y0162494D01*
X0272964Y0161161D01*
X0273474Y0159930D01*
X0274417Y0158988D01*
X0275648Y0158478D01*
X0277010Y0158490D02*
X0295151Y0158490D01*
X0294734Y0158907D02*
X0295677Y0157964D01*
X0296908Y0157454D01*
X0298241Y0157454D01*
X0299472Y0157964D01*
X0300414Y0158907D01*
X0300924Y0160138D01*
X0300924Y0161471D01*
X0300414Y0162702D01*
X0299472Y0163644D01*
X0298241Y0164154D01*
X0297712Y0164154D01*
X0298168Y0165256D01*
X0298168Y0166589D01*
X0297658Y0167820D01*
X0296716Y0168762D01*
X0295485Y0169272D01*
X0294152Y0169272D01*
X0292921Y0168762D01*
X0291978Y0167820D01*
X0291468Y0166589D01*
X0291468Y0165256D01*
X0291978Y0164025D01*
X0292921Y0163082D01*
X0294152Y0162572D01*
X0294681Y0162572D01*
X0294224Y0161471D01*
X0294224Y0160138D01*
X0294734Y0158907D01*
X0294245Y0160088D02*
X0279220Y0160088D01*
X0279664Y0161687D02*
X0294314Y0161687D01*
X0292718Y0163285D02*
X0279337Y0163285D01*
X0277690Y0164884D02*
X0291622Y0164884D01*
X0291468Y0166482D02*
X0224450Y0166482D01*
X0225710Y0168081D02*
X0292239Y0168081D01*
X0290022Y0176074D02*
X0311128Y0176074D01*
X0311128Y0177672D02*
X0291006Y0177672D01*
X0291047Y0179271D02*
X0311128Y0179271D01*
X0311128Y0180869D02*
X0290121Y0180869D01*
X0292479Y0182468D02*
X0311128Y0182468D01*
X0306976Y0184066D02*
X0293050Y0184066D01*
X0292813Y0185665D02*
X0295535Y0185665D01*
X0294404Y0187263D02*
X0291601Y0187263D01*
X0294224Y0188862D02*
X0281633Y0188862D01*
X0280963Y0190460D02*
X0294933Y0190460D01*
X0287799Y0187263D02*
X0285095Y0187263D01*
X0285570Y0185665D02*
X0286587Y0185665D01*
X0286350Y0184066D02*
X0285273Y0184066D01*
X0283774Y0182468D02*
X0286921Y0182468D01*
X0278063Y0195256D02*
X0311128Y0195256D01*
X0311128Y0196854D02*
X0278680Y0196854D01*
X0278462Y0198453D02*
X0311128Y0198453D01*
X0311128Y0200051D02*
X0277277Y0200051D01*
X0286248Y0206445D02*
X0263135Y0206445D01*
X0263523Y0208044D02*
X0285335Y0208044D01*
X0285229Y0209642D02*
X0263138Y0209642D01*
X0261446Y0204847D02*
X0261197Y0204847D01*
X0260335Y0203248D02*
X0227046Y0203248D01*
X0226670Y0204847D02*
X0259148Y0204847D01*
X0257211Y0206445D02*
X0225375Y0206445D01*
X0245602Y0222430D02*
X0248523Y0222430D01*
X0247451Y0224029D02*
X0246674Y0224029D01*
X0247062Y0225627D02*
X0247062Y0225627D01*
X0246951Y0227226D02*
X0247174Y0227226D01*
X0247854Y0228824D02*
X0246271Y0228824D01*
X0244358Y0230423D02*
X0249767Y0230423D01*
X0248727Y0232021D02*
X0244926Y0232021D01*
X0246255Y0233620D02*
X0247397Y0233620D01*
X0246826Y0234999D02*
X0246826Y0236988D01*
X0246826Y0234999D01*
X0246826Y0235218D02*
X0246826Y0235218D01*
X0246826Y0236817D02*
X0246826Y0236817D01*
X0246235Y0238415D02*
X0247418Y0238415D01*
X0248776Y0240014D02*
X0244876Y0240014D01*
X0254876Y0240014D02*
X0258776Y0240014D01*
X0257418Y0238415D02*
X0256235Y0238415D01*
X0256826Y0236988D02*
X0256826Y0234999D01*
X0256826Y0236988D01*
X0256826Y0236817D02*
X0256826Y0236817D01*
X0256826Y0235218D02*
X0256826Y0235218D01*
X0256255Y0233620D02*
X0257397Y0233620D01*
X0258727Y0232021D02*
X0254926Y0232021D01*
X0254358Y0230423D02*
X0259767Y0230423D01*
X0257854Y0228824D02*
X0256271Y0228824D01*
X0256951Y0227226D02*
X0257174Y0227226D01*
X0257062Y0225627D02*
X0257062Y0225627D01*
X0256674Y0224029D02*
X0257451Y0224029D01*
X0258523Y0222430D02*
X0255602Y0222430D01*
X0264358Y0230423D02*
X0269767Y0230423D01*
X0268727Y0232021D02*
X0264926Y0232021D01*
X0266255Y0233620D02*
X0267397Y0233620D01*
X0266826Y0234999D02*
X0266826Y0236988D01*
X0266826Y0234999D01*
X0266826Y0235218D02*
X0266826Y0235218D01*
X0266826Y0236817D02*
X0266826Y0236817D01*
X0266235Y0238415D02*
X0267418Y0238415D01*
X0268776Y0240014D02*
X0264876Y0240014D01*
X0274876Y0240014D02*
X0278776Y0240014D01*
X0277418Y0238415D02*
X0276235Y0238415D01*
X0276826Y0236988D02*
X0276826Y0234999D01*
X0276826Y0236988D01*
X0276826Y0236817D02*
X0276826Y0236817D01*
X0276826Y0235218D02*
X0276826Y0235218D01*
X0276255Y0233620D02*
X0277397Y0233620D01*
X0278727Y0232021D02*
X0274926Y0232021D01*
X0274358Y0230423D02*
X0279767Y0230423D01*
X0277854Y0228824D02*
X0276271Y0228824D01*
X0276951Y0227226D02*
X0277174Y0227226D01*
X0277062Y0225627D02*
X0277062Y0225627D01*
X0276674Y0224029D02*
X0277451Y0224029D01*
X0278523Y0222430D02*
X0275602Y0222430D01*
X0268523Y0222430D02*
X0265602Y0222430D01*
X0266674Y0224029D02*
X0267451Y0224029D01*
X0267062Y0225627D02*
X0267062Y0225627D01*
X0266951Y0227226D02*
X0267174Y0227226D01*
X0267854Y0228824D02*
X0266271Y0228824D01*
X0235728Y0271984D02*
X0184515Y0271984D01*
X0185176Y0273583D02*
X0235563Y0273583D01*
X0236308Y0275181D02*
X0193563Y0275181D01*
X0193524Y0275088D02*
X0194034Y0276319D01*
X0194034Y0277652D01*
X0193524Y0278883D01*
X0192582Y0279825D01*
X0191351Y0280335D01*
X0190018Y0280335D01*
X0188787Y0279825D01*
X0187844Y0278883D01*
X0187334Y0277652D01*
X0187334Y0276319D01*
X0187844Y0275088D01*
X0188787Y0274145D01*
X0190018Y0273635D01*
X0191351Y0273635D01*
X0192582Y0274145D01*
X0193524Y0275088D01*
X0194034Y0276780D02*
X0238319Y0276780D01*
X0238620Y0278378D02*
X0193733Y0278378D01*
X0192216Y0279977D02*
X0240137Y0279977D01*
X0189153Y0279977D02*
X0185061Y0279977D01*
X0184020Y0278378D02*
X0187635Y0278378D01*
X0187334Y0276780D02*
X0183817Y0276780D01*
X0184976Y0275181D02*
X0187806Y0275181D01*
X0152575Y0219233D02*
X0072328Y0219233D01*
X0072328Y0217635D02*
X0152355Y0217635D01*
X0152819Y0216036D02*
X0150581Y0216036D01*
X0144300Y0216036D02*
X0142581Y0216036D01*
X0136300Y0216036D02*
X0072328Y0216036D01*
X0072328Y0214438D02*
X0135367Y0214438D01*
X0135190Y0212839D02*
X0072328Y0212839D01*
X0072328Y0211241D02*
X0129151Y0211241D01*
X0127552Y0209642D02*
X0072328Y0209642D01*
X0072328Y0208044D02*
X0126875Y0208044D01*
X0126465Y0206445D02*
X0114938Y0206445D01*
X0115375Y0206009D02*
X0114432Y0206951D01*
X0113201Y0207461D01*
X0111868Y0207461D01*
X0110637Y0206951D01*
X0109695Y0206009D01*
X0109185Y0204778D01*
X0109185Y0203445D01*
X0109695Y0202214D01*
X0110637Y0201271D01*
X0111868Y0200761D01*
X0113201Y0200761D01*
X0114432Y0201271D01*
X0115375Y0202214D01*
X0115885Y0203445D01*
X0115885Y0204778D01*
X0115375Y0206009D01*
X0115856Y0204847D02*
X0126465Y0204847D01*
X0126892Y0203248D02*
X0115803Y0203248D01*
X0114811Y0201650D02*
X0127593Y0201650D01*
X0129191Y0200051D02*
X0121712Y0200051D01*
X0121674Y0200143D02*
X0120732Y0201085D01*
X0119500Y0201595D01*
X0118168Y0201595D01*
X0116936Y0201085D01*
X0115994Y0200143D01*
X0115484Y0198911D01*
X0115484Y0197579D01*
X0115994Y0196348D01*
X0116936Y0195405D01*
X0118168Y0194895D01*
X0119500Y0194895D01*
X0120732Y0195405D01*
X0121674Y0196348D01*
X0122184Y0197579D01*
X0122184Y0198911D01*
X0121674Y0200143D01*
X0122184Y0198453D02*
X0128863Y0198453D01*
X0127418Y0196854D02*
X0121884Y0196854D01*
X0120371Y0195256D02*
X0126756Y0195256D01*
X0126465Y0193657D02*
X0111292Y0193657D01*
X0111233Y0193682D02*
X0109900Y0193682D01*
X0108669Y0193172D01*
X0107726Y0192229D01*
X0107216Y0190998D01*
X0107216Y0189665D01*
X0107726Y0188434D01*
X0108669Y0187492D01*
X0109900Y0186982D01*
X0111233Y0186982D01*
X0112464Y0187492D01*
X0113406Y0188434D01*
X0113916Y0189665D01*
X0113916Y0190998D01*
X0113406Y0192229D01*
X0112464Y0193172D01*
X0111233Y0193682D01*
X0109841Y0193657D02*
X0072328Y0193657D01*
X0072328Y0192059D02*
X0107656Y0192059D01*
X0107216Y0190460D02*
X0072328Y0190460D01*
X0072328Y0188862D02*
X0107549Y0188862D01*
X0109221Y0187263D02*
X0072328Y0187263D01*
X0072328Y0185665D02*
X0185177Y0185665D01*
X0184382Y0184066D02*
X0156378Y0184066D01*
X0158570Y0182468D02*
X0184526Y0182468D01*
X0185303Y0180869D02*
X0159691Y0180869D01*
X0160353Y0179271D02*
X0184400Y0179271D01*
X0184474Y0177672D02*
X0168518Y0177672D01*
X0168277Y0177913D02*
X0166850Y0178504D01*
X0165306Y0178504D01*
X0163880Y0177913D01*
X0162788Y0176822D01*
X0162197Y0175395D01*
X0162197Y0173851D01*
X0162788Y0172425D01*
X0163880Y0171333D01*
X0165306Y0170742D01*
X0166850Y0170742D01*
X0168277Y0171333D01*
X0169368Y0172425D01*
X0169959Y0173851D01*
X0169959Y0175395D01*
X0169368Y0176822D01*
X0168277Y0177913D01*
X0169678Y0176074D02*
X0185481Y0176074D01*
X0185185Y0172877D02*
X0169556Y0172877D01*
X0169959Y0174475D02*
X0311128Y0174475D01*
X0311128Y0172877D02*
X0309925Y0172877D01*
X0310257Y0172544D02*
X0309314Y0173487D01*
X0308083Y0173997D01*
X0306750Y0173997D01*
X0305519Y0173487D01*
X0304577Y0172544D01*
X0304067Y0171313D01*
X0304067Y0169980D01*
X0304577Y0168749D01*
X0305519Y0167807D01*
X0306750Y0167297D01*
X0308083Y0167297D01*
X0309314Y0167807D01*
X0310257Y0168749D01*
X0310767Y0169980D01*
X0310767Y0171313D01*
X0310257Y0172544D01*
X0310767Y0171278D02*
X0311128Y0171278D01*
X0311128Y0169679D02*
X0310642Y0169679D01*
X0311128Y0168081D02*
X0309589Y0168081D01*
X0311128Y0166482D02*
X0298168Y0166482D01*
X0298014Y0164884D02*
X0311128Y0164884D01*
X0311128Y0163285D02*
X0299831Y0163285D01*
X0300835Y0161687D02*
X0311128Y0161687D01*
X0311128Y0160088D02*
X0300904Y0160088D01*
X0299998Y0158490D02*
X0311128Y0158490D01*
X0311128Y0156891D02*
X0151690Y0156891D01*
X0151010Y0155293D02*
X0285357Y0155293D01*
X0284422Y0153694D02*
X0148795Y0153694D01*
X0146085Y0153694D02*
X0140795Y0153694D01*
X0138085Y0153694D02*
X0072328Y0153694D01*
X0072328Y0152096D02*
X0284451Y0152096D01*
X0285427Y0150497D02*
X0072328Y0150497D01*
X0072328Y0155293D02*
X0135870Y0155293D01*
X0135190Y0156891D02*
X0072328Y0156891D01*
X0072328Y0158490D02*
X0131494Y0158490D01*
X0128721Y0160088D02*
X0072328Y0160088D01*
X0072328Y0161687D02*
X0127360Y0161687D01*
X0126698Y0163285D02*
X0072328Y0163285D01*
X0072328Y0164884D02*
X0126465Y0164884D01*
X0126465Y0166482D02*
X0072328Y0166482D01*
X0072328Y0168081D02*
X0127070Y0168081D01*
X0128022Y0169679D02*
X0072328Y0169679D01*
X0072328Y0171278D02*
X0129807Y0171278D01*
X0128433Y0172877D02*
X0124190Y0172877D01*
X0124683Y0173370D02*
X0125274Y0174796D01*
X0125274Y0176340D01*
X0124683Y0177766D01*
X0123592Y0178858D01*
X0122165Y0179449D01*
X0120621Y0179449D01*
X0119195Y0178858D01*
X0118103Y0177766D01*
X0117512Y0176340D01*
X0117512Y0174796D01*
X0118103Y0173370D01*
X0119195Y0172278D01*
X0120621Y0171687D01*
X0122165Y0171687D01*
X0123592Y0172278D01*
X0124683Y0173370D01*
X0125141Y0174475D02*
X0127240Y0174475D01*
X0126578Y0176074D02*
X0125274Y0176074D01*
X0124722Y0177672D02*
X0126465Y0177672D01*
X0126527Y0179271D02*
X0122596Y0179271D01*
X0120190Y0179271D02*
X0072328Y0179271D01*
X0072328Y0180869D02*
X0127190Y0180869D01*
X0128310Y0182468D02*
X0072328Y0182468D01*
X0072328Y0184066D02*
X0130502Y0184066D01*
X0129480Y0187263D02*
X0111912Y0187263D01*
X0113583Y0188862D02*
X0127881Y0188862D01*
X0127012Y0190460D02*
X0113916Y0190460D01*
X0113477Y0192059D02*
X0126465Y0192059D01*
X0117297Y0195256D02*
X0072328Y0195256D01*
X0072328Y0196854D02*
X0115784Y0196854D01*
X0115484Y0198453D02*
X0072328Y0198453D01*
X0072328Y0200051D02*
X0115956Y0200051D01*
X0110259Y0201650D02*
X0072328Y0201650D01*
X0072328Y0203248D02*
X0109266Y0203248D01*
X0109213Y0204847D02*
X0072328Y0204847D01*
X0072328Y0206445D02*
X0110131Y0206445D01*
X0118064Y0177672D02*
X0072328Y0177672D01*
X0072328Y0176074D02*
X0117512Y0176074D01*
X0117645Y0174475D02*
X0072328Y0174475D01*
X0072328Y0172877D02*
X0118596Y0172877D01*
X0136378Y0184066D02*
X0150502Y0184066D01*
X0148310Y0182468D02*
X0138570Y0182468D01*
X0139691Y0180869D02*
X0140566Y0180869D01*
X0146315Y0180869D02*
X0147190Y0180869D01*
X0149480Y0187263D02*
X0137401Y0187263D01*
X0139000Y0188862D02*
X0147881Y0188862D01*
X0147012Y0190460D02*
X0146744Y0190460D01*
X0140136Y0190460D02*
X0139869Y0190460D01*
X0158448Y0172877D02*
X0162601Y0172877D01*
X0162197Y0174475D02*
X0159640Y0174475D01*
X0160303Y0176074D02*
X0162478Y0176074D01*
X0163638Y0177672D02*
X0160415Y0177672D01*
X0157074Y0171278D02*
X0164012Y0171278D01*
X0168144Y0171278D02*
X0184382Y0171278D01*
X0184523Y0169679D02*
X0158858Y0169679D01*
X0159811Y0168081D02*
X0185599Y0168081D01*
X0183097Y0164884D02*
X0160415Y0164884D01*
X0160415Y0166482D02*
X0219911Y0166482D01*
X0224495Y0172877D02*
X0304909Y0172877D01*
X0304067Y0171278D02*
X0225729Y0171278D01*
X0226062Y0169679D02*
X0304191Y0169679D01*
X0305245Y0168081D02*
X0297397Y0168081D01*
X0290107Y0155293D02*
X0311128Y0155293D01*
X0311128Y0153694D02*
X0291041Y0153694D01*
X0291012Y0152096D02*
X0311128Y0152096D01*
X0311128Y0150497D02*
X0290036Y0150497D01*
X0273409Y0160088D02*
X0244509Y0160088D01*
X0245632Y0161687D02*
X0272964Y0161687D01*
X0273292Y0163285D02*
X0245806Y0163285D01*
X0245082Y0164884D02*
X0274939Y0164884D01*
X0182603Y0161687D02*
X0159521Y0161687D01*
X0160183Y0163285D02*
X0182413Y0163285D01*
X0143870Y0155293D02*
X0143010Y0155293D01*
X0141724Y0339122D02*
X0072328Y0339122D01*
X0072328Y0340720D02*
X0141075Y0340720D01*
X0141279Y0342319D02*
X0072328Y0342319D01*
X0072328Y0343917D02*
X0142446Y0343917D01*
X0155838Y0350138D02*
X0156348Y0348907D01*
X0157291Y0347964D01*
X0158522Y0347454D01*
X0159855Y0347454D01*
X0161086Y0347964D01*
X0162028Y0348907D01*
X0162538Y0350138D01*
X0162538Y0351471D01*
X0162028Y0352702D01*
X0161957Y0352773D01*
X0162028Y0352844D01*
X0162538Y0354075D01*
X0162538Y0355408D01*
X0162028Y0356639D01*
X0161086Y0357581D01*
X0159855Y0358091D01*
X0158522Y0358091D01*
X0157291Y0357581D01*
X0156348Y0356639D01*
X0155838Y0355408D01*
X0155838Y0354075D01*
X0156348Y0352844D01*
X0156419Y0352773D01*
X0156348Y0352702D01*
X0155838Y0351471D01*
X0155838Y0350138D01*
X0155838Y0350311D02*
X0109619Y0350311D01*
X0110457Y0348713D02*
X0156542Y0348713D01*
X0156020Y0351910D02*
X0090263Y0351910D01*
X0090235Y0351979D02*
X0089143Y0353071D01*
X0087716Y0353662D01*
X0086172Y0353662D01*
X0084746Y0353071D01*
X0083654Y0351979D01*
X0083063Y0350553D01*
X0083063Y0349009D01*
X0083654Y0347582D01*
X0084746Y0346490D01*
X0086172Y0345899D01*
X0087716Y0345899D01*
X0089143Y0346490D01*
X0090235Y0347582D01*
X0090825Y0349009D01*
X0090825Y0350553D01*
X0090235Y0351979D01*
X0090825Y0350311D02*
X0103640Y0350311D01*
X0102802Y0348713D02*
X0090703Y0348713D01*
X0089767Y0347114D02*
X0102748Y0347114D01*
X0103437Y0345516D02*
X0072328Y0345516D01*
X0072328Y0347114D02*
X0084122Y0347114D01*
X0083186Y0348713D02*
X0072328Y0348713D01*
X0072328Y0350311D02*
X0083063Y0350311D01*
X0083625Y0351910D02*
X0072328Y0351910D01*
X0072328Y0353508D02*
X0085802Y0353508D01*
X0088087Y0353508D02*
X0117849Y0353508D01*
X0117059Y0355107D02*
X0072328Y0355107D01*
X0072328Y0356705D02*
X0117205Y0356705D01*
X0118289Y0358304D02*
X0072328Y0358304D01*
X0072328Y0359902D02*
X0120996Y0359902D01*
X0121498Y0361501D02*
X0072328Y0361501D01*
X0072328Y0363099D02*
X0178431Y0363099D01*
X0180178Y0364698D02*
X0072328Y0364698D01*
X0072328Y0411055D02*
X0102164Y0411055D01*
X0101047Y0412653D02*
X0072328Y0412653D01*
X0072328Y0414252D02*
X0100878Y0414252D01*
X0101612Y0415850D02*
X0072328Y0415850D01*
X0072328Y0430237D02*
X0128916Y0430237D01*
X0127834Y0431835D02*
X0072328Y0431835D01*
X0072328Y0433434D02*
X0127689Y0433434D01*
X0128482Y0435032D02*
X0072328Y0435032D01*
X0117820Y0420646D02*
X0124305Y0420646D01*
X0122077Y0419047D02*
X0120048Y0419047D01*
X0120858Y0417449D02*
X0121266Y0417449D01*
X0121062Y0415850D02*
X0121062Y0415850D01*
X0120766Y0414252D02*
X0121359Y0414252D01*
X0122300Y0412653D02*
X0119825Y0412653D01*
X0119175Y0409456D02*
X0122305Y0409456D01*
X0121255Y0407858D02*
X0120302Y0407858D01*
X0120681Y0406259D02*
X0120881Y0406259D01*
X0121008Y0404661D02*
X0120506Y0404661D01*
X0119708Y0403062D02*
X0121710Y0403062D01*
X0123675Y0401464D02*
X0117571Y0401464D01*
X0128088Y0401464D02*
X0133675Y0401464D01*
X0131710Y0403062D02*
X0130053Y0403062D01*
X0130754Y0404661D02*
X0131008Y0404661D01*
X0130881Y0406259D02*
X0130881Y0406259D01*
X0130508Y0407858D02*
X0131255Y0407858D01*
X0132305Y0409456D02*
X0129458Y0409456D01*
X0129825Y0412653D02*
X0132300Y0412653D01*
X0131359Y0414252D02*
X0130766Y0414252D01*
X0131062Y0415850D02*
X0131062Y0415850D01*
X0130858Y0417449D02*
X0131266Y0417449D01*
X0132077Y0419047D02*
X0130048Y0419047D01*
X0127820Y0420646D02*
X0134305Y0420646D01*
X0170960Y0387077D02*
X0283594Y0387077D01*
X0284024Y0385479D02*
X0172156Y0385479D01*
X0170194Y0356705D02*
X0161962Y0356705D01*
X0162538Y0355107D02*
X0169618Y0355107D01*
X0169853Y0353508D02*
X0162304Y0353508D01*
X0162356Y0351910D02*
X0171062Y0351910D01*
X0172907Y0350311D02*
X0162538Y0350311D01*
X0161835Y0348713D02*
X0174592Y0348713D01*
X0156073Y0353508D02*
X0130843Y0353508D01*
X0131633Y0355107D02*
X0155838Y0355107D01*
X0156415Y0356705D02*
X0133930Y0356705D01*
X0128870Y0359902D02*
X0127696Y0359902D01*
X0127194Y0361501D02*
X0129372Y0361501D01*
X0124933Y0355107D02*
X0123759Y0355107D01*
X0122969Y0353508D02*
X0125723Y0353508D01*
X0203444Y0366296D02*
X0206273Y0366296D01*
X0207486Y0364698D02*
X0203877Y0364698D01*
X0265078Y0372690D02*
X0273864Y0372690D01*
X0272743Y0374289D02*
X0265006Y0374289D01*
D15*
X0189307Y0434426D02*
X0181039Y0426159D01*
X0181039Y0410017D01*
X0176984Y0405962D01*
X0175881Y0405962D01*
X0177141Y0230883D02*
X0167259Y0230883D01*
X0162338Y0225962D01*
X0162062Y0225962D01*
X0177141Y0230883D02*
X0182062Y0225962D01*
M02*
