G75*
%MOIN*%
%OFA0B0*%
%FSLAX25Y25*%
%IPPOS*%
%LPD*%
%AMOC8*
5,1,8,0,0,1.08239X$1,22.5*
%
%ADD10C,0.00591*%
%ADD11C,0.00602*%
%ADD12C,0.05315*%
%ADD13C,0.07400*%
%ADD14C,0.00606*%
%ADD15C,0.00600*%
%ADD16C,0.00787*%
%ADD17C,0.00614*%
%ADD18C,0.00605*%
%ADD19C,0.07600*%
%ADD20C,0.03937*%
%ADD21C,0.02700*%
%ADD22C,0.00800*%
%ADD23C,0.03762*%
%ADD24C,0.01600*%
D10*
X0079011Y0288856D02*
X0082751Y0288856D01*
X0079011Y0288856D02*
X0079011Y0292202D01*
X0082751Y0292202D01*
X0082751Y0288856D01*
X0082751Y0289446D02*
X0079011Y0289446D01*
X0079011Y0290036D02*
X0082751Y0290036D01*
X0082751Y0290626D02*
X0079011Y0290626D01*
X0079011Y0291216D02*
X0082751Y0291216D01*
X0082751Y0291806D02*
X0079011Y0291806D01*
X0085704Y0288856D02*
X0089444Y0288856D01*
X0085704Y0288856D02*
X0085704Y0292202D01*
X0089444Y0292202D01*
X0089444Y0288856D01*
X0089444Y0289446D02*
X0085704Y0289446D01*
X0085704Y0290036D02*
X0089444Y0290036D01*
X0089444Y0290626D02*
X0085704Y0290626D01*
X0085704Y0291216D02*
X0089444Y0291216D01*
X0089444Y0291806D02*
X0085704Y0291806D01*
X0148105Y0354092D02*
X0148105Y0357832D01*
X0148105Y0354092D02*
X0144759Y0354092D01*
X0144759Y0357832D01*
X0148105Y0357832D01*
X0148105Y0354682D02*
X0144759Y0354682D01*
X0144759Y0355272D02*
X0148105Y0355272D01*
X0148105Y0355862D02*
X0144759Y0355862D01*
X0144759Y0356452D02*
X0148105Y0356452D01*
X0148105Y0357042D02*
X0144759Y0357042D01*
X0144759Y0357632D02*
X0148105Y0357632D01*
X0148105Y0360785D02*
X0148105Y0364525D01*
X0148105Y0360785D02*
X0144759Y0360785D01*
X0144759Y0364525D01*
X0148105Y0364525D01*
X0148105Y0361375D02*
X0144759Y0361375D01*
X0144759Y0361965D02*
X0148105Y0361965D01*
X0148105Y0362555D02*
X0144759Y0362555D01*
X0144759Y0363145D02*
X0148105Y0363145D01*
X0148105Y0363735D02*
X0144759Y0363735D01*
X0144759Y0364325D02*
X0148105Y0364325D01*
X0144523Y0369840D02*
X0144523Y0373580D01*
X0147869Y0373580D01*
X0147869Y0369840D01*
X0144523Y0369840D01*
X0144523Y0370430D02*
X0147869Y0370430D01*
X0147869Y0371020D02*
X0144523Y0371020D01*
X0144523Y0371610D02*
X0147869Y0371610D01*
X0147869Y0372200D02*
X0144523Y0372200D01*
X0144523Y0372790D02*
X0147869Y0372790D01*
X0147869Y0373380D02*
X0144523Y0373380D01*
X0144523Y0376533D02*
X0144523Y0380273D01*
X0147869Y0380273D01*
X0147869Y0376533D01*
X0144523Y0376533D01*
X0144523Y0377123D02*
X0147869Y0377123D01*
X0147869Y0377713D02*
X0144523Y0377713D01*
X0144523Y0378303D02*
X0147869Y0378303D01*
X0147869Y0378893D02*
X0144523Y0378893D01*
X0144523Y0379483D02*
X0147869Y0379483D01*
X0147869Y0380073D02*
X0144523Y0380073D01*
X0177746Y0341413D02*
X0175102Y0338769D01*
X0177746Y0341413D02*
X0180112Y0339047D01*
X0177468Y0336403D01*
X0175102Y0338769D01*
X0176878Y0336993D02*
X0178058Y0336993D01*
X0178648Y0337583D02*
X0176288Y0337583D01*
X0175698Y0338173D02*
X0179238Y0338173D01*
X0179828Y0338763D02*
X0175108Y0338763D01*
X0175686Y0339353D02*
X0179806Y0339353D01*
X0179216Y0339943D02*
X0176276Y0339943D01*
X0176866Y0340533D02*
X0178626Y0340533D01*
X0178036Y0341123D02*
X0177456Y0341123D01*
X0179834Y0343501D02*
X0182478Y0346145D01*
X0184844Y0343779D01*
X0182200Y0341135D01*
X0179834Y0343501D01*
X0181610Y0341725D02*
X0182790Y0341725D01*
X0183380Y0342315D02*
X0181020Y0342315D01*
X0180430Y0342905D02*
X0183970Y0342905D01*
X0184560Y0343495D02*
X0179840Y0343495D01*
X0180418Y0344085D02*
X0184538Y0344085D01*
X0183948Y0344675D02*
X0181008Y0344675D01*
X0181598Y0345265D02*
X0183358Y0345265D01*
X0182768Y0345855D02*
X0182188Y0345855D01*
X0200553Y0332378D02*
X0203197Y0335022D01*
X0205563Y0332656D01*
X0202919Y0330012D01*
X0200553Y0332378D01*
X0202329Y0330602D02*
X0203509Y0330602D01*
X0204099Y0331192D02*
X0201739Y0331192D01*
X0201149Y0331782D02*
X0204689Y0331782D01*
X0205279Y0332372D02*
X0200559Y0332372D01*
X0201137Y0332962D02*
X0205257Y0332962D01*
X0204667Y0333552D02*
X0201727Y0333552D01*
X0202317Y0334142D02*
X0204077Y0334142D01*
X0203487Y0334732D02*
X0202907Y0334732D01*
X0205286Y0337110D02*
X0207930Y0339754D01*
X0210296Y0337388D01*
X0207652Y0334744D01*
X0205286Y0337110D01*
X0207062Y0335334D02*
X0208242Y0335334D01*
X0208832Y0335924D02*
X0206472Y0335924D01*
X0205882Y0336514D02*
X0209422Y0336514D01*
X0210012Y0337104D02*
X0205292Y0337104D01*
X0205870Y0337694D02*
X0209990Y0337694D01*
X0209400Y0338284D02*
X0206460Y0338284D01*
X0207050Y0338874D02*
X0208810Y0338874D01*
X0208220Y0339464D02*
X0207640Y0339464D01*
X0177673Y0378462D02*
X0177673Y0382202D01*
X0181019Y0382202D01*
X0181019Y0378462D01*
X0177673Y0378462D01*
X0177673Y0379052D02*
X0181019Y0379052D01*
X0181019Y0379642D02*
X0177673Y0379642D01*
X0177673Y0380232D02*
X0181019Y0380232D01*
X0181019Y0380822D02*
X0177673Y0380822D01*
X0177673Y0381412D02*
X0181019Y0381412D01*
X0181019Y0382002D02*
X0177673Y0382002D01*
X0177673Y0385155D02*
X0177673Y0388895D01*
X0181019Y0388895D01*
X0181019Y0385155D01*
X0177673Y0385155D01*
X0177673Y0385745D02*
X0181019Y0385745D01*
X0181019Y0386335D02*
X0177673Y0386335D01*
X0177673Y0386925D02*
X0181019Y0386925D01*
X0181019Y0387515D02*
X0177673Y0387515D01*
X0177673Y0388105D02*
X0181019Y0388105D01*
X0181019Y0388695D02*
X0177673Y0388695D01*
X0154897Y0450076D02*
X0154897Y0453816D01*
X0154897Y0450076D02*
X0151551Y0450076D01*
X0151551Y0453816D01*
X0154897Y0453816D01*
X0154897Y0450666D02*
X0151551Y0450666D01*
X0151551Y0451256D02*
X0154897Y0451256D01*
X0154897Y0451846D02*
X0151551Y0451846D01*
X0151551Y0452436D02*
X0154897Y0452436D01*
X0154897Y0453026D02*
X0151551Y0453026D01*
X0151551Y0453616D02*
X0154897Y0453616D01*
X0154897Y0456769D02*
X0154897Y0460509D01*
X0154897Y0456769D02*
X0151551Y0456769D01*
X0151551Y0460509D01*
X0154897Y0460509D01*
X0154897Y0457359D02*
X0151551Y0457359D01*
X0151551Y0457949D02*
X0154897Y0457949D01*
X0154897Y0458539D02*
X0151551Y0458539D01*
X0151551Y0459129D02*
X0154897Y0459129D01*
X0154897Y0459719D02*
X0151551Y0459719D01*
X0151551Y0460309D02*
X0154897Y0460309D01*
X0178185Y0474524D02*
X0181925Y0474524D01*
X0181925Y0471178D01*
X0178185Y0471178D01*
X0178185Y0474524D01*
X0178185Y0471768D02*
X0181925Y0471768D01*
X0181925Y0472358D02*
X0178185Y0472358D01*
X0178185Y0472948D02*
X0181925Y0472948D01*
X0181925Y0473538D02*
X0178185Y0473538D01*
X0178185Y0474128D02*
X0181925Y0474128D01*
X0184877Y0474524D02*
X0188617Y0474524D01*
X0188617Y0471178D01*
X0184877Y0471178D01*
X0184877Y0474524D01*
X0184877Y0471768D02*
X0188617Y0471768D01*
X0188617Y0472358D02*
X0184877Y0472358D01*
X0184877Y0472948D02*
X0188617Y0472948D01*
X0188617Y0473538D02*
X0184877Y0473538D01*
X0184877Y0474128D02*
X0188617Y0474128D01*
X0201807Y0464485D02*
X0201807Y0460745D01*
X0201807Y0464485D02*
X0205153Y0464485D01*
X0205153Y0460745D01*
X0201807Y0460745D01*
X0201807Y0461335D02*
X0205153Y0461335D01*
X0205153Y0461925D02*
X0201807Y0461925D01*
X0201807Y0462515D02*
X0205153Y0462515D01*
X0205153Y0463105D02*
X0201807Y0463105D01*
X0201807Y0463695D02*
X0205153Y0463695D01*
X0205153Y0464285D02*
X0201807Y0464285D01*
X0201807Y0457792D02*
X0201807Y0454052D01*
X0201807Y0457792D02*
X0205153Y0457792D01*
X0205153Y0454052D01*
X0201807Y0454052D01*
X0201807Y0454642D02*
X0205153Y0454642D01*
X0205153Y0455232D02*
X0201807Y0455232D01*
X0201807Y0455822D02*
X0205153Y0455822D01*
X0205153Y0456412D02*
X0201807Y0456412D01*
X0201807Y0457002D02*
X0205153Y0457002D01*
X0205153Y0457592D02*
X0201807Y0457592D01*
X0230626Y0434958D02*
X0230626Y0433580D01*
X0227830Y0433580D01*
X0227830Y0434958D01*
X0230626Y0434958D01*
X0230626Y0434170D02*
X0227830Y0434170D01*
X0227830Y0434760D02*
X0230626Y0434760D01*
X0266767Y0458777D02*
X0266767Y0462517D01*
X0270113Y0462517D01*
X0270113Y0458777D01*
X0266767Y0458777D01*
X0266767Y0459367D02*
X0270113Y0459367D01*
X0270113Y0459957D02*
X0266767Y0459957D01*
X0266767Y0460547D02*
X0270113Y0460547D01*
X0270113Y0461137D02*
X0266767Y0461137D01*
X0266767Y0461727D02*
X0270113Y0461727D01*
X0270113Y0462317D02*
X0266767Y0462317D01*
X0266767Y0465470D02*
X0266767Y0469210D01*
X0270113Y0469210D01*
X0270113Y0465470D01*
X0266767Y0465470D01*
X0266767Y0466060D02*
X0270113Y0466060D01*
X0270113Y0466650D02*
X0266767Y0466650D01*
X0266767Y0467240D02*
X0270113Y0467240D01*
X0270113Y0467830D02*
X0266767Y0467830D01*
X0266767Y0468420D02*
X0270113Y0468420D01*
X0270113Y0469010D02*
X0266767Y0469010D01*
X0276334Y0462104D02*
X0278106Y0462104D01*
X0276334Y0462104D02*
X0276334Y0470174D01*
X0278106Y0470174D01*
X0278106Y0462104D01*
X0278106Y0462694D02*
X0276334Y0462694D01*
X0276334Y0463284D02*
X0278106Y0463284D01*
X0278106Y0463874D02*
X0276334Y0463874D01*
X0276334Y0464464D02*
X0278106Y0464464D01*
X0278106Y0465054D02*
X0276334Y0465054D01*
X0276334Y0465644D02*
X0278106Y0465644D01*
X0278106Y0466234D02*
X0276334Y0466234D01*
X0276334Y0466824D02*
X0278106Y0466824D01*
X0278106Y0467414D02*
X0276334Y0467414D01*
X0276334Y0468004D02*
X0278106Y0468004D01*
X0278106Y0468594D02*
X0276334Y0468594D01*
X0276334Y0469184D02*
X0278106Y0469184D01*
X0278106Y0469774D02*
X0276334Y0469774D01*
X0281334Y0462104D02*
X0283106Y0462104D01*
X0281334Y0462104D02*
X0281334Y0470174D01*
X0283106Y0470174D01*
X0283106Y0462104D01*
X0283106Y0462694D02*
X0281334Y0462694D01*
X0281334Y0463284D02*
X0283106Y0463284D01*
X0283106Y0463874D02*
X0281334Y0463874D01*
X0281334Y0464464D02*
X0283106Y0464464D01*
X0283106Y0465054D02*
X0281334Y0465054D01*
X0281334Y0465644D02*
X0283106Y0465644D01*
X0283106Y0466234D02*
X0281334Y0466234D01*
X0281334Y0466824D02*
X0283106Y0466824D01*
X0283106Y0467414D02*
X0281334Y0467414D01*
X0281334Y0468004D02*
X0283106Y0468004D01*
X0283106Y0468594D02*
X0281334Y0468594D01*
X0281334Y0469184D02*
X0283106Y0469184D01*
X0283106Y0469774D02*
X0281334Y0469774D01*
X0286334Y0462104D02*
X0288106Y0462104D01*
X0286334Y0462104D02*
X0286334Y0470174D01*
X0288106Y0470174D01*
X0288106Y0462104D01*
X0288106Y0462694D02*
X0286334Y0462694D01*
X0286334Y0463284D02*
X0288106Y0463284D01*
X0288106Y0463874D02*
X0286334Y0463874D01*
X0286334Y0464464D02*
X0288106Y0464464D01*
X0288106Y0465054D02*
X0286334Y0465054D01*
X0286334Y0465644D02*
X0288106Y0465644D01*
X0288106Y0466234D02*
X0286334Y0466234D01*
X0286334Y0466824D02*
X0288106Y0466824D01*
X0288106Y0467414D02*
X0286334Y0467414D01*
X0286334Y0468004D02*
X0288106Y0468004D01*
X0288106Y0468594D02*
X0286334Y0468594D01*
X0286334Y0469184D02*
X0288106Y0469184D01*
X0288106Y0469774D02*
X0286334Y0469774D01*
X0291334Y0462104D02*
X0293106Y0462104D01*
X0291334Y0462104D02*
X0291334Y0470174D01*
X0293106Y0470174D01*
X0293106Y0462104D01*
X0293106Y0462694D02*
X0291334Y0462694D01*
X0291334Y0463284D02*
X0293106Y0463284D01*
X0293106Y0463874D02*
X0291334Y0463874D01*
X0291334Y0464464D02*
X0293106Y0464464D01*
X0293106Y0465054D02*
X0291334Y0465054D01*
X0291334Y0465644D02*
X0293106Y0465644D01*
X0293106Y0466234D02*
X0291334Y0466234D01*
X0291334Y0466824D02*
X0293106Y0466824D01*
X0293106Y0467414D02*
X0291334Y0467414D01*
X0291334Y0468004D02*
X0293106Y0468004D01*
X0293106Y0468594D02*
X0291334Y0468594D01*
X0291334Y0469184D02*
X0293106Y0469184D01*
X0293106Y0469774D02*
X0291334Y0469774D01*
X0291570Y0456415D02*
X0295310Y0456415D01*
X0291570Y0456415D02*
X0291570Y0459761D01*
X0295310Y0459761D01*
X0295310Y0456415D01*
X0295310Y0457005D02*
X0291570Y0457005D01*
X0291570Y0457595D02*
X0295310Y0457595D01*
X0295310Y0458185D02*
X0291570Y0458185D01*
X0291570Y0458775D02*
X0295310Y0458775D01*
X0295310Y0459365D02*
X0291570Y0459365D01*
X0288617Y0456415D02*
X0284877Y0456415D01*
X0284877Y0459761D01*
X0288617Y0459761D01*
X0288617Y0456415D01*
X0288617Y0457005D02*
X0284877Y0457005D01*
X0284877Y0457595D02*
X0288617Y0457595D01*
X0288617Y0458185D02*
X0284877Y0458185D01*
X0284877Y0458775D02*
X0288617Y0458775D01*
X0288617Y0459365D02*
X0284877Y0459365D01*
X0296688Y0455824D02*
X0300428Y0455824D01*
X0300428Y0452478D01*
X0296688Y0452478D01*
X0296688Y0455824D01*
X0296688Y0453068D02*
X0300428Y0453068D01*
X0300428Y0453658D02*
X0296688Y0453658D01*
X0296688Y0454248D02*
X0300428Y0454248D01*
X0300428Y0454838D02*
X0296688Y0454838D01*
X0296688Y0455428D02*
X0300428Y0455428D01*
X0303381Y0455824D02*
X0307121Y0455824D01*
X0307121Y0452478D01*
X0303381Y0452478D01*
X0303381Y0455824D01*
X0303381Y0453068D02*
X0307121Y0453068D01*
X0307121Y0453658D02*
X0303381Y0453658D01*
X0303381Y0454248D02*
X0307121Y0454248D01*
X0307121Y0454838D02*
X0303381Y0454838D01*
X0303381Y0455428D02*
X0307121Y0455428D01*
X0306435Y0472641D02*
X0306435Y0476381D01*
X0306435Y0472641D02*
X0303089Y0472641D01*
X0303089Y0476381D01*
X0306435Y0476381D01*
X0306435Y0473231D02*
X0303089Y0473231D01*
X0303089Y0473821D02*
X0306435Y0473821D01*
X0306435Y0474411D02*
X0303089Y0474411D01*
X0303089Y0475001D02*
X0306435Y0475001D01*
X0306435Y0475591D02*
X0303089Y0475591D01*
X0303089Y0476181D02*
X0306435Y0476181D01*
X0306435Y0479334D02*
X0306435Y0483074D01*
X0306435Y0479334D02*
X0303089Y0479334D01*
X0303089Y0483074D01*
X0306435Y0483074D01*
X0306435Y0479924D02*
X0303089Y0479924D01*
X0303089Y0480514D02*
X0306435Y0480514D01*
X0306435Y0481104D02*
X0303089Y0481104D01*
X0303089Y0481694D02*
X0306435Y0481694D01*
X0306435Y0482284D02*
X0303089Y0482284D01*
X0303089Y0482874D02*
X0306435Y0482874D01*
X0307515Y0493261D02*
X0303775Y0493261D01*
X0307515Y0493261D02*
X0307515Y0489915D01*
X0303775Y0489915D01*
X0303775Y0493261D01*
X0303775Y0490505D02*
X0307515Y0490505D01*
X0307515Y0491095D02*
X0303775Y0491095D01*
X0303775Y0491685D02*
X0307515Y0491685D01*
X0307515Y0492275D02*
X0303775Y0492275D01*
X0303775Y0492865D02*
X0307515Y0492865D01*
X0300822Y0493261D02*
X0297082Y0493261D01*
X0300822Y0493261D02*
X0300822Y0489915D01*
X0297082Y0489915D01*
X0297082Y0493261D01*
X0297082Y0490505D02*
X0300822Y0490505D01*
X0300822Y0491095D02*
X0297082Y0491095D01*
X0297082Y0491685D02*
X0300822Y0491685D01*
X0300822Y0492275D02*
X0297082Y0492275D01*
X0297082Y0492865D02*
X0300822Y0492865D01*
X0293106Y0482576D02*
X0291334Y0482576D01*
X0291334Y0490646D01*
X0293106Y0490646D01*
X0293106Y0482576D01*
X0293106Y0483166D02*
X0291334Y0483166D01*
X0291334Y0483756D02*
X0293106Y0483756D01*
X0293106Y0484346D02*
X0291334Y0484346D01*
X0291334Y0484936D02*
X0293106Y0484936D01*
X0293106Y0485526D02*
X0291334Y0485526D01*
X0291334Y0486116D02*
X0293106Y0486116D01*
X0293106Y0486706D02*
X0291334Y0486706D01*
X0291334Y0487296D02*
X0293106Y0487296D01*
X0293106Y0487886D02*
X0291334Y0487886D01*
X0291334Y0488476D02*
X0293106Y0488476D01*
X0293106Y0489066D02*
X0291334Y0489066D01*
X0291334Y0489656D02*
X0293106Y0489656D01*
X0293106Y0490246D02*
X0291334Y0490246D01*
X0288106Y0482576D02*
X0286334Y0482576D01*
X0286334Y0490646D01*
X0288106Y0490646D01*
X0288106Y0482576D01*
X0288106Y0483166D02*
X0286334Y0483166D01*
X0286334Y0483756D02*
X0288106Y0483756D01*
X0288106Y0484346D02*
X0286334Y0484346D01*
X0286334Y0484936D02*
X0288106Y0484936D01*
X0288106Y0485526D02*
X0286334Y0485526D01*
X0286334Y0486116D02*
X0288106Y0486116D01*
X0288106Y0486706D02*
X0286334Y0486706D01*
X0286334Y0487296D02*
X0288106Y0487296D01*
X0288106Y0487886D02*
X0286334Y0487886D01*
X0286334Y0488476D02*
X0288106Y0488476D01*
X0288106Y0489066D02*
X0286334Y0489066D01*
X0286334Y0489656D02*
X0288106Y0489656D01*
X0288106Y0490246D02*
X0286334Y0490246D01*
X0283106Y0482576D02*
X0281334Y0482576D01*
X0281334Y0490646D01*
X0283106Y0490646D01*
X0283106Y0482576D01*
X0283106Y0483166D02*
X0281334Y0483166D01*
X0281334Y0483756D02*
X0283106Y0483756D01*
X0283106Y0484346D02*
X0281334Y0484346D01*
X0281334Y0484936D02*
X0283106Y0484936D01*
X0283106Y0485526D02*
X0281334Y0485526D01*
X0281334Y0486116D02*
X0283106Y0486116D01*
X0283106Y0486706D02*
X0281334Y0486706D01*
X0281334Y0487296D02*
X0283106Y0487296D01*
X0283106Y0487886D02*
X0281334Y0487886D01*
X0281334Y0488476D02*
X0283106Y0488476D01*
X0283106Y0489066D02*
X0281334Y0489066D01*
X0281334Y0489656D02*
X0283106Y0489656D01*
X0283106Y0490246D02*
X0281334Y0490246D01*
X0278106Y0482576D02*
X0276334Y0482576D01*
X0276334Y0490646D01*
X0278106Y0490646D01*
X0278106Y0482576D01*
X0278106Y0483166D02*
X0276334Y0483166D01*
X0276334Y0483756D02*
X0278106Y0483756D01*
X0278106Y0484346D02*
X0276334Y0484346D01*
X0276334Y0484936D02*
X0278106Y0484936D01*
X0278106Y0485526D02*
X0276334Y0485526D01*
X0276334Y0486116D02*
X0278106Y0486116D01*
X0278106Y0486706D02*
X0276334Y0486706D01*
X0276334Y0487296D02*
X0278106Y0487296D01*
X0278106Y0487886D02*
X0276334Y0487886D01*
X0276334Y0488476D02*
X0278106Y0488476D01*
X0278106Y0489066D02*
X0276334Y0489066D01*
X0276334Y0489656D02*
X0278106Y0489656D01*
X0278106Y0490246D02*
X0276334Y0490246D01*
X0277318Y0367478D02*
X0273578Y0367478D01*
X0273578Y0370824D01*
X0277318Y0370824D01*
X0277318Y0367478D01*
X0277318Y0368068D02*
X0273578Y0368068D01*
X0273578Y0368658D02*
X0277318Y0368658D01*
X0277318Y0369248D02*
X0273578Y0369248D01*
X0273578Y0369838D02*
X0277318Y0369838D01*
X0277318Y0370428D02*
X0273578Y0370428D01*
X0270625Y0367478D02*
X0266885Y0367478D01*
X0266885Y0370824D01*
X0270625Y0370824D01*
X0270625Y0367478D01*
X0270625Y0368068D02*
X0266885Y0368068D01*
X0266885Y0368658D02*
X0270625Y0368658D01*
X0270625Y0369248D02*
X0266885Y0369248D01*
X0266885Y0369838D02*
X0270625Y0369838D01*
X0270625Y0370428D02*
X0266885Y0370428D01*
X0295507Y0344328D02*
X0299247Y0344328D01*
X0299247Y0340982D01*
X0295507Y0340982D01*
X0295507Y0344328D01*
X0295507Y0341572D02*
X0299247Y0341572D01*
X0299247Y0342162D02*
X0295507Y0342162D01*
X0295507Y0342752D02*
X0299247Y0342752D01*
X0299247Y0343342D02*
X0295507Y0343342D01*
X0295507Y0343932D02*
X0299247Y0343932D01*
X0302200Y0344328D02*
X0305940Y0344328D01*
X0305940Y0340982D01*
X0302200Y0340982D01*
X0302200Y0344328D01*
X0302200Y0341572D02*
X0305940Y0341572D01*
X0305940Y0342162D02*
X0302200Y0342162D01*
X0302200Y0342752D02*
X0305940Y0342752D01*
X0305940Y0343342D02*
X0302200Y0343342D01*
X0302200Y0343932D02*
X0305940Y0343932D01*
X0305940Y0334485D02*
X0302200Y0334485D01*
X0305940Y0334485D02*
X0305940Y0331139D01*
X0302200Y0331139D01*
X0302200Y0334485D01*
X0302200Y0331729D02*
X0305940Y0331729D01*
X0305940Y0332319D02*
X0302200Y0332319D01*
X0302200Y0332909D02*
X0305940Y0332909D01*
X0305940Y0333499D02*
X0302200Y0333499D01*
X0302200Y0334089D02*
X0305940Y0334089D01*
X0299247Y0334485D02*
X0295507Y0334485D01*
X0299247Y0334485D02*
X0299247Y0331139D01*
X0295507Y0331139D01*
X0295507Y0334485D01*
X0295507Y0331729D02*
X0299247Y0331729D01*
X0299247Y0332319D02*
X0295507Y0332319D01*
X0295507Y0332909D02*
X0299247Y0332909D01*
X0299247Y0333499D02*
X0295507Y0333499D01*
X0295507Y0334089D02*
X0299247Y0334089D01*
X0279444Y0327202D02*
X0275704Y0327202D01*
X0279444Y0327202D02*
X0279444Y0323856D01*
X0275704Y0323856D01*
X0275704Y0327202D01*
X0275704Y0324446D02*
X0279444Y0324446D01*
X0279444Y0325036D02*
X0275704Y0325036D01*
X0275704Y0325626D02*
X0279444Y0325626D01*
X0279444Y0326216D02*
X0275704Y0326216D01*
X0275704Y0326806D02*
X0279444Y0326806D01*
X0272751Y0327202D02*
X0269011Y0327202D01*
X0272751Y0327202D02*
X0272751Y0323856D01*
X0269011Y0323856D01*
X0269011Y0327202D01*
X0269011Y0324446D02*
X0272751Y0324446D01*
X0272751Y0325036D02*
X0269011Y0325036D01*
X0269011Y0325626D02*
X0272751Y0325626D01*
X0272751Y0326216D02*
X0269011Y0326216D01*
X0269011Y0326806D02*
X0272751Y0326806D01*
X0237240Y0278265D02*
X0233500Y0278265D01*
X0233500Y0281611D01*
X0237240Y0281611D01*
X0237240Y0278265D01*
X0237240Y0278855D02*
X0233500Y0278855D01*
X0233500Y0279445D02*
X0237240Y0279445D01*
X0237240Y0280035D02*
X0233500Y0280035D01*
X0233500Y0280625D02*
X0237240Y0280625D01*
X0237240Y0281215D02*
X0233500Y0281215D01*
X0230547Y0278265D02*
X0226807Y0278265D01*
X0226807Y0281611D01*
X0230547Y0281611D01*
X0230547Y0278265D01*
X0230547Y0278855D02*
X0226807Y0278855D01*
X0226807Y0279445D02*
X0230547Y0279445D01*
X0230547Y0280035D02*
X0226807Y0280035D01*
X0226807Y0280625D02*
X0230547Y0280625D01*
X0230547Y0281215D02*
X0226807Y0281215D01*
X0265192Y0212713D02*
X0268932Y0212713D01*
X0268932Y0209367D01*
X0265192Y0209367D01*
X0265192Y0212713D01*
X0265192Y0209957D02*
X0268932Y0209957D01*
X0268932Y0210547D02*
X0265192Y0210547D01*
X0265192Y0211137D02*
X0268932Y0211137D01*
X0268932Y0211727D02*
X0265192Y0211727D01*
X0265192Y0212317D02*
X0268932Y0212317D01*
X0271885Y0212713D02*
X0275625Y0212713D01*
X0275625Y0209367D01*
X0271885Y0209367D01*
X0271885Y0212713D01*
X0271885Y0209957D02*
X0275625Y0209957D01*
X0275625Y0210547D02*
X0271885Y0210547D01*
X0271885Y0211137D02*
X0275625Y0211137D01*
X0275625Y0211727D02*
X0271885Y0211727D01*
X0271885Y0212317D02*
X0275625Y0212317D01*
X0276610Y0202871D02*
X0272870Y0202871D01*
X0276610Y0202871D02*
X0276610Y0199525D01*
X0272870Y0199525D01*
X0272870Y0202871D01*
X0272870Y0200115D02*
X0276610Y0200115D01*
X0276610Y0200705D02*
X0272870Y0200705D01*
X0272870Y0201295D02*
X0276610Y0201295D01*
X0276610Y0201885D02*
X0272870Y0201885D01*
X0272870Y0202475D02*
X0276610Y0202475D01*
X0269917Y0202871D02*
X0266177Y0202871D01*
X0269917Y0202871D02*
X0269917Y0199525D01*
X0266177Y0199525D01*
X0266177Y0202871D01*
X0266177Y0200115D02*
X0269917Y0200115D01*
X0269917Y0200705D02*
X0266177Y0200705D01*
X0266177Y0201295D02*
X0269917Y0201295D01*
X0269917Y0201885D02*
X0266177Y0201885D01*
X0266177Y0202475D02*
X0269917Y0202475D01*
X0269720Y0193619D02*
X0269720Y0189879D01*
X0269720Y0193619D02*
X0273066Y0193619D01*
X0273066Y0189879D01*
X0269720Y0189879D01*
X0269720Y0190469D02*
X0273066Y0190469D01*
X0273066Y0191059D02*
X0269720Y0191059D01*
X0269720Y0191649D02*
X0273066Y0191649D01*
X0273066Y0192239D02*
X0269720Y0192239D01*
X0269720Y0192829D02*
X0273066Y0192829D01*
X0273066Y0193419D02*
X0269720Y0193419D01*
X0269720Y0186926D02*
X0269720Y0183186D01*
X0269720Y0186926D02*
X0273066Y0186926D01*
X0273066Y0183186D01*
X0269720Y0183186D01*
X0269720Y0183776D02*
X0273066Y0183776D01*
X0273066Y0184366D02*
X0269720Y0184366D01*
X0269720Y0184956D02*
X0273066Y0184956D01*
X0273066Y0185546D02*
X0269720Y0185546D01*
X0269720Y0186136D02*
X0273066Y0186136D01*
X0273066Y0186726D02*
X0269720Y0186726D01*
X0231196Y0187292D02*
X0231196Y0191032D01*
X0234542Y0191032D01*
X0234542Y0187292D01*
X0231196Y0187292D01*
X0231196Y0187882D02*
X0234542Y0187882D01*
X0234542Y0188472D02*
X0231196Y0188472D01*
X0231196Y0189062D02*
X0234542Y0189062D01*
X0234542Y0189652D02*
X0231196Y0189652D01*
X0231196Y0190242D02*
X0234542Y0190242D01*
X0234542Y0190832D02*
X0231196Y0190832D01*
X0231196Y0193985D02*
X0231196Y0197725D01*
X0234542Y0197725D01*
X0234542Y0193985D01*
X0231196Y0193985D01*
X0231196Y0194575D02*
X0234542Y0194575D01*
X0234542Y0195165D02*
X0231196Y0195165D01*
X0231196Y0195755D02*
X0234542Y0195755D01*
X0234542Y0196345D02*
X0231196Y0196345D01*
X0231196Y0196935D02*
X0234542Y0196935D01*
X0234542Y0197525D02*
X0231196Y0197525D01*
X0222270Y0197725D02*
X0222270Y0193985D01*
X0222270Y0197725D02*
X0225616Y0197725D01*
X0225616Y0193985D01*
X0222270Y0193985D01*
X0222270Y0194575D02*
X0225616Y0194575D01*
X0225616Y0195165D02*
X0222270Y0195165D01*
X0222270Y0195755D02*
X0225616Y0195755D01*
X0225616Y0196345D02*
X0222270Y0196345D01*
X0222270Y0196935D02*
X0225616Y0196935D01*
X0225616Y0197525D02*
X0222270Y0197525D01*
X0222270Y0191032D02*
X0222270Y0187292D01*
X0222270Y0191032D02*
X0225616Y0191032D01*
X0225616Y0187292D01*
X0222270Y0187292D01*
X0222270Y0187882D02*
X0225616Y0187882D01*
X0225616Y0188472D02*
X0222270Y0188472D01*
X0222270Y0189062D02*
X0225616Y0189062D01*
X0225616Y0189652D02*
X0222270Y0189652D01*
X0222270Y0190242D02*
X0225616Y0190242D01*
X0225616Y0190832D02*
X0222270Y0190832D01*
D11*
X0297481Y0178062D02*
X0297481Y0175122D01*
X0297481Y0178062D02*
X0302391Y0178062D01*
X0302391Y0175122D01*
X0297481Y0175122D01*
X0297481Y0175723D02*
X0302391Y0175723D01*
X0302391Y0176324D02*
X0297481Y0176324D01*
X0297481Y0176925D02*
X0302391Y0176925D01*
X0302391Y0177526D02*
X0297481Y0177526D01*
X0300770Y0317098D02*
X0303710Y0317098D01*
X0303710Y0313960D01*
X0300770Y0313960D01*
X0300770Y0317098D01*
X0300770Y0314561D02*
X0303710Y0314561D01*
X0303710Y0315162D02*
X0300770Y0315162D01*
X0300770Y0315763D02*
X0303710Y0315763D01*
X0303710Y0316364D02*
X0300770Y0316364D01*
X0300770Y0316965D02*
X0303710Y0316965D01*
X0291308Y0317098D02*
X0288368Y0317098D01*
X0291308Y0317098D02*
X0291308Y0313960D01*
X0288368Y0313960D01*
X0288368Y0317098D01*
X0288368Y0314561D02*
X0291308Y0314561D01*
X0291308Y0315162D02*
X0288368Y0315162D01*
X0288368Y0315763D02*
X0291308Y0315763D01*
X0291308Y0316364D02*
X0288368Y0316364D01*
X0288368Y0316965D02*
X0291308Y0316965D01*
X0230501Y0432195D02*
X0229923Y0432195D01*
X0230501Y0432195D02*
X0230501Y0430633D01*
X0229923Y0430633D01*
X0229923Y0432195D01*
X0229923Y0431234D02*
X0230501Y0431234D01*
X0230501Y0431835D02*
X0229923Y0431835D01*
X0228533Y0432195D02*
X0227955Y0432195D01*
X0228533Y0432195D02*
X0228533Y0430633D01*
X0227955Y0430633D01*
X0227955Y0432195D01*
X0227955Y0431234D02*
X0228533Y0431234D01*
X0228533Y0431835D02*
X0227955Y0431835D01*
X0227955Y0437904D02*
X0228533Y0437904D01*
X0228533Y0436342D01*
X0227955Y0436342D01*
X0227955Y0437904D01*
X0227955Y0436943D02*
X0228533Y0436943D01*
X0228533Y0437544D02*
X0227955Y0437544D01*
X0229923Y0437904D02*
X0230501Y0437904D01*
X0230501Y0436342D01*
X0229923Y0436342D01*
X0229923Y0437904D01*
X0229923Y0436943D02*
X0230501Y0436943D01*
X0230501Y0437544D02*
X0229923Y0437544D01*
X0208887Y0436735D02*
X0205947Y0436735D01*
X0205947Y0441645D01*
X0208887Y0441645D01*
X0208887Y0436735D01*
X0208887Y0437336D02*
X0205947Y0437336D01*
X0205947Y0437937D02*
X0208887Y0437937D01*
X0208887Y0438538D02*
X0205947Y0438538D01*
X0205947Y0439139D02*
X0208887Y0439139D01*
X0208887Y0439740D02*
X0205947Y0439740D01*
X0205947Y0440341D02*
X0208887Y0440341D01*
X0208887Y0440942D02*
X0205947Y0440942D01*
X0205947Y0441543D02*
X0208887Y0441543D01*
X0094438Y0332739D02*
X0091498Y0332739D01*
X0091498Y0335877D01*
X0094438Y0335877D01*
X0094438Y0332739D01*
X0094438Y0333340D02*
X0091498Y0333340D01*
X0091498Y0333941D02*
X0094438Y0333941D01*
X0094438Y0334542D02*
X0091498Y0334542D01*
X0091498Y0335143D02*
X0094438Y0335143D01*
X0094438Y0335744D02*
X0091498Y0335744D01*
X0082036Y0332739D02*
X0079096Y0332739D01*
X0079096Y0335877D01*
X0082036Y0335877D01*
X0082036Y0332739D01*
X0082036Y0333340D02*
X0079096Y0333340D01*
X0079096Y0333941D02*
X0082036Y0333941D01*
X0082036Y0334542D02*
X0079096Y0334542D01*
X0079096Y0335143D02*
X0082036Y0335143D01*
X0082036Y0335744D02*
X0079096Y0335744D01*
X0078789Y0350417D02*
X0078789Y0353357D01*
X0078789Y0350417D02*
X0075651Y0350417D01*
X0075651Y0353357D01*
X0078789Y0353357D01*
X0078789Y0351018D02*
X0075651Y0351018D01*
X0075651Y0351619D02*
X0078789Y0351619D01*
X0078789Y0352220D02*
X0075651Y0352220D01*
X0075651Y0352821D02*
X0078789Y0352821D01*
X0078789Y0362818D02*
X0078789Y0365758D01*
X0078789Y0362818D02*
X0075651Y0362818D01*
X0075651Y0365758D01*
X0078789Y0365758D01*
X0078789Y0363419D02*
X0075651Y0363419D01*
X0075651Y0364020D02*
X0078789Y0364020D01*
X0078789Y0364621D02*
X0075651Y0364621D01*
X0075651Y0365222D02*
X0078789Y0365222D01*
D12*
X0268165Y0445426D03*
X0268165Y0473426D03*
X0268322Y0480584D03*
X0268322Y0508584D03*
D13*
X0271858Y0405962D03*
X0261858Y0405962D03*
X0251858Y0405962D03*
X0241858Y0405962D03*
X0231858Y0405962D03*
X0221858Y0405962D03*
X0205881Y0405962D03*
X0195881Y0405962D03*
X0185881Y0405962D03*
X0175881Y0405962D03*
X0165881Y0405962D03*
X0155881Y0405962D03*
X0145881Y0405962D03*
X0135881Y0405962D03*
X0125881Y0405962D03*
X0115881Y0405962D03*
X0096826Y0266355D03*
X0096826Y0256277D03*
X0096747Y0246355D03*
X0096826Y0236119D03*
X0096826Y0226434D03*
X0086826Y0226434D03*
X0086826Y0236119D03*
X0086747Y0246355D03*
X0086826Y0256277D03*
X0086826Y0266355D03*
X0151826Y0235993D03*
X0161826Y0235993D03*
X0171826Y0235993D03*
X0181826Y0235993D03*
X0191826Y0235993D03*
X0201826Y0235993D03*
X0211826Y0235993D03*
X0221826Y0235993D03*
X0241826Y0235993D03*
X0251826Y0235993D03*
X0261826Y0235993D03*
X0271826Y0235993D03*
X0281826Y0235993D03*
X0291826Y0235993D03*
X0291858Y0405962D03*
X0281858Y0405962D03*
D14*
X0287543Y0431225D02*
X0289101Y0431225D01*
X0287543Y0431225D02*
X0287543Y0435343D01*
X0289101Y0435343D01*
X0289101Y0431225D01*
X0289101Y0431830D02*
X0287543Y0431830D01*
X0287543Y0432435D02*
X0289101Y0432435D01*
X0289101Y0433040D02*
X0287543Y0433040D01*
X0287543Y0433645D02*
X0289101Y0433645D01*
X0289101Y0434250D02*
X0287543Y0434250D01*
X0287543Y0434855D02*
X0289101Y0434855D01*
X0295024Y0431225D02*
X0296582Y0431225D01*
X0295024Y0431225D02*
X0295024Y0435343D01*
X0296582Y0435343D01*
X0296582Y0431225D01*
X0296582Y0431830D02*
X0295024Y0431830D01*
X0295024Y0432435D02*
X0296582Y0432435D01*
X0296582Y0433040D02*
X0295024Y0433040D01*
X0295024Y0433645D02*
X0296582Y0433645D01*
X0296582Y0434250D02*
X0295024Y0434250D01*
X0295024Y0434855D02*
X0296582Y0434855D01*
X0296582Y0441462D02*
X0295024Y0441462D01*
X0295024Y0445580D01*
X0296582Y0445580D01*
X0296582Y0441462D01*
X0296582Y0442067D02*
X0295024Y0442067D01*
X0295024Y0442672D02*
X0296582Y0442672D01*
X0296582Y0443277D02*
X0295024Y0443277D01*
X0295024Y0443882D02*
X0296582Y0443882D01*
X0296582Y0444487D02*
X0295024Y0444487D01*
X0295024Y0445092D02*
X0296582Y0445092D01*
X0292841Y0441462D02*
X0291283Y0441462D01*
X0291283Y0445580D01*
X0292841Y0445580D01*
X0292841Y0441462D01*
X0292841Y0442067D02*
X0291283Y0442067D01*
X0291283Y0442672D02*
X0292841Y0442672D01*
X0292841Y0443277D02*
X0291283Y0443277D01*
X0291283Y0443882D02*
X0292841Y0443882D01*
X0292841Y0444487D02*
X0291283Y0444487D01*
X0291283Y0445092D02*
X0292841Y0445092D01*
X0289101Y0441462D02*
X0287543Y0441462D01*
X0287543Y0445580D01*
X0289101Y0445580D01*
X0289101Y0441462D01*
X0289101Y0442067D02*
X0287543Y0442067D01*
X0287543Y0442672D02*
X0289101Y0442672D01*
X0289101Y0443277D02*
X0287543Y0443277D01*
X0287543Y0443882D02*
X0289101Y0443882D01*
X0289101Y0444487D02*
X0287543Y0444487D01*
X0287543Y0445092D02*
X0289101Y0445092D01*
X0088747Y0308588D02*
X0087189Y0308588D01*
X0087189Y0312706D01*
X0088747Y0312706D01*
X0088747Y0308588D01*
X0088747Y0309193D02*
X0087189Y0309193D01*
X0087189Y0309798D02*
X0088747Y0309798D01*
X0088747Y0310403D02*
X0087189Y0310403D01*
X0087189Y0311008D02*
X0088747Y0311008D01*
X0088747Y0311613D02*
X0087189Y0311613D01*
X0087189Y0312218D02*
X0088747Y0312218D01*
X0085007Y0308588D02*
X0083449Y0308588D01*
X0083449Y0312706D01*
X0085007Y0312706D01*
X0085007Y0308588D01*
X0085007Y0309193D02*
X0083449Y0309193D01*
X0083449Y0309798D02*
X0085007Y0309798D01*
X0085007Y0310403D02*
X0083449Y0310403D01*
X0083449Y0311008D02*
X0085007Y0311008D01*
X0085007Y0311613D02*
X0083449Y0311613D01*
X0083449Y0312218D02*
X0085007Y0312218D01*
X0081267Y0308588D02*
X0079709Y0308588D01*
X0079709Y0312706D01*
X0081267Y0312706D01*
X0081267Y0308588D01*
X0081267Y0309193D02*
X0079709Y0309193D01*
X0079709Y0309798D02*
X0081267Y0309798D01*
X0081267Y0310403D02*
X0079709Y0310403D01*
X0079709Y0311008D02*
X0081267Y0311008D01*
X0081267Y0311613D02*
X0079709Y0311613D01*
X0079709Y0312218D02*
X0081267Y0312218D01*
X0081267Y0298351D02*
X0079709Y0298351D01*
X0079709Y0302469D01*
X0081267Y0302469D01*
X0081267Y0298351D01*
X0081267Y0298956D02*
X0079709Y0298956D01*
X0079709Y0299561D02*
X0081267Y0299561D01*
X0081267Y0300166D02*
X0079709Y0300166D01*
X0079709Y0300771D02*
X0081267Y0300771D01*
X0081267Y0301376D02*
X0079709Y0301376D01*
X0079709Y0301981D02*
X0081267Y0301981D01*
X0087189Y0298351D02*
X0088747Y0298351D01*
X0087189Y0298351D02*
X0087189Y0302469D01*
X0088747Y0302469D01*
X0088747Y0298351D01*
X0088747Y0298956D02*
X0087189Y0298956D01*
X0087189Y0299561D02*
X0088747Y0299561D01*
X0088747Y0300166D02*
X0087189Y0300166D01*
X0087189Y0300771D02*
X0088747Y0300771D01*
X0088747Y0301376D02*
X0087189Y0301376D01*
X0087189Y0301981D02*
X0088747Y0301981D01*
D15*
X0290620Y0373211D02*
X0290620Y0373595D01*
X0290620Y0373211D02*
X0289252Y0373211D01*
X0289252Y0373595D01*
X0290620Y0373595D01*
X0290620Y0375179D02*
X0290620Y0375563D01*
X0290620Y0375179D02*
X0289252Y0375179D01*
X0289252Y0375563D01*
X0290620Y0375563D01*
X0290620Y0377148D02*
X0290620Y0377532D01*
X0290620Y0377148D02*
X0289252Y0377148D01*
X0289252Y0377532D01*
X0290620Y0377532D01*
X0290620Y0379116D02*
X0290620Y0379500D01*
X0290620Y0379116D02*
X0289252Y0379116D01*
X0289252Y0379500D01*
X0290620Y0379500D01*
X0290620Y0381085D02*
X0290620Y0381469D01*
X0290620Y0381085D02*
X0289252Y0381085D01*
X0289252Y0381469D01*
X0290620Y0381469D01*
X0293091Y0383939D02*
X0293475Y0383939D01*
X0293091Y0383939D02*
X0293091Y0385307D01*
X0293475Y0385307D01*
X0293475Y0383939D01*
X0293475Y0384538D02*
X0293091Y0384538D01*
X0293091Y0385137D02*
X0293475Y0385137D01*
X0295059Y0383939D02*
X0295443Y0383939D01*
X0295059Y0383939D02*
X0295059Y0385307D01*
X0295443Y0385307D01*
X0295443Y0383939D01*
X0295443Y0384538D02*
X0295059Y0384538D01*
X0295059Y0385137D02*
X0295443Y0385137D01*
X0297028Y0383939D02*
X0297412Y0383939D01*
X0297028Y0383939D02*
X0297028Y0385307D01*
X0297412Y0385307D01*
X0297412Y0383939D01*
X0297412Y0384538D02*
X0297028Y0384538D01*
X0297028Y0385137D02*
X0297412Y0385137D01*
X0298996Y0383939D02*
X0299380Y0383939D01*
X0298996Y0383939D02*
X0298996Y0385307D01*
X0299380Y0385307D01*
X0299380Y0383939D01*
X0299380Y0384538D02*
X0298996Y0384538D01*
X0298996Y0385137D02*
X0299380Y0385137D01*
X0300965Y0383939D02*
X0301349Y0383939D01*
X0300965Y0383939D02*
X0300965Y0385307D01*
X0301349Y0385307D01*
X0301349Y0383939D01*
X0301349Y0384538D02*
X0300965Y0384538D01*
X0300965Y0385137D02*
X0301349Y0385137D01*
X0303819Y0381469D02*
X0303819Y0381085D01*
X0303819Y0381469D02*
X0305187Y0381469D01*
X0305187Y0381085D01*
X0303819Y0381085D01*
X0303819Y0379500D02*
X0303819Y0379116D01*
X0303819Y0379500D02*
X0305187Y0379500D01*
X0305187Y0379116D01*
X0303819Y0379116D01*
X0303819Y0377532D02*
X0303819Y0377148D01*
X0303819Y0377532D02*
X0305187Y0377532D01*
X0305187Y0377148D01*
X0303819Y0377148D01*
X0303819Y0375563D02*
X0303819Y0375179D01*
X0303819Y0375563D02*
X0305187Y0375563D01*
X0305187Y0375179D01*
X0303819Y0375179D01*
X0303819Y0373595D02*
X0303819Y0373211D01*
X0303819Y0373595D02*
X0305187Y0373595D01*
X0305187Y0373211D01*
X0303819Y0373211D01*
X0301349Y0370740D02*
X0300965Y0370740D01*
X0301349Y0370740D02*
X0301349Y0369372D01*
X0300965Y0369372D01*
X0300965Y0370740D01*
X0300965Y0369971D02*
X0301349Y0369971D01*
X0301349Y0370570D02*
X0300965Y0370570D01*
X0299380Y0370740D02*
X0298996Y0370740D01*
X0299380Y0370740D02*
X0299380Y0369372D01*
X0298996Y0369372D01*
X0298996Y0370740D01*
X0298996Y0369971D02*
X0299380Y0369971D01*
X0299380Y0370570D02*
X0298996Y0370570D01*
X0297412Y0370740D02*
X0297028Y0370740D01*
X0297412Y0370740D02*
X0297412Y0369372D01*
X0297028Y0369372D01*
X0297028Y0370740D01*
X0297028Y0369971D02*
X0297412Y0369971D01*
X0297412Y0370570D02*
X0297028Y0370570D01*
X0295443Y0370740D02*
X0295059Y0370740D01*
X0295443Y0370740D02*
X0295443Y0369372D01*
X0295059Y0369372D01*
X0295059Y0370740D01*
X0295059Y0369971D02*
X0295443Y0369971D01*
X0295443Y0370570D02*
X0295059Y0370570D01*
X0293475Y0370740D02*
X0293091Y0370740D01*
X0293475Y0370740D02*
X0293475Y0369372D01*
X0293091Y0369372D01*
X0293091Y0370740D01*
X0293091Y0369971D02*
X0293475Y0369971D01*
X0293475Y0370570D02*
X0293091Y0370570D01*
D16*
X0293676Y0373796D02*
X0300764Y0373796D01*
X0293676Y0373796D02*
X0293676Y0380884D01*
X0300764Y0380884D01*
X0300764Y0373796D01*
X0300764Y0374582D02*
X0293676Y0374582D01*
X0293676Y0375368D02*
X0300764Y0375368D01*
X0300764Y0376154D02*
X0293676Y0376154D01*
X0293676Y0376940D02*
X0300764Y0376940D01*
X0300764Y0377726D02*
X0293676Y0377726D01*
X0293676Y0378512D02*
X0300764Y0378512D01*
X0300764Y0379298D02*
X0293676Y0379298D01*
X0293676Y0380084D02*
X0300764Y0380084D01*
X0300764Y0380870D02*
X0293676Y0380870D01*
D17*
X0197661Y0453277D02*
X0192369Y0453277D01*
X0192369Y0457387D01*
X0197661Y0457387D01*
X0197661Y0453277D01*
X0197661Y0453890D02*
X0192369Y0453890D01*
X0192369Y0454503D02*
X0197661Y0454503D01*
X0197661Y0455116D02*
X0192369Y0455116D01*
X0192369Y0455729D02*
X0197661Y0455729D01*
X0197661Y0456342D02*
X0192369Y0456342D01*
X0192369Y0456955D02*
X0197661Y0456955D01*
X0197661Y0461938D02*
X0192369Y0461938D01*
X0192369Y0466048D01*
X0197661Y0466048D01*
X0197661Y0461938D01*
X0197661Y0462551D02*
X0192369Y0462551D01*
X0192369Y0463164D02*
X0197661Y0463164D01*
X0197661Y0463777D02*
X0192369Y0463777D01*
X0192369Y0464390D02*
X0197661Y0464390D01*
X0197661Y0465003D02*
X0192369Y0465003D01*
X0192369Y0465616D02*
X0197661Y0465616D01*
X0182701Y0461938D02*
X0177409Y0461938D01*
X0177409Y0466048D01*
X0182701Y0466048D01*
X0182701Y0461938D01*
X0182701Y0462551D02*
X0177409Y0462551D01*
X0177409Y0463164D02*
X0182701Y0463164D01*
X0182701Y0463777D02*
X0177409Y0463777D01*
X0177409Y0464390D02*
X0182701Y0464390D01*
X0182701Y0465003D02*
X0177409Y0465003D01*
X0177409Y0465616D02*
X0182701Y0465616D01*
X0182701Y0453277D02*
X0177409Y0453277D01*
X0177409Y0457387D01*
X0182701Y0457387D01*
X0182701Y0453277D01*
X0182701Y0453890D02*
X0177409Y0453890D01*
X0177409Y0454503D02*
X0182701Y0454503D01*
X0182701Y0455116D02*
X0177409Y0455116D01*
X0177409Y0455729D02*
X0182701Y0455729D01*
X0182701Y0456342D02*
X0177409Y0456342D01*
X0177409Y0456955D02*
X0182701Y0456955D01*
D18*
X0200830Y0443297D02*
X0203768Y0443297D01*
X0203768Y0442957D01*
X0200830Y0442957D01*
X0200830Y0443297D01*
X0200830Y0441329D02*
X0203768Y0441329D01*
X0203768Y0440989D01*
X0200830Y0440989D01*
X0200830Y0441329D01*
X0200830Y0439360D02*
X0203768Y0439360D01*
X0203768Y0439020D01*
X0200830Y0439020D01*
X0200830Y0439360D01*
X0200830Y0437392D02*
X0203768Y0437392D01*
X0203768Y0437052D01*
X0200830Y0437052D01*
X0200830Y0437392D01*
X0200830Y0435423D02*
X0203768Y0435423D01*
X0203768Y0435083D01*
X0200830Y0435083D01*
X0200830Y0435423D01*
X0206602Y0434557D02*
X0206602Y0431619D01*
X0206262Y0431619D01*
X0206262Y0434557D01*
X0206602Y0434557D01*
X0206602Y0432223D02*
X0206262Y0432223D01*
X0206262Y0432827D02*
X0206602Y0432827D01*
X0206602Y0433431D02*
X0206262Y0433431D01*
X0206262Y0434035D02*
X0206602Y0434035D01*
X0208571Y0434557D02*
X0208571Y0431619D01*
X0208231Y0431619D01*
X0208231Y0434557D01*
X0208571Y0434557D01*
X0208571Y0432223D02*
X0208231Y0432223D01*
X0208231Y0432827D02*
X0208571Y0432827D01*
X0208571Y0433431D02*
X0208231Y0433431D01*
X0208231Y0434035D02*
X0208571Y0434035D01*
X0211066Y0435083D02*
X0214004Y0435083D01*
X0211066Y0435083D02*
X0211066Y0435423D01*
X0214004Y0435423D01*
X0214004Y0435083D01*
X0214004Y0437052D02*
X0211066Y0437052D01*
X0211066Y0437392D01*
X0214004Y0437392D01*
X0214004Y0437052D01*
X0214004Y0439020D02*
X0211066Y0439020D01*
X0211066Y0439360D01*
X0214004Y0439360D01*
X0214004Y0439020D01*
X0214004Y0440989D02*
X0211066Y0440989D01*
X0211066Y0441329D01*
X0214004Y0441329D01*
X0214004Y0440989D01*
X0214004Y0442957D02*
X0211066Y0442957D01*
X0211066Y0443297D01*
X0214004Y0443297D01*
X0214004Y0442957D01*
X0208231Y0443823D02*
X0208231Y0446761D01*
X0208571Y0446761D01*
X0208571Y0443823D01*
X0208231Y0443823D01*
X0208231Y0444427D02*
X0208571Y0444427D01*
X0208571Y0445031D02*
X0208231Y0445031D01*
X0208231Y0445635D02*
X0208571Y0445635D01*
X0208571Y0446239D02*
X0208231Y0446239D01*
X0206262Y0446761D02*
X0206262Y0443823D01*
X0206262Y0446761D02*
X0206602Y0446761D01*
X0206602Y0443823D01*
X0206262Y0443823D01*
X0206262Y0444427D02*
X0206602Y0444427D01*
X0206602Y0445031D02*
X0206262Y0445031D01*
X0206262Y0445635D02*
X0206602Y0445635D01*
X0206602Y0446239D02*
X0206262Y0446239D01*
X0296169Y0183179D02*
X0296169Y0180241D01*
X0295829Y0180241D01*
X0295829Y0183179D01*
X0296169Y0183179D01*
X0296169Y0180845D02*
X0295829Y0180845D01*
X0295829Y0181449D02*
X0296169Y0181449D01*
X0296169Y0182053D02*
X0295829Y0182053D01*
X0295829Y0182657D02*
X0296169Y0182657D01*
X0298138Y0183179D02*
X0298138Y0180241D01*
X0297798Y0180241D01*
X0297798Y0183179D01*
X0298138Y0183179D01*
X0298138Y0180845D02*
X0297798Y0180845D01*
X0297798Y0181449D02*
X0298138Y0181449D01*
X0298138Y0182053D02*
X0297798Y0182053D01*
X0297798Y0182657D02*
X0298138Y0182657D01*
X0300106Y0183179D02*
X0300106Y0180241D01*
X0299766Y0180241D01*
X0299766Y0183179D01*
X0300106Y0183179D01*
X0300106Y0180845D02*
X0299766Y0180845D01*
X0299766Y0181449D02*
X0300106Y0181449D01*
X0300106Y0182053D02*
X0299766Y0182053D01*
X0299766Y0182657D02*
X0300106Y0182657D01*
X0302075Y0183179D02*
X0302075Y0180241D01*
X0301735Y0180241D01*
X0301735Y0183179D01*
X0302075Y0183179D01*
X0302075Y0180845D02*
X0301735Y0180845D01*
X0301735Y0181449D02*
X0302075Y0181449D01*
X0302075Y0182053D02*
X0301735Y0182053D01*
X0301735Y0182657D02*
X0302075Y0182657D01*
X0304043Y0183179D02*
X0304043Y0180241D01*
X0303703Y0180241D01*
X0303703Y0183179D01*
X0304043Y0183179D01*
X0304043Y0180845D02*
X0303703Y0180845D01*
X0303703Y0181449D02*
X0304043Y0181449D01*
X0304043Y0182053D02*
X0303703Y0182053D01*
X0303703Y0182657D02*
X0304043Y0182657D01*
X0304570Y0177746D02*
X0307508Y0177746D01*
X0307508Y0177406D01*
X0304570Y0177406D01*
X0304570Y0177746D01*
X0304570Y0175777D02*
X0307508Y0175777D01*
X0307508Y0175437D01*
X0304570Y0175437D01*
X0304570Y0175777D01*
X0303703Y0172942D02*
X0303703Y0170004D01*
X0303703Y0172942D02*
X0304043Y0172942D01*
X0304043Y0170004D01*
X0303703Y0170004D01*
X0303703Y0170608D02*
X0304043Y0170608D01*
X0304043Y0171212D02*
X0303703Y0171212D01*
X0303703Y0171816D02*
X0304043Y0171816D01*
X0304043Y0172420D02*
X0303703Y0172420D01*
X0301735Y0172942D02*
X0301735Y0170004D01*
X0301735Y0172942D02*
X0302075Y0172942D01*
X0302075Y0170004D01*
X0301735Y0170004D01*
X0301735Y0170608D02*
X0302075Y0170608D01*
X0302075Y0171212D02*
X0301735Y0171212D01*
X0301735Y0171816D02*
X0302075Y0171816D01*
X0302075Y0172420D02*
X0301735Y0172420D01*
X0299766Y0172942D02*
X0299766Y0170004D01*
X0299766Y0172942D02*
X0300106Y0172942D01*
X0300106Y0170004D01*
X0299766Y0170004D01*
X0299766Y0170608D02*
X0300106Y0170608D01*
X0300106Y0171212D02*
X0299766Y0171212D01*
X0299766Y0171816D02*
X0300106Y0171816D01*
X0300106Y0172420D02*
X0299766Y0172420D01*
X0297798Y0172942D02*
X0297798Y0170004D01*
X0297798Y0172942D02*
X0298138Y0172942D01*
X0298138Y0170004D01*
X0297798Y0170004D01*
X0297798Y0170608D02*
X0298138Y0170608D01*
X0298138Y0171212D02*
X0297798Y0171212D01*
X0297798Y0171816D02*
X0298138Y0171816D01*
X0298138Y0172420D02*
X0297798Y0172420D01*
X0295829Y0172942D02*
X0295829Y0170004D01*
X0295829Y0172942D02*
X0296169Y0172942D01*
X0296169Y0170004D01*
X0295829Y0170004D01*
X0295829Y0170608D02*
X0296169Y0170608D01*
X0296169Y0171212D02*
X0295829Y0171212D01*
X0295829Y0171816D02*
X0296169Y0171816D01*
X0296169Y0172420D02*
X0295829Y0172420D01*
X0295303Y0175437D02*
X0292365Y0175437D01*
X0292365Y0175777D01*
X0295303Y0175777D01*
X0295303Y0175437D01*
X0295303Y0177406D02*
X0292365Y0177406D01*
X0292365Y0177746D01*
X0295303Y0177746D01*
X0295303Y0177406D01*
D19*
X0292062Y0225962D03*
X0282062Y0225962D03*
X0272062Y0225962D03*
X0262062Y0225962D03*
X0252062Y0225962D03*
X0242062Y0225962D03*
X0222062Y0225962D03*
X0212062Y0225962D03*
X0202062Y0225962D03*
X0192062Y0225962D03*
X0182062Y0225962D03*
X0172062Y0225962D03*
X0162062Y0225962D03*
X0152062Y0225962D03*
X0156062Y0415962D03*
X0166062Y0415962D03*
X0176062Y0415962D03*
X0186062Y0415962D03*
X0196062Y0415962D03*
X0206062Y0415962D03*
X0222062Y0415962D03*
X0232062Y0415962D03*
X0242062Y0415962D03*
X0252062Y0415962D03*
X0262062Y0415962D03*
X0272062Y0415962D03*
X0282062Y0415962D03*
X0292062Y0415962D03*
X0146062Y0415962D03*
X0136062Y0415962D03*
X0126062Y0415962D03*
X0116062Y0415962D03*
D20*
X0078228Y0478929D03*
X0221228Y0454929D03*
X0262228Y0432929D03*
X0308228Y0392929D03*
X0270228Y0353929D03*
X0305228Y0157929D03*
D21*
X0297574Y0160804D03*
X0294818Y0165922D03*
X0287732Y0152930D03*
X0276314Y0161828D03*
X0272417Y0164190D03*
X0259014Y0167776D03*
X0253414Y0180376D03*
X0242456Y0162773D03*
X0267456Y0185253D03*
X0278283Y0188403D03*
X0282220Y0185450D03*
X0286551Y0190962D03*
X0289700Y0184426D03*
X0287732Y0178521D03*
X0297574Y0188363D03*
X0303480Y0190332D03*
X0309385Y0186395D03*
X0306629Y0199387D03*
X0302803Y0210866D03*
X0290291Y0199623D03*
X0275330Y0197261D03*
X0263519Y0202182D03*
X0260173Y0208048D03*
X0257028Y0198129D03*
X0248554Y0213140D03*
X0240028Y0213529D03*
X0240028Y0206529D03*
X0225439Y0215152D03*
X0212710Y0206648D03*
X0212929Y0202143D03*
X0195606Y0217536D03*
X0198795Y0241395D03*
X0193637Y0253363D03*
X0187141Y0246867D03*
X0201511Y0258836D03*
X0211354Y0267143D03*
X0200527Y0277970D03*
X0208992Y0284820D03*
X0199543Y0296473D03*
X0188716Y0294702D03*
X0189897Y0288796D03*
X0182614Y0296277D03*
X0178677Y0300804D03*
X0183401Y0304741D03*
X0188716Y0301198D03*
X0191669Y0312418D03*
X0187732Y0317340D03*
X0199149Y0316316D03*
X0208401Y0315371D03*
X0211354Y0323245D03*
X0216275Y0329151D03*
X0230055Y0341946D03*
X0233992Y0339977D03*
X0249228Y0345529D03*
X0256236Y0367497D03*
X0261747Y0373403D03*
X0275921Y0375371D03*
X0284626Y0369466D03*
X0291669Y0361592D03*
X0284188Y0342733D03*
X0282220Y0334072D03*
X0270015Y0314348D03*
X0274346Y0304544D03*
X0282220Y0289977D03*
X0270409Y0281119D03*
X0251511Y0284820D03*
X0241669Y0276985D03*
X0238913Y0273048D03*
X0245606Y0261631D03*
X0245901Y0256277D03*
X0252299Y0253324D03*
X0263828Y0248529D03*
X0285741Y0248617D03*
X0298066Y0242497D03*
X0298165Y0257891D03*
X0295803Y0276395D03*
X0251708Y0297655D03*
X0248362Y0312379D03*
X0236944Y0306513D03*
X0238913Y0303560D03*
X0236944Y0300607D03*
X0238913Y0297655D03*
X0236944Y0294702D03*
X0225133Y0290765D03*
X0198558Y0328166D03*
X0190684Y0340962D03*
X0190684Y0344899D03*
X0187732Y0338009D03*
X0185763Y0335056D03*
X0183795Y0332103D03*
X0179858Y0332103D03*
X0175921Y0328166D03*
X0171984Y0328166D03*
X0172771Y0323442D03*
X0167062Y0314387D03*
X0170015Y0309662D03*
X0163125Y0317340D03*
X0161157Y0297655D03*
X0161157Y0293718D03*
X0161157Y0289781D03*
X0153558Y0279229D03*
X0148362Y0286434D03*
X0133401Y0269505D03*
X0156511Y0255096D03*
X0156829Y0247025D03*
X0184188Y0266946D03*
X0181826Y0274033D03*
X0181826Y0280922D03*
X0190684Y0276985D03*
X0144425Y0341159D03*
X0144425Y0347851D03*
X0132220Y0359623D03*
X0128283Y0355686D03*
X0124346Y0359623D03*
X0120409Y0355686D03*
X0134188Y0381277D03*
X0132220Y0387182D03*
X0140094Y0387970D03*
X0149936Y0395056D03*
X0169031Y0384269D03*
X0177495Y0373403D03*
X0181432Y0361592D03*
X0179858Y0354741D03*
X0175921Y0351788D03*
X0172968Y0354741D03*
X0159188Y0354741D03*
X0159188Y0350804D03*
X0141201Y0322371D03*
X0130261Y0312418D03*
X0124740Y0309466D03*
X0119818Y0306513D03*
X0125146Y0316316D03*
X0108204Y0291946D03*
X0129858Y0217930D03*
X0112535Y0204111D03*
X0118834Y0198245D03*
X0110566Y0190332D03*
X0089307Y0210844D03*
X0163716Y0198206D03*
X0168047Y0204151D03*
X0173952Y0206119D03*
X0187732Y0189387D03*
X0187732Y0183481D03*
X0187732Y0178560D03*
X0187732Y0170686D03*
X0185763Y0162812D03*
X0187732Y0155922D03*
X0307417Y0170647D03*
X0220842Y0351788D03*
X0209385Y0367536D03*
X0200527Y0364584D03*
X0193637Y0365568D03*
X0191866Y0352970D03*
X0218003Y0376308D03*
X0215291Y0418718D03*
X0211354Y0428560D03*
X0217259Y0436434D03*
X0222771Y0438363D03*
X0224740Y0428521D03*
X0236944Y0421828D03*
X0215291Y0446277D03*
X0209080Y0459924D03*
X0203480Y0447851D03*
X0199543Y0446277D03*
X0197574Y0442340D03*
X0189700Y0440371D03*
X0189307Y0434426D03*
X0182220Y0444308D03*
X0180251Y0439584D03*
X0173952Y0434072D03*
X0170015Y0430529D03*
X0168047Y0434072D03*
X0152692Y0443324D03*
X0153283Y0447064D03*
X0155842Y0464387D03*
X0173952Y0460056D03*
X0185763Y0454151D03*
X0193244Y0470686D03*
X0196787Y0468718D03*
X0140881Y0431277D03*
X0131039Y0432851D03*
X0104228Y0413729D03*
X0112535Y0393088D03*
X0120409Y0391119D03*
X0120409Y0385214D03*
X0258603Y0456308D03*
X0302228Y0469929D03*
X0305448Y0398993D03*
X0302299Y0388757D03*
X0286944Y0387182D03*
D22*
X0288913Y0389151D01*
X0293637Y0389151D01*
X0295212Y0387576D01*
X0295212Y0384662D01*
X0295251Y0384623D01*
X0297181Y0384662D02*
X0297181Y0389151D01*
X0295212Y0391119D01*
X0286944Y0391119D01*
X0280251Y0384426D01*
X0280251Y0371040D01*
X0278362Y0369151D01*
X0275448Y0369151D01*
X0275921Y0375371D02*
X0275921Y0383245D01*
X0287732Y0395056D01*
X0295212Y0395056D01*
X0299149Y0391119D01*
X0299149Y0384662D01*
X0299188Y0384623D01*
X0297220Y0384623D02*
X0297181Y0384662D01*
X0301157Y0384623D02*
X0301157Y0387615D01*
X0302299Y0388757D01*
X0304661Y0390332D02*
X0304661Y0381434D01*
X0304503Y0381277D01*
X0304503Y0377340D02*
X0297220Y0377340D01*
X0289936Y0377340D01*
X0287639Y0377340D01*
X0284828Y0374529D01*
X0284828Y0369667D01*
X0284626Y0369466D01*
X0289936Y0367733D02*
X0277574Y0355371D01*
X0277574Y0325529D01*
X0279838Y0325529D01*
X0283470Y0321897D01*
X0289838Y0315529D01*
X0297377Y0332812D02*
X0297377Y0336198D01*
X0289700Y0343875D01*
X0285330Y0343875D01*
X0284188Y0342733D01*
X0279858Y0345844D02*
X0281826Y0347812D01*
X0292220Y0347812D01*
X0297377Y0342655D01*
X0304070Y0342655D02*
X0304228Y0342655D01*
X0304228Y0355725D01*
X0295212Y0364741D01*
X0295212Y0370017D01*
X0295251Y0370056D01*
X0293283Y0370056D02*
X0293283Y0363206D01*
X0291669Y0361592D01*
X0289936Y0367733D02*
X0289936Y0373403D01*
X0289936Y0375371D01*
X0297220Y0370056D02*
X0297220Y0365883D01*
X0307417Y0355686D01*
X0307417Y0336159D01*
X0304070Y0332812D01*
X0304070Y0342655D02*
X0305448Y0344033D01*
X0282220Y0334072D02*
X0281787Y0334072D01*
X0279858Y0336001D01*
X0279858Y0345844D01*
X0270015Y0326395D02*
X0270881Y0325529D01*
X0270015Y0324662D01*
X0270015Y0314348D01*
X0254661Y0306513D02*
X0266472Y0294702D01*
X0266472Y0262222D01*
X0291826Y0236867D01*
X0291826Y0235993D01*
X0298066Y0242497D02*
X0298066Y0208540D01*
X0297574Y0208048D01*
X0297574Y0188363D01*
X0299936Y0186001D01*
X0299936Y0181710D01*
X0297968Y0181710D02*
X0297968Y0184033D01*
X0293637Y0188363D01*
X0289307Y0188363D01*
X0286393Y0185450D01*
X0282220Y0185450D01*
X0277299Y0185450D01*
X0275330Y0187418D01*
X0275330Y0197261D01*
X0271393Y0197851D02*
X0268047Y0201198D01*
X0264503Y0201198D01*
X0263519Y0202182D01*
X0266078Y0206080D02*
X0261429Y0210729D01*
X0258228Y0210729D01*
X0251228Y0203729D01*
X0234428Y0203729D01*
X0226028Y0212129D01*
X0184028Y0212129D01*
X0177026Y0219130D01*
X0177026Y0222497D01*
X0176947Y0222497D01*
X0176987Y0230048D01*
X0171826Y0235993D01*
X0166866Y0233639D02*
X0166866Y0240332D01*
X0170015Y0243481D01*
X0193244Y0243481D01*
X0197105Y0239620D01*
X0196905Y0239108D01*
X0197305Y0219436D01*
X0195606Y0217536D01*
X0206428Y0206529D02*
X0206428Y0197256D01*
X0187732Y0178560D01*
X0187732Y0183481D02*
X0173952Y0197261D01*
X0173952Y0206119D01*
X0164428Y0197494D02*
X0164428Y0192529D01*
X0157428Y0185529D01*
X0129428Y0185529D01*
X0124625Y0190332D01*
X0115428Y0190332D01*
X0115428Y0232595D01*
X0153558Y0270725D01*
X0153558Y0279229D01*
X0157220Y0289781D02*
X0161157Y0289781D01*
X0161157Y0293718D02*
X0157220Y0293718D01*
X0128283Y0322655D01*
X0128283Y0355686D01*
X0132220Y0359623D02*
X0132220Y0322655D01*
X0157220Y0297655D01*
X0161157Y0297655D01*
X0157220Y0289781D02*
X0124346Y0322655D01*
X0124346Y0359623D01*
X0120409Y0355686D02*
X0120409Y0320253D01*
X0125146Y0316316D01*
X0122338Y0312418D02*
X0116472Y0318285D01*
X0116472Y0381277D01*
X0120409Y0385214D01*
X0120409Y0391119D02*
X0114503Y0385214D01*
X0114503Y0316316D01*
X0121354Y0309466D01*
X0124740Y0309466D01*
X0122338Y0312418D02*
X0130261Y0312418D01*
X0119818Y0307064D02*
X0112535Y0314348D01*
X0112535Y0393088D01*
X0120803Y0403127D02*
X0124641Y0399288D01*
X0124641Y0373107D01*
X0136157Y0361592D01*
X0136157Y0336001D01*
X0180409Y0291749D01*
X0190684Y0291749D01*
X0239088Y0243543D01*
X0244796Y0243543D01*
X0251755Y0235993D01*
X0251826Y0235993D01*
X0255428Y0239595D01*
X0255428Y0290529D01*
X0251255Y0294702D01*
X0236944Y0294702D01*
X0238913Y0297655D02*
X0251708Y0297655D01*
X0257614Y0291749D01*
X0257614Y0249426D01*
X0261826Y0245214D01*
X0261826Y0235993D01*
X0256866Y0230922D02*
X0261826Y0225962D01*
X0262062Y0225962D01*
X0265763Y0219899D02*
X0271826Y0225962D01*
X0272062Y0225962D01*
X0274031Y0217930D02*
X0282062Y0225962D01*
X0282429Y0216329D02*
X0292062Y0225962D01*
X0282429Y0216329D02*
X0258228Y0216329D01*
X0251228Y0209329D01*
X0237228Y0209329D01*
X0227428Y0219129D01*
X0221628Y0219129D01*
X0216866Y0223691D01*
X0216866Y0240332D01*
X0201511Y0255686D01*
X0201511Y0258836D01*
X0193637Y0253363D02*
X0191669Y0251395D01*
X0173952Y0251395D01*
X0161826Y0239269D01*
X0161826Y0235993D01*
X0164110Y0231083D02*
X0156936Y0231083D01*
X0151826Y0235993D01*
X0164110Y0231083D02*
X0166866Y0233639D01*
X0156511Y0255096D02*
X0148125Y0255096D01*
X0118834Y0225804D01*
X0118834Y0198245D01*
X0112535Y0204111D02*
X0112535Y0230568D01*
X0096747Y0246355D01*
X0110566Y0190332D02*
X0115428Y0190332D01*
X0163716Y0198206D02*
X0164428Y0197494D01*
X0187732Y0170686D02*
X0187732Y0164781D01*
X0185763Y0162812D01*
X0216228Y0199529D02*
X0213614Y0202143D01*
X0212929Y0202143D01*
X0216228Y0199529D02*
X0216228Y0186929D01*
X0237228Y0165929D01*
X0245628Y0165929D01*
X0258626Y0152930D01*
X0287732Y0152930D01*
X0296393Y0155686D02*
X0261470Y0155686D01*
X0249828Y0167329D01*
X0249828Y0189729D01*
X0240028Y0199529D01*
X0233028Y0199529D01*
X0226028Y0206529D01*
X0212829Y0206529D01*
X0212710Y0206648D01*
X0209228Y0209329D02*
X0226028Y0209329D01*
X0234428Y0200929D01*
X0253053Y0200929D01*
X0260173Y0208048D01*
X0258228Y0213529D02*
X0251228Y0206529D01*
X0240028Y0206529D01*
X0240028Y0213529D02*
X0237228Y0213529D01*
X0227428Y0223329D01*
X0227428Y0231729D01*
X0223163Y0235993D01*
X0221826Y0235993D01*
X0231039Y0235647D02*
X0231039Y0223836D01*
X0236944Y0217930D01*
X0274031Y0217930D01*
X0267062Y0213094D02*
X0267062Y0211040D01*
X0267062Y0213094D02*
X0266628Y0213529D01*
X0258228Y0213529D01*
X0265763Y0219899D02*
X0238913Y0219899D01*
X0233007Y0225804D01*
X0233007Y0237615D01*
X0196590Y0274033D01*
X0187732Y0274033D01*
X0181826Y0279938D01*
X0181826Y0280922D01*
X0178677Y0283285D02*
X0181629Y0286237D01*
X0187338Y0286237D01*
X0189897Y0288796D01*
X0192062Y0293914D02*
X0207417Y0278560D01*
X0209779Y0278560D01*
X0235045Y0253294D01*
X0235074Y0253324D01*
X0252299Y0253324D01*
X0245901Y0256277D02*
X0245871Y0256247D01*
X0222181Y0279938D01*
X0228677Y0279938D01*
X0235370Y0279938D02*
X0235566Y0279899D01*
X0235370Y0279938D02*
X0235370Y0275410D01*
X0238913Y0273048D01*
X0241669Y0276985D02*
X0241669Y0265568D01*
X0245606Y0261631D01*
X0260566Y0256316D02*
X0271826Y0245056D01*
X0271826Y0235993D01*
X0281826Y0235993D02*
X0281826Y0241946D01*
X0263519Y0260253D01*
X0263519Y0293718D01*
X0253677Y0303560D01*
X0238913Y0303560D01*
X0200527Y0303560D01*
X0191669Y0312418D01*
X0190684Y0317340D02*
X0187732Y0317340D01*
X0190684Y0317340D02*
X0201511Y0306513D01*
X0236944Y0306513D01*
X0254661Y0306513D01*
X0252692Y0300607D02*
X0236944Y0300607D01*
X0232614Y0308442D02*
X0236551Y0312379D01*
X0248362Y0312379D01*
X0252692Y0300607D02*
X0260566Y0292733D01*
X0260566Y0256316D01*
X0244818Y0240765D02*
X0246590Y0238993D01*
X0246590Y0233285D01*
X0248952Y0230922D01*
X0256866Y0230922D01*
X0252062Y0225962D02*
X0251826Y0225962D01*
X0246669Y0231119D01*
X0237929Y0231119D01*
X0234976Y0234072D01*
X0234976Y0239584D01*
X0197574Y0276985D01*
X0190684Y0276985D01*
X0195606Y0271080D02*
X0184779Y0271080D01*
X0181826Y0274033D01*
X0178677Y0272458D02*
X0184188Y0266946D01*
X0178677Y0272458D02*
X0178677Y0283285D01*
X0188716Y0294702D02*
X0188716Y0295686D01*
X0171984Y0312418D01*
X0171984Y0313403D01*
X0165094Y0320292D01*
X0164110Y0320292D01*
X0147968Y0336434D01*
X0147968Y0353718D01*
X0145724Y0355962D01*
X0146432Y0355962D01*
X0142456Y0359938D01*
X0142456Y0367497D01*
X0130251Y0379702D01*
X0130251Y0385214D01*
X0132220Y0387182D01*
X0134188Y0381277D02*
X0136629Y0381277D01*
X0146196Y0371710D01*
X0146196Y0362891D01*
X0146432Y0362655D01*
X0140094Y0365529D02*
X0128283Y0377340D01*
X0128283Y0395056D01*
X0132220Y0398993D01*
X0138125Y0398993D01*
X0140881Y0401749D01*
X0140881Y0431277D01*
X0131039Y0432851D02*
X0131039Y0403718D01*
X0126314Y0398993D01*
X0126314Y0375371D01*
X0138125Y0363560D01*
X0138125Y0337418D01*
X0161157Y0314387D01*
X0167062Y0314387D01*
X0163125Y0317340D02*
X0161157Y0317340D01*
X0140094Y0338403D01*
X0140094Y0365529D01*
X0150330Y0374269D02*
X0146196Y0378403D01*
X0140094Y0384505D01*
X0140094Y0387970D01*
X0146196Y0378403D02*
X0147259Y0377340D01*
X0150330Y0374269D02*
X0150330Y0338009D01*
X0183401Y0304741D01*
X0188716Y0303560D02*
X0188716Y0301198D01*
X0188716Y0303560D02*
X0153283Y0338993D01*
X0153283Y0391710D01*
X0149936Y0395056D01*
X0151118Y0399426D02*
X0151118Y0411253D01*
X0155826Y0415962D01*
X0156062Y0415962D01*
X0160960Y0411198D02*
X0165724Y0415962D01*
X0166062Y0415962D01*
X0160960Y0411198D02*
X0160960Y0402458D01*
X0159188Y0400686D01*
X0159188Y0354741D01*
X0162535Y0354151D02*
X0159188Y0350804D01*
X0162535Y0354151D02*
X0162535Y0395450D01*
X0170803Y0403718D01*
X0170803Y0411198D01*
X0175566Y0415962D01*
X0176062Y0415962D01*
X0175881Y0415962D01*
X0180645Y0410544D02*
X0186062Y0415962D01*
X0191028Y0419329D02*
X0191028Y0411108D01*
X0185881Y0405962D01*
X0180645Y0410544D02*
X0180645Y0401355D01*
X0172968Y0393678D01*
X0172968Y0354741D01*
X0175921Y0351788D02*
X0177607Y0350102D01*
X0177607Y0338908D01*
X0182339Y0343640D02*
X0180842Y0345138D01*
X0180842Y0353757D01*
X0179858Y0354741D01*
X0181432Y0361592D02*
X0181432Y0369466D01*
X0185370Y0373403D01*
X0185370Y0393048D01*
X0179346Y0387025D01*
X0179346Y0380332D02*
X0179346Y0375253D01*
X0177495Y0373403D01*
X0185370Y0393048D02*
X0185370Y0393088D01*
X0195881Y0403599D01*
X0195881Y0405962D01*
X0200927Y0411828D02*
X0200927Y0364984D01*
X0200527Y0364584D01*
X0206432Y0365568D02*
X0193834Y0352970D01*
X0191866Y0352970D01*
X0190684Y0344899D02*
X0224628Y0378842D01*
X0224628Y0394129D01*
X0216669Y0402088D01*
X0216669Y0408993D01*
X0221826Y0413442D01*
X0222062Y0413678D01*
X0222062Y0415962D01*
X0215291Y0418718D02*
X0215291Y0430096D01*
X0212929Y0432458D01*
X0209031Y0432458D01*
X0208401Y0433088D01*
X0206432Y0433088D02*
X0206432Y0424933D01*
X0203628Y0422129D01*
X0193828Y0422129D01*
X0191028Y0419329D01*
X0196062Y0415962D02*
X0196393Y0415962D01*
X0200927Y0411828D01*
X0206062Y0415725D02*
X0206062Y0415962D01*
X0206062Y0415725D02*
X0211354Y0410434D01*
X0211354Y0402970D01*
X0206432Y0398048D01*
X0206432Y0365568D01*
X0220842Y0351788D02*
X0242968Y0351788D01*
X0249228Y0345529D01*
X0256236Y0367497D02*
X0257889Y0369151D01*
X0268755Y0369151D01*
X0252721Y0387222D02*
X0266628Y0401129D01*
X0266628Y0410763D01*
X0271826Y0415962D01*
X0272062Y0415962D01*
X0275921Y0424584D02*
X0282062Y0418442D01*
X0282062Y0415962D01*
X0286747Y0411277D01*
X0286747Y0401946D01*
X0289700Y0398993D01*
X0295921Y0398993D01*
X0295960Y0399033D01*
X0304661Y0390332D01*
X0305448Y0398993D02*
X0305448Y0422222D01*
X0310228Y0427001D01*
X0310228Y0458929D01*
X0302228Y0466929D01*
X0302228Y0469929D01*
X0275921Y0424584D02*
X0239700Y0424584D01*
X0236944Y0421828D01*
X0236551Y0428521D02*
X0233657Y0431414D01*
X0230212Y0431414D01*
X0228244Y0431414D02*
X0225665Y0431414D01*
X0224740Y0430489D01*
X0224740Y0428521D01*
X0229228Y0434269D02*
X0230212Y0435253D01*
X0230212Y0437123D01*
X0230212Y0443088D01*
X0238519Y0451395D01*
X0231039Y0452182D02*
X0228244Y0449387D01*
X0228244Y0437123D01*
X0222771Y0438363D02*
X0221944Y0439190D01*
X0212535Y0439190D01*
X0212535Y0437222D02*
X0216472Y0437222D01*
X0217259Y0436434D01*
X0216078Y0435253D01*
X0212535Y0435253D01*
X0207417Y0439190D02*
X0206432Y0440174D01*
X0206432Y0445292D01*
X0200527Y0445292D01*
X0199543Y0446277D01*
X0198362Y0443127D02*
X0197574Y0442340D01*
X0198755Y0441159D01*
X0202299Y0441159D01*
X0202299Y0443127D02*
X0198362Y0443127D01*
X0196393Y0439190D02*
X0191629Y0434426D01*
X0189307Y0434426D01*
X0191669Y0430529D02*
X0198362Y0437222D01*
X0202299Y0437222D01*
X0202299Y0439190D02*
X0196393Y0439190D01*
X0202299Y0435253D02*
X0195606Y0428560D01*
X0171984Y0428560D01*
X0170015Y0430529D01*
X0170409Y0434072D02*
X0173952Y0430529D01*
X0191669Y0430529D01*
X0189700Y0440371D02*
X0199543Y0450214D01*
X0217259Y0450214D01*
X0219228Y0448245D01*
X0219228Y0442340D01*
X0218047Y0441159D01*
X0212535Y0441159D01*
X0212535Y0443127D02*
X0215291Y0445883D01*
X0215291Y0446277D01*
X0208401Y0447261D02*
X0208401Y0445292D01*
X0208401Y0447261D02*
X0207417Y0448245D01*
X0203480Y0448245D01*
X0203480Y0447851D01*
X0203480Y0455922D02*
X0195999Y0455922D01*
X0195015Y0455332D01*
X0195015Y0452773D01*
X0181826Y0439584D01*
X0180251Y0439584D01*
X0182220Y0444308D02*
X0182220Y0444702D01*
X0174740Y0452182D01*
X0174740Y0456713D01*
X0179858Y0461631D01*
X0179858Y0463796D01*
X0180055Y0463993D01*
X0180251Y0463993D01*
X0180251Y0470489D01*
X0180055Y0472851D01*
X0186747Y0472851D02*
X0191078Y0472851D01*
X0193244Y0470686D01*
X0196787Y0468718D02*
X0195015Y0466946D01*
X0195015Y0463993D01*
X0189897Y0458875D01*
X0183007Y0458875D01*
X0180055Y0455922D01*
X0180055Y0455332D01*
X0173952Y0460056D02*
X0162929Y0449033D01*
X0155645Y0449033D01*
X0153283Y0447064D01*
X0153283Y0451887D01*
X0153224Y0451946D01*
X0153224Y0458639D02*
X0153224Y0461769D01*
X0155842Y0464387D01*
X0171590Y0436434D02*
X0173952Y0434072D01*
X0171590Y0436434D02*
X0127929Y0436434D01*
X0121196Y0429702D01*
X0120803Y0403127D01*
X0151118Y0399426D02*
X0156236Y0394308D01*
X0156236Y0338993D01*
X0164110Y0331119D01*
X0172968Y0331119D01*
X0175921Y0328166D01*
X0171984Y0328166D02*
X0194621Y0305529D01*
X0194621Y0295686D01*
X0208795Y0281513D01*
X0220606Y0281513D01*
X0222181Y0279938D01*
X0211354Y0267143D02*
X0237732Y0240765D01*
X0244818Y0240765D01*
X0231039Y0235647D02*
X0195606Y0271080D01*
X0208992Y0284820D02*
X0251511Y0284820D01*
X0232614Y0308442D02*
X0207023Y0308442D01*
X0199149Y0316316D01*
X0192062Y0304151D02*
X0192062Y0293914D01*
X0192062Y0304151D02*
X0172771Y0323442D01*
X0179858Y0332103D02*
X0182810Y0329151D01*
X0194621Y0329151D01*
X0252692Y0387222D01*
X0252721Y0387222D01*
X0246787Y0389190D02*
X0192653Y0335056D01*
X0185763Y0335056D01*
X0183795Y0332103D02*
X0193637Y0332103D01*
X0257023Y0395489D01*
X0257023Y0410804D01*
X0262062Y0415844D01*
X0262062Y0415962D01*
X0252062Y0415962D02*
X0251984Y0415883D01*
X0251826Y0415883D01*
X0246787Y0410844D01*
X0246787Y0389190D01*
X0236908Y0383248D02*
X0236908Y0400965D01*
X0236944Y0401001D01*
X0236944Y0410844D01*
X0242062Y0415962D01*
X0232062Y0415962D02*
X0232062Y0413836D01*
X0227102Y0408875D01*
X0227102Y0399308D01*
X0227240Y0399170D01*
X0227240Y0377517D01*
X0190684Y0340962D01*
X0191669Y0338009D02*
X0236908Y0383248D01*
X0207791Y0337249D02*
X0211354Y0333686D01*
X0211354Y0323245D01*
X0203058Y0332517D02*
X0202909Y0332517D01*
X0198558Y0328166D01*
X0191669Y0338009D02*
X0187732Y0338009D01*
X0119818Y0307064D02*
X0119818Y0306513D01*
X0187141Y0246867D02*
X0188322Y0245686D01*
X0201314Y0245686D01*
X0206826Y0240174D01*
X0207026Y0220637D01*
X0212911Y0215152D01*
X0225439Y0215152D01*
X0209228Y0209329D02*
X0206428Y0206529D01*
X0223943Y0189162D02*
X0232869Y0189162D01*
X0256828Y0186929D02*
X0257028Y0198129D01*
X0256828Y0186929D02*
X0268149Y0175607D01*
X0293834Y0175607D01*
X0293834Y0177576D02*
X0288677Y0177576D01*
X0287732Y0178521D01*
X0292417Y0181710D02*
X0289700Y0184426D01*
X0292417Y0181710D02*
X0295999Y0181710D01*
X0300921Y0177576D02*
X0306039Y0177576D01*
X0306236Y0177773D01*
X0306236Y0187970D01*
X0306629Y0188363D01*
X0306629Y0199387D01*
X0303480Y0190332D02*
X0303873Y0189938D01*
X0303873Y0181710D01*
X0301905Y0181710D02*
X0301905Y0188757D01*
X0303480Y0190332D01*
X0309385Y0186395D02*
X0309385Y0176552D01*
X0308440Y0175607D01*
X0306039Y0175607D01*
X0303873Y0171473D02*
X0305448Y0169899D01*
X0306669Y0169899D01*
X0307417Y0170647D01*
X0301905Y0171473D02*
X0301905Y0161198D01*
X0296393Y0155686D01*
X0297574Y0160804D02*
X0299936Y0163166D01*
X0299936Y0171473D01*
X0297968Y0171473D02*
X0297968Y0167103D01*
X0295999Y0167103D01*
X0294818Y0165922D01*
X0295999Y0167103D02*
X0295999Y0171473D01*
X0299936Y0176592D02*
X0300921Y0177576D01*
X0300859Y0177574D01*
X0300798Y0177568D01*
X0300737Y0177559D01*
X0300676Y0177545D01*
X0300617Y0177528D01*
X0300559Y0177507D01*
X0300502Y0177482D01*
X0300447Y0177454D01*
X0300394Y0177423D01*
X0300343Y0177388D01*
X0300294Y0177350D01*
X0300247Y0177309D01*
X0300204Y0177266D01*
X0300163Y0177219D01*
X0300125Y0177170D01*
X0300090Y0177119D01*
X0300059Y0177066D01*
X0300031Y0177011D01*
X0300006Y0176954D01*
X0299985Y0176896D01*
X0299968Y0176837D01*
X0299954Y0176776D01*
X0299945Y0176715D01*
X0299939Y0176654D01*
X0299937Y0176592D01*
X0282220Y0191355D02*
X0282220Y0193718D01*
X0274740Y0201198D01*
X0269858Y0206080D01*
X0266078Y0206080D01*
X0271393Y0197851D02*
X0271393Y0191749D01*
X0271393Y0191355D01*
X0271196Y0185253D02*
X0267456Y0185253D01*
X0271196Y0185253D02*
X0271393Y0185056D01*
X0278283Y0188403D02*
X0279267Y0188403D01*
X0282220Y0191355D01*
X0198795Y0241395D02*
X0196905Y0239108D01*
X0170409Y0434072D02*
X0168047Y0434072D01*
X0195015Y0454348D02*
X0195015Y0455332D01*
X0195606Y0463403D02*
X0195015Y0463993D01*
X0203480Y0462615D02*
X0206388Y0462615D01*
X0209080Y0459924D01*
D23*
X0121371Y0152401D03*
X0129661Y0152401D03*
X0136551Y0152401D03*
X0144425Y0152401D03*
X0152299Y0152401D03*
X0160173Y0152401D03*
X0168047Y0152401D03*
X0175921Y0152401D03*
X0183795Y0152401D03*
X0191669Y0152401D03*
X0199543Y0152401D03*
X0213322Y0152401D03*
X0224149Y0152401D03*
X0231039Y0152401D03*
X0238913Y0152401D03*
X0245387Y0152401D03*
X0222181Y0169702D03*
X0242828Y0191129D03*
X0223165Y0203166D03*
X0187732Y0198245D03*
X0166078Y0174623D03*
X0156236Y0217930D03*
X0132220Y0229702D03*
X0130409Y0253324D03*
X0108598Y0276946D03*
X0088850Y0283851D03*
X0083007Y0295450D03*
X0106629Y0312379D03*
X0124228Y0302340D03*
X0106629Y0347812D03*
X0086944Y0349781D03*
X0081039Y0375371D03*
X0122771Y0483678D03*
X0128677Y0483678D03*
X0134582Y0483678D03*
X0140488Y0483678D03*
X0146393Y0483678D03*
X0154267Y0483678D03*
X0173952Y0483678D03*
X0181826Y0483678D03*
X0189700Y0483678D03*
X0197574Y0483678D03*
X0205448Y0483678D03*
X0222771Y0461237D03*
X0231039Y0452182D03*
X0238519Y0451395D03*
X0236551Y0428521D03*
X0270409Y0438403D03*
X0271984Y0432497D03*
X0286157Y0428560D03*
X0297968Y0428560D03*
X0297968Y0448245D03*
X0290094Y0452970D03*
X0282220Y0454151D03*
X0274346Y0458088D03*
X0282228Y0494929D03*
X0300055Y0486143D03*
X0308228Y0465929D03*
X0301905Y0460056D03*
X0283470Y0321897D03*
X0308817Y0300262D03*
X0289110Y0209072D03*
X0301905Y0151001D03*
X0121393Y0175568D03*
D24*
X0096747Y0246355D02*
X0103716Y0253324D01*
X0130409Y0253324D01*
X0108598Y0276946D02*
X0088913Y0276946D01*
X0080881Y0284977D01*
X0080881Y0290529D01*
X0079267Y0290529D01*
X0075133Y0294662D01*
X0075133Y0308442D01*
X0075133Y0332064D01*
X0077102Y0334033D01*
X0080291Y0334033D01*
X0080566Y0334308D01*
X0080566Y0341159D01*
X0077220Y0344505D01*
X0077220Y0351887D01*
X0079326Y0349781D01*
X0086944Y0349781D01*
X0092968Y0334308D02*
X0100999Y0334308D01*
X0106629Y0339938D01*
X0106629Y0347812D01*
X0106629Y0339938D02*
X0106629Y0312379D01*
X0087968Y0310647D02*
X0087968Y0315292D01*
X0086944Y0316316D01*
X0081826Y0316316D01*
X0080645Y0315135D01*
X0080645Y0310805D01*
X0080488Y0310647D01*
X0077338Y0310647D01*
X0075133Y0308442D01*
X0080488Y0300410D02*
X0083007Y0297890D01*
X0083007Y0295450D01*
X0080881Y0290883D02*
X0080881Y0290529D01*
X0087574Y0290529D02*
X0087574Y0300016D01*
X0087968Y0300410D01*
X0084228Y0304150D01*
X0084228Y0310647D01*
X0084188Y0310608D01*
X0087968Y0290922D02*
X0088850Y0290040D01*
X0088850Y0283851D01*
X0087574Y0290529D02*
X0087968Y0290922D01*
X0077220Y0364288D02*
X0077220Y0371552D01*
X0081039Y0375371D01*
X0223165Y0203166D02*
X0223165Y0196633D01*
X0223943Y0195855D01*
X0232869Y0195855D01*
X0234836Y0191129D02*
X0242828Y0191129D01*
X0234836Y0191129D02*
X0232869Y0189162D01*
X0273755Y0211040D02*
X0275724Y0209072D01*
X0289110Y0209072D01*
X0308817Y0300262D02*
X0302633Y0306446D01*
X0302633Y0315135D01*
X0302240Y0315529D01*
X0297968Y0428560D02*
X0295999Y0430529D01*
X0295999Y0435056D01*
X0295803Y0433284D01*
X0290881Y0438403D02*
X0277102Y0438403D01*
X0271984Y0433285D01*
X0271984Y0432497D01*
X0268165Y0445426D02*
X0268165Y0446001D01*
X0282220Y0460056D01*
X0282220Y0466139D01*
X0277220Y0466139D02*
X0277220Y0460962D01*
X0274346Y0458088D01*
X0268440Y0460647D02*
X0259188Y0451395D01*
X0238519Y0451395D01*
X0268165Y0445426D02*
X0268440Y0445702D01*
X0282220Y0454151D02*
X0286157Y0458088D01*
X0286747Y0458088D01*
X0290094Y0452970D02*
X0288322Y0451198D01*
X0288322Y0443521D01*
X0292062Y0443521D02*
X0292062Y0439584D01*
X0290881Y0438403D01*
X0288125Y0435056D02*
X0288125Y0430529D01*
X0286157Y0428560D01*
X0288322Y0433284D02*
X0288125Y0435056D01*
X0292062Y0443521D02*
X0292062Y0447655D01*
X0298558Y0454151D01*
X0294621Y0458088D01*
X0293440Y0458088D01*
X0292220Y0466139D02*
X0292062Y0466296D01*
X0292062Y0473836D01*
X0292738Y0474511D01*
X0304762Y0474511D01*
X0309228Y0478977D01*
X0309228Y0486929D01*
X0305645Y0490511D01*
X0305645Y0491588D01*
X0306568Y0491588D01*
X0298952Y0491588D02*
X0298300Y0490936D01*
X0292220Y0490936D01*
X0292220Y0486611D01*
X0292688Y0486143D01*
X0300055Y0486143D01*
X0300055Y0485911D01*
X0304762Y0481204D01*
X0304993Y0481204D01*
X0304762Y0474511D02*
X0308228Y0471045D01*
X0308228Y0465929D01*
X0301905Y0460056D02*
X0305251Y0456710D01*
X0305251Y0454151D01*
X0297968Y0448245D02*
X0295803Y0446080D01*
X0295803Y0443521D01*
X0287220Y0466139D02*
X0287220Y0470804D01*
X0284188Y0473836D01*
X0268574Y0473836D01*
X0268165Y0473426D01*
X0268440Y0467340D02*
X0269641Y0466139D01*
X0277220Y0466139D01*
X0280251Y0479741D02*
X0269165Y0479741D01*
X0268322Y0480584D01*
X0277220Y0486611D02*
X0268322Y0495509D01*
X0268322Y0508584D01*
X0282228Y0494929D02*
X0287220Y0489936D01*
X0287220Y0486611D01*
X0287220Y0478678D01*
X0292062Y0473836D01*
X0282220Y0481710D02*
X0280251Y0479741D01*
X0282220Y0481710D02*
X0282220Y0486611D01*
M02*
