%
M48
M72
T01C0.01300
T02C0.02362
T03C0.03543
T04C0.03900
T05C0.04000
T06C0.07200
T07C0.09350
T08C0.11811
%
T01
X75199Y190554
X114570Y210239
X129136Y221656
X114570Y233861
X110633Y247640
X129136Y256302
X126381Y263388
X127562Y271262
X136223Y274018
X140160Y281892
X142916Y284648
X120475Y289766
X116538Y290948
X98822Y279924
X98822Y274018
X142916Y244097
X143310Y233861
X143310Y213782
X143703Y201184
X168507Y200790
X167325Y215357
X172050Y231105
X189373Y234648
X197247Y239373
X204136Y248428
X208270Y257483
X207089Y266144
X195278Y259451
X183467Y272050
X187404Y275987
X191341Y279924
X188388Y287798
X196262Y293703
X186420Y301577
X190357Y306499
X181696Y318507
X186420Y331105
X196262Y335042
X190357Y342522
X194294Y355711
X174609Y364570
X166735Y368507
X207089Y333073
X223428Y347050
X226774Y350790
X229924Y353940
X233073Y350790
X236617Y352759
X242522Y346853
X232680Y337010
X232680Y333073
X228743Y325199
X232680Y321262
X224806Y317325
X224806Y307483
X228743Y307483
X220869Y307483
X216932Y307483
X211026Y297640
X207089Y297640
X206105Y293703
X220869Y287798
X226774Y280908
X229727Y277955
X232680Y275003
X235633Y272050
X236617Y287798
X244491Y306696
X244491Y321262
X259255Y320278
X259255Y316341
X265160Y320278
X269097Y320278
X273034Y320278
X275987Y316341
X279924Y320278
X285829Y327168
X293703Y333073
X295672Y339963
X303546Y333073
X300593Y330121
X309451Y333073
X321262Y317325
X325199Y317325
X329136Y317325
X333073Y317325
X337010Y317325
X340948Y317325
X350790Y327168
X350790Y331105
X356696Y311420
X360633Y311420
X364570Y311420
X368507Y311420
X374806Y311223
X374806Y305121
X372444Y291735
X368507Y283861
X372444Y280711
X368507Y275003
X364570Y277955
X360633Y283861
X364570Y291735
X356302Y303546
X350790Y284845
X337010Y272050
X338979Y269097
X337010Y266144
X338979Y263192
X337010Y260239
X337010Y250396
X341735Y248428
X350790Y250396
X350790Y256302
X352759Y262207
X369688Y261420
X370475Y267129
X379530Y257877
X382680Y263388
X385436Y259451
X398034Y253546
X397050Y243507
X394097Y234648
X391341Y229924
X388979Y235042
X379924Y235829
X374018Y236223
X368900Y238979
X374018Y242129
X372444Y248625
X377286Y221853
X376381Y212995
X367522Y214963
X355711Y212995
X354727Y217916
X351774Y221853
X345672Y227168
X345278Y210239
X331105Y182089
X344885Y179530
X360633Y163782
X363585Y167719
X375396Y162798
X378349Y153940
X382286Y150987
X388585Y156499
X388192Y166538
X395869Y175003
X386420Y182877
X368310Y183664
X367522Y150790
X357680Y143113
X353979Y127365
X368900Y125593
X376381Y125396
X392325Y128743
X391735Y119097
X315357Y212995
X298861Y206932
X287207Y212404
X291735Y228743
X284255Y232483
X281892Y239570
X281892Y246459
X290751Y242522
X300593Y243507
X308467Y247444
X310436Y244491
X312404Y254333
X321656Y252365
X325199Y256302
X327168Y250396
X322936Y240849
X311420Y232680
X289963Y254333
X288782Y260239
X282680Y261814
X278743Y266341
X283467Y270278
X288782Y266735
X297640Y268113
X302562Y276971
X297640Y280908
X291735Y282877
X291735Y277955
X293703Y291144
X298625Y293703
X303349Y287010
X311420Y288782
X316341Y294688
X314176Y277955
X307286Y266735
X303940Y262010
X279924Y289766
X272837Y288979
X272050Y293703
X279924Y297640
X283861Y297640
X285829Y300593
X287798Y303546
X290751Y306499
X290751Y310436
X293900Y318507
X268113Y344885
X262207Y333073
X259255Y330121
X263192Y282877
X267129Y279924
X270081Y275199
X261223Y263192
X261223Y259255
X261223Y255318
X248428Y251971
X233467Y235042
X226774Y225790
X233664Y222837
X238585Y214963
X245475Y213979
X256577Y220633
X229924Y183467
X218900Y163782
X214176Y155908
X189373Y176381
X179530Y190554
X210042Y225790
X217719Y206696
X268113Y169688
X274018Y171656
X287798Y154924
X287798Y149018
X287798Y144097
X287798Y136223
X285829Y128349
X287798Y121459
X295672Y183073
X387207Y215554
X398231Y223428
X407286Y265554
X334648Y287798
X332089Y299609
X334058Y305514
X309451Y351774
X303546Y354727
X326184Y361617
X315357Y380318
X309845Y391341
X320081Y398034
X325199Y396066
X316538Y406302
X311026Y406302
X298428Y412207
X289766Y403546
X290948Y394491
X288192Y390948
X299609Y390948
X280318Y405121
X277562Y401971
X274018Y399609
X269688Y398428
X264176Y393703
X252759Y407089
X253349Y410829
X255908Y429924
X274018Y425593
X285829Y419688
X282286Y409845
X296853Y434255
X293310Y436223
X303546Y433861
X366538Y396066
X355514Y364176
X355908Y360633
X355711Y356696
X366538Y360633
X405908Y445278
X399806Y450199
X224806Y401971
X205121Y311420
X167719Y291735
X142129Y311420
X130318Y322247
X74018Y355711
X181499Y153152
T02
X184747Y159156
X203152Y179924
X197247Y187798
X220475Y199609
X256302Y183467
X287798Y163782
X266144Y140160
X268113Y116538
X260239Y116538
X252365Y116538
X244491Y116538
X236617Y116538
X229727Y116538
X228743Y122444
X222837Y116538
X275987Y116538
X283861Y116538
X291735Y116538
X299609Y116538
X313388Y116538
X324215Y116538
X331105Y116538
X338979Y116538
X346853Y116538
X368507Y116538
X401971Y116538
X389176Y174609
X356696Y178940
X323231Y168703
X322247Y135239
X224294Y267877
X242522Y289766
X228743Y299609
X177562Y251184
X135829Y225593
X94885Y242522
X112601Y294885
X94885Y299609
X125396Y327168
X114570Y344097
X91932Y343310
X78152Y344885
X76184Y362601
X135239Y387207
X135239Y402955
X205514Y378743
X222837Y449215
X228743Y449215
X234648Y449215
X240554Y449215
X246459Y449215
X254333Y449215
X274018Y449215
X281892Y449215
X289766Y449215
X297640Y449215
X305514Y449215
X322837Y426774
X331105Y417719
X338585Y416932
X370475Y403940
X372050Y398034
X386223Y394097
X398034Y394097
X398034Y413782
X390160Y418507
X382286Y419688
X374412Y423625
X401971Y425593
X405121Y432680
X398034Y468900
X379530Y479727
T03
X368388Y474121
X368388Y446121
X368231Y438963
X368231Y410963
T04
X247507Y178703
X239507Y178703
X243507Y158703
X243507Y143270
X247507Y123270
X239507Y123270
T05
X251892Y191499
X261892Y191499
X271892Y191499
X281892Y191499
X281892Y201530
X271892Y201530
X261892Y201530
X251892Y201530
X291892Y201530
X301892Y201530
X311892Y201530
X321892Y201530
X321892Y191499
X311892Y191499
X301892Y191499
X291892Y191499
X341892Y191499
X351892Y191499
X361892Y191499
X361892Y201530
X351892Y201530
X341892Y201530
X371892Y201530
X381892Y201530
X391892Y201530
X391892Y191499
X381892Y191499
X371892Y191499
X392444Y281302
X402444Y281302
X402444Y291302
X402444Y301302
X392444Y301302
X392444Y291302
X391924Y371499
X391892Y381499
X381892Y381499
X371892Y381499
X371924Y371499
X381924Y371499
X361924Y371499
X361892Y381499
X351892Y381499
X341892Y381499
X331892Y381499
X331924Y371499
X341924Y371499
X351924Y371499
X321924Y371499
X321892Y381499
X305892Y381499
X295892Y381499
X295948Y371499
X305948Y371499
X285948Y371499
X285892Y381499
X275892Y381499
X265892Y381499
X255892Y381499
X255948Y371499
X265948Y371499
X275948Y371499
X245948Y371499
X245892Y381499
X235892Y381499
X225892Y381499
X215892Y381499
X215948Y371499
X225948Y371499
X235948Y371499
X159333Y356420
X149333Y356420
X149333Y346420
X149333Y336420
X149333Y326420
X149333Y316420
X149333Y306420
X159333Y306420
X159333Y316420
X159333Y326420
X159333Y336420
X159333Y346420
X159333Y296420
X149333Y296420
X149333Y286420
X149333Y276420
X149333Y266420
X159333Y266420
X159333Y276420
X159333Y286420
X159373Y246066
X149373Y246066
X149373Y235987
X149294Y226066
X159294Y226066
X159373Y235987
X159373Y215829
X159373Y206144
X149373Y206144
X149373Y215829
T06
X106735Y163278
X116735Y189845
X96735Y189845
X96656Y377877
X116656Y377877
X106656Y404444
T07
X233507Y171203
X233507Y158703
X233507Y143270
X233507Y130770
X253507Y130770
X253507Y143270
X253507Y158703
X253507Y171203
T08
X200199Y163782
X394097Y98822
X394097Y327168
X200199Y402955
M30
