G75*
%MOIN*%
%OFA0B0*%
%FSLAX25Y25*%
%IPPOS*%
%LPD*%
%AMOC8*
5,1,8,0,0,1.08239X$1,22.5*
%
%ADD10C,0.00591*%
%ADD11C,0.00606*%
D10*
X0304235Y0286518D02*
X0304235Y0290258D01*
X0304235Y0286518D02*
X0300889Y0286518D01*
X0300889Y0290258D01*
X0304235Y0290258D01*
X0304235Y0287108D02*
X0300889Y0287108D01*
X0300889Y0287698D02*
X0304235Y0287698D01*
X0304235Y0288288D02*
X0300889Y0288288D01*
X0300889Y0288878D02*
X0304235Y0288878D01*
X0304235Y0289468D02*
X0300889Y0289468D01*
X0300889Y0290058D02*
X0304235Y0290058D01*
X0304235Y0293211D02*
X0304235Y0296951D01*
X0304235Y0293211D02*
X0300889Y0293211D01*
X0300889Y0296951D01*
X0304235Y0296951D01*
X0304235Y0293801D02*
X0300889Y0293801D01*
X0300889Y0294391D02*
X0304235Y0294391D01*
X0304235Y0294981D02*
X0300889Y0294981D01*
X0300889Y0295571D02*
X0304235Y0295571D01*
X0304235Y0296161D02*
X0300889Y0296161D01*
X0300889Y0296751D02*
X0304235Y0296751D01*
X0396755Y0421361D02*
X0400495Y0421361D01*
X0400495Y0418015D01*
X0396755Y0418015D01*
X0396755Y0421361D01*
X0396755Y0418605D02*
X0400495Y0418605D01*
X0400495Y0419195D02*
X0396755Y0419195D01*
X0396755Y0419785D02*
X0400495Y0419785D01*
X0400495Y0420375D02*
X0396755Y0420375D01*
X0396755Y0420965D02*
X0400495Y0420965D01*
X0403448Y0421361D02*
X0407188Y0421361D01*
X0407188Y0418015D01*
X0403448Y0418015D01*
X0403448Y0421361D01*
X0403448Y0418605D02*
X0407188Y0418605D01*
X0407188Y0419195D02*
X0403448Y0419195D01*
X0403448Y0419785D02*
X0407188Y0419785D01*
X0407188Y0420375D02*
X0403448Y0420375D01*
X0403448Y0420965D02*
X0407188Y0420965D01*
X0395377Y0421952D02*
X0391637Y0421952D01*
X0391637Y0425298D01*
X0395377Y0425298D01*
X0395377Y0421952D01*
X0395377Y0422542D02*
X0391637Y0422542D01*
X0391637Y0423132D02*
X0395377Y0423132D01*
X0395377Y0423722D02*
X0391637Y0423722D01*
X0391637Y0424312D02*
X0395377Y0424312D01*
X0395377Y0424902D02*
X0391637Y0424902D01*
X0388684Y0421952D02*
X0384944Y0421952D01*
X0384944Y0425298D01*
X0388684Y0425298D01*
X0388684Y0421952D01*
X0388684Y0422542D02*
X0384944Y0422542D01*
X0384944Y0423132D02*
X0388684Y0423132D01*
X0388684Y0423722D02*
X0384944Y0423722D01*
X0384944Y0424312D02*
X0388684Y0424312D01*
X0388684Y0424902D02*
X0384944Y0424902D01*
X0386400Y0427641D02*
X0388172Y0427641D01*
X0386400Y0427641D02*
X0386400Y0435711D01*
X0388172Y0435711D01*
X0388172Y0427641D01*
X0388172Y0428231D02*
X0386400Y0428231D01*
X0386400Y0428821D02*
X0388172Y0428821D01*
X0388172Y0429411D02*
X0386400Y0429411D01*
X0386400Y0430001D02*
X0388172Y0430001D01*
X0388172Y0430591D02*
X0386400Y0430591D01*
X0386400Y0431181D02*
X0388172Y0431181D01*
X0388172Y0431771D02*
X0386400Y0431771D01*
X0386400Y0432361D02*
X0388172Y0432361D01*
X0388172Y0432951D02*
X0386400Y0432951D01*
X0386400Y0433541D02*
X0388172Y0433541D01*
X0388172Y0434131D02*
X0386400Y0434131D01*
X0386400Y0434721D02*
X0388172Y0434721D01*
X0388172Y0435311D02*
X0386400Y0435311D01*
X0383172Y0427641D02*
X0381400Y0427641D01*
X0381400Y0435711D01*
X0383172Y0435711D01*
X0383172Y0427641D01*
X0383172Y0428231D02*
X0381400Y0428231D01*
X0381400Y0428821D02*
X0383172Y0428821D01*
X0383172Y0429411D02*
X0381400Y0429411D01*
X0381400Y0430001D02*
X0383172Y0430001D01*
X0383172Y0430591D02*
X0381400Y0430591D01*
X0381400Y0431181D02*
X0383172Y0431181D01*
X0383172Y0431771D02*
X0381400Y0431771D01*
X0381400Y0432361D02*
X0383172Y0432361D01*
X0383172Y0432951D02*
X0381400Y0432951D01*
X0381400Y0433541D02*
X0383172Y0433541D01*
X0383172Y0434131D02*
X0381400Y0434131D01*
X0381400Y0434721D02*
X0383172Y0434721D01*
X0383172Y0435311D02*
X0381400Y0435311D01*
X0378172Y0427641D02*
X0376400Y0427641D01*
X0376400Y0435711D01*
X0378172Y0435711D01*
X0378172Y0427641D01*
X0378172Y0428231D02*
X0376400Y0428231D01*
X0376400Y0428821D02*
X0378172Y0428821D01*
X0378172Y0429411D02*
X0376400Y0429411D01*
X0376400Y0430001D02*
X0378172Y0430001D01*
X0378172Y0430591D02*
X0376400Y0430591D01*
X0376400Y0431181D02*
X0378172Y0431181D01*
X0378172Y0431771D02*
X0376400Y0431771D01*
X0376400Y0432361D02*
X0378172Y0432361D01*
X0378172Y0432951D02*
X0376400Y0432951D01*
X0376400Y0433541D02*
X0378172Y0433541D01*
X0378172Y0434131D02*
X0376400Y0434131D01*
X0376400Y0434721D02*
X0378172Y0434721D01*
X0378172Y0435311D02*
X0376400Y0435311D01*
X0366834Y0434747D02*
X0366834Y0431007D01*
X0366834Y0434747D02*
X0370180Y0434747D01*
X0370180Y0431007D01*
X0366834Y0431007D01*
X0366834Y0431597D02*
X0370180Y0431597D01*
X0370180Y0432187D02*
X0366834Y0432187D01*
X0366834Y0432777D02*
X0370180Y0432777D01*
X0370180Y0433367D02*
X0366834Y0433367D01*
X0366834Y0433957D02*
X0370180Y0433957D01*
X0370180Y0434547D02*
X0366834Y0434547D01*
X0366834Y0428054D02*
X0366834Y0424314D01*
X0366834Y0428054D02*
X0370180Y0428054D01*
X0370180Y0424314D01*
X0366834Y0424314D01*
X0366834Y0424904D02*
X0370180Y0424904D01*
X0370180Y0425494D02*
X0366834Y0425494D01*
X0366834Y0426084D02*
X0370180Y0426084D01*
X0370180Y0426674D02*
X0366834Y0426674D01*
X0366834Y0427264D02*
X0370180Y0427264D01*
X0370180Y0427854D02*
X0366834Y0427854D01*
X0376400Y0448113D02*
X0378172Y0448113D01*
X0376400Y0448113D02*
X0376400Y0456183D01*
X0378172Y0456183D01*
X0378172Y0448113D01*
X0378172Y0448703D02*
X0376400Y0448703D01*
X0376400Y0449293D02*
X0378172Y0449293D01*
X0378172Y0449883D02*
X0376400Y0449883D01*
X0376400Y0450473D02*
X0378172Y0450473D01*
X0378172Y0451063D02*
X0376400Y0451063D01*
X0376400Y0451653D02*
X0378172Y0451653D01*
X0378172Y0452243D02*
X0376400Y0452243D01*
X0376400Y0452833D02*
X0378172Y0452833D01*
X0378172Y0453423D02*
X0376400Y0453423D01*
X0376400Y0454013D02*
X0378172Y0454013D01*
X0378172Y0454603D02*
X0376400Y0454603D01*
X0376400Y0455193D02*
X0378172Y0455193D01*
X0378172Y0455783D02*
X0376400Y0455783D01*
X0381400Y0448113D02*
X0383172Y0448113D01*
X0381400Y0448113D02*
X0381400Y0456183D01*
X0383172Y0456183D01*
X0383172Y0448113D01*
X0383172Y0448703D02*
X0381400Y0448703D01*
X0381400Y0449293D02*
X0383172Y0449293D01*
X0383172Y0449883D02*
X0381400Y0449883D01*
X0381400Y0450473D02*
X0383172Y0450473D01*
X0383172Y0451063D02*
X0381400Y0451063D01*
X0381400Y0451653D02*
X0383172Y0451653D01*
X0383172Y0452243D02*
X0381400Y0452243D01*
X0381400Y0452833D02*
X0383172Y0452833D01*
X0383172Y0453423D02*
X0381400Y0453423D01*
X0381400Y0454013D02*
X0383172Y0454013D01*
X0383172Y0454603D02*
X0381400Y0454603D01*
X0381400Y0455193D02*
X0383172Y0455193D01*
X0383172Y0455783D02*
X0381400Y0455783D01*
X0386400Y0448113D02*
X0388172Y0448113D01*
X0386400Y0448113D02*
X0386400Y0456183D01*
X0388172Y0456183D01*
X0388172Y0448113D01*
X0388172Y0448703D02*
X0386400Y0448703D01*
X0386400Y0449293D02*
X0388172Y0449293D01*
X0388172Y0449883D02*
X0386400Y0449883D01*
X0386400Y0450473D02*
X0388172Y0450473D01*
X0388172Y0451063D02*
X0386400Y0451063D01*
X0386400Y0451653D02*
X0388172Y0451653D01*
X0388172Y0452243D02*
X0386400Y0452243D01*
X0386400Y0452833D02*
X0388172Y0452833D01*
X0388172Y0453423D02*
X0386400Y0453423D01*
X0386400Y0454013D02*
X0388172Y0454013D01*
X0388172Y0454603D02*
X0386400Y0454603D01*
X0386400Y0455193D02*
X0388172Y0455193D01*
X0388172Y0455783D02*
X0386400Y0455783D01*
X0391400Y0448113D02*
X0393172Y0448113D01*
X0391400Y0448113D02*
X0391400Y0456183D01*
X0393172Y0456183D01*
X0393172Y0448113D01*
X0393172Y0448703D02*
X0391400Y0448703D01*
X0391400Y0449293D02*
X0393172Y0449293D01*
X0393172Y0449883D02*
X0391400Y0449883D01*
X0391400Y0450473D02*
X0393172Y0450473D01*
X0393172Y0451063D02*
X0391400Y0451063D01*
X0391400Y0451653D02*
X0393172Y0451653D01*
X0393172Y0452243D02*
X0391400Y0452243D01*
X0391400Y0452833D02*
X0393172Y0452833D01*
X0393172Y0453423D02*
X0391400Y0453423D01*
X0391400Y0454013D02*
X0393172Y0454013D01*
X0393172Y0454603D02*
X0391400Y0454603D01*
X0391400Y0455193D02*
X0393172Y0455193D01*
X0393172Y0455783D02*
X0391400Y0455783D01*
X0391440Y0465259D02*
X0387700Y0465259D01*
X0387700Y0468605D01*
X0391440Y0468605D01*
X0391440Y0465259D01*
X0391440Y0465849D02*
X0387700Y0465849D01*
X0387700Y0466439D02*
X0391440Y0466439D01*
X0391440Y0467029D02*
X0387700Y0467029D01*
X0387700Y0467619D02*
X0391440Y0467619D01*
X0391440Y0468209D02*
X0387700Y0468209D01*
X0384747Y0465259D02*
X0381007Y0465259D01*
X0381007Y0468605D01*
X0384747Y0468605D01*
X0384747Y0465259D01*
X0384747Y0465849D02*
X0381007Y0465849D01*
X0381007Y0466439D02*
X0384747Y0466439D01*
X0384747Y0467029D02*
X0381007Y0467029D01*
X0381007Y0467619D02*
X0384747Y0467619D01*
X0384747Y0468209D02*
X0381007Y0468209D01*
X0381007Y0473133D02*
X0384747Y0473133D01*
X0381007Y0473133D02*
X0381007Y0476479D01*
X0384747Y0476479D01*
X0384747Y0473133D01*
X0384747Y0473723D02*
X0381007Y0473723D01*
X0381007Y0474313D02*
X0384747Y0474313D01*
X0384747Y0474903D02*
X0381007Y0474903D01*
X0381007Y0475493D02*
X0384747Y0475493D01*
X0384747Y0476083D02*
X0381007Y0476083D01*
X0387700Y0473133D02*
X0391440Y0473133D01*
X0387700Y0473133D02*
X0387700Y0476479D01*
X0391440Y0476479D01*
X0391440Y0473133D01*
X0391440Y0473723D02*
X0387700Y0473723D01*
X0387700Y0474313D02*
X0391440Y0474313D01*
X0391440Y0474903D02*
X0387700Y0474903D01*
X0387700Y0475493D02*
X0391440Y0475493D01*
X0391440Y0476083D02*
X0387700Y0476083D01*
X0391400Y0427641D02*
X0393172Y0427641D01*
X0391400Y0427641D02*
X0391400Y0435711D01*
X0393172Y0435711D01*
X0393172Y0427641D01*
X0393172Y0428231D02*
X0391400Y0428231D01*
X0391400Y0428821D02*
X0393172Y0428821D01*
X0393172Y0429411D02*
X0391400Y0429411D01*
X0391400Y0430001D02*
X0393172Y0430001D01*
X0393172Y0430591D02*
X0391400Y0430591D01*
X0391400Y0431181D02*
X0393172Y0431181D01*
X0393172Y0431771D02*
X0391400Y0431771D01*
X0391400Y0432361D02*
X0393172Y0432361D01*
X0393172Y0432951D02*
X0391400Y0432951D01*
X0391400Y0433541D02*
X0393172Y0433541D01*
X0393172Y0434131D02*
X0391400Y0434131D01*
X0391400Y0434721D02*
X0393172Y0434721D01*
X0393172Y0435311D02*
X0391400Y0435311D01*
D11*
X0391350Y0406999D02*
X0392908Y0406999D01*
X0391350Y0406999D02*
X0391350Y0411117D01*
X0392908Y0411117D01*
X0392908Y0406999D01*
X0392908Y0407604D02*
X0391350Y0407604D01*
X0391350Y0408209D02*
X0392908Y0408209D01*
X0392908Y0408814D02*
X0391350Y0408814D01*
X0391350Y0409419D02*
X0392908Y0409419D01*
X0392908Y0410024D02*
X0391350Y0410024D01*
X0391350Y0410629D02*
X0392908Y0410629D01*
X0395090Y0406999D02*
X0396648Y0406999D01*
X0395090Y0406999D02*
X0395090Y0411117D01*
X0396648Y0411117D01*
X0396648Y0406999D01*
X0396648Y0407604D02*
X0395090Y0407604D01*
X0395090Y0408209D02*
X0396648Y0408209D01*
X0396648Y0408814D02*
X0395090Y0408814D01*
X0395090Y0409419D02*
X0396648Y0409419D01*
X0396648Y0410024D02*
X0395090Y0410024D01*
X0395090Y0410629D02*
X0396648Y0410629D01*
X0389167Y0406999D02*
X0387609Y0406999D01*
X0387609Y0411117D01*
X0389167Y0411117D01*
X0389167Y0406999D01*
X0389167Y0407604D02*
X0387609Y0407604D01*
X0387609Y0408209D02*
X0389167Y0408209D01*
X0389167Y0408814D02*
X0387609Y0408814D01*
X0387609Y0409419D02*
X0389167Y0409419D01*
X0389167Y0410024D02*
X0387609Y0410024D01*
X0387609Y0410629D02*
X0389167Y0410629D01*
X0389167Y0396762D02*
X0387609Y0396762D01*
X0387609Y0400880D01*
X0389167Y0400880D01*
X0389167Y0396762D01*
X0389167Y0397367D02*
X0387609Y0397367D01*
X0387609Y0397972D02*
X0389167Y0397972D01*
X0389167Y0398577D02*
X0387609Y0398577D01*
X0387609Y0399182D02*
X0389167Y0399182D01*
X0389167Y0399787D02*
X0387609Y0399787D01*
X0387609Y0400392D02*
X0389167Y0400392D01*
X0395090Y0396762D02*
X0396648Y0396762D01*
X0395090Y0396762D02*
X0395090Y0400880D01*
X0396648Y0400880D01*
X0396648Y0396762D01*
X0396648Y0397367D02*
X0395090Y0397367D01*
X0395090Y0397972D02*
X0396648Y0397972D01*
X0396648Y0398577D02*
X0395090Y0398577D01*
X0395090Y0399182D02*
X0396648Y0399182D01*
X0396648Y0399787D02*
X0395090Y0399787D01*
X0395090Y0400392D02*
X0396648Y0400392D01*
M02*
