G75*
%MOIN*%
%OFA0B0*%
%FSLAX25Y25*%
%IPPOS*%
%LPD*%
%AMOC8*
5,1,8,0,0,1.08239X$1,22.5*
%
%ADD10C,0.00602*%
%ADD11C,0.00591*%
%ADD12C,0.00589*%
%ADD13C,0.00595*%
%ADD14C,0.00598*%
%ADD15C,0.01181*%
%ADD16C,0.00600*%
%ADD17R,0.02756X0.02756*%
%ADD18C,0.00606*%
%ADD19C,0.00600*%
%ADD20C,0.00598*%
%ADD21R,0.05118X0.05118*%
%ADD22C,0.01040*%
%ADD23R,0.03937X0.02953*%
%ADD24R,0.03150X0.03150*%
%ADD25C,0.00748*%
%ADD26C,0.00614*%
%ADD27R,0.06890X0.06890*%
%ADD28C,0.03100*%
D10*
X0259176Y0236920D02*
X0267101Y0244845D01*
X0259176Y0236920D02*
X0257097Y0238999D01*
X0265022Y0246924D01*
X0267101Y0244845D01*
X0259777Y0237521D02*
X0258575Y0237521D01*
X0257974Y0238122D02*
X0260378Y0238122D01*
X0260979Y0238723D02*
X0257373Y0238723D01*
X0257422Y0239324D02*
X0261580Y0239324D01*
X0262181Y0239925D02*
X0258023Y0239925D01*
X0258624Y0240526D02*
X0262782Y0240526D01*
X0263383Y0241127D02*
X0259225Y0241127D01*
X0259826Y0241728D02*
X0263984Y0241728D01*
X0264585Y0242329D02*
X0260427Y0242329D01*
X0261028Y0242930D02*
X0265186Y0242930D01*
X0265787Y0243531D02*
X0261629Y0243531D01*
X0262230Y0244132D02*
X0266388Y0244132D01*
X0266989Y0244733D02*
X0262831Y0244733D01*
X0263432Y0245334D02*
X0266612Y0245334D01*
X0266011Y0245935D02*
X0264033Y0245935D01*
X0264634Y0246536D02*
X0265410Y0246536D01*
X0272947Y0238999D02*
X0265022Y0231074D01*
X0262943Y0233153D01*
X0270868Y0241078D01*
X0272947Y0238999D01*
X0265623Y0231675D02*
X0264421Y0231675D01*
X0263820Y0232276D02*
X0266224Y0232276D01*
X0266825Y0232877D02*
X0263219Y0232877D01*
X0263268Y0233478D02*
X0267426Y0233478D01*
X0268027Y0234079D02*
X0263869Y0234079D01*
X0264470Y0234680D02*
X0268628Y0234680D01*
X0269229Y0235281D02*
X0265071Y0235281D01*
X0265672Y0235882D02*
X0269830Y0235882D01*
X0270431Y0236483D02*
X0266273Y0236483D01*
X0266874Y0237084D02*
X0271032Y0237084D01*
X0271633Y0237685D02*
X0267475Y0237685D01*
X0268076Y0238286D02*
X0272234Y0238286D01*
X0272835Y0238887D02*
X0268677Y0238887D01*
X0269278Y0239488D02*
X0272458Y0239488D01*
X0271857Y0240089D02*
X0269879Y0240089D01*
X0270480Y0240690D02*
X0271256Y0240690D01*
X0364733Y0143355D02*
X0367281Y0143355D01*
X0364733Y0143355D02*
X0364733Y0143933D01*
X0367281Y0143933D01*
X0367281Y0143355D01*
X0367281Y0141387D02*
X0364733Y0141387D01*
X0364733Y0141965D01*
X0367281Y0141965D01*
X0367281Y0141387D01*
X0367281Y0139418D02*
X0364733Y0139418D01*
X0364733Y0139996D01*
X0367281Y0139996D01*
X0367281Y0139418D01*
X0367281Y0137450D02*
X0364733Y0137450D01*
X0364733Y0138028D01*
X0367281Y0138028D01*
X0367281Y0137450D01*
X0367281Y0135481D02*
X0364733Y0135481D01*
X0364733Y0136059D01*
X0367281Y0136059D01*
X0367281Y0135481D01*
X0369347Y0135962D02*
X0369347Y0133414D01*
X0368769Y0133414D01*
X0368769Y0135962D01*
X0369347Y0135962D01*
X0369347Y0134015D02*
X0368769Y0134015D01*
X0368769Y0134616D02*
X0369347Y0134616D01*
X0369347Y0135217D02*
X0368769Y0135217D01*
X0368769Y0135818D02*
X0369347Y0135818D01*
X0371315Y0135962D02*
X0371315Y0133414D01*
X0370737Y0133414D01*
X0370737Y0135962D01*
X0371315Y0135962D01*
X0371315Y0134015D02*
X0370737Y0134015D01*
X0370737Y0134616D02*
X0371315Y0134616D01*
X0371315Y0135217D02*
X0370737Y0135217D01*
X0370737Y0135818D02*
X0371315Y0135818D01*
X0373284Y0135962D02*
X0373284Y0133414D01*
X0372706Y0133414D01*
X0372706Y0135962D01*
X0373284Y0135962D01*
X0373284Y0134015D02*
X0372706Y0134015D01*
X0372706Y0134616D02*
X0373284Y0134616D01*
X0373284Y0135217D02*
X0372706Y0135217D01*
X0372706Y0135818D02*
X0373284Y0135818D01*
X0374772Y0136059D02*
X0377320Y0136059D01*
X0377320Y0135481D01*
X0374772Y0135481D01*
X0374772Y0136059D01*
X0374772Y0138028D02*
X0377320Y0138028D01*
X0377320Y0137450D01*
X0374772Y0137450D01*
X0374772Y0138028D01*
X0374772Y0139996D02*
X0377320Y0139996D01*
X0377320Y0139418D01*
X0374772Y0139418D01*
X0374772Y0139996D01*
X0374772Y0141965D02*
X0377320Y0141965D01*
X0377320Y0141387D01*
X0374772Y0141387D01*
X0374772Y0141965D01*
X0374772Y0143933D02*
X0377320Y0143933D01*
X0377320Y0143355D01*
X0374772Y0143355D01*
X0374772Y0143933D01*
X0372706Y0143453D02*
X0372706Y0146001D01*
X0373284Y0146001D01*
X0373284Y0143453D01*
X0372706Y0143453D01*
X0372706Y0144054D02*
X0373284Y0144054D01*
X0373284Y0144655D02*
X0372706Y0144655D01*
X0372706Y0145256D02*
X0373284Y0145256D01*
X0373284Y0145857D02*
X0372706Y0145857D01*
X0370737Y0146001D02*
X0370737Y0143453D01*
X0370737Y0146001D02*
X0371315Y0146001D01*
X0371315Y0143453D01*
X0370737Y0143453D01*
X0370737Y0144054D02*
X0371315Y0144054D01*
X0371315Y0144655D02*
X0370737Y0144655D01*
X0370737Y0145256D02*
X0371315Y0145256D01*
X0371315Y0145857D02*
X0370737Y0145857D01*
X0368769Y0146001D02*
X0368769Y0143453D01*
X0368769Y0146001D02*
X0369347Y0146001D01*
X0369347Y0143453D01*
X0368769Y0143453D01*
X0368769Y0144054D02*
X0369347Y0144054D01*
X0369347Y0144655D02*
X0368769Y0144655D01*
X0368769Y0145256D02*
X0369347Y0145256D01*
X0369347Y0145857D02*
X0368769Y0145857D01*
X0389780Y0229201D02*
X0389780Y0230371D01*
X0389780Y0229201D02*
X0387036Y0229201D01*
X0387036Y0230371D01*
X0389780Y0230371D01*
X0389780Y0229802D02*
X0387036Y0229802D01*
X0389780Y0233138D02*
X0389780Y0234308D01*
X0389780Y0233138D02*
X0387036Y0233138D01*
X0387036Y0234308D01*
X0389780Y0234308D01*
X0389780Y0233739D02*
X0387036Y0233739D01*
X0389780Y0237075D02*
X0389780Y0238245D01*
X0389780Y0237075D02*
X0387036Y0237075D01*
X0387036Y0238245D01*
X0389780Y0238245D01*
X0389780Y0237676D02*
X0387036Y0237676D01*
X0401197Y0238245D02*
X0401197Y0237075D01*
X0398453Y0237075D01*
X0398453Y0238245D01*
X0401197Y0238245D01*
X0401197Y0237676D02*
X0398453Y0237676D01*
X0401197Y0234308D02*
X0401197Y0233138D01*
X0398453Y0233138D01*
X0398453Y0234308D01*
X0401197Y0234308D01*
X0401197Y0233739D02*
X0398453Y0233739D01*
X0401197Y0230371D02*
X0401197Y0229201D01*
X0398453Y0229201D01*
X0398453Y0230371D01*
X0401197Y0230371D01*
X0401197Y0229802D02*
X0398453Y0229802D01*
X0402765Y0415351D02*
X0405705Y0415351D01*
X0405705Y0412213D01*
X0402765Y0412213D01*
X0402765Y0415351D01*
X0402765Y0412814D02*
X0405705Y0412814D01*
X0405705Y0413415D02*
X0402765Y0413415D01*
X0402765Y0414016D02*
X0405705Y0414016D01*
X0405705Y0414617D02*
X0402765Y0414617D01*
X0402765Y0415218D02*
X0405705Y0415218D01*
X0393303Y0415351D02*
X0390363Y0415351D01*
X0393303Y0415351D02*
X0393303Y0412213D01*
X0390363Y0412213D01*
X0390363Y0415351D01*
X0390363Y0412814D02*
X0393303Y0412814D01*
X0393303Y0413415D02*
X0390363Y0413415D01*
X0390363Y0414016D02*
X0393303Y0414016D01*
X0393303Y0414617D02*
X0390363Y0414617D01*
X0390363Y0415218D02*
X0393303Y0415218D01*
X0393638Y0470934D02*
X0390698Y0470934D01*
X0390698Y0474072D01*
X0393638Y0474072D01*
X0393638Y0470934D01*
X0393638Y0471535D02*
X0390698Y0471535D01*
X0390698Y0472136D02*
X0393638Y0472136D01*
X0393638Y0472737D02*
X0390698Y0472737D01*
X0390698Y0473338D02*
X0393638Y0473338D01*
X0393638Y0473939D02*
X0390698Y0473939D01*
X0381236Y0470934D02*
X0378296Y0470934D01*
X0378296Y0474072D01*
X0381236Y0474072D01*
X0381236Y0470934D01*
X0381236Y0471535D02*
X0378296Y0471535D01*
X0378296Y0472136D02*
X0381236Y0472136D01*
X0381236Y0472737D02*
X0378296Y0472737D01*
X0378296Y0473338D02*
X0381236Y0473338D01*
X0381236Y0473939D02*
X0378296Y0473939D01*
X0267299Y0448205D02*
X0267299Y0447627D01*
X0266721Y0447627D01*
X0266721Y0448205D01*
X0267299Y0448205D01*
X0267299Y0445646D02*
X0267299Y0445068D01*
X0266721Y0445068D01*
X0266721Y0445646D01*
X0267299Y0445646D01*
X0267299Y0443087D02*
X0267299Y0442509D01*
X0266721Y0442509D01*
X0266721Y0443087D01*
X0267299Y0443087D01*
X0263559Y0443087D02*
X0263559Y0442509D01*
X0262981Y0442509D01*
X0262981Y0443087D01*
X0263559Y0443087D01*
X0263559Y0445068D02*
X0263559Y0445646D01*
X0263559Y0445068D02*
X0262981Y0445068D01*
X0262981Y0445646D01*
X0263559Y0445646D01*
X0263559Y0447627D02*
X0263559Y0448205D01*
X0263559Y0447627D02*
X0262981Y0447627D01*
X0262981Y0448205D01*
X0263559Y0448205D01*
X0094190Y0357391D02*
X0091446Y0357391D01*
X0091446Y0357969D01*
X0094190Y0357969D01*
X0094190Y0357391D01*
X0094190Y0355422D02*
X0091446Y0355422D01*
X0091446Y0356000D01*
X0094190Y0356000D01*
X0094190Y0355422D01*
X0094190Y0353454D02*
X0091446Y0353454D01*
X0091446Y0354032D01*
X0094190Y0354032D01*
X0094190Y0353454D01*
X0094190Y0351485D02*
X0091446Y0351485D01*
X0091446Y0352063D01*
X0094190Y0352063D01*
X0094190Y0351485D01*
X0089674Y0350292D02*
X0089674Y0347548D01*
X0089674Y0350292D02*
X0090252Y0350292D01*
X0090252Y0347548D01*
X0089674Y0347548D01*
X0089674Y0348149D02*
X0090252Y0348149D01*
X0090252Y0348750D02*
X0089674Y0348750D01*
X0089674Y0349351D02*
X0090252Y0349351D01*
X0090252Y0349952D02*
X0089674Y0349952D01*
X0087706Y0350292D02*
X0087706Y0347548D01*
X0087706Y0350292D02*
X0088284Y0350292D01*
X0088284Y0347548D01*
X0087706Y0347548D01*
X0087706Y0348149D02*
X0088284Y0348149D01*
X0088284Y0348750D02*
X0087706Y0348750D01*
X0087706Y0349351D02*
X0088284Y0349351D01*
X0088284Y0349952D02*
X0087706Y0349952D01*
X0085737Y0350292D02*
X0085737Y0347548D01*
X0085737Y0350292D02*
X0086315Y0350292D01*
X0086315Y0347548D01*
X0085737Y0347548D01*
X0085737Y0348149D02*
X0086315Y0348149D01*
X0086315Y0348750D02*
X0085737Y0348750D01*
X0085737Y0349351D02*
X0086315Y0349351D01*
X0086315Y0349952D02*
X0085737Y0349952D01*
X0083769Y0350292D02*
X0083769Y0347548D01*
X0083769Y0350292D02*
X0084347Y0350292D01*
X0084347Y0347548D01*
X0083769Y0347548D01*
X0083769Y0348149D02*
X0084347Y0348149D01*
X0084347Y0348750D02*
X0083769Y0348750D01*
X0083769Y0349351D02*
X0084347Y0349351D01*
X0084347Y0349952D02*
X0083769Y0349952D01*
X0082575Y0352063D02*
X0079831Y0352063D01*
X0082575Y0352063D02*
X0082575Y0351485D01*
X0079831Y0351485D01*
X0079831Y0352063D01*
X0079831Y0354032D02*
X0082575Y0354032D01*
X0082575Y0353454D01*
X0079831Y0353454D01*
X0079831Y0354032D01*
X0079831Y0356000D02*
X0082575Y0356000D01*
X0082575Y0355422D01*
X0079831Y0355422D01*
X0079831Y0356000D01*
X0079831Y0357969D02*
X0082575Y0357969D01*
X0082575Y0357391D01*
X0079831Y0357391D01*
X0079831Y0357969D01*
X0084347Y0359162D02*
X0084347Y0361906D01*
X0084347Y0359162D02*
X0083769Y0359162D01*
X0083769Y0361906D01*
X0084347Y0361906D01*
X0084347Y0359763D02*
X0083769Y0359763D01*
X0083769Y0360364D02*
X0084347Y0360364D01*
X0084347Y0360965D02*
X0083769Y0360965D01*
X0083769Y0361566D02*
X0084347Y0361566D01*
X0086315Y0361906D02*
X0086315Y0359162D01*
X0085737Y0359162D01*
X0085737Y0361906D01*
X0086315Y0361906D01*
X0086315Y0359763D02*
X0085737Y0359763D01*
X0085737Y0360364D02*
X0086315Y0360364D01*
X0086315Y0360965D02*
X0085737Y0360965D01*
X0085737Y0361566D02*
X0086315Y0361566D01*
X0088284Y0361906D02*
X0088284Y0359162D01*
X0087706Y0359162D01*
X0087706Y0361906D01*
X0088284Y0361906D01*
X0088284Y0359763D02*
X0087706Y0359763D01*
X0087706Y0360364D02*
X0088284Y0360364D01*
X0088284Y0360965D02*
X0087706Y0360965D01*
X0087706Y0361566D02*
X0088284Y0361566D01*
X0090252Y0361906D02*
X0090252Y0359162D01*
X0089674Y0359162D01*
X0089674Y0361906D01*
X0090252Y0361906D01*
X0090252Y0359763D02*
X0089674Y0359763D01*
X0089674Y0360364D02*
X0090252Y0360364D01*
X0090252Y0360965D02*
X0089674Y0360965D01*
X0089674Y0361566D02*
X0090252Y0361566D01*
D11*
X0099511Y0358960D02*
X0103251Y0358960D01*
X0099511Y0358960D02*
X0099511Y0362306D01*
X0103251Y0362306D01*
X0103251Y0358960D01*
X0103251Y0359550D02*
X0099511Y0359550D01*
X0099511Y0360140D02*
X0103251Y0360140D01*
X0103251Y0360730D02*
X0099511Y0360730D01*
X0099511Y0361320D02*
X0103251Y0361320D01*
X0103251Y0361910D02*
X0099511Y0361910D01*
X0106203Y0358960D02*
X0109943Y0358960D01*
X0106203Y0358960D02*
X0106203Y0362306D01*
X0109943Y0362306D01*
X0109943Y0358960D01*
X0109943Y0359550D02*
X0106203Y0359550D01*
X0106203Y0360140D02*
X0109943Y0360140D01*
X0109943Y0360730D02*
X0106203Y0360730D01*
X0106203Y0361320D02*
X0109943Y0361320D01*
X0109943Y0361910D02*
X0106203Y0361910D01*
X0113290Y0358960D02*
X0117030Y0358960D01*
X0113290Y0358960D02*
X0113290Y0362306D01*
X0117030Y0362306D01*
X0117030Y0358960D01*
X0117030Y0359550D02*
X0113290Y0359550D01*
X0113290Y0360140D02*
X0117030Y0360140D01*
X0117030Y0360730D02*
X0113290Y0360730D01*
X0113290Y0361320D02*
X0117030Y0361320D01*
X0117030Y0361910D02*
X0113290Y0361910D01*
X0119983Y0358960D02*
X0123723Y0358960D01*
X0119983Y0358960D02*
X0119983Y0362306D01*
X0123723Y0362306D01*
X0123723Y0358960D01*
X0123723Y0359550D02*
X0119983Y0359550D01*
X0119983Y0360140D02*
X0123723Y0360140D01*
X0123723Y0360730D02*
X0119983Y0360730D01*
X0119983Y0361320D02*
X0123723Y0361320D01*
X0123723Y0361910D02*
X0119983Y0361910D01*
X0119983Y0349117D02*
X0123723Y0349117D01*
X0119983Y0349117D02*
X0119983Y0352463D01*
X0123723Y0352463D01*
X0123723Y0349117D01*
X0123723Y0349707D02*
X0119983Y0349707D01*
X0119983Y0350297D02*
X0123723Y0350297D01*
X0123723Y0350887D02*
X0119983Y0350887D01*
X0119983Y0351477D02*
X0123723Y0351477D01*
X0123723Y0352067D02*
X0119983Y0352067D01*
X0117030Y0349117D02*
X0113290Y0349117D01*
X0113290Y0352463D01*
X0117030Y0352463D01*
X0117030Y0349117D01*
X0117030Y0349707D02*
X0113290Y0349707D01*
X0113290Y0350297D02*
X0117030Y0350297D01*
X0117030Y0350887D02*
X0113290Y0350887D01*
X0113290Y0351477D02*
X0117030Y0351477D01*
X0117030Y0352067D02*
X0113290Y0352067D01*
X0097149Y0346164D02*
X0097149Y0342424D01*
X0097149Y0346164D02*
X0100495Y0346164D01*
X0100495Y0342424D01*
X0097149Y0342424D01*
X0097149Y0343014D02*
X0100495Y0343014D01*
X0100495Y0343604D02*
X0097149Y0343604D01*
X0097149Y0344194D02*
X0100495Y0344194D01*
X0100495Y0344784D02*
X0097149Y0344784D01*
X0097149Y0345374D02*
X0100495Y0345374D01*
X0100495Y0345964D02*
X0097149Y0345964D01*
X0097149Y0339471D02*
X0097149Y0335731D01*
X0097149Y0339471D02*
X0100495Y0339471D01*
X0100495Y0335731D01*
X0097149Y0335731D01*
X0097149Y0336321D02*
X0100495Y0336321D01*
X0100495Y0336911D02*
X0097149Y0336911D01*
X0097149Y0337501D02*
X0100495Y0337501D01*
X0100495Y0338091D02*
X0097149Y0338091D01*
X0097149Y0338681D02*
X0100495Y0338681D01*
X0100495Y0339271D02*
X0097149Y0339271D01*
X0096361Y0330809D02*
X0100101Y0330809D01*
X0100101Y0327463D01*
X0096361Y0327463D01*
X0096361Y0330809D01*
X0096361Y0328053D02*
X0100101Y0328053D01*
X0100101Y0328643D02*
X0096361Y0328643D01*
X0096361Y0329233D02*
X0100101Y0329233D01*
X0100101Y0329823D02*
X0096361Y0329823D01*
X0096361Y0330413D02*
X0100101Y0330413D01*
X0100101Y0322935D02*
X0096361Y0322935D01*
X0100101Y0322935D02*
X0100101Y0319589D01*
X0096361Y0319589D01*
X0096361Y0322935D01*
X0096361Y0320179D02*
X0100101Y0320179D01*
X0100101Y0320769D02*
X0096361Y0320769D01*
X0096361Y0321359D02*
X0100101Y0321359D01*
X0100101Y0321949D02*
X0096361Y0321949D01*
X0096361Y0322539D02*
X0100101Y0322539D01*
X0093408Y0322935D02*
X0089668Y0322935D01*
X0093408Y0322935D02*
X0093408Y0319589D01*
X0089668Y0319589D01*
X0089668Y0322935D01*
X0089668Y0320179D02*
X0093408Y0320179D01*
X0093408Y0320769D02*
X0089668Y0320769D01*
X0089668Y0321359D02*
X0093408Y0321359D01*
X0093408Y0321949D02*
X0089668Y0321949D01*
X0089668Y0322539D02*
X0093408Y0322539D01*
X0093408Y0330809D02*
X0089668Y0330809D01*
X0093408Y0330809D02*
X0093408Y0327463D01*
X0089668Y0327463D01*
X0089668Y0330809D01*
X0089668Y0328053D02*
X0093408Y0328053D01*
X0093408Y0328643D02*
X0089668Y0328643D01*
X0089668Y0329233D02*
X0093408Y0329233D01*
X0093408Y0329823D02*
X0089668Y0329823D01*
X0089668Y0330413D02*
X0093408Y0330413D01*
X0093408Y0315061D02*
X0089668Y0315061D01*
X0093408Y0315061D02*
X0093408Y0311715D01*
X0089668Y0311715D01*
X0089668Y0315061D01*
X0089668Y0312305D02*
X0093408Y0312305D01*
X0093408Y0312895D02*
X0089668Y0312895D01*
X0089668Y0313485D02*
X0093408Y0313485D01*
X0093408Y0314075D02*
X0089668Y0314075D01*
X0089668Y0314665D02*
X0093408Y0314665D01*
X0096361Y0315061D02*
X0100101Y0315061D01*
X0100101Y0311715D01*
X0096361Y0311715D01*
X0096361Y0315061D01*
X0096361Y0312305D02*
X0100101Y0312305D01*
X0100101Y0312895D02*
X0096361Y0312895D01*
X0096361Y0313485D02*
X0100101Y0313485D01*
X0100101Y0314075D02*
X0096361Y0314075D01*
X0096361Y0314665D02*
X0100101Y0314665D01*
X0107385Y0311124D02*
X0111125Y0311124D01*
X0111125Y0307778D01*
X0107385Y0307778D01*
X0107385Y0311124D01*
X0107385Y0308368D02*
X0111125Y0308368D01*
X0111125Y0308958D02*
X0107385Y0308958D01*
X0107385Y0309548D02*
X0111125Y0309548D01*
X0111125Y0310138D02*
X0107385Y0310138D01*
X0107385Y0310728D02*
X0111125Y0310728D01*
X0114078Y0311124D02*
X0117818Y0311124D01*
X0117818Y0307778D01*
X0114078Y0307778D01*
X0114078Y0311124D01*
X0114078Y0308368D02*
X0117818Y0308368D01*
X0117818Y0308958D02*
X0114078Y0308958D01*
X0114078Y0309548D02*
X0117818Y0309548D01*
X0117818Y0310138D02*
X0114078Y0310138D01*
X0114078Y0310728D02*
X0117818Y0310728D01*
X0122148Y0304825D02*
X0122148Y0301085D01*
X0118802Y0301085D01*
X0118802Y0304825D01*
X0122148Y0304825D01*
X0122148Y0301675D02*
X0118802Y0301675D01*
X0118802Y0302265D02*
X0122148Y0302265D01*
X0122148Y0302855D02*
X0118802Y0302855D01*
X0118802Y0303445D02*
X0122148Y0303445D01*
X0122148Y0304035D02*
X0118802Y0304035D01*
X0118802Y0304625D02*
X0122148Y0304625D01*
X0130022Y0304825D02*
X0130022Y0301085D01*
X0126676Y0301085D01*
X0126676Y0304825D01*
X0130022Y0304825D01*
X0130022Y0301675D02*
X0126676Y0301675D01*
X0126676Y0302265D02*
X0130022Y0302265D01*
X0130022Y0302855D02*
X0126676Y0302855D01*
X0126676Y0303445D02*
X0130022Y0303445D01*
X0130022Y0304035D02*
X0126676Y0304035D01*
X0126676Y0304625D02*
X0130022Y0304625D01*
X0130022Y0298132D02*
X0130022Y0294392D01*
X0126676Y0294392D01*
X0126676Y0298132D01*
X0130022Y0298132D01*
X0130022Y0294982D02*
X0126676Y0294982D01*
X0126676Y0295572D02*
X0130022Y0295572D01*
X0130022Y0296162D02*
X0126676Y0296162D01*
X0126676Y0296752D02*
X0130022Y0296752D01*
X0130022Y0297342D02*
X0126676Y0297342D01*
X0126676Y0297932D02*
X0130022Y0297932D01*
X0122148Y0298132D02*
X0122148Y0294392D01*
X0118802Y0294392D01*
X0118802Y0298132D01*
X0122148Y0298132D01*
X0122148Y0294982D02*
X0118802Y0294982D01*
X0118802Y0295572D02*
X0122148Y0295572D01*
X0122148Y0296162D02*
X0118802Y0296162D01*
X0118802Y0296752D02*
X0122148Y0296752D01*
X0122148Y0297342D02*
X0118802Y0297342D01*
X0118802Y0297932D02*
X0122148Y0297932D01*
X0106006Y0283565D02*
X0102266Y0283565D01*
X0106006Y0283565D02*
X0106006Y0280219D01*
X0102266Y0280219D01*
X0102266Y0283565D01*
X0102266Y0280809D02*
X0106006Y0280809D01*
X0106006Y0281399D02*
X0102266Y0281399D01*
X0102266Y0281989D02*
X0106006Y0281989D01*
X0106006Y0282579D02*
X0102266Y0282579D01*
X0102266Y0283169D02*
X0106006Y0283169D01*
X0099314Y0283565D02*
X0095574Y0283565D01*
X0099314Y0283565D02*
X0099314Y0280219D01*
X0095574Y0280219D01*
X0095574Y0283565D01*
X0095574Y0280809D02*
X0099314Y0280809D01*
X0099314Y0281399D02*
X0095574Y0281399D01*
X0095574Y0281989D02*
X0099314Y0281989D01*
X0099314Y0282579D02*
X0095574Y0282579D01*
X0095574Y0283169D02*
X0099314Y0283169D01*
X0099314Y0275691D02*
X0095574Y0275691D01*
X0099314Y0275691D02*
X0099314Y0272345D01*
X0095574Y0272345D01*
X0095574Y0275691D01*
X0095574Y0272935D02*
X0099314Y0272935D01*
X0099314Y0273525D02*
X0095574Y0273525D01*
X0095574Y0274115D02*
X0099314Y0274115D01*
X0099314Y0274705D02*
X0095574Y0274705D01*
X0095574Y0275295D02*
X0099314Y0275295D01*
X0102266Y0275691D02*
X0106006Y0275691D01*
X0106006Y0272345D01*
X0102266Y0272345D01*
X0102266Y0275691D01*
X0102266Y0272935D02*
X0106006Y0272935D01*
X0106006Y0273525D02*
X0102266Y0273525D01*
X0102266Y0274115D02*
X0106006Y0274115D01*
X0106006Y0274705D02*
X0102266Y0274705D01*
X0102266Y0275295D02*
X0106006Y0275295D01*
X0104235Y0225101D02*
X0107975Y0225101D01*
X0104235Y0225101D02*
X0104235Y0228447D01*
X0107975Y0228447D01*
X0107975Y0225101D01*
X0107975Y0225691D02*
X0104235Y0225691D01*
X0104235Y0226281D02*
X0107975Y0226281D01*
X0107975Y0226871D02*
X0104235Y0226871D01*
X0104235Y0227461D02*
X0107975Y0227461D01*
X0107975Y0228051D02*
X0104235Y0228051D01*
X0101282Y0225101D02*
X0097542Y0225101D01*
X0097542Y0228447D01*
X0101282Y0228447D01*
X0101282Y0225101D01*
X0101282Y0225691D02*
X0097542Y0225691D01*
X0097542Y0226281D02*
X0101282Y0226281D01*
X0101282Y0226871D02*
X0097542Y0226871D01*
X0097542Y0227461D02*
X0101282Y0227461D01*
X0101282Y0228051D02*
X0097542Y0228051D01*
X0097542Y0217227D02*
X0101282Y0217227D01*
X0097542Y0217227D02*
X0097542Y0220573D01*
X0101282Y0220573D01*
X0101282Y0217227D01*
X0101282Y0217817D02*
X0097542Y0217817D01*
X0097542Y0218407D02*
X0101282Y0218407D01*
X0101282Y0218997D02*
X0097542Y0218997D01*
X0097542Y0219587D02*
X0101282Y0219587D01*
X0101282Y0220177D02*
X0097542Y0220177D01*
X0104235Y0217227D02*
X0107975Y0217227D01*
X0104235Y0217227D02*
X0104235Y0220573D01*
X0107975Y0220573D01*
X0107975Y0217227D01*
X0107975Y0217817D02*
X0104235Y0217817D01*
X0104235Y0218407D02*
X0107975Y0218407D01*
X0107975Y0218997D02*
X0104235Y0218997D01*
X0104235Y0219587D02*
X0107975Y0219587D01*
X0107975Y0220177D02*
X0104235Y0220177D01*
X0176873Y0169196D02*
X0176873Y0167030D01*
X0176873Y0169196D02*
X0178251Y0169196D01*
X0178251Y0167030D01*
X0176873Y0167030D01*
X0176873Y0167620D02*
X0178251Y0167620D01*
X0178251Y0168210D02*
X0176873Y0168210D01*
X0176873Y0168800D02*
X0178251Y0168800D01*
X0176873Y0164078D02*
X0176873Y0161912D01*
X0176873Y0164078D02*
X0178251Y0164078D01*
X0178251Y0161912D01*
X0176873Y0161912D01*
X0176873Y0162502D02*
X0178251Y0162502D01*
X0178251Y0163092D02*
X0176873Y0163092D01*
X0176873Y0163682D02*
X0178251Y0163682D01*
X0187109Y0164274D02*
X0187109Y0160534D01*
X0183763Y0160534D01*
X0183763Y0164274D01*
X0187109Y0164274D01*
X0187109Y0161124D02*
X0183763Y0161124D01*
X0183763Y0161714D02*
X0187109Y0161714D01*
X0187109Y0162304D02*
X0183763Y0162304D01*
X0183763Y0162894D02*
X0187109Y0162894D01*
X0187109Y0163484D02*
X0183763Y0163484D01*
X0183763Y0164074D02*
X0187109Y0164074D01*
X0187109Y0167227D02*
X0187109Y0170967D01*
X0187109Y0167227D02*
X0183763Y0167227D01*
X0183763Y0170967D01*
X0187109Y0170967D01*
X0187109Y0167817D02*
X0183763Y0167817D01*
X0183763Y0168407D02*
X0187109Y0168407D01*
X0187109Y0168997D02*
X0183763Y0168997D01*
X0183763Y0169587D02*
X0187109Y0169587D01*
X0187109Y0170177D02*
X0183763Y0170177D01*
X0183763Y0170767D02*
X0187109Y0170767D01*
X0191637Y0170967D02*
X0191637Y0167227D01*
X0191637Y0170967D02*
X0194983Y0170967D01*
X0194983Y0167227D01*
X0191637Y0167227D01*
X0191637Y0167817D02*
X0194983Y0167817D01*
X0194983Y0168407D02*
X0191637Y0168407D01*
X0191637Y0168997D02*
X0194983Y0168997D01*
X0194983Y0169587D02*
X0191637Y0169587D01*
X0191637Y0170177D02*
X0194983Y0170177D01*
X0194983Y0170767D02*
X0191637Y0170767D01*
X0191637Y0164274D02*
X0191637Y0160534D01*
X0191637Y0164274D02*
X0194983Y0164274D01*
X0194983Y0160534D01*
X0191637Y0160534D01*
X0191637Y0161124D02*
X0194983Y0161124D01*
X0194983Y0161714D02*
X0191637Y0161714D01*
X0191637Y0162304D02*
X0194983Y0162304D01*
X0194983Y0162894D02*
X0191637Y0162894D01*
X0191637Y0163484D02*
X0194983Y0163484D01*
X0194983Y0164074D02*
X0191637Y0164074D01*
X0199511Y0164274D02*
X0199511Y0160534D01*
X0199511Y0164274D02*
X0202857Y0164274D01*
X0202857Y0160534D01*
X0199511Y0160534D01*
X0199511Y0161124D02*
X0202857Y0161124D01*
X0202857Y0161714D02*
X0199511Y0161714D01*
X0199511Y0162304D02*
X0202857Y0162304D01*
X0202857Y0162894D02*
X0199511Y0162894D01*
X0199511Y0163484D02*
X0202857Y0163484D01*
X0202857Y0164074D02*
X0199511Y0164074D01*
X0199511Y0167227D02*
X0199511Y0170967D01*
X0202857Y0170967D01*
X0202857Y0167227D01*
X0199511Y0167227D01*
X0199511Y0167817D02*
X0202857Y0167817D01*
X0202857Y0168407D02*
X0199511Y0168407D01*
X0199511Y0168997D02*
X0202857Y0168997D01*
X0202857Y0169587D02*
X0199511Y0169587D01*
X0199511Y0170177D02*
X0202857Y0170177D01*
X0202857Y0170767D02*
X0199511Y0170767D01*
X0207385Y0170967D02*
X0207385Y0167227D01*
X0207385Y0170967D02*
X0210731Y0170967D01*
X0210731Y0167227D01*
X0207385Y0167227D01*
X0207385Y0167817D02*
X0210731Y0167817D01*
X0210731Y0168407D02*
X0207385Y0168407D01*
X0207385Y0168997D02*
X0210731Y0168997D01*
X0210731Y0169587D02*
X0207385Y0169587D01*
X0207385Y0170177D02*
X0210731Y0170177D01*
X0210731Y0170767D02*
X0207385Y0170767D01*
X0207385Y0164274D02*
X0207385Y0160534D01*
X0207385Y0164274D02*
X0210731Y0164274D01*
X0210731Y0160534D01*
X0207385Y0160534D01*
X0207385Y0161124D02*
X0210731Y0161124D01*
X0210731Y0161714D02*
X0207385Y0161714D01*
X0207385Y0162304D02*
X0210731Y0162304D01*
X0210731Y0162894D02*
X0207385Y0162894D01*
X0207385Y0163484D02*
X0210731Y0163484D01*
X0210731Y0164074D02*
X0207385Y0164074D01*
X0249949Y0222887D02*
X0247305Y0225531D01*
X0249671Y0227897D01*
X0252315Y0225253D01*
X0249949Y0222887D01*
X0250539Y0223477D02*
X0249359Y0223477D01*
X0248769Y0224067D02*
X0251129Y0224067D01*
X0251719Y0224657D02*
X0248179Y0224657D01*
X0247589Y0225247D02*
X0252309Y0225247D01*
X0251731Y0225837D02*
X0247611Y0225837D01*
X0248201Y0226427D02*
X0251141Y0226427D01*
X0250551Y0227017D02*
X0248791Y0227017D01*
X0249381Y0227607D02*
X0249961Y0227607D01*
X0253210Y0231437D02*
X0255854Y0228793D01*
X0253210Y0231437D02*
X0255576Y0233803D01*
X0258220Y0231159D01*
X0255854Y0228793D01*
X0256444Y0229383D02*
X0255264Y0229383D01*
X0254674Y0229973D02*
X0257034Y0229973D01*
X0257624Y0230563D02*
X0254084Y0230563D01*
X0253494Y0231153D02*
X0258214Y0231153D01*
X0257636Y0231743D02*
X0253516Y0231743D01*
X0254106Y0232333D02*
X0257046Y0232333D01*
X0256456Y0232923D02*
X0254696Y0232923D01*
X0255286Y0233513D02*
X0255866Y0233513D01*
X0251122Y0233525D02*
X0248478Y0236169D01*
X0250844Y0238535D01*
X0253488Y0235891D01*
X0251122Y0233525D01*
X0251712Y0234115D02*
X0250532Y0234115D01*
X0249942Y0234705D02*
X0252302Y0234705D01*
X0252892Y0235295D02*
X0249352Y0235295D01*
X0248762Y0235885D02*
X0253482Y0235885D01*
X0252904Y0236475D02*
X0248784Y0236475D01*
X0249374Y0237065D02*
X0252314Y0237065D01*
X0251724Y0237655D02*
X0249964Y0237655D01*
X0250554Y0238245D02*
X0251134Y0238245D01*
X0244352Y0244750D02*
X0246996Y0247394D01*
X0249362Y0245028D01*
X0246718Y0242384D01*
X0244352Y0244750D01*
X0246128Y0242974D02*
X0247308Y0242974D01*
X0247898Y0243564D02*
X0245538Y0243564D01*
X0244948Y0244154D02*
X0248488Y0244154D01*
X0249078Y0244744D02*
X0244358Y0244744D01*
X0244936Y0245334D02*
X0249056Y0245334D01*
X0248466Y0245924D02*
X0245526Y0245924D01*
X0246116Y0246514D02*
X0247876Y0246514D01*
X0247286Y0247104D02*
X0246706Y0247104D01*
X0242263Y0242661D02*
X0239619Y0240017D01*
X0242263Y0242661D02*
X0244629Y0240295D01*
X0241985Y0237651D01*
X0239619Y0240017D01*
X0241395Y0238241D02*
X0242575Y0238241D01*
X0243165Y0238831D02*
X0240805Y0238831D01*
X0240215Y0239421D02*
X0243755Y0239421D01*
X0244345Y0240011D02*
X0239625Y0240011D01*
X0240203Y0240601D02*
X0244323Y0240601D01*
X0243733Y0241191D02*
X0240793Y0241191D01*
X0241383Y0241781D02*
X0243143Y0241781D01*
X0242553Y0242371D02*
X0241973Y0242371D01*
X0242572Y0230264D02*
X0245216Y0227620D01*
X0242572Y0230264D02*
X0244938Y0232630D01*
X0247582Y0229986D01*
X0245216Y0227620D01*
X0245806Y0228210D02*
X0244626Y0228210D01*
X0244036Y0228800D02*
X0246396Y0228800D01*
X0246986Y0229390D02*
X0243446Y0229390D01*
X0242856Y0229980D02*
X0247576Y0229980D01*
X0246998Y0230570D02*
X0242878Y0230570D01*
X0243468Y0231160D02*
X0246408Y0231160D01*
X0245818Y0231750D02*
X0244058Y0231750D01*
X0244648Y0232340D02*
X0245228Y0232340D01*
X0231248Y0237651D02*
X0228604Y0240295D01*
X0230970Y0242661D01*
X0233614Y0240017D01*
X0231248Y0237651D01*
X0231838Y0238241D02*
X0230658Y0238241D01*
X0230068Y0238831D02*
X0232428Y0238831D01*
X0233018Y0239421D02*
X0229478Y0239421D01*
X0228888Y0240011D02*
X0233608Y0240011D01*
X0233030Y0240601D02*
X0228910Y0240601D01*
X0229500Y0241191D02*
X0232440Y0241191D01*
X0231850Y0241781D02*
X0230090Y0241781D01*
X0230680Y0242371D02*
X0231260Y0242371D01*
X0226515Y0242384D02*
X0223871Y0245028D01*
X0226237Y0247394D01*
X0228881Y0244750D01*
X0226515Y0242384D01*
X0227105Y0242974D02*
X0225925Y0242974D01*
X0225335Y0243564D02*
X0227695Y0243564D01*
X0228285Y0244154D02*
X0224745Y0244154D01*
X0224155Y0244744D02*
X0228875Y0244744D01*
X0228297Y0245334D02*
X0224177Y0245334D01*
X0224767Y0245924D02*
X0227707Y0245924D01*
X0227117Y0246514D02*
X0225357Y0246514D01*
X0225947Y0247104D02*
X0226527Y0247104D01*
X0221406Y0247494D02*
X0218762Y0250138D01*
X0221128Y0252504D01*
X0223772Y0249860D01*
X0221406Y0247494D01*
X0221996Y0248084D02*
X0220816Y0248084D01*
X0220226Y0248674D02*
X0222586Y0248674D01*
X0223176Y0249264D02*
X0219636Y0249264D01*
X0219046Y0249854D02*
X0223766Y0249854D01*
X0223188Y0250444D02*
X0219068Y0250444D01*
X0219658Y0251034D02*
X0222598Y0251034D01*
X0222008Y0251624D02*
X0220248Y0251624D01*
X0220838Y0252214D02*
X0221418Y0252214D01*
X0216673Y0252226D02*
X0214029Y0254870D01*
X0216395Y0257236D01*
X0219039Y0254592D01*
X0216673Y0252226D01*
X0217263Y0252816D02*
X0216083Y0252816D01*
X0215493Y0253406D02*
X0217853Y0253406D01*
X0218443Y0253996D02*
X0214903Y0253996D01*
X0214313Y0254586D02*
X0219033Y0254586D01*
X0218455Y0255176D02*
X0214335Y0255176D01*
X0214925Y0255766D02*
X0217865Y0255766D01*
X0217275Y0256356D02*
X0215515Y0256356D01*
X0216105Y0256946D02*
X0216685Y0256946D01*
X0210092Y0261671D02*
X0212736Y0264315D01*
X0215102Y0261949D01*
X0212458Y0259305D01*
X0210092Y0261671D01*
X0211868Y0259895D02*
X0213048Y0259895D01*
X0213638Y0260485D02*
X0211278Y0260485D01*
X0210688Y0261075D02*
X0214228Y0261075D01*
X0214818Y0261665D02*
X0210098Y0261665D01*
X0210676Y0262255D02*
X0214796Y0262255D01*
X0214206Y0262845D02*
X0211266Y0262845D01*
X0211856Y0263435D02*
X0213616Y0263435D01*
X0213026Y0264025D02*
X0212446Y0264025D01*
X0214825Y0266403D02*
X0217469Y0269047D01*
X0219835Y0266681D01*
X0217191Y0264037D01*
X0214825Y0266403D01*
X0216601Y0264627D02*
X0217781Y0264627D01*
X0218371Y0265217D02*
X0216011Y0265217D01*
X0215421Y0265807D02*
X0218961Y0265807D01*
X0219551Y0266397D02*
X0214831Y0266397D01*
X0215409Y0266987D02*
X0219529Y0266987D01*
X0218939Y0267577D02*
X0215999Y0267577D01*
X0216589Y0268167D02*
X0218349Y0268167D01*
X0217759Y0268757D02*
X0217179Y0268757D01*
X0233782Y0297798D02*
X0237522Y0297798D01*
X0233782Y0297798D02*
X0233782Y0301144D01*
X0237522Y0301144D01*
X0237522Y0297798D01*
X0237522Y0298388D02*
X0233782Y0298388D01*
X0233782Y0298978D02*
X0237522Y0298978D01*
X0237522Y0299568D02*
X0233782Y0299568D01*
X0233782Y0300158D02*
X0237522Y0300158D01*
X0237522Y0300748D02*
X0233782Y0300748D01*
X0240475Y0297798D02*
X0244215Y0297798D01*
X0240475Y0297798D02*
X0240475Y0301144D01*
X0244215Y0301144D01*
X0244215Y0297798D01*
X0244215Y0298388D02*
X0240475Y0298388D01*
X0240475Y0298978D02*
X0244215Y0298978D01*
X0244215Y0299568D02*
X0240475Y0299568D01*
X0240475Y0300158D02*
X0244215Y0300158D01*
X0244215Y0300748D02*
X0240475Y0300748D01*
X0247494Y0260776D02*
X0250138Y0258132D01*
X0247494Y0260776D02*
X0249860Y0263142D01*
X0252504Y0260498D01*
X0250138Y0258132D01*
X0250728Y0258722D02*
X0249548Y0258722D01*
X0248958Y0259312D02*
X0251318Y0259312D01*
X0251908Y0259902D02*
X0248368Y0259902D01*
X0247778Y0260492D02*
X0252498Y0260492D01*
X0251920Y0261082D02*
X0247800Y0261082D01*
X0248390Y0261672D02*
X0251330Y0261672D01*
X0250740Y0262262D02*
X0248980Y0262262D01*
X0249570Y0262852D02*
X0250150Y0262852D01*
X0252226Y0256043D02*
X0254870Y0253399D01*
X0252226Y0256043D02*
X0254592Y0258409D01*
X0257236Y0255765D01*
X0254870Y0253399D01*
X0255460Y0253989D02*
X0254280Y0253989D01*
X0253690Y0254579D02*
X0256050Y0254579D01*
X0256640Y0255169D02*
X0253100Y0255169D01*
X0252510Y0255759D02*
X0257230Y0255759D01*
X0256652Y0256349D02*
X0252532Y0256349D01*
X0253122Y0256939D02*
X0256062Y0256939D01*
X0255472Y0257529D02*
X0253712Y0257529D01*
X0254302Y0258119D02*
X0254882Y0258119D01*
X0271116Y0223374D02*
X0273760Y0220730D01*
X0271116Y0223374D02*
X0273482Y0225740D01*
X0276126Y0223096D01*
X0273760Y0220730D01*
X0274350Y0221320D02*
X0273170Y0221320D01*
X0272580Y0221910D02*
X0274940Y0221910D01*
X0275530Y0222500D02*
X0271990Y0222500D01*
X0271400Y0223090D02*
X0276120Y0223090D01*
X0275542Y0223680D02*
X0271422Y0223680D01*
X0272012Y0224270D02*
X0274952Y0224270D01*
X0274362Y0224860D02*
X0272602Y0224860D01*
X0273192Y0225450D02*
X0273772Y0225450D01*
X0275848Y0218641D02*
X0278492Y0215997D01*
X0275848Y0218641D02*
X0278214Y0221007D01*
X0280858Y0218363D01*
X0278492Y0215997D01*
X0279082Y0216587D02*
X0277902Y0216587D01*
X0277312Y0217177D02*
X0279672Y0217177D01*
X0280262Y0217767D02*
X0276722Y0217767D01*
X0276132Y0218357D02*
X0280852Y0218357D01*
X0280274Y0218947D02*
X0276154Y0218947D01*
X0276744Y0219537D02*
X0279684Y0219537D01*
X0279094Y0220127D02*
X0277334Y0220127D01*
X0277924Y0220717D02*
X0278504Y0220717D01*
X0296361Y0232384D02*
X0300101Y0232384D01*
X0300101Y0229038D01*
X0296361Y0229038D01*
X0296361Y0232384D01*
X0296361Y0229628D02*
X0300101Y0229628D01*
X0300101Y0230218D02*
X0296361Y0230218D01*
X0296361Y0230808D02*
X0300101Y0230808D01*
X0300101Y0231398D02*
X0296361Y0231398D01*
X0296361Y0231988D02*
X0300101Y0231988D01*
X0303054Y0232384D02*
X0306794Y0232384D01*
X0306794Y0229038D01*
X0303054Y0229038D01*
X0303054Y0232384D01*
X0303054Y0229628D02*
X0306794Y0229628D01*
X0306794Y0230218D02*
X0303054Y0230218D01*
X0303054Y0230808D02*
X0306794Y0230808D01*
X0306794Y0231398D02*
X0303054Y0231398D01*
X0303054Y0231988D02*
X0306794Y0231988D01*
X0306794Y0240258D02*
X0303054Y0240258D01*
X0306794Y0240258D02*
X0306794Y0236912D01*
X0303054Y0236912D01*
X0303054Y0240258D01*
X0303054Y0237502D02*
X0306794Y0237502D01*
X0306794Y0238092D02*
X0303054Y0238092D01*
X0303054Y0238682D02*
X0306794Y0238682D01*
X0306794Y0239272D02*
X0303054Y0239272D01*
X0303054Y0239862D02*
X0306794Y0239862D01*
X0300101Y0240258D02*
X0296361Y0240258D01*
X0300101Y0240258D02*
X0300101Y0236912D01*
X0296361Y0236912D01*
X0296361Y0240258D01*
X0296361Y0237502D02*
X0300101Y0237502D01*
X0300101Y0238092D02*
X0296361Y0238092D01*
X0296361Y0238682D02*
X0300101Y0238682D01*
X0300101Y0239272D02*
X0296361Y0239272D01*
X0296361Y0239862D02*
X0300101Y0239862D01*
X0339668Y0289471D02*
X0339668Y0293211D01*
X0339668Y0289471D02*
X0336322Y0289471D01*
X0336322Y0293211D01*
X0339668Y0293211D01*
X0339668Y0290061D02*
X0336322Y0290061D01*
X0336322Y0290651D02*
X0339668Y0290651D01*
X0339668Y0291241D02*
X0336322Y0291241D01*
X0336322Y0291831D02*
X0339668Y0291831D01*
X0339668Y0292421D02*
X0336322Y0292421D01*
X0336322Y0293011D02*
X0339668Y0293011D01*
X0339668Y0296164D02*
X0339668Y0299904D01*
X0339668Y0296164D02*
X0336322Y0296164D01*
X0336322Y0299904D01*
X0339668Y0299904D01*
X0339668Y0296754D02*
X0336322Y0296754D01*
X0336322Y0297344D02*
X0339668Y0297344D01*
X0339668Y0297934D02*
X0336322Y0297934D01*
X0336322Y0298524D02*
X0339668Y0298524D01*
X0339668Y0299114D02*
X0336322Y0299114D01*
X0336322Y0299704D02*
X0339668Y0299704D01*
X0379038Y0268408D02*
X0382778Y0268408D01*
X0379038Y0268408D02*
X0379038Y0271754D01*
X0382778Y0271754D01*
X0382778Y0268408D01*
X0382778Y0268998D02*
X0379038Y0268998D01*
X0379038Y0269588D02*
X0382778Y0269588D01*
X0382778Y0270178D02*
X0379038Y0270178D01*
X0379038Y0270768D02*
X0382778Y0270768D01*
X0382778Y0271358D02*
X0379038Y0271358D01*
X0385731Y0268408D02*
X0389471Y0268408D01*
X0385731Y0268408D02*
X0385731Y0271754D01*
X0389471Y0271754D01*
X0389471Y0268408D01*
X0389471Y0268998D02*
X0385731Y0268998D01*
X0385731Y0269588D02*
X0389471Y0269588D01*
X0389471Y0270178D02*
X0385731Y0270178D01*
X0385731Y0270768D02*
X0389471Y0270768D01*
X0389471Y0271358D02*
X0385731Y0271358D01*
X0385731Y0263880D02*
X0389471Y0263880D01*
X0389471Y0260534D01*
X0385731Y0260534D01*
X0385731Y0263880D01*
X0385731Y0261124D02*
X0389471Y0261124D01*
X0389471Y0261714D02*
X0385731Y0261714D01*
X0385731Y0262304D02*
X0389471Y0262304D01*
X0389471Y0262894D02*
X0385731Y0262894D01*
X0385731Y0263484D02*
X0389471Y0263484D01*
X0382778Y0263880D02*
X0379038Y0263880D01*
X0382778Y0263880D02*
X0382778Y0260534D01*
X0379038Y0260534D01*
X0379038Y0263880D01*
X0379038Y0261124D02*
X0382778Y0261124D01*
X0382778Y0261714D02*
X0379038Y0261714D01*
X0379038Y0262304D02*
X0382778Y0262304D01*
X0382778Y0262894D02*
X0379038Y0262894D01*
X0379038Y0263484D02*
X0382778Y0263484D01*
X0382778Y0256006D02*
X0379038Y0256006D01*
X0382778Y0256006D02*
X0382778Y0252660D01*
X0379038Y0252660D01*
X0379038Y0256006D01*
X0379038Y0253250D02*
X0382778Y0253250D01*
X0382778Y0253840D02*
X0379038Y0253840D01*
X0379038Y0254430D02*
X0382778Y0254430D01*
X0382778Y0255020D02*
X0379038Y0255020D01*
X0379038Y0255610D02*
X0382778Y0255610D01*
X0385731Y0256006D02*
X0389471Y0256006D01*
X0389471Y0252660D01*
X0385731Y0252660D01*
X0385731Y0256006D01*
X0385731Y0253250D02*
X0389471Y0253250D01*
X0389471Y0253840D02*
X0385731Y0253840D01*
X0385731Y0254430D02*
X0389471Y0254430D01*
X0389471Y0255020D02*
X0385731Y0255020D01*
X0385731Y0255610D02*
X0389471Y0255610D01*
X0338290Y0171952D02*
X0334550Y0171952D01*
X0334550Y0175298D01*
X0338290Y0175298D01*
X0338290Y0171952D01*
X0338290Y0172542D02*
X0334550Y0172542D01*
X0334550Y0173132D02*
X0338290Y0173132D01*
X0338290Y0173722D02*
X0334550Y0173722D01*
X0334550Y0174312D02*
X0338290Y0174312D01*
X0338290Y0174902D02*
X0334550Y0174902D01*
X0334550Y0164078D02*
X0338290Y0164078D01*
X0334550Y0164078D02*
X0334550Y0167424D01*
X0338290Y0167424D01*
X0338290Y0164078D01*
X0338290Y0164668D02*
X0334550Y0164668D01*
X0334550Y0165258D02*
X0338290Y0165258D01*
X0338290Y0165848D02*
X0334550Y0165848D01*
X0334550Y0166438D02*
X0338290Y0166438D01*
X0338290Y0167028D02*
X0334550Y0167028D01*
X0331597Y0164078D02*
X0327857Y0164078D01*
X0327857Y0167424D01*
X0331597Y0167424D01*
X0331597Y0164078D01*
X0331597Y0164668D02*
X0327857Y0164668D01*
X0327857Y0165258D02*
X0331597Y0165258D01*
X0331597Y0165848D02*
X0327857Y0165848D01*
X0327857Y0166438D02*
X0331597Y0166438D01*
X0331597Y0167028D02*
X0327857Y0167028D01*
X0327857Y0171952D02*
X0331597Y0171952D01*
X0327857Y0171952D02*
X0327857Y0175298D01*
X0331597Y0175298D01*
X0331597Y0171952D01*
X0331597Y0172542D02*
X0327857Y0172542D01*
X0327857Y0173132D02*
X0331597Y0173132D01*
X0331597Y0173722D02*
X0327857Y0173722D01*
X0327857Y0174312D02*
X0331597Y0174312D01*
X0331597Y0174902D02*
X0327857Y0174902D01*
X0327857Y0159550D02*
X0331597Y0159550D01*
X0331597Y0156204D01*
X0327857Y0156204D01*
X0327857Y0159550D01*
X0327857Y0156794D02*
X0331597Y0156794D01*
X0331597Y0157384D02*
X0327857Y0157384D01*
X0327857Y0157974D02*
X0331597Y0157974D01*
X0331597Y0158564D02*
X0327857Y0158564D01*
X0327857Y0159154D02*
X0331597Y0159154D01*
X0334550Y0159550D02*
X0338290Y0159550D01*
X0338290Y0156204D01*
X0334550Y0156204D01*
X0334550Y0159550D01*
X0334550Y0156794D02*
X0338290Y0156794D01*
X0338290Y0157384D02*
X0334550Y0157384D01*
X0334550Y0157974D02*
X0338290Y0157974D01*
X0338290Y0158564D02*
X0334550Y0158564D01*
X0334550Y0159154D02*
X0338290Y0159154D01*
X0319589Y0159156D02*
X0319589Y0155416D01*
X0319589Y0159156D02*
X0322935Y0159156D01*
X0322935Y0155416D01*
X0319589Y0155416D01*
X0319589Y0156006D02*
X0322935Y0156006D01*
X0322935Y0156596D02*
X0319589Y0156596D01*
X0319589Y0157186D02*
X0322935Y0157186D01*
X0322935Y0157776D02*
X0319589Y0157776D01*
X0319589Y0158366D02*
X0322935Y0158366D01*
X0322935Y0158956D02*
X0319589Y0158956D01*
X0319589Y0152463D02*
X0319589Y0148723D01*
X0319589Y0152463D02*
X0322935Y0152463D01*
X0322935Y0148723D01*
X0319589Y0148723D01*
X0319589Y0149313D02*
X0322935Y0149313D01*
X0322935Y0149903D02*
X0319589Y0149903D01*
X0319589Y0150493D02*
X0322935Y0150493D01*
X0322935Y0151083D02*
X0319589Y0151083D01*
X0319589Y0151673D02*
X0322935Y0151673D01*
X0322935Y0152263D02*
X0319589Y0152263D01*
X0313684Y0133566D02*
X0313684Y0129826D01*
X0313684Y0133566D02*
X0317030Y0133566D01*
X0317030Y0129826D01*
X0313684Y0129826D01*
X0313684Y0130416D02*
X0317030Y0130416D01*
X0317030Y0131006D02*
X0313684Y0131006D01*
X0313684Y0131596D02*
X0317030Y0131596D01*
X0317030Y0132186D02*
X0313684Y0132186D01*
X0313684Y0132776D02*
X0317030Y0132776D01*
X0317030Y0133366D02*
X0313684Y0133366D01*
X0313684Y0126873D02*
X0313684Y0123133D01*
X0313684Y0126873D02*
X0317030Y0126873D01*
X0317030Y0123133D01*
X0313684Y0123133D01*
X0313684Y0123723D02*
X0317030Y0123723D01*
X0317030Y0124313D02*
X0313684Y0124313D01*
X0313684Y0124903D02*
X0317030Y0124903D01*
X0317030Y0125493D02*
X0313684Y0125493D01*
X0313684Y0126083D02*
X0317030Y0126083D01*
X0317030Y0126673D02*
X0313684Y0126673D01*
X0327857Y0122739D02*
X0331597Y0122739D01*
X0327857Y0122739D02*
X0327857Y0126085D01*
X0331597Y0126085D01*
X0331597Y0122739D01*
X0331597Y0123329D02*
X0327857Y0123329D01*
X0327857Y0123919D02*
X0331597Y0123919D01*
X0331597Y0124509D02*
X0327857Y0124509D01*
X0327857Y0125099D02*
X0331597Y0125099D01*
X0331597Y0125689D02*
X0327857Y0125689D01*
X0334550Y0122739D02*
X0338290Y0122739D01*
X0334550Y0122739D02*
X0334550Y0126085D01*
X0338290Y0126085D01*
X0338290Y0122739D01*
X0338290Y0123329D02*
X0334550Y0123329D01*
X0334550Y0123919D02*
X0338290Y0123919D01*
X0338290Y0124509D02*
X0334550Y0124509D01*
X0334550Y0125099D02*
X0338290Y0125099D01*
X0338290Y0125689D02*
X0334550Y0125689D01*
X0295967Y0126873D02*
X0295967Y0123133D01*
X0295967Y0126873D02*
X0299313Y0126873D01*
X0299313Y0123133D01*
X0295967Y0123133D01*
X0295967Y0123723D02*
X0299313Y0123723D01*
X0299313Y0124313D02*
X0295967Y0124313D01*
X0295967Y0124903D02*
X0299313Y0124903D01*
X0299313Y0125493D02*
X0295967Y0125493D01*
X0295967Y0126083D02*
X0299313Y0126083D01*
X0299313Y0126673D02*
X0295967Y0126673D01*
X0295967Y0129826D02*
X0295967Y0133566D01*
X0299313Y0133566D01*
X0299313Y0129826D01*
X0295967Y0129826D01*
X0295967Y0130416D02*
X0299313Y0130416D01*
X0299313Y0131006D02*
X0295967Y0131006D01*
X0295967Y0131596D02*
X0299313Y0131596D01*
X0299313Y0132186D02*
X0295967Y0132186D01*
X0295967Y0132776D02*
X0299313Y0132776D01*
X0299313Y0133366D02*
X0295967Y0133366D01*
X0283172Y0137896D02*
X0279432Y0137896D01*
X0283172Y0137896D02*
X0283172Y0134550D01*
X0279432Y0134550D01*
X0279432Y0137896D01*
X0279432Y0135140D02*
X0283172Y0135140D01*
X0283172Y0135730D02*
X0279432Y0135730D01*
X0279432Y0136320D02*
X0283172Y0136320D01*
X0283172Y0136910D02*
X0279432Y0136910D01*
X0279432Y0137500D02*
X0283172Y0137500D01*
X0283172Y0145770D02*
X0279432Y0145770D01*
X0283172Y0145770D02*
X0283172Y0142424D01*
X0279432Y0142424D01*
X0279432Y0145770D01*
X0279432Y0143014D02*
X0283172Y0143014D01*
X0283172Y0143604D02*
X0279432Y0143604D01*
X0279432Y0144194D02*
X0283172Y0144194D01*
X0283172Y0144784D02*
X0279432Y0144784D01*
X0279432Y0145374D02*
X0283172Y0145374D01*
X0276479Y0145770D02*
X0272739Y0145770D01*
X0276479Y0145770D02*
X0276479Y0142424D01*
X0272739Y0142424D01*
X0272739Y0145770D01*
X0272739Y0143014D02*
X0276479Y0143014D01*
X0276479Y0143604D02*
X0272739Y0143604D01*
X0272739Y0144194D02*
X0276479Y0144194D01*
X0276479Y0144784D02*
X0272739Y0144784D01*
X0272739Y0145374D02*
X0276479Y0145374D01*
X0276479Y0137896D02*
X0272739Y0137896D01*
X0276479Y0137896D02*
X0276479Y0134550D01*
X0272739Y0134550D01*
X0272739Y0137896D01*
X0272739Y0135140D02*
X0276479Y0135140D01*
X0276479Y0135730D02*
X0272739Y0135730D01*
X0272739Y0136320D02*
X0276479Y0136320D01*
X0276479Y0136910D02*
X0272739Y0136910D01*
X0272739Y0137500D02*
X0276479Y0137500D01*
X0276479Y0130022D02*
X0272739Y0130022D01*
X0276479Y0130022D02*
X0276479Y0126676D01*
X0272739Y0126676D01*
X0272739Y0130022D01*
X0272739Y0127266D02*
X0276479Y0127266D01*
X0276479Y0127856D02*
X0272739Y0127856D01*
X0272739Y0128446D02*
X0276479Y0128446D01*
X0276479Y0129036D02*
X0272739Y0129036D01*
X0272739Y0129626D02*
X0276479Y0129626D01*
X0279432Y0130022D02*
X0283172Y0130022D01*
X0283172Y0126676D01*
X0279432Y0126676D01*
X0279432Y0130022D01*
X0279432Y0127266D02*
X0283172Y0127266D01*
X0283172Y0127856D02*
X0279432Y0127856D01*
X0279432Y0128446D02*
X0283172Y0128446D01*
X0283172Y0129036D02*
X0279432Y0129036D01*
X0279432Y0129626D02*
X0283172Y0129626D01*
X0283565Y0156597D02*
X0283565Y0160337D01*
X0283565Y0156597D02*
X0280219Y0156597D01*
X0280219Y0160337D01*
X0283565Y0160337D01*
X0283565Y0157187D02*
X0280219Y0157187D01*
X0280219Y0157777D02*
X0283565Y0157777D01*
X0283565Y0158367D02*
X0280219Y0158367D01*
X0280219Y0158957D02*
X0283565Y0158957D01*
X0283565Y0159547D02*
X0280219Y0159547D01*
X0280219Y0160137D02*
X0283565Y0160137D01*
X0283565Y0163290D02*
X0283565Y0167030D01*
X0283565Y0163290D02*
X0280219Y0163290D01*
X0280219Y0167030D01*
X0283565Y0167030D01*
X0283565Y0163880D02*
X0280219Y0163880D01*
X0280219Y0164470D02*
X0283565Y0164470D01*
X0283565Y0165060D02*
X0280219Y0165060D01*
X0280219Y0165650D02*
X0283565Y0165650D01*
X0283565Y0166240D02*
X0280219Y0166240D01*
X0280219Y0166830D02*
X0283565Y0166830D01*
X0272345Y0167030D02*
X0272345Y0163290D01*
X0272345Y0167030D02*
X0275691Y0167030D01*
X0275691Y0163290D01*
X0272345Y0163290D01*
X0272345Y0163880D02*
X0275691Y0163880D01*
X0275691Y0164470D02*
X0272345Y0164470D01*
X0272345Y0165060D02*
X0275691Y0165060D01*
X0275691Y0165650D02*
X0272345Y0165650D01*
X0272345Y0166240D02*
X0275691Y0166240D01*
X0275691Y0166830D02*
X0272345Y0166830D01*
X0272345Y0160337D02*
X0272345Y0156597D01*
X0272345Y0160337D02*
X0275691Y0160337D01*
X0275691Y0156597D01*
X0272345Y0156597D01*
X0272345Y0157187D02*
X0275691Y0157187D01*
X0275691Y0157777D02*
X0272345Y0157777D01*
X0272345Y0158367D02*
X0275691Y0158367D01*
X0275691Y0158957D02*
X0272345Y0158957D01*
X0272345Y0159547D02*
X0275691Y0159547D01*
X0275691Y0160137D02*
X0272345Y0160137D01*
X0394786Y0158172D02*
X0398526Y0158172D01*
X0394786Y0158172D02*
X0394786Y0161518D01*
X0398526Y0161518D01*
X0398526Y0158172D01*
X0398526Y0158762D02*
X0394786Y0158762D01*
X0394786Y0159352D02*
X0398526Y0159352D01*
X0398526Y0159942D02*
X0394786Y0159942D01*
X0394786Y0160532D02*
X0398526Y0160532D01*
X0398526Y0161122D02*
X0394786Y0161122D01*
X0394786Y0166046D02*
X0398526Y0166046D01*
X0394786Y0166046D02*
X0394786Y0169392D01*
X0398526Y0169392D01*
X0398526Y0166046D01*
X0398526Y0166636D02*
X0394786Y0166636D01*
X0394786Y0167226D02*
X0398526Y0167226D01*
X0398526Y0167816D02*
X0394786Y0167816D01*
X0394786Y0168406D02*
X0398526Y0168406D01*
X0398526Y0168996D02*
X0394786Y0168996D01*
X0401479Y0166046D02*
X0405219Y0166046D01*
X0401479Y0166046D02*
X0401479Y0169392D01*
X0405219Y0169392D01*
X0405219Y0166046D01*
X0405219Y0166636D02*
X0401479Y0166636D01*
X0401479Y0167226D02*
X0405219Y0167226D01*
X0405219Y0167816D02*
X0401479Y0167816D01*
X0401479Y0168406D02*
X0405219Y0168406D01*
X0405219Y0168996D02*
X0401479Y0168996D01*
X0401479Y0158172D02*
X0405219Y0158172D01*
X0401479Y0158172D02*
X0401479Y0161518D01*
X0405219Y0161518D01*
X0405219Y0158172D01*
X0405219Y0158762D02*
X0401479Y0158762D01*
X0401479Y0159352D02*
X0405219Y0159352D01*
X0405219Y0159942D02*
X0401479Y0159942D01*
X0401479Y0160532D02*
X0405219Y0160532D01*
X0405219Y0161122D02*
X0401479Y0161122D01*
X0401479Y0150298D02*
X0405219Y0150298D01*
X0401479Y0150298D02*
X0401479Y0153644D01*
X0405219Y0153644D01*
X0405219Y0150298D01*
X0405219Y0150888D02*
X0401479Y0150888D01*
X0401479Y0151478D02*
X0405219Y0151478D01*
X0405219Y0152068D02*
X0401479Y0152068D01*
X0401479Y0152658D02*
X0405219Y0152658D01*
X0405219Y0153248D02*
X0401479Y0153248D01*
X0398526Y0150298D02*
X0394786Y0150298D01*
X0394786Y0153644D01*
X0398526Y0153644D01*
X0398526Y0150298D01*
X0398526Y0150888D02*
X0394786Y0150888D01*
X0394786Y0151478D02*
X0398526Y0151478D01*
X0398526Y0152068D02*
X0394786Y0152068D01*
X0394786Y0152658D02*
X0398526Y0152658D01*
X0398526Y0153248D02*
X0394786Y0153248D01*
X0394786Y0142424D02*
X0398526Y0142424D01*
X0394786Y0142424D02*
X0394786Y0145770D01*
X0398526Y0145770D01*
X0398526Y0142424D01*
X0398526Y0143014D02*
X0394786Y0143014D01*
X0394786Y0143604D02*
X0398526Y0143604D01*
X0398526Y0144194D02*
X0394786Y0144194D01*
X0394786Y0144784D02*
X0398526Y0144784D01*
X0398526Y0145374D02*
X0394786Y0145374D01*
X0394786Y0134550D02*
X0398526Y0134550D01*
X0394786Y0134550D02*
X0394786Y0137896D01*
X0398526Y0137896D01*
X0398526Y0134550D01*
X0398526Y0135140D02*
X0394786Y0135140D01*
X0394786Y0135730D02*
X0398526Y0135730D01*
X0398526Y0136320D02*
X0394786Y0136320D01*
X0394786Y0136910D02*
X0398526Y0136910D01*
X0398526Y0137500D02*
X0394786Y0137500D01*
X0401479Y0134550D02*
X0405219Y0134550D01*
X0401479Y0134550D02*
X0401479Y0137896D01*
X0405219Y0137896D01*
X0405219Y0134550D01*
X0405219Y0135140D02*
X0401479Y0135140D01*
X0401479Y0135730D02*
X0405219Y0135730D01*
X0405219Y0136320D02*
X0401479Y0136320D01*
X0401479Y0136910D02*
X0405219Y0136910D01*
X0405219Y0137500D02*
X0401479Y0137500D01*
X0401479Y0142424D02*
X0405219Y0142424D01*
X0401479Y0142424D02*
X0401479Y0145770D01*
X0405219Y0145770D01*
X0405219Y0142424D01*
X0405219Y0143014D02*
X0401479Y0143014D01*
X0401479Y0143604D02*
X0405219Y0143604D01*
X0405219Y0144194D02*
X0401479Y0144194D01*
X0401479Y0144784D02*
X0405219Y0144784D01*
X0405219Y0145374D02*
X0401479Y0145374D01*
X0401479Y0130022D02*
X0405219Y0130022D01*
X0405219Y0126676D01*
X0401479Y0126676D01*
X0401479Y0130022D01*
X0401479Y0127266D02*
X0405219Y0127266D01*
X0405219Y0127856D02*
X0401479Y0127856D01*
X0401479Y0128446D02*
X0405219Y0128446D01*
X0405219Y0129036D02*
X0401479Y0129036D01*
X0401479Y0129626D02*
X0405219Y0129626D01*
X0398526Y0130022D02*
X0394786Y0130022D01*
X0398526Y0130022D02*
X0398526Y0126676D01*
X0394786Y0126676D01*
X0394786Y0130022D01*
X0394786Y0127266D02*
X0398526Y0127266D01*
X0398526Y0127856D02*
X0394786Y0127856D01*
X0394786Y0128446D02*
X0398526Y0128446D01*
X0398526Y0129036D02*
X0394786Y0129036D01*
X0394786Y0129626D02*
X0398526Y0129626D01*
X0287109Y0333369D02*
X0283369Y0333369D01*
X0283369Y0336715D01*
X0287109Y0336715D01*
X0287109Y0333369D01*
X0287109Y0333959D02*
X0283369Y0333959D01*
X0283369Y0334549D02*
X0287109Y0334549D01*
X0287109Y0335139D02*
X0283369Y0335139D01*
X0283369Y0335729D02*
X0287109Y0335729D01*
X0287109Y0336319D02*
X0283369Y0336319D01*
X0280416Y0333369D02*
X0276676Y0333369D01*
X0276676Y0336715D01*
X0280416Y0336715D01*
X0280416Y0333369D01*
X0280416Y0333959D02*
X0276676Y0333959D01*
X0276676Y0334549D02*
X0280416Y0334549D01*
X0280416Y0335139D02*
X0276676Y0335139D01*
X0276676Y0335729D02*
X0280416Y0335729D01*
X0280416Y0336319D02*
X0276676Y0336319D01*
X0290455Y0388487D02*
X0294195Y0388487D01*
X0290455Y0388487D02*
X0290455Y0391833D01*
X0294195Y0391833D01*
X0294195Y0388487D01*
X0294195Y0389077D02*
X0290455Y0389077D01*
X0290455Y0389667D02*
X0294195Y0389667D01*
X0294195Y0390257D02*
X0290455Y0390257D01*
X0290455Y0390847D02*
X0294195Y0390847D01*
X0294195Y0391437D02*
X0290455Y0391437D01*
X0290455Y0396361D02*
X0294195Y0396361D01*
X0290455Y0396361D02*
X0290455Y0399707D01*
X0294195Y0399707D01*
X0294195Y0396361D01*
X0294195Y0396951D02*
X0290455Y0396951D01*
X0290455Y0397541D02*
X0294195Y0397541D01*
X0294195Y0398131D02*
X0290455Y0398131D01*
X0290455Y0398721D02*
X0294195Y0398721D01*
X0294195Y0399311D02*
X0290455Y0399311D01*
X0297148Y0396361D02*
X0300888Y0396361D01*
X0297148Y0396361D02*
X0297148Y0399707D01*
X0300888Y0399707D01*
X0300888Y0396361D01*
X0300888Y0396951D02*
X0297148Y0396951D01*
X0297148Y0397541D02*
X0300888Y0397541D01*
X0300888Y0398131D02*
X0297148Y0398131D01*
X0297148Y0398721D02*
X0300888Y0398721D01*
X0300888Y0399311D02*
X0297148Y0399311D01*
X0297148Y0388487D02*
X0300888Y0388487D01*
X0297148Y0388487D02*
X0297148Y0391833D01*
X0300888Y0391833D01*
X0300888Y0388487D01*
X0300888Y0389077D02*
X0297148Y0389077D01*
X0297148Y0389667D02*
X0300888Y0389667D01*
X0300888Y0390257D02*
X0297148Y0390257D01*
X0297148Y0390847D02*
X0300888Y0390847D01*
X0300888Y0391437D02*
X0297148Y0391437D01*
X0292030Y0428251D02*
X0292030Y0431991D01*
X0295376Y0431991D01*
X0295376Y0428251D01*
X0292030Y0428251D01*
X0292030Y0428841D02*
X0295376Y0428841D01*
X0295376Y0429431D02*
X0292030Y0429431D01*
X0292030Y0430021D02*
X0295376Y0430021D01*
X0295376Y0430611D02*
X0292030Y0430611D01*
X0292030Y0431201D02*
X0295376Y0431201D01*
X0295376Y0431791D02*
X0292030Y0431791D01*
X0292030Y0434944D02*
X0292030Y0438684D01*
X0295376Y0438684D01*
X0295376Y0434944D01*
X0292030Y0434944D01*
X0292030Y0435534D02*
X0295376Y0435534D01*
X0295376Y0436124D02*
X0292030Y0436124D01*
X0292030Y0436714D02*
X0295376Y0436714D01*
X0295376Y0437304D02*
X0292030Y0437304D01*
X0292030Y0437894D02*
X0295376Y0437894D01*
X0295376Y0438484D02*
X0292030Y0438484D01*
X0287502Y0438684D02*
X0287502Y0434944D01*
X0284156Y0434944D01*
X0284156Y0438684D01*
X0287502Y0438684D01*
X0287502Y0435534D02*
X0284156Y0435534D01*
X0284156Y0436124D02*
X0287502Y0436124D01*
X0287502Y0436714D02*
X0284156Y0436714D01*
X0284156Y0437304D02*
X0287502Y0437304D01*
X0287502Y0437894D02*
X0284156Y0437894D01*
X0284156Y0438484D02*
X0287502Y0438484D01*
X0287502Y0431991D02*
X0287502Y0428251D01*
X0284156Y0428251D01*
X0284156Y0431991D01*
X0287502Y0431991D01*
X0287502Y0428841D02*
X0284156Y0428841D01*
X0284156Y0429431D02*
X0287502Y0429431D01*
X0287502Y0430021D02*
X0284156Y0430021D01*
X0284156Y0430611D02*
X0287502Y0430611D01*
X0287502Y0431201D02*
X0284156Y0431201D01*
X0284156Y0431791D02*
X0287502Y0431791D01*
X0279628Y0431991D02*
X0279628Y0428251D01*
X0276282Y0428251D01*
X0276282Y0431991D01*
X0279628Y0431991D01*
X0279628Y0428841D02*
X0276282Y0428841D01*
X0276282Y0429431D02*
X0279628Y0429431D01*
X0279628Y0430021D02*
X0276282Y0430021D01*
X0276282Y0430611D02*
X0279628Y0430611D01*
X0279628Y0431201D02*
X0276282Y0431201D01*
X0276282Y0431791D02*
X0279628Y0431791D01*
X0279628Y0434944D02*
X0279628Y0438684D01*
X0279628Y0434944D02*
X0276282Y0434944D01*
X0276282Y0438684D01*
X0279628Y0438684D01*
X0279628Y0435534D02*
X0276282Y0435534D01*
X0276282Y0436124D02*
X0279628Y0436124D01*
X0279628Y0436714D02*
X0276282Y0436714D01*
X0276282Y0437304D02*
X0279628Y0437304D01*
X0279628Y0437894D02*
X0276282Y0437894D01*
X0276282Y0438484D02*
X0279628Y0438484D01*
X0268408Y0438684D02*
X0268408Y0434944D01*
X0268408Y0438684D02*
X0271754Y0438684D01*
X0271754Y0434944D01*
X0268408Y0434944D01*
X0268408Y0435534D02*
X0271754Y0435534D01*
X0271754Y0436124D02*
X0268408Y0436124D01*
X0268408Y0436714D02*
X0271754Y0436714D01*
X0271754Y0437304D02*
X0268408Y0437304D01*
X0268408Y0437894D02*
X0271754Y0437894D01*
X0271754Y0438484D02*
X0268408Y0438484D01*
X0260534Y0438684D02*
X0260534Y0434944D01*
X0260534Y0438684D02*
X0263880Y0438684D01*
X0263880Y0434944D01*
X0260534Y0434944D01*
X0260534Y0435534D02*
X0263880Y0435534D01*
X0263880Y0436124D02*
X0260534Y0436124D01*
X0260534Y0436714D02*
X0263880Y0436714D01*
X0263880Y0437304D02*
X0260534Y0437304D01*
X0260534Y0437894D02*
X0263880Y0437894D01*
X0263880Y0438484D02*
X0260534Y0438484D01*
X0255869Y0438723D02*
X0255869Y0434983D01*
X0252523Y0434983D01*
X0252523Y0438723D01*
X0255869Y0438723D01*
X0255869Y0435573D02*
X0252523Y0435573D01*
X0252523Y0436163D02*
X0255869Y0436163D01*
X0255869Y0436753D02*
X0252523Y0436753D01*
X0252523Y0437343D02*
X0255869Y0437343D01*
X0255869Y0437933D02*
X0252523Y0437933D01*
X0252523Y0438523D02*
X0255869Y0438523D01*
X0255869Y0432030D02*
X0255869Y0428290D01*
X0252523Y0428290D01*
X0252523Y0432030D01*
X0255869Y0432030D01*
X0255869Y0428880D02*
X0252523Y0428880D01*
X0252523Y0429470D02*
X0255869Y0429470D01*
X0255869Y0430060D02*
X0252523Y0430060D01*
X0252523Y0430650D02*
X0255869Y0430650D01*
X0255869Y0431240D02*
X0252523Y0431240D01*
X0252523Y0431830D02*
X0255869Y0431830D01*
X0260534Y0431991D02*
X0260534Y0428251D01*
X0260534Y0431991D02*
X0263880Y0431991D01*
X0263880Y0428251D01*
X0260534Y0428251D01*
X0260534Y0428841D02*
X0263880Y0428841D01*
X0263880Y0429431D02*
X0260534Y0429431D01*
X0260534Y0430021D02*
X0263880Y0430021D01*
X0263880Y0430611D02*
X0260534Y0430611D01*
X0260534Y0431201D02*
X0263880Y0431201D01*
X0263880Y0431791D02*
X0260534Y0431791D01*
X0268408Y0431991D02*
X0268408Y0428251D01*
X0268408Y0431991D02*
X0271754Y0431991D01*
X0271754Y0428251D01*
X0268408Y0428251D01*
X0268408Y0428841D02*
X0271754Y0428841D01*
X0271754Y0429431D02*
X0268408Y0429431D01*
X0268408Y0430021D02*
X0271754Y0430021D01*
X0271754Y0430611D02*
X0268408Y0430611D01*
X0268408Y0431201D02*
X0271754Y0431201D01*
X0271754Y0431791D02*
X0268408Y0431791D01*
X0332286Y0425928D02*
X0336026Y0425928D01*
X0332286Y0425928D02*
X0332286Y0429274D01*
X0336026Y0429274D01*
X0336026Y0425928D01*
X0336026Y0426518D02*
X0332286Y0426518D01*
X0332286Y0427108D02*
X0336026Y0427108D01*
X0336026Y0427698D02*
X0332286Y0427698D01*
X0332286Y0428288D02*
X0336026Y0428288D01*
X0336026Y0428878D02*
X0332286Y0428878D01*
X0339904Y0434176D02*
X0339904Y0435948D01*
X0339904Y0434176D02*
X0331834Y0434176D01*
X0331834Y0435948D01*
X0339904Y0435948D01*
X0339904Y0434766D02*
X0331834Y0434766D01*
X0331834Y0435356D02*
X0339904Y0435356D01*
X0339904Y0435946D02*
X0331834Y0435946D01*
X0339904Y0439176D02*
X0339904Y0440948D01*
X0339904Y0439176D02*
X0331834Y0439176D01*
X0331834Y0440948D01*
X0339904Y0440948D01*
X0339904Y0439766D02*
X0331834Y0439766D01*
X0331834Y0440356D02*
X0339904Y0440356D01*
X0339904Y0440946D02*
X0331834Y0440946D01*
X0339904Y0444176D02*
X0339904Y0445948D01*
X0339904Y0444176D02*
X0331834Y0444176D01*
X0331834Y0445948D01*
X0339904Y0445948D01*
X0339904Y0444766D02*
X0331834Y0444766D01*
X0331834Y0445356D02*
X0339904Y0445356D01*
X0339904Y0445946D02*
X0331834Y0445946D01*
X0339904Y0449176D02*
X0339904Y0450948D01*
X0339904Y0449176D02*
X0331834Y0449176D01*
X0331834Y0450948D01*
X0339904Y0450948D01*
X0339904Y0449766D02*
X0331834Y0449766D01*
X0331834Y0450356D02*
X0339904Y0450356D01*
X0339904Y0450946D02*
X0331834Y0450946D01*
X0350022Y0457385D02*
X0353762Y0457385D01*
X0350022Y0457385D02*
X0350022Y0460731D01*
X0353762Y0460731D01*
X0353762Y0457385D01*
X0353762Y0457975D02*
X0350022Y0457975D01*
X0350022Y0458565D02*
X0353762Y0458565D01*
X0353762Y0459155D02*
X0350022Y0459155D01*
X0350022Y0459745D02*
X0353762Y0459745D01*
X0353762Y0460335D02*
X0350022Y0460335D01*
X0356715Y0457385D02*
X0360455Y0457385D01*
X0356715Y0457385D02*
X0356715Y0460731D01*
X0360455Y0460731D01*
X0360455Y0457385D01*
X0360455Y0457975D02*
X0356715Y0457975D01*
X0356715Y0458565D02*
X0360455Y0458565D01*
X0360455Y0459155D02*
X0356715Y0459155D01*
X0356715Y0459745D02*
X0360455Y0459745D01*
X0360455Y0460335D02*
X0356715Y0460335D01*
X0360376Y0450948D02*
X0360376Y0449176D01*
X0352306Y0449176D01*
X0352306Y0450948D01*
X0360376Y0450948D01*
X0360376Y0449766D02*
X0352306Y0449766D01*
X0352306Y0450356D02*
X0360376Y0450356D01*
X0360376Y0450946D02*
X0352306Y0450946D01*
X0360376Y0445948D02*
X0360376Y0444176D01*
X0352306Y0444176D01*
X0352306Y0445948D01*
X0360376Y0445948D01*
X0360376Y0444766D02*
X0352306Y0444766D01*
X0352306Y0445356D02*
X0360376Y0445356D01*
X0360376Y0445946D02*
X0352306Y0445946D01*
X0360376Y0440948D02*
X0360376Y0439176D01*
X0352306Y0439176D01*
X0352306Y0440948D01*
X0360376Y0440948D01*
X0360376Y0439766D02*
X0352306Y0439766D01*
X0352306Y0440356D02*
X0360376Y0440356D01*
X0360376Y0440946D02*
X0352306Y0440946D01*
X0360376Y0435948D02*
X0360376Y0434176D01*
X0352306Y0434176D01*
X0352306Y0435948D01*
X0360376Y0435948D01*
X0360376Y0434766D02*
X0352306Y0434766D01*
X0352306Y0435356D02*
X0360376Y0435356D01*
X0360376Y0435946D02*
X0352306Y0435946D01*
X0353644Y0425889D02*
X0349904Y0425889D01*
X0349904Y0429235D01*
X0353644Y0429235D01*
X0353644Y0425889D01*
X0353644Y0426479D02*
X0349904Y0426479D01*
X0349904Y0427069D02*
X0353644Y0427069D01*
X0353644Y0427659D02*
X0349904Y0427659D01*
X0349904Y0428249D02*
X0353644Y0428249D01*
X0353644Y0428839D02*
X0349904Y0428839D01*
X0356597Y0425889D02*
X0360337Y0425889D01*
X0356597Y0425889D02*
X0356597Y0429235D01*
X0360337Y0429235D01*
X0360337Y0425889D01*
X0360337Y0426479D02*
X0356597Y0426479D01*
X0356597Y0427069D02*
X0360337Y0427069D01*
X0360337Y0427659D02*
X0356597Y0427659D01*
X0356597Y0428249D02*
X0360337Y0428249D01*
X0360337Y0428839D02*
X0356597Y0428839D01*
X0342719Y0425928D02*
X0338979Y0425928D01*
X0338979Y0429274D01*
X0342719Y0429274D01*
X0342719Y0425928D01*
X0342719Y0426518D02*
X0338979Y0426518D01*
X0338979Y0427108D02*
X0342719Y0427108D01*
X0342719Y0427698D02*
X0338979Y0427698D01*
X0338979Y0428288D02*
X0342719Y0428288D01*
X0342719Y0428878D02*
X0338979Y0428878D01*
X0379038Y0435731D02*
X0382778Y0435731D01*
X0379038Y0435731D02*
X0379038Y0439077D01*
X0382778Y0439077D01*
X0382778Y0435731D01*
X0382778Y0436321D02*
X0379038Y0436321D01*
X0379038Y0436911D02*
X0382778Y0436911D01*
X0382778Y0437501D02*
X0379038Y0437501D01*
X0379038Y0438091D02*
X0382778Y0438091D01*
X0382778Y0438681D02*
X0379038Y0438681D01*
X0379038Y0447739D02*
X0382778Y0447739D01*
X0382778Y0444393D01*
X0379038Y0444393D01*
X0379038Y0447739D01*
X0379038Y0444983D02*
X0382778Y0444983D01*
X0382778Y0445573D02*
X0379038Y0445573D01*
X0379038Y0446163D02*
X0382778Y0446163D01*
X0382778Y0446753D02*
X0379038Y0446753D01*
X0379038Y0447343D02*
X0382778Y0447343D01*
X0385731Y0447739D02*
X0389471Y0447739D01*
X0389471Y0444393D01*
X0385731Y0444393D01*
X0385731Y0447739D01*
X0385731Y0444983D02*
X0389471Y0444983D01*
X0389471Y0445573D02*
X0385731Y0445573D01*
X0385731Y0446163D02*
X0389471Y0446163D01*
X0389471Y0446753D02*
X0385731Y0446753D01*
X0385731Y0447343D02*
X0389471Y0447343D01*
X0394786Y0445377D02*
X0394786Y0441637D01*
X0394786Y0445377D02*
X0398132Y0445377D01*
X0398132Y0441637D01*
X0394786Y0441637D01*
X0394786Y0442227D02*
X0398132Y0442227D01*
X0398132Y0442817D02*
X0394786Y0442817D01*
X0394786Y0443407D02*
X0398132Y0443407D01*
X0398132Y0443997D02*
X0394786Y0443997D01*
X0394786Y0444587D02*
X0398132Y0444587D01*
X0398132Y0445177D02*
X0394786Y0445177D01*
X0394786Y0438684D02*
X0394786Y0434944D01*
X0394786Y0438684D02*
X0398132Y0438684D01*
X0398132Y0434944D01*
X0394786Y0434944D01*
X0394786Y0435534D02*
X0398132Y0435534D01*
X0398132Y0436124D02*
X0394786Y0436124D01*
X0394786Y0436714D02*
X0398132Y0436714D01*
X0398132Y0437304D02*
X0394786Y0437304D01*
X0394786Y0437894D02*
X0398132Y0437894D01*
X0398132Y0438484D02*
X0394786Y0438484D01*
X0389471Y0435731D02*
X0385731Y0435731D01*
X0385731Y0439077D01*
X0389471Y0439077D01*
X0389471Y0435731D01*
X0389471Y0436321D02*
X0385731Y0436321D01*
X0385731Y0436911D02*
X0389471Y0436911D01*
X0389471Y0437501D02*
X0385731Y0437501D01*
X0385731Y0438091D02*
X0389471Y0438091D01*
X0389471Y0438681D02*
X0385731Y0438681D01*
X0385731Y0456400D02*
X0389471Y0456400D01*
X0389471Y0453054D01*
X0385731Y0453054D01*
X0385731Y0456400D01*
X0385731Y0453644D02*
X0389471Y0453644D01*
X0389471Y0454234D02*
X0385731Y0454234D01*
X0385731Y0454824D02*
X0389471Y0454824D01*
X0389471Y0455414D02*
X0385731Y0455414D01*
X0385731Y0456004D02*
X0389471Y0456004D01*
X0394393Y0457188D02*
X0394393Y0453448D01*
X0394393Y0457188D02*
X0397739Y0457188D01*
X0397739Y0453448D01*
X0394393Y0453448D01*
X0394393Y0454038D02*
X0397739Y0454038D01*
X0397739Y0454628D02*
X0394393Y0454628D01*
X0394393Y0455218D02*
X0397739Y0455218D01*
X0397739Y0455808D02*
X0394393Y0455808D01*
X0394393Y0456398D02*
X0397739Y0456398D01*
X0397739Y0456988D02*
X0394393Y0456988D01*
X0394393Y0460140D02*
X0394393Y0463880D01*
X0397739Y0463880D01*
X0397739Y0460140D01*
X0394393Y0460140D01*
X0394393Y0460730D02*
X0397739Y0460730D01*
X0397739Y0461320D02*
X0394393Y0461320D01*
X0394393Y0461910D02*
X0397739Y0461910D01*
X0397739Y0462500D02*
X0394393Y0462500D01*
X0394393Y0463090D02*
X0397739Y0463090D01*
X0397739Y0463680D02*
X0394393Y0463680D01*
X0389471Y0464668D02*
X0385731Y0464668D01*
X0389471Y0464668D02*
X0389471Y0461322D01*
X0385731Y0461322D01*
X0385731Y0464668D01*
X0385731Y0461912D02*
X0389471Y0461912D01*
X0389471Y0462502D02*
X0385731Y0462502D01*
X0385731Y0463092D02*
X0389471Y0463092D01*
X0389471Y0463682D02*
X0385731Y0463682D01*
X0385731Y0464272D02*
X0389471Y0464272D01*
X0382778Y0464668D02*
X0379038Y0464668D01*
X0382778Y0464668D02*
X0382778Y0461322D01*
X0379038Y0461322D01*
X0379038Y0464668D01*
X0379038Y0461912D02*
X0382778Y0461912D01*
X0382778Y0462502D02*
X0379038Y0462502D01*
X0379038Y0463092D02*
X0382778Y0463092D01*
X0382778Y0463682D02*
X0379038Y0463682D01*
X0379038Y0464272D02*
X0382778Y0464272D01*
X0382778Y0456400D02*
X0379038Y0456400D01*
X0382778Y0456400D02*
X0382778Y0453054D01*
X0379038Y0453054D01*
X0379038Y0456400D01*
X0379038Y0453644D02*
X0382778Y0453644D01*
X0382778Y0454234D02*
X0379038Y0454234D01*
X0379038Y0454824D02*
X0382778Y0454824D01*
X0382778Y0455414D02*
X0379038Y0455414D01*
X0379038Y0456004D02*
X0382778Y0456004D01*
X0402267Y0409156D02*
X0402267Y0405416D01*
X0402267Y0409156D02*
X0405613Y0409156D01*
X0405613Y0405416D01*
X0402267Y0405416D01*
X0402267Y0406006D02*
X0405613Y0406006D01*
X0405613Y0406596D02*
X0402267Y0406596D01*
X0402267Y0407186D02*
X0405613Y0407186D01*
X0405613Y0407776D02*
X0402267Y0407776D01*
X0402267Y0408366D02*
X0405613Y0408366D01*
X0405613Y0408956D02*
X0402267Y0408956D01*
X0402267Y0402463D02*
X0402267Y0398723D01*
X0402267Y0402463D02*
X0405613Y0402463D01*
X0405613Y0398723D01*
X0402267Y0398723D01*
X0402267Y0399313D02*
X0405613Y0399313D01*
X0405613Y0399903D02*
X0402267Y0399903D01*
X0402267Y0400493D02*
X0405613Y0400493D01*
X0405613Y0401083D02*
X0402267Y0401083D01*
X0402267Y0401673D02*
X0405613Y0401673D01*
X0405613Y0402263D02*
X0402267Y0402263D01*
X0185731Y0383566D02*
X0185731Y0379826D01*
X0185731Y0383566D02*
X0189077Y0383566D01*
X0189077Y0379826D01*
X0185731Y0379826D01*
X0185731Y0380416D02*
X0189077Y0380416D01*
X0189077Y0381006D02*
X0185731Y0381006D01*
X0185731Y0381596D02*
X0189077Y0381596D01*
X0189077Y0382186D02*
X0185731Y0382186D01*
X0185731Y0382776D02*
X0189077Y0382776D01*
X0189077Y0383366D02*
X0185731Y0383366D01*
X0181164Y0383526D02*
X0181164Y0379786D01*
X0177818Y0379786D01*
X0177818Y0383526D01*
X0181164Y0383526D01*
X0181164Y0380376D02*
X0177818Y0380376D01*
X0177818Y0380966D02*
X0181164Y0380966D01*
X0181164Y0381556D02*
X0177818Y0381556D01*
X0177818Y0382146D02*
X0181164Y0382146D01*
X0181164Y0382736D02*
X0177818Y0382736D01*
X0177818Y0383326D02*
X0181164Y0383326D01*
X0181164Y0376833D02*
X0181164Y0373093D01*
X0177818Y0373093D01*
X0177818Y0376833D01*
X0181164Y0376833D01*
X0181164Y0373683D02*
X0177818Y0373683D01*
X0177818Y0374273D02*
X0181164Y0374273D01*
X0181164Y0374863D02*
X0177818Y0374863D01*
X0177818Y0375453D02*
X0181164Y0375453D01*
X0181164Y0376043D02*
X0177818Y0376043D01*
X0177818Y0376633D02*
X0181164Y0376633D01*
X0185731Y0376873D02*
X0185731Y0373133D01*
X0185731Y0376873D02*
X0189077Y0376873D01*
X0189077Y0373133D01*
X0185731Y0373133D01*
X0185731Y0373723D02*
X0189077Y0373723D01*
X0189077Y0374313D02*
X0185731Y0374313D01*
X0185731Y0374903D02*
X0189077Y0374903D01*
X0189077Y0375493D02*
X0185731Y0375493D01*
X0185731Y0376083D02*
X0189077Y0376083D01*
X0189077Y0376673D02*
X0185731Y0376673D01*
X0173447Y0376833D02*
X0173447Y0373093D01*
X0170101Y0373093D01*
X0170101Y0376833D01*
X0173447Y0376833D01*
X0173447Y0373683D02*
X0170101Y0373683D01*
X0170101Y0374273D02*
X0173447Y0374273D01*
X0173447Y0374863D02*
X0170101Y0374863D01*
X0170101Y0375453D02*
X0173447Y0375453D01*
X0173447Y0376043D02*
X0170101Y0376043D01*
X0170101Y0376633D02*
X0173447Y0376633D01*
X0173447Y0379786D02*
X0173447Y0383526D01*
X0173447Y0379786D02*
X0170101Y0379786D01*
X0170101Y0383526D01*
X0173447Y0383526D01*
X0173447Y0380376D02*
X0170101Y0380376D01*
X0170101Y0380966D02*
X0173447Y0380966D01*
X0173447Y0381556D02*
X0170101Y0381556D01*
X0170101Y0382146D02*
X0173447Y0382146D01*
X0173447Y0382736D02*
X0170101Y0382736D01*
X0170101Y0383326D02*
X0173447Y0383326D01*
D12*
X0354925Y0390849D02*
X0354925Y0398921D01*
X0354925Y0390849D02*
X0352955Y0390849D01*
X0352955Y0398921D01*
X0354925Y0398921D01*
X0354925Y0391437D02*
X0352955Y0391437D01*
X0352955Y0392025D02*
X0354925Y0392025D01*
X0354925Y0392613D02*
X0352955Y0392613D01*
X0352955Y0393201D02*
X0354925Y0393201D01*
X0354925Y0393789D02*
X0352955Y0393789D01*
X0352955Y0394377D02*
X0354925Y0394377D01*
X0354925Y0394965D02*
X0352955Y0394965D01*
X0352955Y0395553D02*
X0354925Y0395553D01*
X0354925Y0396141D02*
X0352955Y0396141D01*
X0352955Y0396729D02*
X0354925Y0396729D01*
X0354925Y0397317D02*
X0352955Y0397317D01*
X0352955Y0397905D02*
X0354925Y0397905D01*
X0354925Y0398493D02*
X0352955Y0398493D01*
X0354925Y0405415D02*
X0354925Y0413487D01*
X0354925Y0405415D02*
X0352955Y0405415D01*
X0352955Y0413487D01*
X0354925Y0413487D01*
X0354925Y0406003D02*
X0352955Y0406003D01*
X0352955Y0406591D02*
X0354925Y0406591D01*
X0354925Y0407179D02*
X0352955Y0407179D01*
X0352955Y0407767D02*
X0354925Y0407767D01*
X0354925Y0408355D02*
X0352955Y0408355D01*
X0352955Y0408943D02*
X0354925Y0408943D01*
X0354925Y0409531D02*
X0352955Y0409531D01*
X0352955Y0410119D02*
X0354925Y0410119D01*
X0354925Y0410707D02*
X0352955Y0410707D01*
X0352955Y0411295D02*
X0354925Y0411295D01*
X0354925Y0411883D02*
X0352955Y0411883D01*
X0352955Y0412471D02*
X0354925Y0412471D01*
X0354925Y0413059D02*
X0352955Y0413059D01*
D13*
X0234784Y0190240D02*
X0232898Y0190240D01*
X0232898Y0192914D01*
X0234784Y0192914D01*
X0234784Y0190240D01*
X0234784Y0190834D02*
X0232898Y0190834D01*
X0232898Y0191428D02*
X0234784Y0191428D01*
X0234784Y0192022D02*
X0232898Y0192022D01*
X0232898Y0192616D02*
X0234784Y0192616D01*
X0225729Y0190240D02*
X0223843Y0190240D01*
X0223843Y0192914D01*
X0225729Y0192914D01*
X0225729Y0190240D01*
X0225729Y0190834D02*
X0223843Y0190834D01*
X0223843Y0191428D02*
X0225729Y0191428D01*
X0225729Y0192022D02*
X0223843Y0192022D01*
X0223843Y0192616D02*
X0225729Y0192616D01*
X0105690Y0293584D02*
X0103804Y0293584D01*
X0105690Y0293584D02*
X0105690Y0290910D01*
X0103804Y0290910D01*
X0103804Y0293584D01*
X0103804Y0291504D02*
X0105690Y0291504D01*
X0105690Y0292098D02*
X0103804Y0292098D01*
X0103804Y0292692D02*
X0105690Y0292692D01*
X0105690Y0293286D02*
X0103804Y0293286D01*
X0096635Y0293584D02*
X0094749Y0293584D01*
X0096635Y0293584D02*
X0096635Y0290910D01*
X0094749Y0290910D01*
X0094749Y0293584D01*
X0094749Y0291504D02*
X0096635Y0291504D01*
X0096635Y0292098D02*
X0094749Y0292098D01*
X0094749Y0292692D02*
X0096635Y0292692D01*
X0096635Y0293286D02*
X0094749Y0293286D01*
X0084036Y0250001D02*
X0082150Y0250001D01*
X0084036Y0250001D02*
X0084036Y0247327D01*
X0082150Y0247327D01*
X0082150Y0250001D01*
X0082150Y0247921D02*
X0084036Y0247921D01*
X0084036Y0248515D02*
X0082150Y0248515D01*
X0082150Y0249109D02*
X0084036Y0249109D01*
X0084036Y0249703D02*
X0082150Y0249703D01*
X0074981Y0250001D02*
X0073095Y0250001D01*
X0074981Y0250001D02*
X0074981Y0247327D01*
X0073095Y0247327D01*
X0073095Y0250001D01*
X0073095Y0247921D02*
X0074981Y0247921D01*
X0074981Y0248515D02*
X0073095Y0248515D01*
X0073095Y0249109D02*
X0074981Y0249109D01*
X0074981Y0249703D02*
X0073095Y0249703D01*
D14*
X0091397Y0271641D02*
X0091397Y0272617D01*
X0091397Y0271641D02*
X0086483Y0271641D01*
X0086483Y0272617D01*
X0091397Y0272617D01*
X0091397Y0272238D02*
X0086483Y0272238D01*
X0091397Y0274200D02*
X0091397Y0275176D01*
X0091397Y0274200D02*
X0086483Y0274200D01*
X0086483Y0275176D01*
X0091397Y0275176D01*
X0091397Y0274797D02*
X0086483Y0274797D01*
X0091397Y0276759D02*
X0091397Y0277735D01*
X0091397Y0276759D02*
X0086483Y0276759D01*
X0086483Y0277735D01*
X0091397Y0277735D01*
X0091397Y0277356D02*
X0086483Y0277356D01*
X0091397Y0279318D02*
X0091397Y0280294D01*
X0091397Y0279318D02*
X0086483Y0279318D01*
X0086483Y0280294D01*
X0091397Y0280294D01*
X0091397Y0279915D02*
X0086483Y0279915D01*
X0091397Y0281877D02*
X0091397Y0282853D01*
X0091397Y0281877D02*
X0086483Y0281877D01*
X0086483Y0282853D01*
X0091397Y0282853D01*
X0091397Y0282474D02*
X0086483Y0282474D01*
X0091397Y0227459D02*
X0091397Y0226483D01*
X0086483Y0226483D01*
X0086483Y0227459D01*
X0091397Y0227459D01*
X0091397Y0227080D02*
X0086483Y0227080D01*
X0091397Y0224900D02*
X0091397Y0223924D01*
X0086483Y0223924D01*
X0086483Y0224900D01*
X0091397Y0224900D01*
X0091397Y0224521D02*
X0086483Y0224521D01*
X0091397Y0222341D02*
X0091397Y0221365D01*
X0086483Y0221365D01*
X0086483Y0222341D01*
X0091397Y0222341D01*
X0091397Y0221962D02*
X0086483Y0221962D01*
X0091397Y0219782D02*
X0091397Y0218806D01*
X0086483Y0218806D01*
X0086483Y0219782D01*
X0091397Y0219782D01*
X0091397Y0219403D02*
X0086483Y0219403D01*
X0091397Y0217223D02*
X0091397Y0216247D01*
X0086483Y0216247D01*
X0086483Y0217223D01*
X0091397Y0217223D01*
X0091397Y0216844D02*
X0086483Y0216844D01*
X0170184Y0215853D02*
X0170184Y0218405D01*
X0173128Y0218405D01*
X0173128Y0215853D01*
X0170184Y0215853D01*
X0170184Y0216450D02*
X0173128Y0216450D01*
X0173128Y0217047D02*
X0170184Y0217047D01*
X0170184Y0217644D02*
X0173128Y0217644D01*
X0173128Y0218241D02*
X0170184Y0218241D01*
X0170184Y0212105D02*
X0170184Y0209553D01*
X0170184Y0212105D02*
X0173128Y0212105D01*
X0173128Y0209553D01*
X0170184Y0209553D01*
X0170184Y0210150D02*
X0173128Y0210150D01*
X0173128Y0210747D02*
X0170184Y0210747D01*
X0170184Y0211344D02*
X0173128Y0211344D01*
X0173128Y0211941D02*
X0170184Y0211941D01*
X0170184Y0204625D02*
X0170184Y0202073D01*
X0170184Y0204625D02*
X0173128Y0204625D01*
X0173128Y0202073D01*
X0170184Y0202073D01*
X0170184Y0202670D02*
X0173128Y0202670D01*
X0173128Y0203267D02*
X0170184Y0203267D01*
X0170184Y0203864D02*
X0173128Y0203864D01*
X0173128Y0204461D02*
X0170184Y0204461D01*
X0178452Y0205813D02*
X0178452Y0208365D01*
X0181396Y0208365D01*
X0181396Y0205813D01*
X0178452Y0205813D01*
X0178452Y0206410D02*
X0181396Y0206410D01*
X0181396Y0207007D02*
X0178452Y0207007D01*
X0178452Y0207604D02*
X0181396Y0207604D01*
X0181396Y0208201D02*
X0178452Y0208201D01*
X0178452Y0219593D02*
X0178452Y0222145D01*
X0181396Y0222145D01*
X0181396Y0219593D01*
X0178452Y0219593D01*
X0178452Y0220190D02*
X0181396Y0220190D01*
X0181396Y0220787D02*
X0178452Y0220787D01*
X0178452Y0221384D02*
X0181396Y0221384D01*
X0181396Y0221981D02*
X0178452Y0221981D01*
X0170184Y0223333D02*
X0170184Y0225885D01*
X0173128Y0225885D01*
X0173128Y0223333D01*
X0170184Y0223333D01*
X0170184Y0223930D02*
X0173128Y0223930D01*
X0173128Y0224527D02*
X0170184Y0224527D01*
X0170184Y0225124D02*
X0173128Y0225124D01*
X0173128Y0225721D02*
X0170184Y0225721D01*
X0170184Y0229632D02*
X0170184Y0232184D01*
X0173128Y0232184D01*
X0173128Y0229632D01*
X0170184Y0229632D01*
X0170184Y0230229D02*
X0173128Y0230229D01*
X0173128Y0230826D02*
X0170184Y0230826D01*
X0170184Y0231423D02*
X0173128Y0231423D01*
X0173128Y0232020D02*
X0170184Y0232020D01*
X0170184Y0237112D02*
X0170184Y0239664D01*
X0173128Y0239664D01*
X0173128Y0237112D01*
X0170184Y0237112D01*
X0170184Y0237709D02*
X0173128Y0237709D01*
X0173128Y0238306D02*
X0170184Y0238306D01*
X0170184Y0238903D02*
X0173128Y0238903D01*
X0173128Y0239500D02*
X0170184Y0239500D01*
X0170184Y0243412D02*
X0170184Y0245964D01*
X0173128Y0245964D01*
X0173128Y0243412D01*
X0170184Y0243412D01*
X0170184Y0244009D02*
X0173128Y0244009D01*
X0173128Y0244606D02*
X0170184Y0244606D01*
X0170184Y0245203D02*
X0173128Y0245203D01*
X0173128Y0245800D02*
X0170184Y0245800D01*
X0170184Y0250892D02*
X0170184Y0253444D01*
X0173128Y0253444D01*
X0173128Y0250892D01*
X0170184Y0250892D01*
X0170184Y0251489D02*
X0173128Y0251489D01*
X0173128Y0252086D02*
X0170184Y0252086D01*
X0170184Y0252683D02*
X0173128Y0252683D01*
X0173128Y0253280D02*
X0170184Y0253280D01*
X0178452Y0249704D02*
X0178452Y0247152D01*
X0178452Y0249704D02*
X0181396Y0249704D01*
X0181396Y0247152D01*
X0178452Y0247152D01*
X0178452Y0247749D02*
X0181396Y0247749D01*
X0181396Y0248346D02*
X0178452Y0248346D01*
X0178452Y0248943D02*
X0181396Y0248943D01*
X0181396Y0249540D02*
X0178452Y0249540D01*
X0178452Y0235924D02*
X0178452Y0233372D01*
X0178452Y0235924D02*
X0181396Y0235924D01*
X0181396Y0233372D01*
X0178452Y0233372D01*
X0178452Y0233969D02*
X0181396Y0233969D01*
X0181396Y0234566D02*
X0178452Y0234566D01*
X0178452Y0235163D02*
X0181396Y0235163D01*
X0181396Y0235760D02*
X0178452Y0235760D01*
X0291247Y0158758D02*
X0291247Y0158570D01*
X0291247Y0158758D02*
X0293011Y0158758D01*
X0293011Y0158570D01*
X0291247Y0158570D01*
X0291247Y0157183D02*
X0291247Y0156995D01*
X0291247Y0157183D02*
X0293011Y0157183D01*
X0293011Y0156995D01*
X0291247Y0156995D01*
X0291247Y0155608D02*
X0291247Y0155420D01*
X0291247Y0155608D02*
X0293011Y0155608D01*
X0293011Y0155420D01*
X0291247Y0155420D01*
X0291247Y0154034D02*
X0291247Y0153846D01*
X0291247Y0154034D02*
X0293011Y0154034D01*
X0293011Y0153846D01*
X0291247Y0153846D01*
X0291247Y0152459D02*
X0291247Y0152271D01*
X0291247Y0152459D02*
X0293011Y0152459D01*
X0293011Y0152271D01*
X0291247Y0152271D01*
X0291247Y0150884D02*
X0291247Y0150696D01*
X0291247Y0150884D02*
X0293011Y0150884D01*
X0293011Y0150696D01*
X0291247Y0150696D01*
X0291247Y0149309D02*
X0291247Y0149121D01*
X0291247Y0149309D02*
X0293011Y0149309D01*
X0293011Y0149121D01*
X0291247Y0149121D01*
X0291247Y0147734D02*
X0291247Y0147546D01*
X0291247Y0147734D02*
X0293011Y0147734D01*
X0293011Y0147546D01*
X0291247Y0147546D01*
X0291247Y0146160D02*
X0291247Y0145972D01*
X0291247Y0146160D02*
X0293011Y0146160D01*
X0293011Y0145972D01*
X0291247Y0145972D01*
X0291247Y0144585D02*
X0291247Y0144397D01*
X0291247Y0144585D02*
X0293011Y0144585D01*
X0293011Y0144397D01*
X0291247Y0144397D01*
X0291247Y0143010D02*
X0291247Y0142822D01*
X0291247Y0143010D02*
X0293011Y0143010D01*
X0293011Y0142822D01*
X0291247Y0142822D01*
X0291247Y0141435D02*
X0291247Y0141247D01*
X0291247Y0141435D02*
X0293011Y0141435D01*
X0293011Y0141247D01*
X0291247Y0141247D01*
X0294791Y0139467D02*
X0294979Y0139467D01*
X0294979Y0137703D01*
X0294791Y0137703D01*
X0294791Y0139467D01*
X0294791Y0138300D02*
X0294979Y0138300D01*
X0294979Y0138897D02*
X0294791Y0138897D01*
X0296365Y0139467D02*
X0296553Y0139467D01*
X0296553Y0137703D01*
X0296365Y0137703D01*
X0296365Y0139467D01*
X0296365Y0138300D02*
X0296553Y0138300D01*
X0296553Y0138897D02*
X0296365Y0138897D01*
X0297940Y0139467D02*
X0298128Y0139467D01*
X0298128Y0137703D01*
X0297940Y0137703D01*
X0297940Y0139467D01*
X0297940Y0138300D02*
X0298128Y0138300D01*
X0298128Y0138897D02*
X0297940Y0138897D01*
X0299515Y0139467D02*
X0299703Y0139467D01*
X0299703Y0137703D01*
X0299515Y0137703D01*
X0299515Y0139467D01*
X0299515Y0138300D02*
X0299703Y0138300D01*
X0299703Y0138897D02*
X0299515Y0138897D01*
X0301090Y0139467D02*
X0301278Y0139467D01*
X0301278Y0137703D01*
X0301090Y0137703D01*
X0301090Y0139467D01*
X0301090Y0138300D02*
X0301278Y0138300D01*
X0301278Y0138897D02*
X0301090Y0138897D01*
X0302665Y0139467D02*
X0302853Y0139467D01*
X0302853Y0137703D01*
X0302665Y0137703D01*
X0302665Y0139467D01*
X0302665Y0138300D02*
X0302853Y0138300D01*
X0302853Y0138897D02*
X0302665Y0138897D01*
X0304239Y0139467D02*
X0304427Y0139467D01*
X0304427Y0137703D01*
X0304239Y0137703D01*
X0304239Y0139467D01*
X0304239Y0138300D02*
X0304427Y0138300D01*
X0304427Y0138897D02*
X0304239Y0138897D01*
X0305814Y0139467D02*
X0306002Y0139467D01*
X0306002Y0137703D01*
X0305814Y0137703D01*
X0305814Y0139467D01*
X0305814Y0138300D02*
X0306002Y0138300D01*
X0306002Y0138897D02*
X0305814Y0138897D01*
X0307389Y0139467D02*
X0307577Y0139467D01*
X0307577Y0137703D01*
X0307389Y0137703D01*
X0307389Y0139467D01*
X0307389Y0138300D02*
X0307577Y0138300D01*
X0307577Y0138897D02*
X0307389Y0138897D01*
X0308964Y0139467D02*
X0309152Y0139467D01*
X0309152Y0137703D01*
X0308964Y0137703D01*
X0308964Y0139467D01*
X0308964Y0138300D02*
X0309152Y0138300D01*
X0309152Y0138897D02*
X0308964Y0138897D01*
X0310539Y0139467D02*
X0310727Y0139467D01*
X0310727Y0137703D01*
X0310539Y0137703D01*
X0310539Y0139467D01*
X0310539Y0138300D02*
X0310727Y0138300D01*
X0310727Y0138897D02*
X0310539Y0138897D01*
X0312113Y0139467D02*
X0312301Y0139467D01*
X0312301Y0137703D01*
X0312113Y0137703D01*
X0312113Y0139467D01*
X0312113Y0138300D02*
X0312301Y0138300D01*
X0312301Y0138897D02*
X0312113Y0138897D01*
X0315845Y0141247D02*
X0315845Y0141435D01*
X0315845Y0141247D02*
X0314081Y0141247D01*
X0314081Y0141435D01*
X0315845Y0141435D01*
X0315845Y0142822D02*
X0315845Y0143010D01*
X0315845Y0142822D02*
X0314081Y0142822D01*
X0314081Y0143010D01*
X0315845Y0143010D01*
X0315845Y0144397D02*
X0315845Y0144585D01*
X0315845Y0144397D02*
X0314081Y0144397D01*
X0314081Y0144585D01*
X0315845Y0144585D01*
X0315845Y0145972D02*
X0315845Y0146160D01*
X0315845Y0145972D02*
X0314081Y0145972D01*
X0314081Y0146160D01*
X0315845Y0146160D01*
X0315845Y0147546D02*
X0315845Y0147734D01*
X0315845Y0147546D02*
X0314081Y0147546D01*
X0314081Y0147734D01*
X0315845Y0147734D01*
X0315845Y0149121D02*
X0315845Y0149309D01*
X0315845Y0149121D02*
X0314081Y0149121D01*
X0314081Y0149309D01*
X0315845Y0149309D01*
X0315845Y0150696D02*
X0315845Y0150884D01*
X0315845Y0150696D02*
X0314081Y0150696D01*
X0314081Y0150884D01*
X0315845Y0150884D01*
X0315845Y0152271D02*
X0315845Y0152459D01*
X0315845Y0152271D02*
X0314081Y0152271D01*
X0314081Y0152459D01*
X0315845Y0152459D01*
X0315845Y0153846D02*
X0315845Y0154034D01*
X0315845Y0153846D02*
X0314081Y0153846D01*
X0314081Y0154034D01*
X0315845Y0154034D01*
X0315845Y0155420D02*
X0315845Y0155608D01*
X0315845Y0155420D02*
X0314081Y0155420D01*
X0314081Y0155608D01*
X0315845Y0155608D01*
X0315845Y0156995D02*
X0315845Y0157183D01*
X0315845Y0156995D02*
X0314081Y0156995D01*
X0314081Y0157183D01*
X0315845Y0157183D01*
X0315845Y0158570D02*
X0315845Y0158758D01*
X0315845Y0158570D02*
X0314081Y0158570D01*
X0314081Y0158758D01*
X0315845Y0158758D01*
X0312301Y0160538D02*
X0312113Y0160538D01*
X0312113Y0162302D01*
X0312301Y0162302D01*
X0312301Y0160538D01*
X0312301Y0161135D02*
X0312113Y0161135D01*
X0312113Y0161732D02*
X0312301Y0161732D01*
X0310727Y0160538D02*
X0310539Y0160538D01*
X0310539Y0162302D01*
X0310727Y0162302D01*
X0310727Y0160538D01*
X0310727Y0161135D02*
X0310539Y0161135D01*
X0310539Y0161732D02*
X0310727Y0161732D01*
X0309152Y0160538D02*
X0308964Y0160538D01*
X0308964Y0162302D01*
X0309152Y0162302D01*
X0309152Y0160538D01*
X0309152Y0161135D02*
X0308964Y0161135D01*
X0308964Y0161732D02*
X0309152Y0161732D01*
X0307577Y0160538D02*
X0307389Y0160538D01*
X0307389Y0162302D01*
X0307577Y0162302D01*
X0307577Y0160538D01*
X0307577Y0161135D02*
X0307389Y0161135D01*
X0307389Y0161732D02*
X0307577Y0161732D01*
X0306002Y0160538D02*
X0305814Y0160538D01*
X0305814Y0162302D01*
X0306002Y0162302D01*
X0306002Y0160538D01*
X0306002Y0161135D02*
X0305814Y0161135D01*
X0305814Y0161732D02*
X0306002Y0161732D01*
X0304427Y0160538D02*
X0304239Y0160538D01*
X0304239Y0162302D01*
X0304427Y0162302D01*
X0304427Y0160538D01*
X0304427Y0161135D02*
X0304239Y0161135D01*
X0304239Y0161732D02*
X0304427Y0161732D01*
X0302853Y0160538D02*
X0302665Y0160538D01*
X0302665Y0162302D01*
X0302853Y0162302D01*
X0302853Y0160538D01*
X0302853Y0161135D02*
X0302665Y0161135D01*
X0302665Y0161732D02*
X0302853Y0161732D01*
X0301278Y0160538D02*
X0301090Y0160538D01*
X0301090Y0162302D01*
X0301278Y0162302D01*
X0301278Y0160538D01*
X0301278Y0161135D02*
X0301090Y0161135D01*
X0301090Y0161732D02*
X0301278Y0161732D01*
X0299703Y0160538D02*
X0299515Y0160538D01*
X0299515Y0162302D01*
X0299703Y0162302D01*
X0299703Y0160538D01*
X0299703Y0161135D02*
X0299515Y0161135D01*
X0299515Y0161732D02*
X0299703Y0161732D01*
X0298128Y0160538D02*
X0297940Y0160538D01*
X0297940Y0162302D01*
X0298128Y0162302D01*
X0298128Y0160538D01*
X0298128Y0161135D02*
X0297940Y0161135D01*
X0297940Y0161732D02*
X0298128Y0161732D01*
X0296553Y0160538D02*
X0296365Y0160538D01*
X0296365Y0162302D01*
X0296553Y0162302D01*
X0296553Y0160538D01*
X0296553Y0161135D02*
X0296365Y0161135D01*
X0296365Y0161732D02*
X0296553Y0161732D01*
X0294979Y0160538D02*
X0294791Y0160538D01*
X0294791Y0162302D01*
X0294979Y0162302D01*
X0294979Y0160538D01*
X0294979Y0161135D02*
X0294791Y0161135D01*
X0294791Y0161732D02*
X0294979Y0161732D01*
X0339081Y0304821D02*
X0341633Y0304821D01*
X0341633Y0303845D01*
X0339081Y0303845D01*
X0339081Y0304821D01*
X0339081Y0304442D02*
X0341633Y0304442D01*
X0341633Y0309546D02*
X0339081Y0309546D01*
X0341633Y0309546D02*
X0341633Y0308570D01*
X0339081Y0308570D01*
X0339081Y0309546D01*
X0339081Y0309167D02*
X0341633Y0309167D01*
X0377467Y0415845D02*
X0380019Y0415845D01*
X0380019Y0411719D01*
X0377467Y0411719D01*
X0377467Y0415845D01*
X0377467Y0412316D02*
X0380019Y0412316D01*
X0380019Y0412913D02*
X0377467Y0412913D01*
X0377467Y0413510D02*
X0380019Y0413510D01*
X0380019Y0414107D02*
X0377467Y0414107D01*
X0377467Y0414704D02*
X0380019Y0414704D01*
X0380019Y0415301D02*
X0377467Y0415301D01*
X0384553Y0415845D02*
X0387105Y0415845D01*
X0387105Y0411719D01*
X0384553Y0411719D01*
X0384553Y0415845D01*
X0384553Y0412316D02*
X0387105Y0412316D01*
X0387105Y0412913D02*
X0384553Y0412913D01*
X0384553Y0413510D02*
X0387105Y0413510D01*
X0387105Y0414107D02*
X0384553Y0414107D01*
X0384553Y0414704D02*
X0387105Y0414704D01*
X0387105Y0415301D02*
X0384553Y0415301D01*
D15*
X0395172Y0271459D02*
X0395172Y0268703D01*
X0395172Y0271459D02*
X0397928Y0271459D01*
X0397928Y0268703D01*
X0395172Y0268703D01*
X0395172Y0269883D02*
X0397928Y0269883D01*
X0397928Y0271063D02*
X0395172Y0271063D01*
X0402077Y0271459D02*
X0402077Y0268703D01*
X0402077Y0271459D02*
X0404833Y0271459D01*
X0404833Y0268703D01*
X0402077Y0268703D01*
X0402077Y0269883D02*
X0404833Y0269883D01*
X0404833Y0271063D02*
X0402077Y0271063D01*
X0279424Y0152877D02*
X0279424Y0150121D01*
X0279424Y0152877D02*
X0282180Y0152877D01*
X0282180Y0150121D01*
X0279424Y0150121D01*
X0279424Y0151301D02*
X0282180Y0151301D01*
X0282180Y0152481D02*
X0279424Y0152481D01*
X0272518Y0152877D02*
X0272518Y0150121D01*
X0272518Y0152877D02*
X0275274Y0152877D01*
X0275274Y0150121D01*
X0272518Y0150121D01*
X0272518Y0151301D02*
X0275274Y0151301D01*
X0275274Y0152481D02*
X0272518Y0152481D01*
X0085936Y0308073D02*
X0085936Y0310829D01*
X0085936Y0308073D02*
X0083180Y0308073D01*
X0083180Y0310829D01*
X0085936Y0310829D01*
X0085936Y0309253D02*
X0083180Y0309253D01*
X0083180Y0310433D02*
X0085936Y0310433D01*
X0079030Y0310829D02*
X0079030Y0308073D01*
X0076274Y0308073D01*
X0076274Y0310829D01*
X0079030Y0310829D01*
X0079030Y0309253D02*
X0076274Y0309253D01*
X0076274Y0310433D02*
X0079030Y0310433D01*
X0079030Y0319884D02*
X0079030Y0322640D01*
X0079030Y0319884D02*
X0076274Y0319884D01*
X0076274Y0322640D01*
X0079030Y0322640D01*
X0079030Y0321064D02*
X0076274Y0321064D01*
X0076274Y0322244D02*
X0079030Y0322244D01*
X0085936Y0322640D02*
X0085936Y0319884D01*
X0083180Y0319884D01*
X0083180Y0322640D01*
X0085936Y0322640D01*
X0085936Y0321064D02*
X0083180Y0321064D01*
X0083180Y0322244D02*
X0085936Y0322244D01*
X0085936Y0331695D02*
X0085936Y0334451D01*
X0085936Y0331695D02*
X0083180Y0331695D01*
X0083180Y0334451D01*
X0085936Y0334451D01*
X0085936Y0332875D02*
X0083180Y0332875D01*
X0083180Y0334055D02*
X0085936Y0334055D01*
X0079030Y0334451D02*
X0079030Y0331695D01*
X0076274Y0331695D01*
X0076274Y0334451D01*
X0079030Y0334451D01*
X0079030Y0332875D02*
X0076274Y0332875D01*
X0076274Y0334055D02*
X0079030Y0334055D01*
D16*
X0145515Y0162096D02*
X0147915Y0162096D01*
X0147915Y0156696D01*
X0145515Y0156696D01*
X0145515Y0162096D01*
X0145515Y0157295D02*
X0147915Y0157295D01*
X0147915Y0157894D02*
X0145515Y0157894D01*
X0145515Y0158493D02*
X0147915Y0158493D01*
X0147915Y0159092D02*
X0145515Y0159092D01*
X0145515Y0159691D02*
X0147915Y0159691D01*
X0147915Y0160290D02*
X0145515Y0160290D01*
X0145515Y0160889D02*
X0147915Y0160889D01*
X0147915Y0161488D02*
X0145515Y0161488D01*
X0145515Y0162087D02*
X0147915Y0162087D01*
X0160515Y0162096D02*
X0162915Y0162096D01*
X0162915Y0156696D01*
X0160515Y0156696D01*
X0160515Y0162096D01*
X0160515Y0157295D02*
X0162915Y0157295D01*
X0162915Y0157894D02*
X0160515Y0157894D01*
X0160515Y0158493D02*
X0162915Y0158493D01*
X0162915Y0159092D02*
X0160515Y0159092D01*
X0160515Y0159691D02*
X0162915Y0159691D01*
X0162915Y0160290D02*
X0160515Y0160290D01*
X0160515Y0160889D02*
X0162915Y0160889D01*
X0162915Y0161488D02*
X0160515Y0161488D01*
X0160515Y0162087D02*
X0162915Y0162087D01*
X0162915Y0184096D02*
X0160515Y0184096D01*
X0162915Y0184096D02*
X0162915Y0178696D01*
X0160515Y0178696D01*
X0160515Y0184096D01*
X0160515Y0179295D02*
X0162915Y0179295D01*
X0162915Y0179894D02*
X0160515Y0179894D01*
X0160515Y0180493D02*
X0162915Y0180493D01*
X0162915Y0181092D02*
X0160515Y0181092D01*
X0160515Y0181691D02*
X0162915Y0181691D01*
X0162915Y0182290D02*
X0160515Y0182290D01*
X0160515Y0182889D02*
X0162915Y0182889D01*
X0162915Y0183488D02*
X0160515Y0183488D01*
X0160515Y0184087D02*
X0162915Y0184087D01*
X0147915Y0184096D02*
X0145515Y0184096D01*
X0147915Y0184096D02*
X0147915Y0178696D01*
X0145515Y0178696D01*
X0145515Y0184096D01*
X0145515Y0179295D02*
X0147915Y0179295D01*
X0147915Y0179894D02*
X0145515Y0179894D01*
X0145515Y0180493D02*
X0147915Y0180493D01*
X0147915Y0181092D02*
X0145515Y0181092D01*
X0145515Y0181691D02*
X0147915Y0181691D01*
X0147915Y0182290D02*
X0145515Y0182290D01*
X0145515Y0182889D02*
X0147915Y0182889D01*
X0147915Y0183488D02*
X0145515Y0183488D01*
X0145515Y0184087D02*
X0147915Y0184087D01*
X0148486Y0385594D02*
X0146086Y0385594D01*
X0146086Y0390994D01*
X0148486Y0390994D01*
X0148486Y0385594D01*
X0148486Y0386193D02*
X0146086Y0386193D01*
X0146086Y0386792D02*
X0148486Y0386792D01*
X0148486Y0387391D02*
X0146086Y0387391D01*
X0146086Y0387990D02*
X0148486Y0387990D01*
X0148486Y0388589D02*
X0146086Y0388589D01*
X0146086Y0389188D02*
X0148486Y0389188D01*
X0148486Y0389787D02*
X0146086Y0389787D01*
X0146086Y0390386D02*
X0148486Y0390386D01*
X0148486Y0390985D02*
X0146086Y0390985D01*
X0161086Y0385594D02*
X0163486Y0385594D01*
X0161086Y0385594D02*
X0161086Y0390994D01*
X0163486Y0390994D01*
X0163486Y0385594D01*
X0163486Y0386193D02*
X0161086Y0386193D01*
X0161086Y0386792D02*
X0163486Y0386792D01*
X0163486Y0387391D02*
X0161086Y0387391D01*
X0161086Y0387990D02*
X0163486Y0387990D01*
X0163486Y0388589D02*
X0161086Y0388589D01*
X0161086Y0389188D02*
X0163486Y0389188D01*
X0163486Y0389787D02*
X0161086Y0389787D01*
X0161086Y0390386D02*
X0163486Y0390386D01*
X0163486Y0390985D02*
X0161086Y0390985D01*
X0161086Y0407594D02*
X0163486Y0407594D01*
X0161086Y0407594D02*
X0161086Y0412994D01*
X0163486Y0412994D01*
X0163486Y0407594D01*
X0163486Y0408193D02*
X0161086Y0408193D01*
X0161086Y0408792D02*
X0163486Y0408792D01*
X0163486Y0409391D02*
X0161086Y0409391D01*
X0161086Y0409990D02*
X0163486Y0409990D01*
X0163486Y0410589D02*
X0161086Y0410589D01*
X0161086Y0411188D02*
X0163486Y0411188D01*
X0163486Y0411787D02*
X0161086Y0411787D01*
X0161086Y0412386D02*
X0163486Y0412386D01*
X0163486Y0412985D02*
X0161086Y0412985D01*
X0148486Y0407594D02*
X0146086Y0407594D01*
X0146086Y0412994D01*
X0148486Y0412994D01*
X0148486Y0407594D01*
X0148486Y0408193D02*
X0146086Y0408193D01*
X0146086Y0408792D02*
X0148486Y0408792D01*
X0148486Y0409391D02*
X0146086Y0409391D01*
X0146086Y0409990D02*
X0148486Y0409990D01*
X0148486Y0410589D02*
X0146086Y0410589D01*
X0146086Y0411188D02*
X0148486Y0411188D01*
X0148486Y0411787D02*
X0146086Y0411787D01*
X0146086Y0412386D02*
X0148486Y0412386D01*
X0148486Y0412985D02*
X0146086Y0412985D01*
D17*
X0088979Y0356696D03*
X0085042Y0356696D03*
X0085042Y0352759D03*
X0088979Y0352759D03*
D18*
X0108200Y0330054D02*
X0109758Y0330054D01*
X0109758Y0325936D01*
X0108200Y0325936D01*
X0108200Y0330054D01*
X0108200Y0326541D02*
X0109758Y0326541D01*
X0109758Y0327146D02*
X0108200Y0327146D01*
X0108200Y0327751D02*
X0109758Y0327751D01*
X0109758Y0328356D02*
X0108200Y0328356D01*
X0108200Y0328961D02*
X0109758Y0328961D01*
X0109758Y0329566D02*
X0108200Y0329566D01*
X0111940Y0330054D02*
X0113498Y0330054D01*
X0113498Y0325936D01*
X0111940Y0325936D01*
X0111940Y0330054D01*
X0111940Y0326541D02*
X0113498Y0326541D01*
X0113498Y0327146D02*
X0111940Y0327146D01*
X0111940Y0327751D02*
X0113498Y0327751D01*
X0113498Y0328356D02*
X0111940Y0328356D01*
X0111940Y0328961D02*
X0113498Y0328961D01*
X0113498Y0329566D02*
X0111940Y0329566D01*
X0115680Y0330054D02*
X0117238Y0330054D01*
X0117238Y0325936D01*
X0115680Y0325936D01*
X0115680Y0330054D01*
X0115680Y0326541D02*
X0117238Y0326541D01*
X0117238Y0327146D02*
X0115680Y0327146D01*
X0115680Y0327751D02*
X0117238Y0327751D01*
X0117238Y0328356D02*
X0115680Y0328356D01*
X0115680Y0328961D02*
X0117238Y0328961D01*
X0117238Y0329566D02*
X0115680Y0329566D01*
X0115680Y0319817D02*
X0117238Y0319817D01*
X0117238Y0315699D01*
X0115680Y0315699D01*
X0115680Y0319817D01*
X0115680Y0316304D02*
X0117238Y0316304D01*
X0117238Y0316909D02*
X0115680Y0316909D01*
X0115680Y0317514D02*
X0117238Y0317514D01*
X0117238Y0318119D02*
X0115680Y0318119D01*
X0115680Y0318724D02*
X0117238Y0318724D01*
X0117238Y0319329D02*
X0115680Y0319329D01*
X0109758Y0319817D02*
X0108200Y0319817D01*
X0109758Y0319817D02*
X0109758Y0315699D01*
X0108200Y0315699D01*
X0108200Y0319817D01*
X0108200Y0316304D02*
X0109758Y0316304D01*
X0109758Y0316909D02*
X0108200Y0316909D01*
X0108200Y0317514D02*
X0109758Y0317514D01*
X0109758Y0318119D02*
X0108200Y0318119D01*
X0108200Y0318724D02*
X0109758Y0318724D01*
X0109758Y0319329D02*
X0108200Y0319329D01*
D19*
X0116346Y0284555D02*
X0116730Y0284555D01*
X0116346Y0284555D02*
X0116346Y0285923D01*
X0116730Y0285923D01*
X0116730Y0284555D01*
X0116730Y0285154D02*
X0116346Y0285154D01*
X0116346Y0285753D02*
X0116730Y0285753D01*
X0118315Y0284555D02*
X0118699Y0284555D01*
X0118315Y0284555D02*
X0118315Y0285923D01*
X0118699Y0285923D01*
X0118699Y0284555D01*
X0118699Y0285154D02*
X0118315Y0285154D01*
X0118315Y0285753D02*
X0118699Y0285753D01*
X0120283Y0284555D02*
X0120667Y0284555D01*
X0120283Y0284555D02*
X0120283Y0285923D01*
X0120667Y0285923D01*
X0120667Y0284555D01*
X0120667Y0285154D02*
X0120283Y0285154D01*
X0120283Y0285753D02*
X0120667Y0285753D01*
X0122252Y0284555D02*
X0122636Y0284555D01*
X0122252Y0284555D02*
X0122252Y0285923D01*
X0122636Y0285923D01*
X0122636Y0284555D01*
X0122636Y0285154D02*
X0122252Y0285154D01*
X0122252Y0285753D02*
X0122636Y0285753D01*
X0124220Y0284555D02*
X0124604Y0284555D01*
X0124220Y0284555D02*
X0124220Y0285923D01*
X0124604Y0285923D01*
X0124604Y0284555D01*
X0124604Y0285154D02*
X0124220Y0285154D01*
X0124220Y0285753D02*
X0124604Y0285753D01*
X0127075Y0282084D02*
X0127075Y0281700D01*
X0127075Y0282084D02*
X0128443Y0282084D01*
X0128443Y0281700D01*
X0127075Y0281700D01*
X0127075Y0280116D02*
X0127075Y0279732D01*
X0127075Y0280116D02*
X0128443Y0280116D01*
X0128443Y0279732D01*
X0127075Y0279732D01*
X0127075Y0278147D02*
X0127075Y0277763D01*
X0127075Y0278147D02*
X0128443Y0278147D01*
X0128443Y0277763D01*
X0127075Y0277763D01*
X0127075Y0276179D02*
X0127075Y0275795D01*
X0127075Y0276179D02*
X0128443Y0276179D01*
X0128443Y0275795D01*
X0127075Y0275795D01*
X0127075Y0274210D02*
X0127075Y0273826D01*
X0127075Y0274210D02*
X0128443Y0274210D01*
X0128443Y0273826D01*
X0127075Y0273826D01*
X0124604Y0271356D02*
X0124220Y0271356D01*
X0124604Y0271356D02*
X0124604Y0269988D01*
X0124220Y0269988D01*
X0124220Y0271356D01*
X0124220Y0270587D02*
X0124604Y0270587D01*
X0124604Y0271186D02*
X0124220Y0271186D01*
X0122636Y0271356D02*
X0122252Y0271356D01*
X0122636Y0271356D02*
X0122636Y0269988D01*
X0122252Y0269988D01*
X0122252Y0271356D01*
X0122252Y0270587D02*
X0122636Y0270587D01*
X0122636Y0271186D02*
X0122252Y0271186D01*
X0120667Y0271356D02*
X0120283Y0271356D01*
X0120667Y0271356D02*
X0120667Y0269988D01*
X0120283Y0269988D01*
X0120283Y0271356D01*
X0120283Y0270587D02*
X0120667Y0270587D01*
X0120667Y0271186D02*
X0120283Y0271186D01*
X0118699Y0271356D02*
X0118315Y0271356D01*
X0118699Y0271356D02*
X0118699Y0269988D01*
X0118315Y0269988D01*
X0118315Y0271356D01*
X0118315Y0270587D02*
X0118699Y0270587D01*
X0118699Y0271186D02*
X0118315Y0271186D01*
X0116730Y0271356D02*
X0116346Y0271356D01*
X0116730Y0271356D02*
X0116730Y0269988D01*
X0116346Y0269988D01*
X0116346Y0271356D01*
X0116346Y0270587D02*
X0116730Y0270587D01*
X0116730Y0271186D02*
X0116346Y0271186D01*
X0113876Y0273826D02*
X0113876Y0274210D01*
X0113876Y0273826D02*
X0112508Y0273826D01*
X0112508Y0274210D01*
X0113876Y0274210D01*
X0113876Y0275795D02*
X0113876Y0276179D01*
X0113876Y0275795D02*
X0112508Y0275795D01*
X0112508Y0276179D01*
X0113876Y0276179D01*
X0113876Y0277763D02*
X0113876Y0278147D01*
X0113876Y0277763D02*
X0112508Y0277763D01*
X0112508Y0278147D01*
X0113876Y0278147D01*
X0113876Y0279732D02*
X0113876Y0280116D01*
X0113876Y0279732D02*
X0112508Y0279732D01*
X0112508Y0280116D01*
X0113876Y0280116D01*
X0113876Y0281700D02*
X0113876Y0282084D01*
X0113876Y0281700D02*
X0112508Y0281700D01*
X0112508Y0282084D01*
X0113876Y0282084D01*
X0255078Y0280339D02*
X0257436Y0282697D01*
X0255078Y0280339D02*
X0254806Y0280611D01*
X0257164Y0282969D01*
X0257436Y0282697D01*
X0255677Y0280938D02*
X0255133Y0280938D01*
X0255732Y0281537D02*
X0256276Y0281537D01*
X0256331Y0282136D02*
X0256875Y0282136D01*
X0256930Y0282735D02*
X0257398Y0282735D01*
X0258828Y0281305D02*
X0256470Y0278947D01*
X0256198Y0279219D01*
X0258556Y0281577D01*
X0258828Y0281305D01*
X0257069Y0279546D02*
X0256525Y0279546D01*
X0257124Y0280145D02*
X0257668Y0280145D01*
X0257723Y0280744D02*
X0258267Y0280744D01*
X0258322Y0281343D02*
X0258790Y0281343D01*
X0260220Y0279913D02*
X0257862Y0277555D01*
X0257590Y0277827D01*
X0259948Y0280185D01*
X0260220Y0279913D01*
X0258461Y0278154D02*
X0257917Y0278154D01*
X0258516Y0278753D02*
X0259060Y0278753D01*
X0259115Y0279352D02*
X0259659Y0279352D01*
X0259714Y0279951D02*
X0260182Y0279951D01*
X0261612Y0278521D02*
X0259254Y0276163D01*
X0258982Y0276435D01*
X0261340Y0278793D01*
X0261612Y0278521D01*
X0259853Y0276762D02*
X0259309Y0276762D01*
X0259908Y0277361D02*
X0260452Y0277361D01*
X0260507Y0277960D02*
X0261051Y0277960D01*
X0261106Y0278559D02*
X0261574Y0278559D01*
X0263004Y0277129D02*
X0260646Y0274771D01*
X0260374Y0275043D01*
X0262732Y0277401D01*
X0263004Y0277129D01*
X0261245Y0275370D02*
X0260701Y0275370D01*
X0261300Y0275969D02*
X0261844Y0275969D01*
X0261899Y0276568D02*
X0262443Y0276568D01*
X0262498Y0277167D02*
X0262966Y0277167D01*
X0264396Y0275737D02*
X0262038Y0273379D01*
X0261766Y0273651D01*
X0264124Y0276009D01*
X0264396Y0275737D01*
X0262637Y0273978D02*
X0262093Y0273978D01*
X0262692Y0274577D02*
X0263236Y0274577D01*
X0263291Y0275176D02*
X0263835Y0275176D01*
X0263890Y0275775D02*
X0264358Y0275775D01*
X0265788Y0274345D02*
X0263430Y0271987D01*
X0263158Y0272259D01*
X0265516Y0274617D01*
X0265788Y0274345D01*
X0264029Y0272586D02*
X0263485Y0272586D01*
X0264084Y0273185D02*
X0264628Y0273185D01*
X0264683Y0273784D02*
X0265227Y0273784D01*
X0265282Y0274383D02*
X0265750Y0274383D01*
X0267180Y0272953D02*
X0264822Y0270595D01*
X0264550Y0270867D01*
X0266908Y0273225D01*
X0267180Y0272953D01*
X0265421Y0271194D02*
X0264877Y0271194D01*
X0265476Y0271793D02*
X0266020Y0271793D01*
X0266075Y0272392D02*
X0266619Y0272392D01*
X0266674Y0272991D02*
X0267142Y0272991D01*
X0268571Y0271561D02*
X0266213Y0269203D01*
X0265941Y0269475D01*
X0268299Y0271833D01*
X0268571Y0271561D01*
X0266812Y0269802D02*
X0266268Y0269802D01*
X0266867Y0270401D02*
X0267411Y0270401D01*
X0267466Y0271000D02*
X0268010Y0271000D01*
X0268065Y0271599D02*
X0268533Y0271599D01*
X0269963Y0270169D02*
X0267605Y0267811D01*
X0267333Y0268083D01*
X0269691Y0270441D01*
X0269963Y0270169D01*
X0268204Y0268410D02*
X0267660Y0268410D01*
X0268259Y0269009D02*
X0268803Y0269009D01*
X0268858Y0269608D02*
X0269402Y0269608D01*
X0269457Y0270207D02*
X0269925Y0270207D01*
X0271355Y0268777D02*
X0268997Y0266419D01*
X0268725Y0266691D01*
X0271083Y0269049D01*
X0271355Y0268777D01*
X0269596Y0267018D02*
X0269052Y0267018D01*
X0269651Y0267617D02*
X0270195Y0267617D01*
X0270250Y0268216D02*
X0270794Y0268216D01*
X0270849Y0268815D02*
X0271317Y0268815D01*
X0272747Y0267385D02*
X0270389Y0265027D01*
X0270117Y0265299D01*
X0272475Y0267657D01*
X0272747Y0267385D01*
X0270988Y0265626D02*
X0270444Y0265626D01*
X0271043Y0266225D02*
X0271587Y0266225D01*
X0271642Y0266824D02*
X0272186Y0266824D01*
X0272241Y0267423D02*
X0272709Y0267423D01*
X0274139Y0265993D02*
X0271781Y0263635D01*
X0271509Y0263907D01*
X0273867Y0266265D01*
X0274139Y0265993D01*
X0272380Y0264234D02*
X0271836Y0264234D01*
X0272435Y0264833D02*
X0272979Y0264833D01*
X0273034Y0265432D02*
X0273578Y0265432D01*
X0273633Y0266031D02*
X0274101Y0266031D01*
X0275531Y0264601D02*
X0273173Y0262243D01*
X0272901Y0262515D01*
X0275259Y0264873D01*
X0275531Y0264601D01*
X0273772Y0262842D02*
X0273228Y0262842D01*
X0273827Y0263441D02*
X0274371Y0263441D01*
X0274426Y0264040D02*
X0274970Y0264040D01*
X0275025Y0264639D02*
X0275493Y0264639D01*
X0276923Y0263209D02*
X0274565Y0260851D01*
X0274293Y0261123D01*
X0276651Y0263481D01*
X0276923Y0263209D01*
X0275164Y0261450D02*
X0274620Y0261450D01*
X0275219Y0262049D02*
X0275763Y0262049D01*
X0275818Y0262648D02*
X0276362Y0262648D01*
X0276417Y0263247D02*
X0276885Y0263247D01*
X0278315Y0261817D02*
X0275957Y0259459D01*
X0275685Y0259731D01*
X0278043Y0262089D01*
X0278315Y0261817D01*
X0276556Y0260058D02*
X0276012Y0260058D01*
X0276611Y0260657D02*
X0277155Y0260657D01*
X0277210Y0261256D02*
X0277754Y0261256D01*
X0277809Y0261855D02*
X0278277Y0261855D01*
X0279707Y0260425D02*
X0277349Y0258067D01*
X0277077Y0258339D01*
X0279435Y0260697D01*
X0279707Y0260425D01*
X0277948Y0258666D02*
X0277404Y0258666D01*
X0278003Y0259265D02*
X0278547Y0259265D01*
X0278602Y0259864D02*
X0279146Y0259864D01*
X0279201Y0260463D02*
X0279669Y0260463D01*
X0281099Y0259034D02*
X0278741Y0256676D01*
X0278469Y0256948D01*
X0280827Y0259306D01*
X0281099Y0259034D01*
X0279340Y0257275D02*
X0278796Y0257275D01*
X0279395Y0257874D02*
X0279939Y0257874D01*
X0279994Y0258473D02*
X0280538Y0258473D01*
X0280593Y0259072D02*
X0281061Y0259072D01*
X0282491Y0257642D02*
X0280133Y0255284D01*
X0279861Y0255556D01*
X0282219Y0257914D01*
X0282491Y0257642D01*
X0280732Y0255883D02*
X0280188Y0255883D01*
X0280787Y0256482D02*
X0281331Y0256482D01*
X0281386Y0257081D02*
X0281930Y0257081D01*
X0281985Y0257680D02*
X0282453Y0257680D01*
X0283883Y0256250D02*
X0281525Y0253892D01*
X0281253Y0254164D01*
X0283611Y0256522D01*
X0283883Y0256250D01*
X0282124Y0254491D02*
X0281580Y0254491D01*
X0282179Y0255090D02*
X0282723Y0255090D01*
X0282778Y0255689D02*
X0283322Y0255689D01*
X0283377Y0256288D02*
X0283845Y0256288D01*
X0285275Y0254858D02*
X0282917Y0252500D01*
X0282645Y0252772D01*
X0285003Y0255130D01*
X0285275Y0254858D01*
X0283516Y0253099D02*
X0282972Y0253099D01*
X0283571Y0253698D02*
X0284115Y0253698D01*
X0284170Y0254297D02*
X0284714Y0254297D01*
X0284769Y0254896D02*
X0285237Y0254896D01*
X0286667Y0253466D02*
X0284309Y0251108D01*
X0284037Y0251380D01*
X0286395Y0253738D01*
X0286667Y0253466D01*
X0284908Y0251707D02*
X0284364Y0251707D01*
X0284963Y0252306D02*
X0285507Y0252306D01*
X0285562Y0252905D02*
X0286106Y0252905D01*
X0286161Y0253504D02*
X0286629Y0253504D01*
X0288059Y0252074D02*
X0285701Y0249716D01*
X0285429Y0249988D01*
X0287787Y0252346D01*
X0288059Y0252074D01*
X0286300Y0250315D02*
X0285756Y0250315D01*
X0286355Y0250914D02*
X0286899Y0250914D01*
X0286954Y0251513D02*
X0287498Y0251513D01*
X0287553Y0252112D02*
X0288021Y0252112D01*
X0289451Y0250682D02*
X0287093Y0248324D01*
X0286821Y0248596D01*
X0289179Y0250954D01*
X0289451Y0250682D01*
X0287692Y0248923D02*
X0287148Y0248923D01*
X0287747Y0249522D02*
X0288291Y0249522D01*
X0288346Y0250121D02*
X0288890Y0250121D01*
X0288945Y0250720D02*
X0289413Y0250720D01*
X0290843Y0249290D02*
X0288485Y0246932D01*
X0288213Y0247204D01*
X0290571Y0249562D01*
X0290843Y0249290D01*
X0289084Y0247531D02*
X0288540Y0247531D01*
X0289139Y0248130D02*
X0289683Y0248130D01*
X0289738Y0248729D02*
X0290282Y0248729D01*
X0290337Y0249328D02*
X0290805Y0249328D01*
X0296836Y0249562D02*
X0299194Y0247204D01*
X0298922Y0246932D01*
X0296564Y0249290D01*
X0296836Y0249562D01*
X0298323Y0247531D02*
X0298867Y0247531D01*
X0298268Y0248130D02*
X0297724Y0248130D01*
X0297669Y0248729D02*
X0297125Y0248729D01*
X0297070Y0249328D02*
X0296602Y0249328D01*
X0298228Y0250954D02*
X0300586Y0248596D01*
X0300314Y0248324D01*
X0297956Y0250682D01*
X0298228Y0250954D01*
X0299715Y0248923D02*
X0300259Y0248923D01*
X0299660Y0249522D02*
X0299116Y0249522D01*
X0299061Y0250121D02*
X0298517Y0250121D01*
X0298462Y0250720D02*
X0297994Y0250720D01*
X0299620Y0252346D02*
X0301978Y0249988D01*
X0301706Y0249716D01*
X0299348Y0252074D01*
X0299620Y0252346D01*
X0301107Y0250315D02*
X0301651Y0250315D01*
X0301052Y0250914D02*
X0300508Y0250914D01*
X0300453Y0251513D02*
X0299909Y0251513D01*
X0299854Y0252112D02*
X0299386Y0252112D01*
X0301012Y0253738D02*
X0303370Y0251380D01*
X0303098Y0251108D01*
X0300740Y0253466D01*
X0301012Y0253738D01*
X0302499Y0251707D02*
X0303043Y0251707D01*
X0302444Y0252306D02*
X0301900Y0252306D01*
X0301845Y0252905D02*
X0301301Y0252905D01*
X0301246Y0253504D02*
X0300778Y0253504D01*
X0302404Y0255130D02*
X0304762Y0252772D01*
X0304490Y0252500D01*
X0302132Y0254858D01*
X0302404Y0255130D01*
X0303891Y0253099D02*
X0304435Y0253099D01*
X0303836Y0253698D02*
X0303292Y0253698D01*
X0303237Y0254297D02*
X0302693Y0254297D01*
X0302638Y0254896D02*
X0302170Y0254896D01*
X0303796Y0256522D02*
X0306154Y0254164D01*
X0305882Y0253892D01*
X0303524Y0256250D01*
X0303796Y0256522D01*
X0305283Y0254491D02*
X0305827Y0254491D01*
X0305228Y0255090D02*
X0304684Y0255090D01*
X0304629Y0255689D02*
X0304085Y0255689D01*
X0304030Y0256288D02*
X0303562Y0256288D01*
X0305188Y0257914D02*
X0307546Y0255556D01*
X0307274Y0255284D01*
X0304916Y0257642D01*
X0305188Y0257914D01*
X0306675Y0255883D02*
X0307219Y0255883D01*
X0306620Y0256482D02*
X0306076Y0256482D01*
X0306021Y0257081D02*
X0305477Y0257081D01*
X0305422Y0257680D02*
X0304954Y0257680D01*
X0306580Y0259306D02*
X0308938Y0256948D01*
X0308666Y0256676D01*
X0306308Y0259034D01*
X0306580Y0259306D01*
X0308067Y0257275D02*
X0308611Y0257275D01*
X0308012Y0257874D02*
X0307468Y0257874D01*
X0307413Y0258473D02*
X0306869Y0258473D01*
X0306814Y0259072D02*
X0306346Y0259072D01*
X0307972Y0260697D02*
X0310330Y0258339D01*
X0310058Y0258067D01*
X0307700Y0260425D01*
X0307972Y0260697D01*
X0309459Y0258666D02*
X0310003Y0258666D01*
X0309404Y0259265D02*
X0308860Y0259265D01*
X0308805Y0259864D02*
X0308261Y0259864D01*
X0308206Y0260463D02*
X0307738Y0260463D01*
X0309364Y0262089D02*
X0311722Y0259731D01*
X0311450Y0259459D01*
X0309092Y0261817D01*
X0309364Y0262089D01*
X0310851Y0260058D02*
X0311395Y0260058D01*
X0310796Y0260657D02*
X0310252Y0260657D01*
X0310197Y0261256D02*
X0309653Y0261256D01*
X0309598Y0261855D02*
X0309130Y0261855D01*
X0310756Y0263481D02*
X0313114Y0261123D01*
X0312842Y0260851D01*
X0310484Y0263209D01*
X0310756Y0263481D01*
X0312243Y0261450D02*
X0312787Y0261450D01*
X0312188Y0262049D02*
X0311644Y0262049D01*
X0311589Y0262648D02*
X0311045Y0262648D01*
X0310990Y0263247D02*
X0310522Y0263247D01*
X0312148Y0264873D02*
X0314506Y0262515D01*
X0314234Y0262243D01*
X0311876Y0264601D01*
X0312148Y0264873D01*
X0313635Y0262842D02*
X0314179Y0262842D01*
X0313580Y0263441D02*
X0313036Y0263441D01*
X0312981Y0264040D02*
X0312437Y0264040D01*
X0312382Y0264639D02*
X0311914Y0264639D01*
X0313540Y0266265D02*
X0315898Y0263907D01*
X0315626Y0263635D01*
X0313268Y0265993D01*
X0313540Y0266265D01*
X0315027Y0264234D02*
X0315571Y0264234D01*
X0314972Y0264833D02*
X0314428Y0264833D01*
X0314373Y0265432D02*
X0313829Y0265432D01*
X0313774Y0266031D02*
X0313306Y0266031D01*
X0314931Y0267657D02*
X0317289Y0265299D01*
X0317017Y0265027D01*
X0314659Y0267385D01*
X0314931Y0267657D01*
X0316418Y0265626D02*
X0316962Y0265626D01*
X0316363Y0266225D02*
X0315819Y0266225D01*
X0315764Y0266824D02*
X0315220Y0266824D01*
X0315165Y0267423D02*
X0314697Y0267423D01*
X0316323Y0269049D02*
X0318681Y0266691D01*
X0318409Y0266419D01*
X0316051Y0268777D01*
X0316323Y0269049D01*
X0317810Y0267018D02*
X0318354Y0267018D01*
X0317755Y0267617D02*
X0317211Y0267617D01*
X0317156Y0268216D02*
X0316612Y0268216D01*
X0316557Y0268815D02*
X0316089Y0268815D01*
X0317715Y0270441D02*
X0320073Y0268083D01*
X0319801Y0267811D01*
X0317443Y0270169D01*
X0317715Y0270441D01*
X0319202Y0268410D02*
X0319746Y0268410D01*
X0319147Y0269009D02*
X0318603Y0269009D01*
X0318548Y0269608D02*
X0318004Y0269608D01*
X0317949Y0270207D02*
X0317481Y0270207D01*
X0319107Y0271833D02*
X0321465Y0269475D01*
X0321193Y0269203D01*
X0318835Y0271561D01*
X0319107Y0271833D01*
X0320594Y0269802D02*
X0321138Y0269802D01*
X0320539Y0270401D02*
X0319995Y0270401D01*
X0319940Y0271000D02*
X0319396Y0271000D01*
X0319341Y0271599D02*
X0318873Y0271599D01*
X0320499Y0273225D02*
X0322857Y0270867D01*
X0322585Y0270595D01*
X0320227Y0272953D01*
X0320499Y0273225D01*
X0321986Y0271194D02*
X0322530Y0271194D01*
X0321931Y0271793D02*
X0321387Y0271793D01*
X0321332Y0272392D02*
X0320788Y0272392D01*
X0320733Y0272991D02*
X0320265Y0272991D01*
X0321891Y0274617D02*
X0324249Y0272259D01*
X0323977Y0271987D01*
X0321619Y0274345D01*
X0321891Y0274617D01*
X0323378Y0272586D02*
X0323922Y0272586D01*
X0323323Y0273185D02*
X0322779Y0273185D01*
X0322724Y0273784D02*
X0322180Y0273784D01*
X0322125Y0274383D02*
X0321657Y0274383D01*
X0323283Y0276009D02*
X0325641Y0273651D01*
X0325369Y0273379D01*
X0323011Y0275737D01*
X0323283Y0276009D01*
X0324770Y0273978D02*
X0325314Y0273978D01*
X0324715Y0274577D02*
X0324171Y0274577D01*
X0324116Y0275176D02*
X0323572Y0275176D01*
X0323517Y0275775D02*
X0323049Y0275775D01*
X0324675Y0277401D02*
X0327033Y0275043D01*
X0326761Y0274771D01*
X0324403Y0277129D01*
X0324675Y0277401D01*
X0326162Y0275370D02*
X0326706Y0275370D01*
X0326107Y0275969D02*
X0325563Y0275969D01*
X0325508Y0276568D02*
X0324964Y0276568D01*
X0324909Y0277167D02*
X0324441Y0277167D01*
X0326067Y0278793D02*
X0328425Y0276435D01*
X0328153Y0276163D01*
X0325795Y0278521D01*
X0326067Y0278793D01*
X0327554Y0276762D02*
X0328098Y0276762D01*
X0327499Y0277361D02*
X0326955Y0277361D01*
X0326900Y0277960D02*
X0326356Y0277960D01*
X0326301Y0278559D02*
X0325833Y0278559D01*
X0327459Y0280185D02*
X0329817Y0277827D01*
X0329545Y0277555D01*
X0327187Y0279913D01*
X0327459Y0280185D01*
X0328946Y0278154D02*
X0329490Y0278154D01*
X0328891Y0278753D02*
X0328347Y0278753D01*
X0328292Y0279352D02*
X0327748Y0279352D01*
X0327693Y0279951D02*
X0327225Y0279951D01*
X0328851Y0281577D02*
X0331209Y0279219D01*
X0330937Y0278947D01*
X0328579Y0281305D01*
X0328851Y0281577D01*
X0330338Y0279546D02*
X0330882Y0279546D01*
X0330283Y0280145D02*
X0329739Y0280145D01*
X0329684Y0280744D02*
X0329140Y0280744D01*
X0329085Y0281343D02*
X0328617Y0281343D01*
X0330243Y0282969D02*
X0332601Y0280611D01*
X0332329Y0280339D01*
X0329971Y0282697D01*
X0330243Y0282969D01*
X0331730Y0280938D02*
X0332274Y0280938D01*
X0331675Y0281537D02*
X0331131Y0281537D01*
X0331076Y0282136D02*
X0330532Y0282136D01*
X0330477Y0282735D02*
X0330009Y0282735D01*
X0329971Y0288962D02*
X0332329Y0291320D01*
X0332601Y0291048D01*
X0330243Y0288690D01*
X0329971Y0288962D01*
X0330298Y0289289D02*
X0330842Y0289289D01*
X0330897Y0289888D02*
X0331441Y0289888D01*
X0331496Y0290487D02*
X0332040Y0290487D01*
X0332095Y0291086D02*
X0332563Y0291086D01*
X0330937Y0292712D02*
X0328579Y0290354D01*
X0330937Y0292712D02*
X0331209Y0292440D01*
X0328851Y0290082D01*
X0328579Y0290354D01*
X0328906Y0290681D02*
X0329450Y0290681D01*
X0329505Y0291280D02*
X0330049Y0291280D01*
X0330104Y0291879D02*
X0330648Y0291879D01*
X0330703Y0292478D02*
X0331171Y0292478D01*
X0329545Y0294104D02*
X0327187Y0291746D01*
X0329545Y0294104D02*
X0329817Y0293832D01*
X0327459Y0291474D01*
X0327187Y0291746D01*
X0327514Y0292073D02*
X0328058Y0292073D01*
X0328113Y0292672D02*
X0328657Y0292672D01*
X0328712Y0293271D02*
X0329256Y0293271D01*
X0329311Y0293870D02*
X0329779Y0293870D01*
X0328153Y0295496D02*
X0325795Y0293138D01*
X0328153Y0295496D02*
X0328425Y0295224D01*
X0326067Y0292866D01*
X0325795Y0293138D01*
X0326122Y0293465D02*
X0326666Y0293465D01*
X0326721Y0294064D02*
X0327265Y0294064D01*
X0327320Y0294663D02*
X0327864Y0294663D01*
X0327919Y0295262D02*
X0328387Y0295262D01*
X0326761Y0296888D02*
X0324403Y0294530D01*
X0326761Y0296888D02*
X0327033Y0296616D01*
X0324675Y0294258D01*
X0324403Y0294530D01*
X0324730Y0294857D02*
X0325274Y0294857D01*
X0325329Y0295456D02*
X0325873Y0295456D01*
X0325928Y0296055D02*
X0326472Y0296055D01*
X0326527Y0296654D02*
X0326995Y0296654D01*
X0325369Y0298280D02*
X0323011Y0295922D01*
X0325369Y0298280D02*
X0325641Y0298008D01*
X0323283Y0295650D01*
X0323011Y0295922D01*
X0323338Y0296249D02*
X0323882Y0296249D01*
X0323937Y0296848D02*
X0324481Y0296848D01*
X0324536Y0297447D02*
X0325080Y0297447D01*
X0325135Y0298046D02*
X0325603Y0298046D01*
X0323977Y0299672D02*
X0321619Y0297314D01*
X0323977Y0299672D02*
X0324249Y0299400D01*
X0321891Y0297042D01*
X0321619Y0297314D01*
X0321946Y0297641D02*
X0322490Y0297641D01*
X0322545Y0298240D02*
X0323089Y0298240D01*
X0323144Y0298839D02*
X0323688Y0298839D01*
X0323743Y0299438D02*
X0324211Y0299438D01*
X0322585Y0301064D02*
X0320227Y0298706D01*
X0322585Y0301064D02*
X0322857Y0300792D01*
X0320499Y0298434D01*
X0320227Y0298706D01*
X0320554Y0299033D02*
X0321098Y0299033D01*
X0321153Y0299632D02*
X0321697Y0299632D01*
X0321752Y0300231D02*
X0322296Y0300231D01*
X0322351Y0300830D02*
X0322819Y0300830D01*
X0321193Y0302456D02*
X0318835Y0300098D01*
X0321193Y0302456D02*
X0321465Y0302184D01*
X0319107Y0299826D01*
X0318835Y0300098D01*
X0319162Y0300425D02*
X0319706Y0300425D01*
X0319761Y0301024D02*
X0320305Y0301024D01*
X0320360Y0301623D02*
X0320904Y0301623D01*
X0320959Y0302222D02*
X0321427Y0302222D01*
X0319801Y0303848D02*
X0317443Y0301490D01*
X0319801Y0303848D02*
X0320073Y0303576D01*
X0317715Y0301218D01*
X0317443Y0301490D01*
X0317770Y0301817D02*
X0318314Y0301817D01*
X0318369Y0302416D02*
X0318913Y0302416D01*
X0318968Y0303015D02*
X0319512Y0303015D01*
X0319567Y0303614D02*
X0320035Y0303614D01*
X0318409Y0305240D02*
X0316051Y0302882D01*
X0318409Y0305240D02*
X0318681Y0304968D01*
X0316323Y0302610D01*
X0316051Y0302882D01*
X0316378Y0303209D02*
X0316922Y0303209D01*
X0316977Y0303808D02*
X0317521Y0303808D01*
X0317576Y0304407D02*
X0318120Y0304407D01*
X0318175Y0305006D02*
X0318643Y0305006D01*
X0317017Y0306632D02*
X0314659Y0304274D01*
X0317017Y0306632D02*
X0317289Y0306360D01*
X0314931Y0304002D01*
X0314659Y0304274D01*
X0314986Y0304601D02*
X0315530Y0304601D01*
X0315585Y0305200D02*
X0316129Y0305200D01*
X0316184Y0305799D02*
X0316728Y0305799D01*
X0316783Y0306398D02*
X0317251Y0306398D01*
X0315626Y0308024D02*
X0313268Y0305666D01*
X0315626Y0308024D02*
X0315898Y0307752D01*
X0313540Y0305394D01*
X0313268Y0305666D01*
X0313595Y0305993D02*
X0314139Y0305993D01*
X0314194Y0306592D02*
X0314738Y0306592D01*
X0314793Y0307191D02*
X0315337Y0307191D01*
X0315392Y0307790D02*
X0315860Y0307790D01*
X0314234Y0309415D02*
X0311876Y0307057D01*
X0314234Y0309415D02*
X0314506Y0309143D01*
X0312148Y0306785D01*
X0311876Y0307057D01*
X0312203Y0307384D02*
X0312747Y0307384D01*
X0312802Y0307983D02*
X0313346Y0307983D01*
X0313401Y0308582D02*
X0313945Y0308582D01*
X0314000Y0309181D02*
X0314468Y0309181D01*
X0312842Y0310807D02*
X0310484Y0308449D01*
X0312842Y0310807D02*
X0313114Y0310535D01*
X0310756Y0308177D01*
X0310484Y0308449D01*
X0310811Y0308776D02*
X0311355Y0308776D01*
X0311410Y0309375D02*
X0311954Y0309375D01*
X0312009Y0309974D02*
X0312553Y0309974D01*
X0312608Y0310573D02*
X0313076Y0310573D01*
X0311450Y0312199D02*
X0309092Y0309841D01*
X0311450Y0312199D02*
X0311722Y0311927D01*
X0309364Y0309569D01*
X0309092Y0309841D01*
X0309419Y0310168D02*
X0309963Y0310168D01*
X0310018Y0310767D02*
X0310562Y0310767D01*
X0310617Y0311366D02*
X0311161Y0311366D01*
X0311216Y0311965D02*
X0311684Y0311965D01*
X0310058Y0313591D02*
X0307700Y0311233D01*
X0310058Y0313591D02*
X0310330Y0313319D01*
X0307972Y0310961D01*
X0307700Y0311233D01*
X0308027Y0311560D02*
X0308571Y0311560D01*
X0308626Y0312159D02*
X0309170Y0312159D01*
X0309225Y0312758D02*
X0309769Y0312758D01*
X0309824Y0313357D02*
X0310292Y0313357D01*
X0308666Y0314983D02*
X0306308Y0312625D01*
X0308666Y0314983D02*
X0308938Y0314711D01*
X0306580Y0312353D01*
X0306308Y0312625D01*
X0306635Y0312952D02*
X0307179Y0312952D01*
X0307234Y0313551D02*
X0307778Y0313551D01*
X0307833Y0314150D02*
X0308377Y0314150D01*
X0308432Y0314749D02*
X0308900Y0314749D01*
X0307274Y0316375D02*
X0304916Y0314017D01*
X0307274Y0316375D02*
X0307546Y0316103D01*
X0305188Y0313745D01*
X0304916Y0314017D01*
X0305243Y0314344D02*
X0305787Y0314344D01*
X0305842Y0314943D02*
X0306386Y0314943D01*
X0306441Y0315542D02*
X0306985Y0315542D01*
X0307040Y0316141D02*
X0307508Y0316141D01*
X0305882Y0317767D02*
X0303524Y0315409D01*
X0305882Y0317767D02*
X0306154Y0317495D01*
X0303796Y0315137D01*
X0303524Y0315409D01*
X0303851Y0315736D02*
X0304395Y0315736D01*
X0304450Y0316335D02*
X0304994Y0316335D01*
X0305049Y0316934D02*
X0305593Y0316934D01*
X0305648Y0317533D02*
X0306116Y0317533D01*
X0304490Y0319159D02*
X0302132Y0316801D01*
X0304490Y0319159D02*
X0304762Y0318887D01*
X0302404Y0316529D01*
X0302132Y0316801D01*
X0302459Y0317128D02*
X0303003Y0317128D01*
X0303058Y0317727D02*
X0303602Y0317727D01*
X0303657Y0318326D02*
X0304201Y0318326D01*
X0304256Y0318925D02*
X0304724Y0318925D01*
X0303098Y0320551D02*
X0300740Y0318193D01*
X0303098Y0320551D02*
X0303370Y0320279D01*
X0301012Y0317921D01*
X0300740Y0318193D01*
X0301067Y0318520D02*
X0301611Y0318520D01*
X0301666Y0319119D02*
X0302210Y0319119D01*
X0302265Y0319718D02*
X0302809Y0319718D01*
X0302864Y0320317D02*
X0303332Y0320317D01*
X0301706Y0321943D02*
X0299348Y0319585D01*
X0301706Y0321943D02*
X0301978Y0321671D01*
X0299620Y0319313D01*
X0299348Y0319585D01*
X0299675Y0319912D02*
X0300219Y0319912D01*
X0300274Y0320511D02*
X0300818Y0320511D01*
X0300873Y0321110D02*
X0301417Y0321110D01*
X0301472Y0321709D02*
X0301940Y0321709D01*
X0300314Y0323335D02*
X0297956Y0320977D01*
X0300314Y0323335D02*
X0300586Y0323063D01*
X0298228Y0320705D01*
X0297956Y0320977D01*
X0298283Y0321304D02*
X0298827Y0321304D01*
X0298882Y0321903D02*
X0299426Y0321903D01*
X0299481Y0322502D02*
X0300025Y0322502D01*
X0300080Y0323101D02*
X0300548Y0323101D01*
X0298922Y0324727D02*
X0296564Y0322369D01*
X0298922Y0324727D02*
X0299194Y0324455D01*
X0296836Y0322097D01*
X0296564Y0322369D01*
X0296891Y0322696D02*
X0297435Y0322696D01*
X0297490Y0323295D02*
X0298034Y0323295D01*
X0298089Y0323894D02*
X0298633Y0323894D01*
X0298688Y0324493D02*
X0299156Y0324493D01*
X0290571Y0322097D02*
X0288213Y0324455D01*
X0288485Y0324727D01*
X0290843Y0322369D01*
X0290571Y0322097D01*
X0290516Y0322696D02*
X0289972Y0322696D01*
X0289917Y0323295D02*
X0289373Y0323295D01*
X0289318Y0323894D02*
X0288774Y0323894D01*
X0288719Y0324493D02*
X0288251Y0324493D01*
X0286821Y0323063D02*
X0289179Y0320705D01*
X0286821Y0323063D02*
X0287093Y0323335D01*
X0289451Y0320977D01*
X0289179Y0320705D01*
X0289124Y0321304D02*
X0288580Y0321304D01*
X0288525Y0321903D02*
X0287981Y0321903D01*
X0287926Y0322502D02*
X0287382Y0322502D01*
X0287327Y0323101D02*
X0286859Y0323101D01*
X0285429Y0321671D02*
X0287787Y0319313D01*
X0285429Y0321671D02*
X0285701Y0321943D01*
X0288059Y0319585D01*
X0287787Y0319313D01*
X0287732Y0319912D02*
X0287188Y0319912D01*
X0287133Y0320511D02*
X0286589Y0320511D01*
X0286534Y0321110D02*
X0285990Y0321110D01*
X0285935Y0321709D02*
X0285467Y0321709D01*
X0284037Y0320279D02*
X0286395Y0317921D01*
X0284037Y0320279D02*
X0284309Y0320551D01*
X0286667Y0318193D01*
X0286395Y0317921D01*
X0286340Y0318520D02*
X0285796Y0318520D01*
X0285741Y0319119D02*
X0285197Y0319119D01*
X0285142Y0319718D02*
X0284598Y0319718D01*
X0284543Y0320317D02*
X0284075Y0320317D01*
X0282645Y0318887D02*
X0285003Y0316529D01*
X0282645Y0318887D02*
X0282917Y0319159D01*
X0285275Y0316801D01*
X0285003Y0316529D01*
X0284948Y0317128D02*
X0284404Y0317128D01*
X0284349Y0317727D02*
X0283805Y0317727D01*
X0283750Y0318326D02*
X0283206Y0318326D01*
X0283151Y0318925D02*
X0282683Y0318925D01*
X0281253Y0317495D02*
X0283611Y0315137D01*
X0281253Y0317495D02*
X0281525Y0317767D01*
X0283883Y0315409D01*
X0283611Y0315137D01*
X0283556Y0315736D02*
X0283012Y0315736D01*
X0282957Y0316335D02*
X0282413Y0316335D01*
X0282358Y0316934D02*
X0281814Y0316934D01*
X0281759Y0317533D02*
X0281291Y0317533D01*
X0279861Y0316103D02*
X0282219Y0313745D01*
X0279861Y0316103D02*
X0280133Y0316375D01*
X0282491Y0314017D01*
X0282219Y0313745D01*
X0282164Y0314344D02*
X0281620Y0314344D01*
X0281565Y0314943D02*
X0281021Y0314943D01*
X0280966Y0315542D02*
X0280422Y0315542D01*
X0280367Y0316141D02*
X0279899Y0316141D01*
X0278469Y0314711D02*
X0280827Y0312353D01*
X0278469Y0314711D02*
X0278741Y0314983D01*
X0281099Y0312625D01*
X0280827Y0312353D01*
X0280772Y0312952D02*
X0280228Y0312952D01*
X0280173Y0313551D02*
X0279629Y0313551D01*
X0279574Y0314150D02*
X0279030Y0314150D01*
X0278975Y0314749D02*
X0278507Y0314749D01*
X0277077Y0313319D02*
X0279435Y0310961D01*
X0277077Y0313319D02*
X0277349Y0313591D01*
X0279707Y0311233D01*
X0279435Y0310961D01*
X0279380Y0311560D02*
X0278836Y0311560D01*
X0278781Y0312159D02*
X0278237Y0312159D01*
X0278182Y0312758D02*
X0277638Y0312758D01*
X0277583Y0313357D02*
X0277115Y0313357D01*
X0275685Y0311927D02*
X0278043Y0309569D01*
X0275685Y0311927D02*
X0275957Y0312199D01*
X0278315Y0309841D01*
X0278043Y0309569D01*
X0277988Y0310168D02*
X0277444Y0310168D01*
X0277389Y0310767D02*
X0276845Y0310767D01*
X0276790Y0311366D02*
X0276246Y0311366D01*
X0276191Y0311965D02*
X0275723Y0311965D01*
X0274293Y0310535D02*
X0276651Y0308177D01*
X0274293Y0310535D02*
X0274565Y0310807D01*
X0276923Y0308449D01*
X0276651Y0308177D01*
X0276596Y0308776D02*
X0276052Y0308776D01*
X0275997Y0309375D02*
X0275453Y0309375D01*
X0275398Y0309974D02*
X0274854Y0309974D01*
X0274799Y0310573D02*
X0274331Y0310573D01*
X0272901Y0309143D02*
X0275259Y0306785D01*
X0272901Y0309143D02*
X0273173Y0309415D01*
X0275531Y0307057D01*
X0275259Y0306785D01*
X0275204Y0307384D02*
X0274660Y0307384D01*
X0274605Y0307983D02*
X0274061Y0307983D01*
X0274006Y0308582D02*
X0273462Y0308582D01*
X0273407Y0309181D02*
X0272939Y0309181D01*
X0271509Y0307752D02*
X0273867Y0305394D01*
X0271509Y0307752D02*
X0271781Y0308024D01*
X0274139Y0305666D01*
X0273867Y0305394D01*
X0273812Y0305993D02*
X0273268Y0305993D01*
X0273213Y0306592D02*
X0272669Y0306592D01*
X0272614Y0307191D02*
X0272070Y0307191D01*
X0272015Y0307790D02*
X0271547Y0307790D01*
X0270117Y0306360D02*
X0272475Y0304002D01*
X0270117Y0306360D02*
X0270389Y0306632D01*
X0272747Y0304274D01*
X0272475Y0304002D01*
X0272420Y0304601D02*
X0271876Y0304601D01*
X0271821Y0305200D02*
X0271277Y0305200D01*
X0271222Y0305799D02*
X0270678Y0305799D01*
X0270623Y0306398D02*
X0270155Y0306398D01*
X0268725Y0304968D02*
X0271083Y0302610D01*
X0268725Y0304968D02*
X0268997Y0305240D01*
X0271355Y0302882D01*
X0271083Y0302610D01*
X0271028Y0303209D02*
X0270484Y0303209D01*
X0270429Y0303808D02*
X0269885Y0303808D01*
X0269830Y0304407D02*
X0269286Y0304407D01*
X0269231Y0305006D02*
X0268763Y0305006D01*
X0267333Y0303576D02*
X0269691Y0301218D01*
X0267333Y0303576D02*
X0267605Y0303848D01*
X0269963Y0301490D01*
X0269691Y0301218D01*
X0269636Y0301817D02*
X0269092Y0301817D01*
X0269037Y0302416D02*
X0268493Y0302416D01*
X0268438Y0303015D02*
X0267894Y0303015D01*
X0267839Y0303614D02*
X0267371Y0303614D01*
X0265941Y0302184D02*
X0268299Y0299826D01*
X0265941Y0302184D02*
X0266213Y0302456D01*
X0268571Y0300098D01*
X0268299Y0299826D01*
X0268244Y0300425D02*
X0267700Y0300425D01*
X0267645Y0301024D02*
X0267101Y0301024D01*
X0267046Y0301623D02*
X0266502Y0301623D01*
X0266447Y0302222D02*
X0265979Y0302222D01*
X0264550Y0300792D02*
X0266908Y0298434D01*
X0264550Y0300792D02*
X0264822Y0301064D01*
X0267180Y0298706D01*
X0266908Y0298434D01*
X0266853Y0299033D02*
X0266309Y0299033D01*
X0266254Y0299632D02*
X0265710Y0299632D01*
X0265655Y0300231D02*
X0265111Y0300231D01*
X0265056Y0300830D02*
X0264588Y0300830D01*
X0263158Y0299400D02*
X0265516Y0297042D01*
X0263158Y0299400D02*
X0263430Y0299672D01*
X0265788Y0297314D01*
X0265516Y0297042D01*
X0265461Y0297641D02*
X0264917Y0297641D01*
X0264862Y0298240D02*
X0264318Y0298240D01*
X0264263Y0298839D02*
X0263719Y0298839D01*
X0263664Y0299438D02*
X0263196Y0299438D01*
X0261766Y0298008D02*
X0264124Y0295650D01*
X0261766Y0298008D02*
X0262038Y0298280D01*
X0264396Y0295922D01*
X0264124Y0295650D01*
X0264069Y0296249D02*
X0263525Y0296249D01*
X0263470Y0296848D02*
X0262926Y0296848D01*
X0262871Y0297447D02*
X0262327Y0297447D01*
X0262272Y0298046D02*
X0261804Y0298046D01*
X0260374Y0296616D02*
X0262732Y0294258D01*
X0260374Y0296616D02*
X0260646Y0296888D01*
X0263004Y0294530D01*
X0262732Y0294258D01*
X0262677Y0294857D02*
X0262133Y0294857D01*
X0262078Y0295456D02*
X0261534Y0295456D01*
X0261479Y0296055D02*
X0260935Y0296055D01*
X0260880Y0296654D02*
X0260412Y0296654D01*
X0258982Y0295224D02*
X0261340Y0292866D01*
X0258982Y0295224D02*
X0259254Y0295496D01*
X0261612Y0293138D01*
X0261340Y0292866D01*
X0261285Y0293465D02*
X0260741Y0293465D01*
X0260686Y0294064D02*
X0260142Y0294064D01*
X0260087Y0294663D02*
X0259543Y0294663D01*
X0259488Y0295262D02*
X0259020Y0295262D01*
X0257590Y0293832D02*
X0259948Y0291474D01*
X0257590Y0293832D02*
X0257862Y0294104D01*
X0260220Y0291746D01*
X0259948Y0291474D01*
X0259893Y0292073D02*
X0259349Y0292073D01*
X0259294Y0292672D02*
X0258750Y0292672D01*
X0258695Y0293271D02*
X0258151Y0293271D01*
X0258096Y0293870D02*
X0257628Y0293870D01*
X0256198Y0292440D02*
X0258556Y0290082D01*
X0256198Y0292440D02*
X0256470Y0292712D01*
X0258828Y0290354D01*
X0258556Y0290082D01*
X0258501Y0290681D02*
X0257957Y0290681D01*
X0257902Y0291280D02*
X0257358Y0291280D01*
X0257303Y0291879D02*
X0256759Y0291879D01*
X0256704Y0292478D02*
X0256236Y0292478D01*
X0254806Y0291048D02*
X0257164Y0288690D01*
X0254806Y0291048D02*
X0255078Y0291320D01*
X0257436Y0288962D01*
X0257164Y0288690D01*
X0257109Y0289289D02*
X0256565Y0289289D01*
X0256510Y0289888D02*
X0255966Y0289888D01*
X0255911Y0290487D02*
X0255367Y0290487D01*
X0255312Y0291086D02*
X0254844Y0291086D01*
X0375756Y0167045D02*
X0377714Y0167045D01*
X0377714Y0166661D01*
X0375756Y0166661D01*
X0375756Y0167045D01*
X0375756Y0165077D02*
X0377714Y0165077D01*
X0377714Y0164693D01*
X0375756Y0164693D01*
X0375756Y0165077D01*
X0375756Y0163108D02*
X0377714Y0163108D01*
X0377714Y0162724D01*
X0375756Y0162724D01*
X0375756Y0163108D01*
X0381071Y0163108D02*
X0383029Y0163108D01*
X0383029Y0162724D01*
X0381071Y0162724D01*
X0381071Y0163108D01*
X0381071Y0165077D02*
X0383029Y0165077D01*
X0383029Y0164693D01*
X0381071Y0164693D01*
X0381071Y0165077D01*
X0381071Y0167045D02*
X0383029Y0167045D01*
X0383029Y0166661D01*
X0381071Y0166661D01*
X0381071Y0167045D01*
D20*
X0272868Y0402562D02*
X0272868Y0403932D01*
X0273176Y0403932D01*
X0273176Y0402562D01*
X0272868Y0402562D01*
X0272868Y0403159D02*
X0273176Y0403159D01*
X0273176Y0403756D02*
X0272868Y0403756D01*
X0270900Y0403932D02*
X0270900Y0402562D01*
X0270900Y0403932D02*
X0271208Y0403932D01*
X0271208Y0402562D01*
X0270900Y0402562D01*
X0270900Y0403159D02*
X0271208Y0403159D01*
X0271208Y0403756D02*
X0270900Y0403756D01*
X0268931Y0403932D02*
X0268931Y0402562D01*
X0268931Y0403932D02*
X0269239Y0403932D01*
X0269239Y0402562D01*
X0268931Y0402562D01*
X0268931Y0403159D02*
X0269239Y0403159D01*
X0269239Y0403756D02*
X0268931Y0403756D01*
X0266963Y0403932D02*
X0266963Y0402562D01*
X0266963Y0403932D02*
X0267271Y0403932D01*
X0267271Y0402562D01*
X0266963Y0402562D01*
X0266963Y0403159D02*
X0267271Y0403159D01*
X0267271Y0403756D02*
X0266963Y0403756D01*
X0264994Y0403932D02*
X0264994Y0402562D01*
X0264994Y0403932D02*
X0265302Y0403932D01*
X0265302Y0402562D01*
X0264994Y0402562D01*
X0264994Y0403159D02*
X0265302Y0403159D01*
X0265302Y0403756D02*
X0264994Y0403756D01*
X0263026Y0403932D02*
X0263026Y0402562D01*
X0263026Y0403932D02*
X0263334Y0403932D01*
X0263334Y0402562D01*
X0263026Y0402562D01*
X0263026Y0403159D02*
X0263334Y0403159D01*
X0263334Y0403756D02*
X0263026Y0403756D01*
X0261057Y0403932D02*
X0261057Y0402562D01*
X0261057Y0403932D02*
X0261365Y0403932D01*
X0261365Y0402562D01*
X0261057Y0402562D01*
X0261057Y0403159D02*
X0261365Y0403159D01*
X0261365Y0403756D02*
X0261057Y0403756D01*
X0259089Y0403932D02*
X0259089Y0402562D01*
X0259089Y0403932D02*
X0259397Y0403932D01*
X0259397Y0402562D01*
X0259089Y0402562D01*
X0259089Y0403159D02*
X0259397Y0403159D01*
X0259397Y0403756D02*
X0259089Y0403756D01*
X0257959Y0405369D02*
X0256589Y0405369D01*
X0257959Y0405369D02*
X0257959Y0405061D01*
X0256589Y0405061D01*
X0256589Y0405369D01*
X0256589Y0407338D02*
X0257959Y0407338D01*
X0257959Y0407030D01*
X0256589Y0407030D01*
X0256589Y0407338D01*
X0256589Y0409306D02*
X0257959Y0409306D01*
X0257959Y0408998D01*
X0256589Y0408998D01*
X0256589Y0409306D01*
X0256589Y0411275D02*
X0257959Y0411275D01*
X0257959Y0410967D01*
X0256589Y0410967D01*
X0256589Y0411275D01*
X0256589Y0413243D02*
X0257959Y0413243D01*
X0257959Y0412935D01*
X0256589Y0412935D01*
X0256589Y0413243D01*
X0256589Y0415212D02*
X0257959Y0415212D01*
X0257959Y0414904D01*
X0256589Y0414904D01*
X0256589Y0415212D01*
X0256589Y0417180D02*
X0257959Y0417180D01*
X0257959Y0416872D01*
X0256589Y0416872D01*
X0256589Y0417180D01*
X0256589Y0419149D02*
X0257959Y0419149D01*
X0257959Y0418841D01*
X0256589Y0418841D01*
X0256589Y0419149D01*
X0259397Y0420278D02*
X0259397Y0421648D01*
X0259397Y0420278D02*
X0259089Y0420278D01*
X0259089Y0421648D01*
X0259397Y0421648D01*
X0259397Y0420875D02*
X0259089Y0420875D01*
X0259089Y0421472D02*
X0259397Y0421472D01*
X0261365Y0421648D02*
X0261365Y0420278D01*
X0261057Y0420278D01*
X0261057Y0421648D01*
X0261365Y0421648D01*
X0261365Y0420875D02*
X0261057Y0420875D01*
X0261057Y0421472D02*
X0261365Y0421472D01*
X0263334Y0421648D02*
X0263334Y0420278D01*
X0263026Y0420278D01*
X0263026Y0421648D01*
X0263334Y0421648D01*
X0263334Y0420875D02*
X0263026Y0420875D01*
X0263026Y0421472D02*
X0263334Y0421472D01*
X0265302Y0421648D02*
X0265302Y0420278D01*
X0264994Y0420278D01*
X0264994Y0421648D01*
X0265302Y0421648D01*
X0265302Y0420875D02*
X0264994Y0420875D01*
X0264994Y0421472D02*
X0265302Y0421472D01*
X0267271Y0421648D02*
X0267271Y0420278D01*
X0266963Y0420278D01*
X0266963Y0421648D01*
X0267271Y0421648D01*
X0267271Y0420875D02*
X0266963Y0420875D01*
X0266963Y0421472D02*
X0267271Y0421472D01*
X0268931Y0421648D02*
X0268931Y0420278D01*
X0268931Y0421648D02*
X0269239Y0421648D01*
X0269239Y0420278D01*
X0268931Y0420278D01*
X0268931Y0420875D02*
X0269239Y0420875D01*
X0269239Y0421472D02*
X0268931Y0421472D01*
X0270900Y0421648D02*
X0270900Y0420278D01*
X0270900Y0421648D02*
X0271208Y0421648D01*
X0271208Y0420278D01*
X0270900Y0420278D01*
X0270900Y0420875D02*
X0271208Y0420875D01*
X0271208Y0421472D02*
X0270900Y0421472D01*
X0272868Y0421648D02*
X0272868Y0420278D01*
X0272868Y0421648D02*
X0273176Y0421648D01*
X0273176Y0420278D01*
X0272868Y0420278D01*
X0272868Y0420875D02*
X0273176Y0420875D01*
X0273176Y0421472D02*
X0272868Y0421472D01*
X0274306Y0418841D02*
X0275676Y0418841D01*
X0274306Y0418841D02*
X0274306Y0419149D01*
X0275676Y0419149D01*
X0275676Y0418841D01*
X0275676Y0416872D02*
X0274306Y0416872D01*
X0274306Y0417180D01*
X0275676Y0417180D01*
X0275676Y0416872D01*
X0275676Y0414904D02*
X0274306Y0414904D01*
X0274306Y0415212D01*
X0275676Y0415212D01*
X0275676Y0414904D01*
X0275676Y0412935D02*
X0274306Y0412935D01*
X0274306Y0413243D01*
X0275676Y0413243D01*
X0275676Y0412935D01*
X0275676Y0410967D02*
X0274306Y0410967D01*
X0274306Y0411275D01*
X0275676Y0411275D01*
X0275676Y0410967D01*
X0275676Y0408998D02*
X0274306Y0408998D01*
X0274306Y0409306D01*
X0275676Y0409306D01*
X0275676Y0408998D01*
X0275676Y0407030D02*
X0274306Y0407030D01*
X0274306Y0407338D01*
X0275676Y0407338D01*
X0275676Y0407030D01*
X0275676Y0405061D02*
X0274306Y0405061D01*
X0274306Y0405369D01*
X0275676Y0405369D01*
X0275676Y0405061D01*
D21*
X0269479Y0408759D03*
X0269479Y0415451D03*
X0262786Y0415451D03*
X0262786Y0408759D03*
D22*
X0304318Y0134652D03*
X0306286Y0134652D03*
X0306286Y0132290D03*
X0305302Y0130585D03*
X0304318Y0132290D03*
D23*
X0394117Y0231262D03*
X0394117Y0236184D03*
D24*
X0122444Y0275987D03*
X0122444Y0279924D03*
X0118507Y0279924D03*
X0118507Y0275987D03*
D25*
X0081085Y0275888D02*
X0081085Y0268762D01*
X0074353Y0268762D01*
X0074353Y0275888D01*
X0081085Y0275888D01*
X0081085Y0269509D02*
X0074353Y0269509D01*
X0074353Y0270256D02*
X0081085Y0270256D01*
X0081085Y0271003D02*
X0074353Y0271003D01*
X0074353Y0271750D02*
X0081085Y0271750D01*
X0081085Y0272497D02*
X0074353Y0272497D01*
X0074353Y0273244D02*
X0081085Y0273244D01*
X0081085Y0273991D02*
X0074353Y0273991D01*
X0074353Y0274738D02*
X0081085Y0274738D01*
X0081085Y0275485D02*
X0074353Y0275485D01*
X0081085Y0278605D02*
X0081085Y0285731D01*
X0081085Y0278605D02*
X0074353Y0278605D01*
X0074353Y0285731D01*
X0081085Y0285731D01*
X0081085Y0279352D02*
X0074353Y0279352D01*
X0074353Y0280099D02*
X0081085Y0280099D01*
X0081085Y0280846D02*
X0074353Y0280846D01*
X0074353Y0281593D02*
X0081085Y0281593D01*
X0081085Y0282340D02*
X0074353Y0282340D01*
X0074353Y0283087D02*
X0081085Y0283087D01*
X0081085Y0283834D02*
X0074353Y0283834D01*
X0074353Y0284581D02*
X0081085Y0284581D01*
X0081085Y0285328D02*
X0074353Y0285328D01*
X0081085Y0289039D02*
X0081085Y0296951D01*
X0081085Y0289039D02*
X0074353Y0289039D01*
X0074353Y0296951D01*
X0081085Y0296951D01*
X0081085Y0289786D02*
X0074353Y0289786D01*
X0074353Y0290533D02*
X0081085Y0290533D01*
X0081085Y0291280D02*
X0074353Y0291280D01*
X0074353Y0292027D02*
X0081085Y0292027D01*
X0081085Y0292774D02*
X0074353Y0292774D01*
X0074353Y0293521D02*
X0081085Y0293521D01*
X0081085Y0294268D02*
X0074353Y0294268D01*
X0074353Y0295015D02*
X0081085Y0295015D01*
X0081085Y0295762D02*
X0074353Y0295762D01*
X0074353Y0296509D02*
X0081085Y0296509D01*
X0081085Y0265455D02*
X0081085Y0257543D01*
X0074353Y0257543D01*
X0074353Y0265455D01*
X0081085Y0265455D01*
X0081085Y0258290D02*
X0074353Y0258290D01*
X0074353Y0259037D02*
X0081085Y0259037D01*
X0081085Y0259784D02*
X0074353Y0259784D01*
X0074353Y0260531D02*
X0081085Y0260531D01*
X0081085Y0261278D02*
X0074353Y0261278D01*
X0074353Y0262025D02*
X0081085Y0262025D01*
X0081085Y0262772D02*
X0074353Y0262772D01*
X0074353Y0263519D02*
X0081085Y0263519D01*
X0081085Y0264266D02*
X0074353Y0264266D01*
X0074353Y0265013D02*
X0081085Y0265013D01*
X0081085Y0241557D02*
X0081085Y0233645D01*
X0074353Y0233645D01*
X0074353Y0241557D01*
X0081085Y0241557D01*
X0081085Y0234392D02*
X0074353Y0234392D01*
X0074353Y0235139D02*
X0081085Y0235139D01*
X0081085Y0235886D02*
X0074353Y0235886D01*
X0074353Y0236633D02*
X0081085Y0236633D01*
X0081085Y0237380D02*
X0074353Y0237380D01*
X0074353Y0238127D02*
X0081085Y0238127D01*
X0081085Y0238874D02*
X0074353Y0238874D01*
X0074353Y0239621D02*
X0081085Y0239621D01*
X0081085Y0240368D02*
X0074353Y0240368D01*
X0074353Y0241115D02*
X0081085Y0241115D01*
X0081085Y0230337D02*
X0081085Y0223211D01*
X0074353Y0223211D01*
X0074353Y0230337D01*
X0081085Y0230337D01*
X0081085Y0223958D02*
X0074353Y0223958D01*
X0074353Y0224705D02*
X0081085Y0224705D01*
X0081085Y0225452D02*
X0074353Y0225452D01*
X0074353Y0226199D02*
X0081085Y0226199D01*
X0081085Y0226946D02*
X0074353Y0226946D01*
X0074353Y0227693D02*
X0081085Y0227693D01*
X0081085Y0228440D02*
X0074353Y0228440D01*
X0074353Y0229187D02*
X0081085Y0229187D01*
X0081085Y0229934D02*
X0074353Y0229934D01*
X0081085Y0220495D02*
X0081085Y0213369D01*
X0074353Y0213369D01*
X0074353Y0220495D01*
X0081085Y0220495D01*
X0081085Y0214116D02*
X0074353Y0214116D01*
X0074353Y0214863D02*
X0081085Y0214863D01*
X0081085Y0215610D02*
X0074353Y0215610D01*
X0074353Y0216357D02*
X0081085Y0216357D01*
X0081085Y0217104D02*
X0074353Y0217104D01*
X0074353Y0217851D02*
X0081085Y0217851D01*
X0081085Y0218598D02*
X0074353Y0218598D01*
X0074353Y0219345D02*
X0081085Y0219345D01*
X0081085Y0220092D02*
X0074353Y0220092D01*
X0081085Y0210061D02*
X0081085Y0202149D01*
X0074353Y0202149D01*
X0074353Y0210061D01*
X0081085Y0210061D01*
X0081085Y0202896D02*
X0074353Y0202896D01*
X0074353Y0203643D02*
X0081085Y0203643D01*
X0081085Y0204390D02*
X0074353Y0204390D01*
X0074353Y0205137D02*
X0081085Y0205137D01*
X0081085Y0205884D02*
X0074353Y0205884D01*
X0074353Y0206631D02*
X0081085Y0206631D01*
X0081085Y0207378D02*
X0074353Y0207378D01*
X0074353Y0208125D02*
X0081085Y0208125D01*
X0081085Y0208872D02*
X0074353Y0208872D01*
X0074353Y0209619D02*
X0081085Y0209619D01*
D26*
X0224541Y0262404D02*
X0228282Y0258663D01*
X0225375Y0255756D01*
X0221634Y0259497D01*
X0224541Y0262404D01*
X0224762Y0256369D02*
X0225988Y0256369D01*
X0226601Y0256982D02*
X0224149Y0256982D01*
X0223536Y0257595D02*
X0227214Y0257595D01*
X0227827Y0258208D02*
X0222923Y0258208D01*
X0222310Y0258821D02*
X0228124Y0258821D01*
X0227511Y0259434D02*
X0221697Y0259434D01*
X0222184Y0260047D02*
X0226898Y0260047D01*
X0226285Y0260660D02*
X0222797Y0260660D01*
X0223410Y0261273D02*
X0225672Y0261273D01*
X0225059Y0261886D02*
X0224023Y0261886D01*
X0230666Y0268529D02*
X0234407Y0264788D01*
X0231500Y0261881D01*
X0227759Y0265622D01*
X0230666Y0268529D01*
X0230887Y0262494D02*
X0232113Y0262494D01*
X0232726Y0263107D02*
X0230274Y0263107D01*
X0229661Y0263720D02*
X0233339Y0263720D01*
X0233952Y0264333D02*
X0229048Y0264333D01*
X0228435Y0264946D02*
X0234249Y0264946D01*
X0233636Y0265559D02*
X0227822Y0265559D01*
X0228309Y0266172D02*
X0233023Y0266172D01*
X0232410Y0266785D02*
X0228922Y0266785D01*
X0229535Y0267398D02*
X0231797Y0267398D01*
X0231184Y0268011D02*
X0230148Y0268011D01*
X0241244Y0257950D02*
X0244985Y0254209D01*
X0242078Y0251302D01*
X0238337Y0255043D01*
X0241244Y0257950D01*
X0241465Y0251915D02*
X0242691Y0251915D01*
X0243304Y0252528D02*
X0240852Y0252528D01*
X0240239Y0253141D02*
X0243917Y0253141D01*
X0244530Y0253754D02*
X0239626Y0253754D01*
X0239013Y0254367D02*
X0244827Y0254367D01*
X0244214Y0254980D02*
X0238400Y0254980D01*
X0238887Y0255593D02*
X0243601Y0255593D01*
X0242988Y0256206D02*
X0239500Y0256206D01*
X0240113Y0256819D02*
X0242375Y0256819D01*
X0241762Y0257432D02*
X0240726Y0257432D01*
X0235120Y0251825D02*
X0238861Y0248084D01*
X0235954Y0245177D01*
X0232213Y0248918D01*
X0235120Y0251825D01*
X0235341Y0245790D02*
X0236567Y0245790D01*
X0237180Y0246403D02*
X0234728Y0246403D01*
X0234115Y0247016D02*
X0237793Y0247016D01*
X0238406Y0247629D02*
X0233502Y0247629D01*
X0232889Y0248242D02*
X0238703Y0248242D01*
X0238090Y0248855D02*
X0232276Y0248855D01*
X0232763Y0249468D02*
X0237477Y0249468D01*
X0236864Y0250081D02*
X0233376Y0250081D01*
X0233989Y0250694D02*
X0236251Y0250694D01*
X0235638Y0251307D02*
X0234602Y0251307D01*
X0331136Y0151468D02*
X0331136Y0146176D01*
X0327026Y0146176D01*
X0327026Y0151468D01*
X0331136Y0151468D01*
X0331136Y0146789D02*
X0327026Y0146789D01*
X0327026Y0147402D02*
X0331136Y0147402D01*
X0331136Y0148015D02*
X0327026Y0148015D01*
X0327026Y0148628D02*
X0331136Y0148628D01*
X0331136Y0149241D02*
X0327026Y0149241D01*
X0327026Y0149854D02*
X0331136Y0149854D01*
X0331136Y0150467D02*
X0327026Y0150467D01*
X0327026Y0151080D02*
X0331136Y0151080D01*
X0339798Y0151468D02*
X0339798Y0146176D01*
X0335688Y0146176D01*
X0335688Y0151468D01*
X0339798Y0151468D01*
X0339798Y0146789D02*
X0335688Y0146789D01*
X0335688Y0147402D02*
X0339798Y0147402D01*
X0339798Y0148015D02*
X0335688Y0148015D01*
X0335688Y0148628D02*
X0339798Y0148628D01*
X0339798Y0149241D02*
X0335688Y0149241D01*
X0335688Y0149854D02*
X0339798Y0149854D01*
X0339798Y0150467D02*
X0335688Y0150467D01*
X0335688Y0151080D02*
X0339798Y0151080D01*
X0339798Y0136507D02*
X0339798Y0131215D01*
X0335688Y0131215D01*
X0335688Y0136507D01*
X0339798Y0136507D01*
X0339798Y0131828D02*
X0335688Y0131828D01*
X0335688Y0132441D02*
X0339798Y0132441D01*
X0339798Y0133054D02*
X0335688Y0133054D01*
X0335688Y0133667D02*
X0339798Y0133667D01*
X0339798Y0134280D02*
X0335688Y0134280D01*
X0335688Y0134893D02*
X0339798Y0134893D01*
X0339798Y0135506D02*
X0335688Y0135506D01*
X0335688Y0136119D02*
X0339798Y0136119D01*
X0331136Y0136507D02*
X0331136Y0131215D01*
X0327026Y0131215D01*
X0327026Y0136507D01*
X0331136Y0136507D01*
X0331136Y0131828D02*
X0327026Y0131828D01*
X0327026Y0132441D02*
X0331136Y0132441D01*
X0331136Y0133054D02*
X0327026Y0133054D01*
X0327026Y0133667D02*
X0331136Y0133667D01*
X0331136Y0134280D02*
X0327026Y0134280D01*
X0327026Y0134893D02*
X0331136Y0134893D01*
X0331136Y0135506D02*
X0327026Y0135506D01*
X0327026Y0136119D02*
X0331136Y0136119D01*
X0297948Y0404640D02*
X0297948Y0409932D01*
X0302058Y0409932D01*
X0302058Y0404640D01*
X0297948Y0404640D01*
X0297948Y0405253D02*
X0302058Y0405253D01*
X0302058Y0405866D02*
X0297948Y0405866D01*
X0297948Y0406479D02*
X0302058Y0406479D01*
X0302058Y0407092D02*
X0297948Y0407092D01*
X0297948Y0407705D02*
X0302058Y0407705D01*
X0302058Y0408318D02*
X0297948Y0408318D01*
X0297948Y0408931D02*
X0302058Y0408931D01*
X0302058Y0409544D02*
X0297948Y0409544D01*
X0289286Y0409932D02*
X0289286Y0404640D01*
X0289286Y0409932D02*
X0293396Y0409932D01*
X0293396Y0404640D01*
X0289286Y0404640D01*
X0289286Y0405253D02*
X0293396Y0405253D01*
X0293396Y0405866D02*
X0289286Y0405866D01*
X0289286Y0406479D02*
X0293396Y0406479D01*
X0293396Y0407092D02*
X0289286Y0407092D01*
X0289286Y0407705D02*
X0293396Y0407705D01*
X0293396Y0408318D02*
X0289286Y0408318D01*
X0289286Y0408931D02*
X0293396Y0408931D01*
X0293396Y0409544D02*
X0289286Y0409544D01*
X0289286Y0419601D02*
X0289286Y0424893D01*
X0293396Y0424893D01*
X0293396Y0419601D01*
X0289286Y0419601D01*
X0289286Y0420214D02*
X0293396Y0420214D01*
X0293396Y0420827D02*
X0289286Y0420827D01*
X0289286Y0421440D02*
X0293396Y0421440D01*
X0293396Y0422053D02*
X0289286Y0422053D01*
X0289286Y0422666D02*
X0293396Y0422666D01*
X0293396Y0423279D02*
X0289286Y0423279D01*
X0289286Y0423892D02*
X0293396Y0423892D01*
X0293396Y0424505D02*
X0289286Y0424505D01*
X0297948Y0424893D02*
X0297948Y0419601D01*
X0297948Y0424893D02*
X0302058Y0424893D01*
X0302058Y0419601D01*
X0297948Y0419601D01*
X0297948Y0420214D02*
X0302058Y0420214D01*
X0302058Y0420827D02*
X0297948Y0420827D01*
X0297948Y0421440D02*
X0302058Y0421440D01*
X0302058Y0422053D02*
X0297948Y0422053D01*
X0297948Y0422666D02*
X0302058Y0422666D01*
X0302058Y0423279D02*
X0297948Y0423279D01*
X0297948Y0423892D02*
X0302058Y0423892D01*
X0302058Y0424505D02*
X0297948Y0424505D01*
D27*
X0299117Y0154432D03*
X0307975Y0154432D03*
X0307975Y0145573D03*
X0299117Y0145573D03*
D28*
X0246007Y0138270D03*
X0246007Y0133270D03*
X0246007Y0128270D03*
X0241007Y0128270D03*
X0241007Y0133270D03*
X0241007Y0138270D03*
X0241007Y0163703D03*
X0241007Y0168703D03*
X0241007Y0173703D03*
X0246007Y0173703D03*
X0246007Y0168703D03*
X0246007Y0163703D03*
M02*
