G75*
%MOIN*%
%OFA0B0*%
%FSLAX25Y25*%
%IPPOS*%
%LPD*%
%AMOC8*
5,1,8,0,0,1.08239X$1,22.5*
%
%ADD10C,0.00591*%
%ADD11C,0.05315*%
%ADD12C,0.07400*%
%ADD13C,0.07600*%
%ADD14C,0.00800*%
%ADD15C,0.00600*%
%ADD16C,0.00606*%
%ADD17C,0.10800*%
%ADD18C,0.03937*%
%ADD19C,0.02700*%
%ADD20C,0.03762*%
%ADD21C,0.01600*%
%ADD22C,0.03150*%
D10*
X0304235Y0286518D02*
X0304235Y0290258D01*
X0304235Y0286518D02*
X0300889Y0286518D01*
X0300889Y0290258D01*
X0304235Y0290258D01*
X0304235Y0287108D02*
X0300889Y0287108D01*
X0300889Y0287698D02*
X0304235Y0287698D01*
X0304235Y0288288D02*
X0300889Y0288288D01*
X0300889Y0288878D02*
X0304235Y0288878D01*
X0304235Y0289468D02*
X0300889Y0289468D01*
X0300889Y0290058D02*
X0304235Y0290058D01*
X0304235Y0293211D02*
X0304235Y0296951D01*
X0304235Y0293211D02*
X0300889Y0293211D01*
X0300889Y0296951D01*
X0304235Y0296951D01*
X0304235Y0293801D02*
X0300889Y0293801D01*
X0300889Y0294391D02*
X0304235Y0294391D01*
X0304235Y0294981D02*
X0300889Y0294981D01*
X0300889Y0295571D02*
X0304235Y0295571D01*
X0304235Y0296161D02*
X0300889Y0296161D01*
X0300889Y0296751D02*
X0304235Y0296751D01*
X0396755Y0421361D02*
X0400495Y0421361D01*
X0400495Y0418015D01*
X0396755Y0418015D01*
X0396755Y0421361D01*
X0396755Y0418605D02*
X0400495Y0418605D01*
X0400495Y0419195D02*
X0396755Y0419195D01*
X0396755Y0419785D02*
X0400495Y0419785D01*
X0400495Y0420375D02*
X0396755Y0420375D01*
X0396755Y0420965D02*
X0400495Y0420965D01*
X0403448Y0421361D02*
X0407188Y0421361D01*
X0407188Y0418015D01*
X0403448Y0418015D01*
X0403448Y0421361D01*
X0403448Y0418605D02*
X0407188Y0418605D01*
X0407188Y0419195D02*
X0403448Y0419195D01*
X0403448Y0419785D02*
X0407188Y0419785D01*
X0407188Y0420375D02*
X0403448Y0420375D01*
X0403448Y0420965D02*
X0407188Y0420965D01*
X0395377Y0421952D02*
X0391637Y0421952D01*
X0391637Y0425298D01*
X0395377Y0425298D01*
X0395377Y0421952D01*
X0395377Y0422542D02*
X0391637Y0422542D01*
X0391637Y0423132D02*
X0395377Y0423132D01*
X0395377Y0423722D02*
X0391637Y0423722D01*
X0391637Y0424312D02*
X0395377Y0424312D01*
X0395377Y0424902D02*
X0391637Y0424902D01*
X0388684Y0421952D02*
X0384944Y0421952D01*
X0384944Y0425298D01*
X0388684Y0425298D01*
X0388684Y0421952D01*
X0388684Y0422542D02*
X0384944Y0422542D01*
X0384944Y0423132D02*
X0388684Y0423132D01*
X0388684Y0423722D02*
X0384944Y0423722D01*
X0384944Y0424312D02*
X0388684Y0424312D01*
X0388684Y0424902D02*
X0384944Y0424902D01*
X0386400Y0427641D02*
X0388172Y0427641D01*
X0386400Y0427641D02*
X0386400Y0435711D01*
X0388172Y0435711D01*
X0388172Y0427641D01*
X0388172Y0428231D02*
X0386400Y0428231D01*
X0386400Y0428821D02*
X0388172Y0428821D01*
X0388172Y0429411D02*
X0386400Y0429411D01*
X0386400Y0430001D02*
X0388172Y0430001D01*
X0388172Y0430591D02*
X0386400Y0430591D01*
X0386400Y0431181D02*
X0388172Y0431181D01*
X0388172Y0431771D02*
X0386400Y0431771D01*
X0386400Y0432361D02*
X0388172Y0432361D01*
X0388172Y0432951D02*
X0386400Y0432951D01*
X0386400Y0433541D02*
X0388172Y0433541D01*
X0388172Y0434131D02*
X0386400Y0434131D01*
X0386400Y0434721D02*
X0388172Y0434721D01*
X0388172Y0435311D02*
X0386400Y0435311D01*
X0383172Y0427641D02*
X0381400Y0427641D01*
X0381400Y0435711D01*
X0383172Y0435711D01*
X0383172Y0427641D01*
X0383172Y0428231D02*
X0381400Y0428231D01*
X0381400Y0428821D02*
X0383172Y0428821D01*
X0383172Y0429411D02*
X0381400Y0429411D01*
X0381400Y0430001D02*
X0383172Y0430001D01*
X0383172Y0430591D02*
X0381400Y0430591D01*
X0381400Y0431181D02*
X0383172Y0431181D01*
X0383172Y0431771D02*
X0381400Y0431771D01*
X0381400Y0432361D02*
X0383172Y0432361D01*
X0383172Y0432951D02*
X0381400Y0432951D01*
X0381400Y0433541D02*
X0383172Y0433541D01*
X0383172Y0434131D02*
X0381400Y0434131D01*
X0381400Y0434721D02*
X0383172Y0434721D01*
X0383172Y0435311D02*
X0381400Y0435311D01*
X0378172Y0427641D02*
X0376400Y0427641D01*
X0376400Y0435711D01*
X0378172Y0435711D01*
X0378172Y0427641D01*
X0378172Y0428231D02*
X0376400Y0428231D01*
X0376400Y0428821D02*
X0378172Y0428821D01*
X0378172Y0429411D02*
X0376400Y0429411D01*
X0376400Y0430001D02*
X0378172Y0430001D01*
X0378172Y0430591D02*
X0376400Y0430591D01*
X0376400Y0431181D02*
X0378172Y0431181D01*
X0378172Y0431771D02*
X0376400Y0431771D01*
X0376400Y0432361D02*
X0378172Y0432361D01*
X0378172Y0432951D02*
X0376400Y0432951D01*
X0376400Y0433541D02*
X0378172Y0433541D01*
X0378172Y0434131D02*
X0376400Y0434131D01*
X0376400Y0434721D02*
X0378172Y0434721D01*
X0378172Y0435311D02*
X0376400Y0435311D01*
X0366834Y0434747D02*
X0366834Y0431007D01*
X0366834Y0434747D02*
X0370180Y0434747D01*
X0370180Y0431007D01*
X0366834Y0431007D01*
X0366834Y0431597D02*
X0370180Y0431597D01*
X0370180Y0432187D02*
X0366834Y0432187D01*
X0366834Y0432777D02*
X0370180Y0432777D01*
X0370180Y0433367D02*
X0366834Y0433367D01*
X0366834Y0433957D02*
X0370180Y0433957D01*
X0370180Y0434547D02*
X0366834Y0434547D01*
X0366834Y0428054D02*
X0366834Y0424314D01*
X0366834Y0428054D02*
X0370180Y0428054D01*
X0370180Y0424314D01*
X0366834Y0424314D01*
X0366834Y0424904D02*
X0370180Y0424904D01*
X0370180Y0425494D02*
X0366834Y0425494D01*
X0366834Y0426084D02*
X0370180Y0426084D01*
X0370180Y0426674D02*
X0366834Y0426674D01*
X0366834Y0427264D02*
X0370180Y0427264D01*
X0370180Y0427854D02*
X0366834Y0427854D01*
X0376400Y0448113D02*
X0378172Y0448113D01*
X0376400Y0448113D02*
X0376400Y0456183D01*
X0378172Y0456183D01*
X0378172Y0448113D01*
X0378172Y0448703D02*
X0376400Y0448703D01*
X0376400Y0449293D02*
X0378172Y0449293D01*
X0378172Y0449883D02*
X0376400Y0449883D01*
X0376400Y0450473D02*
X0378172Y0450473D01*
X0378172Y0451063D02*
X0376400Y0451063D01*
X0376400Y0451653D02*
X0378172Y0451653D01*
X0378172Y0452243D02*
X0376400Y0452243D01*
X0376400Y0452833D02*
X0378172Y0452833D01*
X0378172Y0453423D02*
X0376400Y0453423D01*
X0376400Y0454013D02*
X0378172Y0454013D01*
X0378172Y0454603D02*
X0376400Y0454603D01*
X0376400Y0455193D02*
X0378172Y0455193D01*
X0378172Y0455783D02*
X0376400Y0455783D01*
X0381400Y0448113D02*
X0383172Y0448113D01*
X0381400Y0448113D02*
X0381400Y0456183D01*
X0383172Y0456183D01*
X0383172Y0448113D01*
X0383172Y0448703D02*
X0381400Y0448703D01*
X0381400Y0449293D02*
X0383172Y0449293D01*
X0383172Y0449883D02*
X0381400Y0449883D01*
X0381400Y0450473D02*
X0383172Y0450473D01*
X0383172Y0451063D02*
X0381400Y0451063D01*
X0381400Y0451653D02*
X0383172Y0451653D01*
X0383172Y0452243D02*
X0381400Y0452243D01*
X0381400Y0452833D02*
X0383172Y0452833D01*
X0383172Y0453423D02*
X0381400Y0453423D01*
X0381400Y0454013D02*
X0383172Y0454013D01*
X0383172Y0454603D02*
X0381400Y0454603D01*
X0381400Y0455193D02*
X0383172Y0455193D01*
X0383172Y0455783D02*
X0381400Y0455783D01*
X0386400Y0448113D02*
X0388172Y0448113D01*
X0386400Y0448113D02*
X0386400Y0456183D01*
X0388172Y0456183D01*
X0388172Y0448113D01*
X0388172Y0448703D02*
X0386400Y0448703D01*
X0386400Y0449293D02*
X0388172Y0449293D01*
X0388172Y0449883D02*
X0386400Y0449883D01*
X0386400Y0450473D02*
X0388172Y0450473D01*
X0388172Y0451063D02*
X0386400Y0451063D01*
X0386400Y0451653D02*
X0388172Y0451653D01*
X0388172Y0452243D02*
X0386400Y0452243D01*
X0386400Y0452833D02*
X0388172Y0452833D01*
X0388172Y0453423D02*
X0386400Y0453423D01*
X0386400Y0454013D02*
X0388172Y0454013D01*
X0388172Y0454603D02*
X0386400Y0454603D01*
X0386400Y0455193D02*
X0388172Y0455193D01*
X0388172Y0455783D02*
X0386400Y0455783D01*
X0391400Y0448113D02*
X0393172Y0448113D01*
X0391400Y0448113D02*
X0391400Y0456183D01*
X0393172Y0456183D01*
X0393172Y0448113D01*
X0393172Y0448703D02*
X0391400Y0448703D01*
X0391400Y0449293D02*
X0393172Y0449293D01*
X0393172Y0449883D02*
X0391400Y0449883D01*
X0391400Y0450473D02*
X0393172Y0450473D01*
X0393172Y0451063D02*
X0391400Y0451063D01*
X0391400Y0451653D02*
X0393172Y0451653D01*
X0393172Y0452243D02*
X0391400Y0452243D01*
X0391400Y0452833D02*
X0393172Y0452833D01*
X0393172Y0453423D02*
X0391400Y0453423D01*
X0391400Y0454013D02*
X0393172Y0454013D01*
X0393172Y0454603D02*
X0391400Y0454603D01*
X0391400Y0455193D02*
X0393172Y0455193D01*
X0393172Y0455783D02*
X0391400Y0455783D01*
X0391440Y0465259D02*
X0387700Y0465259D01*
X0387700Y0468605D01*
X0391440Y0468605D01*
X0391440Y0465259D01*
X0391440Y0465849D02*
X0387700Y0465849D01*
X0387700Y0466439D02*
X0391440Y0466439D01*
X0391440Y0467029D02*
X0387700Y0467029D01*
X0387700Y0467619D02*
X0391440Y0467619D01*
X0391440Y0468209D02*
X0387700Y0468209D01*
X0384747Y0465259D02*
X0381007Y0465259D01*
X0381007Y0468605D01*
X0384747Y0468605D01*
X0384747Y0465259D01*
X0384747Y0465849D02*
X0381007Y0465849D01*
X0381007Y0466439D02*
X0384747Y0466439D01*
X0384747Y0467029D02*
X0381007Y0467029D01*
X0381007Y0467619D02*
X0384747Y0467619D01*
X0384747Y0468209D02*
X0381007Y0468209D01*
X0381007Y0473133D02*
X0384747Y0473133D01*
X0381007Y0473133D02*
X0381007Y0476479D01*
X0384747Y0476479D01*
X0384747Y0473133D01*
X0384747Y0473723D02*
X0381007Y0473723D01*
X0381007Y0474313D02*
X0384747Y0474313D01*
X0384747Y0474903D02*
X0381007Y0474903D01*
X0381007Y0475493D02*
X0384747Y0475493D01*
X0384747Y0476083D02*
X0381007Y0476083D01*
X0387700Y0473133D02*
X0391440Y0473133D01*
X0387700Y0473133D02*
X0387700Y0476479D01*
X0391440Y0476479D01*
X0391440Y0473133D01*
X0391440Y0473723D02*
X0387700Y0473723D01*
X0387700Y0474313D02*
X0391440Y0474313D01*
X0391440Y0474903D02*
X0387700Y0474903D01*
X0387700Y0475493D02*
X0391440Y0475493D01*
X0391440Y0476083D02*
X0387700Y0476083D01*
X0391400Y0427641D02*
X0393172Y0427641D01*
X0391400Y0427641D02*
X0391400Y0435711D01*
X0393172Y0435711D01*
X0393172Y0427641D01*
X0393172Y0428231D02*
X0391400Y0428231D01*
X0391400Y0428821D02*
X0393172Y0428821D01*
X0393172Y0429411D02*
X0391400Y0429411D01*
X0391400Y0430001D02*
X0393172Y0430001D01*
X0393172Y0430591D02*
X0391400Y0430591D01*
X0391400Y0431181D02*
X0393172Y0431181D01*
X0393172Y0431771D02*
X0391400Y0431771D01*
X0391400Y0432361D02*
X0393172Y0432361D01*
X0393172Y0432951D02*
X0391400Y0432951D01*
X0391400Y0433541D02*
X0393172Y0433541D01*
X0393172Y0434131D02*
X0391400Y0434131D01*
X0391400Y0434721D02*
X0393172Y0434721D01*
X0393172Y0435311D02*
X0391400Y0435311D01*
D11*
X0368231Y0438963D03*
X0368388Y0446121D03*
X0368388Y0474121D03*
X0368231Y0410963D03*
D12*
X0371924Y0371499D03*
X0361924Y0371499D03*
X0351924Y0371499D03*
X0341924Y0371499D03*
X0331924Y0371499D03*
X0321924Y0371499D03*
X0305948Y0371499D03*
X0295948Y0371499D03*
X0285948Y0371499D03*
X0275948Y0371499D03*
X0265948Y0371499D03*
X0255948Y0371499D03*
X0245948Y0371499D03*
X0235948Y0371499D03*
X0225948Y0371499D03*
X0215948Y0371499D03*
X0159333Y0356420D03*
X0149333Y0356420D03*
X0149333Y0346420D03*
X0149333Y0336420D03*
X0149333Y0326420D03*
X0149333Y0316420D03*
X0159333Y0316420D03*
X0159333Y0326420D03*
X0159333Y0336420D03*
X0159333Y0346420D03*
X0159333Y0306420D03*
X0149333Y0306420D03*
X0149333Y0296420D03*
X0149333Y0286420D03*
X0149333Y0276420D03*
X0149333Y0266420D03*
X0159333Y0266420D03*
X0159333Y0276420D03*
X0159333Y0286420D03*
X0159333Y0296420D03*
X0159294Y0246066D03*
X0149294Y0246066D03*
X0149294Y0236066D03*
X0159294Y0236066D03*
X0159294Y0226066D03*
X0149294Y0226066D03*
X0149294Y0216066D03*
X0159294Y0216066D03*
X0159294Y0206066D03*
X0149294Y0206066D03*
X0251892Y0201530D03*
X0261892Y0201530D03*
X0271892Y0201530D03*
X0281892Y0201530D03*
X0291892Y0201530D03*
X0301892Y0201530D03*
X0311892Y0201530D03*
X0321892Y0201530D03*
X0341892Y0201530D03*
X0351892Y0201530D03*
X0361892Y0201530D03*
X0371892Y0201530D03*
X0381892Y0201530D03*
X0391892Y0201530D03*
X0391924Y0371499D03*
X0381924Y0371499D03*
D13*
X0381892Y0381499D03*
X0391892Y0381499D03*
X0371892Y0381499D03*
X0361892Y0381499D03*
X0351892Y0381499D03*
X0341892Y0381499D03*
X0331892Y0381499D03*
X0321892Y0381499D03*
X0305892Y0381499D03*
X0295892Y0381499D03*
X0285892Y0381499D03*
X0275892Y0381499D03*
X0265892Y0381499D03*
X0255892Y0381499D03*
X0245892Y0381499D03*
X0235892Y0381499D03*
X0225892Y0381499D03*
X0215892Y0381499D03*
X0251892Y0191499D03*
X0261892Y0191499D03*
X0271892Y0191499D03*
X0281892Y0191499D03*
X0291892Y0191499D03*
X0301892Y0191499D03*
X0311892Y0191499D03*
X0321892Y0191499D03*
X0341892Y0191499D03*
X0351892Y0191499D03*
X0361892Y0191499D03*
X0371892Y0191499D03*
X0381892Y0191499D03*
X0391892Y0191499D03*
X0392444Y0281302D03*
X0392444Y0291302D03*
X0392444Y0301302D03*
X0402444Y0301302D03*
X0402444Y0291302D03*
X0402444Y0281302D03*
D14*
X0362601Y0350790D02*
X0362601Y0370822D01*
X0361924Y0371499D01*
X0358664Y0364759D02*
X0351924Y0371499D01*
X0358664Y0364759D02*
X0358664Y0350790D01*
X0325199Y0317325D01*
X0329136Y0317325D02*
X0362601Y0350790D01*
X0156148Y0246026D02*
X0153148Y0246026D01*
X0153030Y0236026D02*
X0156030Y0236026D01*
X0155873Y0226066D02*
X0152873Y0226066D01*
X0152833Y0215987D02*
X0155833Y0215987D01*
X0155794Y0206066D02*
X0152794Y0206066D01*
D15*
X0153244Y0203866D02*
X0151344Y0203866D01*
X0151344Y0208266D01*
X0153244Y0208266D01*
X0153244Y0203866D01*
X0153244Y0204465D02*
X0151344Y0204465D01*
X0151344Y0205064D02*
X0153244Y0205064D01*
X0153244Y0205663D02*
X0151344Y0205663D01*
X0151344Y0206262D02*
X0153244Y0206262D01*
X0153244Y0206861D02*
X0151344Y0206861D01*
X0151344Y0207460D02*
X0153244Y0207460D01*
X0153244Y0208059D02*
X0151344Y0208059D01*
X0155344Y0203866D02*
X0157244Y0203866D01*
X0155344Y0203866D02*
X0155344Y0208266D01*
X0157244Y0208266D01*
X0157244Y0203866D01*
X0157244Y0204465D02*
X0155344Y0204465D01*
X0155344Y0205064D02*
X0157244Y0205064D01*
X0157244Y0205663D02*
X0155344Y0205663D01*
X0155344Y0206262D02*
X0157244Y0206262D01*
X0157244Y0206861D02*
X0155344Y0206861D01*
X0155344Y0207460D02*
X0157244Y0207460D01*
X0157244Y0208059D02*
X0155344Y0208059D01*
X0155383Y0213787D02*
X0157283Y0213787D01*
X0155383Y0213787D02*
X0155383Y0218187D01*
X0157283Y0218187D01*
X0157283Y0213787D01*
X0157283Y0214386D02*
X0155383Y0214386D01*
X0155383Y0214985D02*
X0157283Y0214985D01*
X0157283Y0215584D02*
X0155383Y0215584D01*
X0155383Y0216183D02*
X0157283Y0216183D01*
X0157283Y0216782D02*
X0155383Y0216782D01*
X0155383Y0217381D02*
X0157283Y0217381D01*
X0157283Y0217980D02*
X0155383Y0217980D01*
X0153283Y0213787D02*
X0151383Y0213787D01*
X0151383Y0218187D01*
X0153283Y0218187D01*
X0153283Y0213787D01*
X0153283Y0214386D02*
X0151383Y0214386D01*
X0151383Y0214985D02*
X0153283Y0214985D01*
X0153283Y0215584D02*
X0151383Y0215584D01*
X0151383Y0216183D02*
X0153283Y0216183D01*
X0153283Y0216782D02*
X0151383Y0216782D01*
X0151383Y0217381D02*
X0153283Y0217381D01*
X0153283Y0217980D02*
X0151383Y0217980D01*
X0151423Y0223866D02*
X0153323Y0223866D01*
X0151423Y0223866D02*
X0151423Y0228266D01*
X0153323Y0228266D01*
X0153323Y0223866D01*
X0153323Y0224465D02*
X0151423Y0224465D01*
X0151423Y0225064D02*
X0153323Y0225064D01*
X0153323Y0225663D02*
X0151423Y0225663D01*
X0151423Y0226262D02*
X0153323Y0226262D01*
X0153323Y0226861D02*
X0151423Y0226861D01*
X0151423Y0227460D02*
X0153323Y0227460D01*
X0153323Y0228059D02*
X0151423Y0228059D01*
X0155423Y0223866D02*
X0157323Y0223866D01*
X0155423Y0223866D02*
X0155423Y0228266D01*
X0157323Y0228266D01*
X0157323Y0223866D01*
X0157323Y0224465D02*
X0155423Y0224465D01*
X0155423Y0225064D02*
X0157323Y0225064D01*
X0157323Y0225663D02*
X0155423Y0225663D01*
X0155423Y0226262D02*
X0157323Y0226262D01*
X0157323Y0226861D02*
X0155423Y0226861D01*
X0155423Y0227460D02*
X0157323Y0227460D01*
X0157323Y0228059D02*
X0155423Y0228059D01*
X0155580Y0233826D02*
X0157480Y0233826D01*
X0155580Y0233826D02*
X0155580Y0238226D01*
X0157480Y0238226D01*
X0157480Y0233826D01*
X0157480Y0234425D02*
X0155580Y0234425D01*
X0155580Y0235024D02*
X0157480Y0235024D01*
X0157480Y0235623D02*
X0155580Y0235623D01*
X0155580Y0236222D02*
X0157480Y0236222D01*
X0157480Y0236821D02*
X0155580Y0236821D01*
X0155580Y0237420D02*
X0157480Y0237420D01*
X0157480Y0238019D02*
X0155580Y0238019D01*
X0153480Y0233826D02*
X0151580Y0233826D01*
X0151580Y0238226D01*
X0153480Y0238226D01*
X0153480Y0233826D01*
X0153480Y0234425D02*
X0151580Y0234425D01*
X0151580Y0235024D02*
X0153480Y0235024D01*
X0153480Y0235623D02*
X0151580Y0235623D01*
X0151580Y0236222D02*
X0153480Y0236222D01*
X0153480Y0236821D02*
X0151580Y0236821D01*
X0151580Y0237420D02*
X0153480Y0237420D01*
X0153480Y0238019D02*
X0151580Y0238019D01*
X0151698Y0243826D02*
X0153598Y0243826D01*
X0151698Y0243826D02*
X0151698Y0248226D01*
X0153598Y0248226D01*
X0153598Y0243826D01*
X0153598Y0244425D02*
X0151698Y0244425D01*
X0151698Y0245024D02*
X0153598Y0245024D01*
X0153598Y0245623D02*
X0151698Y0245623D01*
X0151698Y0246222D02*
X0153598Y0246222D01*
X0153598Y0246821D02*
X0151698Y0246821D01*
X0151698Y0247420D02*
X0153598Y0247420D01*
X0153598Y0248019D02*
X0151698Y0248019D01*
X0155698Y0243826D02*
X0157598Y0243826D01*
X0155698Y0243826D02*
X0155698Y0248226D01*
X0157598Y0248226D01*
X0157598Y0243826D01*
X0157598Y0244425D02*
X0155698Y0244425D01*
X0155698Y0245024D02*
X0157598Y0245024D01*
X0157598Y0245623D02*
X0155698Y0245623D01*
X0155698Y0246222D02*
X0157598Y0246222D01*
X0157598Y0246821D02*
X0155698Y0246821D01*
X0155698Y0247420D02*
X0157598Y0247420D01*
X0157598Y0248019D02*
X0155698Y0248019D01*
X0139530Y0256302D02*
X0149333Y0266105D01*
X0149333Y0266420D01*
X0139530Y0256302D02*
X0114570Y0256302D01*
X0108664Y0262207D01*
X0108664Y0264176D01*
X0125199Y0264963D02*
X0125199Y0259451D01*
X0125199Y0264963D02*
X0134255Y0274018D01*
X0134255Y0275987D01*
X0130318Y0279924D01*
X0130318Y0283861D01*
X0132877Y0286420D01*
X0149333Y0286420D01*
X0145514Y0281459D02*
X0181538Y0281459D01*
X0188388Y0287798D01*
X0191341Y0279924D02*
X0193310Y0279924D01*
X0195278Y0277955D01*
X0229727Y0277955D01*
X0232680Y0275003D02*
X0188388Y0275003D01*
X0187404Y0275987D01*
X0183467Y0272050D02*
X0235633Y0272050D01*
X0226774Y0280908D02*
X0218900Y0280908D01*
X0206105Y0293703D01*
X0207089Y0297640D02*
X0191341Y0297640D01*
X0179530Y0285829D01*
X0171656Y0285829D01*
X0167719Y0289766D01*
X0167719Y0291735D01*
X0153861Y0301184D02*
X0186420Y0301577D01*
X0211026Y0301577D01*
X0257286Y0255318D01*
X0261223Y0255318D01*
X0261223Y0259255D02*
X0257286Y0259255D01*
X0210042Y0306499D01*
X0190357Y0306499D01*
X0167719Y0306499D01*
X0162798Y0311420D01*
X0154648Y0311420D01*
X0149648Y0306420D01*
X0149333Y0306420D01*
X0153861Y0301184D02*
X0149294Y0296932D01*
X0149333Y0296892D01*
X0149333Y0296420D01*
X0145514Y0281459D02*
X0144097Y0279924D01*
X0134255Y0279924D01*
X0136026Y0271459D02*
X0176971Y0271459D01*
X0196262Y0290751D01*
X0196262Y0293703D01*
X0211026Y0297640D02*
X0220869Y0287798D01*
X0232680Y0301577D02*
X0232680Y0321262D01*
X0228743Y0325199D02*
X0228743Y0307483D01*
X0224806Y0307483D02*
X0224806Y0317325D01*
X0220869Y0321262D02*
X0232680Y0333073D01*
X0232680Y0337010D02*
X0217916Y0323231D01*
X0217916Y0308467D01*
X0216932Y0307483D01*
X0220869Y0307483D02*
X0220869Y0321262D01*
X0235633Y0339176D02*
X0226774Y0348034D01*
X0226774Y0350790D01*
X0229924Y0349215D02*
X0229924Y0353940D01*
X0233073Y0350790D02*
X0241538Y0342325D01*
X0241538Y0302562D01*
X0261223Y0282877D01*
X0263192Y0282877D01*
X0264176Y0285829D02*
X0247444Y0302562D01*
X0247444Y0349806D01*
X0233467Y0363782D01*
X0223664Y0363782D01*
X0215948Y0371499D01*
X0220869Y0376381D02*
X0225892Y0381404D01*
X0225892Y0381499D01*
X0225892Y0371554D01*
X0225948Y0371499D01*
X0225948Y0371302D01*
X0230711Y0366538D01*
X0234648Y0366538D01*
X0250396Y0350790D01*
X0250396Y0303546D01*
X0284845Y0269097D01*
X0288782Y0269097D02*
X0253349Y0304530D01*
X0253349Y0354097D01*
X0235948Y0371499D01*
X0235948Y0381444D01*
X0235892Y0381499D01*
X0220869Y0376381D02*
X0211026Y0376381D01*
X0209058Y0374412D01*
X0209058Y0370475D01*
X0194294Y0355711D01*
X0203152Y0346853D02*
X0223231Y0346853D01*
X0223428Y0347050D01*
X0229924Y0349215D02*
X0238585Y0340554D01*
X0238585Y0302562D01*
X0261223Y0279924D01*
X0267129Y0279924D01*
X0272050Y0278940D02*
X0265160Y0285829D01*
X0264176Y0285829D01*
X0268113Y0293703D02*
X0291735Y0270081D01*
X0291735Y0260239D01*
X0306577Y0245396D01*
X0306577Y0244097D01*
X0310121Y0240554D01*
X0311420Y0240554D01*
X0333073Y0218900D01*
X0341932Y0210042D01*
X0344885Y0210042D01*
X0344885Y0207089D02*
X0340948Y0207089D01*
X0296656Y0251381D01*
X0280908Y0251381D01*
X0265160Y0267129D01*
X0257286Y0267129D01*
X0239570Y0284845D01*
X0239570Y0297640D01*
X0235633Y0301577D01*
X0235633Y0339176D01*
X0242522Y0346853D02*
X0236617Y0352759D01*
X0251184Y0364963D02*
X0251184Y0376790D01*
X0255892Y0381499D01*
X0265892Y0381499D02*
X0265892Y0381444D01*
X0255948Y0371499D01*
X0259255Y0368192D01*
X0259255Y0330121D01*
X0259255Y0320278D01*
X0262207Y0319294D02*
X0259255Y0316341D01*
X0262207Y0319294D02*
X0262207Y0333073D01*
X0262207Y0367759D01*
X0265948Y0371499D01*
X0265948Y0371554D01*
X0275892Y0381499D01*
X0285892Y0381499D02*
X0290751Y0376640D01*
X0290751Y0368507D01*
X0271066Y0348822D01*
X0271066Y0324215D01*
X0273034Y0322247D01*
X0273034Y0320278D01*
X0269097Y0320278D02*
X0269097Y0322247D01*
X0268113Y0323231D01*
X0268113Y0353664D01*
X0285948Y0371499D01*
X0295948Y0371499D02*
X0295948Y0370829D01*
X0295987Y0370790D01*
X0274018Y0348822D01*
X0274018Y0327168D01*
X0265160Y0320278D02*
X0265160Y0360711D01*
X0275948Y0371499D01*
X0265136Y0390160D02*
X0194294Y0390160D01*
X0190357Y0386223D01*
X0190357Y0325199D01*
X0186420Y0325199D02*
X0186420Y0386223D01*
X0193310Y0393113D01*
X0260042Y0393113D01*
X0265136Y0390160D02*
X0269085Y0393125D01*
X0266144Y0396066D02*
X0191341Y0396066D01*
X0182483Y0387207D01*
X0182483Y0323231D01*
X0190357Y0315357D01*
X0179530Y0315357D01*
X0173625Y0321262D01*
X0154491Y0321262D01*
X0149648Y0316420D01*
X0149333Y0316420D01*
X0142129Y0311420D02*
X0141144Y0311420D01*
X0130318Y0322247D01*
X0159333Y0316420D02*
X0159333Y0316026D01*
X0165278Y0316026D01*
X0169806Y0311499D01*
X0185357Y0311499D01*
X0205121Y0311420D01*
X0205121Y0315357D02*
X0190357Y0315357D01*
X0181696Y0318507D02*
X0178546Y0321656D01*
X0178546Y0389176D01*
X0188388Y0399018D01*
X0269097Y0399018D01*
X0272050Y0396066D01*
X0275987Y0396066D02*
X0270081Y0401971D01*
X0240554Y0401971D01*
X0240554Y0405908D02*
X0270081Y0405908D01*
X0275987Y0400003D01*
X0295672Y0400003D01*
X0315357Y0380318D01*
X0311420Y0375971D02*
X0311420Y0368507D01*
X0306499Y0363585D01*
X0306499Y0331105D01*
X0289766Y0314373D01*
X0290751Y0310436D02*
X0334058Y0353743D01*
X0334058Y0361617D01*
X0331105Y0364570D01*
X0321262Y0364570D01*
X0316735Y0368625D01*
X0316735Y0374530D01*
X0321892Y0378979D01*
X0321892Y0381499D01*
X0319449Y0386223D02*
X0317325Y0386223D01*
X0317325Y0482548D01*
X0384020Y0482548D01*
X0382121Y0480649D01*
X0380773Y0479302D01*
X0380773Y0478274D01*
X0380263Y0478274D01*
X0379211Y0477223D01*
X0379211Y0472389D01*
X0380263Y0471337D01*
X0380577Y0471337D01*
X0380577Y0470400D01*
X0380263Y0470400D01*
X0379211Y0469349D01*
X0379211Y0464515D01*
X0379986Y0463740D01*
X0379986Y0462042D01*
X0381333Y0460695D01*
X0384853Y0457175D01*
X0384786Y0457108D01*
X0383916Y0457979D01*
X0380657Y0457979D01*
X0379786Y0457108D01*
X0378916Y0457979D01*
X0375657Y0457979D01*
X0375182Y0457505D01*
X0370688Y0461999D01*
X0370688Y0470573D01*
X0370743Y0470596D01*
X0371913Y0471766D01*
X0372546Y0473294D01*
X0372546Y0474948D01*
X0371913Y0476476D01*
X0370743Y0477645D01*
X0369215Y0478278D01*
X0367561Y0478278D01*
X0366033Y0477645D01*
X0364864Y0476476D01*
X0364231Y0474948D01*
X0364231Y0473294D01*
X0364864Y0471766D01*
X0366033Y0470596D01*
X0366088Y0470573D01*
X0366088Y0460093D01*
X0367436Y0458746D01*
X0374605Y0451577D01*
X0374605Y0447578D01*
X0372285Y0447578D01*
X0371913Y0448476D01*
X0370743Y0449645D01*
X0369215Y0450278D01*
X0367561Y0450278D01*
X0366033Y0449645D01*
X0364864Y0448476D01*
X0364231Y0446948D01*
X0364231Y0445294D01*
X0364864Y0443766D01*
X0366033Y0442596D01*
X0366086Y0442575D01*
X0365876Y0442488D01*
X0364706Y0441318D01*
X0364073Y0439790D01*
X0364073Y0438136D01*
X0364706Y0436608D01*
X0365431Y0435883D01*
X0365038Y0435490D01*
X0365038Y0430263D01*
X0365928Y0429373D01*
X0365854Y0429330D01*
X0365557Y0429033D01*
X0365347Y0428670D01*
X0365238Y0428264D01*
X0365238Y0426484D01*
X0368207Y0426484D01*
X0368207Y0425884D01*
X0368807Y0425884D01*
X0368807Y0426484D01*
X0371775Y0426484D01*
X0371775Y0428264D01*
X0371666Y0428670D01*
X0371456Y0429033D01*
X0371159Y0429330D01*
X0371085Y0429373D01*
X0371088Y0429376D01*
X0374605Y0429376D01*
X0374605Y0427070D01*
X0374540Y0427006D01*
X0373740Y0427006D01*
X0372497Y0426491D01*
X0371775Y0425769D01*
X0371775Y0425884D01*
X0368807Y0425884D01*
X0368807Y0422718D01*
X0370390Y0422718D01*
X0370796Y0422827D01*
X0371031Y0422963D01*
X0371031Y0422952D01*
X0371546Y0421709D01*
X0372497Y0420758D01*
X0373700Y0420260D01*
X0368561Y0415121D01*
X0367404Y0415121D01*
X0365876Y0414488D01*
X0364706Y0413318D01*
X0364073Y0411790D01*
X0364073Y0410136D01*
X0364706Y0408608D01*
X0365876Y0407439D01*
X0367404Y0406806D01*
X0368560Y0406806D01*
X0367609Y0405855D01*
X0367094Y0404612D01*
X0367094Y0403267D01*
X0367609Y0402024D01*
X0368560Y0401073D01*
X0369803Y0400559D01*
X0371148Y0400559D01*
X0372390Y0401073D01*
X0373341Y0402024D01*
X0373856Y0403267D01*
X0373856Y0404612D01*
X0373341Y0405855D01*
X0372390Y0406806D01*
X0371148Y0407321D01*
X0370301Y0407321D01*
X0370586Y0407439D01*
X0371755Y0408608D01*
X0372388Y0410136D01*
X0372388Y0411790D01*
X0372197Y0412252D01*
X0378921Y0418976D01*
X0379420Y0417772D01*
X0380371Y0416821D01*
X0381614Y0416307D01*
X0382959Y0416307D01*
X0384201Y0416821D01*
X0385152Y0417772D01*
X0385667Y0419015D01*
X0385667Y0419816D01*
X0386007Y0420156D01*
X0387184Y0420156D01*
X0386779Y0419179D01*
X0386779Y0418378D01*
X0386088Y0417688D01*
X0386088Y0412147D01*
X0385806Y0411864D01*
X0385806Y0406252D01*
X0386862Y0405196D01*
X0389915Y0405196D01*
X0390409Y0405690D01*
X0390730Y0405505D01*
X0391138Y0405396D01*
X0391887Y0405396D01*
X0391887Y0408817D01*
X0392370Y0408817D01*
X0392370Y0405396D01*
X0393119Y0405396D01*
X0393527Y0405505D01*
X0393848Y0405690D01*
X0394342Y0405196D01*
X0397395Y0405196D01*
X0398451Y0406252D01*
X0398451Y0410401D01*
X0398707Y0410401D01*
X0399949Y0410916D01*
X0400900Y0411867D01*
X0401415Y0413110D01*
X0401415Y0414455D01*
X0400900Y0415697D01*
X0400179Y0416419D01*
X0400705Y0416419D01*
X0401110Y0416528D01*
X0401474Y0416738D01*
X0401771Y0417035D01*
X0401814Y0417109D01*
X0402704Y0416219D01*
X0407931Y0416219D01*
X0408983Y0417271D01*
X0408983Y0422105D01*
X0407931Y0423156D01*
X0407618Y0423156D01*
X0407618Y0423199D01*
X0405352Y0425465D01*
X0405352Y0426266D01*
X0404837Y0427508D01*
X0403886Y0428460D01*
X0402644Y0428974D01*
X0401299Y0428974D01*
X0400056Y0428460D01*
X0399105Y0427508D01*
X0398590Y0426266D01*
X0398590Y0424921D01*
X0399105Y0423678D01*
X0399827Y0422956D01*
X0398925Y0422956D01*
X0398925Y0419988D01*
X0398325Y0419988D01*
X0398325Y0422956D01*
X0396972Y0422956D01*
X0396972Y0423325D01*
X0393807Y0423325D01*
X0393807Y0423925D01*
X0396972Y0423925D01*
X0396972Y0425508D01*
X0396863Y0425914D01*
X0396653Y0426277D01*
X0396356Y0426574D01*
X0395992Y0426784D01*
X0395587Y0426893D01*
X0394964Y0426893D01*
X0394967Y0426897D01*
X0394967Y0436455D01*
X0394429Y0436993D01*
X0394429Y0440325D01*
X0393081Y0441673D01*
X0389586Y0445168D01*
X0389586Y0446988D01*
X0389967Y0447369D01*
X0389967Y0447404D01*
X0390124Y0447133D01*
X0390421Y0446836D01*
X0390784Y0446626D01*
X0391190Y0446518D01*
X0391996Y0446518D01*
X0392577Y0446518D01*
X0393382Y0446518D01*
X0393788Y0446626D01*
X0394151Y0446836D01*
X0394448Y0447133D01*
X0394658Y0447497D01*
X0394767Y0447903D01*
X0394767Y0451858D01*
X0392577Y0451858D01*
X0392577Y0452439D01*
X0394767Y0452439D01*
X0394767Y0456394D01*
X0394658Y0456799D01*
X0394448Y0457163D01*
X0394151Y0457460D01*
X0393788Y0457670D01*
X0393382Y0457779D01*
X0392577Y0457779D01*
X0392577Y0452439D01*
X0391996Y0452439D01*
X0391996Y0457779D01*
X0391190Y0457779D01*
X0390784Y0457670D01*
X0390421Y0457460D01*
X0390124Y0457163D01*
X0389967Y0456892D01*
X0389967Y0456927D01*
X0389586Y0457308D01*
X0389586Y0458947D01*
X0385070Y0463463D01*
X0385490Y0463463D01*
X0386380Y0464353D01*
X0386423Y0464279D01*
X0386720Y0463982D01*
X0387084Y0463772D01*
X0387489Y0463663D01*
X0389270Y0463663D01*
X0389270Y0466632D01*
X0389870Y0466632D01*
X0389870Y0467232D01*
X0393035Y0467232D01*
X0393035Y0468815D01*
X0392926Y0469221D01*
X0392716Y0469584D01*
X0392419Y0469882D01*
X0392055Y0470092D01*
X0391650Y0470200D01*
X0389870Y0470200D01*
X0389870Y0467232D01*
X0389270Y0467232D01*
X0389270Y0470200D01*
X0387489Y0470200D01*
X0387084Y0470092D01*
X0386720Y0469882D01*
X0386423Y0469584D01*
X0386380Y0469510D01*
X0385490Y0470400D01*
X0385177Y0470400D01*
X0385177Y0471337D01*
X0385490Y0471337D01*
X0386380Y0472227D01*
X0386423Y0472153D01*
X0386720Y0471856D01*
X0387084Y0471646D01*
X0387489Y0471537D01*
X0389270Y0471537D01*
X0389270Y0474506D01*
X0389870Y0474506D01*
X0389870Y0475106D01*
X0393035Y0475106D01*
X0393035Y0476689D01*
X0392926Y0477095D01*
X0392716Y0477459D01*
X0392419Y0477756D01*
X0392055Y0477966D01*
X0391650Y0478074D01*
X0389870Y0478074D01*
X0389870Y0475106D01*
X0389270Y0475106D01*
X0389270Y0478074D01*
X0387489Y0478074D01*
X0387084Y0477966D01*
X0386720Y0477756D01*
X0386423Y0477459D01*
X0386380Y0477384D01*
X0385871Y0477894D01*
X0386388Y0478411D01*
X0395053Y0478411D01*
X0394653Y0477447D01*
X0394653Y0476102D01*
X0395168Y0474859D01*
X0396119Y0473908D01*
X0397362Y0473393D01*
X0398707Y0473393D01*
X0399949Y0473908D01*
X0400900Y0474859D01*
X0400940Y0474953D01*
X0400999Y0474810D01*
X0401975Y0473834D01*
X0403250Y0473306D01*
X0404630Y0473306D01*
X0405904Y0473834D01*
X0406880Y0474810D01*
X0407408Y0476084D01*
X0407408Y0477464D01*
X0406880Y0478739D01*
X0405904Y0479715D01*
X0404630Y0480243D01*
X0403250Y0480243D01*
X0401975Y0479715D01*
X0400999Y0478739D01*
X0400940Y0478595D01*
X0400900Y0478690D01*
X0400334Y0479256D01*
X0400334Y0479695D01*
X0398366Y0481664D01*
X0397481Y0482548D01*
X0409714Y0482548D01*
X0409714Y0386223D01*
X0394336Y0386223D01*
X0392947Y0386799D01*
X0390838Y0386799D01*
X0389449Y0386223D01*
X0384336Y0386223D01*
X0382947Y0386799D01*
X0380838Y0386799D01*
X0379449Y0386223D01*
X0374336Y0386223D01*
X0372947Y0386799D01*
X0370838Y0386799D01*
X0369449Y0386223D01*
X0364336Y0386223D01*
X0362947Y0386799D01*
X0360838Y0386799D01*
X0359449Y0386223D01*
X0354336Y0386223D01*
X0352947Y0386799D01*
X0350838Y0386799D01*
X0349449Y0386223D01*
X0344336Y0386223D01*
X0342947Y0386799D01*
X0340838Y0386799D01*
X0339449Y0386223D01*
X0334336Y0386223D01*
X0332947Y0386799D01*
X0330838Y0386799D01*
X0329449Y0386223D01*
X0324336Y0386223D01*
X0322947Y0386799D01*
X0320838Y0386799D01*
X0319449Y0386223D01*
X0320521Y0386667D02*
X0317325Y0386667D01*
X0317325Y0387266D02*
X0409714Y0387266D01*
X0409714Y0387864D02*
X0317325Y0387864D01*
X0317325Y0388463D02*
X0409714Y0388463D01*
X0409714Y0389061D02*
X0317325Y0389061D01*
X0317325Y0389660D02*
X0409714Y0389660D01*
X0409714Y0390258D02*
X0317325Y0390258D01*
X0317325Y0390857D02*
X0385211Y0390857D01*
X0385551Y0390716D02*
X0386896Y0390716D01*
X0388138Y0391231D01*
X0389089Y0392182D01*
X0389604Y0393425D01*
X0389604Y0394226D01*
X0390492Y0395113D01*
X0390492Y0395536D01*
X0390971Y0396015D01*
X0390971Y0401627D01*
X0389915Y0402683D01*
X0389354Y0402683D01*
X0389144Y0402893D01*
X0388998Y0402893D01*
X0388884Y0402984D01*
X0388064Y0402893D01*
X0387239Y0402893D01*
X0387136Y0402790D01*
X0386991Y0402773D01*
X0386919Y0402683D01*
X0386862Y0402683D01*
X0385806Y0401627D01*
X0385806Y0401292D01*
X0385800Y0401286D01*
X0385806Y0401238D01*
X0385806Y0397478D01*
X0385551Y0397478D01*
X0384308Y0396963D01*
X0383357Y0396012D01*
X0382842Y0394770D01*
X0382842Y0393425D01*
X0383357Y0392182D01*
X0384308Y0391231D01*
X0385551Y0390716D01*
X0384083Y0391455D02*
X0317325Y0391455D01*
X0317325Y0392054D02*
X0383485Y0392054D01*
X0383162Y0392652D02*
X0317325Y0392652D01*
X0317325Y0393251D02*
X0324548Y0393251D01*
X0324633Y0393216D02*
X0325766Y0393216D01*
X0326814Y0393649D01*
X0327430Y0394266D01*
X0364308Y0394266D01*
X0364924Y0393649D01*
X0365971Y0393216D01*
X0367105Y0393216D01*
X0368152Y0393649D01*
X0368954Y0394451D01*
X0369388Y0395499D01*
X0369388Y0396633D01*
X0368954Y0397680D01*
X0368152Y0398482D01*
X0367105Y0398916D01*
X0365971Y0398916D01*
X0364924Y0398482D01*
X0364308Y0397866D01*
X0327430Y0397866D01*
X0326814Y0398482D01*
X0325766Y0398916D01*
X0324633Y0398916D01*
X0323585Y0398482D01*
X0322783Y0397680D01*
X0322349Y0396633D01*
X0322349Y0395499D01*
X0322783Y0394451D01*
X0323585Y0393649D01*
X0324633Y0393216D01*
X0325851Y0393251D02*
X0365886Y0393251D01*
X0367190Y0393251D02*
X0382914Y0393251D01*
X0382842Y0393849D02*
X0368352Y0393849D01*
X0368951Y0394448D02*
X0382842Y0394448D01*
X0382957Y0395046D02*
X0369201Y0395046D01*
X0369388Y0395645D02*
X0383205Y0395645D01*
X0383588Y0396243D02*
X0369388Y0396243D01*
X0369301Y0396842D02*
X0384186Y0396842D01*
X0385459Y0397440D02*
X0369053Y0397440D01*
X0368595Y0398039D02*
X0385806Y0398039D01*
X0385806Y0398637D02*
X0367777Y0398637D01*
X0365299Y0398637D02*
X0326438Y0398637D01*
X0327257Y0398039D02*
X0364481Y0398039D01*
X0366538Y0396066D02*
X0325199Y0396066D01*
X0323142Y0398039D02*
X0317325Y0398039D01*
X0317325Y0398637D02*
X0323961Y0398637D01*
X0322684Y0397440D02*
X0317325Y0397440D01*
X0317325Y0396842D02*
X0322436Y0396842D01*
X0322349Y0396243D02*
X0317325Y0396243D01*
X0317325Y0395645D02*
X0322349Y0395645D01*
X0322537Y0395046D02*
X0317325Y0395046D01*
X0317325Y0394448D02*
X0322787Y0394448D01*
X0323385Y0393849D02*
X0317325Y0393849D01*
X0317325Y0399236D02*
X0385806Y0399236D01*
X0385806Y0399834D02*
X0317325Y0399834D01*
X0317325Y0400433D02*
X0385806Y0400433D01*
X0385806Y0401031D02*
X0372289Y0401031D01*
X0372947Y0401630D02*
X0385809Y0401630D01*
X0386407Y0402228D02*
X0373426Y0402228D01*
X0373674Y0402827D02*
X0387173Y0402827D01*
X0389210Y0402827D02*
X0395047Y0402827D01*
X0395113Y0402893D02*
X0394903Y0402683D01*
X0394342Y0402683D01*
X0393286Y0401627D01*
X0393286Y0396015D01*
X0393766Y0395536D01*
X0393766Y0395113D01*
X0394653Y0394226D01*
X0394653Y0393425D01*
X0395168Y0392182D01*
X0396119Y0391231D01*
X0397362Y0390716D01*
X0398707Y0390716D01*
X0399949Y0391231D01*
X0400900Y0392182D01*
X0401415Y0393425D01*
X0401415Y0394770D01*
X0400900Y0396012D01*
X0399949Y0396963D01*
X0398707Y0397478D01*
X0398451Y0397478D01*
X0398451Y0401238D01*
X0398457Y0401286D01*
X0398451Y0401292D01*
X0398451Y0401627D01*
X0397395Y0402683D01*
X0397339Y0402683D01*
X0397266Y0402773D01*
X0397121Y0402790D01*
X0397018Y0402893D01*
X0396193Y0402893D01*
X0395373Y0402984D01*
X0395259Y0402893D01*
X0395113Y0402893D01*
X0393887Y0402228D02*
X0390370Y0402228D01*
X0390968Y0401630D02*
X0393289Y0401630D01*
X0393286Y0401031D02*
X0390971Y0401031D01*
X0390971Y0400433D02*
X0393286Y0400433D01*
X0393286Y0399834D02*
X0390971Y0399834D01*
X0390971Y0399236D02*
X0393286Y0399236D01*
X0393286Y0398637D02*
X0390971Y0398637D01*
X0390971Y0398039D02*
X0393286Y0398039D01*
X0393286Y0397440D02*
X0390971Y0397440D01*
X0390971Y0396842D02*
X0393286Y0396842D01*
X0393286Y0396243D02*
X0390971Y0396243D01*
X0390601Y0395645D02*
X0393656Y0395645D01*
X0393832Y0395046D02*
X0390425Y0395046D01*
X0389826Y0394448D02*
X0394431Y0394448D01*
X0394653Y0393849D02*
X0389604Y0393849D01*
X0389532Y0393251D02*
X0394725Y0393251D01*
X0394973Y0392652D02*
X0389284Y0392652D01*
X0388961Y0392054D02*
X0395296Y0392054D01*
X0395894Y0391455D02*
X0388363Y0391455D01*
X0387235Y0390857D02*
X0397022Y0390857D01*
X0399046Y0390857D02*
X0409714Y0390857D01*
X0409714Y0391455D02*
X0400174Y0391455D01*
X0400772Y0392054D02*
X0409714Y0392054D01*
X0409714Y0392652D02*
X0401095Y0392652D01*
X0401343Y0393251D02*
X0409714Y0393251D01*
X0409714Y0393849D02*
X0401415Y0393849D01*
X0401415Y0394448D02*
X0409714Y0394448D01*
X0409714Y0395046D02*
X0401301Y0395046D01*
X0401053Y0395645D02*
X0409714Y0395645D01*
X0409714Y0396243D02*
X0400669Y0396243D01*
X0400071Y0396842D02*
X0409714Y0396842D01*
X0409714Y0397440D02*
X0398798Y0397440D01*
X0398451Y0398039D02*
X0409714Y0398039D01*
X0409714Y0398637D02*
X0398451Y0398637D01*
X0398451Y0399236D02*
X0409714Y0399236D01*
X0409714Y0399834D02*
X0398451Y0399834D01*
X0398451Y0400433D02*
X0409714Y0400433D01*
X0409714Y0401031D02*
X0398451Y0401031D01*
X0398449Y0401630D02*
X0409714Y0401630D01*
X0409714Y0402228D02*
X0397850Y0402228D01*
X0397084Y0402827D02*
X0409714Y0402827D01*
X0409714Y0403425D02*
X0373856Y0403425D01*
X0373856Y0404024D02*
X0409714Y0404024D01*
X0409714Y0404623D02*
X0373852Y0404623D01*
X0373604Y0405221D02*
X0386837Y0405221D01*
X0386238Y0405820D02*
X0373356Y0405820D01*
X0372778Y0406418D02*
X0385806Y0406418D01*
X0385806Y0407017D02*
X0371882Y0407017D01*
X0370762Y0407615D02*
X0385806Y0407615D01*
X0385806Y0408214D02*
X0371361Y0408214D01*
X0371840Y0408812D02*
X0385806Y0408812D01*
X0385806Y0409411D02*
X0372088Y0409411D01*
X0372336Y0410009D02*
X0385806Y0410009D01*
X0385806Y0410608D02*
X0372388Y0410608D01*
X0372388Y0411206D02*
X0385806Y0411206D01*
X0385806Y0411805D02*
X0372382Y0411805D01*
X0372349Y0412403D02*
X0386088Y0412403D01*
X0386088Y0413002D02*
X0372947Y0413002D01*
X0373546Y0413600D02*
X0386088Y0413600D01*
X0386088Y0414199D02*
X0374144Y0414199D01*
X0374743Y0414797D02*
X0386088Y0414797D01*
X0386088Y0415396D02*
X0375341Y0415396D01*
X0375940Y0415994D02*
X0386088Y0415994D01*
X0386088Y0416593D02*
X0383649Y0416593D01*
X0384571Y0417191D02*
X0386088Y0417191D01*
X0386191Y0417790D02*
X0385160Y0417790D01*
X0385408Y0418388D02*
X0386779Y0418388D01*
X0386779Y0418987D02*
X0385655Y0418987D01*
X0385667Y0419585D02*
X0386947Y0419585D01*
X0390688Y0415125D02*
X0390833Y0415125D01*
X0392075Y0415640D01*
X0393026Y0416591D01*
X0393541Y0417834D01*
X0393541Y0419179D01*
X0393054Y0420356D01*
X0393207Y0420356D01*
X0393207Y0423325D01*
X0393807Y0423325D01*
X0393807Y0420356D01*
X0395159Y0420356D01*
X0395159Y0419988D01*
X0398325Y0419988D01*
X0398325Y0419388D01*
X0395159Y0419388D01*
X0395159Y0417804D01*
X0395268Y0417399D01*
X0395478Y0417035D01*
X0395775Y0416738D01*
X0396050Y0416579D01*
X0395168Y0415697D01*
X0394653Y0414455D01*
X0394653Y0413654D01*
X0393580Y0412581D01*
X0393527Y0412611D01*
X0393119Y0412720D01*
X0392370Y0412720D01*
X0392370Y0409300D01*
X0391887Y0409300D01*
X0391887Y0412720D01*
X0391138Y0412720D01*
X0390730Y0412611D01*
X0390688Y0412587D01*
X0390688Y0415125D01*
X0390688Y0414797D02*
X0394795Y0414797D01*
X0394653Y0414199D02*
X0390688Y0414199D01*
X0390688Y0413600D02*
X0394599Y0413600D01*
X0394001Y0413002D02*
X0390688Y0413002D01*
X0391887Y0412403D02*
X0392370Y0412403D01*
X0392370Y0411805D02*
X0391887Y0411805D01*
X0391887Y0411206D02*
X0392370Y0411206D01*
X0392370Y0410608D02*
X0391887Y0410608D01*
X0391887Y0410009D02*
X0392370Y0410009D01*
X0392370Y0409411D02*
X0391887Y0409411D01*
X0391887Y0408812D02*
X0392370Y0408812D01*
X0392370Y0408214D02*
X0391887Y0408214D01*
X0391887Y0407615D02*
X0392370Y0407615D01*
X0392370Y0407017D02*
X0391887Y0407017D01*
X0391887Y0406418D02*
X0392370Y0406418D01*
X0392370Y0405820D02*
X0391887Y0405820D01*
X0389940Y0405221D02*
X0394317Y0405221D01*
X0397420Y0405221D02*
X0409714Y0405221D01*
X0409714Y0405820D02*
X0398019Y0405820D01*
X0398451Y0406418D02*
X0409714Y0406418D01*
X0409714Y0407017D02*
X0398451Y0407017D01*
X0398451Y0407615D02*
X0409714Y0407615D01*
X0409714Y0408214D02*
X0398451Y0408214D01*
X0398451Y0408812D02*
X0409714Y0408812D01*
X0409714Y0409411D02*
X0398451Y0409411D01*
X0398451Y0410009D02*
X0409714Y0410009D01*
X0409714Y0410608D02*
X0399205Y0410608D01*
X0400240Y0411206D02*
X0409714Y0411206D01*
X0409714Y0411805D02*
X0400838Y0411805D01*
X0401123Y0412403D02*
X0409714Y0412403D01*
X0409714Y0413002D02*
X0401370Y0413002D01*
X0401415Y0413600D02*
X0409714Y0413600D01*
X0409714Y0414199D02*
X0401415Y0414199D01*
X0401273Y0414797D02*
X0409714Y0414797D01*
X0409714Y0415396D02*
X0401025Y0415396D01*
X0400604Y0415994D02*
X0409714Y0415994D01*
X0409714Y0416593D02*
X0408305Y0416593D01*
X0408903Y0417191D02*
X0409714Y0417191D01*
X0409714Y0417790D02*
X0408983Y0417790D01*
X0408983Y0418388D02*
X0409714Y0418388D01*
X0409714Y0418987D02*
X0408983Y0418987D01*
X0408983Y0419585D02*
X0409714Y0419585D01*
X0409714Y0420184D02*
X0408983Y0420184D01*
X0408983Y0420782D02*
X0409714Y0420782D01*
X0409714Y0421381D02*
X0408983Y0421381D01*
X0408983Y0421979D02*
X0409714Y0421979D01*
X0409714Y0422578D02*
X0408510Y0422578D01*
X0407618Y0423176D02*
X0409714Y0423176D01*
X0409714Y0423775D02*
X0407042Y0423775D01*
X0406444Y0424373D02*
X0409714Y0424373D01*
X0409714Y0424972D02*
X0405845Y0424972D01*
X0405352Y0425570D02*
X0409714Y0425570D01*
X0409714Y0426169D02*
X0405352Y0426169D01*
X0405144Y0426767D02*
X0409714Y0426767D01*
X0409714Y0427366D02*
X0404896Y0427366D01*
X0404381Y0427964D02*
X0409714Y0427964D01*
X0409714Y0428563D02*
X0403637Y0428563D01*
X0400306Y0428563D02*
X0394967Y0428563D01*
X0394967Y0429161D02*
X0409714Y0429161D01*
X0409714Y0429760D02*
X0394967Y0429760D01*
X0394967Y0430358D02*
X0409714Y0430358D01*
X0409714Y0430957D02*
X0394967Y0430957D01*
X0394967Y0431556D02*
X0409714Y0431556D01*
X0409714Y0432154D02*
X0394967Y0432154D01*
X0394967Y0432753D02*
X0409714Y0432753D01*
X0409714Y0433351D02*
X0394967Y0433351D01*
X0394967Y0433950D02*
X0409714Y0433950D01*
X0409714Y0434548D02*
X0394967Y0434548D01*
X0394967Y0435147D02*
X0409714Y0435147D01*
X0409714Y0435745D02*
X0394967Y0435745D01*
X0394967Y0436344D02*
X0409714Y0436344D01*
X0409714Y0436942D02*
X0394480Y0436942D01*
X0394429Y0437541D02*
X0409714Y0437541D01*
X0409714Y0438139D02*
X0394429Y0438139D01*
X0394429Y0438738D02*
X0409714Y0438738D01*
X0409714Y0439336D02*
X0394429Y0439336D01*
X0394429Y0439935D02*
X0409714Y0439935D01*
X0409714Y0440533D02*
X0394221Y0440533D01*
X0393622Y0441132D02*
X0409714Y0441132D01*
X0409714Y0441730D02*
X0393024Y0441730D01*
X0392425Y0442329D02*
X0409714Y0442329D01*
X0409714Y0442927D02*
X0391827Y0442927D01*
X0391228Y0443526D02*
X0409714Y0443526D01*
X0409714Y0444124D02*
X0390630Y0444124D01*
X0390031Y0444723D02*
X0409714Y0444723D01*
X0409714Y0445321D02*
X0389586Y0445321D01*
X0389586Y0445920D02*
X0409714Y0445920D01*
X0409714Y0446518D02*
X0393385Y0446518D01*
X0392577Y0446518D02*
X0392577Y0451858D01*
X0391996Y0451858D01*
X0391996Y0446518D01*
X0391996Y0447117D02*
X0392577Y0447117D01*
X0392577Y0447715D02*
X0391996Y0447715D01*
X0391996Y0448314D02*
X0392577Y0448314D01*
X0392577Y0448912D02*
X0391996Y0448912D01*
X0391996Y0449511D02*
X0392577Y0449511D01*
X0392577Y0450109D02*
X0391996Y0450109D01*
X0391996Y0450708D02*
X0392577Y0450708D01*
X0392577Y0451306D02*
X0391996Y0451306D01*
X0392577Y0451905D02*
X0409714Y0451905D01*
X0409714Y0452503D02*
X0394767Y0452503D01*
X0394767Y0453102D02*
X0409714Y0453102D01*
X0409714Y0453700D02*
X0394767Y0453700D01*
X0394767Y0454299D02*
X0409714Y0454299D01*
X0409714Y0454897D02*
X0394767Y0454897D01*
X0394767Y0455496D02*
X0409714Y0455496D01*
X0409714Y0456094D02*
X0394767Y0456094D01*
X0394687Y0456693D02*
X0409714Y0456693D01*
X0409714Y0457291D02*
X0394320Y0457291D01*
X0392577Y0457291D02*
X0391996Y0457291D01*
X0391996Y0456693D02*
X0392577Y0456693D01*
X0392577Y0456094D02*
X0391996Y0456094D01*
X0391996Y0455496D02*
X0392577Y0455496D01*
X0392577Y0454897D02*
X0391996Y0454897D01*
X0391996Y0454299D02*
X0392577Y0454299D01*
X0392577Y0453700D02*
X0391996Y0453700D01*
X0391996Y0453102D02*
X0392577Y0453102D01*
X0392577Y0452503D02*
X0391996Y0452503D01*
X0394767Y0451306D02*
X0409714Y0451306D01*
X0409714Y0450708D02*
X0394767Y0450708D01*
X0394767Y0450109D02*
X0409714Y0450109D01*
X0409714Y0449511D02*
X0394767Y0449511D01*
X0394767Y0448912D02*
X0409714Y0448912D01*
X0409714Y0448314D02*
X0394767Y0448314D01*
X0394717Y0447715D02*
X0409714Y0447715D01*
X0409714Y0447117D02*
X0394432Y0447117D01*
X0391188Y0446518D02*
X0389586Y0446518D01*
X0389715Y0447117D02*
X0390140Y0447117D01*
X0390252Y0457291D02*
X0389603Y0457291D01*
X0389586Y0457890D02*
X0409714Y0457890D01*
X0409714Y0458489D02*
X0389586Y0458489D01*
X0389446Y0459087D02*
X0409714Y0459087D01*
X0409714Y0459686D02*
X0388848Y0459686D01*
X0388249Y0460284D02*
X0409714Y0460284D01*
X0409714Y0460883D02*
X0387651Y0460883D01*
X0387052Y0461481D02*
X0409714Y0461481D01*
X0409714Y0462080D02*
X0386454Y0462080D01*
X0385855Y0462678D02*
X0409714Y0462678D01*
X0409714Y0463277D02*
X0385257Y0463277D01*
X0385902Y0463875D02*
X0386905Y0463875D01*
X0389270Y0463875D02*
X0389870Y0463875D01*
X0389870Y0463663D02*
X0391650Y0463663D01*
X0392055Y0463772D01*
X0392419Y0463982D01*
X0392716Y0464279D01*
X0392926Y0464643D01*
X0393035Y0465048D01*
X0393035Y0466632D01*
X0389870Y0466632D01*
X0389870Y0463663D01*
X0389870Y0464474D02*
X0389270Y0464474D01*
X0389270Y0465072D02*
X0389870Y0465072D01*
X0389870Y0465671D02*
X0389270Y0465671D01*
X0389270Y0466269D02*
X0389870Y0466269D01*
X0389870Y0466868D02*
X0409714Y0466868D01*
X0409714Y0467466D02*
X0393035Y0467466D01*
X0393035Y0468065D02*
X0409714Y0468065D01*
X0409714Y0468663D02*
X0393035Y0468663D01*
X0392903Y0469262D02*
X0409714Y0469262D01*
X0409714Y0469860D02*
X0392440Y0469860D01*
X0392055Y0471646D02*
X0392419Y0471856D01*
X0392716Y0472153D01*
X0392926Y0472517D01*
X0393035Y0472923D01*
X0393035Y0474506D01*
X0389870Y0474506D01*
X0389870Y0471537D01*
X0391650Y0471537D01*
X0392055Y0471646D01*
X0392072Y0471656D02*
X0409714Y0471656D01*
X0409714Y0472254D02*
X0392775Y0472254D01*
X0393016Y0472853D02*
X0409714Y0472853D01*
X0409714Y0473451D02*
X0404981Y0473451D01*
X0406120Y0474050D02*
X0409714Y0474050D01*
X0409714Y0474648D02*
X0406719Y0474648D01*
X0407061Y0475247D02*
X0409714Y0475247D01*
X0409714Y0475845D02*
X0407309Y0475845D01*
X0407408Y0476444D02*
X0409714Y0476444D01*
X0409714Y0477042D02*
X0407408Y0477042D01*
X0407335Y0477641D02*
X0409714Y0477641D01*
X0409714Y0478239D02*
X0407087Y0478239D01*
X0406781Y0478838D02*
X0409714Y0478838D01*
X0409714Y0479436D02*
X0406183Y0479436D01*
X0405131Y0480035D02*
X0409714Y0480035D01*
X0409714Y0480633D02*
X0399396Y0480633D01*
X0399995Y0480035D02*
X0402748Y0480035D01*
X0401697Y0479436D02*
X0400334Y0479436D01*
X0400752Y0478838D02*
X0401098Y0478838D01*
X0398798Y0481232D02*
X0409714Y0481232D01*
X0409714Y0481830D02*
X0398199Y0481830D01*
X0397601Y0482429D02*
X0409714Y0482429D01*
X0402898Y0473451D02*
X0398847Y0473451D01*
X0400091Y0474050D02*
X0401759Y0474050D01*
X0401160Y0474648D02*
X0400690Y0474648D01*
X0397221Y0473451D02*
X0393035Y0473451D01*
X0393035Y0474050D02*
X0395977Y0474050D01*
X0395378Y0474648D02*
X0389870Y0474648D01*
X0389870Y0474050D02*
X0389270Y0474050D01*
X0389270Y0473451D02*
X0389870Y0473451D01*
X0389870Y0472853D02*
X0389270Y0472853D01*
X0389270Y0472254D02*
X0389870Y0472254D01*
X0389870Y0471656D02*
X0389270Y0471656D01*
X0389270Y0469860D02*
X0389870Y0469860D01*
X0389870Y0469262D02*
X0389270Y0469262D01*
X0389270Y0468663D02*
X0389870Y0468663D01*
X0389870Y0468065D02*
X0389270Y0468065D01*
X0389270Y0467466D02*
X0389870Y0467466D01*
X0393035Y0466269D02*
X0409714Y0466269D01*
X0409714Y0465671D02*
X0393035Y0465671D01*
X0393035Y0465072D02*
X0409714Y0465072D01*
X0409714Y0464474D02*
X0392829Y0464474D01*
X0392234Y0463875D02*
X0409714Y0463875D01*
X0409714Y0470459D02*
X0385177Y0470459D01*
X0385177Y0471057D02*
X0409714Y0471057D01*
X0395007Y0475247D02*
X0393035Y0475247D01*
X0393035Y0475845D02*
X0394759Y0475845D01*
X0394653Y0476444D02*
X0393035Y0476444D01*
X0392940Y0477042D02*
X0394653Y0477042D01*
X0394733Y0477641D02*
X0392534Y0477641D01*
X0394981Y0478239D02*
X0386216Y0478239D01*
X0386124Y0477641D02*
X0386605Y0477641D01*
X0389270Y0477641D02*
X0389870Y0477641D01*
X0389870Y0477042D02*
X0389270Y0477042D01*
X0389270Y0476444D02*
X0389870Y0476444D01*
X0389870Y0475845D02*
X0389270Y0475845D01*
X0389270Y0475247D02*
X0389870Y0475247D01*
X0387067Y0471656D02*
X0385809Y0471656D01*
X0386030Y0469860D02*
X0386699Y0469860D01*
X0380577Y0470459D02*
X0370688Y0470459D01*
X0370688Y0469860D02*
X0379723Y0469860D01*
X0379211Y0469262D02*
X0370688Y0469262D01*
X0370688Y0468663D02*
X0379211Y0468663D01*
X0379211Y0468065D02*
X0370688Y0468065D01*
X0370688Y0467466D02*
X0379211Y0467466D01*
X0379211Y0466868D02*
X0370688Y0466868D01*
X0370688Y0466269D02*
X0379211Y0466269D01*
X0379211Y0465671D02*
X0370688Y0465671D01*
X0370688Y0465072D02*
X0379211Y0465072D01*
X0379253Y0464474D02*
X0370688Y0464474D01*
X0370688Y0463875D02*
X0379851Y0463875D01*
X0379986Y0463277D02*
X0370688Y0463277D01*
X0370688Y0462678D02*
X0379986Y0462678D01*
X0379986Y0462080D02*
X0370688Y0462080D01*
X0371206Y0461481D02*
X0380547Y0461481D01*
X0381146Y0460883D02*
X0371804Y0460883D01*
X0372403Y0460284D02*
X0381744Y0460284D01*
X0382343Y0459686D02*
X0373002Y0459686D01*
X0373600Y0459087D02*
X0382941Y0459087D01*
X0383540Y0458489D02*
X0374199Y0458489D01*
X0374797Y0457890D02*
X0375568Y0457890D01*
X0379005Y0457890D02*
X0380568Y0457890D01*
X0379969Y0457291D02*
X0379603Y0457291D01*
X0384005Y0457890D02*
X0384138Y0457890D01*
X0384603Y0457291D02*
X0384737Y0457291D01*
X0374277Y0451905D02*
X0317325Y0451905D01*
X0317325Y0452503D02*
X0373678Y0452503D01*
X0373080Y0453102D02*
X0317325Y0453102D01*
X0317325Y0453700D02*
X0372481Y0453700D01*
X0371883Y0454299D02*
X0317325Y0454299D01*
X0317325Y0454897D02*
X0371284Y0454897D01*
X0370686Y0455496D02*
X0317325Y0455496D01*
X0317325Y0456094D02*
X0370087Y0456094D01*
X0369489Y0456693D02*
X0317325Y0456693D01*
X0317325Y0457291D02*
X0368890Y0457291D01*
X0368292Y0457890D02*
X0317325Y0457890D01*
X0317325Y0458489D02*
X0367693Y0458489D01*
X0367095Y0459087D02*
X0317325Y0459087D01*
X0317325Y0459686D02*
X0366496Y0459686D01*
X0366088Y0460284D02*
X0317325Y0460284D01*
X0317325Y0460883D02*
X0366088Y0460883D01*
X0366088Y0461481D02*
X0317325Y0461481D01*
X0317325Y0462080D02*
X0366088Y0462080D01*
X0366088Y0462678D02*
X0317325Y0462678D01*
X0317325Y0463277D02*
X0366088Y0463277D01*
X0366088Y0463875D02*
X0317325Y0463875D01*
X0317325Y0464474D02*
X0366088Y0464474D01*
X0366088Y0465072D02*
X0317325Y0465072D01*
X0317325Y0465671D02*
X0366088Y0465671D01*
X0366088Y0466269D02*
X0317325Y0466269D01*
X0317325Y0466868D02*
X0366088Y0466868D01*
X0366088Y0467466D02*
X0317325Y0467466D01*
X0317325Y0468065D02*
X0366088Y0468065D01*
X0366088Y0468663D02*
X0317325Y0468663D01*
X0317325Y0469262D02*
X0366088Y0469262D01*
X0366088Y0469860D02*
X0317325Y0469860D01*
X0317325Y0470459D02*
X0366088Y0470459D01*
X0365572Y0471057D02*
X0317325Y0471057D01*
X0317325Y0471656D02*
X0364974Y0471656D01*
X0364662Y0472254D02*
X0317325Y0472254D01*
X0317325Y0472853D02*
X0364414Y0472853D01*
X0364231Y0473451D02*
X0317325Y0473451D01*
X0317325Y0474050D02*
X0364231Y0474050D01*
X0364231Y0474648D02*
X0317325Y0474648D01*
X0317325Y0475247D02*
X0364355Y0475247D01*
X0364603Y0475845D02*
X0317325Y0475845D01*
X0317325Y0476444D02*
X0364851Y0476444D01*
X0365431Y0477042D02*
X0317325Y0477042D01*
X0317325Y0477641D02*
X0366029Y0477641D01*
X0367468Y0478239D02*
X0317325Y0478239D01*
X0317325Y0478838D02*
X0380773Y0478838D01*
X0380908Y0479436D02*
X0317325Y0479436D01*
X0317325Y0480035D02*
X0381507Y0480035D01*
X0382105Y0480633D02*
X0317325Y0480633D01*
X0317325Y0481232D02*
X0382704Y0481232D01*
X0383302Y0481830D02*
X0317325Y0481830D01*
X0317325Y0482429D02*
X0383901Y0482429D01*
X0380228Y0478239D02*
X0369309Y0478239D01*
X0370748Y0477641D02*
X0379630Y0477641D01*
X0379211Y0477042D02*
X0371346Y0477042D01*
X0371926Y0476444D02*
X0379211Y0476444D01*
X0379211Y0475845D02*
X0372174Y0475845D01*
X0372422Y0475247D02*
X0379211Y0475247D01*
X0379211Y0474648D02*
X0372546Y0474648D01*
X0372546Y0474050D02*
X0379211Y0474050D01*
X0379211Y0473451D02*
X0372546Y0473451D01*
X0372363Y0472853D02*
X0379211Y0472853D01*
X0379346Y0472254D02*
X0372115Y0472254D01*
X0371803Y0471656D02*
X0379944Y0471656D01*
X0380577Y0471057D02*
X0371205Y0471057D01*
X0374605Y0451306D02*
X0317325Y0451306D01*
X0317325Y0450708D02*
X0374605Y0450708D01*
X0374605Y0450109D02*
X0369623Y0450109D01*
X0370878Y0449511D02*
X0374605Y0449511D01*
X0374605Y0448912D02*
X0371476Y0448912D01*
X0371980Y0448314D02*
X0374605Y0448314D01*
X0374605Y0447715D02*
X0372228Y0447715D01*
X0367154Y0450109D02*
X0317325Y0450109D01*
X0317325Y0449511D02*
X0365899Y0449511D01*
X0365300Y0448912D02*
X0317325Y0448912D01*
X0317325Y0448314D02*
X0364797Y0448314D01*
X0364549Y0447715D02*
X0317325Y0447715D01*
X0317325Y0447117D02*
X0364301Y0447117D01*
X0364231Y0446518D02*
X0317325Y0446518D01*
X0317325Y0445920D02*
X0364231Y0445920D01*
X0364231Y0445321D02*
X0317325Y0445321D01*
X0317325Y0444723D02*
X0364467Y0444723D01*
X0364715Y0444124D02*
X0317325Y0444124D01*
X0317325Y0443526D02*
X0365104Y0443526D01*
X0365702Y0442927D02*
X0317325Y0442927D01*
X0317325Y0442329D02*
X0365717Y0442329D01*
X0365118Y0441730D02*
X0317325Y0441730D01*
X0317325Y0441132D02*
X0364629Y0441132D01*
X0364381Y0440533D02*
X0317325Y0440533D01*
X0317325Y0439935D02*
X0364133Y0439935D01*
X0364073Y0439336D02*
X0317325Y0439336D01*
X0317325Y0438738D02*
X0364073Y0438738D01*
X0364073Y0438139D02*
X0317325Y0438139D01*
X0317325Y0437541D02*
X0364320Y0437541D01*
X0364568Y0436942D02*
X0317325Y0436942D01*
X0317325Y0436344D02*
X0364971Y0436344D01*
X0365293Y0435745D02*
X0317325Y0435745D01*
X0317325Y0435147D02*
X0365038Y0435147D01*
X0365038Y0434548D02*
X0317325Y0434548D01*
X0317325Y0433950D02*
X0365038Y0433950D01*
X0365038Y0433351D02*
X0317325Y0433351D01*
X0317325Y0432753D02*
X0365038Y0432753D01*
X0365038Y0432154D02*
X0317325Y0432154D01*
X0317325Y0431556D02*
X0365038Y0431556D01*
X0365038Y0430957D02*
X0317325Y0430957D01*
X0317325Y0430358D02*
X0365038Y0430358D01*
X0365541Y0429760D02*
X0317325Y0429760D01*
X0317325Y0429161D02*
X0365685Y0429161D01*
X0365318Y0428563D02*
X0317325Y0428563D01*
X0317325Y0427964D02*
X0365238Y0427964D01*
X0365238Y0427366D02*
X0317325Y0427366D01*
X0317325Y0426767D02*
X0365238Y0426767D01*
X0365238Y0425884D02*
X0365238Y0424104D01*
X0365347Y0423698D01*
X0365557Y0423334D01*
X0365854Y0423037D01*
X0366218Y0422827D01*
X0366623Y0422718D01*
X0368207Y0422718D01*
X0368207Y0425884D01*
X0365238Y0425884D01*
X0365238Y0425570D02*
X0317325Y0425570D01*
X0317325Y0424972D02*
X0365238Y0424972D01*
X0365238Y0424373D02*
X0317325Y0424373D01*
X0317325Y0423775D02*
X0365326Y0423775D01*
X0365715Y0423176D02*
X0317325Y0423176D01*
X0317325Y0422578D02*
X0371186Y0422578D01*
X0371434Y0421979D02*
X0317325Y0421979D01*
X0317325Y0421381D02*
X0371874Y0421381D01*
X0372473Y0420782D02*
X0332545Y0420782D01*
X0333020Y0420586D02*
X0331778Y0421100D01*
X0330432Y0421100D01*
X0329190Y0420586D01*
X0328239Y0419634D01*
X0327724Y0418392D01*
X0327724Y0417047D01*
X0328239Y0415804D01*
X0329190Y0414853D01*
X0330432Y0414338D01*
X0331778Y0414338D01*
X0333020Y0414853D01*
X0333971Y0415804D01*
X0334486Y0417047D01*
X0334486Y0418392D01*
X0333971Y0419634D01*
X0333020Y0420586D01*
X0333422Y0420184D02*
X0373624Y0420184D01*
X0373026Y0419585D02*
X0333992Y0419585D01*
X0334240Y0418987D02*
X0372427Y0418987D01*
X0371829Y0418388D02*
X0334486Y0418388D01*
X0334486Y0417790D02*
X0371230Y0417790D01*
X0370631Y0417191D02*
X0334486Y0417191D01*
X0334298Y0416593D02*
X0370033Y0416593D01*
X0369434Y0415994D02*
X0334050Y0415994D01*
X0333563Y0415396D02*
X0368836Y0415396D01*
X0366623Y0414797D02*
X0332886Y0414797D01*
X0329324Y0414797D02*
X0317325Y0414797D01*
X0317325Y0414199D02*
X0365587Y0414199D01*
X0364988Y0413600D02*
X0317325Y0413600D01*
X0317325Y0413002D02*
X0364575Y0413002D01*
X0364327Y0412403D02*
X0317325Y0412403D01*
X0317325Y0411805D02*
X0364079Y0411805D01*
X0364073Y0411206D02*
X0317325Y0411206D01*
X0317325Y0410608D02*
X0364073Y0410608D01*
X0364126Y0410009D02*
X0317325Y0410009D01*
X0317325Y0409411D02*
X0364374Y0409411D01*
X0364622Y0408812D02*
X0317325Y0408812D01*
X0317325Y0408214D02*
X0365101Y0408214D01*
X0365700Y0407615D02*
X0317325Y0407615D01*
X0317325Y0407017D02*
X0366895Y0407017D01*
X0367594Y0405820D02*
X0317325Y0405820D01*
X0317325Y0406418D02*
X0368172Y0406418D01*
X0367346Y0405221D02*
X0317325Y0405221D01*
X0317325Y0404623D02*
X0367098Y0404623D01*
X0367094Y0404024D02*
X0317325Y0404024D01*
X0317325Y0403425D02*
X0367094Y0403425D01*
X0367276Y0402827D02*
X0317325Y0402827D01*
X0317325Y0402228D02*
X0367524Y0402228D01*
X0368003Y0401630D02*
X0317325Y0401630D01*
X0317325Y0401031D02*
X0368661Y0401031D01*
X0364724Y0393849D02*
X0327014Y0393849D01*
X0330521Y0386667D02*
X0323264Y0386667D01*
X0333264Y0386667D02*
X0340521Y0386667D01*
X0343264Y0386667D02*
X0350521Y0386667D01*
X0353264Y0386667D02*
X0360521Y0386667D01*
X0363264Y0386667D02*
X0370521Y0386667D01*
X0373264Y0386667D02*
X0380521Y0386667D01*
X0383264Y0386667D02*
X0390521Y0386667D01*
X0393264Y0386667D02*
X0409714Y0386667D01*
X0391924Y0371499D02*
X0391924Y0368302D01*
X0350790Y0327168D01*
X0340948Y0317325D01*
X0337010Y0317325D02*
X0350790Y0331105D01*
X0381924Y0362239D01*
X0381924Y0371499D01*
X0371924Y0371499D02*
X0370475Y0370050D01*
X0370475Y0354727D01*
X0333073Y0317325D01*
X0321262Y0317325D02*
X0355711Y0351774D01*
X0355711Y0356696D01*
X0352759Y0357483D02*
X0352759Y0352759D01*
X0294688Y0294688D01*
X0282877Y0294688D01*
X0279924Y0297640D01*
X0283861Y0297640D02*
X0293703Y0297640D01*
X0349806Y0353743D01*
X0349806Y0358467D01*
X0355514Y0364176D01*
X0355908Y0360633D02*
X0352759Y0357483D01*
X0346853Y0354727D02*
X0292719Y0300593D01*
X0285829Y0300593D01*
X0287798Y0303546D02*
X0291735Y0303546D01*
X0340948Y0352759D01*
X0340948Y0362601D01*
X0337010Y0366538D01*
X0337010Y0376381D01*
X0341892Y0381262D01*
X0341892Y0381499D01*
X0346853Y0376381D02*
X0346853Y0354727D01*
X0337010Y0352759D02*
X0337010Y0362601D01*
X0333073Y0366538D01*
X0329136Y0366538D01*
X0327168Y0368507D01*
X0327168Y0374412D01*
X0331892Y0379136D01*
X0331892Y0381499D01*
X0346853Y0376381D02*
X0351892Y0381420D01*
X0351892Y0381499D01*
X0366853Y0376341D02*
X0366853Y0360948D01*
X0366538Y0360633D01*
X0366853Y0376341D02*
X0370475Y0380081D01*
X0371892Y0381499D01*
X0376538Y0416593D02*
X0380923Y0416593D01*
X0380001Y0417191D02*
X0377137Y0417191D01*
X0377735Y0417790D02*
X0379413Y0417790D01*
X0379165Y0418388D02*
X0378334Y0418388D01*
X0374605Y0427366D02*
X0371775Y0427366D01*
X0371775Y0427964D02*
X0374605Y0427964D01*
X0374605Y0428563D02*
X0371695Y0428563D01*
X0371328Y0429161D02*
X0374605Y0429161D01*
X0373164Y0426767D02*
X0371775Y0426767D01*
X0372175Y0426169D02*
X0368807Y0426169D01*
X0368807Y0425570D02*
X0368207Y0425570D01*
X0368207Y0424972D02*
X0368807Y0424972D01*
X0368807Y0424373D02*
X0368207Y0424373D01*
X0368207Y0423775D02*
X0368807Y0423775D01*
X0368807Y0423176D02*
X0368207Y0423176D01*
X0368207Y0426169D02*
X0317325Y0426169D01*
X0317325Y0420782D02*
X0329665Y0420782D01*
X0328788Y0420184D02*
X0317325Y0420184D01*
X0317325Y0419585D02*
X0328218Y0419585D01*
X0327970Y0418987D02*
X0317325Y0418987D01*
X0317325Y0418388D02*
X0327724Y0418388D01*
X0327724Y0417790D02*
X0317325Y0417790D01*
X0317325Y0417191D02*
X0327724Y0417191D01*
X0327912Y0416593D02*
X0317325Y0416593D01*
X0317325Y0415994D02*
X0328160Y0415994D01*
X0328647Y0415396D02*
X0317325Y0415396D01*
X0305892Y0381499D02*
X0311420Y0375971D01*
X0305948Y0371499D02*
X0305948Y0370987D01*
X0305987Y0370948D01*
X0303546Y0368507D01*
X0303546Y0354727D01*
X0303546Y0333073D01*
X0300593Y0330121D02*
X0300593Y0377365D01*
X0296459Y0381499D01*
X0295892Y0381499D01*
X0314373Y0361617D02*
X0309451Y0356696D01*
X0309451Y0351774D01*
X0309451Y0333073D01*
X0295672Y0339963D02*
X0285829Y0330121D01*
X0285829Y0327168D01*
X0290751Y0306499D02*
X0337010Y0352759D01*
X0326184Y0361617D02*
X0314373Y0361617D01*
X0356696Y0311420D02*
X0360633Y0307483D01*
X0360633Y0283861D01*
X0364570Y0277955D02*
X0314176Y0277955D01*
X0301577Y0272050D02*
X0337010Y0272050D01*
X0354727Y0272050D01*
X0366538Y0260239D01*
X0366538Y0227759D01*
X0391892Y0202404D01*
X0391892Y0201530D01*
X0387207Y0203152D02*
X0387207Y0196184D01*
X0391892Y0191499D01*
X0381892Y0191499D02*
X0380160Y0191499D01*
X0376932Y0194570D01*
X0376932Y0204412D01*
X0374412Y0207089D01*
X0352759Y0207089D01*
X0315357Y0244491D01*
X0310436Y0244491D01*
X0308467Y0247444D02*
X0316341Y0247444D01*
X0353743Y0210042D01*
X0380318Y0210042D01*
X0387207Y0203152D01*
X0376381Y0212995D02*
X0363585Y0225790D01*
X0363585Y0259255D01*
X0353743Y0269097D01*
X0338979Y0269097D01*
X0300593Y0269097D01*
X0291735Y0277955D01*
X0291735Y0282877D02*
X0301577Y0272050D01*
X0297640Y0268113D02*
X0297640Y0262207D01*
X0305514Y0254333D01*
X0312404Y0254333D01*
X0316341Y0251381D02*
X0322247Y0245475D01*
X0328349Y0239373D01*
X0351577Y0239373D01*
X0351774Y0239570D01*
X0344885Y0232680D02*
X0338979Y0232680D01*
X0338979Y0228743D02*
X0344885Y0228743D01*
X0337995Y0217916D02*
X0321853Y0234058D01*
X0311420Y0232680D02*
X0337010Y0207089D01*
X0337010Y0199215D01*
X0339963Y0196262D01*
X0347837Y0196262D01*
X0351892Y0192207D01*
X0351892Y0191499D01*
X0355829Y0185436D02*
X0338979Y0185436D01*
X0333073Y0191341D01*
X0333073Y0203152D01*
X0296656Y0239570D01*
X0287798Y0239570D01*
X0281892Y0245475D01*
X0281892Y0246459D01*
X0281892Y0239570D02*
X0284845Y0236617D01*
X0295672Y0236617D01*
X0331105Y0201184D01*
X0331105Y0189373D01*
X0337010Y0183467D01*
X0363861Y0183467D01*
X0371892Y0191499D01*
X0361892Y0191499D02*
X0355829Y0185436D01*
X0344885Y0179530D02*
X0343900Y0180514D01*
X0336026Y0180514D01*
X0328152Y0188388D01*
X0328152Y0195270D01*
X0321892Y0201530D01*
X0321546Y0201184D01*
X0319294Y0201184D01*
X0315357Y0205121D01*
X0315357Y0212995D01*
X0298861Y0206932D02*
X0296971Y0204845D01*
X0296971Y0184373D01*
X0295672Y0183073D01*
X0293703Y0172640D02*
X0276814Y0188034D01*
X0276853Y0195585D01*
X0271892Y0201530D01*
X0256577Y0220633D02*
X0245436Y0209491D01*
X0237050Y0209491D01*
X0218900Y0191341D01*
X0218900Y0163782D01*
X0245475Y0213979D02*
X0245475Y0217916D01*
X0237601Y0225790D01*
X0226774Y0225790D01*
X0210042Y0225790D01*
X0197247Y0228743D02*
X0183467Y0242522D01*
X0183467Y0250396D01*
X0179530Y0254333D01*
X0197247Y0254333D02*
X0201184Y0254333D01*
X0207089Y0260239D01*
X0204136Y0248428D02*
X0197247Y0242522D01*
X0197247Y0228743D02*
X0291735Y0228743D01*
X0290751Y0242522D02*
X0297640Y0242522D01*
X0335042Y0205121D01*
X0335042Y0197247D01*
X0340790Y0191499D01*
X0341892Y0191499D01*
X0350444Y0201530D02*
X0351892Y0201530D01*
X0350444Y0201530D02*
X0344885Y0207089D01*
X0354727Y0217916D02*
X0354727Y0256302D01*
X0350790Y0260239D01*
X0337010Y0260239D01*
X0338979Y0263192D02*
X0351774Y0263192D01*
X0352759Y0262207D01*
X0357680Y0257286D01*
X0357680Y0214963D01*
X0355711Y0212995D01*
X0360633Y0221853D02*
X0367522Y0214963D01*
X0360633Y0221853D02*
X0360633Y0258270D01*
X0352759Y0266144D01*
X0337010Y0266144D01*
X0331105Y0254333D02*
X0346853Y0254333D01*
X0350790Y0250396D01*
X0350790Y0256302D02*
X0325199Y0256302D01*
X0331105Y0254333D02*
X0327168Y0250396D01*
X0316341Y0251381D02*
X0304530Y0251381D01*
X0294688Y0261223D01*
X0294688Y0271066D01*
X0272050Y0293703D01*
X0273034Y0296656D02*
X0279924Y0289766D01*
X0283861Y0285829D01*
X0293703Y0285829D01*
X0295672Y0283861D01*
X0349806Y0283861D01*
X0350790Y0284845D01*
X0364570Y0291735D02*
X0364570Y0307483D01*
X0360633Y0311420D01*
X0364570Y0311420D02*
X0368507Y0307483D01*
X0368507Y0283861D01*
X0372444Y0291735D02*
X0372444Y0307483D01*
X0368507Y0311420D01*
X0392444Y0281302D02*
X0298034Y0281302D01*
X0297640Y0280908D01*
X0304255Y0293703D02*
X0302562Y0295081D01*
X0273034Y0296656D02*
X0264176Y0296656D01*
X0256302Y0304530D01*
X0256302Y0359845D01*
X0251184Y0364963D01*
X0236617Y0401971D02*
X0186420Y0401971D01*
X0170672Y0386223D01*
X0170672Y0347444D01*
X0159648Y0336420D01*
X0159333Y0336420D01*
X0159688Y0346066D02*
X0162010Y0346066D01*
X0166735Y0350790D01*
X0166735Y0368507D01*
X0174609Y0364570D02*
X0174609Y0334058D01*
X0166617Y0326066D01*
X0159688Y0326066D01*
X0159651Y0326068D01*
X0159614Y0326074D01*
X0159579Y0326083D01*
X0159544Y0326097D01*
X0159511Y0326113D01*
X0159480Y0326134D01*
X0159451Y0326157D01*
X0159425Y0326183D01*
X0159402Y0326212D01*
X0159381Y0326243D01*
X0159365Y0326276D01*
X0159351Y0326311D01*
X0159342Y0326346D01*
X0159336Y0326383D01*
X0159334Y0326420D01*
X0159688Y0346066D02*
X0159333Y0346420D01*
X0196262Y0339963D02*
X0196262Y0335042D01*
X0196262Y0339963D02*
X0203152Y0346853D01*
X0205121Y0315357D02*
X0257286Y0263192D01*
X0261223Y0263192D01*
X0272050Y0277955D02*
X0272050Y0278940D01*
X0272050Y0277955D02*
X0288782Y0261223D01*
X0288782Y0260239D01*
X0236617Y0287798D02*
X0236617Y0297640D01*
X0232680Y0301577D01*
X0236617Y0401971D02*
X0240554Y0405908D01*
X0253349Y0410829D02*
X0253349Y0414766D01*
X0249412Y0418703D01*
X0244491Y0423625D01*
X0244491Y0427562D01*
X0249412Y0418703D02*
X0267129Y0418703D01*
X0274018Y0425593D01*
X0391485Y0415396D02*
X0395043Y0415396D01*
X0395465Y0415994D02*
X0392429Y0415994D01*
X0393027Y0416593D02*
X0396027Y0416593D01*
X0395388Y0417191D02*
X0393275Y0417191D01*
X0393523Y0417790D02*
X0395163Y0417790D01*
X0395159Y0418388D02*
X0393541Y0418388D01*
X0393541Y0418987D02*
X0395159Y0418987D01*
X0395159Y0420184D02*
X0393125Y0420184D01*
X0393207Y0420782D02*
X0393807Y0420782D01*
X0393807Y0421381D02*
X0393207Y0421381D01*
X0393207Y0421979D02*
X0393807Y0421979D01*
X0393807Y0422578D02*
X0393207Y0422578D01*
X0393207Y0423176D02*
X0393807Y0423176D01*
X0393807Y0423775D02*
X0399065Y0423775D01*
X0398817Y0424373D02*
X0396972Y0424373D01*
X0396972Y0424972D02*
X0398590Y0424972D01*
X0398590Y0425570D02*
X0396955Y0425570D01*
X0396716Y0426169D02*
X0398590Y0426169D01*
X0398798Y0426767D02*
X0396022Y0426767D01*
X0394967Y0427366D02*
X0399046Y0427366D01*
X0399561Y0427964D02*
X0394967Y0427964D01*
X0396972Y0423176D02*
X0399606Y0423176D01*
X0398925Y0422578D02*
X0398325Y0422578D01*
X0398325Y0421979D02*
X0398925Y0421979D01*
X0398925Y0421381D02*
X0398325Y0421381D01*
X0398325Y0420782D02*
X0398925Y0420782D01*
X0398925Y0420184D02*
X0398325Y0420184D01*
X0398325Y0419585D02*
X0393373Y0419585D01*
X0401223Y0416593D02*
X0402330Y0416593D01*
X0368507Y0275003D02*
X0370475Y0273034D01*
X0370475Y0267129D01*
X0328152Y0182483D02*
X0325003Y0182483D01*
X0328152Y0182483D02*
X0331105Y0179530D01*
X0342916Y0169688D02*
X0344885Y0167719D01*
X0365554Y0167719D01*
X0365554Y0172640D02*
X0293703Y0172640D01*
X0281892Y0171656D02*
X0281892Y0154924D01*
X0287798Y0149018D01*
X0287798Y0144097D02*
X0291735Y0144097D01*
X0311420Y0163782D01*
X0360633Y0163782D01*
X0369491Y0158861D02*
X0369491Y0150987D01*
X0366538Y0148034D01*
X0366538Y0138192D01*
X0360633Y0132286D01*
X0356696Y0132286D01*
X0369491Y0158861D02*
X0372444Y0161814D01*
X0375396Y0157877D02*
X0382286Y0150987D01*
X0382286Y0144097D01*
X0287798Y0136223D02*
X0287798Y0130318D01*
X0285829Y0128349D01*
X0281892Y0171656D02*
X0279924Y0173625D01*
X0275987Y0173625D01*
X0274018Y0171656D01*
X0136026Y0271459D02*
X0136000Y0271457D01*
X0135975Y0271452D01*
X0135951Y0271444D01*
X0135928Y0271433D01*
X0135906Y0271418D01*
X0135887Y0271401D01*
X0135870Y0271382D01*
X0135855Y0271361D01*
X0135844Y0271337D01*
X0135836Y0271313D01*
X0135831Y0271288D01*
X0135829Y0271262D01*
X0125199Y0236617D02*
X0129136Y0221656D01*
D16*
X0387609Y0396762D02*
X0389167Y0396762D01*
X0387609Y0396762D02*
X0387609Y0400880D01*
X0389167Y0400880D01*
X0389167Y0396762D01*
X0389167Y0397367D02*
X0387609Y0397367D01*
X0387609Y0397972D02*
X0389167Y0397972D01*
X0389167Y0398577D02*
X0387609Y0398577D01*
X0387609Y0399182D02*
X0389167Y0399182D01*
X0389167Y0399787D02*
X0387609Y0399787D01*
X0387609Y0400392D02*
X0389167Y0400392D01*
X0395090Y0396762D02*
X0396648Y0396762D01*
X0395090Y0396762D02*
X0395090Y0400880D01*
X0396648Y0400880D01*
X0396648Y0396762D01*
X0396648Y0397367D02*
X0395090Y0397367D01*
X0395090Y0397972D02*
X0396648Y0397972D01*
X0396648Y0398577D02*
X0395090Y0398577D01*
X0395090Y0399182D02*
X0396648Y0399182D01*
X0396648Y0399787D02*
X0395090Y0399787D01*
X0395090Y0400392D02*
X0396648Y0400392D01*
X0396648Y0406999D02*
X0395090Y0406999D01*
X0395090Y0411117D01*
X0396648Y0411117D01*
X0396648Y0406999D01*
X0396648Y0407604D02*
X0395090Y0407604D01*
X0395090Y0408209D02*
X0396648Y0408209D01*
X0396648Y0408814D02*
X0395090Y0408814D01*
X0395090Y0409419D02*
X0396648Y0409419D01*
X0396648Y0410024D02*
X0395090Y0410024D01*
X0395090Y0410629D02*
X0396648Y0410629D01*
X0392908Y0406999D02*
X0391350Y0406999D01*
X0391350Y0411117D01*
X0392908Y0411117D01*
X0392908Y0406999D01*
X0392908Y0407604D02*
X0391350Y0407604D01*
X0391350Y0408209D02*
X0392908Y0408209D01*
X0392908Y0408814D02*
X0391350Y0408814D01*
X0391350Y0409419D02*
X0392908Y0409419D01*
X0392908Y0410024D02*
X0391350Y0410024D01*
X0391350Y0410629D02*
X0392908Y0410629D01*
X0389167Y0406999D02*
X0387609Y0406999D01*
X0387609Y0411117D01*
X0389167Y0411117D01*
X0389167Y0406999D01*
X0389167Y0407604D02*
X0387609Y0407604D01*
X0387609Y0408209D02*
X0389167Y0408209D01*
X0389167Y0408814D02*
X0387609Y0408814D01*
X0387609Y0409419D02*
X0389167Y0409419D01*
X0389167Y0410024D02*
X0387609Y0410024D01*
X0387609Y0410629D02*
X0389167Y0410629D01*
D17*
X0116656Y0377877D03*
X0096656Y0377877D03*
X0106656Y0404444D03*
X0096735Y0189845D03*
X0116735Y0189845D03*
X0106735Y0163278D03*
D18*
X0077168Y0153940D03*
X0403940Y0476774D03*
D19*
X0366538Y0396066D03*
X0355514Y0364176D03*
X0355908Y0360633D03*
X0355711Y0356696D03*
X0366538Y0360633D03*
X0350790Y0331105D03*
X0350790Y0327168D03*
X0340948Y0317325D03*
X0337010Y0317325D03*
X0333073Y0317325D03*
X0329136Y0317325D03*
X0325199Y0317325D03*
X0321262Y0317325D03*
X0309451Y0333073D03*
X0303546Y0333073D03*
X0300593Y0330121D03*
X0293703Y0333073D03*
X0295672Y0339963D03*
X0285829Y0327168D03*
X0274018Y0327168D03*
X0273034Y0320278D03*
X0269097Y0320278D03*
X0265160Y0320278D03*
X0259255Y0320278D03*
X0259255Y0316341D03*
X0259255Y0330121D03*
X0262207Y0333073D03*
X0244491Y0321262D03*
X0232680Y0321262D03*
X0228743Y0325199D03*
X0224806Y0317325D03*
X0224806Y0307483D03*
X0228743Y0307483D03*
X0220869Y0307483D03*
X0216932Y0307483D03*
X0211026Y0297640D03*
X0207089Y0297640D03*
X0206105Y0293703D03*
X0196262Y0293703D03*
X0188388Y0287798D03*
X0191341Y0279924D03*
X0187404Y0275987D03*
X0183467Y0272050D03*
X0179530Y0254333D03*
X0197247Y0254333D03*
X0204136Y0248428D03*
X0209058Y0244491D03*
X0197247Y0242522D03*
X0210042Y0225790D03*
X0226774Y0225790D03*
X0233664Y0222837D03*
X0238585Y0214963D03*
X0245475Y0213979D03*
X0256577Y0220633D03*
X0248428Y0250396D03*
X0261223Y0255318D03*
X0261223Y0259255D03*
X0261223Y0263192D03*
X0267129Y0279924D03*
X0263192Y0282877D03*
X0268113Y0293703D03*
X0272050Y0293703D03*
X0279924Y0289766D03*
X0279924Y0297640D03*
X0283861Y0297640D03*
X0285829Y0300593D03*
X0287798Y0303546D03*
X0290751Y0306499D03*
X0290751Y0310436D03*
X0289766Y0314373D03*
X0291735Y0282877D03*
X0291735Y0277955D03*
X0297640Y0280908D03*
X0302562Y0276971D03*
X0297640Y0268113D03*
X0288782Y0269097D03*
X0284845Y0269097D03*
X0282286Y0263388D03*
X0288782Y0260239D03*
X0281892Y0246459D03*
X0281892Y0239570D03*
X0290751Y0242522D03*
X0291735Y0228743D03*
X0300593Y0243507D03*
X0308467Y0247444D03*
X0310436Y0244491D03*
X0312404Y0254333D03*
X0325199Y0256302D03*
X0327168Y0250396D03*
X0322247Y0245475D03*
X0321853Y0234058D03*
X0311420Y0232680D03*
X0315357Y0212995D03*
X0298861Y0206932D03*
X0295672Y0183073D03*
X0274018Y0171656D03*
X0268113Y0169688D03*
X0287798Y0154924D03*
X0287798Y0149018D03*
X0287798Y0144097D03*
X0287798Y0136223D03*
X0285829Y0128349D03*
X0287798Y0121459D03*
X0331105Y0179530D03*
X0325003Y0182483D03*
X0344885Y0179530D03*
X0342916Y0169688D03*
X0360633Y0163782D03*
X0365554Y0167719D03*
X0365554Y0172640D03*
X0376577Y0178940D03*
X0386420Y0178940D03*
X0388782Y0166341D03*
X0381696Y0156499D03*
X0375396Y0157877D03*
X0372444Y0161814D03*
X0369491Y0150987D03*
X0379333Y0147837D03*
X0382286Y0144097D03*
X0389963Y0147837D03*
X0382877Y0131892D03*
X0359885Y0136223D03*
X0356696Y0132286D03*
X0357680Y0143113D03*
X0360829Y0157286D03*
X0344885Y0210042D03*
X0337995Y0217916D03*
X0333073Y0218900D03*
X0338979Y0228743D03*
X0338979Y0232680D03*
X0344885Y0232680D03*
X0344885Y0228743D03*
X0351774Y0239570D03*
X0350790Y0250396D03*
X0350790Y0256302D03*
X0352759Y0262207D03*
X0338979Y0263192D03*
X0337010Y0266144D03*
X0338979Y0269097D03*
X0337010Y0272050D03*
X0337010Y0260239D03*
X0350790Y0284845D03*
X0360633Y0283861D03*
X0364570Y0277955D03*
X0368507Y0275003D03*
X0370475Y0267129D03*
X0368507Y0283861D03*
X0372444Y0291735D03*
X0364570Y0291735D03*
X0364570Y0311420D03*
X0368507Y0311420D03*
X0360633Y0311420D03*
X0356696Y0311420D03*
X0332089Y0299609D03*
X0321262Y0287798D03*
X0314176Y0277955D03*
X0354727Y0217916D03*
X0355711Y0212995D03*
X0367522Y0214963D03*
X0376381Y0212995D03*
X0387207Y0215554D03*
X0377562Y0234058D03*
X0374412Y0244491D03*
X0399018Y0256105D03*
X0407286Y0264373D03*
X0406105Y0225790D03*
X0309451Y0351774D03*
X0303546Y0354727D03*
X0326184Y0361617D03*
X0315357Y0380318D03*
X0325199Y0396066D03*
X0285829Y0394097D03*
X0275987Y0396066D03*
X0272050Y0396066D03*
X0269085Y0393125D03*
X0266144Y0396066D03*
X0260042Y0393113D03*
X0253349Y0410829D03*
X0240554Y0401971D03*
X0244491Y0427562D03*
X0274018Y0425593D03*
X0285829Y0423625D03*
X0283861Y0403940D03*
X0236617Y0352759D03*
X0233073Y0350790D03*
X0229924Y0353940D03*
X0226774Y0350790D03*
X0223428Y0347050D03*
X0232680Y0337010D03*
X0232680Y0333073D03*
X0242522Y0346853D03*
X0207089Y0333073D03*
X0196262Y0335042D03*
X0190357Y0325199D03*
X0186420Y0325199D03*
X0181696Y0318507D03*
X0190357Y0306499D03*
X0186420Y0301577D03*
X0205121Y0311420D03*
X0220869Y0287798D03*
X0226774Y0280908D03*
X0229727Y0277955D03*
X0232680Y0275003D03*
X0235633Y0272050D03*
X0236617Y0287798D03*
X0207089Y0260239D03*
X0167719Y0291735D03*
X0142129Y0311420D03*
X0130318Y0322247D03*
X0134255Y0279924D03*
X0134255Y0275987D03*
X0135829Y0271262D03*
X0125199Y0259451D03*
X0118507Y0263388D03*
X0108664Y0264176D03*
X0110633Y0247640D03*
X0114570Y0233861D03*
X0125199Y0236617D03*
X0129136Y0221656D03*
X0114570Y0210239D03*
X0075199Y0190554D03*
X0179530Y0190554D03*
X0189373Y0176381D03*
X0187404Y0153152D03*
X0214176Y0155908D03*
X0218900Y0163782D03*
X0229924Y0183467D03*
X0217719Y0206696D03*
X0194294Y0355711D03*
X0174609Y0364570D03*
X0166735Y0368507D03*
D20*
X0135239Y0387207D03*
X0135239Y0402955D03*
X0114570Y0342916D03*
X0125396Y0329136D03*
X0125396Y0314373D03*
X0112601Y0293703D03*
X0094885Y0299609D03*
X0092916Y0343900D03*
X0078152Y0344885D03*
X0076184Y0364570D03*
X0142129Y0291735D03*
X0132680Y0266538D03*
X0094885Y0242522D03*
X0185436Y0220869D03*
X0185436Y0207089D03*
X0203152Y0179924D03*
X0207089Y0153940D03*
X0228743Y0122444D03*
X0229727Y0116538D03*
X0236617Y0116538D03*
X0244491Y0116538D03*
X0252365Y0116538D03*
X0260239Y0116538D03*
X0268113Y0116538D03*
X0275987Y0116538D03*
X0283861Y0116538D03*
X0291735Y0116538D03*
X0299609Y0116538D03*
X0313388Y0116538D03*
X0324215Y0116538D03*
X0331105Y0116538D03*
X0338979Y0116538D03*
X0346853Y0116538D03*
X0322247Y0135239D03*
X0323231Y0168703D03*
X0287798Y0163782D03*
X0266144Y0140160D03*
X0256302Y0183467D03*
X0266144Y0218900D03*
X0218900Y0222562D03*
X0216932Y0240554D03*
X0191341Y0242522D03*
X0187404Y0252365D03*
X0224294Y0267877D03*
X0242522Y0289766D03*
X0228743Y0299609D03*
X0289766Y0289766D03*
X0311420Y0287798D03*
X0312404Y0293703D03*
X0376381Y0228743D03*
X0398034Y0246459D03*
X0388664Y0155396D03*
X0386223Y0123625D03*
X0401971Y0116538D03*
X0368507Y0116538D03*
X0222837Y0116538D03*
X0386223Y0394097D03*
X0398034Y0394097D03*
X0398034Y0413782D03*
X0390160Y0418507D03*
X0382286Y0419688D03*
X0374412Y0423625D03*
X0370475Y0403940D03*
X0352365Y0417719D03*
X0338585Y0416932D03*
X0331105Y0417719D03*
X0322837Y0426774D03*
X0305514Y0449215D03*
X0297640Y0449215D03*
X0289766Y0449215D03*
X0281892Y0449215D03*
X0274018Y0449215D03*
X0254333Y0449215D03*
X0246459Y0449215D03*
X0240554Y0449215D03*
X0234648Y0449215D03*
X0228743Y0449215D03*
X0222837Y0449215D03*
X0342129Y0462601D03*
X0398034Y0476774D03*
X0401971Y0425593D03*
D21*
X0405318Y0422247D01*
X0405318Y0419688D01*
X0398034Y0413782D02*
X0395869Y0411617D01*
X0395869Y0409058D01*
X0388388Y0409058D02*
X0388388Y0416735D01*
X0390160Y0418507D01*
X0386814Y0423625D02*
X0386223Y0423625D01*
X0382286Y0419688D01*
X0382286Y0425593D02*
X0368231Y0411538D01*
X0368231Y0410963D01*
X0368507Y0411239D01*
X0374412Y0423625D02*
X0377286Y0426499D01*
X0377286Y0431676D01*
X0369707Y0431676D01*
X0368507Y0432877D01*
X0368231Y0438963D02*
X0368640Y0439373D01*
X0384255Y0439373D01*
X0387286Y0436341D01*
X0387286Y0431676D01*
X0392129Y0431833D02*
X0392286Y0431676D01*
X0392129Y0431833D02*
X0392129Y0439373D01*
X0387286Y0444215D01*
X0387286Y0452148D01*
X0387286Y0457995D01*
X0382286Y0462995D01*
X0382286Y0466341D01*
X0382877Y0466932D01*
X0382877Y0474806D01*
X0383073Y0475003D01*
X0383073Y0478349D01*
X0385436Y0480711D01*
X0396066Y0480711D01*
X0398034Y0478743D01*
X0398034Y0476774D01*
X0382286Y0452148D02*
X0382286Y0447247D01*
X0380318Y0445278D01*
X0369231Y0445278D01*
X0368388Y0446121D01*
X0377286Y0452148D02*
X0368388Y0461046D01*
X0368388Y0474121D01*
X0382286Y0431676D02*
X0382286Y0425593D01*
X0388192Y0400593D02*
X0388192Y0396066D01*
X0386223Y0394097D01*
X0388388Y0398821D02*
X0388192Y0400593D01*
X0396066Y0400593D02*
X0396066Y0396066D01*
X0398034Y0394097D01*
X0395869Y0398821D02*
X0396066Y0400593D01*
X0312404Y0293703D02*
X0304255Y0293703D01*
X0302562Y0295081D02*
X0301184Y0293703D01*
X0297640Y0293703D01*
X0293703Y0289766D01*
X0289766Y0289766D01*
X0302562Y0288388D02*
X0310711Y0288507D01*
X0311420Y0287798D01*
X0218900Y0222562D02*
X0207089Y0211026D01*
X0207089Y0153940D01*
D22*
X0159294Y0206066D02*
X0156294Y0206066D01*
X0152294Y0206066D02*
X0149294Y0206066D01*
X0149294Y0216066D01*
X0149373Y0215987D01*
X0152333Y0215987D01*
X0156333Y0215987D02*
X0159215Y0215987D01*
X0159294Y0216066D01*
X0159294Y0226066D02*
X0156373Y0226066D01*
X0152373Y0226066D02*
X0149294Y0226066D01*
X0149333Y0236026D02*
X0149294Y0236066D01*
X0149333Y0236026D02*
X0152530Y0236026D01*
X0156530Y0236026D02*
X0159255Y0236026D01*
X0159294Y0236066D01*
X0159294Y0246066D02*
X0158900Y0246459D01*
X0156648Y0246026D01*
X0152648Y0246026D02*
X0152530Y0246066D01*
X0149294Y0246066D01*
M02*
