G75*
%MOIN*%
%OFA0B0*%
%FSLAX25Y25*%
%IPPOS*%
%LPD*%
%AMOC8*
5,1,8,0,0,1.08239X$1,22.5*
%
%ADD10C,0.00600*%
%ADD11C,0.00400*%
%ADD12C,0.00394*%
%ADD13C,0.00300*%
%ADD14C,0.00200*%
%ADD15C,0.02200*%
%ADD16C,0.01500*%
%ADD17C,0.00000*%
%ADD18C,0.00800*%
%ADD19C,0.01000*%
D10*
X0069294Y0146066D02*
X0201557Y0146066D01*
X0201557Y0146065D02*
X0201928Y0146061D01*
X0202300Y0146047D01*
X0202671Y0146025D01*
X0203041Y0145993D01*
X0203410Y0145953D01*
X0203778Y0145904D01*
X0204145Y0145846D01*
X0204511Y0145779D01*
X0204874Y0145703D01*
X0205236Y0145618D01*
X0205596Y0145525D01*
X0205953Y0145423D01*
X0206308Y0145313D01*
X0206660Y0145193D01*
X0207009Y0145066D01*
X0207354Y0144930D01*
X0207697Y0144786D01*
X0208036Y0144633D01*
X0208371Y0144473D01*
X0208702Y0144304D01*
X0209029Y0144127D01*
X0209351Y0143943D01*
X0209669Y0143751D01*
X0209982Y0143551D01*
X0210290Y0143344D01*
X0210594Y0143129D01*
X0210892Y0142907D01*
X0211184Y0142678D01*
X0211471Y0142442D01*
X0211752Y0142199D01*
X0212027Y0141949D01*
X0212296Y0141693D01*
X0212559Y0141430D01*
X0212815Y0141161D01*
X0213065Y0140886D01*
X0213308Y0140605D01*
X0213544Y0140318D01*
X0213773Y0140026D01*
X0213995Y0139728D01*
X0214210Y0139424D01*
X0214417Y0139116D01*
X0214617Y0138803D01*
X0214809Y0138485D01*
X0214993Y0138163D01*
X0215170Y0137836D01*
X0215339Y0137505D01*
X0215499Y0137170D01*
X0215652Y0136831D01*
X0215796Y0136488D01*
X0215932Y0136143D01*
X0216059Y0135794D01*
X0216179Y0135442D01*
X0216289Y0135087D01*
X0216391Y0134730D01*
X0216484Y0134370D01*
X0216569Y0134008D01*
X0216645Y0133645D01*
X0216712Y0133279D01*
X0216770Y0132912D01*
X0216819Y0132544D01*
X0216859Y0132175D01*
X0216891Y0131805D01*
X0216913Y0131434D01*
X0216927Y0131062D01*
X0216931Y0130691D01*
X0216932Y0130691D02*
X0216932Y0081105D01*
X0411814Y0081105D01*
X0411814Y0484648D01*
X0216932Y0484648D01*
X0216932Y0437031D01*
X0216931Y0437031D02*
X0216927Y0436660D01*
X0216913Y0436288D01*
X0216891Y0435917D01*
X0216859Y0435547D01*
X0216819Y0435178D01*
X0216770Y0434810D01*
X0216712Y0434443D01*
X0216645Y0434077D01*
X0216569Y0433714D01*
X0216484Y0433352D01*
X0216391Y0432992D01*
X0216289Y0432635D01*
X0216179Y0432280D01*
X0216059Y0431928D01*
X0215932Y0431579D01*
X0215796Y0431234D01*
X0215652Y0430891D01*
X0215499Y0430552D01*
X0215339Y0430217D01*
X0215170Y0429886D01*
X0214993Y0429559D01*
X0214809Y0429237D01*
X0214617Y0428919D01*
X0214417Y0428606D01*
X0214210Y0428298D01*
X0213995Y0427994D01*
X0213773Y0427696D01*
X0213544Y0427404D01*
X0213308Y0427117D01*
X0213065Y0426836D01*
X0212815Y0426561D01*
X0212559Y0426292D01*
X0212296Y0426029D01*
X0212027Y0425773D01*
X0211752Y0425523D01*
X0211471Y0425280D01*
X0211184Y0425044D01*
X0210892Y0424815D01*
X0210594Y0424593D01*
X0210290Y0424378D01*
X0209982Y0424171D01*
X0209669Y0423971D01*
X0209351Y0423779D01*
X0209029Y0423595D01*
X0208702Y0423418D01*
X0208371Y0423249D01*
X0208036Y0423089D01*
X0207697Y0422936D01*
X0207354Y0422792D01*
X0207009Y0422656D01*
X0206660Y0422529D01*
X0206308Y0422409D01*
X0205953Y0422299D01*
X0205596Y0422197D01*
X0205236Y0422104D01*
X0204874Y0422019D01*
X0204511Y0421943D01*
X0204145Y0421876D01*
X0203778Y0421818D01*
X0203410Y0421769D01*
X0203041Y0421729D01*
X0202671Y0421697D01*
X0202300Y0421675D01*
X0201928Y0421661D01*
X0201557Y0421657D01*
X0201557Y0421656D02*
X0069294Y0421656D01*
X0069294Y0146066D01*
X0146065Y0197247D02*
X0146067Y0197335D01*
X0146073Y0197423D01*
X0146083Y0197511D01*
X0146097Y0197599D01*
X0146114Y0197685D01*
X0146136Y0197771D01*
X0146161Y0197855D01*
X0146191Y0197939D01*
X0146223Y0198021D01*
X0146260Y0198101D01*
X0146300Y0198180D01*
X0146344Y0198257D01*
X0146391Y0198332D01*
X0146441Y0198404D01*
X0146495Y0198475D01*
X0146551Y0198542D01*
X0146611Y0198608D01*
X0146673Y0198670D01*
X0146739Y0198730D01*
X0146806Y0198786D01*
X0146877Y0198840D01*
X0146949Y0198890D01*
X0147024Y0198937D01*
X0147101Y0198981D01*
X0147180Y0199021D01*
X0147260Y0199058D01*
X0147342Y0199090D01*
X0147426Y0199120D01*
X0147510Y0199145D01*
X0147596Y0199167D01*
X0147682Y0199184D01*
X0147770Y0199198D01*
X0147858Y0199208D01*
X0147946Y0199214D01*
X0148034Y0199216D01*
X0148122Y0199214D01*
X0148210Y0199208D01*
X0148298Y0199198D01*
X0148386Y0199184D01*
X0148472Y0199167D01*
X0148558Y0199145D01*
X0148642Y0199120D01*
X0148726Y0199090D01*
X0148808Y0199058D01*
X0148888Y0199021D01*
X0148967Y0198981D01*
X0149044Y0198937D01*
X0149119Y0198890D01*
X0149191Y0198840D01*
X0149262Y0198786D01*
X0149329Y0198730D01*
X0149395Y0198670D01*
X0149457Y0198608D01*
X0149517Y0198542D01*
X0149573Y0198475D01*
X0149627Y0198404D01*
X0149677Y0198332D01*
X0149724Y0198257D01*
X0149768Y0198180D01*
X0149808Y0198101D01*
X0149845Y0198021D01*
X0149877Y0197939D01*
X0149907Y0197855D01*
X0149932Y0197771D01*
X0149954Y0197685D01*
X0149971Y0197599D01*
X0149985Y0197511D01*
X0149995Y0197423D01*
X0150001Y0197335D01*
X0150003Y0197247D01*
X0150001Y0197159D01*
X0149995Y0197071D01*
X0149985Y0196983D01*
X0149971Y0196895D01*
X0149954Y0196809D01*
X0149932Y0196723D01*
X0149907Y0196639D01*
X0149877Y0196555D01*
X0149845Y0196473D01*
X0149808Y0196393D01*
X0149768Y0196314D01*
X0149724Y0196237D01*
X0149677Y0196162D01*
X0149627Y0196090D01*
X0149573Y0196019D01*
X0149517Y0195952D01*
X0149457Y0195886D01*
X0149395Y0195824D01*
X0149329Y0195764D01*
X0149262Y0195708D01*
X0149191Y0195654D01*
X0149119Y0195604D01*
X0149044Y0195557D01*
X0148967Y0195513D01*
X0148888Y0195473D01*
X0148808Y0195436D01*
X0148726Y0195404D01*
X0148642Y0195374D01*
X0148558Y0195349D01*
X0148472Y0195327D01*
X0148386Y0195310D01*
X0148298Y0195296D01*
X0148210Y0195286D01*
X0148122Y0195280D01*
X0148034Y0195278D01*
X0147946Y0195280D01*
X0147858Y0195286D01*
X0147770Y0195296D01*
X0147682Y0195310D01*
X0147596Y0195327D01*
X0147510Y0195349D01*
X0147426Y0195374D01*
X0147342Y0195404D01*
X0147260Y0195436D01*
X0147180Y0195473D01*
X0147101Y0195513D01*
X0147024Y0195557D01*
X0146949Y0195604D01*
X0146877Y0195654D01*
X0146806Y0195708D01*
X0146739Y0195764D01*
X0146673Y0195824D01*
X0146611Y0195886D01*
X0146551Y0195952D01*
X0146495Y0196019D01*
X0146441Y0196090D01*
X0146391Y0196162D01*
X0146344Y0196237D01*
X0146300Y0196314D01*
X0146260Y0196393D01*
X0146223Y0196473D01*
X0146191Y0196555D01*
X0146161Y0196639D01*
X0146136Y0196723D01*
X0146114Y0196809D01*
X0146097Y0196895D01*
X0146083Y0196983D01*
X0146073Y0197071D01*
X0146067Y0197159D01*
X0146065Y0197247D01*
X0150003Y0197247D02*
X0151184Y0197247D01*
X0153152Y0197247D02*
X0154727Y0197247D01*
X0156696Y0197247D02*
X0157877Y0197247D01*
X0157876Y0197247D02*
X0157878Y0197335D01*
X0157884Y0197423D01*
X0157894Y0197511D01*
X0157908Y0197599D01*
X0157925Y0197685D01*
X0157947Y0197771D01*
X0157972Y0197855D01*
X0158002Y0197939D01*
X0158034Y0198021D01*
X0158071Y0198101D01*
X0158111Y0198180D01*
X0158155Y0198257D01*
X0158202Y0198332D01*
X0158252Y0198404D01*
X0158306Y0198475D01*
X0158362Y0198542D01*
X0158422Y0198608D01*
X0158484Y0198670D01*
X0158550Y0198730D01*
X0158617Y0198786D01*
X0158688Y0198840D01*
X0158760Y0198890D01*
X0158835Y0198937D01*
X0158912Y0198981D01*
X0158991Y0199021D01*
X0159071Y0199058D01*
X0159153Y0199090D01*
X0159237Y0199120D01*
X0159321Y0199145D01*
X0159407Y0199167D01*
X0159493Y0199184D01*
X0159581Y0199198D01*
X0159669Y0199208D01*
X0159757Y0199214D01*
X0159845Y0199216D01*
X0159933Y0199214D01*
X0160021Y0199208D01*
X0160109Y0199198D01*
X0160197Y0199184D01*
X0160283Y0199167D01*
X0160369Y0199145D01*
X0160453Y0199120D01*
X0160537Y0199090D01*
X0160619Y0199058D01*
X0160699Y0199021D01*
X0160778Y0198981D01*
X0160855Y0198937D01*
X0160930Y0198890D01*
X0161002Y0198840D01*
X0161073Y0198786D01*
X0161140Y0198730D01*
X0161206Y0198670D01*
X0161268Y0198608D01*
X0161328Y0198542D01*
X0161384Y0198475D01*
X0161438Y0198404D01*
X0161488Y0198332D01*
X0161535Y0198257D01*
X0161579Y0198180D01*
X0161619Y0198101D01*
X0161656Y0198021D01*
X0161688Y0197939D01*
X0161718Y0197855D01*
X0161743Y0197771D01*
X0161765Y0197685D01*
X0161782Y0197599D01*
X0161796Y0197511D01*
X0161806Y0197423D01*
X0161812Y0197335D01*
X0161814Y0197247D01*
X0161812Y0197159D01*
X0161806Y0197071D01*
X0161796Y0196983D01*
X0161782Y0196895D01*
X0161765Y0196809D01*
X0161743Y0196723D01*
X0161718Y0196639D01*
X0161688Y0196555D01*
X0161656Y0196473D01*
X0161619Y0196393D01*
X0161579Y0196314D01*
X0161535Y0196237D01*
X0161488Y0196162D01*
X0161438Y0196090D01*
X0161384Y0196019D01*
X0161328Y0195952D01*
X0161268Y0195886D01*
X0161206Y0195824D01*
X0161140Y0195764D01*
X0161073Y0195708D01*
X0161002Y0195654D01*
X0160930Y0195604D01*
X0160855Y0195557D01*
X0160778Y0195513D01*
X0160699Y0195473D01*
X0160619Y0195436D01*
X0160537Y0195404D01*
X0160453Y0195374D01*
X0160369Y0195349D01*
X0160283Y0195327D01*
X0160197Y0195310D01*
X0160109Y0195296D01*
X0160021Y0195286D01*
X0159933Y0195280D01*
X0159845Y0195278D01*
X0159757Y0195280D01*
X0159669Y0195286D01*
X0159581Y0195296D01*
X0159493Y0195310D01*
X0159407Y0195327D01*
X0159321Y0195349D01*
X0159237Y0195374D01*
X0159153Y0195404D01*
X0159071Y0195436D01*
X0158991Y0195473D01*
X0158912Y0195513D01*
X0158835Y0195557D01*
X0158760Y0195604D01*
X0158688Y0195654D01*
X0158617Y0195708D01*
X0158550Y0195764D01*
X0158484Y0195824D01*
X0158422Y0195886D01*
X0158362Y0195952D01*
X0158306Y0196019D01*
X0158252Y0196090D01*
X0158202Y0196162D01*
X0158155Y0196237D01*
X0158111Y0196314D01*
X0158071Y0196393D01*
X0158034Y0196473D01*
X0158002Y0196555D01*
X0157972Y0196639D01*
X0157947Y0196723D01*
X0157925Y0196809D01*
X0157908Y0196895D01*
X0157894Y0196983D01*
X0157884Y0197071D01*
X0157878Y0197159D01*
X0157876Y0197247D01*
X0364570Y0422837D02*
X0364570Y0435829D01*
X0372050Y0435829D01*
X0372050Y0422837D01*
X0364570Y0422837D01*
X0383467Y0420081D02*
X0395278Y0420081D01*
X0395278Y0416144D01*
X0408664Y0416144D01*
X0408664Y0422837D01*
X0396853Y0422837D01*
X0396853Y0426381D01*
X0383467Y0426381D01*
X0383467Y0420081D01*
X0373532Y0459058D02*
X0373534Y0459117D01*
X0373540Y0459175D01*
X0373550Y0459233D01*
X0373563Y0459290D01*
X0373581Y0459347D01*
X0373602Y0459402D01*
X0373627Y0459455D01*
X0373655Y0459506D01*
X0373686Y0459556D01*
X0373721Y0459603D01*
X0373759Y0459648D01*
X0373800Y0459691D01*
X0373844Y0459730D01*
X0373890Y0459766D01*
X0373938Y0459800D01*
X0373989Y0459830D01*
X0374042Y0459856D01*
X0374096Y0459879D01*
X0374151Y0459898D01*
X0374208Y0459914D01*
X0374266Y0459926D01*
X0374324Y0459934D01*
X0374383Y0459938D01*
X0374441Y0459938D01*
X0374500Y0459934D01*
X0374558Y0459926D01*
X0374616Y0459914D01*
X0374673Y0459898D01*
X0374728Y0459879D01*
X0374782Y0459856D01*
X0374835Y0459830D01*
X0374886Y0459800D01*
X0374934Y0459766D01*
X0374980Y0459730D01*
X0375024Y0459691D01*
X0375065Y0459648D01*
X0375103Y0459603D01*
X0375138Y0459556D01*
X0375169Y0459506D01*
X0375197Y0459455D01*
X0375222Y0459402D01*
X0375243Y0459347D01*
X0375261Y0459290D01*
X0375274Y0459233D01*
X0375284Y0459175D01*
X0375290Y0459117D01*
X0375292Y0459058D01*
X0375290Y0458999D01*
X0375284Y0458941D01*
X0375274Y0458883D01*
X0375261Y0458826D01*
X0375243Y0458769D01*
X0375222Y0458714D01*
X0375197Y0458661D01*
X0375169Y0458610D01*
X0375138Y0458560D01*
X0375103Y0458513D01*
X0375065Y0458468D01*
X0375024Y0458425D01*
X0374980Y0458386D01*
X0374934Y0458350D01*
X0374886Y0458316D01*
X0374835Y0458286D01*
X0374782Y0458260D01*
X0374728Y0458237D01*
X0374673Y0458218D01*
X0374616Y0458202D01*
X0374558Y0458190D01*
X0374500Y0458182D01*
X0374441Y0458178D01*
X0374383Y0458178D01*
X0374324Y0458182D01*
X0374266Y0458190D01*
X0374208Y0458202D01*
X0374151Y0458218D01*
X0374096Y0458237D01*
X0374042Y0458260D01*
X0373989Y0458286D01*
X0373938Y0458316D01*
X0373890Y0458350D01*
X0373844Y0458386D01*
X0373800Y0458425D01*
X0373759Y0458468D01*
X0373721Y0458513D01*
X0373686Y0458560D01*
X0373655Y0458610D01*
X0373627Y0458661D01*
X0373602Y0458714D01*
X0373581Y0458769D01*
X0373563Y0458826D01*
X0373550Y0458883D01*
X0373540Y0458941D01*
X0373534Y0458999D01*
X0373532Y0459058D01*
X0378743Y0462995D02*
X0394097Y0462995D01*
X0394097Y0470869D01*
X0378743Y0470869D01*
X0378743Y0462995D01*
X0378743Y0470869D02*
X0378743Y0478349D01*
X0378743Y0478743D02*
X0394097Y0478743D01*
X0394097Y0470869D01*
D11*
X0393166Y0397491D02*
X0392565Y0397491D01*
X0391965Y0396890D01*
X0391364Y0397491D01*
X0390764Y0397491D01*
X0390163Y0396890D01*
X0390163Y0395689D01*
X0390764Y0395089D01*
X0390163Y0393807D02*
X0393766Y0391405D01*
X0393166Y0390124D02*
X0393766Y0389524D01*
X0393766Y0387722D01*
X0390163Y0387722D01*
X0391364Y0387722D02*
X0391364Y0389524D01*
X0391965Y0390124D01*
X0393166Y0390124D01*
X0391364Y0388923D02*
X0390163Y0390124D01*
X0390163Y0391405D02*
X0393766Y0393807D01*
X0393166Y0395089D02*
X0393766Y0395689D01*
X0393766Y0396890D01*
X0393166Y0397491D01*
X0391965Y0396890D02*
X0391965Y0396290D01*
X0383766Y0396890D02*
X0383166Y0397491D01*
X0382565Y0397491D01*
X0381965Y0396890D01*
X0381364Y0397491D01*
X0380764Y0397491D01*
X0380163Y0396890D01*
X0380163Y0395689D01*
X0380764Y0395089D01*
X0380163Y0393807D02*
X0383766Y0391405D01*
X0383766Y0390124D02*
X0383766Y0387722D01*
X0383766Y0388923D02*
X0380163Y0388923D01*
X0380163Y0391405D02*
X0383766Y0393807D01*
X0383166Y0395089D02*
X0383766Y0395689D01*
X0383766Y0396890D01*
X0381965Y0396890D02*
X0381965Y0396290D01*
X0373766Y0393207D02*
X0373766Y0392006D01*
X0373166Y0391405D01*
X0373166Y0390124D02*
X0373766Y0389524D01*
X0373766Y0387722D01*
X0370163Y0387722D01*
X0370163Y0389524D01*
X0370764Y0390124D01*
X0373166Y0390124D01*
X0373766Y0393207D02*
X0373166Y0393807D01*
X0372565Y0393807D01*
X0370163Y0391405D01*
X0370163Y0393807D01*
X0363766Y0393207D02*
X0363166Y0393807D01*
X0362565Y0393807D01*
X0361965Y0393207D01*
X0361364Y0393807D01*
X0360764Y0393807D01*
X0360163Y0393207D01*
X0360163Y0392006D01*
X0360764Y0391405D01*
X0360764Y0390124D02*
X0363166Y0390124D01*
X0363766Y0389524D01*
X0363766Y0387722D01*
X0360163Y0387722D01*
X0360163Y0389524D01*
X0360764Y0390124D01*
X0363166Y0391405D02*
X0363766Y0392006D01*
X0363766Y0393207D01*
X0361965Y0393207D02*
X0361965Y0392606D01*
X0353766Y0393207D02*
X0351965Y0391405D01*
X0351965Y0393807D01*
X0353766Y0393207D02*
X0350163Y0393207D01*
X0350764Y0390124D02*
X0353166Y0390124D01*
X0353766Y0389524D01*
X0353766Y0387722D01*
X0350163Y0387722D01*
X0350163Y0389524D01*
X0350764Y0390124D01*
X0343766Y0389524D02*
X0343766Y0387722D01*
X0340163Y0387722D01*
X0340163Y0389524D01*
X0340764Y0390124D01*
X0343166Y0390124D01*
X0343766Y0389524D01*
X0343766Y0391405D02*
X0341965Y0391405D01*
X0342565Y0392606D01*
X0342565Y0393207D01*
X0341965Y0393807D01*
X0340764Y0393807D01*
X0340163Y0393207D01*
X0340163Y0392006D01*
X0340764Y0391405D01*
X0343766Y0391405D02*
X0343766Y0393807D01*
X0333766Y0393807D02*
X0333166Y0392606D01*
X0331965Y0391405D01*
X0331965Y0393207D01*
X0331364Y0393807D01*
X0330764Y0393807D01*
X0330163Y0393207D01*
X0330163Y0392006D01*
X0330764Y0391405D01*
X0331965Y0391405D01*
X0333166Y0390124D02*
X0333766Y0389524D01*
X0333766Y0387722D01*
X0330163Y0387722D01*
X0330163Y0389524D01*
X0330764Y0390124D01*
X0333166Y0390124D01*
X0323766Y0389524D02*
X0323766Y0387722D01*
X0320163Y0387722D01*
X0320163Y0389524D01*
X0320764Y0390124D01*
X0323166Y0390124D01*
X0323766Y0389524D01*
X0323766Y0391405D02*
X0323766Y0393807D01*
X0323166Y0393807D01*
X0320764Y0391405D01*
X0320163Y0391405D01*
X0307703Y0391691D02*
X0307703Y0392892D01*
X0307103Y0393493D01*
X0306502Y0393493D01*
X0305902Y0392892D01*
X0305902Y0391691D01*
X0306502Y0391090D01*
X0307103Y0391090D01*
X0307703Y0391691D01*
X0305902Y0391691D02*
X0305301Y0391090D01*
X0304701Y0391090D01*
X0304100Y0391691D01*
X0304100Y0392892D01*
X0304701Y0393493D01*
X0305301Y0393493D01*
X0305902Y0392892D01*
X0307103Y0389809D02*
X0307703Y0389209D01*
X0307703Y0387407D01*
X0304100Y0387407D01*
X0304100Y0389209D01*
X0304701Y0389809D01*
X0307103Y0389809D01*
X0297703Y0389209D02*
X0297703Y0388008D01*
X0297103Y0387407D01*
X0294701Y0387407D01*
X0294100Y0388008D01*
X0294100Y0389209D01*
X0294701Y0389809D01*
X0297103Y0389809D02*
X0297703Y0389209D01*
X0297703Y0391090D02*
X0297703Y0393493D01*
X0297703Y0392292D02*
X0294100Y0392292D01*
X0294701Y0394774D02*
X0294100Y0395374D01*
X0294100Y0396575D01*
X0294701Y0397176D01*
X0295301Y0397176D01*
X0295902Y0396575D01*
X0295902Y0395374D01*
X0296502Y0394774D01*
X0297103Y0394774D01*
X0297703Y0395374D01*
X0297703Y0396575D01*
X0297103Y0397176D01*
X0297103Y0398457D02*
X0297703Y0399057D01*
X0297703Y0400258D01*
X0297103Y0400859D01*
X0294701Y0398457D01*
X0294100Y0399057D01*
X0294100Y0400258D01*
X0294701Y0400859D01*
X0297103Y0400859D01*
X0297103Y0398457D02*
X0294701Y0398457D01*
X0287703Y0399057D02*
X0287103Y0398457D01*
X0284701Y0398457D01*
X0287103Y0400859D01*
X0284701Y0400859D01*
X0284100Y0400258D01*
X0284100Y0399057D01*
X0284701Y0398457D01*
X0284701Y0397176D02*
X0284100Y0396575D01*
X0284100Y0395374D01*
X0284701Y0394774D01*
X0285902Y0395374D02*
X0285902Y0396575D01*
X0285301Y0397176D01*
X0284701Y0397176D01*
X0285902Y0395374D02*
X0286502Y0394774D01*
X0287103Y0394774D01*
X0287703Y0395374D01*
X0287703Y0396575D01*
X0287103Y0397176D01*
X0287703Y0399057D02*
X0287703Y0400258D01*
X0287103Y0400859D01*
X0287703Y0393493D02*
X0287703Y0391090D01*
X0287703Y0392292D02*
X0284100Y0392292D01*
X0284100Y0389809D02*
X0285301Y0388608D01*
X0285301Y0389209D02*
X0285301Y0387407D01*
X0284100Y0387407D02*
X0287703Y0387407D01*
X0287703Y0389209D01*
X0287103Y0389809D01*
X0285902Y0389809D01*
X0285301Y0389209D01*
X0277703Y0389809D02*
X0277703Y0387407D01*
X0277703Y0388608D02*
X0274100Y0388608D01*
X0274100Y0391090D02*
X0277703Y0393493D01*
X0277103Y0394774D02*
X0274701Y0394774D01*
X0277103Y0397176D01*
X0274701Y0397176D01*
X0274100Y0396575D01*
X0274100Y0395374D01*
X0274701Y0394774D01*
X0274100Y0393493D02*
X0277703Y0391090D01*
X0277103Y0394774D02*
X0277703Y0395374D01*
X0277703Y0396575D01*
X0277103Y0397176D01*
X0267703Y0396575D02*
X0267103Y0397176D01*
X0264701Y0394774D01*
X0264100Y0395374D01*
X0264100Y0396575D01*
X0264701Y0397176D01*
X0267103Y0397176D01*
X0267703Y0396575D02*
X0267703Y0395374D01*
X0267103Y0394774D01*
X0264701Y0394774D01*
X0264100Y0393493D02*
X0267703Y0391090D01*
X0267103Y0389809D02*
X0265902Y0389809D01*
X0265301Y0389209D01*
X0265301Y0387407D01*
X0264100Y0387407D02*
X0267703Y0387407D01*
X0267703Y0389209D01*
X0267103Y0389809D01*
X0265301Y0388608D02*
X0264100Y0389809D01*
X0264100Y0391090D02*
X0267703Y0393493D01*
X0258018Y0394774D02*
X0254415Y0394774D01*
X0255616Y0394774D02*
X0258018Y0397176D01*
X0257418Y0398457D02*
X0258018Y0399057D01*
X0258018Y0400258D01*
X0257418Y0400859D01*
X0255016Y0398457D01*
X0254415Y0399057D01*
X0254415Y0400258D01*
X0255016Y0400859D01*
X0257418Y0400859D01*
X0257418Y0398457D02*
X0255016Y0398457D01*
X0254415Y0397176D02*
X0256217Y0395374D01*
X0254415Y0393493D02*
X0254415Y0391090D01*
X0258018Y0391090D01*
X0257418Y0389809D02*
X0258018Y0389209D01*
X0258018Y0388008D01*
X0257418Y0387407D01*
X0255016Y0387407D01*
X0254415Y0388008D01*
X0254415Y0389209D01*
X0255016Y0389809D01*
X0249412Y0389209D02*
X0249412Y0388008D01*
X0248811Y0387407D01*
X0246409Y0387407D01*
X0245809Y0388008D01*
X0245809Y0389209D01*
X0246409Y0389809D01*
X0247610Y0389809D01*
X0247610Y0388608D01*
X0248811Y0389809D02*
X0249412Y0389209D01*
X0249412Y0391090D02*
X0245809Y0393493D01*
X0249412Y0393493D01*
X0249412Y0394774D02*
X0249412Y0396575D01*
X0248811Y0397176D01*
X0246409Y0397176D01*
X0245809Y0396575D01*
X0245809Y0394774D01*
X0249412Y0394774D01*
X0249412Y0391090D02*
X0245809Y0391090D01*
X0238648Y0391090D02*
X0238648Y0392892D01*
X0238048Y0393493D01*
X0236847Y0393493D01*
X0236246Y0392892D01*
X0236246Y0391090D01*
X0235045Y0391090D02*
X0238648Y0391090D01*
X0237447Y0389809D02*
X0235045Y0389809D01*
X0236847Y0389809D02*
X0236847Y0387407D01*
X0237447Y0387407D02*
X0235045Y0387407D01*
X0237447Y0387407D02*
X0238648Y0388608D01*
X0237447Y0389809D01*
X0236246Y0392292D02*
X0235045Y0393493D01*
X0235045Y0394774D02*
X0235045Y0397176D01*
X0235045Y0398457D02*
X0238648Y0398457D01*
X0238648Y0400859D01*
X0236847Y0399658D02*
X0236847Y0398457D01*
X0238648Y0397176D02*
X0238648Y0394774D01*
X0235045Y0394774D01*
X0236847Y0394774D02*
X0236847Y0395975D01*
X0227979Y0395975D02*
X0226778Y0397176D01*
X0224376Y0397176D01*
X0224376Y0398457D02*
X0224376Y0400859D01*
X0224376Y0399658D02*
X0227979Y0399658D01*
X0226778Y0398457D01*
X0226177Y0397176D02*
X0226177Y0394774D01*
X0226778Y0394774D02*
X0227979Y0395975D01*
X0226778Y0394774D02*
X0224376Y0394774D01*
X0224976Y0393493D02*
X0227378Y0393493D01*
X0227979Y0392892D01*
X0227979Y0391090D01*
X0224376Y0391090D01*
X0224376Y0392892D01*
X0224976Y0393493D01*
X0224976Y0389809D02*
X0224376Y0389209D01*
X0224376Y0388008D01*
X0224976Y0387407D01*
X0226177Y0388008D02*
X0226177Y0389209D01*
X0225577Y0389809D01*
X0224976Y0389809D01*
X0226177Y0388008D02*
X0226778Y0387407D01*
X0227378Y0387407D01*
X0227979Y0388008D01*
X0227979Y0389209D01*
X0227378Y0389809D01*
X0217310Y0389209D02*
X0217310Y0388008D01*
X0216709Y0387407D01*
X0216109Y0387407D01*
X0215508Y0388008D01*
X0215508Y0389209D01*
X0214908Y0389809D01*
X0214307Y0389809D01*
X0213707Y0389209D01*
X0213707Y0388008D01*
X0214307Y0387407D01*
X0216709Y0389809D02*
X0217310Y0389209D01*
X0216709Y0391090D02*
X0214307Y0391090D01*
X0213707Y0391691D01*
X0213707Y0392892D01*
X0214307Y0393493D01*
X0213707Y0394774D02*
X0213707Y0397176D01*
X0213707Y0398457D02*
X0213707Y0400859D01*
X0213707Y0399658D02*
X0217310Y0399658D01*
X0216109Y0398457D01*
X0217310Y0394774D02*
X0213707Y0394774D01*
X0216709Y0393493D02*
X0217310Y0392892D01*
X0217310Y0391691D01*
X0216709Y0391090D01*
X0213604Y0365299D02*
X0213604Y0362897D01*
X0213604Y0364098D02*
X0217207Y0364098D01*
X0216006Y0362897D01*
X0213604Y0361616D02*
X0213604Y0359214D01*
X0217207Y0359214D01*
X0216607Y0357933D02*
X0217207Y0357333D01*
X0217207Y0356132D01*
X0216607Y0355531D01*
X0214205Y0355531D01*
X0213604Y0356132D01*
X0213604Y0357333D01*
X0214205Y0357933D01*
X0214205Y0354250D02*
X0213604Y0353650D01*
X0213604Y0352448D01*
X0214205Y0351848D01*
X0215406Y0352448D02*
X0215406Y0353650D01*
X0214805Y0354250D01*
X0214205Y0354250D01*
X0215406Y0352448D02*
X0216006Y0351848D01*
X0216607Y0351848D01*
X0217207Y0352448D01*
X0217207Y0353650D01*
X0216607Y0354250D01*
X0223604Y0353650D02*
X0223604Y0352448D01*
X0224205Y0351848D01*
X0225406Y0352448D02*
X0225406Y0353650D01*
X0224805Y0354250D01*
X0224205Y0354250D01*
X0223604Y0353650D01*
X0223604Y0355531D02*
X0223604Y0357333D01*
X0224205Y0357933D01*
X0226607Y0357933D01*
X0227207Y0357333D01*
X0227207Y0355531D01*
X0223604Y0355531D01*
X0226607Y0354250D02*
X0227207Y0353650D01*
X0227207Y0352448D01*
X0226607Y0351848D01*
X0226006Y0351848D01*
X0225406Y0352448D01*
X0225406Y0359214D02*
X0225406Y0361616D01*
X0226006Y0361616D02*
X0223604Y0361616D01*
X0223604Y0362897D02*
X0223604Y0365299D01*
X0223604Y0364098D02*
X0227207Y0364098D01*
X0226006Y0362897D01*
X0226006Y0361616D02*
X0227207Y0360415D01*
X0226006Y0359214D01*
X0223604Y0359214D01*
X0233604Y0359214D02*
X0233604Y0361616D01*
X0233604Y0362897D02*
X0237207Y0362897D01*
X0237207Y0365299D01*
X0235406Y0364098D02*
X0235406Y0362897D01*
X0237207Y0361616D02*
X0237207Y0359214D01*
X0233604Y0359214D01*
X0233604Y0357933D02*
X0234805Y0356732D01*
X0234805Y0357333D02*
X0234805Y0355531D01*
X0233604Y0355531D02*
X0237207Y0355531D01*
X0237207Y0357333D01*
X0236607Y0357933D01*
X0235406Y0357933D01*
X0234805Y0357333D01*
X0235406Y0359214D02*
X0235406Y0360415D01*
X0235406Y0354250D02*
X0235406Y0351848D01*
X0236006Y0351848D02*
X0237207Y0353049D01*
X0236006Y0354250D01*
X0233604Y0354250D01*
X0233604Y0351848D02*
X0236006Y0351848D01*
X0243604Y0356132D02*
X0243604Y0357333D01*
X0244205Y0357933D01*
X0245406Y0357933D01*
X0245406Y0356732D01*
X0246607Y0355531D02*
X0244205Y0355531D01*
X0243604Y0356132D01*
X0246607Y0355531D02*
X0247207Y0356132D01*
X0247207Y0357333D01*
X0246607Y0357933D01*
X0247207Y0359214D02*
X0243604Y0361616D01*
X0247207Y0361616D01*
X0247207Y0362897D02*
X0247207Y0364699D01*
X0246607Y0365299D01*
X0244205Y0365299D01*
X0243604Y0364699D01*
X0243604Y0362897D01*
X0247207Y0362897D01*
X0247207Y0359214D02*
X0243604Y0359214D01*
X0253604Y0359214D02*
X0257207Y0361616D01*
X0256607Y0362897D02*
X0257207Y0363498D01*
X0257207Y0364699D01*
X0256607Y0365299D01*
X0254205Y0362897D01*
X0253604Y0363498D01*
X0253604Y0364699D01*
X0254205Y0365299D01*
X0256607Y0365299D01*
X0256607Y0362897D02*
X0254205Y0362897D01*
X0253604Y0361616D02*
X0257207Y0359214D01*
X0256607Y0357933D02*
X0255406Y0357933D01*
X0254805Y0357333D01*
X0254805Y0355531D01*
X0253604Y0355531D02*
X0257207Y0355531D01*
X0257207Y0357333D01*
X0256607Y0357933D01*
X0254805Y0356732D02*
X0253604Y0357933D01*
X0263604Y0356732D02*
X0267207Y0356732D01*
X0267207Y0355531D02*
X0267207Y0357933D01*
X0267207Y0359214D02*
X0263604Y0361616D01*
X0264205Y0362897D02*
X0266607Y0365299D01*
X0264205Y0365299D01*
X0263604Y0364699D01*
X0263604Y0363498D01*
X0264205Y0362897D01*
X0266607Y0362897D01*
X0267207Y0363498D01*
X0267207Y0364699D01*
X0266607Y0365299D01*
X0267207Y0361616D02*
X0263604Y0359214D01*
X0273604Y0359214D02*
X0273604Y0361616D01*
X0273604Y0362897D02*
X0276006Y0365299D01*
X0276607Y0365299D01*
X0277207Y0364699D01*
X0277207Y0363498D01*
X0276607Y0362897D01*
X0273604Y0362897D02*
X0273604Y0365299D01*
X0273604Y0359214D02*
X0277207Y0359214D01*
X0276607Y0357933D02*
X0277207Y0357333D01*
X0277207Y0356132D01*
X0276607Y0355531D01*
X0274205Y0355531D01*
X0273604Y0356132D01*
X0273604Y0357333D01*
X0274205Y0357933D01*
X0274205Y0354250D02*
X0273604Y0353650D01*
X0273604Y0352448D01*
X0274205Y0351848D01*
X0275406Y0352448D02*
X0275406Y0353650D01*
X0274805Y0354250D01*
X0274205Y0354250D01*
X0275406Y0352448D02*
X0276006Y0351848D01*
X0276607Y0351848D01*
X0277207Y0352448D01*
X0277207Y0353650D01*
X0276607Y0354250D01*
X0283604Y0353650D02*
X0283604Y0352448D01*
X0284205Y0351848D01*
X0285406Y0352448D02*
X0285406Y0353650D01*
X0284805Y0354250D01*
X0284205Y0354250D01*
X0283604Y0353650D01*
X0283604Y0355531D02*
X0283604Y0357333D01*
X0284205Y0357933D01*
X0286607Y0357933D01*
X0287207Y0357333D01*
X0287207Y0355531D01*
X0283604Y0355531D01*
X0286607Y0354250D02*
X0287207Y0353650D01*
X0287207Y0352448D01*
X0286607Y0351848D01*
X0286006Y0351848D01*
X0285406Y0352448D01*
X0285406Y0359214D02*
X0285406Y0361616D01*
X0286006Y0361616D02*
X0283604Y0361616D01*
X0283604Y0362897D02*
X0286006Y0365299D01*
X0286607Y0365299D01*
X0287207Y0364699D01*
X0287207Y0363498D01*
X0286607Y0362897D01*
X0286006Y0361616D02*
X0287207Y0360415D01*
X0286006Y0359214D01*
X0283604Y0359214D01*
X0283604Y0362897D02*
X0283604Y0365299D01*
X0293604Y0365299D02*
X0293604Y0362897D01*
X0296006Y0365299D01*
X0296607Y0365299D01*
X0297207Y0364699D01*
X0297207Y0363498D01*
X0296607Y0362897D01*
X0297207Y0361616D02*
X0294805Y0359214D01*
X0295406Y0359815D02*
X0293604Y0361616D01*
X0293604Y0359214D02*
X0297207Y0359214D01*
X0297207Y0355531D02*
X0293604Y0355531D01*
X0293604Y0357933D01*
X0294205Y0354250D02*
X0293604Y0353650D01*
X0293604Y0352448D01*
X0294205Y0351848D01*
X0296607Y0351848D01*
X0297207Y0352448D01*
X0297207Y0353650D01*
X0296607Y0354250D01*
X0303604Y0356732D02*
X0307207Y0356732D01*
X0307207Y0355531D02*
X0307207Y0357933D01*
X0307207Y0359214D02*
X0303604Y0361616D01*
X0304205Y0362897D02*
X0303604Y0363498D01*
X0303604Y0364699D01*
X0304205Y0365299D01*
X0304805Y0365299D01*
X0305406Y0364699D01*
X0305406Y0364098D01*
X0305406Y0364699D02*
X0306006Y0365299D01*
X0306607Y0365299D01*
X0307207Y0364699D01*
X0307207Y0363498D01*
X0306607Y0362897D01*
X0307207Y0361616D02*
X0303604Y0359214D01*
X0319510Y0359214D02*
X0323113Y0361616D01*
X0322512Y0362897D02*
X0323113Y0363498D01*
X0323113Y0364699D01*
X0322512Y0365299D01*
X0321912Y0365299D01*
X0321311Y0364699D01*
X0320711Y0365299D01*
X0320110Y0365299D01*
X0319510Y0364699D01*
X0319510Y0363498D01*
X0320110Y0362897D01*
X0319510Y0361616D02*
X0323113Y0359214D01*
X0322512Y0357933D02*
X0321311Y0357933D01*
X0320711Y0357333D01*
X0320711Y0355531D01*
X0320711Y0356732D02*
X0319510Y0357933D01*
X0319510Y0355531D02*
X0323113Y0355531D01*
X0323113Y0357333D01*
X0322512Y0357933D01*
X0321311Y0364098D02*
X0321311Y0364699D01*
X0329667Y0364699D02*
X0330268Y0365299D01*
X0332670Y0365299D01*
X0333270Y0364699D01*
X0333270Y0362897D01*
X0329667Y0362897D01*
X0329667Y0364699D01*
X0329667Y0361616D02*
X0333270Y0361616D01*
X0333270Y0359214D02*
X0329667Y0359214D01*
X0330268Y0357933D02*
X0329667Y0357333D01*
X0329667Y0356132D01*
X0330268Y0355531D01*
X0332670Y0355531D01*
X0333270Y0356132D01*
X0333270Y0357333D01*
X0332670Y0357933D01*
X0331469Y0357933D02*
X0331469Y0356732D01*
X0331469Y0357933D02*
X0330268Y0357933D01*
X0333270Y0359214D02*
X0329667Y0361616D01*
X0339510Y0361616D02*
X0343113Y0361616D01*
X0343113Y0362897D02*
X0343113Y0365299D01*
X0343113Y0364098D02*
X0339510Y0364098D01*
X0339510Y0361616D02*
X0343113Y0359214D01*
X0339510Y0359214D01*
X0339510Y0357960D02*
X0339510Y0356759D01*
X0339510Y0357359D02*
X0343113Y0357359D01*
X0343113Y0356759D02*
X0343113Y0357960D01*
X0338909Y0355478D02*
X0338909Y0353076D01*
X0341311Y0350594D02*
X0341311Y0349393D01*
X0341311Y0348111D02*
X0340711Y0347511D01*
X0340711Y0345709D01*
X0339510Y0345709D02*
X0343113Y0345709D01*
X0343113Y0347511D01*
X0342512Y0348111D01*
X0341311Y0348111D01*
X0340711Y0346910D02*
X0339510Y0348111D01*
X0339510Y0349393D02*
X0343113Y0349393D01*
X0343113Y0351795D01*
X0348909Y0351848D02*
X0348909Y0354250D01*
X0350110Y0355531D02*
X0349510Y0356132D01*
X0349510Y0357333D01*
X0350110Y0357933D01*
X0352512Y0357933D01*
X0353113Y0357333D01*
X0353113Y0356132D01*
X0352512Y0355531D01*
X0350110Y0355531D01*
X0350110Y0359214D02*
X0349510Y0359815D01*
X0349510Y0361016D01*
X0350110Y0361616D01*
X0353113Y0361616D01*
X0353113Y0362897D02*
X0353113Y0365299D01*
X0353113Y0364098D02*
X0349510Y0364098D01*
X0350110Y0359214D02*
X0353113Y0359214D01*
X0358909Y0357933D02*
X0358909Y0355531D01*
X0360110Y0354250D02*
X0359510Y0353650D01*
X0359510Y0352448D01*
X0360110Y0351848D01*
X0362512Y0351848D01*
X0363113Y0352448D01*
X0363113Y0353650D01*
X0362512Y0354250D01*
X0361311Y0354250D02*
X0361311Y0353049D01*
X0361311Y0354250D02*
X0360110Y0354250D01*
X0359510Y0350567D02*
X0363113Y0350567D01*
X0363113Y0348165D02*
X0359510Y0348165D01*
X0359510Y0346884D02*
X0360711Y0345683D01*
X0360711Y0346283D02*
X0360711Y0344482D01*
X0359510Y0344482D02*
X0363113Y0344482D01*
X0363113Y0346283D01*
X0362512Y0346884D01*
X0361311Y0346884D01*
X0360711Y0346283D01*
X0363113Y0348165D02*
X0359510Y0350567D01*
X0353113Y0349966D02*
X0353113Y0348765D01*
X0352512Y0348165D01*
X0350110Y0348165D01*
X0349510Y0348765D01*
X0349510Y0349966D01*
X0350110Y0350567D01*
X0351311Y0350567D01*
X0351311Y0349366D01*
X0352512Y0350567D02*
X0353113Y0349966D01*
X0353113Y0346884D02*
X0349510Y0346884D01*
X0353113Y0344482D01*
X0349510Y0344482D01*
X0349510Y0343201D02*
X0350711Y0342000D01*
X0350711Y0342600D02*
X0350711Y0340799D01*
X0349510Y0340799D02*
X0353113Y0340799D01*
X0353113Y0342600D01*
X0352512Y0343201D01*
X0351311Y0343201D01*
X0350711Y0342600D01*
X0353113Y0339517D02*
X0353113Y0337115D01*
X0353113Y0338316D02*
X0349510Y0338316D01*
X0343113Y0342026D02*
X0339510Y0344428D01*
X0343113Y0344428D01*
X0343113Y0342026D02*
X0339510Y0342026D01*
X0359510Y0342000D02*
X0363113Y0342000D01*
X0363113Y0340799D02*
X0363113Y0343201D01*
X0369510Y0344482D02*
X0371912Y0346884D01*
X0372512Y0346884D01*
X0373113Y0346283D01*
X0373113Y0345082D01*
X0372512Y0344482D01*
X0373113Y0343201D02*
X0373113Y0340799D01*
X0369510Y0340799D01*
X0369510Y0339517D02*
X0370711Y0338316D01*
X0370711Y0338917D02*
X0370711Y0337115D01*
X0369510Y0337115D02*
X0373113Y0337115D01*
X0373113Y0338917D01*
X0372512Y0339517D01*
X0371311Y0339517D01*
X0370711Y0338917D01*
X0371311Y0340799D02*
X0371311Y0342000D01*
X0369510Y0344482D02*
X0369510Y0346884D01*
X0370110Y0348165D02*
X0369510Y0348765D01*
X0369510Y0349966D01*
X0370110Y0350567D01*
X0370711Y0350567D01*
X0371311Y0349966D01*
X0371311Y0349366D01*
X0371311Y0349966D02*
X0371912Y0350567D01*
X0372512Y0350567D01*
X0373113Y0349966D01*
X0373113Y0348765D01*
X0372512Y0348165D01*
X0372512Y0351848D02*
X0373113Y0352448D01*
X0373113Y0353650D01*
X0372512Y0354250D01*
X0371912Y0354250D01*
X0371311Y0353650D01*
X0370711Y0354250D01*
X0370110Y0354250D01*
X0369510Y0353650D01*
X0369510Y0352448D01*
X0370110Y0351848D01*
X0371311Y0353049D02*
X0371311Y0353650D01*
X0368909Y0355531D02*
X0368909Y0357933D01*
X0369510Y0359214D02*
X0369510Y0361616D01*
X0369510Y0362897D02*
X0373113Y0362897D01*
X0369510Y0365299D01*
X0373113Y0365299D01*
X0373910Y0366381D02*
X0373910Y0336915D01*
X0379510Y0344482D02*
X0383113Y0344482D01*
X0379510Y0346884D01*
X0383113Y0346884D01*
X0383113Y0348165D02*
X0383113Y0349966D01*
X0382512Y0350567D01*
X0381311Y0350567D01*
X0380711Y0349966D01*
X0380711Y0348165D01*
X0380711Y0349366D02*
X0379510Y0350567D01*
X0379510Y0351848D02*
X0383113Y0351848D01*
X0383113Y0354250D01*
X0381311Y0353049D02*
X0381311Y0351848D01*
X0379510Y0348165D02*
X0383113Y0348165D01*
X0383910Y0344282D02*
X0383910Y0366381D01*
X0383113Y0365299D02*
X0379510Y0365299D01*
X0383113Y0362897D01*
X0379510Y0362897D01*
X0379510Y0361616D02*
X0379510Y0359214D01*
X0383113Y0359214D01*
X0383113Y0361616D01*
X0381311Y0360415D02*
X0381311Y0359214D01*
X0378909Y0357933D02*
X0378909Y0355531D01*
X0373113Y0359214D02*
X0373113Y0361616D01*
X0371311Y0360415D02*
X0371311Y0359214D01*
X0369510Y0359214D02*
X0373113Y0359214D01*
X0363113Y0359214D02*
X0359510Y0359214D01*
X0359510Y0361616D01*
X0359510Y0362897D02*
X0363113Y0362897D01*
X0359510Y0365299D01*
X0363113Y0365299D01*
X0363113Y0361616D02*
X0363113Y0359214D01*
X0361311Y0359214D02*
X0361311Y0360415D01*
X0388909Y0357933D02*
X0388909Y0355531D01*
X0389510Y0354250D02*
X0389510Y0351848D01*
X0393113Y0351848D01*
X0393113Y0354250D01*
X0391311Y0353049D02*
X0391311Y0351848D01*
X0390711Y0350567D02*
X0390110Y0350567D01*
X0389510Y0349966D01*
X0389510Y0348765D01*
X0390110Y0348165D01*
X0391311Y0348765D02*
X0391311Y0349966D01*
X0390711Y0350567D01*
X0392512Y0350567D02*
X0393113Y0349966D01*
X0393113Y0348765D01*
X0392512Y0348165D01*
X0391912Y0348165D01*
X0391311Y0348765D01*
X0389510Y0346884D02*
X0393113Y0346884D01*
X0393113Y0344482D02*
X0389510Y0346884D01*
X0389510Y0344482D02*
X0393113Y0344482D01*
X0393113Y0343201D02*
X0393113Y0340799D01*
X0389510Y0340799D01*
X0389510Y0343201D01*
X0391311Y0342000D02*
X0391311Y0340799D01*
X0390711Y0339517D02*
X0390110Y0339517D01*
X0389510Y0338917D01*
X0389510Y0337716D01*
X0390110Y0337115D01*
X0391311Y0337716D02*
X0391311Y0338917D01*
X0390711Y0339517D01*
X0392512Y0339517D02*
X0393113Y0338917D01*
X0393113Y0337716D01*
X0392512Y0337115D01*
X0391912Y0337115D01*
X0391311Y0337716D01*
X0393910Y0336915D02*
X0393910Y0366381D01*
X0393113Y0365299D02*
X0389510Y0365299D01*
X0393113Y0362897D01*
X0389510Y0362897D01*
X0389510Y0361616D02*
X0389510Y0359214D01*
X0393113Y0359214D01*
X0393113Y0361616D01*
X0391311Y0360415D02*
X0391311Y0359214D01*
X0384603Y0239883D02*
X0384603Y0206735D01*
X0383806Y0206935D02*
X0383806Y0208736D01*
X0383205Y0209337D01*
X0382004Y0209337D01*
X0381404Y0208736D01*
X0381404Y0206935D01*
X0381404Y0208136D02*
X0380203Y0209337D01*
X0380203Y0210618D02*
X0383806Y0210618D01*
X0383806Y0213020D01*
X0383205Y0214301D02*
X0383806Y0214902D01*
X0383806Y0216103D01*
X0383205Y0216703D01*
X0382605Y0216703D01*
X0380203Y0214301D01*
X0380203Y0216703D01*
X0380803Y0217984D02*
X0380203Y0218585D01*
X0380203Y0219786D01*
X0380803Y0220386D01*
X0381404Y0220386D01*
X0382004Y0219786D01*
X0382004Y0219185D01*
X0382004Y0219786D02*
X0382605Y0220386D01*
X0383205Y0220386D01*
X0383806Y0219786D01*
X0383806Y0218585D01*
X0383205Y0217984D01*
X0383205Y0221667D02*
X0383806Y0222268D01*
X0383806Y0223469D01*
X0383205Y0224070D01*
X0382605Y0224070D01*
X0382004Y0223469D01*
X0381404Y0224070D01*
X0380803Y0224070D01*
X0380203Y0223469D01*
X0380203Y0222268D01*
X0380803Y0221667D01*
X0382004Y0222869D02*
X0382004Y0223469D01*
X0379602Y0225351D02*
X0379602Y0227753D01*
X0380203Y0229034D02*
X0383806Y0229034D01*
X0383806Y0230835D01*
X0383205Y0231436D01*
X0382004Y0231436D01*
X0381404Y0230835D01*
X0381404Y0229034D01*
X0381404Y0230235D02*
X0380203Y0231436D01*
X0380803Y0232717D02*
X0380203Y0233317D01*
X0380203Y0234518D01*
X0380803Y0235119D01*
X0381404Y0235119D01*
X0382004Y0234518D01*
X0382004Y0233317D01*
X0382605Y0232717D01*
X0383205Y0232717D01*
X0383806Y0233317D01*
X0383806Y0234518D01*
X0383205Y0235119D01*
X0383806Y0236400D02*
X0383806Y0238802D01*
X0383806Y0237601D02*
X0380203Y0237601D01*
X0373806Y0236974D02*
X0373205Y0237574D01*
X0370803Y0237574D01*
X0370203Y0236974D01*
X0370203Y0235773D01*
X0370803Y0235172D01*
X0373205Y0235172D01*
X0373806Y0235773D01*
X0373806Y0236974D01*
X0373806Y0233918D02*
X0373806Y0232717D01*
X0373806Y0233317D02*
X0370203Y0233317D01*
X0370203Y0232717D02*
X0370203Y0233918D01*
X0370803Y0231436D02*
X0373205Y0231436D01*
X0373806Y0230835D01*
X0373806Y0229034D01*
X0370203Y0229034D01*
X0370203Y0230835D01*
X0370803Y0231436D01*
X0370203Y0227753D02*
X0373806Y0227753D01*
X0373806Y0225351D02*
X0370203Y0225351D01*
X0371404Y0226552D01*
X0370203Y0227753D01*
X0370803Y0224070D02*
X0370203Y0223469D01*
X0370203Y0222268D01*
X0370803Y0221667D01*
X0372004Y0222268D02*
X0372004Y0223469D01*
X0371404Y0224070D01*
X0370803Y0224070D01*
X0372004Y0222268D02*
X0372605Y0221667D01*
X0373205Y0221667D01*
X0373806Y0222268D01*
X0373806Y0223469D01*
X0373205Y0224070D01*
X0369602Y0220386D02*
X0369602Y0217984D01*
X0372004Y0215502D02*
X0372004Y0214301D01*
X0372004Y0213020D02*
X0371404Y0212420D01*
X0371404Y0210618D01*
X0371404Y0211819D02*
X0370203Y0213020D01*
X0370203Y0214301D02*
X0373806Y0214301D01*
X0373806Y0216703D01*
X0373205Y0213020D02*
X0372004Y0213020D01*
X0373205Y0213020D02*
X0373806Y0212420D01*
X0373806Y0210618D01*
X0370203Y0210618D01*
X0370203Y0209337D02*
X0373806Y0209337D01*
X0373806Y0206935D02*
X0370203Y0206935D01*
X0370203Y0209337D02*
X0373806Y0206935D01*
X0380203Y0206935D02*
X0383806Y0206935D01*
X0382004Y0210618D02*
X0382004Y0211819D01*
X0390203Y0210618D02*
X0393806Y0210618D01*
X0393806Y0213020D01*
X0393205Y0214301D02*
X0393806Y0214902D01*
X0393806Y0216103D01*
X0393205Y0216703D01*
X0392605Y0216703D01*
X0390203Y0214301D01*
X0390203Y0216703D01*
X0390803Y0217984D02*
X0390203Y0218585D01*
X0390203Y0219786D01*
X0390803Y0220386D01*
X0391404Y0220386D01*
X0392004Y0219786D01*
X0392004Y0219185D01*
X0392004Y0219786D02*
X0392605Y0220386D01*
X0393205Y0220386D01*
X0393806Y0219786D01*
X0393806Y0218585D01*
X0393205Y0217984D01*
X0393205Y0221667D02*
X0393806Y0222268D01*
X0393806Y0223469D01*
X0393205Y0224070D01*
X0392605Y0224070D01*
X0392004Y0223469D01*
X0391404Y0224070D01*
X0390803Y0224070D01*
X0390203Y0223469D01*
X0390203Y0222268D01*
X0390803Y0221667D01*
X0392004Y0222869D02*
X0392004Y0223469D01*
X0389602Y0225351D02*
X0389602Y0227753D01*
X0390803Y0229034D02*
X0390203Y0229634D01*
X0390203Y0230835D01*
X0390803Y0231436D01*
X0391404Y0231436D01*
X0392004Y0230835D01*
X0392004Y0229634D01*
X0392605Y0229034D01*
X0393205Y0229034D01*
X0393806Y0229634D01*
X0393806Y0230835D01*
X0393205Y0231436D01*
X0393806Y0232717D02*
X0390203Y0232717D01*
X0390203Y0235119D01*
X0390203Y0236400D02*
X0393806Y0236400D01*
X0393806Y0238202D01*
X0393205Y0238802D01*
X0392004Y0238802D01*
X0391404Y0238202D01*
X0391404Y0236400D01*
X0392004Y0211819D02*
X0392004Y0210618D01*
X0392004Y0209337D02*
X0391404Y0208736D01*
X0391404Y0206935D01*
X0391404Y0208136D02*
X0390203Y0209337D01*
X0392004Y0209337D02*
X0393205Y0209337D01*
X0393806Y0208736D01*
X0393806Y0206935D01*
X0390203Y0206935D01*
X0389835Y0185339D02*
X0389234Y0184738D01*
X0389234Y0183537D01*
X0389835Y0182937D01*
X0391036Y0182937D02*
X0391636Y0184138D01*
X0391636Y0184738D01*
X0391036Y0185339D01*
X0389835Y0185339D01*
X0391036Y0182937D02*
X0392837Y0182937D01*
X0392837Y0185339D01*
X0391636Y0181656D02*
X0389234Y0181656D01*
X0391036Y0181656D02*
X0391036Y0179254D01*
X0391636Y0179254D02*
X0392837Y0180455D01*
X0391636Y0181656D01*
X0391636Y0179254D02*
X0389234Y0179254D01*
X0382837Y0180455D02*
X0381636Y0181656D01*
X0379234Y0181656D01*
X0381036Y0181656D02*
X0381036Y0179254D01*
X0381636Y0179254D02*
X0382837Y0180455D01*
X0381636Y0179254D02*
X0379234Y0179254D01*
X0381036Y0182937D02*
X0381036Y0185339D01*
X0382837Y0184738D02*
X0379234Y0184738D01*
X0381036Y0182937D02*
X0382837Y0184738D01*
X0372837Y0184738D02*
X0372237Y0185339D01*
X0371636Y0185339D01*
X0371036Y0184738D01*
X0370435Y0185339D01*
X0369835Y0185339D01*
X0369234Y0184738D01*
X0369234Y0183537D01*
X0369835Y0182937D01*
X0369234Y0181656D02*
X0371636Y0181656D01*
X0372837Y0180455D01*
X0371636Y0179254D01*
X0369234Y0179254D01*
X0371036Y0179254D02*
X0371036Y0181656D01*
X0372237Y0182937D02*
X0372837Y0183537D01*
X0372837Y0184738D01*
X0371036Y0184738D02*
X0371036Y0184138D01*
X0362837Y0184738D02*
X0362837Y0183537D01*
X0362237Y0182937D01*
X0361636Y0181656D02*
X0359234Y0181656D01*
X0359234Y0182937D02*
X0361636Y0185339D01*
X0362237Y0185339D01*
X0362837Y0184738D01*
X0361636Y0181656D02*
X0362837Y0180455D01*
X0361636Y0179254D01*
X0359234Y0179254D01*
X0361036Y0179254D02*
X0361036Y0181656D01*
X0359234Y0182937D02*
X0359234Y0185339D01*
X0352837Y0184138D02*
X0349234Y0184138D01*
X0349234Y0182937D02*
X0349234Y0185339D01*
X0351636Y0182937D02*
X0352837Y0184138D01*
X0351636Y0181656D02*
X0349234Y0181656D01*
X0351036Y0181656D02*
X0351036Y0179254D01*
X0351636Y0179254D02*
X0349234Y0179254D01*
X0351636Y0179254D02*
X0352837Y0180455D01*
X0351636Y0181656D01*
X0342837Y0180455D02*
X0341636Y0181656D01*
X0339234Y0181656D01*
X0339835Y0182937D02*
X0342237Y0185339D01*
X0339835Y0185339D01*
X0339234Y0184738D01*
X0339234Y0183537D01*
X0339835Y0182937D01*
X0342237Y0182937D01*
X0342837Y0183537D01*
X0342837Y0184738D01*
X0342237Y0185339D01*
X0341036Y0181656D02*
X0341036Y0179254D01*
X0341636Y0179254D02*
X0342837Y0180455D01*
X0341636Y0179254D02*
X0339234Y0179254D01*
X0323152Y0179200D02*
X0320750Y0179200D01*
X0319549Y0177999D01*
X0320750Y0176798D01*
X0323152Y0176798D01*
X0323152Y0180481D02*
X0323152Y0181682D01*
X0323152Y0181082D02*
X0319549Y0181082D01*
X0319549Y0181682D02*
X0319549Y0180481D01*
X0319549Y0182937D02*
X0323152Y0182937D01*
X0319549Y0185339D01*
X0323152Y0185339D01*
X0313310Y0184738D02*
X0313310Y0182937D01*
X0309707Y0182937D01*
X0309707Y0184738D01*
X0310307Y0185339D01*
X0312709Y0185339D01*
X0313310Y0184738D01*
X0313310Y0181656D02*
X0309707Y0181656D01*
X0313310Y0179254D01*
X0309707Y0179254D01*
X0310307Y0177973D02*
X0311508Y0177973D01*
X0311508Y0176772D01*
X0310307Y0177973D02*
X0309707Y0177372D01*
X0309707Y0176171D01*
X0310307Y0175571D01*
X0312709Y0175571D01*
X0313310Y0176171D01*
X0313310Y0177372D01*
X0312709Y0177973D01*
X0303467Y0177372D02*
X0303467Y0176171D01*
X0302867Y0175571D01*
X0300465Y0175571D01*
X0299864Y0176171D01*
X0299864Y0177372D01*
X0300465Y0177973D01*
X0301666Y0177973D01*
X0301666Y0176772D01*
X0302867Y0177973D02*
X0303467Y0177372D01*
X0303467Y0179254D02*
X0299864Y0181656D01*
X0303467Y0181656D01*
X0303467Y0182937D02*
X0303467Y0184738D01*
X0302867Y0185339D01*
X0300465Y0185339D01*
X0299864Y0184738D01*
X0299864Y0182937D01*
X0303467Y0182937D01*
X0303467Y0179254D02*
X0299864Y0179254D01*
X0293625Y0179254D02*
X0293625Y0181656D01*
X0293625Y0182937D02*
X0291223Y0182937D01*
X0290022Y0184138D01*
X0291223Y0185339D01*
X0293625Y0185339D01*
X0291823Y0181656D02*
X0290622Y0181656D01*
X0290022Y0181055D01*
X0290022Y0179854D01*
X0290622Y0179254D01*
X0291823Y0179254D02*
X0292424Y0180455D01*
X0292424Y0181055D01*
X0291823Y0181656D01*
X0291823Y0179254D02*
X0293625Y0179254D01*
X0282798Y0179254D02*
X0280396Y0179254D01*
X0279195Y0180455D01*
X0280396Y0181656D01*
X0282798Y0181656D01*
X0282197Y0182937D02*
X0282798Y0183537D01*
X0282798Y0184738D01*
X0282197Y0185339D01*
X0281597Y0185339D01*
X0280996Y0184738D01*
X0280396Y0185339D01*
X0279795Y0185339D01*
X0279195Y0184738D01*
X0279195Y0183537D01*
X0279795Y0182937D01*
X0280996Y0184138D02*
X0280996Y0184738D01*
X0280396Y0177973D02*
X0279795Y0177973D01*
X0279195Y0177372D01*
X0279195Y0176171D01*
X0279795Y0175571D01*
X0280996Y0176772D02*
X0280996Y0177372D01*
X0280396Y0177973D01*
X0280996Y0177372D02*
X0281597Y0177973D01*
X0282197Y0177973D01*
X0282798Y0177372D01*
X0282798Y0176171D01*
X0282197Y0175571D01*
X0274736Y0175371D02*
X0274736Y0186420D01*
X0273940Y0185339D02*
X0273940Y0182937D01*
X0273940Y0184138D02*
X0270336Y0184138D01*
X0270937Y0181656D02*
X0270336Y0181055D01*
X0270336Y0179854D01*
X0270937Y0179254D01*
X0272138Y0179854D02*
X0272138Y0181055D01*
X0271538Y0181656D01*
X0270937Y0181656D01*
X0272138Y0179854D02*
X0272739Y0179254D01*
X0273339Y0179254D01*
X0273940Y0179854D01*
X0273940Y0181055D01*
X0273339Y0181656D01*
X0273339Y0177973D02*
X0272138Y0177973D01*
X0271538Y0177372D01*
X0271538Y0175571D01*
X0271538Y0176772D02*
X0270336Y0177973D01*
X0270336Y0175571D02*
X0273940Y0175571D01*
X0273940Y0177372D01*
X0273339Y0177973D01*
X0263113Y0177372D02*
X0262512Y0177973D01*
X0261311Y0177973D01*
X0260711Y0177372D01*
X0260711Y0175570D01*
X0259510Y0175570D02*
X0263113Y0175570D01*
X0263113Y0177372D01*
X0263113Y0179254D02*
X0259510Y0179254D01*
X0259510Y0181656D01*
X0259510Y0182937D02*
X0263113Y0182937D01*
X0263113Y0185339D01*
X0261311Y0184138D02*
X0261311Y0182937D01*
X0263113Y0181656D02*
X0263113Y0179254D01*
X0261311Y0179254D02*
X0261311Y0180455D01*
X0259510Y0177973D02*
X0260711Y0176772D01*
X0260110Y0174289D02*
X0262512Y0174289D01*
X0263113Y0173689D01*
X0263113Y0172488D01*
X0262512Y0171887D01*
X0260110Y0171887D01*
X0259510Y0172488D01*
X0259510Y0173689D01*
X0260110Y0174289D01*
X0259510Y0170633D02*
X0259510Y0169432D01*
X0259510Y0170032D02*
X0263113Y0170032D01*
X0263113Y0169432D02*
X0263113Y0170633D01*
X0253270Y0179254D02*
X0249667Y0181656D01*
X0253270Y0181656D01*
X0252670Y0182937D02*
X0250268Y0182937D01*
X0249667Y0183537D01*
X0249667Y0184738D01*
X0250268Y0185339D01*
X0252670Y0185339D02*
X0253270Y0184738D01*
X0253270Y0183537D01*
X0252670Y0182937D01*
X0253270Y0179254D02*
X0249667Y0179254D01*
X0251079Y0207289D02*
X0250478Y0207890D01*
X0250478Y0209091D01*
X0251079Y0209691D01*
X0252280Y0209691D01*
X0252280Y0208490D01*
X0253481Y0207289D02*
X0251079Y0207289D01*
X0253481Y0207289D02*
X0254081Y0207890D01*
X0254081Y0209091D01*
X0253481Y0209691D01*
X0254081Y0210972D02*
X0250478Y0213374D01*
X0254081Y0213374D01*
X0254081Y0214656D02*
X0250478Y0214656D01*
X0250478Y0216457D01*
X0251079Y0217058D01*
X0253481Y0217058D01*
X0254081Y0216457D01*
X0254081Y0214656D01*
X0254081Y0210972D02*
X0250478Y0210972D01*
X0260321Y0210972D02*
X0263924Y0210972D01*
X0260321Y0213374D01*
X0263924Y0213374D01*
X0263924Y0214656D02*
X0260321Y0214656D01*
X0260321Y0216457D01*
X0260921Y0217058D01*
X0263323Y0217058D01*
X0263924Y0216457D01*
X0263924Y0214656D01*
X0263323Y0209691D02*
X0263924Y0209091D01*
X0263924Y0207890D01*
X0263323Y0207289D01*
X0260921Y0207289D01*
X0260321Y0207890D01*
X0260321Y0209091D01*
X0260921Y0209691D01*
X0262122Y0209691D01*
X0262122Y0208490D01*
X0270163Y0207289D02*
X0270163Y0209691D01*
X0270163Y0210972D02*
X0270163Y0212173D01*
X0270163Y0211573D02*
X0273766Y0211573D01*
X0273766Y0212173D02*
X0273766Y0210972D01*
X0273166Y0213428D02*
X0270764Y0213428D01*
X0270163Y0214028D01*
X0270163Y0215229D01*
X0270764Y0215830D01*
X0271965Y0215830D01*
X0271965Y0214629D01*
X0273166Y0215830D02*
X0273766Y0215229D01*
X0273766Y0214028D01*
X0273166Y0213428D01*
X0273766Y0217111D02*
X0270163Y0217111D01*
X0271965Y0217111D02*
X0271965Y0219513D01*
X0273766Y0219513D02*
X0270163Y0219513D01*
X0270163Y0221995D02*
X0273766Y0221995D01*
X0273766Y0220794D02*
X0273766Y0223196D01*
X0269563Y0224477D02*
X0269563Y0226879D01*
X0270163Y0228160D02*
X0270163Y0229361D01*
X0270163Y0228761D02*
X0273766Y0228761D01*
X0273766Y0229361D02*
X0273766Y0228160D01*
X0273766Y0230616D02*
X0270163Y0233018D01*
X0273766Y0233018D01*
X0273766Y0234299D02*
X0273766Y0236701D01*
X0273766Y0235500D02*
X0270163Y0235500D01*
X0270163Y0230616D02*
X0273766Y0230616D01*
X0280006Y0220741D02*
X0280006Y0218339D01*
X0282408Y0220741D01*
X0283008Y0220741D01*
X0283609Y0220140D01*
X0283609Y0218939D01*
X0283008Y0218339D01*
X0283008Y0217058D02*
X0283609Y0216457D01*
X0283609Y0215256D01*
X0283008Y0214656D01*
X0282408Y0214656D01*
X0281807Y0215256D01*
X0281807Y0216457D01*
X0281207Y0217058D01*
X0280606Y0217058D01*
X0280006Y0216457D01*
X0280006Y0215256D01*
X0280606Y0214656D01*
X0280006Y0212173D02*
X0283609Y0212173D01*
X0283609Y0210972D02*
X0283609Y0213374D01*
X0283008Y0209691D02*
X0283609Y0209091D01*
X0283609Y0207289D01*
X0280006Y0207289D01*
X0281207Y0207289D02*
X0281207Y0209091D01*
X0281807Y0209691D01*
X0283008Y0209691D01*
X0281207Y0208490D02*
X0280006Y0209691D01*
X0273766Y0207289D02*
X0270163Y0207289D01*
X0289848Y0207890D02*
X0289848Y0209091D01*
X0290449Y0209691D01*
X0289848Y0207890D02*
X0290449Y0207289D01*
X0292851Y0207289D01*
X0293451Y0207890D01*
X0293451Y0209091D01*
X0292851Y0209691D01*
X0293451Y0210972D02*
X0293451Y0213374D01*
X0293451Y0212173D02*
X0289848Y0212173D01*
X0290449Y0214656D02*
X0289848Y0215256D01*
X0289848Y0216457D01*
X0290449Y0217058D01*
X0291049Y0217058D01*
X0291650Y0216457D01*
X0291650Y0215256D01*
X0292250Y0214656D01*
X0292851Y0214656D01*
X0293451Y0215256D01*
X0293451Y0216457D01*
X0292851Y0217058D01*
X0292851Y0218339D02*
X0293451Y0218939D01*
X0293451Y0220140D01*
X0292851Y0220741D01*
X0292250Y0220741D01*
X0289848Y0218339D01*
X0289848Y0220741D01*
X0300675Y0217058D02*
X0300675Y0214656D01*
X0303077Y0217058D01*
X0303678Y0217058D01*
X0304278Y0216457D01*
X0304278Y0215256D01*
X0303678Y0214656D01*
X0304278Y0213374D02*
X0300675Y0210972D01*
X0300675Y0209691D02*
X0301876Y0208490D01*
X0301876Y0209091D02*
X0301876Y0207289D01*
X0300675Y0207289D02*
X0304278Y0207289D01*
X0304278Y0209091D01*
X0303678Y0209691D01*
X0302477Y0209691D01*
X0301876Y0209091D01*
X0304278Y0210972D02*
X0300675Y0213374D01*
X0310518Y0213374D02*
X0314121Y0210972D01*
X0314121Y0209691D02*
X0314121Y0207289D01*
X0314121Y0208490D02*
X0310518Y0208490D01*
X0310518Y0210972D02*
X0314121Y0213374D01*
X0313520Y0214656D02*
X0314121Y0215256D01*
X0314121Y0216457D01*
X0313520Y0217058D01*
X0312920Y0217058D01*
X0310518Y0214656D01*
X0310518Y0217058D01*
X0319760Y0218339D02*
X0319760Y0220741D01*
X0320360Y0222022D02*
X0320360Y0223223D01*
X0320360Y0222622D02*
X0323963Y0222622D01*
X0323963Y0222022D02*
X0323963Y0223223D01*
X0323963Y0224477D02*
X0320360Y0226879D01*
X0323963Y0226879D01*
X0323963Y0228160D02*
X0323963Y0230562D01*
X0323963Y0229361D02*
X0320360Y0229361D01*
X0320360Y0231844D02*
X0320360Y0234246D01*
X0320360Y0233045D02*
X0323963Y0233045D01*
X0322762Y0231844D01*
X0323963Y0224477D02*
X0320360Y0224477D01*
X0320961Y0217058D02*
X0320360Y0216457D01*
X0320360Y0215256D01*
X0320961Y0214656D01*
X0323363Y0214656D01*
X0323963Y0215256D01*
X0323963Y0216457D01*
X0323363Y0217058D01*
X0323363Y0213374D02*
X0323963Y0212774D01*
X0323963Y0211573D01*
X0323363Y0210972D01*
X0320961Y0210972D01*
X0320360Y0211573D01*
X0320360Y0212774D01*
X0320961Y0213374D01*
X0320360Y0209691D02*
X0322762Y0209691D01*
X0323963Y0208490D01*
X0322762Y0207289D01*
X0320360Y0207289D01*
X0322162Y0207289D02*
X0322162Y0209691D01*
X0341029Y0209691D02*
X0343431Y0209691D01*
X0344632Y0208490D01*
X0343431Y0207289D01*
X0341029Y0207289D01*
X0342831Y0207289D02*
X0342831Y0209691D01*
X0344032Y0210972D02*
X0341630Y0210972D01*
X0341029Y0211573D01*
X0341029Y0212774D01*
X0341630Y0213374D01*
X0341630Y0214656D02*
X0341029Y0215256D01*
X0341029Y0216457D01*
X0341630Y0217058D01*
X0340429Y0218339D02*
X0340429Y0220741D01*
X0341029Y0222022D02*
X0341029Y0223223D01*
X0341029Y0222622D02*
X0344632Y0222622D01*
X0344632Y0222022D02*
X0344632Y0223223D01*
X0344632Y0224477D02*
X0341029Y0226879D01*
X0344632Y0226879D01*
X0344632Y0228160D02*
X0344632Y0230562D01*
X0344632Y0229361D02*
X0341029Y0229361D01*
X0341029Y0231844D02*
X0341029Y0234246D01*
X0341029Y0233045D02*
X0344632Y0233045D01*
X0343431Y0231844D01*
X0350203Y0231489D02*
X0353806Y0231489D01*
X0353806Y0233291D01*
X0353205Y0233891D01*
X0352004Y0233891D01*
X0351404Y0233291D01*
X0351404Y0231489D01*
X0351404Y0232690D02*
X0350203Y0233891D01*
X0350803Y0235172D02*
X0350203Y0235773D01*
X0350203Y0236974D01*
X0350803Y0237574D01*
X0353205Y0237574D01*
X0353806Y0236974D01*
X0353806Y0235773D01*
X0353205Y0235172D01*
X0350803Y0235172D01*
X0351404Y0236373D02*
X0350203Y0237574D01*
X0350203Y0230235D02*
X0350203Y0229034D01*
X0350203Y0229634D02*
X0353806Y0229634D01*
X0353806Y0229034D02*
X0353806Y0230235D01*
X0349602Y0227753D02*
X0349602Y0225351D01*
X0350803Y0224070D02*
X0350203Y0223469D01*
X0350203Y0222268D01*
X0350803Y0221667D01*
X0350803Y0220386D02*
X0350203Y0219786D01*
X0350203Y0218585D01*
X0350803Y0217984D01*
X0350203Y0216703D02*
X0350203Y0214301D01*
X0352605Y0216703D01*
X0353205Y0216703D01*
X0353806Y0216103D01*
X0353806Y0214902D01*
X0353205Y0214301D01*
X0353806Y0213020D02*
X0353806Y0210618D01*
X0350203Y0210618D01*
X0350203Y0209337D02*
X0351404Y0208136D01*
X0351404Y0208736D02*
X0351404Y0206935D01*
X0350203Y0206935D02*
X0353806Y0206935D01*
X0353806Y0208736D01*
X0353205Y0209337D01*
X0352004Y0209337D01*
X0351404Y0208736D01*
X0352004Y0210618D02*
X0352004Y0211819D01*
X0353205Y0217984D02*
X0353806Y0218585D01*
X0353806Y0219786D01*
X0353205Y0220386D01*
X0352605Y0220386D01*
X0352004Y0219786D01*
X0351404Y0220386D01*
X0350803Y0220386D01*
X0352004Y0219786D02*
X0352004Y0219185D01*
X0353205Y0221667D02*
X0353806Y0222268D01*
X0353806Y0223469D01*
X0353205Y0224070D01*
X0352605Y0224070D01*
X0352004Y0223469D01*
X0351404Y0224070D01*
X0350803Y0224070D01*
X0352004Y0223469D02*
X0352004Y0222869D01*
X0344632Y0224477D02*
X0341029Y0224477D01*
X0344032Y0217058D02*
X0344632Y0216457D01*
X0344632Y0215256D01*
X0344032Y0214656D01*
X0341630Y0214656D01*
X0344032Y0213374D02*
X0344632Y0212774D01*
X0344632Y0211573D01*
X0344032Y0210972D01*
X0360203Y0211819D02*
X0363806Y0211819D01*
X0363806Y0210618D02*
X0363806Y0213020D01*
X0363205Y0214301D02*
X0362605Y0214301D01*
X0362004Y0214902D01*
X0362004Y0216103D01*
X0361404Y0216703D01*
X0360803Y0216703D01*
X0360203Y0216103D01*
X0360203Y0214902D01*
X0360803Y0214301D01*
X0363205Y0214301D02*
X0363806Y0214902D01*
X0363806Y0216103D01*
X0363205Y0216703D01*
X0363205Y0217984D02*
X0363806Y0218585D01*
X0363806Y0219786D01*
X0363205Y0220386D01*
X0362605Y0220386D01*
X0362004Y0219786D01*
X0361404Y0220386D01*
X0360803Y0220386D01*
X0360203Y0219786D01*
X0360203Y0218585D01*
X0360803Y0217984D01*
X0362004Y0219185D02*
X0362004Y0219786D01*
X0362004Y0209337D02*
X0361404Y0208736D01*
X0361404Y0206935D01*
X0361404Y0208136D02*
X0360203Y0209337D01*
X0362004Y0209337D02*
X0363205Y0209337D01*
X0363806Y0208736D01*
X0363806Y0206935D01*
X0360203Y0206935D01*
X0081562Y0206817D02*
X0081562Y0204415D01*
X0081562Y0205616D02*
X0077959Y0205616D01*
X0077959Y0208098D02*
X0080361Y0208098D01*
X0081562Y0209299D01*
X0080361Y0210500D01*
X0077959Y0210500D01*
X0077959Y0211782D02*
X0081562Y0211782D01*
X0081562Y0213583D01*
X0080961Y0214184D01*
X0079760Y0214184D01*
X0079160Y0213583D01*
X0079160Y0211782D01*
X0079160Y0212983D02*
X0077959Y0214184D01*
X0078559Y0215465D02*
X0077959Y0216065D01*
X0077959Y0217266D01*
X0078559Y0217867D01*
X0079760Y0217867D01*
X0079760Y0216666D01*
X0080961Y0217867D02*
X0081562Y0217266D01*
X0081562Y0216065D01*
X0080961Y0215465D01*
X0078559Y0215465D01*
X0077959Y0219148D02*
X0077959Y0221550D01*
X0079760Y0220349D02*
X0079760Y0219148D01*
X0077959Y0219148D02*
X0081562Y0219148D01*
X0081562Y0221550D01*
X0081562Y0222831D02*
X0081562Y0225233D01*
X0081562Y0224032D02*
X0077959Y0224032D01*
X0077358Y0226514D02*
X0077358Y0228916D01*
X0078559Y0230197D02*
X0077959Y0230798D01*
X0077959Y0231999D01*
X0078559Y0232599D01*
X0081562Y0232599D01*
X0080961Y0233880D02*
X0080361Y0233880D01*
X0079760Y0234481D01*
X0079760Y0235682D01*
X0079160Y0236282D01*
X0078559Y0236282D01*
X0077959Y0235682D01*
X0077959Y0234481D01*
X0078559Y0233880D01*
X0080961Y0233880D02*
X0081562Y0234481D01*
X0081562Y0235682D01*
X0080961Y0236282D01*
X0081562Y0237564D02*
X0081562Y0239365D01*
X0080961Y0239966D01*
X0080361Y0239966D01*
X0079760Y0239365D01*
X0079760Y0237564D01*
X0079760Y0239365D02*
X0079160Y0239966D01*
X0078559Y0239966D01*
X0077959Y0239365D01*
X0077959Y0237564D01*
X0081562Y0237564D01*
X0081562Y0230197D02*
X0078559Y0230197D01*
X0079760Y0210500D02*
X0079760Y0208098D01*
X0081302Y0262137D02*
X0077699Y0262137D01*
X0077699Y0263939D01*
X0078299Y0264539D01*
X0080701Y0264539D01*
X0081302Y0263939D01*
X0081302Y0262137D01*
X0081302Y0265820D02*
X0077699Y0265820D01*
X0077699Y0267622D01*
X0078299Y0268222D01*
X0078900Y0268222D01*
X0079500Y0267622D01*
X0079500Y0265820D01*
X0081302Y0265820D02*
X0081302Y0267622D01*
X0080701Y0268222D01*
X0080101Y0268222D01*
X0079500Y0267622D01*
X0078299Y0269503D02*
X0077699Y0270104D01*
X0077699Y0271305D01*
X0078299Y0271905D01*
X0079500Y0271905D01*
X0079500Y0270704D01*
X0080701Y0269503D02*
X0078299Y0269503D01*
X0080701Y0269503D02*
X0081302Y0270104D01*
X0081302Y0271305D01*
X0080701Y0271905D01*
X0077098Y0273187D02*
X0077098Y0275589D01*
X0078299Y0276870D02*
X0077699Y0277470D01*
X0077699Y0278671D01*
X0078299Y0279272D01*
X0081302Y0279272D01*
X0080701Y0280553D02*
X0080101Y0280553D01*
X0079500Y0281153D01*
X0079500Y0282354D01*
X0078900Y0282955D01*
X0078299Y0282955D01*
X0077699Y0282354D01*
X0077699Y0281153D01*
X0078299Y0280553D01*
X0080701Y0280553D02*
X0081302Y0281153D01*
X0081302Y0282354D01*
X0080701Y0282955D01*
X0081302Y0284236D02*
X0081302Y0286038D01*
X0080701Y0286638D01*
X0080101Y0286638D01*
X0079500Y0286038D01*
X0079500Y0284236D01*
X0077699Y0284236D02*
X0077699Y0286038D01*
X0078299Y0286638D01*
X0078900Y0286638D01*
X0079500Y0286038D01*
X0077699Y0284236D02*
X0081302Y0284236D01*
X0081302Y0276870D02*
X0078299Y0276870D01*
D12*
X0298625Y0284845D02*
X0306499Y0284845D01*
X0306499Y0298625D01*
X0298625Y0298625D01*
X0298625Y0284845D01*
D13*
X0296194Y0287631D02*
X0295743Y0287180D01*
X0293942Y0287180D01*
X0293491Y0287631D01*
X0293491Y0288532D01*
X0293942Y0288982D01*
X0293942Y0289943D02*
X0293491Y0290393D01*
X0293491Y0291294D01*
X0293942Y0291744D01*
X0294842Y0291744D01*
X0295293Y0291294D01*
X0295293Y0290844D01*
X0294842Y0289943D01*
X0296194Y0289943D01*
X0296194Y0291744D01*
X0295743Y0292705D02*
X0296194Y0293156D01*
X0296194Y0294056D01*
X0295743Y0294507D01*
X0293942Y0292705D01*
X0293491Y0293156D01*
X0293491Y0294056D01*
X0293942Y0294507D01*
X0295743Y0294507D01*
X0295743Y0292705D02*
X0293942Y0292705D01*
X0295743Y0288982D02*
X0296194Y0288532D01*
X0296194Y0287631D01*
X0378784Y0413176D02*
X0379684Y0413176D01*
X0380135Y0413627D01*
X0380135Y0414077D01*
X0379684Y0414527D01*
X0378784Y0414527D01*
X0378333Y0414077D01*
X0378333Y0413627D01*
X0378784Y0413176D01*
X0378784Y0414527D02*
X0378333Y0414978D01*
X0378333Y0415428D01*
X0378784Y0415879D01*
X0379684Y0415879D01*
X0380135Y0415428D01*
X0380135Y0414978D01*
X0379684Y0414527D01*
X0381095Y0414527D02*
X0382897Y0414527D01*
X0381546Y0415879D01*
X0381546Y0413176D01*
X0383858Y0413627D02*
X0384308Y0413176D01*
X0385209Y0413176D01*
X0385659Y0413627D01*
X0385659Y0415428D01*
X0385209Y0415879D01*
X0384308Y0415879D01*
X0383858Y0415428D01*
X0401168Y0414304D02*
X0401168Y0413853D01*
X0402969Y0412052D01*
X0402969Y0411601D01*
X0404381Y0411601D02*
X0404381Y0414304D01*
X0405732Y0412953D01*
X0403930Y0412953D01*
X0402969Y0414304D02*
X0401168Y0414304D01*
X0406692Y0413853D02*
X0407143Y0414304D01*
X0408044Y0414304D01*
X0408494Y0413853D01*
X0408494Y0412052D01*
X0408044Y0411601D01*
X0407143Y0411601D01*
X0406692Y0412052D01*
X0402129Y0407833D02*
X0402579Y0407383D01*
X0402579Y0406482D01*
X0402129Y0406032D01*
X0402129Y0407833D02*
X0401679Y0407833D01*
X0399877Y0406032D01*
X0399877Y0407833D01*
X0399877Y0405071D02*
X0399877Y0403269D01*
X0399877Y0404170D02*
X0402579Y0404170D01*
X0401679Y0403269D01*
X0402579Y0402308D02*
X0400327Y0402308D01*
X0399877Y0401858D01*
X0399877Y0400957D01*
X0400327Y0400507D01*
X0402579Y0400507D01*
X0399823Y0437515D02*
X0397572Y0437515D01*
X0397121Y0437965D01*
X0397121Y0438866D01*
X0397572Y0439316D01*
X0399823Y0439316D01*
X0398472Y0440277D02*
X0398472Y0442079D01*
X0397121Y0441628D02*
X0399823Y0441628D01*
X0398472Y0440277D01*
X0376932Y0462712D02*
X0375131Y0462712D01*
X0374680Y0463162D01*
X0374680Y0464063D01*
X0375131Y0464513D01*
X0376031Y0465474D02*
X0376031Y0467276D01*
X0376031Y0468236D02*
X0376031Y0469588D01*
X0375581Y0470038D01*
X0375131Y0470038D01*
X0374680Y0469588D01*
X0374680Y0468687D01*
X0375131Y0468236D01*
X0376031Y0468236D01*
X0376932Y0469137D01*
X0377382Y0470038D01*
X0376538Y0472160D02*
X0374737Y0472160D01*
X0374286Y0472611D01*
X0374286Y0473512D01*
X0374737Y0473962D01*
X0375638Y0474923D02*
X0375638Y0476724D01*
X0375638Y0477685D02*
X0376088Y0478586D01*
X0376088Y0479036D01*
X0375638Y0479487D01*
X0374737Y0479487D01*
X0374286Y0479036D01*
X0374286Y0478136D01*
X0374737Y0477685D01*
X0375638Y0477685D02*
X0376989Y0477685D01*
X0376989Y0479487D01*
X0376989Y0476274D02*
X0375638Y0474923D01*
X0376538Y0473962D02*
X0376989Y0473512D01*
X0376989Y0472611D01*
X0376538Y0472160D01*
X0376989Y0476274D02*
X0374286Y0476274D01*
X0374680Y0466825D02*
X0377382Y0466825D01*
X0376031Y0465474D01*
X0376932Y0464513D02*
X0377382Y0464063D01*
X0377382Y0463162D01*
X0376932Y0462712D01*
X0362729Y0433089D02*
X0362279Y0433089D01*
X0360477Y0431288D01*
X0360027Y0431288D01*
X0360477Y0430327D02*
X0360027Y0429877D01*
X0360027Y0428976D01*
X0360477Y0428526D01*
X0362279Y0428526D01*
X0362729Y0428976D01*
X0362729Y0429877D01*
X0362279Y0430327D01*
X0362729Y0431288D02*
X0362729Y0433089D01*
X0078908Y0164472D02*
X0076973Y0164472D01*
X0077940Y0163021D02*
X0078908Y0163021D01*
X0078908Y0161570D02*
X0078908Y0164472D01*
X0075961Y0163021D02*
X0074026Y0163021D01*
X0074510Y0161570D02*
X0074510Y0164472D01*
X0075961Y0163021D01*
D14*
X0136079Y0190970D02*
X0137948Y0190970D01*
X0137948Y0191437D02*
X0137480Y0191904D01*
X0136546Y0191904D01*
X0136079Y0191437D01*
X0136079Y0190970D01*
X0136546Y0190036D02*
X0137480Y0190036D01*
X0137948Y0190503D01*
X0137948Y0191437D01*
X0138848Y0191904D02*
X0139315Y0191904D01*
X0140249Y0190970D01*
X0140249Y0190036D02*
X0140249Y0191904D01*
X0141144Y0191904D02*
X0141144Y0190036D01*
X0142545Y0190036D01*
X0143012Y0190503D01*
X0143012Y0191904D01*
X0143906Y0191904D02*
X0145307Y0191904D01*
X0145774Y0191437D01*
X0145307Y0190970D01*
X0144373Y0190970D01*
X0143906Y0190503D01*
X0144373Y0190036D01*
X0145774Y0190036D01*
X0146668Y0190036D02*
X0148069Y0190036D01*
X0148537Y0190503D01*
X0148069Y0190970D01*
X0146668Y0190970D01*
X0146668Y0191437D02*
X0146668Y0190036D01*
X0146668Y0191437D02*
X0147135Y0191904D01*
X0148069Y0191904D01*
X0149431Y0191437D02*
X0149431Y0190970D01*
X0151299Y0190970D01*
X0151299Y0191437D02*
X0150832Y0191904D01*
X0149898Y0191904D01*
X0149431Y0191437D01*
X0149898Y0190036D02*
X0150832Y0190036D01*
X0151299Y0190503D01*
X0151299Y0191437D01*
X0152193Y0191437D02*
X0152193Y0190036D01*
X0153127Y0190036D02*
X0153127Y0191437D01*
X0152660Y0191904D01*
X0152193Y0191437D01*
X0153127Y0191437D02*
X0153594Y0191904D01*
X0154061Y0191904D01*
X0154061Y0190036D01*
X0154982Y0187404D02*
X0154982Y0186003D01*
X0154515Y0185536D01*
X0154048Y0186003D01*
X0153581Y0185536D01*
X0153114Y0186003D01*
X0153114Y0187404D01*
X0152220Y0186937D02*
X0151753Y0187404D01*
X0150819Y0187404D01*
X0150351Y0186937D01*
X0150351Y0186470D01*
X0152220Y0186470D01*
X0152220Y0186003D02*
X0152220Y0186937D01*
X0152220Y0186003D02*
X0151753Y0185536D01*
X0150819Y0185536D01*
X0149457Y0185536D02*
X0149457Y0187404D01*
X0148523Y0187404D02*
X0148056Y0187404D01*
X0148523Y0187404D02*
X0149457Y0186470D01*
X0155876Y0186937D02*
X0156343Y0187404D01*
X0157277Y0187404D01*
X0157744Y0186937D01*
X0157744Y0186003D01*
X0157277Y0185536D01*
X0156343Y0185536D01*
X0155876Y0186003D01*
X0155876Y0186937D01*
X0158638Y0186937D02*
X0158638Y0186003D01*
X0159106Y0185536D01*
X0160507Y0185536D01*
X0160507Y0184602D02*
X0160507Y0187404D01*
X0159106Y0187404D01*
X0158638Y0186937D01*
X0158185Y0190036D02*
X0157718Y0190503D01*
X0157718Y0191437D01*
X0158185Y0191904D01*
X0159119Y0191904D01*
X0159586Y0191437D01*
X0159586Y0190503D01*
X0159119Y0190036D01*
X0158185Y0190036D01*
X0160493Y0190036D02*
X0160960Y0190503D01*
X0160960Y0192371D01*
X0160493Y0191904D02*
X0161428Y0191904D01*
X0165097Y0191904D02*
X0166031Y0191904D01*
X0165564Y0192371D02*
X0165564Y0190503D01*
X0165097Y0190036D01*
X0166926Y0190036D02*
X0166926Y0191904D01*
X0168794Y0191904D02*
X0168794Y0190503D01*
X0168327Y0190036D01*
X0166926Y0190036D01*
X0169688Y0190503D02*
X0170155Y0190036D01*
X0171089Y0190036D01*
X0171556Y0190503D01*
X0171556Y0192371D01*
X0171089Y0192838D01*
X0170155Y0192838D01*
X0169688Y0192371D01*
D15*
X0386223Y0466812D02*
X0386223Y0467052D01*
X0386223Y0474686D02*
X0386223Y0474926D01*
D16*
X0368617Y0429530D02*
X0368397Y0429530D01*
X0390160Y0423735D02*
X0390160Y0423515D01*
X0401971Y0419798D02*
X0401971Y0419578D01*
D17*
X0395642Y0321499D02*
X0395644Y0321657D01*
X0395650Y0321814D01*
X0395660Y0321972D01*
X0395674Y0322129D01*
X0395692Y0322285D01*
X0395713Y0322442D01*
X0395739Y0322597D01*
X0395769Y0322752D01*
X0395802Y0322906D01*
X0395840Y0323059D01*
X0395881Y0323212D01*
X0395926Y0323363D01*
X0395975Y0323513D01*
X0396028Y0323661D01*
X0396084Y0323809D01*
X0396145Y0323954D01*
X0396208Y0324099D01*
X0396276Y0324241D01*
X0396347Y0324382D01*
X0396421Y0324521D01*
X0396499Y0324658D01*
X0396581Y0324793D01*
X0396665Y0324926D01*
X0396754Y0325057D01*
X0396845Y0325185D01*
X0396940Y0325312D01*
X0397037Y0325435D01*
X0397138Y0325557D01*
X0397242Y0325675D01*
X0397349Y0325791D01*
X0397459Y0325904D01*
X0397571Y0326015D01*
X0397687Y0326122D01*
X0397805Y0326227D01*
X0397925Y0326329D01*
X0398048Y0326427D01*
X0398174Y0326523D01*
X0398302Y0326615D01*
X0398432Y0326704D01*
X0398564Y0326790D01*
X0398699Y0326872D01*
X0398836Y0326951D01*
X0398974Y0327026D01*
X0399114Y0327098D01*
X0399257Y0327166D01*
X0399400Y0327231D01*
X0399546Y0327292D01*
X0399693Y0327349D01*
X0399841Y0327403D01*
X0399991Y0327453D01*
X0400141Y0327499D01*
X0400293Y0327541D01*
X0400446Y0327580D01*
X0400600Y0327614D01*
X0400755Y0327645D01*
X0400910Y0327671D01*
X0401066Y0327694D01*
X0401223Y0327713D01*
X0401380Y0327728D01*
X0401537Y0327739D01*
X0401695Y0327746D01*
X0401853Y0327749D01*
X0402010Y0327748D01*
X0402168Y0327743D01*
X0402325Y0327734D01*
X0402483Y0327721D01*
X0402639Y0327704D01*
X0402796Y0327683D01*
X0402951Y0327659D01*
X0403106Y0327630D01*
X0403261Y0327597D01*
X0403414Y0327561D01*
X0403567Y0327520D01*
X0403718Y0327476D01*
X0403868Y0327428D01*
X0404017Y0327377D01*
X0404165Y0327321D01*
X0404311Y0327262D01*
X0404456Y0327199D01*
X0404599Y0327132D01*
X0404740Y0327062D01*
X0404879Y0326989D01*
X0405017Y0326912D01*
X0405153Y0326831D01*
X0405286Y0326747D01*
X0405417Y0326660D01*
X0405546Y0326569D01*
X0405673Y0326475D01*
X0405798Y0326378D01*
X0405919Y0326278D01*
X0406039Y0326175D01*
X0406155Y0326069D01*
X0406269Y0325960D01*
X0406381Y0325848D01*
X0406489Y0325734D01*
X0406594Y0325616D01*
X0406697Y0325496D01*
X0406796Y0325374D01*
X0406892Y0325249D01*
X0406985Y0325121D01*
X0407075Y0324992D01*
X0407161Y0324860D01*
X0407245Y0324726D01*
X0407324Y0324590D01*
X0407401Y0324452D01*
X0407473Y0324312D01*
X0407542Y0324170D01*
X0407608Y0324027D01*
X0407670Y0323882D01*
X0407728Y0323735D01*
X0407783Y0323587D01*
X0407834Y0323438D01*
X0407881Y0323287D01*
X0407924Y0323136D01*
X0407963Y0322983D01*
X0407999Y0322829D01*
X0408030Y0322675D01*
X0408058Y0322520D01*
X0408082Y0322364D01*
X0408102Y0322207D01*
X0408118Y0322050D01*
X0408130Y0321893D01*
X0408138Y0321736D01*
X0408142Y0321578D01*
X0408142Y0321420D01*
X0408138Y0321262D01*
X0408130Y0321105D01*
X0408118Y0320948D01*
X0408102Y0320791D01*
X0408082Y0320634D01*
X0408058Y0320478D01*
X0408030Y0320323D01*
X0407999Y0320169D01*
X0407963Y0320015D01*
X0407924Y0319862D01*
X0407881Y0319711D01*
X0407834Y0319560D01*
X0407783Y0319411D01*
X0407728Y0319263D01*
X0407670Y0319116D01*
X0407608Y0318971D01*
X0407542Y0318828D01*
X0407473Y0318686D01*
X0407401Y0318546D01*
X0407324Y0318408D01*
X0407245Y0318272D01*
X0407161Y0318138D01*
X0407075Y0318006D01*
X0406985Y0317877D01*
X0406892Y0317749D01*
X0406796Y0317624D01*
X0406697Y0317502D01*
X0406594Y0317382D01*
X0406489Y0317264D01*
X0406381Y0317150D01*
X0406269Y0317038D01*
X0406155Y0316929D01*
X0406039Y0316823D01*
X0405919Y0316720D01*
X0405798Y0316620D01*
X0405673Y0316523D01*
X0405546Y0316429D01*
X0405417Y0316338D01*
X0405286Y0316251D01*
X0405153Y0316167D01*
X0405017Y0316086D01*
X0404879Y0316009D01*
X0404740Y0315936D01*
X0404599Y0315866D01*
X0404456Y0315799D01*
X0404311Y0315736D01*
X0404165Y0315677D01*
X0404017Y0315621D01*
X0403868Y0315570D01*
X0403718Y0315522D01*
X0403567Y0315478D01*
X0403414Y0315437D01*
X0403261Y0315401D01*
X0403106Y0315368D01*
X0402951Y0315339D01*
X0402796Y0315315D01*
X0402639Y0315294D01*
X0402483Y0315277D01*
X0402325Y0315264D01*
X0402168Y0315255D01*
X0402010Y0315250D01*
X0401853Y0315249D01*
X0401695Y0315252D01*
X0401537Y0315259D01*
X0401380Y0315270D01*
X0401223Y0315285D01*
X0401066Y0315304D01*
X0400910Y0315327D01*
X0400755Y0315353D01*
X0400600Y0315384D01*
X0400446Y0315418D01*
X0400293Y0315457D01*
X0400141Y0315499D01*
X0399991Y0315545D01*
X0399841Y0315595D01*
X0399693Y0315649D01*
X0399546Y0315706D01*
X0399400Y0315767D01*
X0399257Y0315832D01*
X0399114Y0315900D01*
X0398974Y0315972D01*
X0398836Y0316047D01*
X0398699Y0316126D01*
X0398564Y0316208D01*
X0398432Y0316294D01*
X0398302Y0316383D01*
X0398174Y0316475D01*
X0398048Y0316571D01*
X0397925Y0316669D01*
X0397805Y0316771D01*
X0397687Y0316876D01*
X0397571Y0316983D01*
X0397459Y0317094D01*
X0397349Y0317207D01*
X0397242Y0317323D01*
X0397138Y0317441D01*
X0397037Y0317563D01*
X0396940Y0317686D01*
X0396845Y0317813D01*
X0396754Y0317941D01*
X0396665Y0318072D01*
X0396581Y0318205D01*
X0396499Y0318340D01*
X0396421Y0318477D01*
X0396347Y0318616D01*
X0396276Y0318757D01*
X0396208Y0318899D01*
X0396145Y0319044D01*
X0396084Y0319189D01*
X0396028Y0319337D01*
X0395975Y0319485D01*
X0395926Y0319635D01*
X0395881Y0319786D01*
X0395840Y0319939D01*
X0395802Y0320092D01*
X0395769Y0320246D01*
X0395739Y0320401D01*
X0395713Y0320556D01*
X0395692Y0320713D01*
X0395674Y0320869D01*
X0395660Y0321026D01*
X0395650Y0321184D01*
X0395644Y0321341D01*
X0395642Y0321499D01*
X0395642Y0211499D02*
X0395644Y0211657D01*
X0395650Y0211814D01*
X0395660Y0211972D01*
X0395674Y0212129D01*
X0395692Y0212285D01*
X0395713Y0212442D01*
X0395739Y0212597D01*
X0395769Y0212752D01*
X0395802Y0212906D01*
X0395840Y0213059D01*
X0395881Y0213212D01*
X0395926Y0213363D01*
X0395975Y0213513D01*
X0396028Y0213661D01*
X0396084Y0213809D01*
X0396145Y0213954D01*
X0396208Y0214099D01*
X0396276Y0214241D01*
X0396347Y0214382D01*
X0396421Y0214521D01*
X0396499Y0214658D01*
X0396581Y0214793D01*
X0396665Y0214926D01*
X0396754Y0215057D01*
X0396845Y0215185D01*
X0396940Y0215312D01*
X0397037Y0215435D01*
X0397138Y0215557D01*
X0397242Y0215675D01*
X0397349Y0215791D01*
X0397459Y0215904D01*
X0397571Y0216015D01*
X0397687Y0216122D01*
X0397805Y0216227D01*
X0397925Y0216329D01*
X0398048Y0216427D01*
X0398174Y0216523D01*
X0398302Y0216615D01*
X0398432Y0216704D01*
X0398564Y0216790D01*
X0398699Y0216872D01*
X0398836Y0216951D01*
X0398974Y0217026D01*
X0399114Y0217098D01*
X0399257Y0217166D01*
X0399400Y0217231D01*
X0399546Y0217292D01*
X0399693Y0217349D01*
X0399841Y0217403D01*
X0399991Y0217453D01*
X0400141Y0217499D01*
X0400293Y0217541D01*
X0400446Y0217580D01*
X0400600Y0217614D01*
X0400755Y0217645D01*
X0400910Y0217671D01*
X0401066Y0217694D01*
X0401223Y0217713D01*
X0401380Y0217728D01*
X0401537Y0217739D01*
X0401695Y0217746D01*
X0401853Y0217749D01*
X0402010Y0217748D01*
X0402168Y0217743D01*
X0402325Y0217734D01*
X0402483Y0217721D01*
X0402639Y0217704D01*
X0402796Y0217683D01*
X0402951Y0217659D01*
X0403106Y0217630D01*
X0403261Y0217597D01*
X0403414Y0217561D01*
X0403567Y0217520D01*
X0403718Y0217476D01*
X0403868Y0217428D01*
X0404017Y0217377D01*
X0404165Y0217321D01*
X0404311Y0217262D01*
X0404456Y0217199D01*
X0404599Y0217132D01*
X0404740Y0217062D01*
X0404879Y0216989D01*
X0405017Y0216912D01*
X0405153Y0216831D01*
X0405286Y0216747D01*
X0405417Y0216660D01*
X0405546Y0216569D01*
X0405673Y0216475D01*
X0405798Y0216378D01*
X0405919Y0216278D01*
X0406039Y0216175D01*
X0406155Y0216069D01*
X0406269Y0215960D01*
X0406381Y0215848D01*
X0406489Y0215734D01*
X0406594Y0215616D01*
X0406697Y0215496D01*
X0406796Y0215374D01*
X0406892Y0215249D01*
X0406985Y0215121D01*
X0407075Y0214992D01*
X0407161Y0214860D01*
X0407245Y0214726D01*
X0407324Y0214590D01*
X0407401Y0214452D01*
X0407473Y0214312D01*
X0407542Y0214170D01*
X0407608Y0214027D01*
X0407670Y0213882D01*
X0407728Y0213735D01*
X0407783Y0213587D01*
X0407834Y0213438D01*
X0407881Y0213287D01*
X0407924Y0213136D01*
X0407963Y0212983D01*
X0407999Y0212829D01*
X0408030Y0212675D01*
X0408058Y0212520D01*
X0408082Y0212364D01*
X0408102Y0212207D01*
X0408118Y0212050D01*
X0408130Y0211893D01*
X0408138Y0211736D01*
X0408142Y0211578D01*
X0408142Y0211420D01*
X0408138Y0211262D01*
X0408130Y0211105D01*
X0408118Y0210948D01*
X0408102Y0210791D01*
X0408082Y0210634D01*
X0408058Y0210478D01*
X0408030Y0210323D01*
X0407999Y0210169D01*
X0407963Y0210015D01*
X0407924Y0209862D01*
X0407881Y0209711D01*
X0407834Y0209560D01*
X0407783Y0209411D01*
X0407728Y0209263D01*
X0407670Y0209116D01*
X0407608Y0208971D01*
X0407542Y0208828D01*
X0407473Y0208686D01*
X0407401Y0208546D01*
X0407324Y0208408D01*
X0407245Y0208272D01*
X0407161Y0208138D01*
X0407075Y0208006D01*
X0406985Y0207877D01*
X0406892Y0207749D01*
X0406796Y0207624D01*
X0406697Y0207502D01*
X0406594Y0207382D01*
X0406489Y0207264D01*
X0406381Y0207150D01*
X0406269Y0207038D01*
X0406155Y0206929D01*
X0406039Y0206823D01*
X0405919Y0206720D01*
X0405798Y0206620D01*
X0405673Y0206523D01*
X0405546Y0206429D01*
X0405417Y0206338D01*
X0405286Y0206251D01*
X0405153Y0206167D01*
X0405017Y0206086D01*
X0404879Y0206009D01*
X0404740Y0205936D01*
X0404599Y0205866D01*
X0404456Y0205799D01*
X0404311Y0205736D01*
X0404165Y0205677D01*
X0404017Y0205621D01*
X0403868Y0205570D01*
X0403718Y0205522D01*
X0403567Y0205478D01*
X0403414Y0205437D01*
X0403261Y0205401D01*
X0403106Y0205368D01*
X0402951Y0205339D01*
X0402796Y0205315D01*
X0402639Y0205294D01*
X0402483Y0205277D01*
X0402325Y0205264D01*
X0402168Y0205255D01*
X0402010Y0205250D01*
X0401853Y0205249D01*
X0401695Y0205252D01*
X0401537Y0205259D01*
X0401380Y0205270D01*
X0401223Y0205285D01*
X0401066Y0205304D01*
X0400910Y0205327D01*
X0400755Y0205353D01*
X0400600Y0205384D01*
X0400446Y0205418D01*
X0400293Y0205457D01*
X0400141Y0205499D01*
X0399991Y0205545D01*
X0399841Y0205595D01*
X0399693Y0205649D01*
X0399546Y0205706D01*
X0399400Y0205767D01*
X0399257Y0205832D01*
X0399114Y0205900D01*
X0398974Y0205972D01*
X0398836Y0206047D01*
X0398699Y0206126D01*
X0398564Y0206208D01*
X0398432Y0206294D01*
X0398302Y0206383D01*
X0398174Y0206475D01*
X0398048Y0206571D01*
X0397925Y0206669D01*
X0397805Y0206771D01*
X0397687Y0206876D01*
X0397571Y0206983D01*
X0397459Y0207094D01*
X0397349Y0207207D01*
X0397242Y0207323D01*
X0397138Y0207441D01*
X0397037Y0207563D01*
X0396940Y0207686D01*
X0396845Y0207813D01*
X0396754Y0207941D01*
X0396665Y0208072D01*
X0396581Y0208205D01*
X0396499Y0208340D01*
X0396421Y0208477D01*
X0396347Y0208616D01*
X0396276Y0208757D01*
X0396208Y0208899D01*
X0396145Y0209044D01*
X0396084Y0209189D01*
X0396028Y0209337D01*
X0395975Y0209485D01*
X0395926Y0209635D01*
X0395881Y0209786D01*
X0395840Y0209939D01*
X0395802Y0210092D01*
X0395769Y0210246D01*
X0395739Y0210401D01*
X0395713Y0210556D01*
X0395692Y0210713D01*
X0395674Y0210869D01*
X0395660Y0211026D01*
X0395650Y0211184D01*
X0395644Y0211341D01*
X0395642Y0211499D01*
X0248832Y0171203D02*
X0248834Y0171340D01*
X0248840Y0171476D01*
X0248850Y0171612D01*
X0248864Y0171748D01*
X0248882Y0171884D01*
X0248904Y0172019D01*
X0248929Y0172153D01*
X0248959Y0172286D01*
X0248993Y0172418D01*
X0249030Y0172550D01*
X0249071Y0172680D01*
X0249117Y0172809D01*
X0249165Y0172937D01*
X0249218Y0173063D01*
X0249274Y0173187D01*
X0249334Y0173310D01*
X0249397Y0173431D01*
X0249464Y0173550D01*
X0249534Y0173667D01*
X0249608Y0173783D01*
X0249685Y0173895D01*
X0249765Y0174006D01*
X0249849Y0174114D01*
X0249936Y0174220D01*
X0250025Y0174323D01*
X0250118Y0174423D01*
X0250213Y0174521D01*
X0250312Y0174616D01*
X0250413Y0174708D01*
X0250517Y0174796D01*
X0250623Y0174882D01*
X0250732Y0174965D01*
X0250843Y0175044D01*
X0250956Y0175121D01*
X0251072Y0175194D01*
X0251189Y0175263D01*
X0251309Y0175329D01*
X0251430Y0175391D01*
X0251554Y0175450D01*
X0251679Y0175506D01*
X0251805Y0175557D01*
X0251933Y0175605D01*
X0252062Y0175649D01*
X0252193Y0175690D01*
X0252325Y0175726D01*
X0252457Y0175759D01*
X0252591Y0175787D01*
X0252725Y0175812D01*
X0252860Y0175833D01*
X0252996Y0175850D01*
X0253132Y0175863D01*
X0253268Y0175872D01*
X0253405Y0175877D01*
X0253541Y0175878D01*
X0253678Y0175875D01*
X0253814Y0175868D01*
X0253950Y0175857D01*
X0254086Y0175842D01*
X0254221Y0175823D01*
X0254356Y0175800D01*
X0254490Y0175773D01*
X0254623Y0175743D01*
X0254755Y0175708D01*
X0254887Y0175670D01*
X0255016Y0175628D01*
X0255145Y0175582D01*
X0255272Y0175532D01*
X0255398Y0175478D01*
X0255522Y0175421D01*
X0255645Y0175361D01*
X0255765Y0175296D01*
X0255884Y0175229D01*
X0256000Y0175158D01*
X0256115Y0175083D01*
X0256227Y0175005D01*
X0256337Y0174924D01*
X0256445Y0174840D01*
X0256550Y0174752D01*
X0256652Y0174662D01*
X0256752Y0174569D01*
X0256849Y0174472D01*
X0256943Y0174373D01*
X0257034Y0174272D01*
X0257122Y0174167D01*
X0257207Y0174060D01*
X0257289Y0173951D01*
X0257368Y0173839D01*
X0257443Y0173725D01*
X0257515Y0173609D01*
X0257584Y0173491D01*
X0257649Y0173371D01*
X0257711Y0173249D01*
X0257769Y0173125D01*
X0257823Y0173000D01*
X0257874Y0172873D01*
X0257920Y0172745D01*
X0257964Y0172615D01*
X0258003Y0172484D01*
X0258039Y0172352D01*
X0258070Y0172219D01*
X0258098Y0172086D01*
X0258122Y0171951D01*
X0258142Y0171816D01*
X0258158Y0171680D01*
X0258170Y0171544D01*
X0258178Y0171408D01*
X0258182Y0171271D01*
X0258182Y0171135D01*
X0258178Y0170998D01*
X0258170Y0170862D01*
X0258158Y0170726D01*
X0258142Y0170590D01*
X0258122Y0170455D01*
X0258098Y0170320D01*
X0258070Y0170187D01*
X0258039Y0170054D01*
X0258003Y0169922D01*
X0257964Y0169791D01*
X0257920Y0169661D01*
X0257874Y0169533D01*
X0257823Y0169406D01*
X0257769Y0169281D01*
X0257711Y0169157D01*
X0257649Y0169035D01*
X0257584Y0168915D01*
X0257515Y0168797D01*
X0257443Y0168681D01*
X0257368Y0168567D01*
X0257289Y0168455D01*
X0257207Y0168346D01*
X0257122Y0168239D01*
X0257034Y0168134D01*
X0256943Y0168033D01*
X0256849Y0167934D01*
X0256752Y0167837D01*
X0256652Y0167744D01*
X0256550Y0167654D01*
X0256445Y0167566D01*
X0256337Y0167482D01*
X0256227Y0167401D01*
X0256115Y0167323D01*
X0256000Y0167248D01*
X0255884Y0167177D01*
X0255765Y0167110D01*
X0255645Y0167045D01*
X0255522Y0166985D01*
X0255398Y0166928D01*
X0255272Y0166874D01*
X0255145Y0166824D01*
X0255016Y0166778D01*
X0254887Y0166736D01*
X0254755Y0166698D01*
X0254623Y0166663D01*
X0254490Y0166633D01*
X0254356Y0166606D01*
X0254221Y0166583D01*
X0254086Y0166564D01*
X0253950Y0166549D01*
X0253814Y0166538D01*
X0253678Y0166531D01*
X0253541Y0166528D01*
X0253405Y0166529D01*
X0253268Y0166534D01*
X0253132Y0166543D01*
X0252996Y0166556D01*
X0252860Y0166573D01*
X0252725Y0166594D01*
X0252591Y0166619D01*
X0252457Y0166647D01*
X0252325Y0166680D01*
X0252193Y0166716D01*
X0252062Y0166757D01*
X0251933Y0166801D01*
X0251805Y0166849D01*
X0251679Y0166900D01*
X0251554Y0166956D01*
X0251430Y0167015D01*
X0251309Y0167077D01*
X0251189Y0167143D01*
X0251072Y0167212D01*
X0250956Y0167285D01*
X0250843Y0167362D01*
X0250732Y0167441D01*
X0250623Y0167524D01*
X0250517Y0167610D01*
X0250413Y0167698D01*
X0250312Y0167790D01*
X0250213Y0167885D01*
X0250118Y0167983D01*
X0250025Y0168083D01*
X0249936Y0168186D01*
X0249849Y0168292D01*
X0249765Y0168400D01*
X0249685Y0168511D01*
X0249608Y0168623D01*
X0249534Y0168739D01*
X0249464Y0168856D01*
X0249397Y0168975D01*
X0249334Y0169096D01*
X0249274Y0169219D01*
X0249218Y0169343D01*
X0249165Y0169469D01*
X0249117Y0169597D01*
X0249071Y0169726D01*
X0249030Y0169856D01*
X0248993Y0169988D01*
X0248959Y0170120D01*
X0248929Y0170253D01*
X0248904Y0170387D01*
X0248882Y0170522D01*
X0248864Y0170658D01*
X0248850Y0170794D01*
X0248840Y0170930D01*
X0248834Y0171066D01*
X0248832Y0171203D01*
X0245557Y0178703D02*
X0245559Y0178791D01*
X0245565Y0178879D01*
X0245575Y0178967D01*
X0245589Y0179054D01*
X0245607Y0179140D01*
X0245628Y0179225D01*
X0245654Y0179310D01*
X0245683Y0179393D01*
X0245716Y0179475D01*
X0245753Y0179555D01*
X0245793Y0179633D01*
X0245837Y0179710D01*
X0245884Y0179784D01*
X0245935Y0179856D01*
X0245988Y0179926D01*
X0246045Y0179994D01*
X0246105Y0180058D01*
X0246168Y0180120D01*
X0246233Y0180179D01*
X0246301Y0180235D01*
X0246372Y0180288D01*
X0246444Y0180338D01*
X0246519Y0180384D01*
X0246596Y0180427D01*
X0246675Y0180467D01*
X0246756Y0180502D01*
X0246838Y0180535D01*
X0246921Y0180563D01*
X0247006Y0180588D01*
X0247092Y0180608D01*
X0247178Y0180625D01*
X0247265Y0180638D01*
X0247353Y0180647D01*
X0247441Y0180652D01*
X0247529Y0180653D01*
X0247617Y0180650D01*
X0247705Y0180643D01*
X0247792Y0180632D01*
X0247879Y0180617D01*
X0247965Y0180598D01*
X0248051Y0180576D01*
X0248135Y0180549D01*
X0248217Y0180519D01*
X0248299Y0180485D01*
X0248379Y0180447D01*
X0248456Y0180406D01*
X0248532Y0180362D01*
X0248606Y0180314D01*
X0248678Y0180262D01*
X0248747Y0180208D01*
X0248814Y0180150D01*
X0248878Y0180090D01*
X0248939Y0180026D01*
X0248998Y0179960D01*
X0249053Y0179892D01*
X0249105Y0179820D01*
X0249154Y0179747D01*
X0249199Y0179672D01*
X0249241Y0179594D01*
X0249280Y0179515D01*
X0249315Y0179434D01*
X0249346Y0179351D01*
X0249373Y0179268D01*
X0249397Y0179183D01*
X0249417Y0179097D01*
X0249433Y0179010D01*
X0249445Y0178923D01*
X0249453Y0178835D01*
X0249457Y0178747D01*
X0249457Y0178659D01*
X0249453Y0178571D01*
X0249445Y0178483D01*
X0249433Y0178396D01*
X0249417Y0178309D01*
X0249397Y0178223D01*
X0249373Y0178138D01*
X0249346Y0178055D01*
X0249315Y0177972D01*
X0249280Y0177891D01*
X0249241Y0177812D01*
X0249199Y0177734D01*
X0249154Y0177659D01*
X0249105Y0177586D01*
X0249053Y0177514D01*
X0248998Y0177446D01*
X0248939Y0177380D01*
X0248878Y0177316D01*
X0248814Y0177256D01*
X0248747Y0177198D01*
X0248678Y0177144D01*
X0248606Y0177092D01*
X0248532Y0177044D01*
X0248456Y0177000D01*
X0248379Y0176959D01*
X0248299Y0176921D01*
X0248217Y0176887D01*
X0248135Y0176857D01*
X0248051Y0176830D01*
X0247965Y0176808D01*
X0247879Y0176789D01*
X0247792Y0176774D01*
X0247705Y0176763D01*
X0247617Y0176756D01*
X0247529Y0176753D01*
X0247441Y0176754D01*
X0247353Y0176759D01*
X0247265Y0176768D01*
X0247178Y0176781D01*
X0247092Y0176798D01*
X0247006Y0176818D01*
X0246921Y0176843D01*
X0246838Y0176871D01*
X0246756Y0176904D01*
X0246675Y0176939D01*
X0246596Y0176979D01*
X0246519Y0177022D01*
X0246444Y0177068D01*
X0246372Y0177118D01*
X0246301Y0177171D01*
X0246233Y0177227D01*
X0246168Y0177286D01*
X0246105Y0177348D01*
X0246045Y0177412D01*
X0245988Y0177480D01*
X0245935Y0177550D01*
X0245884Y0177622D01*
X0245837Y0177696D01*
X0245793Y0177773D01*
X0245753Y0177851D01*
X0245716Y0177931D01*
X0245683Y0178013D01*
X0245654Y0178096D01*
X0245628Y0178181D01*
X0245607Y0178266D01*
X0245589Y0178352D01*
X0245575Y0178439D01*
X0245565Y0178527D01*
X0245559Y0178615D01*
X0245557Y0178703D01*
X0237557Y0178703D02*
X0237559Y0178791D01*
X0237565Y0178879D01*
X0237575Y0178967D01*
X0237589Y0179054D01*
X0237607Y0179140D01*
X0237628Y0179225D01*
X0237654Y0179310D01*
X0237683Y0179393D01*
X0237716Y0179475D01*
X0237753Y0179555D01*
X0237793Y0179633D01*
X0237837Y0179710D01*
X0237884Y0179784D01*
X0237935Y0179856D01*
X0237988Y0179926D01*
X0238045Y0179994D01*
X0238105Y0180058D01*
X0238168Y0180120D01*
X0238233Y0180179D01*
X0238301Y0180235D01*
X0238372Y0180288D01*
X0238444Y0180338D01*
X0238519Y0180384D01*
X0238596Y0180427D01*
X0238675Y0180467D01*
X0238756Y0180502D01*
X0238838Y0180535D01*
X0238921Y0180563D01*
X0239006Y0180588D01*
X0239092Y0180608D01*
X0239178Y0180625D01*
X0239265Y0180638D01*
X0239353Y0180647D01*
X0239441Y0180652D01*
X0239529Y0180653D01*
X0239617Y0180650D01*
X0239705Y0180643D01*
X0239792Y0180632D01*
X0239879Y0180617D01*
X0239965Y0180598D01*
X0240051Y0180576D01*
X0240135Y0180549D01*
X0240217Y0180519D01*
X0240299Y0180485D01*
X0240379Y0180447D01*
X0240456Y0180406D01*
X0240532Y0180362D01*
X0240606Y0180314D01*
X0240678Y0180262D01*
X0240747Y0180208D01*
X0240814Y0180150D01*
X0240878Y0180090D01*
X0240939Y0180026D01*
X0240998Y0179960D01*
X0241053Y0179892D01*
X0241105Y0179820D01*
X0241154Y0179747D01*
X0241199Y0179672D01*
X0241241Y0179594D01*
X0241280Y0179515D01*
X0241315Y0179434D01*
X0241346Y0179351D01*
X0241373Y0179268D01*
X0241397Y0179183D01*
X0241417Y0179097D01*
X0241433Y0179010D01*
X0241445Y0178923D01*
X0241453Y0178835D01*
X0241457Y0178747D01*
X0241457Y0178659D01*
X0241453Y0178571D01*
X0241445Y0178483D01*
X0241433Y0178396D01*
X0241417Y0178309D01*
X0241397Y0178223D01*
X0241373Y0178138D01*
X0241346Y0178055D01*
X0241315Y0177972D01*
X0241280Y0177891D01*
X0241241Y0177812D01*
X0241199Y0177734D01*
X0241154Y0177659D01*
X0241105Y0177586D01*
X0241053Y0177514D01*
X0240998Y0177446D01*
X0240939Y0177380D01*
X0240878Y0177316D01*
X0240814Y0177256D01*
X0240747Y0177198D01*
X0240678Y0177144D01*
X0240606Y0177092D01*
X0240532Y0177044D01*
X0240456Y0177000D01*
X0240379Y0176959D01*
X0240299Y0176921D01*
X0240217Y0176887D01*
X0240135Y0176857D01*
X0240051Y0176830D01*
X0239965Y0176808D01*
X0239879Y0176789D01*
X0239792Y0176774D01*
X0239705Y0176763D01*
X0239617Y0176756D01*
X0239529Y0176753D01*
X0239441Y0176754D01*
X0239353Y0176759D01*
X0239265Y0176768D01*
X0239178Y0176781D01*
X0239092Y0176798D01*
X0239006Y0176818D01*
X0238921Y0176843D01*
X0238838Y0176871D01*
X0238756Y0176904D01*
X0238675Y0176939D01*
X0238596Y0176979D01*
X0238519Y0177022D01*
X0238444Y0177068D01*
X0238372Y0177118D01*
X0238301Y0177171D01*
X0238233Y0177227D01*
X0238168Y0177286D01*
X0238105Y0177348D01*
X0238045Y0177412D01*
X0237988Y0177480D01*
X0237935Y0177550D01*
X0237884Y0177622D01*
X0237837Y0177696D01*
X0237793Y0177773D01*
X0237753Y0177851D01*
X0237716Y0177931D01*
X0237683Y0178013D01*
X0237654Y0178096D01*
X0237628Y0178181D01*
X0237607Y0178266D01*
X0237589Y0178352D01*
X0237575Y0178439D01*
X0237565Y0178527D01*
X0237559Y0178615D01*
X0237557Y0178703D01*
X0228832Y0171203D02*
X0228834Y0171340D01*
X0228840Y0171476D01*
X0228850Y0171612D01*
X0228864Y0171748D01*
X0228882Y0171884D01*
X0228904Y0172019D01*
X0228929Y0172153D01*
X0228959Y0172286D01*
X0228993Y0172418D01*
X0229030Y0172550D01*
X0229071Y0172680D01*
X0229117Y0172809D01*
X0229165Y0172937D01*
X0229218Y0173063D01*
X0229274Y0173187D01*
X0229334Y0173310D01*
X0229397Y0173431D01*
X0229464Y0173550D01*
X0229534Y0173667D01*
X0229608Y0173783D01*
X0229685Y0173895D01*
X0229765Y0174006D01*
X0229849Y0174114D01*
X0229936Y0174220D01*
X0230025Y0174323D01*
X0230118Y0174423D01*
X0230213Y0174521D01*
X0230312Y0174616D01*
X0230413Y0174708D01*
X0230517Y0174796D01*
X0230623Y0174882D01*
X0230732Y0174965D01*
X0230843Y0175044D01*
X0230956Y0175121D01*
X0231072Y0175194D01*
X0231189Y0175263D01*
X0231309Y0175329D01*
X0231430Y0175391D01*
X0231554Y0175450D01*
X0231679Y0175506D01*
X0231805Y0175557D01*
X0231933Y0175605D01*
X0232062Y0175649D01*
X0232193Y0175690D01*
X0232325Y0175726D01*
X0232457Y0175759D01*
X0232591Y0175787D01*
X0232725Y0175812D01*
X0232860Y0175833D01*
X0232996Y0175850D01*
X0233132Y0175863D01*
X0233268Y0175872D01*
X0233405Y0175877D01*
X0233541Y0175878D01*
X0233678Y0175875D01*
X0233814Y0175868D01*
X0233950Y0175857D01*
X0234086Y0175842D01*
X0234221Y0175823D01*
X0234356Y0175800D01*
X0234490Y0175773D01*
X0234623Y0175743D01*
X0234755Y0175708D01*
X0234887Y0175670D01*
X0235016Y0175628D01*
X0235145Y0175582D01*
X0235272Y0175532D01*
X0235398Y0175478D01*
X0235522Y0175421D01*
X0235645Y0175361D01*
X0235765Y0175296D01*
X0235884Y0175229D01*
X0236000Y0175158D01*
X0236115Y0175083D01*
X0236227Y0175005D01*
X0236337Y0174924D01*
X0236445Y0174840D01*
X0236550Y0174752D01*
X0236652Y0174662D01*
X0236752Y0174569D01*
X0236849Y0174472D01*
X0236943Y0174373D01*
X0237034Y0174272D01*
X0237122Y0174167D01*
X0237207Y0174060D01*
X0237289Y0173951D01*
X0237368Y0173839D01*
X0237443Y0173725D01*
X0237515Y0173609D01*
X0237584Y0173491D01*
X0237649Y0173371D01*
X0237711Y0173249D01*
X0237769Y0173125D01*
X0237823Y0173000D01*
X0237874Y0172873D01*
X0237920Y0172745D01*
X0237964Y0172615D01*
X0238003Y0172484D01*
X0238039Y0172352D01*
X0238070Y0172219D01*
X0238098Y0172086D01*
X0238122Y0171951D01*
X0238142Y0171816D01*
X0238158Y0171680D01*
X0238170Y0171544D01*
X0238178Y0171408D01*
X0238182Y0171271D01*
X0238182Y0171135D01*
X0238178Y0170998D01*
X0238170Y0170862D01*
X0238158Y0170726D01*
X0238142Y0170590D01*
X0238122Y0170455D01*
X0238098Y0170320D01*
X0238070Y0170187D01*
X0238039Y0170054D01*
X0238003Y0169922D01*
X0237964Y0169791D01*
X0237920Y0169661D01*
X0237874Y0169533D01*
X0237823Y0169406D01*
X0237769Y0169281D01*
X0237711Y0169157D01*
X0237649Y0169035D01*
X0237584Y0168915D01*
X0237515Y0168797D01*
X0237443Y0168681D01*
X0237368Y0168567D01*
X0237289Y0168455D01*
X0237207Y0168346D01*
X0237122Y0168239D01*
X0237034Y0168134D01*
X0236943Y0168033D01*
X0236849Y0167934D01*
X0236752Y0167837D01*
X0236652Y0167744D01*
X0236550Y0167654D01*
X0236445Y0167566D01*
X0236337Y0167482D01*
X0236227Y0167401D01*
X0236115Y0167323D01*
X0236000Y0167248D01*
X0235884Y0167177D01*
X0235765Y0167110D01*
X0235645Y0167045D01*
X0235522Y0166985D01*
X0235398Y0166928D01*
X0235272Y0166874D01*
X0235145Y0166824D01*
X0235016Y0166778D01*
X0234887Y0166736D01*
X0234755Y0166698D01*
X0234623Y0166663D01*
X0234490Y0166633D01*
X0234356Y0166606D01*
X0234221Y0166583D01*
X0234086Y0166564D01*
X0233950Y0166549D01*
X0233814Y0166538D01*
X0233678Y0166531D01*
X0233541Y0166528D01*
X0233405Y0166529D01*
X0233268Y0166534D01*
X0233132Y0166543D01*
X0232996Y0166556D01*
X0232860Y0166573D01*
X0232725Y0166594D01*
X0232591Y0166619D01*
X0232457Y0166647D01*
X0232325Y0166680D01*
X0232193Y0166716D01*
X0232062Y0166757D01*
X0231933Y0166801D01*
X0231805Y0166849D01*
X0231679Y0166900D01*
X0231554Y0166956D01*
X0231430Y0167015D01*
X0231309Y0167077D01*
X0231189Y0167143D01*
X0231072Y0167212D01*
X0230956Y0167285D01*
X0230843Y0167362D01*
X0230732Y0167441D01*
X0230623Y0167524D01*
X0230517Y0167610D01*
X0230413Y0167698D01*
X0230312Y0167790D01*
X0230213Y0167885D01*
X0230118Y0167983D01*
X0230025Y0168083D01*
X0229936Y0168186D01*
X0229849Y0168292D01*
X0229765Y0168400D01*
X0229685Y0168511D01*
X0229608Y0168623D01*
X0229534Y0168739D01*
X0229464Y0168856D01*
X0229397Y0168975D01*
X0229334Y0169096D01*
X0229274Y0169219D01*
X0229218Y0169343D01*
X0229165Y0169469D01*
X0229117Y0169597D01*
X0229071Y0169726D01*
X0229030Y0169856D01*
X0228993Y0169988D01*
X0228959Y0170120D01*
X0228929Y0170253D01*
X0228904Y0170387D01*
X0228882Y0170522D01*
X0228864Y0170658D01*
X0228850Y0170794D01*
X0228840Y0170930D01*
X0228834Y0171066D01*
X0228832Y0171203D01*
X0228832Y0158703D02*
X0228834Y0158840D01*
X0228840Y0158976D01*
X0228850Y0159112D01*
X0228864Y0159248D01*
X0228882Y0159384D01*
X0228904Y0159519D01*
X0228929Y0159653D01*
X0228959Y0159786D01*
X0228993Y0159918D01*
X0229030Y0160050D01*
X0229071Y0160180D01*
X0229117Y0160309D01*
X0229165Y0160437D01*
X0229218Y0160563D01*
X0229274Y0160687D01*
X0229334Y0160810D01*
X0229397Y0160931D01*
X0229464Y0161050D01*
X0229534Y0161167D01*
X0229608Y0161283D01*
X0229685Y0161395D01*
X0229765Y0161506D01*
X0229849Y0161614D01*
X0229936Y0161720D01*
X0230025Y0161823D01*
X0230118Y0161923D01*
X0230213Y0162021D01*
X0230312Y0162116D01*
X0230413Y0162208D01*
X0230517Y0162296D01*
X0230623Y0162382D01*
X0230732Y0162465D01*
X0230843Y0162544D01*
X0230956Y0162621D01*
X0231072Y0162694D01*
X0231189Y0162763D01*
X0231309Y0162829D01*
X0231430Y0162891D01*
X0231554Y0162950D01*
X0231679Y0163006D01*
X0231805Y0163057D01*
X0231933Y0163105D01*
X0232062Y0163149D01*
X0232193Y0163190D01*
X0232325Y0163226D01*
X0232457Y0163259D01*
X0232591Y0163287D01*
X0232725Y0163312D01*
X0232860Y0163333D01*
X0232996Y0163350D01*
X0233132Y0163363D01*
X0233268Y0163372D01*
X0233405Y0163377D01*
X0233541Y0163378D01*
X0233678Y0163375D01*
X0233814Y0163368D01*
X0233950Y0163357D01*
X0234086Y0163342D01*
X0234221Y0163323D01*
X0234356Y0163300D01*
X0234490Y0163273D01*
X0234623Y0163243D01*
X0234755Y0163208D01*
X0234887Y0163170D01*
X0235016Y0163128D01*
X0235145Y0163082D01*
X0235272Y0163032D01*
X0235398Y0162978D01*
X0235522Y0162921D01*
X0235645Y0162861D01*
X0235765Y0162796D01*
X0235884Y0162729D01*
X0236000Y0162658D01*
X0236115Y0162583D01*
X0236227Y0162505D01*
X0236337Y0162424D01*
X0236445Y0162340D01*
X0236550Y0162252D01*
X0236652Y0162162D01*
X0236752Y0162069D01*
X0236849Y0161972D01*
X0236943Y0161873D01*
X0237034Y0161772D01*
X0237122Y0161667D01*
X0237207Y0161560D01*
X0237289Y0161451D01*
X0237368Y0161339D01*
X0237443Y0161225D01*
X0237515Y0161109D01*
X0237584Y0160991D01*
X0237649Y0160871D01*
X0237711Y0160749D01*
X0237769Y0160625D01*
X0237823Y0160500D01*
X0237874Y0160373D01*
X0237920Y0160245D01*
X0237964Y0160115D01*
X0238003Y0159984D01*
X0238039Y0159852D01*
X0238070Y0159719D01*
X0238098Y0159586D01*
X0238122Y0159451D01*
X0238142Y0159316D01*
X0238158Y0159180D01*
X0238170Y0159044D01*
X0238178Y0158908D01*
X0238182Y0158771D01*
X0238182Y0158635D01*
X0238178Y0158498D01*
X0238170Y0158362D01*
X0238158Y0158226D01*
X0238142Y0158090D01*
X0238122Y0157955D01*
X0238098Y0157820D01*
X0238070Y0157687D01*
X0238039Y0157554D01*
X0238003Y0157422D01*
X0237964Y0157291D01*
X0237920Y0157161D01*
X0237874Y0157033D01*
X0237823Y0156906D01*
X0237769Y0156781D01*
X0237711Y0156657D01*
X0237649Y0156535D01*
X0237584Y0156415D01*
X0237515Y0156297D01*
X0237443Y0156181D01*
X0237368Y0156067D01*
X0237289Y0155955D01*
X0237207Y0155846D01*
X0237122Y0155739D01*
X0237034Y0155634D01*
X0236943Y0155533D01*
X0236849Y0155434D01*
X0236752Y0155337D01*
X0236652Y0155244D01*
X0236550Y0155154D01*
X0236445Y0155066D01*
X0236337Y0154982D01*
X0236227Y0154901D01*
X0236115Y0154823D01*
X0236000Y0154748D01*
X0235884Y0154677D01*
X0235765Y0154610D01*
X0235645Y0154545D01*
X0235522Y0154485D01*
X0235398Y0154428D01*
X0235272Y0154374D01*
X0235145Y0154324D01*
X0235016Y0154278D01*
X0234887Y0154236D01*
X0234755Y0154198D01*
X0234623Y0154163D01*
X0234490Y0154133D01*
X0234356Y0154106D01*
X0234221Y0154083D01*
X0234086Y0154064D01*
X0233950Y0154049D01*
X0233814Y0154038D01*
X0233678Y0154031D01*
X0233541Y0154028D01*
X0233405Y0154029D01*
X0233268Y0154034D01*
X0233132Y0154043D01*
X0232996Y0154056D01*
X0232860Y0154073D01*
X0232725Y0154094D01*
X0232591Y0154119D01*
X0232457Y0154147D01*
X0232325Y0154180D01*
X0232193Y0154216D01*
X0232062Y0154257D01*
X0231933Y0154301D01*
X0231805Y0154349D01*
X0231679Y0154400D01*
X0231554Y0154456D01*
X0231430Y0154515D01*
X0231309Y0154577D01*
X0231189Y0154643D01*
X0231072Y0154712D01*
X0230956Y0154785D01*
X0230843Y0154862D01*
X0230732Y0154941D01*
X0230623Y0155024D01*
X0230517Y0155110D01*
X0230413Y0155198D01*
X0230312Y0155290D01*
X0230213Y0155385D01*
X0230118Y0155483D01*
X0230025Y0155583D01*
X0229936Y0155686D01*
X0229849Y0155792D01*
X0229765Y0155900D01*
X0229685Y0156011D01*
X0229608Y0156123D01*
X0229534Y0156239D01*
X0229464Y0156356D01*
X0229397Y0156475D01*
X0229334Y0156596D01*
X0229274Y0156719D01*
X0229218Y0156843D01*
X0229165Y0156969D01*
X0229117Y0157097D01*
X0229071Y0157226D01*
X0229030Y0157356D01*
X0228993Y0157488D01*
X0228959Y0157620D01*
X0228929Y0157753D01*
X0228904Y0157887D01*
X0228882Y0158022D01*
X0228864Y0158158D01*
X0228850Y0158294D01*
X0228840Y0158430D01*
X0228834Y0158566D01*
X0228832Y0158703D01*
X0241557Y0158703D02*
X0241559Y0158791D01*
X0241565Y0158879D01*
X0241575Y0158967D01*
X0241589Y0159054D01*
X0241607Y0159140D01*
X0241628Y0159225D01*
X0241654Y0159310D01*
X0241683Y0159393D01*
X0241716Y0159475D01*
X0241753Y0159555D01*
X0241793Y0159633D01*
X0241837Y0159710D01*
X0241884Y0159784D01*
X0241935Y0159856D01*
X0241988Y0159926D01*
X0242045Y0159994D01*
X0242105Y0160058D01*
X0242168Y0160120D01*
X0242233Y0160179D01*
X0242301Y0160235D01*
X0242372Y0160288D01*
X0242444Y0160338D01*
X0242519Y0160384D01*
X0242596Y0160427D01*
X0242675Y0160467D01*
X0242756Y0160502D01*
X0242838Y0160535D01*
X0242921Y0160563D01*
X0243006Y0160588D01*
X0243092Y0160608D01*
X0243178Y0160625D01*
X0243265Y0160638D01*
X0243353Y0160647D01*
X0243441Y0160652D01*
X0243529Y0160653D01*
X0243617Y0160650D01*
X0243705Y0160643D01*
X0243792Y0160632D01*
X0243879Y0160617D01*
X0243965Y0160598D01*
X0244051Y0160576D01*
X0244135Y0160549D01*
X0244217Y0160519D01*
X0244299Y0160485D01*
X0244379Y0160447D01*
X0244456Y0160406D01*
X0244532Y0160362D01*
X0244606Y0160314D01*
X0244678Y0160262D01*
X0244747Y0160208D01*
X0244814Y0160150D01*
X0244878Y0160090D01*
X0244939Y0160026D01*
X0244998Y0159960D01*
X0245053Y0159892D01*
X0245105Y0159820D01*
X0245154Y0159747D01*
X0245199Y0159672D01*
X0245241Y0159594D01*
X0245280Y0159515D01*
X0245315Y0159434D01*
X0245346Y0159351D01*
X0245373Y0159268D01*
X0245397Y0159183D01*
X0245417Y0159097D01*
X0245433Y0159010D01*
X0245445Y0158923D01*
X0245453Y0158835D01*
X0245457Y0158747D01*
X0245457Y0158659D01*
X0245453Y0158571D01*
X0245445Y0158483D01*
X0245433Y0158396D01*
X0245417Y0158309D01*
X0245397Y0158223D01*
X0245373Y0158138D01*
X0245346Y0158055D01*
X0245315Y0157972D01*
X0245280Y0157891D01*
X0245241Y0157812D01*
X0245199Y0157734D01*
X0245154Y0157659D01*
X0245105Y0157586D01*
X0245053Y0157514D01*
X0244998Y0157446D01*
X0244939Y0157380D01*
X0244878Y0157316D01*
X0244814Y0157256D01*
X0244747Y0157198D01*
X0244678Y0157144D01*
X0244606Y0157092D01*
X0244532Y0157044D01*
X0244456Y0157000D01*
X0244379Y0156959D01*
X0244299Y0156921D01*
X0244217Y0156887D01*
X0244135Y0156857D01*
X0244051Y0156830D01*
X0243965Y0156808D01*
X0243879Y0156789D01*
X0243792Y0156774D01*
X0243705Y0156763D01*
X0243617Y0156756D01*
X0243529Y0156753D01*
X0243441Y0156754D01*
X0243353Y0156759D01*
X0243265Y0156768D01*
X0243178Y0156781D01*
X0243092Y0156798D01*
X0243006Y0156818D01*
X0242921Y0156843D01*
X0242838Y0156871D01*
X0242756Y0156904D01*
X0242675Y0156939D01*
X0242596Y0156979D01*
X0242519Y0157022D01*
X0242444Y0157068D01*
X0242372Y0157118D01*
X0242301Y0157171D01*
X0242233Y0157227D01*
X0242168Y0157286D01*
X0242105Y0157348D01*
X0242045Y0157412D01*
X0241988Y0157480D01*
X0241935Y0157550D01*
X0241884Y0157622D01*
X0241837Y0157696D01*
X0241793Y0157773D01*
X0241753Y0157851D01*
X0241716Y0157931D01*
X0241683Y0158013D01*
X0241654Y0158096D01*
X0241628Y0158181D01*
X0241607Y0158266D01*
X0241589Y0158352D01*
X0241575Y0158439D01*
X0241565Y0158527D01*
X0241559Y0158615D01*
X0241557Y0158703D01*
X0248832Y0158703D02*
X0248834Y0158840D01*
X0248840Y0158976D01*
X0248850Y0159112D01*
X0248864Y0159248D01*
X0248882Y0159384D01*
X0248904Y0159519D01*
X0248929Y0159653D01*
X0248959Y0159786D01*
X0248993Y0159918D01*
X0249030Y0160050D01*
X0249071Y0160180D01*
X0249117Y0160309D01*
X0249165Y0160437D01*
X0249218Y0160563D01*
X0249274Y0160687D01*
X0249334Y0160810D01*
X0249397Y0160931D01*
X0249464Y0161050D01*
X0249534Y0161167D01*
X0249608Y0161283D01*
X0249685Y0161395D01*
X0249765Y0161506D01*
X0249849Y0161614D01*
X0249936Y0161720D01*
X0250025Y0161823D01*
X0250118Y0161923D01*
X0250213Y0162021D01*
X0250312Y0162116D01*
X0250413Y0162208D01*
X0250517Y0162296D01*
X0250623Y0162382D01*
X0250732Y0162465D01*
X0250843Y0162544D01*
X0250956Y0162621D01*
X0251072Y0162694D01*
X0251189Y0162763D01*
X0251309Y0162829D01*
X0251430Y0162891D01*
X0251554Y0162950D01*
X0251679Y0163006D01*
X0251805Y0163057D01*
X0251933Y0163105D01*
X0252062Y0163149D01*
X0252193Y0163190D01*
X0252325Y0163226D01*
X0252457Y0163259D01*
X0252591Y0163287D01*
X0252725Y0163312D01*
X0252860Y0163333D01*
X0252996Y0163350D01*
X0253132Y0163363D01*
X0253268Y0163372D01*
X0253405Y0163377D01*
X0253541Y0163378D01*
X0253678Y0163375D01*
X0253814Y0163368D01*
X0253950Y0163357D01*
X0254086Y0163342D01*
X0254221Y0163323D01*
X0254356Y0163300D01*
X0254490Y0163273D01*
X0254623Y0163243D01*
X0254755Y0163208D01*
X0254887Y0163170D01*
X0255016Y0163128D01*
X0255145Y0163082D01*
X0255272Y0163032D01*
X0255398Y0162978D01*
X0255522Y0162921D01*
X0255645Y0162861D01*
X0255765Y0162796D01*
X0255884Y0162729D01*
X0256000Y0162658D01*
X0256115Y0162583D01*
X0256227Y0162505D01*
X0256337Y0162424D01*
X0256445Y0162340D01*
X0256550Y0162252D01*
X0256652Y0162162D01*
X0256752Y0162069D01*
X0256849Y0161972D01*
X0256943Y0161873D01*
X0257034Y0161772D01*
X0257122Y0161667D01*
X0257207Y0161560D01*
X0257289Y0161451D01*
X0257368Y0161339D01*
X0257443Y0161225D01*
X0257515Y0161109D01*
X0257584Y0160991D01*
X0257649Y0160871D01*
X0257711Y0160749D01*
X0257769Y0160625D01*
X0257823Y0160500D01*
X0257874Y0160373D01*
X0257920Y0160245D01*
X0257964Y0160115D01*
X0258003Y0159984D01*
X0258039Y0159852D01*
X0258070Y0159719D01*
X0258098Y0159586D01*
X0258122Y0159451D01*
X0258142Y0159316D01*
X0258158Y0159180D01*
X0258170Y0159044D01*
X0258178Y0158908D01*
X0258182Y0158771D01*
X0258182Y0158635D01*
X0258178Y0158498D01*
X0258170Y0158362D01*
X0258158Y0158226D01*
X0258142Y0158090D01*
X0258122Y0157955D01*
X0258098Y0157820D01*
X0258070Y0157687D01*
X0258039Y0157554D01*
X0258003Y0157422D01*
X0257964Y0157291D01*
X0257920Y0157161D01*
X0257874Y0157033D01*
X0257823Y0156906D01*
X0257769Y0156781D01*
X0257711Y0156657D01*
X0257649Y0156535D01*
X0257584Y0156415D01*
X0257515Y0156297D01*
X0257443Y0156181D01*
X0257368Y0156067D01*
X0257289Y0155955D01*
X0257207Y0155846D01*
X0257122Y0155739D01*
X0257034Y0155634D01*
X0256943Y0155533D01*
X0256849Y0155434D01*
X0256752Y0155337D01*
X0256652Y0155244D01*
X0256550Y0155154D01*
X0256445Y0155066D01*
X0256337Y0154982D01*
X0256227Y0154901D01*
X0256115Y0154823D01*
X0256000Y0154748D01*
X0255884Y0154677D01*
X0255765Y0154610D01*
X0255645Y0154545D01*
X0255522Y0154485D01*
X0255398Y0154428D01*
X0255272Y0154374D01*
X0255145Y0154324D01*
X0255016Y0154278D01*
X0254887Y0154236D01*
X0254755Y0154198D01*
X0254623Y0154163D01*
X0254490Y0154133D01*
X0254356Y0154106D01*
X0254221Y0154083D01*
X0254086Y0154064D01*
X0253950Y0154049D01*
X0253814Y0154038D01*
X0253678Y0154031D01*
X0253541Y0154028D01*
X0253405Y0154029D01*
X0253268Y0154034D01*
X0253132Y0154043D01*
X0252996Y0154056D01*
X0252860Y0154073D01*
X0252725Y0154094D01*
X0252591Y0154119D01*
X0252457Y0154147D01*
X0252325Y0154180D01*
X0252193Y0154216D01*
X0252062Y0154257D01*
X0251933Y0154301D01*
X0251805Y0154349D01*
X0251679Y0154400D01*
X0251554Y0154456D01*
X0251430Y0154515D01*
X0251309Y0154577D01*
X0251189Y0154643D01*
X0251072Y0154712D01*
X0250956Y0154785D01*
X0250843Y0154862D01*
X0250732Y0154941D01*
X0250623Y0155024D01*
X0250517Y0155110D01*
X0250413Y0155198D01*
X0250312Y0155290D01*
X0250213Y0155385D01*
X0250118Y0155483D01*
X0250025Y0155583D01*
X0249936Y0155686D01*
X0249849Y0155792D01*
X0249765Y0155900D01*
X0249685Y0156011D01*
X0249608Y0156123D01*
X0249534Y0156239D01*
X0249464Y0156356D01*
X0249397Y0156475D01*
X0249334Y0156596D01*
X0249274Y0156719D01*
X0249218Y0156843D01*
X0249165Y0156969D01*
X0249117Y0157097D01*
X0249071Y0157226D01*
X0249030Y0157356D01*
X0248993Y0157488D01*
X0248959Y0157620D01*
X0248929Y0157753D01*
X0248904Y0157887D01*
X0248882Y0158022D01*
X0248864Y0158158D01*
X0248850Y0158294D01*
X0248840Y0158430D01*
X0248834Y0158566D01*
X0248832Y0158703D01*
X0248832Y0143270D02*
X0248834Y0143407D01*
X0248840Y0143543D01*
X0248850Y0143679D01*
X0248864Y0143815D01*
X0248882Y0143951D01*
X0248904Y0144086D01*
X0248929Y0144220D01*
X0248959Y0144353D01*
X0248993Y0144485D01*
X0249030Y0144617D01*
X0249071Y0144747D01*
X0249117Y0144876D01*
X0249165Y0145004D01*
X0249218Y0145130D01*
X0249274Y0145254D01*
X0249334Y0145377D01*
X0249397Y0145498D01*
X0249464Y0145617D01*
X0249534Y0145734D01*
X0249608Y0145850D01*
X0249685Y0145962D01*
X0249765Y0146073D01*
X0249849Y0146181D01*
X0249936Y0146287D01*
X0250025Y0146390D01*
X0250118Y0146490D01*
X0250213Y0146588D01*
X0250312Y0146683D01*
X0250413Y0146775D01*
X0250517Y0146863D01*
X0250623Y0146949D01*
X0250732Y0147032D01*
X0250843Y0147111D01*
X0250956Y0147188D01*
X0251072Y0147261D01*
X0251189Y0147330D01*
X0251309Y0147396D01*
X0251430Y0147458D01*
X0251554Y0147517D01*
X0251679Y0147573D01*
X0251805Y0147624D01*
X0251933Y0147672D01*
X0252062Y0147716D01*
X0252193Y0147757D01*
X0252325Y0147793D01*
X0252457Y0147826D01*
X0252591Y0147854D01*
X0252725Y0147879D01*
X0252860Y0147900D01*
X0252996Y0147917D01*
X0253132Y0147930D01*
X0253268Y0147939D01*
X0253405Y0147944D01*
X0253541Y0147945D01*
X0253678Y0147942D01*
X0253814Y0147935D01*
X0253950Y0147924D01*
X0254086Y0147909D01*
X0254221Y0147890D01*
X0254356Y0147867D01*
X0254490Y0147840D01*
X0254623Y0147810D01*
X0254755Y0147775D01*
X0254887Y0147737D01*
X0255016Y0147695D01*
X0255145Y0147649D01*
X0255272Y0147599D01*
X0255398Y0147545D01*
X0255522Y0147488D01*
X0255645Y0147428D01*
X0255765Y0147363D01*
X0255884Y0147296D01*
X0256000Y0147225D01*
X0256115Y0147150D01*
X0256227Y0147072D01*
X0256337Y0146991D01*
X0256445Y0146907D01*
X0256550Y0146819D01*
X0256652Y0146729D01*
X0256752Y0146636D01*
X0256849Y0146539D01*
X0256943Y0146440D01*
X0257034Y0146339D01*
X0257122Y0146234D01*
X0257207Y0146127D01*
X0257289Y0146018D01*
X0257368Y0145906D01*
X0257443Y0145792D01*
X0257515Y0145676D01*
X0257584Y0145558D01*
X0257649Y0145438D01*
X0257711Y0145316D01*
X0257769Y0145192D01*
X0257823Y0145067D01*
X0257874Y0144940D01*
X0257920Y0144812D01*
X0257964Y0144682D01*
X0258003Y0144551D01*
X0258039Y0144419D01*
X0258070Y0144286D01*
X0258098Y0144153D01*
X0258122Y0144018D01*
X0258142Y0143883D01*
X0258158Y0143747D01*
X0258170Y0143611D01*
X0258178Y0143475D01*
X0258182Y0143338D01*
X0258182Y0143202D01*
X0258178Y0143065D01*
X0258170Y0142929D01*
X0258158Y0142793D01*
X0258142Y0142657D01*
X0258122Y0142522D01*
X0258098Y0142387D01*
X0258070Y0142254D01*
X0258039Y0142121D01*
X0258003Y0141989D01*
X0257964Y0141858D01*
X0257920Y0141728D01*
X0257874Y0141600D01*
X0257823Y0141473D01*
X0257769Y0141348D01*
X0257711Y0141224D01*
X0257649Y0141102D01*
X0257584Y0140982D01*
X0257515Y0140864D01*
X0257443Y0140748D01*
X0257368Y0140634D01*
X0257289Y0140522D01*
X0257207Y0140413D01*
X0257122Y0140306D01*
X0257034Y0140201D01*
X0256943Y0140100D01*
X0256849Y0140001D01*
X0256752Y0139904D01*
X0256652Y0139811D01*
X0256550Y0139721D01*
X0256445Y0139633D01*
X0256337Y0139549D01*
X0256227Y0139468D01*
X0256115Y0139390D01*
X0256000Y0139315D01*
X0255884Y0139244D01*
X0255765Y0139177D01*
X0255645Y0139112D01*
X0255522Y0139052D01*
X0255398Y0138995D01*
X0255272Y0138941D01*
X0255145Y0138891D01*
X0255016Y0138845D01*
X0254887Y0138803D01*
X0254755Y0138765D01*
X0254623Y0138730D01*
X0254490Y0138700D01*
X0254356Y0138673D01*
X0254221Y0138650D01*
X0254086Y0138631D01*
X0253950Y0138616D01*
X0253814Y0138605D01*
X0253678Y0138598D01*
X0253541Y0138595D01*
X0253405Y0138596D01*
X0253268Y0138601D01*
X0253132Y0138610D01*
X0252996Y0138623D01*
X0252860Y0138640D01*
X0252725Y0138661D01*
X0252591Y0138686D01*
X0252457Y0138714D01*
X0252325Y0138747D01*
X0252193Y0138783D01*
X0252062Y0138824D01*
X0251933Y0138868D01*
X0251805Y0138916D01*
X0251679Y0138967D01*
X0251554Y0139023D01*
X0251430Y0139082D01*
X0251309Y0139144D01*
X0251189Y0139210D01*
X0251072Y0139279D01*
X0250956Y0139352D01*
X0250843Y0139429D01*
X0250732Y0139508D01*
X0250623Y0139591D01*
X0250517Y0139677D01*
X0250413Y0139765D01*
X0250312Y0139857D01*
X0250213Y0139952D01*
X0250118Y0140050D01*
X0250025Y0140150D01*
X0249936Y0140253D01*
X0249849Y0140359D01*
X0249765Y0140467D01*
X0249685Y0140578D01*
X0249608Y0140690D01*
X0249534Y0140806D01*
X0249464Y0140923D01*
X0249397Y0141042D01*
X0249334Y0141163D01*
X0249274Y0141286D01*
X0249218Y0141410D01*
X0249165Y0141536D01*
X0249117Y0141664D01*
X0249071Y0141793D01*
X0249030Y0141923D01*
X0248993Y0142055D01*
X0248959Y0142187D01*
X0248929Y0142320D01*
X0248904Y0142454D01*
X0248882Y0142589D01*
X0248864Y0142725D01*
X0248850Y0142861D01*
X0248840Y0142997D01*
X0248834Y0143133D01*
X0248832Y0143270D01*
X0241557Y0143270D02*
X0241559Y0143358D01*
X0241565Y0143446D01*
X0241575Y0143534D01*
X0241589Y0143621D01*
X0241607Y0143707D01*
X0241628Y0143792D01*
X0241654Y0143877D01*
X0241683Y0143960D01*
X0241716Y0144042D01*
X0241753Y0144122D01*
X0241793Y0144200D01*
X0241837Y0144277D01*
X0241884Y0144351D01*
X0241935Y0144423D01*
X0241988Y0144493D01*
X0242045Y0144561D01*
X0242105Y0144625D01*
X0242168Y0144687D01*
X0242233Y0144746D01*
X0242301Y0144802D01*
X0242372Y0144855D01*
X0242444Y0144905D01*
X0242519Y0144951D01*
X0242596Y0144994D01*
X0242675Y0145034D01*
X0242756Y0145069D01*
X0242838Y0145102D01*
X0242921Y0145130D01*
X0243006Y0145155D01*
X0243092Y0145175D01*
X0243178Y0145192D01*
X0243265Y0145205D01*
X0243353Y0145214D01*
X0243441Y0145219D01*
X0243529Y0145220D01*
X0243617Y0145217D01*
X0243705Y0145210D01*
X0243792Y0145199D01*
X0243879Y0145184D01*
X0243965Y0145165D01*
X0244051Y0145143D01*
X0244135Y0145116D01*
X0244217Y0145086D01*
X0244299Y0145052D01*
X0244379Y0145014D01*
X0244456Y0144973D01*
X0244532Y0144929D01*
X0244606Y0144881D01*
X0244678Y0144829D01*
X0244747Y0144775D01*
X0244814Y0144717D01*
X0244878Y0144657D01*
X0244939Y0144593D01*
X0244998Y0144527D01*
X0245053Y0144459D01*
X0245105Y0144387D01*
X0245154Y0144314D01*
X0245199Y0144239D01*
X0245241Y0144161D01*
X0245280Y0144082D01*
X0245315Y0144001D01*
X0245346Y0143918D01*
X0245373Y0143835D01*
X0245397Y0143750D01*
X0245417Y0143664D01*
X0245433Y0143577D01*
X0245445Y0143490D01*
X0245453Y0143402D01*
X0245457Y0143314D01*
X0245457Y0143226D01*
X0245453Y0143138D01*
X0245445Y0143050D01*
X0245433Y0142963D01*
X0245417Y0142876D01*
X0245397Y0142790D01*
X0245373Y0142705D01*
X0245346Y0142622D01*
X0245315Y0142539D01*
X0245280Y0142458D01*
X0245241Y0142379D01*
X0245199Y0142301D01*
X0245154Y0142226D01*
X0245105Y0142153D01*
X0245053Y0142081D01*
X0244998Y0142013D01*
X0244939Y0141947D01*
X0244878Y0141883D01*
X0244814Y0141823D01*
X0244747Y0141765D01*
X0244678Y0141711D01*
X0244606Y0141659D01*
X0244532Y0141611D01*
X0244456Y0141567D01*
X0244379Y0141526D01*
X0244299Y0141488D01*
X0244217Y0141454D01*
X0244135Y0141424D01*
X0244051Y0141397D01*
X0243965Y0141375D01*
X0243879Y0141356D01*
X0243792Y0141341D01*
X0243705Y0141330D01*
X0243617Y0141323D01*
X0243529Y0141320D01*
X0243441Y0141321D01*
X0243353Y0141326D01*
X0243265Y0141335D01*
X0243178Y0141348D01*
X0243092Y0141365D01*
X0243006Y0141385D01*
X0242921Y0141410D01*
X0242838Y0141438D01*
X0242756Y0141471D01*
X0242675Y0141506D01*
X0242596Y0141546D01*
X0242519Y0141589D01*
X0242444Y0141635D01*
X0242372Y0141685D01*
X0242301Y0141738D01*
X0242233Y0141794D01*
X0242168Y0141853D01*
X0242105Y0141915D01*
X0242045Y0141979D01*
X0241988Y0142047D01*
X0241935Y0142117D01*
X0241884Y0142189D01*
X0241837Y0142263D01*
X0241793Y0142340D01*
X0241753Y0142418D01*
X0241716Y0142498D01*
X0241683Y0142580D01*
X0241654Y0142663D01*
X0241628Y0142748D01*
X0241607Y0142833D01*
X0241589Y0142919D01*
X0241575Y0143006D01*
X0241565Y0143094D01*
X0241559Y0143182D01*
X0241557Y0143270D01*
X0228832Y0143270D02*
X0228834Y0143407D01*
X0228840Y0143543D01*
X0228850Y0143679D01*
X0228864Y0143815D01*
X0228882Y0143951D01*
X0228904Y0144086D01*
X0228929Y0144220D01*
X0228959Y0144353D01*
X0228993Y0144485D01*
X0229030Y0144617D01*
X0229071Y0144747D01*
X0229117Y0144876D01*
X0229165Y0145004D01*
X0229218Y0145130D01*
X0229274Y0145254D01*
X0229334Y0145377D01*
X0229397Y0145498D01*
X0229464Y0145617D01*
X0229534Y0145734D01*
X0229608Y0145850D01*
X0229685Y0145962D01*
X0229765Y0146073D01*
X0229849Y0146181D01*
X0229936Y0146287D01*
X0230025Y0146390D01*
X0230118Y0146490D01*
X0230213Y0146588D01*
X0230312Y0146683D01*
X0230413Y0146775D01*
X0230517Y0146863D01*
X0230623Y0146949D01*
X0230732Y0147032D01*
X0230843Y0147111D01*
X0230956Y0147188D01*
X0231072Y0147261D01*
X0231189Y0147330D01*
X0231309Y0147396D01*
X0231430Y0147458D01*
X0231554Y0147517D01*
X0231679Y0147573D01*
X0231805Y0147624D01*
X0231933Y0147672D01*
X0232062Y0147716D01*
X0232193Y0147757D01*
X0232325Y0147793D01*
X0232457Y0147826D01*
X0232591Y0147854D01*
X0232725Y0147879D01*
X0232860Y0147900D01*
X0232996Y0147917D01*
X0233132Y0147930D01*
X0233268Y0147939D01*
X0233405Y0147944D01*
X0233541Y0147945D01*
X0233678Y0147942D01*
X0233814Y0147935D01*
X0233950Y0147924D01*
X0234086Y0147909D01*
X0234221Y0147890D01*
X0234356Y0147867D01*
X0234490Y0147840D01*
X0234623Y0147810D01*
X0234755Y0147775D01*
X0234887Y0147737D01*
X0235016Y0147695D01*
X0235145Y0147649D01*
X0235272Y0147599D01*
X0235398Y0147545D01*
X0235522Y0147488D01*
X0235645Y0147428D01*
X0235765Y0147363D01*
X0235884Y0147296D01*
X0236000Y0147225D01*
X0236115Y0147150D01*
X0236227Y0147072D01*
X0236337Y0146991D01*
X0236445Y0146907D01*
X0236550Y0146819D01*
X0236652Y0146729D01*
X0236752Y0146636D01*
X0236849Y0146539D01*
X0236943Y0146440D01*
X0237034Y0146339D01*
X0237122Y0146234D01*
X0237207Y0146127D01*
X0237289Y0146018D01*
X0237368Y0145906D01*
X0237443Y0145792D01*
X0237515Y0145676D01*
X0237584Y0145558D01*
X0237649Y0145438D01*
X0237711Y0145316D01*
X0237769Y0145192D01*
X0237823Y0145067D01*
X0237874Y0144940D01*
X0237920Y0144812D01*
X0237964Y0144682D01*
X0238003Y0144551D01*
X0238039Y0144419D01*
X0238070Y0144286D01*
X0238098Y0144153D01*
X0238122Y0144018D01*
X0238142Y0143883D01*
X0238158Y0143747D01*
X0238170Y0143611D01*
X0238178Y0143475D01*
X0238182Y0143338D01*
X0238182Y0143202D01*
X0238178Y0143065D01*
X0238170Y0142929D01*
X0238158Y0142793D01*
X0238142Y0142657D01*
X0238122Y0142522D01*
X0238098Y0142387D01*
X0238070Y0142254D01*
X0238039Y0142121D01*
X0238003Y0141989D01*
X0237964Y0141858D01*
X0237920Y0141728D01*
X0237874Y0141600D01*
X0237823Y0141473D01*
X0237769Y0141348D01*
X0237711Y0141224D01*
X0237649Y0141102D01*
X0237584Y0140982D01*
X0237515Y0140864D01*
X0237443Y0140748D01*
X0237368Y0140634D01*
X0237289Y0140522D01*
X0237207Y0140413D01*
X0237122Y0140306D01*
X0237034Y0140201D01*
X0236943Y0140100D01*
X0236849Y0140001D01*
X0236752Y0139904D01*
X0236652Y0139811D01*
X0236550Y0139721D01*
X0236445Y0139633D01*
X0236337Y0139549D01*
X0236227Y0139468D01*
X0236115Y0139390D01*
X0236000Y0139315D01*
X0235884Y0139244D01*
X0235765Y0139177D01*
X0235645Y0139112D01*
X0235522Y0139052D01*
X0235398Y0138995D01*
X0235272Y0138941D01*
X0235145Y0138891D01*
X0235016Y0138845D01*
X0234887Y0138803D01*
X0234755Y0138765D01*
X0234623Y0138730D01*
X0234490Y0138700D01*
X0234356Y0138673D01*
X0234221Y0138650D01*
X0234086Y0138631D01*
X0233950Y0138616D01*
X0233814Y0138605D01*
X0233678Y0138598D01*
X0233541Y0138595D01*
X0233405Y0138596D01*
X0233268Y0138601D01*
X0233132Y0138610D01*
X0232996Y0138623D01*
X0232860Y0138640D01*
X0232725Y0138661D01*
X0232591Y0138686D01*
X0232457Y0138714D01*
X0232325Y0138747D01*
X0232193Y0138783D01*
X0232062Y0138824D01*
X0231933Y0138868D01*
X0231805Y0138916D01*
X0231679Y0138967D01*
X0231554Y0139023D01*
X0231430Y0139082D01*
X0231309Y0139144D01*
X0231189Y0139210D01*
X0231072Y0139279D01*
X0230956Y0139352D01*
X0230843Y0139429D01*
X0230732Y0139508D01*
X0230623Y0139591D01*
X0230517Y0139677D01*
X0230413Y0139765D01*
X0230312Y0139857D01*
X0230213Y0139952D01*
X0230118Y0140050D01*
X0230025Y0140150D01*
X0229936Y0140253D01*
X0229849Y0140359D01*
X0229765Y0140467D01*
X0229685Y0140578D01*
X0229608Y0140690D01*
X0229534Y0140806D01*
X0229464Y0140923D01*
X0229397Y0141042D01*
X0229334Y0141163D01*
X0229274Y0141286D01*
X0229218Y0141410D01*
X0229165Y0141536D01*
X0229117Y0141664D01*
X0229071Y0141793D01*
X0229030Y0141923D01*
X0228993Y0142055D01*
X0228959Y0142187D01*
X0228929Y0142320D01*
X0228904Y0142454D01*
X0228882Y0142589D01*
X0228864Y0142725D01*
X0228850Y0142861D01*
X0228840Y0142997D01*
X0228834Y0143133D01*
X0228832Y0143270D01*
X0228832Y0130770D02*
X0228834Y0130907D01*
X0228840Y0131043D01*
X0228850Y0131179D01*
X0228864Y0131315D01*
X0228882Y0131451D01*
X0228904Y0131586D01*
X0228929Y0131720D01*
X0228959Y0131853D01*
X0228993Y0131985D01*
X0229030Y0132117D01*
X0229071Y0132247D01*
X0229117Y0132376D01*
X0229165Y0132504D01*
X0229218Y0132630D01*
X0229274Y0132754D01*
X0229334Y0132877D01*
X0229397Y0132998D01*
X0229464Y0133117D01*
X0229534Y0133234D01*
X0229608Y0133350D01*
X0229685Y0133462D01*
X0229765Y0133573D01*
X0229849Y0133681D01*
X0229936Y0133787D01*
X0230025Y0133890D01*
X0230118Y0133990D01*
X0230213Y0134088D01*
X0230312Y0134183D01*
X0230413Y0134275D01*
X0230517Y0134363D01*
X0230623Y0134449D01*
X0230732Y0134532D01*
X0230843Y0134611D01*
X0230956Y0134688D01*
X0231072Y0134761D01*
X0231189Y0134830D01*
X0231309Y0134896D01*
X0231430Y0134958D01*
X0231554Y0135017D01*
X0231679Y0135073D01*
X0231805Y0135124D01*
X0231933Y0135172D01*
X0232062Y0135216D01*
X0232193Y0135257D01*
X0232325Y0135293D01*
X0232457Y0135326D01*
X0232591Y0135354D01*
X0232725Y0135379D01*
X0232860Y0135400D01*
X0232996Y0135417D01*
X0233132Y0135430D01*
X0233268Y0135439D01*
X0233405Y0135444D01*
X0233541Y0135445D01*
X0233678Y0135442D01*
X0233814Y0135435D01*
X0233950Y0135424D01*
X0234086Y0135409D01*
X0234221Y0135390D01*
X0234356Y0135367D01*
X0234490Y0135340D01*
X0234623Y0135310D01*
X0234755Y0135275D01*
X0234887Y0135237D01*
X0235016Y0135195D01*
X0235145Y0135149D01*
X0235272Y0135099D01*
X0235398Y0135045D01*
X0235522Y0134988D01*
X0235645Y0134928D01*
X0235765Y0134863D01*
X0235884Y0134796D01*
X0236000Y0134725D01*
X0236115Y0134650D01*
X0236227Y0134572D01*
X0236337Y0134491D01*
X0236445Y0134407D01*
X0236550Y0134319D01*
X0236652Y0134229D01*
X0236752Y0134136D01*
X0236849Y0134039D01*
X0236943Y0133940D01*
X0237034Y0133839D01*
X0237122Y0133734D01*
X0237207Y0133627D01*
X0237289Y0133518D01*
X0237368Y0133406D01*
X0237443Y0133292D01*
X0237515Y0133176D01*
X0237584Y0133058D01*
X0237649Y0132938D01*
X0237711Y0132816D01*
X0237769Y0132692D01*
X0237823Y0132567D01*
X0237874Y0132440D01*
X0237920Y0132312D01*
X0237964Y0132182D01*
X0238003Y0132051D01*
X0238039Y0131919D01*
X0238070Y0131786D01*
X0238098Y0131653D01*
X0238122Y0131518D01*
X0238142Y0131383D01*
X0238158Y0131247D01*
X0238170Y0131111D01*
X0238178Y0130975D01*
X0238182Y0130838D01*
X0238182Y0130702D01*
X0238178Y0130565D01*
X0238170Y0130429D01*
X0238158Y0130293D01*
X0238142Y0130157D01*
X0238122Y0130022D01*
X0238098Y0129887D01*
X0238070Y0129754D01*
X0238039Y0129621D01*
X0238003Y0129489D01*
X0237964Y0129358D01*
X0237920Y0129228D01*
X0237874Y0129100D01*
X0237823Y0128973D01*
X0237769Y0128848D01*
X0237711Y0128724D01*
X0237649Y0128602D01*
X0237584Y0128482D01*
X0237515Y0128364D01*
X0237443Y0128248D01*
X0237368Y0128134D01*
X0237289Y0128022D01*
X0237207Y0127913D01*
X0237122Y0127806D01*
X0237034Y0127701D01*
X0236943Y0127600D01*
X0236849Y0127501D01*
X0236752Y0127404D01*
X0236652Y0127311D01*
X0236550Y0127221D01*
X0236445Y0127133D01*
X0236337Y0127049D01*
X0236227Y0126968D01*
X0236115Y0126890D01*
X0236000Y0126815D01*
X0235884Y0126744D01*
X0235765Y0126677D01*
X0235645Y0126612D01*
X0235522Y0126552D01*
X0235398Y0126495D01*
X0235272Y0126441D01*
X0235145Y0126391D01*
X0235016Y0126345D01*
X0234887Y0126303D01*
X0234755Y0126265D01*
X0234623Y0126230D01*
X0234490Y0126200D01*
X0234356Y0126173D01*
X0234221Y0126150D01*
X0234086Y0126131D01*
X0233950Y0126116D01*
X0233814Y0126105D01*
X0233678Y0126098D01*
X0233541Y0126095D01*
X0233405Y0126096D01*
X0233268Y0126101D01*
X0233132Y0126110D01*
X0232996Y0126123D01*
X0232860Y0126140D01*
X0232725Y0126161D01*
X0232591Y0126186D01*
X0232457Y0126214D01*
X0232325Y0126247D01*
X0232193Y0126283D01*
X0232062Y0126324D01*
X0231933Y0126368D01*
X0231805Y0126416D01*
X0231679Y0126467D01*
X0231554Y0126523D01*
X0231430Y0126582D01*
X0231309Y0126644D01*
X0231189Y0126710D01*
X0231072Y0126779D01*
X0230956Y0126852D01*
X0230843Y0126929D01*
X0230732Y0127008D01*
X0230623Y0127091D01*
X0230517Y0127177D01*
X0230413Y0127265D01*
X0230312Y0127357D01*
X0230213Y0127452D01*
X0230118Y0127550D01*
X0230025Y0127650D01*
X0229936Y0127753D01*
X0229849Y0127859D01*
X0229765Y0127967D01*
X0229685Y0128078D01*
X0229608Y0128190D01*
X0229534Y0128306D01*
X0229464Y0128423D01*
X0229397Y0128542D01*
X0229334Y0128663D01*
X0229274Y0128786D01*
X0229218Y0128910D01*
X0229165Y0129036D01*
X0229117Y0129164D01*
X0229071Y0129293D01*
X0229030Y0129423D01*
X0228993Y0129555D01*
X0228959Y0129687D01*
X0228929Y0129820D01*
X0228904Y0129954D01*
X0228882Y0130089D01*
X0228864Y0130225D01*
X0228850Y0130361D01*
X0228840Y0130497D01*
X0228834Y0130633D01*
X0228832Y0130770D01*
X0237557Y0123270D02*
X0237559Y0123358D01*
X0237565Y0123446D01*
X0237575Y0123534D01*
X0237589Y0123621D01*
X0237607Y0123707D01*
X0237628Y0123792D01*
X0237654Y0123877D01*
X0237683Y0123960D01*
X0237716Y0124042D01*
X0237753Y0124122D01*
X0237793Y0124200D01*
X0237837Y0124277D01*
X0237884Y0124351D01*
X0237935Y0124423D01*
X0237988Y0124493D01*
X0238045Y0124561D01*
X0238105Y0124625D01*
X0238168Y0124687D01*
X0238233Y0124746D01*
X0238301Y0124802D01*
X0238372Y0124855D01*
X0238444Y0124905D01*
X0238519Y0124951D01*
X0238596Y0124994D01*
X0238675Y0125034D01*
X0238756Y0125069D01*
X0238838Y0125102D01*
X0238921Y0125130D01*
X0239006Y0125155D01*
X0239092Y0125175D01*
X0239178Y0125192D01*
X0239265Y0125205D01*
X0239353Y0125214D01*
X0239441Y0125219D01*
X0239529Y0125220D01*
X0239617Y0125217D01*
X0239705Y0125210D01*
X0239792Y0125199D01*
X0239879Y0125184D01*
X0239965Y0125165D01*
X0240051Y0125143D01*
X0240135Y0125116D01*
X0240217Y0125086D01*
X0240299Y0125052D01*
X0240379Y0125014D01*
X0240456Y0124973D01*
X0240532Y0124929D01*
X0240606Y0124881D01*
X0240678Y0124829D01*
X0240747Y0124775D01*
X0240814Y0124717D01*
X0240878Y0124657D01*
X0240939Y0124593D01*
X0240998Y0124527D01*
X0241053Y0124459D01*
X0241105Y0124387D01*
X0241154Y0124314D01*
X0241199Y0124239D01*
X0241241Y0124161D01*
X0241280Y0124082D01*
X0241315Y0124001D01*
X0241346Y0123918D01*
X0241373Y0123835D01*
X0241397Y0123750D01*
X0241417Y0123664D01*
X0241433Y0123577D01*
X0241445Y0123490D01*
X0241453Y0123402D01*
X0241457Y0123314D01*
X0241457Y0123226D01*
X0241453Y0123138D01*
X0241445Y0123050D01*
X0241433Y0122963D01*
X0241417Y0122876D01*
X0241397Y0122790D01*
X0241373Y0122705D01*
X0241346Y0122622D01*
X0241315Y0122539D01*
X0241280Y0122458D01*
X0241241Y0122379D01*
X0241199Y0122301D01*
X0241154Y0122226D01*
X0241105Y0122153D01*
X0241053Y0122081D01*
X0240998Y0122013D01*
X0240939Y0121947D01*
X0240878Y0121883D01*
X0240814Y0121823D01*
X0240747Y0121765D01*
X0240678Y0121711D01*
X0240606Y0121659D01*
X0240532Y0121611D01*
X0240456Y0121567D01*
X0240379Y0121526D01*
X0240299Y0121488D01*
X0240217Y0121454D01*
X0240135Y0121424D01*
X0240051Y0121397D01*
X0239965Y0121375D01*
X0239879Y0121356D01*
X0239792Y0121341D01*
X0239705Y0121330D01*
X0239617Y0121323D01*
X0239529Y0121320D01*
X0239441Y0121321D01*
X0239353Y0121326D01*
X0239265Y0121335D01*
X0239178Y0121348D01*
X0239092Y0121365D01*
X0239006Y0121385D01*
X0238921Y0121410D01*
X0238838Y0121438D01*
X0238756Y0121471D01*
X0238675Y0121506D01*
X0238596Y0121546D01*
X0238519Y0121589D01*
X0238444Y0121635D01*
X0238372Y0121685D01*
X0238301Y0121738D01*
X0238233Y0121794D01*
X0238168Y0121853D01*
X0238105Y0121915D01*
X0238045Y0121979D01*
X0237988Y0122047D01*
X0237935Y0122117D01*
X0237884Y0122189D01*
X0237837Y0122263D01*
X0237793Y0122340D01*
X0237753Y0122418D01*
X0237716Y0122498D01*
X0237683Y0122580D01*
X0237654Y0122663D01*
X0237628Y0122748D01*
X0237607Y0122833D01*
X0237589Y0122919D01*
X0237575Y0123006D01*
X0237565Y0123094D01*
X0237559Y0123182D01*
X0237557Y0123270D01*
X0245557Y0123270D02*
X0245559Y0123358D01*
X0245565Y0123446D01*
X0245575Y0123534D01*
X0245589Y0123621D01*
X0245607Y0123707D01*
X0245628Y0123792D01*
X0245654Y0123877D01*
X0245683Y0123960D01*
X0245716Y0124042D01*
X0245753Y0124122D01*
X0245793Y0124200D01*
X0245837Y0124277D01*
X0245884Y0124351D01*
X0245935Y0124423D01*
X0245988Y0124493D01*
X0246045Y0124561D01*
X0246105Y0124625D01*
X0246168Y0124687D01*
X0246233Y0124746D01*
X0246301Y0124802D01*
X0246372Y0124855D01*
X0246444Y0124905D01*
X0246519Y0124951D01*
X0246596Y0124994D01*
X0246675Y0125034D01*
X0246756Y0125069D01*
X0246838Y0125102D01*
X0246921Y0125130D01*
X0247006Y0125155D01*
X0247092Y0125175D01*
X0247178Y0125192D01*
X0247265Y0125205D01*
X0247353Y0125214D01*
X0247441Y0125219D01*
X0247529Y0125220D01*
X0247617Y0125217D01*
X0247705Y0125210D01*
X0247792Y0125199D01*
X0247879Y0125184D01*
X0247965Y0125165D01*
X0248051Y0125143D01*
X0248135Y0125116D01*
X0248217Y0125086D01*
X0248299Y0125052D01*
X0248379Y0125014D01*
X0248456Y0124973D01*
X0248532Y0124929D01*
X0248606Y0124881D01*
X0248678Y0124829D01*
X0248747Y0124775D01*
X0248814Y0124717D01*
X0248878Y0124657D01*
X0248939Y0124593D01*
X0248998Y0124527D01*
X0249053Y0124459D01*
X0249105Y0124387D01*
X0249154Y0124314D01*
X0249199Y0124239D01*
X0249241Y0124161D01*
X0249280Y0124082D01*
X0249315Y0124001D01*
X0249346Y0123918D01*
X0249373Y0123835D01*
X0249397Y0123750D01*
X0249417Y0123664D01*
X0249433Y0123577D01*
X0249445Y0123490D01*
X0249453Y0123402D01*
X0249457Y0123314D01*
X0249457Y0123226D01*
X0249453Y0123138D01*
X0249445Y0123050D01*
X0249433Y0122963D01*
X0249417Y0122876D01*
X0249397Y0122790D01*
X0249373Y0122705D01*
X0249346Y0122622D01*
X0249315Y0122539D01*
X0249280Y0122458D01*
X0249241Y0122379D01*
X0249199Y0122301D01*
X0249154Y0122226D01*
X0249105Y0122153D01*
X0249053Y0122081D01*
X0248998Y0122013D01*
X0248939Y0121947D01*
X0248878Y0121883D01*
X0248814Y0121823D01*
X0248747Y0121765D01*
X0248678Y0121711D01*
X0248606Y0121659D01*
X0248532Y0121611D01*
X0248456Y0121567D01*
X0248379Y0121526D01*
X0248299Y0121488D01*
X0248217Y0121454D01*
X0248135Y0121424D01*
X0248051Y0121397D01*
X0247965Y0121375D01*
X0247879Y0121356D01*
X0247792Y0121341D01*
X0247705Y0121330D01*
X0247617Y0121323D01*
X0247529Y0121320D01*
X0247441Y0121321D01*
X0247353Y0121326D01*
X0247265Y0121335D01*
X0247178Y0121348D01*
X0247092Y0121365D01*
X0247006Y0121385D01*
X0246921Y0121410D01*
X0246838Y0121438D01*
X0246756Y0121471D01*
X0246675Y0121506D01*
X0246596Y0121546D01*
X0246519Y0121589D01*
X0246444Y0121635D01*
X0246372Y0121685D01*
X0246301Y0121738D01*
X0246233Y0121794D01*
X0246168Y0121853D01*
X0246105Y0121915D01*
X0246045Y0121979D01*
X0245988Y0122047D01*
X0245935Y0122117D01*
X0245884Y0122189D01*
X0245837Y0122263D01*
X0245793Y0122340D01*
X0245753Y0122418D01*
X0245716Y0122498D01*
X0245683Y0122580D01*
X0245654Y0122663D01*
X0245628Y0122748D01*
X0245607Y0122833D01*
X0245589Y0122919D01*
X0245575Y0123006D01*
X0245565Y0123094D01*
X0245559Y0123182D01*
X0245557Y0123270D01*
X0248832Y0130770D02*
X0248834Y0130907D01*
X0248840Y0131043D01*
X0248850Y0131179D01*
X0248864Y0131315D01*
X0248882Y0131451D01*
X0248904Y0131586D01*
X0248929Y0131720D01*
X0248959Y0131853D01*
X0248993Y0131985D01*
X0249030Y0132117D01*
X0249071Y0132247D01*
X0249117Y0132376D01*
X0249165Y0132504D01*
X0249218Y0132630D01*
X0249274Y0132754D01*
X0249334Y0132877D01*
X0249397Y0132998D01*
X0249464Y0133117D01*
X0249534Y0133234D01*
X0249608Y0133350D01*
X0249685Y0133462D01*
X0249765Y0133573D01*
X0249849Y0133681D01*
X0249936Y0133787D01*
X0250025Y0133890D01*
X0250118Y0133990D01*
X0250213Y0134088D01*
X0250312Y0134183D01*
X0250413Y0134275D01*
X0250517Y0134363D01*
X0250623Y0134449D01*
X0250732Y0134532D01*
X0250843Y0134611D01*
X0250956Y0134688D01*
X0251072Y0134761D01*
X0251189Y0134830D01*
X0251309Y0134896D01*
X0251430Y0134958D01*
X0251554Y0135017D01*
X0251679Y0135073D01*
X0251805Y0135124D01*
X0251933Y0135172D01*
X0252062Y0135216D01*
X0252193Y0135257D01*
X0252325Y0135293D01*
X0252457Y0135326D01*
X0252591Y0135354D01*
X0252725Y0135379D01*
X0252860Y0135400D01*
X0252996Y0135417D01*
X0253132Y0135430D01*
X0253268Y0135439D01*
X0253405Y0135444D01*
X0253541Y0135445D01*
X0253678Y0135442D01*
X0253814Y0135435D01*
X0253950Y0135424D01*
X0254086Y0135409D01*
X0254221Y0135390D01*
X0254356Y0135367D01*
X0254490Y0135340D01*
X0254623Y0135310D01*
X0254755Y0135275D01*
X0254887Y0135237D01*
X0255016Y0135195D01*
X0255145Y0135149D01*
X0255272Y0135099D01*
X0255398Y0135045D01*
X0255522Y0134988D01*
X0255645Y0134928D01*
X0255765Y0134863D01*
X0255884Y0134796D01*
X0256000Y0134725D01*
X0256115Y0134650D01*
X0256227Y0134572D01*
X0256337Y0134491D01*
X0256445Y0134407D01*
X0256550Y0134319D01*
X0256652Y0134229D01*
X0256752Y0134136D01*
X0256849Y0134039D01*
X0256943Y0133940D01*
X0257034Y0133839D01*
X0257122Y0133734D01*
X0257207Y0133627D01*
X0257289Y0133518D01*
X0257368Y0133406D01*
X0257443Y0133292D01*
X0257515Y0133176D01*
X0257584Y0133058D01*
X0257649Y0132938D01*
X0257711Y0132816D01*
X0257769Y0132692D01*
X0257823Y0132567D01*
X0257874Y0132440D01*
X0257920Y0132312D01*
X0257964Y0132182D01*
X0258003Y0132051D01*
X0258039Y0131919D01*
X0258070Y0131786D01*
X0258098Y0131653D01*
X0258122Y0131518D01*
X0258142Y0131383D01*
X0258158Y0131247D01*
X0258170Y0131111D01*
X0258178Y0130975D01*
X0258182Y0130838D01*
X0258182Y0130702D01*
X0258178Y0130565D01*
X0258170Y0130429D01*
X0258158Y0130293D01*
X0258142Y0130157D01*
X0258122Y0130022D01*
X0258098Y0129887D01*
X0258070Y0129754D01*
X0258039Y0129621D01*
X0258003Y0129489D01*
X0257964Y0129358D01*
X0257920Y0129228D01*
X0257874Y0129100D01*
X0257823Y0128973D01*
X0257769Y0128848D01*
X0257711Y0128724D01*
X0257649Y0128602D01*
X0257584Y0128482D01*
X0257515Y0128364D01*
X0257443Y0128248D01*
X0257368Y0128134D01*
X0257289Y0128022D01*
X0257207Y0127913D01*
X0257122Y0127806D01*
X0257034Y0127701D01*
X0256943Y0127600D01*
X0256849Y0127501D01*
X0256752Y0127404D01*
X0256652Y0127311D01*
X0256550Y0127221D01*
X0256445Y0127133D01*
X0256337Y0127049D01*
X0256227Y0126968D01*
X0256115Y0126890D01*
X0256000Y0126815D01*
X0255884Y0126744D01*
X0255765Y0126677D01*
X0255645Y0126612D01*
X0255522Y0126552D01*
X0255398Y0126495D01*
X0255272Y0126441D01*
X0255145Y0126391D01*
X0255016Y0126345D01*
X0254887Y0126303D01*
X0254755Y0126265D01*
X0254623Y0126230D01*
X0254490Y0126200D01*
X0254356Y0126173D01*
X0254221Y0126150D01*
X0254086Y0126131D01*
X0253950Y0126116D01*
X0253814Y0126105D01*
X0253678Y0126098D01*
X0253541Y0126095D01*
X0253405Y0126096D01*
X0253268Y0126101D01*
X0253132Y0126110D01*
X0252996Y0126123D01*
X0252860Y0126140D01*
X0252725Y0126161D01*
X0252591Y0126186D01*
X0252457Y0126214D01*
X0252325Y0126247D01*
X0252193Y0126283D01*
X0252062Y0126324D01*
X0251933Y0126368D01*
X0251805Y0126416D01*
X0251679Y0126467D01*
X0251554Y0126523D01*
X0251430Y0126582D01*
X0251309Y0126644D01*
X0251189Y0126710D01*
X0251072Y0126779D01*
X0250956Y0126852D01*
X0250843Y0126929D01*
X0250732Y0127008D01*
X0250623Y0127091D01*
X0250517Y0127177D01*
X0250413Y0127265D01*
X0250312Y0127357D01*
X0250213Y0127452D01*
X0250118Y0127550D01*
X0250025Y0127650D01*
X0249936Y0127753D01*
X0249849Y0127859D01*
X0249765Y0127967D01*
X0249685Y0128078D01*
X0249608Y0128190D01*
X0249534Y0128306D01*
X0249464Y0128423D01*
X0249397Y0128542D01*
X0249334Y0128663D01*
X0249274Y0128786D01*
X0249218Y0128910D01*
X0249165Y0129036D01*
X0249117Y0129164D01*
X0249071Y0129293D01*
X0249030Y0129423D01*
X0248993Y0129555D01*
X0248959Y0129687D01*
X0248929Y0129820D01*
X0248904Y0129954D01*
X0248882Y0130089D01*
X0248864Y0130225D01*
X0248850Y0130361D01*
X0248840Y0130497D01*
X0248834Y0130633D01*
X0248832Y0130770D01*
X0190642Y0191499D02*
X0190644Y0191657D01*
X0190650Y0191814D01*
X0190660Y0191972D01*
X0190674Y0192129D01*
X0190692Y0192285D01*
X0190713Y0192442D01*
X0190739Y0192597D01*
X0190769Y0192752D01*
X0190802Y0192906D01*
X0190840Y0193059D01*
X0190881Y0193212D01*
X0190926Y0193363D01*
X0190975Y0193513D01*
X0191028Y0193661D01*
X0191084Y0193809D01*
X0191145Y0193954D01*
X0191208Y0194099D01*
X0191276Y0194241D01*
X0191347Y0194382D01*
X0191421Y0194521D01*
X0191499Y0194658D01*
X0191581Y0194793D01*
X0191665Y0194926D01*
X0191754Y0195057D01*
X0191845Y0195185D01*
X0191940Y0195312D01*
X0192037Y0195435D01*
X0192138Y0195557D01*
X0192242Y0195675D01*
X0192349Y0195791D01*
X0192459Y0195904D01*
X0192571Y0196015D01*
X0192687Y0196122D01*
X0192805Y0196227D01*
X0192925Y0196329D01*
X0193048Y0196427D01*
X0193174Y0196523D01*
X0193302Y0196615D01*
X0193432Y0196704D01*
X0193564Y0196790D01*
X0193699Y0196872D01*
X0193836Y0196951D01*
X0193974Y0197026D01*
X0194114Y0197098D01*
X0194257Y0197166D01*
X0194400Y0197231D01*
X0194546Y0197292D01*
X0194693Y0197349D01*
X0194841Y0197403D01*
X0194991Y0197453D01*
X0195141Y0197499D01*
X0195293Y0197541D01*
X0195446Y0197580D01*
X0195600Y0197614D01*
X0195755Y0197645D01*
X0195910Y0197671D01*
X0196066Y0197694D01*
X0196223Y0197713D01*
X0196380Y0197728D01*
X0196537Y0197739D01*
X0196695Y0197746D01*
X0196853Y0197749D01*
X0197010Y0197748D01*
X0197168Y0197743D01*
X0197325Y0197734D01*
X0197483Y0197721D01*
X0197639Y0197704D01*
X0197796Y0197683D01*
X0197951Y0197659D01*
X0198106Y0197630D01*
X0198261Y0197597D01*
X0198414Y0197561D01*
X0198567Y0197520D01*
X0198718Y0197476D01*
X0198868Y0197428D01*
X0199017Y0197377D01*
X0199165Y0197321D01*
X0199311Y0197262D01*
X0199456Y0197199D01*
X0199599Y0197132D01*
X0199740Y0197062D01*
X0199879Y0196989D01*
X0200017Y0196912D01*
X0200153Y0196831D01*
X0200286Y0196747D01*
X0200417Y0196660D01*
X0200546Y0196569D01*
X0200673Y0196475D01*
X0200798Y0196378D01*
X0200919Y0196278D01*
X0201039Y0196175D01*
X0201155Y0196069D01*
X0201269Y0195960D01*
X0201381Y0195848D01*
X0201489Y0195734D01*
X0201594Y0195616D01*
X0201697Y0195496D01*
X0201796Y0195374D01*
X0201892Y0195249D01*
X0201985Y0195121D01*
X0202075Y0194992D01*
X0202161Y0194860D01*
X0202245Y0194726D01*
X0202324Y0194590D01*
X0202401Y0194452D01*
X0202473Y0194312D01*
X0202542Y0194170D01*
X0202608Y0194027D01*
X0202670Y0193882D01*
X0202728Y0193735D01*
X0202783Y0193587D01*
X0202834Y0193438D01*
X0202881Y0193287D01*
X0202924Y0193136D01*
X0202963Y0192983D01*
X0202999Y0192829D01*
X0203030Y0192675D01*
X0203058Y0192520D01*
X0203082Y0192364D01*
X0203102Y0192207D01*
X0203118Y0192050D01*
X0203130Y0191893D01*
X0203138Y0191736D01*
X0203142Y0191578D01*
X0203142Y0191420D01*
X0203138Y0191262D01*
X0203130Y0191105D01*
X0203118Y0190948D01*
X0203102Y0190791D01*
X0203082Y0190634D01*
X0203058Y0190478D01*
X0203030Y0190323D01*
X0202999Y0190169D01*
X0202963Y0190015D01*
X0202924Y0189862D01*
X0202881Y0189711D01*
X0202834Y0189560D01*
X0202783Y0189411D01*
X0202728Y0189263D01*
X0202670Y0189116D01*
X0202608Y0188971D01*
X0202542Y0188828D01*
X0202473Y0188686D01*
X0202401Y0188546D01*
X0202324Y0188408D01*
X0202245Y0188272D01*
X0202161Y0188138D01*
X0202075Y0188006D01*
X0201985Y0187877D01*
X0201892Y0187749D01*
X0201796Y0187624D01*
X0201697Y0187502D01*
X0201594Y0187382D01*
X0201489Y0187264D01*
X0201381Y0187150D01*
X0201269Y0187038D01*
X0201155Y0186929D01*
X0201039Y0186823D01*
X0200919Y0186720D01*
X0200798Y0186620D01*
X0200673Y0186523D01*
X0200546Y0186429D01*
X0200417Y0186338D01*
X0200286Y0186251D01*
X0200153Y0186167D01*
X0200017Y0186086D01*
X0199879Y0186009D01*
X0199740Y0185936D01*
X0199599Y0185866D01*
X0199456Y0185799D01*
X0199311Y0185736D01*
X0199165Y0185677D01*
X0199017Y0185621D01*
X0198868Y0185570D01*
X0198718Y0185522D01*
X0198567Y0185478D01*
X0198414Y0185437D01*
X0198261Y0185401D01*
X0198106Y0185368D01*
X0197951Y0185339D01*
X0197796Y0185315D01*
X0197639Y0185294D01*
X0197483Y0185277D01*
X0197325Y0185264D01*
X0197168Y0185255D01*
X0197010Y0185250D01*
X0196853Y0185249D01*
X0196695Y0185252D01*
X0196537Y0185259D01*
X0196380Y0185270D01*
X0196223Y0185285D01*
X0196066Y0185304D01*
X0195910Y0185327D01*
X0195755Y0185353D01*
X0195600Y0185384D01*
X0195446Y0185418D01*
X0195293Y0185457D01*
X0195141Y0185499D01*
X0194991Y0185545D01*
X0194841Y0185595D01*
X0194693Y0185649D01*
X0194546Y0185706D01*
X0194400Y0185767D01*
X0194257Y0185832D01*
X0194114Y0185900D01*
X0193974Y0185972D01*
X0193836Y0186047D01*
X0193699Y0186126D01*
X0193564Y0186208D01*
X0193432Y0186294D01*
X0193302Y0186383D01*
X0193174Y0186475D01*
X0193048Y0186571D01*
X0192925Y0186669D01*
X0192805Y0186771D01*
X0192687Y0186876D01*
X0192571Y0186983D01*
X0192459Y0187094D01*
X0192349Y0187207D01*
X0192242Y0187323D01*
X0192138Y0187441D01*
X0192037Y0187563D01*
X0191940Y0187686D01*
X0191845Y0187813D01*
X0191754Y0187941D01*
X0191665Y0188072D01*
X0191581Y0188205D01*
X0191499Y0188340D01*
X0191421Y0188477D01*
X0191347Y0188616D01*
X0191276Y0188757D01*
X0191208Y0188899D01*
X0191145Y0189044D01*
X0191084Y0189189D01*
X0191028Y0189337D01*
X0190975Y0189485D01*
X0190926Y0189635D01*
X0190881Y0189786D01*
X0190840Y0189939D01*
X0190802Y0190092D01*
X0190769Y0190246D01*
X0190739Y0190401D01*
X0190713Y0190556D01*
X0190692Y0190713D01*
X0190674Y0190869D01*
X0190660Y0191026D01*
X0190650Y0191184D01*
X0190644Y0191341D01*
X0190642Y0191499D01*
X0195642Y0381499D02*
X0195644Y0381657D01*
X0195650Y0381814D01*
X0195660Y0381972D01*
X0195674Y0382129D01*
X0195692Y0382285D01*
X0195713Y0382442D01*
X0195739Y0382597D01*
X0195769Y0382752D01*
X0195802Y0382906D01*
X0195840Y0383059D01*
X0195881Y0383212D01*
X0195926Y0383363D01*
X0195975Y0383513D01*
X0196028Y0383661D01*
X0196084Y0383809D01*
X0196145Y0383954D01*
X0196208Y0384099D01*
X0196276Y0384241D01*
X0196347Y0384382D01*
X0196421Y0384521D01*
X0196499Y0384658D01*
X0196581Y0384793D01*
X0196665Y0384926D01*
X0196754Y0385057D01*
X0196845Y0385185D01*
X0196940Y0385312D01*
X0197037Y0385435D01*
X0197138Y0385557D01*
X0197242Y0385675D01*
X0197349Y0385791D01*
X0197459Y0385904D01*
X0197571Y0386015D01*
X0197687Y0386122D01*
X0197805Y0386227D01*
X0197925Y0386329D01*
X0198048Y0386427D01*
X0198174Y0386523D01*
X0198302Y0386615D01*
X0198432Y0386704D01*
X0198564Y0386790D01*
X0198699Y0386872D01*
X0198836Y0386951D01*
X0198974Y0387026D01*
X0199114Y0387098D01*
X0199257Y0387166D01*
X0199400Y0387231D01*
X0199546Y0387292D01*
X0199693Y0387349D01*
X0199841Y0387403D01*
X0199991Y0387453D01*
X0200141Y0387499D01*
X0200293Y0387541D01*
X0200446Y0387580D01*
X0200600Y0387614D01*
X0200755Y0387645D01*
X0200910Y0387671D01*
X0201066Y0387694D01*
X0201223Y0387713D01*
X0201380Y0387728D01*
X0201537Y0387739D01*
X0201695Y0387746D01*
X0201853Y0387749D01*
X0202010Y0387748D01*
X0202168Y0387743D01*
X0202325Y0387734D01*
X0202483Y0387721D01*
X0202639Y0387704D01*
X0202796Y0387683D01*
X0202951Y0387659D01*
X0203106Y0387630D01*
X0203261Y0387597D01*
X0203414Y0387561D01*
X0203567Y0387520D01*
X0203718Y0387476D01*
X0203868Y0387428D01*
X0204017Y0387377D01*
X0204165Y0387321D01*
X0204311Y0387262D01*
X0204456Y0387199D01*
X0204599Y0387132D01*
X0204740Y0387062D01*
X0204879Y0386989D01*
X0205017Y0386912D01*
X0205153Y0386831D01*
X0205286Y0386747D01*
X0205417Y0386660D01*
X0205546Y0386569D01*
X0205673Y0386475D01*
X0205798Y0386378D01*
X0205919Y0386278D01*
X0206039Y0386175D01*
X0206155Y0386069D01*
X0206269Y0385960D01*
X0206381Y0385848D01*
X0206489Y0385734D01*
X0206594Y0385616D01*
X0206697Y0385496D01*
X0206796Y0385374D01*
X0206892Y0385249D01*
X0206985Y0385121D01*
X0207075Y0384992D01*
X0207161Y0384860D01*
X0207245Y0384726D01*
X0207324Y0384590D01*
X0207401Y0384452D01*
X0207473Y0384312D01*
X0207542Y0384170D01*
X0207608Y0384027D01*
X0207670Y0383882D01*
X0207728Y0383735D01*
X0207783Y0383587D01*
X0207834Y0383438D01*
X0207881Y0383287D01*
X0207924Y0383136D01*
X0207963Y0382983D01*
X0207999Y0382829D01*
X0208030Y0382675D01*
X0208058Y0382520D01*
X0208082Y0382364D01*
X0208102Y0382207D01*
X0208118Y0382050D01*
X0208130Y0381893D01*
X0208138Y0381736D01*
X0208142Y0381578D01*
X0208142Y0381420D01*
X0208138Y0381262D01*
X0208130Y0381105D01*
X0208118Y0380948D01*
X0208102Y0380791D01*
X0208082Y0380634D01*
X0208058Y0380478D01*
X0208030Y0380323D01*
X0207999Y0380169D01*
X0207963Y0380015D01*
X0207924Y0379862D01*
X0207881Y0379711D01*
X0207834Y0379560D01*
X0207783Y0379411D01*
X0207728Y0379263D01*
X0207670Y0379116D01*
X0207608Y0378971D01*
X0207542Y0378828D01*
X0207473Y0378686D01*
X0207401Y0378546D01*
X0207324Y0378408D01*
X0207245Y0378272D01*
X0207161Y0378138D01*
X0207075Y0378006D01*
X0206985Y0377877D01*
X0206892Y0377749D01*
X0206796Y0377624D01*
X0206697Y0377502D01*
X0206594Y0377382D01*
X0206489Y0377264D01*
X0206381Y0377150D01*
X0206269Y0377038D01*
X0206155Y0376929D01*
X0206039Y0376823D01*
X0205919Y0376720D01*
X0205798Y0376620D01*
X0205673Y0376523D01*
X0205546Y0376429D01*
X0205417Y0376338D01*
X0205286Y0376251D01*
X0205153Y0376167D01*
X0205017Y0376086D01*
X0204879Y0376009D01*
X0204740Y0375936D01*
X0204599Y0375866D01*
X0204456Y0375799D01*
X0204311Y0375736D01*
X0204165Y0375677D01*
X0204017Y0375621D01*
X0203868Y0375570D01*
X0203718Y0375522D01*
X0203567Y0375478D01*
X0203414Y0375437D01*
X0203261Y0375401D01*
X0203106Y0375368D01*
X0202951Y0375339D01*
X0202796Y0375315D01*
X0202639Y0375294D01*
X0202483Y0375277D01*
X0202325Y0375264D01*
X0202168Y0375255D01*
X0202010Y0375250D01*
X0201853Y0375249D01*
X0201695Y0375252D01*
X0201537Y0375259D01*
X0201380Y0375270D01*
X0201223Y0375285D01*
X0201066Y0375304D01*
X0200910Y0375327D01*
X0200755Y0375353D01*
X0200600Y0375384D01*
X0200446Y0375418D01*
X0200293Y0375457D01*
X0200141Y0375499D01*
X0199991Y0375545D01*
X0199841Y0375595D01*
X0199693Y0375649D01*
X0199546Y0375706D01*
X0199400Y0375767D01*
X0199257Y0375832D01*
X0199114Y0375900D01*
X0198974Y0375972D01*
X0198836Y0376047D01*
X0198699Y0376126D01*
X0198564Y0376208D01*
X0198432Y0376294D01*
X0198302Y0376383D01*
X0198174Y0376475D01*
X0198048Y0376571D01*
X0197925Y0376669D01*
X0197805Y0376771D01*
X0197687Y0376876D01*
X0197571Y0376983D01*
X0197459Y0377094D01*
X0197349Y0377207D01*
X0197242Y0377323D01*
X0197138Y0377441D01*
X0197037Y0377563D01*
X0196940Y0377686D01*
X0196845Y0377813D01*
X0196754Y0377941D01*
X0196665Y0378072D01*
X0196581Y0378205D01*
X0196499Y0378340D01*
X0196421Y0378477D01*
X0196347Y0378616D01*
X0196276Y0378757D01*
X0196208Y0378899D01*
X0196145Y0379044D01*
X0196084Y0379189D01*
X0196028Y0379337D01*
X0195975Y0379485D01*
X0195926Y0379635D01*
X0195881Y0379786D01*
X0195840Y0379939D01*
X0195802Y0380092D01*
X0195769Y0380246D01*
X0195739Y0380401D01*
X0195713Y0380556D01*
X0195692Y0380713D01*
X0195674Y0380869D01*
X0195660Y0381026D01*
X0195650Y0381184D01*
X0195644Y0381341D01*
X0195642Y0381499D01*
D18*
X0157898Y0250026D02*
X0151398Y0250026D01*
X0151338Y0250024D01*
X0151277Y0250019D01*
X0151218Y0250010D01*
X0151159Y0249997D01*
X0151100Y0249981D01*
X0151043Y0249961D01*
X0150988Y0249938D01*
X0150933Y0249911D01*
X0150881Y0249882D01*
X0150830Y0249849D01*
X0150781Y0249813D01*
X0150735Y0249775D01*
X0150691Y0249733D01*
X0150649Y0249689D01*
X0150611Y0249643D01*
X0150575Y0249594D01*
X0150542Y0249543D01*
X0150513Y0249491D01*
X0150486Y0249436D01*
X0150463Y0249381D01*
X0150443Y0249324D01*
X0150427Y0249265D01*
X0150414Y0249206D01*
X0150405Y0249147D01*
X0150400Y0249086D01*
X0150398Y0249026D01*
X0150398Y0243026D02*
X0150400Y0242966D01*
X0150405Y0242905D01*
X0150414Y0242846D01*
X0150427Y0242787D01*
X0150443Y0242728D01*
X0150463Y0242671D01*
X0150486Y0242616D01*
X0150513Y0242561D01*
X0150542Y0242509D01*
X0150575Y0242458D01*
X0150611Y0242409D01*
X0150649Y0242363D01*
X0150691Y0242319D01*
X0150735Y0242277D01*
X0150781Y0242239D01*
X0150830Y0242203D01*
X0150881Y0242170D01*
X0150933Y0242141D01*
X0150988Y0242114D01*
X0151043Y0242091D01*
X0151100Y0242071D01*
X0151159Y0242055D01*
X0151218Y0242042D01*
X0151277Y0242033D01*
X0151338Y0242028D01*
X0151398Y0242026D01*
X0157898Y0242026D01*
X0157958Y0242028D01*
X0158019Y0242033D01*
X0158078Y0242042D01*
X0158137Y0242055D01*
X0158196Y0242071D01*
X0158253Y0242091D01*
X0158308Y0242114D01*
X0158363Y0242141D01*
X0158415Y0242170D01*
X0158466Y0242203D01*
X0158515Y0242239D01*
X0158561Y0242277D01*
X0158605Y0242319D01*
X0158647Y0242363D01*
X0158685Y0242409D01*
X0158721Y0242458D01*
X0158754Y0242509D01*
X0158783Y0242561D01*
X0158810Y0242616D01*
X0158833Y0242671D01*
X0158853Y0242728D01*
X0158869Y0242787D01*
X0158882Y0242846D01*
X0158891Y0242905D01*
X0158896Y0242966D01*
X0158898Y0243026D01*
X0157780Y0240026D02*
X0151280Y0240026D01*
X0151220Y0240024D01*
X0151159Y0240019D01*
X0151100Y0240010D01*
X0151041Y0239997D01*
X0150982Y0239981D01*
X0150925Y0239961D01*
X0150870Y0239938D01*
X0150815Y0239911D01*
X0150763Y0239882D01*
X0150712Y0239849D01*
X0150663Y0239813D01*
X0150617Y0239775D01*
X0150573Y0239733D01*
X0150531Y0239689D01*
X0150493Y0239643D01*
X0150457Y0239594D01*
X0150424Y0239543D01*
X0150395Y0239491D01*
X0150368Y0239436D01*
X0150345Y0239381D01*
X0150325Y0239324D01*
X0150309Y0239265D01*
X0150296Y0239206D01*
X0150287Y0239147D01*
X0150282Y0239086D01*
X0150280Y0239026D01*
X0150280Y0233026D02*
X0150282Y0232966D01*
X0150287Y0232905D01*
X0150296Y0232846D01*
X0150309Y0232787D01*
X0150325Y0232728D01*
X0150345Y0232671D01*
X0150368Y0232616D01*
X0150395Y0232561D01*
X0150424Y0232509D01*
X0150457Y0232458D01*
X0150493Y0232409D01*
X0150531Y0232363D01*
X0150573Y0232319D01*
X0150617Y0232277D01*
X0150663Y0232239D01*
X0150712Y0232203D01*
X0150763Y0232170D01*
X0150815Y0232141D01*
X0150870Y0232114D01*
X0150925Y0232091D01*
X0150982Y0232071D01*
X0151041Y0232055D01*
X0151100Y0232042D01*
X0151159Y0232033D01*
X0151220Y0232028D01*
X0151280Y0232026D01*
X0157780Y0232026D01*
X0157840Y0232028D01*
X0157901Y0232033D01*
X0157960Y0232042D01*
X0158019Y0232055D01*
X0158078Y0232071D01*
X0158135Y0232091D01*
X0158190Y0232114D01*
X0158245Y0232141D01*
X0158297Y0232170D01*
X0158348Y0232203D01*
X0158397Y0232239D01*
X0158443Y0232277D01*
X0158487Y0232319D01*
X0158529Y0232363D01*
X0158567Y0232409D01*
X0158603Y0232458D01*
X0158636Y0232509D01*
X0158665Y0232561D01*
X0158692Y0232616D01*
X0158715Y0232671D01*
X0158735Y0232728D01*
X0158751Y0232787D01*
X0158764Y0232846D01*
X0158773Y0232905D01*
X0158778Y0232966D01*
X0158780Y0233026D01*
X0157623Y0230066D02*
X0151123Y0230066D01*
X0151063Y0230064D01*
X0151002Y0230059D01*
X0150943Y0230050D01*
X0150884Y0230037D01*
X0150825Y0230021D01*
X0150768Y0230001D01*
X0150713Y0229978D01*
X0150658Y0229951D01*
X0150606Y0229922D01*
X0150555Y0229889D01*
X0150506Y0229853D01*
X0150460Y0229815D01*
X0150416Y0229773D01*
X0150374Y0229729D01*
X0150336Y0229683D01*
X0150300Y0229634D01*
X0150267Y0229583D01*
X0150238Y0229531D01*
X0150211Y0229476D01*
X0150188Y0229421D01*
X0150168Y0229364D01*
X0150152Y0229305D01*
X0150139Y0229246D01*
X0150130Y0229187D01*
X0150125Y0229126D01*
X0150123Y0229066D01*
X0150123Y0223066D02*
X0150125Y0223006D01*
X0150130Y0222945D01*
X0150139Y0222886D01*
X0150152Y0222827D01*
X0150168Y0222768D01*
X0150188Y0222711D01*
X0150211Y0222656D01*
X0150238Y0222601D01*
X0150267Y0222549D01*
X0150300Y0222498D01*
X0150336Y0222449D01*
X0150374Y0222403D01*
X0150416Y0222359D01*
X0150460Y0222317D01*
X0150506Y0222279D01*
X0150555Y0222243D01*
X0150606Y0222210D01*
X0150658Y0222181D01*
X0150713Y0222154D01*
X0150768Y0222131D01*
X0150825Y0222111D01*
X0150884Y0222095D01*
X0150943Y0222082D01*
X0151002Y0222073D01*
X0151063Y0222068D01*
X0151123Y0222066D01*
X0157623Y0222066D01*
X0157683Y0222068D01*
X0157744Y0222073D01*
X0157803Y0222082D01*
X0157862Y0222095D01*
X0157921Y0222111D01*
X0157978Y0222131D01*
X0158033Y0222154D01*
X0158088Y0222181D01*
X0158140Y0222210D01*
X0158191Y0222243D01*
X0158240Y0222279D01*
X0158286Y0222317D01*
X0158330Y0222359D01*
X0158372Y0222403D01*
X0158410Y0222449D01*
X0158446Y0222498D01*
X0158479Y0222549D01*
X0158508Y0222601D01*
X0158535Y0222656D01*
X0158558Y0222711D01*
X0158578Y0222768D01*
X0158594Y0222827D01*
X0158607Y0222886D01*
X0158616Y0222945D01*
X0158621Y0223006D01*
X0158623Y0223066D01*
X0157583Y0219987D02*
X0151083Y0219987D01*
X0151023Y0219985D01*
X0150962Y0219980D01*
X0150903Y0219971D01*
X0150844Y0219958D01*
X0150785Y0219942D01*
X0150728Y0219922D01*
X0150673Y0219899D01*
X0150618Y0219872D01*
X0150566Y0219843D01*
X0150515Y0219810D01*
X0150466Y0219774D01*
X0150420Y0219736D01*
X0150376Y0219694D01*
X0150334Y0219650D01*
X0150296Y0219604D01*
X0150260Y0219555D01*
X0150227Y0219504D01*
X0150198Y0219452D01*
X0150171Y0219397D01*
X0150148Y0219342D01*
X0150128Y0219285D01*
X0150112Y0219226D01*
X0150099Y0219167D01*
X0150090Y0219108D01*
X0150085Y0219047D01*
X0150083Y0218987D01*
X0150083Y0212987D02*
X0150085Y0212927D01*
X0150090Y0212866D01*
X0150099Y0212807D01*
X0150112Y0212748D01*
X0150128Y0212689D01*
X0150148Y0212632D01*
X0150171Y0212577D01*
X0150198Y0212522D01*
X0150227Y0212470D01*
X0150260Y0212419D01*
X0150296Y0212370D01*
X0150334Y0212324D01*
X0150376Y0212280D01*
X0150420Y0212238D01*
X0150466Y0212200D01*
X0150515Y0212164D01*
X0150566Y0212131D01*
X0150618Y0212102D01*
X0150673Y0212075D01*
X0150728Y0212052D01*
X0150785Y0212032D01*
X0150844Y0212016D01*
X0150903Y0212003D01*
X0150962Y0211994D01*
X0151023Y0211989D01*
X0151083Y0211987D01*
X0157583Y0211987D01*
X0157643Y0211989D01*
X0157704Y0211994D01*
X0157763Y0212003D01*
X0157822Y0212016D01*
X0157881Y0212032D01*
X0157938Y0212052D01*
X0157993Y0212075D01*
X0158048Y0212102D01*
X0158100Y0212131D01*
X0158151Y0212164D01*
X0158200Y0212200D01*
X0158246Y0212238D01*
X0158290Y0212280D01*
X0158332Y0212324D01*
X0158370Y0212370D01*
X0158406Y0212419D01*
X0158439Y0212470D01*
X0158468Y0212522D01*
X0158495Y0212577D01*
X0158518Y0212632D01*
X0158538Y0212689D01*
X0158554Y0212748D01*
X0158567Y0212807D01*
X0158576Y0212866D01*
X0158581Y0212927D01*
X0158583Y0212987D01*
X0157544Y0210066D02*
X0151044Y0210066D01*
X0150984Y0210064D01*
X0150923Y0210059D01*
X0150864Y0210050D01*
X0150805Y0210037D01*
X0150746Y0210021D01*
X0150689Y0210001D01*
X0150634Y0209978D01*
X0150579Y0209951D01*
X0150527Y0209922D01*
X0150476Y0209889D01*
X0150427Y0209853D01*
X0150381Y0209815D01*
X0150337Y0209773D01*
X0150295Y0209729D01*
X0150257Y0209683D01*
X0150221Y0209634D01*
X0150188Y0209583D01*
X0150159Y0209531D01*
X0150132Y0209476D01*
X0150109Y0209421D01*
X0150089Y0209364D01*
X0150073Y0209305D01*
X0150060Y0209246D01*
X0150051Y0209187D01*
X0150046Y0209126D01*
X0150044Y0209066D01*
X0150044Y0203066D02*
X0150046Y0203006D01*
X0150051Y0202945D01*
X0150060Y0202886D01*
X0150073Y0202827D01*
X0150089Y0202768D01*
X0150109Y0202711D01*
X0150132Y0202656D01*
X0150159Y0202601D01*
X0150188Y0202549D01*
X0150221Y0202498D01*
X0150257Y0202449D01*
X0150295Y0202403D01*
X0150337Y0202359D01*
X0150381Y0202317D01*
X0150427Y0202279D01*
X0150476Y0202243D01*
X0150527Y0202210D01*
X0150579Y0202181D01*
X0150634Y0202154D01*
X0150689Y0202131D01*
X0150746Y0202111D01*
X0150805Y0202095D01*
X0150864Y0202082D01*
X0150923Y0202073D01*
X0150984Y0202068D01*
X0151044Y0202066D01*
X0157544Y0202066D01*
X0157604Y0202068D01*
X0157665Y0202073D01*
X0157724Y0202082D01*
X0157783Y0202095D01*
X0157842Y0202111D01*
X0157899Y0202131D01*
X0157954Y0202154D01*
X0158009Y0202181D01*
X0158061Y0202210D01*
X0158112Y0202243D01*
X0158161Y0202279D01*
X0158207Y0202317D01*
X0158251Y0202359D01*
X0158293Y0202403D01*
X0158331Y0202449D01*
X0158367Y0202498D01*
X0158400Y0202549D01*
X0158429Y0202601D01*
X0158456Y0202656D01*
X0158479Y0202711D01*
X0158499Y0202768D01*
X0158515Y0202827D01*
X0158528Y0202886D01*
X0158537Y0202945D01*
X0158542Y0203006D01*
X0158544Y0203066D01*
X0158544Y0209066D02*
X0158542Y0209126D01*
X0158537Y0209187D01*
X0158528Y0209246D01*
X0158515Y0209305D01*
X0158499Y0209364D01*
X0158479Y0209421D01*
X0158456Y0209476D01*
X0158429Y0209531D01*
X0158400Y0209583D01*
X0158367Y0209634D01*
X0158331Y0209683D01*
X0158293Y0209729D01*
X0158251Y0209773D01*
X0158207Y0209815D01*
X0158161Y0209853D01*
X0158112Y0209889D01*
X0158061Y0209922D01*
X0158009Y0209951D01*
X0157954Y0209978D01*
X0157899Y0210001D01*
X0157842Y0210021D01*
X0157783Y0210037D01*
X0157724Y0210050D01*
X0157665Y0210059D01*
X0157604Y0210064D01*
X0157544Y0210066D01*
X0158583Y0218987D02*
X0158581Y0219047D01*
X0158576Y0219108D01*
X0158567Y0219167D01*
X0158554Y0219226D01*
X0158538Y0219285D01*
X0158518Y0219342D01*
X0158495Y0219397D01*
X0158468Y0219452D01*
X0158439Y0219504D01*
X0158406Y0219555D01*
X0158370Y0219604D01*
X0158332Y0219650D01*
X0158290Y0219694D01*
X0158246Y0219736D01*
X0158200Y0219774D01*
X0158151Y0219810D01*
X0158100Y0219843D01*
X0158048Y0219872D01*
X0157993Y0219899D01*
X0157938Y0219922D01*
X0157881Y0219942D01*
X0157822Y0219958D01*
X0157763Y0219971D01*
X0157704Y0219980D01*
X0157643Y0219985D01*
X0157583Y0219987D01*
X0158623Y0229066D02*
X0158621Y0229126D01*
X0158616Y0229187D01*
X0158607Y0229246D01*
X0158594Y0229305D01*
X0158578Y0229364D01*
X0158558Y0229421D01*
X0158535Y0229476D01*
X0158508Y0229531D01*
X0158479Y0229583D01*
X0158446Y0229634D01*
X0158410Y0229683D01*
X0158372Y0229729D01*
X0158330Y0229773D01*
X0158286Y0229815D01*
X0158240Y0229853D01*
X0158191Y0229889D01*
X0158140Y0229922D01*
X0158088Y0229951D01*
X0158033Y0229978D01*
X0157978Y0230001D01*
X0157921Y0230021D01*
X0157862Y0230037D01*
X0157803Y0230050D01*
X0157744Y0230059D01*
X0157683Y0230064D01*
X0157623Y0230066D01*
X0158780Y0239026D02*
X0158778Y0239086D01*
X0158773Y0239147D01*
X0158764Y0239206D01*
X0158751Y0239265D01*
X0158735Y0239324D01*
X0158715Y0239381D01*
X0158692Y0239436D01*
X0158665Y0239491D01*
X0158636Y0239543D01*
X0158603Y0239594D01*
X0158567Y0239643D01*
X0158529Y0239689D01*
X0158487Y0239733D01*
X0158443Y0239775D01*
X0158397Y0239813D01*
X0158348Y0239849D01*
X0158297Y0239882D01*
X0158245Y0239911D01*
X0158190Y0239938D01*
X0158135Y0239961D01*
X0158078Y0239981D01*
X0158019Y0239997D01*
X0157960Y0240010D01*
X0157901Y0240019D01*
X0157840Y0240024D01*
X0157780Y0240026D01*
X0158898Y0249026D02*
X0158896Y0249086D01*
X0158891Y0249147D01*
X0158882Y0249206D01*
X0158869Y0249265D01*
X0158853Y0249324D01*
X0158833Y0249381D01*
X0158810Y0249436D01*
X0158783Y0249491D01*
X0158754Y0249543D01*
X0158721Y0249594D01*
X0158685Y0249643D01*
X0158647Y0249689D01*
X0158605Y0249733D01*
X0158561Y0249775D01*
X0158515Y0249813D01*
X0158466Y0249849D01*
X0158415Y0249882D01*
X0158363Y0249911D01*
X0158308Y0249938D01*
X0158253Y0249961D01*
X0158196Y0249981D01*
X0158137Y0249997D01*
X0158078Y0250010D01*
X0158019Y0250019D01*
X0157958Y0250024D01*
X0157898Y0250026D01*
X0387129Y0402249D02*
X0387129Y0405630D01*
X0391072Y0401149D02*
X0393185Y0401149D01*
X0397129Y0402249D02*
X0397129Y0405630D01*
D19*
X0385829Y0407940D03*
M02*
